<?xml version="1.0" encoding="utf-8"?>
<!-- Generator: Adobe Illustrator 16.0.0, SVG Export Plug-In . SVG Version: 6.00 Build 0)  -->
<!DOCTYPE svg PUBLIC "-//W3C//DTD SVG 1.1//EN" "http://www.w3.org/Graphics/SVG/1.1/DTD/svg11.dtd">
<svg version="1.1" id="Layer_1" xmlns="http://www.w3.org/2000/svg" xmlns:xlink="http://www.w3.org/1999/xlink" x="0px" y="0px"
	 width="612px" height="792px" viewBox="0 0 612 792" enable-background="new 0 0 612 792" xml:space="preserve">
<g id="Cold_Root">
	<path fill="none" stroke="#010101" stroke-width="0.5" stroke-miterlimit="10" d="M480.496,452.533
		c0.688,0.229,2.372,0.842,3.29,2.524c0.688,1.147,0.459,1.989,0.306,5.968c0,3.672,0.076,3.365,0,4.972s-0.306,2.448-1.377,6.427
		c-1.606,6.35-1.683,6.885-1.606,7.727c0.076,2.677,0.765,3.136,1.377,6.349c0.536,3.596,0.076,5.05,0,10.328
		c0,0-0.076,4.59,0.306,9.639c0.536,7.344,5.738,16.218,12.699,20.885c5.126,3.596,14.152,5.508,32.207,9.333
		c0.994,0.229,3.901,0.842,3.901,1.606s-2.678,1.377-3.596,1.606c-4.973,1.147-9.562,0.612-15.606-0.459
		c-5.431-0.994-8.108-1.53-11.628-2.678c-3.901-1.224-9.104-3.289-14.688-6.731c-3.901-5.509-11.169-16.065-12.011-30.906
		c-0.765-13.312,0.688-20.349,0.688-20.349c0.765-3.825,2.143-8.415,0.995-8.951c-0.995-0.459-2.448,2.448-7.191,4.973
		c-0.765,0.459-0.306,0.153-5.508,2.295c-3.672,1.606-4.743,2.065-6.503,2.295c-0.994,0.153-4.59,0.688-5.125-0.688
		c-0.536-1.301,1.453-3.672,3.595-4.973c2.219-1.529,3.366-0.841,6.197-2.295c1.912-1.07,1.988-1.606,3.901-2.983
		c1.224-0.918,2.371-1.53,3.366-1.989c4.054-1.759,4.819-1.606,5.508-2.447c0.765-1.147,0.688-3.596-3.29-9.562
		c2.219-1.53,4.36-1.989,5.585-2.219C477.437,452.074,478.813,451.845,480.496,452.533z"/>
</g>
<g id="Salt_Root">
	<path fill="none" stroke="#010101" stroke-width="0.5" stroke-miterlimit="10" d="M351.135,451.156
		c0.688,0.229,2.372,0.842,3.29,2.524c0.688,1.147,0.459,1.989,0.306,5.968c0,3.672,0.076,3.365,0,4.972s-0.306,2.448-1.377,6.427
		c-1.606,6.349-1.683,6.885-1.606,7.727c0.076,2.677,0.765,3.136,1.377,6.349c0.535,3.596,0.076,5.05,0,10.328
		c0,0-0.076,4.59,0.306,9.639c0.536,7.344,5.738,16.218,12.699,20.885c5.126,3.596,14.152,5.508,32.207,9.333
		c0.994,0.229,3.901,0.842,3.901,1.606s-2.602,1.377-3.596,1.606c-5.585,1.301-10.48,0.535-14.841-0.153
		c-7.574-1.224-11.322-1.836-12.623-2.218c-3.442-1.071-8.721-3.214-14.458-7.497c-3.901-5.509-11.169-16.065-12.011-30.906
		c-0.765-13.312,0.688-20.349,0.688-20.349c0.765-3.825,2.142-8.415,0.994-8.951c-0.994-0.459-2.447,2.448-7.19,4.973
		c-0.766,0.459-0.307,0.153-5.508,2.295c-3.673,1.606-4.743,2.065-6.503,2.295c-0.994,0.153-4.59,0.688-5.126-0.688
		c-0.535-1.301,1.454-3.672,3.596-4.973c2.219-1.529,3.366-0.841,6.196-2.295c1.913-1.07,1.989-1.606,3.902-2.983
		c1.224-0.918,2.371-1.53,3.365-1.989c4.055-1.759,4.82-1.606,5.509-2.447c0.765-1.147,0.688-3.596-3.29-9.562
		c2.219-1.53,4.36-1.989,5.585-2.219C348.075,450.697,349.452,450.468,351.135,451.156z"/>
</g>
<g id="Salt_Shoot">
	<path fill="none" stroke="#010101" stroke-width="0.5" stroke-miterlimit="10" d="M342.031,452.074
		c-2.219-5.202-3.06-9.409-3.366-12.393c-0.229-2.295-0.306-4.131-0.229-5.508c0.229-4.055,1.148-6.35,0.919-11.169
		c-0.307-6.579-2.678-11.476-5.814-18.284c-3.442-7.344-5.355-8.415-6.503-13.999c-0.459-2.525-0.306-3.443-0.688-11.628
		c-0.229-6.12-0.459-7.497-0.688-12.623c-1.377-28.381,0.766-41.998,5.509-48.883c1.912-2.754,3.595-3.595,4.819-3.672
		c2.906-0.382,5.737,2.448,7.19,4.743c1.913,3.137,1.147,5.279,0.688,14.612c-0.459,10.328,0.307,12.316-1.377,17.595
		c-1.147,3.825-2.601,6.196-3.289,7.344c-8.645,15.759-1.76,48.884,1.606,48.884c0.994,0,0.459-2.678,3.596-7.956
		c1.683-2.907,4.36-5.967,9.792-12.087c1.453-1.606,1.224-1.377,1.912-2.218c0.765-0.918,4.59-5.432,8.415-11.246
		c7.88-12.087,6.503-15.835,13.388-22.95c2.219-2.295,4.284-3.825,7.19-5.967c9.41-7.038,12.47-6.12,17.213-11.628
		c2.448-2.907,3.06-4.743,6.503-7.727c3.595-3.136,6.502-4.131,7.19-4.36c4.055-1.377,9.41-1.606,10.099,0
		c0.688,1.836-4.82,5.661-7.497,7.497c-5.05,3.442-6.732,3.213-10.634,6.196c-3.596,2.678-5.585,5.508-7.497,7.956
		c-3.672,5.049-4.055,7.497-7.727,14.611c-1.76,3.443-4.59,8.721-9.104,14.612c-5.584,7.344-8.415,11.016-13.388,12.316
		c-3.06,0.841-5.278,0.229-7.497,2.295c-1.147,1.071-1.224,1.759-3.289,7.344c-2.601,7.038-2.831,6.809-3.29,8.951
		c-0.918,4.131-0.229,4.742-1.377,7.344c-1.377,3.213-2.601,2.907-3.901,5.967c-1.377,3.213-0.076,4.055-1.377,8.645
		c-0.994,3.901-2.142,4.055-2.601,7.038c-0.535,3.596,0.459,6.426,1.377,8.95c0.306,0.842,0.535,1.147,1.147,2.295
		c0.306,0.612,0.688,1.147,1.147,2.448c0.459,0.918,0.994,2.448,1.377,4.36c-1.224,0.153-2.448,0.383-3.825,0.612
		C345.856,450.774,343.715,451.463,342.031,452.074z"/>
	<path fill="none" stroke="#010101" stroke-width="0.5" stroke-miterlimit="10" d="M350.753,390.263
		c0.918-3.213,1.147-5.967,1.377-7.956c0.229-3.442-0.077-4.82-0.307-5.661c-0.688-2.295-1.453-2.448-2.218-4.36
		c-2.143-4.82,1.224-8.186-0.995-11.628c-0.994-1.53-2.907-2.907-3.901-2.295c-1.912,1.071,2.142,8.415-0.994,15.989
		c-0.229,0.612-0.536,1.224-0.842,1.683c-1.071,1.836-2.219,3.06-2.448,3.29c-1.912,2.065-3.289,7.879-3.519,12.469
		c-0.307,6.808,1.836,12.164,3.213,14.994"/>
</g>
<g id="Drought_Root">
	<path fill="none" stroke="#010101" stroke-width="0.5" stroke-miterlimit="10" d="M203.49,448.785
		c0.688,0.229,2.371,0.842,3.289,2.524c0.688,1.147,0.459,1.989,0.306,5.967c0,3.672,0.077,3.366,0,4.973s-0.306,2.448-1.377,6.426
		c-1.606,6.35-1.683,6.885-1.606,7.727c0.077,2.678,0.765,3.137,1.377,6.35c0.536,3.596,0.077,5.049,0,10.327
		c0,0-0.077,4.59,0.306,9.64c0.535,7.344,5.737,16.218,12.699,20.884c5.125,3.596,14.153,5.509,32.207,9.333
		c0.995,0.229,3.901,0.842,3.901,1.606c0,0.383-0.612,0.918-3.595,1.607c-6.426,1.529-11.857,1.07-12.623,0.994
		c-6.043-0.535-10.863-1.989-13.464-2.831c-3.978-1.377-9.639-3.748-15.836-8.032c-3.901-5.508-11.169-16.064-12.01-30.906
		c-0.765-13.311,0.688-20.349,0.688-20.349c0.765-3.825,2.142-8.415,0.995-8.95c-0.995-0.459-2.448,2.447-7.191,4.973
		c-0.765,0.459-0.306,0.152-5.508,2.295c-3.672,1.606-4.743,2.065-6.502,2.295c-0.995,0.152-4.59,0.688-5.125-0.688
		c-0.536-1.301,1.454-3.672,3.596-4.973c2.218-1.53,3.366-0.842,6.196-2.295c1.913-1.071,1.989-1.606,3.901-2.983
		c1.224-0.918,2.372-1.53,3.366-1.989c4.055-1.76,4.819-1.606,5.508-2.448c0.765-1.147,0.688-3.596-3.29-9.562
		c2.219-1.53,4.361-1.989,5.584-2.219C200.43,448.326,201.807,448.097,203.49,448.785z"/>
</g>
<g id="Drought_Shoot">
	<path fill="none" stroke="#010101" stroke-width="0.5" stroke-miterlimit="10" d="M194.769,450.697
		c-2.219-5.202-3.06-9.409-3.366-12.393c-0.229-2.295-0.306-4.131-0.229-5.508c0.229-4.055,1.147-6.35,0.918-11.169
		c-0.306-6.579-2.677-11.476-5.814-18.284c-3.442-7.344-5.355-8.415-6.502-13.999c-0.459-2.525-0.306-3.443-0.688-11.628
		c-0.229-6.12-0.459-7.497-0.688-12.623c-1.377-28.381,0.765-41.998,5.508-48.883c1.912-2.754,3.595-3.595,4.819-3.672
		c2.907-0.383,5.737,2.448,7.191,4.743c1.913,3.137,1.147,5.279,0.688,14.612c-0.459,10.328,0.306,12.316-1.377,17.595
		c-1.147,3.825-2.601,6.197-3.29,7.344c-8.645,15.759-1.759,48.884,1.606,48.884c0.995,0,0.459-2.678,3.596-7.956
		c1.683-2.907,4.36-5.967,9.792-12.087c1.453-1.606,1.224-1.377,1.913-2.218c0.765-0.918,4.59-5.432,8.415-11.246
		c7.88-12.087,6.503-15.835,13.388-22.95c2.219-2.295,4.284-3.825,7.191-5.967c9.41-7.038,12.47-6.12,17.212-11.628
		c2.448-2.907,3.06-4.743,6.503-7.727c3.595-3.137,6.502-4.131,7.191-4.36c4.054-1.377,9.409-1.607,10.098,0
		c0.688,1.836-4.819,5.661-7.497,7.497c-5.049,3.443-6.732,3.213-10.634,6.197c-3.595,2.677-5.584,5.508-7.497,7.956
		c-3.672,5.049-4.054,7.497-7.727,14.611c-1.759,3.442-4.59,8.721-9.103,14.612c-5.585,7.344-8.415,11.016-13.388,12.316
		c-3.06,0.841-5.278,0.229-7.497,2.295c-1.147,1.071-1.224,1.759-3.29,7.344c-2.601,7.038-2.831,6.809-3.29,8.951
		c-0.918,4.131-0.229,4.742-1.377,7.344c-1.377,3.213-2.601,2.907-3.901,5.967c-1.377,3.213-0.077,4.055-1.377,8.645
		c-0.995,3.901-2.142,4.055-2.601,7.038c-0.536,3.596,0.459,6.426,1.377,8.95c0.306,0.842,0.536,1.147,1.147,2.295
		c0.306,0.612,0.688,1.147,1.147,2.448c0.459,0.918,0.995,2.448,1.377,4.36c-1.224,0.153-2.448,0.383-3.825,0.612
		C198.594,449.396,196.452,450.086,194.769,450.697z"/>
	<path fill="none" stroke="#010101" stroke-width="0.5" stroke-miterlimit="10" d="M203.49,388.886
		c0.918-3.213,1.147-5.967,1.377-7.956c0.229-3.443-0.077-4.82-0.306-5.661c-0.688-2.295-1.454-2.448-2.219-4.36
		c-2.142-4.82,1.224-8.186-0.994-11.628c-0.995-1.53-2.907-2.907-3.902-2.295c-1.912,1.071,2.142,8.415-0.994,15.989
		c-0.229,0.612-0.536,1.224-0.842,1.683c-1.071,1.836-2.218,3.06-2.448,3.289c-1.913,2.066-3.213,7.803-3.442,12.087
		c-0.383,6.961,1.836,12.393,3.213,15.224"/>
</g>
<g id="Control_Root">
	<path fill="none" stroke="#010101" stroke-width="0.5" stroke-miterlimit="10" d="M81.396,452.533
		c0.688,0.229,2.372,0.842,3.29,2.524c0.688,1.147,0.459,1.989,0.306,5.968c0,3.672,0.076,3.365,0,4.972
		c-0.077,1.606-0.306,2.448-1.377,6.427c-1.606,6.35-1.683,6.885-1.606,7.727c0.077,2.677,0.765,3.136,1.377,6.349
		c0.536,3.596,0.077,5.05,0,10.328c0,0-0.076,4.59,0.306,9.639c0.536,7.344,5.738,16.218,12.699,20.885
		c5.125,3.596,14.152,5.508,32.207,9.333c0.994,0.229,3.901,0.842,3.901,1.606s-2.524,1.377-3.596,1.606
		c-5.125,1.147-9.639,0.612-13.846-0.076c-4.59-0.766-7.65-1.301-12.011-2.678c-4.131-1.301-9.792-3.442-16.065-7.114
		c-3.901-5.509-11.169-16.065-12.01-30.906c-0.765-13.312,0.688-20.349,0.688-20.349c0.765-3.825,2.142-8.415,0.994-8.951
		c-0.994-0.459-2.448,2.448-7.191,4.973c-0.765,0.459-0.306,0.153-5.508,2.295c-3.672,1.606-4.743,2.065-6.502,2.295
		c-0.995,0.153-4.59,0.688-5.125-0.688c-0.536-1.301,1.453-3.672,3.595-4.973c2.219-1.529,3.366-0.841,6.197-2.295
		c1.912-1.07,1.989-1.606,3.901-2.983c1.224-0.918,2.372-1.53,3.366-1.989c4.054-1.759,4.819-1.606,5.508-2.447
		c0.765-1.147,0.688-3.596-3.29-9.562c2.218-1.53,4.36-1.989,5.584-2.219C78.336,452.074,79.713,451.845,81.396,452.533z"/>
</g>
<g id="Control_Shoot">
	<path fill="none" stroke="#010101" stroke-width="0.5" stroke-miterlimit="10" d="M72.675,454.446
		c-2.218-5.202-3.06-9.41-3.366-12.394c-0.229-2.295-0.306-4.131-0.229-5.508c0.229-4.055,1.147-6.35,0.918-11.169
		c-0.306-6.579-2.678-11.475-5.814-18.283c-3.442-7.345-5.355-8.415-6.502-14c-0.459-2.524-0.306-3.442-0.688-11.628
		c-0.229-6.12-0.459-7.497-0.688-12.623c-1.377-28.381,0.765-41.999,5.508-48.883c1.913-2.754,3.596-3.596,4.819-3.672
		c2.907-0.383,5.738,2.448,7.191,4.743c1.913,3.137,1.148,5.279,0.689,14.612c-0.459,10.327,0.306,12.316-1.377,17.595
		c-1.147,3.825-2.601,6.197-3.289,7.344c-8.645,15.759-1.76,48.883,1.606,48.883c0.994,0,0.459-2.678,3.595-7.956
		c1.683-2.907,4.361-5.967,9.792-12.087c1.454-1.606,1.224-1.377,1.913-2.218c0.765-0.918,4.59-5.432,8.415-11.246
		c7.879-12.087,6.502-15.835,13.388-22.95c2.218-2.295,4.284-3.825,7.191-5.967c9.409-7.038,12.469-6.12,17.212-11.628
		c2.448-2.907,3.06-4.743,6.502-7.727c3.596-3.137,6.502-4.131,7.191-4.36c4.055-1.377,9.41-1.607,10.098,0
		c0.688,1.836-4.819,5.661-7.497,7.497c-5.049,3.443-6.732,3.213-10.633,6.197c-3.596,2.677-5.584,5.508-7.497,7.956
		c-3.672,5.049-4.055,7.497-7.727,14.611c-1.76,3.442-4.59,8.721-9.104,14.611c-5.584,7.344-8.415,11.016-13.388,12.317
		c-3.06,0.841-5.278,0.229-7.497,2.295c-1.147,1.071-1.224,1.759-3.289,7.344c-2.601,7.038-2.831,6.809-3.29,8.95
		c-0.918,4.131-0.229,4.743-1.377,7.344c-1.377,3.213-2.601,2.907-3.902,5.967c-1.377,3.214-0.076,4.055-1.377,8.645
		c-0.995,3.902-2.142,4.055-2.601,7.038c-0.535,3.596,0.459,6.427,1.377,8.951c0.306,0.841,0.536,1.147,1.148,2.295
		c0.306,0.611,0.688,1.147,1.147,2.448c0.459,0.918,0.994,2.447,1.377,4.36c-1.224,0.152-2.448,0.382-3.825,0.611
		C76.5,453.146,74.358,453.834,72.675,454.446z"/>
	<path fill="none" stroke="#010101" stroke-width="0.5" stroke-miterlimit="10" d="M81.396,392.634
		c0.918-3.213,1.147-5.967,1.377-7.956c0.229-3.443-0.077-4.82-0.306-5.661c-0.688-2.295-1.453-2.448-2.218-4.361
		c-2.142-4.819,1.224-8.185-0.995-11.628c-0.995-1.53-2.907-2.907-3.901-2.295c-1.913,1.071,2.142,8.415-0.995,15.989
		c-0.229,0.612-0.536,1.224-0.841,1.683c-1.071,1.836-2.219,3.06-2.448,3.29c-2.372,2.524-3.213,9.562-3.29,10.251
		c-0.918,7.573,1.454,14.076,2.754,17.06"/>
</g>
<g id="Cold_Shoot">
	<path fill="none" stroke="#010101" stroke-width="0.5" stroke-miterlimit="10" d="M472.081,454.446
		c-2.218-5.202-3.06-9.41-3.365-12.394c-0.229-2.295-0.307-4.131-0.229-5.508c0.229-4.055,1.147-6.35,0.918-11.169
		c-0.307-6.579-2.678-11.475-5.814-18.283c-3.442-7.345-5.354-8.415-6.502-14c-0.459-2.524-0.307-3.442-0.688-11.628
		c-0.229-6.12-0.459-7.497-0.688-12.623c-1.378-28.381,0.765-41.999,5.508-48.883c1.912-2.754,3.596-3.596,4.819-3.672
		c2.907-0.383,5.737,2.448,7.19,4.743c1.913,3.137,1.148,5.279,0.689,14.612c-0.459,10.327,0.306,12.316-1.378,17.595
		c-1.147,3.825-2.601,6.197-3.289,7.344c-8.645,15.759-1.76,48.883,1.606,48.883c0.994,0,0.459-2.678,3.596-7.956
		c1.683-2.907,4.36-5.967,9.792-12.087c1.453-1.606,1.224-1.377,1.912-2.218c0.766-0.918,4.59-5.432,8.415-11.246
		c7.88-12.087,6.503-15.835,13.388-22.95c2.219-2.295,4.284-3.825,7.191-5.967c9.409-7.038,12.469-6.12,17.212-11.628
		c2.448-2.907,3.061-4.743,6.503-7.727c3.596-3.137,6.502-4.131,7.19-4.36c4.055-1.377,9.41-1.607,10.099,0
		c0.688,1.836-4.819,5.661-7.497,7.497c-5.049,3.443-6.732,3.213-10.634,6.197c-3.596,2.677-5.584,5.508-7.497,7.956
		c-3.672,5.049-4.055,7.497-7.727,14.611c-1.759,3.442-4.59,8.721-9.104,14.611c-5.584,7.344-8.415,11.016-13.388,12.317
		c-3.06,0.841-5.278,0.229-7.496,2.295c-1.147,1.071-1.225,1.759-3.29,7.344c-2.601,7.038-2.83,6.809-3.289,8.95
		c-0.918,4.131-0.229,4.743-1.377,7.344c-1.377,3.213-2.602,2.907-3.901,5.967c-1.378,3.214-0.077,4.055-1.378,8.645
		c-0.994,3.902-2.142,4.055-2.601,7.038c-0.535,3.596,0.459,6.427,1.377,8.951c0.306,0.841,0.535,1.147,1.147,2.295
		c0.307,0.611,0.688,1.147,1.147,2.448c0.459,0.918,0.995,2.447,1.377,4.36c-1.224,0.152-2.448,0.382-3.825,0.611
		C475.906,453.146,473.765,453.834,472.081,454.446z"/>
	<path fill="none" stroke="#010101" stroke-width="0.5" stroke-miterlimit="10" d="M480.803,392.634
		c0.918-3.213,1.147-5.967,1.377-7.956c0.229-3.443-0.077-4.82-0.307-5.661c-0.688-2.295-1.453-2.448-2.218-4.361
		c-2.143-4.819,1.224-8.185-0.995-11.628c-0.994-1.53-2.906-2.907-3.901-2.295c-1.912,1.071,2.143,8.415-0.994,15.989
		c-0.229,0.612-0.536,1.224-0.842,1.683c-1.071,1.836-2.219,3.06-2.448,3.29c-1.988,2.065-3.213,7.88-3.442,12.24
		c-0.382,6.809,1.606,12.24,2.983,15.146"/>
</g>
<g id="Labels">
	
		<text transform="matrix(1 0 0 1 103.2749 439.6045)" fill="none" stroke="#000000" stroke-width="0.5" stroke-miterlimit="10" font-family="'Helvetica'" font-size="10">7d Seedling</text>
	
		<text transform="matrix(1 0 0 1 217.8198 439.6055)" fill="none" stroke="#000000" stroke-width="0.5" stroke-miterlimit="10" font-family="'Helvetica'" font-size="10">7d Seedling</text>
	
		<text transform="matrix(1 0 0 1 362.125 439.6055)" fill="none" stroke="#000000" stroke-width="0.5" stroke-miterlimit="10" font-family="'Helvetica'" font-size="10">7d Seedling</text>
	
		<text transform="matrix(1 0 0 1 496.7188 439.6055)" fill="none" stroke="#000000" stroke-width="0.5" stroke-miterlimit="10" font-family="'Helvetica'" font-size="10">7d Seedling</text>
	
		<text transform="matrix(1 0 0 1 85.3252 555.9248)" fill="none" stroke="#000000" stroke-width="0.5" stroke-miterlimit="10" font-family="'Helvetica'" font-size="10">Control</text>
	
		<text transform="matrix(1 0 0 1 204.9482 555.9248)" fill="none" stroke="#000000" stroke-width="0.5" stroke-miterlimit="10" font-family="'Helvetica'" font-size="10">Drought Stress</text>
	
		<text transform="matrix(1 0 0 1 344.7725 555.9248)" fill="none" stroke="#000000" stroke-width="0.5" stroke-miterlimit="10" font-family="'Helvetica'" font-size="10">Salt Stress</text>
	
		<text transform="matrix(1 0 0 1 484.9121 555.9248)" fill="none" stroke="#000000" stroke-width="0.5" stroke-miterlimit="10" font-family="'Helvetica'" font-size="10">Cold Stress</text>
</g>
</svg>
