<?xml version="1.0" encoding="utf-8"?>
<!-- Generator: Adobe Illustrator 19.2.0, SVG Export Plug-In . SVG Version: 6.00 Build 0)  -->
<svg version="1.1" id="Layer_1" xmlns="http://www.w3.org/2000/svg" xmlns:xlink="http://www.w3.org/1999/xlink" x="0px" y="0px"
	 viewBox="0 0 1200 1800" style="enable-background:new 0 0 1200 1800;" xml:space="preserve">
<style type="text/css">
	.st0{fill:#FFFFFF;}
	.st1{font-family:'Helvetica';}
	.st2{font-size:12px;}
	.st3{fill:none;stroke:#000000;stroke-width:0.5;stroke-miterlimit:10;}
	.st4{font-size:14px;}
</style>
<g id="Labels">
	<text transform="matrix(1.0305 0 0 1 499.9336 812.4844)" class="st0 st1 st2">Root hairless root</text>
	<text transform="matrix(1.0305 0 0 1 499.9336 812.4844)" class="st3 st1 st2">Root hairless root</text>
	<text transform="matrix(1 0 0 1 70.6665 100.6665)" class="st0 st1 st4">Root Tissues - Opitz et al. 2016</text>
	<text transform="matrix(1 0 0 1 70.6665 100.6665)" class="st3 st1 st4">Root Tissues - Opitz et al. 2016</text>
	<text transform="matrix(1 0 0 1 70.6665 115.0664)" class="st0 st1 st2">2-4cm primary roots were dissected into Meristematic</text>
	<text transform="matrix(1 0 0 1 70.6665 115.0664)" class="st3 st1 st2">2-4cm primary roots were dissected into Meristematic</text>
	<text transform="matrix(1 0 0 1 70.6665 129.4666)" class="st0 st1 st2">zone (first 2mm of the root tip), Elogation zone (until</text>
	<text transform="matrix(1 0 0 1 70.6665 129.4666)" class="st3 st1 st2">zone (first 2mm of the root tip), Elongation zone (until</text>
	<text transform="matrix(1 0 0 1 70.6665 143.8665)" class="st0 st1 st2">first root hair emerges), Stele and Cortex and used </text>
	<text transform="matrix(1 0 0 1 70.6665 143.8665)" class="st3 st1 st2">first root hair emerges), Stele and Cortex and used </text>
	<text transform="matrix(1 0 0 1 70.6665 158.2665)" class="st0 st1 st2">for RNA-seq analysis.</text>
	<text transform="matrix(1 0 0 1 70.6665 158.2665)" class="st3 st1 st2">for RNA-seq analysis.</text>
	<text transform="matrix(1 0 0 1 371.1816 106)" class="st0 st1 st4">Root hairs - Hey et al. 2017</text>
	<text transform="matrix(1 0 0 1 371.1816 106)" class="st3 st1 st4">Root hairs - Hey et al. 2017</text>
	<text transform="matrix(1 0 0 1 371.1816 120.4)" class="st0 st1 st2">Root hairs were scraped off using liquid nitrogen. </text>
	<text transform="matrix(1 0 0 1 371.1816 120.4)" class="st3 st1 st2">Root hairs were scraped off using liquid nitrogen. </text>
	<text transform="matrix(1 0 0 1 371.1816 134.8)" class="st0 st1 st2">Root hairs and root hairless roots </text>
	<text transform="matrix(1 0 0 1 371.1816 134.8)" class="st3 st1 st2">Root hairs and root hairless roots </text>
	<text transform="matrix(1 0 0 1 371.1816 149.2)" class="st0 st1 st2">were used for RNA-seq analysis.</text>
	<text transform="matrix(1 0 0 1 371.1816 149.2)" class="st3 st1 st2">were used for RNA-seq analysis.</text>
	<text transform="matrix(1 0 0 1 688 100.6665)" class="st0 st1 st4">Root types - Tai et al. 2016</text>
	<text transform="matrix(1 0 0 1 688 100.6665)" class="st3 st1 st4">Root types - Tai et al. 2016</text>
	<text transform="matrix(1 0 0 1 688 115.0664)" class="st0 st1 st2">2-4cm primary roots, seminal roots and crown roots</text>
	<text transform="matrix(1 0 0 1 688 115.0664)" class="st3 st1 st2">2-4cm primary roots, seminal roots and crown roots</text>
	<text transform="matrix(1 0 0 1 688 129.4666)" class="st0 st1 st2">were used for RNA-seq analysis.</text>
	<text transform="matrix(1 0 0 1 688 129.4666)" class="st3 st1 st2">were used for RNA-seq analysis.</text>
	<text transform="matrix(1 0 0 1 669.9997 293.875)" class="st0 st1 st2">Primary Root</text>
	<text transform="matrix(1 0 0 1 669.9997 293.875)" class="st3 st1 st2">Primary Root</text>
	<text transform="matrix(1 0 0 1 669.9997 308.275)" class="st0 st1 st2">   4 DAG</text>
	<text transform="matrix(1 0 0 1 669.9997 308.275)" class="st3 st1 st2">   4 DAG</text>
	<text transform="matrix(1 0 0 1 791.9316 292.9219)" class="st0 st1 st2">Seminal Roots</text>
	<text transform="matrix(1 0 0 1 791.9316 292.9219)" class="st3 st1 st2">Seminal Roots</text>
	<text transform="matrix(1 0 0 1 791.9316 307.3219)" class="st0 st1 st2">     7 DAG</text>
	<text transform="matrix(1 0 0 1 791.9316 307.3219)" class="st3 st1 st2">     7 DAG</text>
	<text transform="matrix(1 0 0 1 54.6665 916.6663)" class="st0 st1 st2">Meristematic </text>
	<text transform="matrix(1 0 0 1 54.6665 916.6663)" class="st3 st1 st2">Meristematic </text>
	<text transform="matrix(1 0 0 1 54.6665 931.0663)" class="st0 st1 st2">Zone</text>
	<text transform="matrix(1 0 0 1 54.6665 931.0663)" class="st3 st1 st2">Zone</text>
	<text transform="matrix(1 0 0 1 61.9998 812.4842)" class="st0 st1 st2">Elongation Zone</text>
	<text transform="matrix(1 0 0 1 61.9998 812.4842)" class="st3 st1 st2">Elongation Zone</text>
	<text transform="matrix(1 0 0 1 343.9998 1216.6666)" class="st0 st1 st2">6h</text>
	<text transform="matrix(1 0 0 1 343.9998 1216.6666)" class="st3 st1 st2">6h</text>
	<text transform="matrix(1 0 0 1 402 1085.333)" class="st0 st1 st2">H2O</text>
	<text transform="matrix(1 0 0 1 402 1085.333)" class="st3 st1 st2">H2O</text>
	<text transform="matrix(1 0 0 1 568.0002 1089.9996)" class="st0 st1 st2">-0.2 MPa</text>
	<text transform="matrix(1 0 0 1 568.0002 1089.9996)" class="st3 st1 st2">-0.2 MPa</text>
	<text transform="matrix(1 0 0 1 766 1078)" class="st0 st1 st2">-0.8MPa</text>
	<text transform="matrix(1 0 0 1 766 1078)" class="st3 st1 st2">-0.8MPa</text>
	<text transform="matrix(1 0 0 1 330.6665 1555.3336)" class="st0 st1 st2">24h</text>
	<text transform="matrix(1 0 0 1 330.6665 1555.3336)" class="st3 st1 st2">24h</text>
	<text transform="matrix(1 0 0 1 364.6665 991.4756)" class="st0 st1 st4">Root drought response - Opitz et al. 2014</text>
	<text transform="matrix(1 0 0 1 364.6665 991.4756)" class="st3 st1 st4">Root drought response - Opitz et al. 2014</text>
	<text transform="matrix(1 0 0 1 364.6665 1005.8756)" class="st0 st1 st2">2-4cm primary roots were subjected to PEG800 treatment (-0.2 MPa and -0.8 MPa)</text>
	<text transform="matrix(1 0 0 1 364.6665 1005.8756)" class="st3 st1 st2">2-4cm primary roots were subjected to PEG800 treatment (-0.2 MPa and -0.8 MPa)</text>
	<text transform="matrix(1 0 0 1 364.6665 1020.2756)" class="st0 st1 st2">or water control for 6h and 24h. Whole primary roots were used for RNA-seq analysis</text>
	<text transform="matrix(1 0 0 1 364.6665 1020.2756)" class="st3 st1 st2">or water control for 6h and 24h. Whole primary roots were used for RNA-seq analysis</text>
	<text transform="matrix(1 0 0 1 31.3332 484.16)" class="st0 st1 st2">Cortex</text>
	<text transform="matrix(1 0 0 1 31.3332 484.16)" class="st3 st1 st2">Cortex</text>
	<text transform="matrix(1 0 0 1 529.9997 588.1564)" class="st0 st1 st2">Root hairs</text>
	<text transform="matrix(1 0 0 1 529.9997 588.1564)" class="st3 st1 st2">Root hairs</text>
	<text transform="matrix(1 0 0 1 260.6668 478.875)" class="st0 st1 st2">Stele</text>
	<text transform="matrix(1 0 0 1 260.6668 478.875)" class="st3 st1 st2">Stele</text>
	<text transform="matrix(1 0 0 1 957.9997 282)" class="st0 st1 st2">Crown roots</text>
	<text transform="matrix(1 0 0 1 957.9997 282)" class="st3 st1 st2">Crown roots</text>
	<text transform="matrix(1 0 0 1 957.9997 296.4)" class="st0 st1 st2"> 14 DAG</text>
	<text transform="matrix(1 0 0 1 957.9997 296.4)" class="st3 st1 st2"> 14 DAG</text>
</g>
<g id="Outlines">
	<path fill="none" stroke="#000000" stroke-width="0.5" stroke-miterlimit="10" d="M425.2,347.2c4.5-8.5,10.9-13.6,12-14.5c7.1-5.6,14.1-7.5,16.2-8c7-1.7,12.3-1.1,19.2-0.2
		c9.3,1.1,14.4,1.7,19.8,5c9.2,5.7,12.7,15.6,14,20.5c0.3,6.1,0.5,12.5,0.5,19.2c-0.1,9.3-0.5,17.9-1.2,26
		c-2.1,6.2-5.2,13.6-9.8,21.5c-3.6,6.3-7.5,11.5-11,15.8c-7.8,7-15.6,14.1-23.4,21.1c0,0-7.5,0.3-7.6,0.3l-9.5,0.4
		c-2-2.2-4.7-5.4-7.4-9.7c-1.1-1.7-4.6-7.6-8.1-19.8c-2.7-9.4-3.9-16.9-4.5-21C420.4,374.8,418.3,360.4,425.2,347.2z"/>
	<path fill="none" stroke="#000000" stroke-width="0.5" stroke-miterlimit="10" d="M505.8,396.9c-0.5,2.4-1.3,5.2-5.8,14.4c-1.7,3.6-2.6,5.4-3.4,6.8c-2.2,3.9-5.6,9.2-10.9,15.1
		c-0.2,3.3-0.4,6.6-0.6,9.9c5.2-3.5,12.7-9.8,16.9-19.9c1.9-4.5,2.2-8.1,3.2-19.3c2.2-24.4,2.5-31,2.5-31
		c1.1-22.2,1.6-33.4,1.6-38.7c-0.1-25.2,0.1-50.3-11.7-77.3c-5.3-12.1-11.3-21.3-15.7-27.3c1.4,15,2.7,30.4,3.7,46.3
		c1.1,17.3,1.8,34,2.3,50.3c9.2,5,13.3,11.2,14.9,14.5c4.6,8.8,4.2,18.9,4.1,22.5c-0.2,4.4-0.2,7.1-0.3,12.4c0,0.5,0,1.9,0,3.6
		c0,1.4,0,2.4,0.1,2.9c0,0.6,0.1,4.6-0.2,8.8C506.3,393,506.2,394.8,505.8,396.9z"/>
	<path fill="none" stroke="#000000" stroke-width="0.5" stroke-miterlimit="10" d="M732.6,335.9c1.5-2.4,3.6-3.8,4-4c2.4-1.5,4.6-2.1,5.4-2.2c2.3-0.5,4.1-0.3,6.4-0.1c3.1,0.3,4.8,0.5,6.5,1.4
		c3,1.6,4.2,4.3,4.6,5.7c0.1,1.7,0.2,3.5,0.2,5.3c0,2.6-0.2,5-0.4,7.2c-0.7,1.7-1.7,3.8-3.2,5.9c-1.2,1.7-2.5,3.2-3.6,4.4
		c-2.6,1.9-5.2,3.9-7.7,5.8l-2.5,0.1l-3.1,0.1c-0.7-0.6-1.6-1.5-2.4-2.7c-0.4-0.5-1.5-2.1-2.7-5.5c-0.9-2.6-1.3-4.7-1.5-5.8
		C731,343.5,730.3,339.5,732.6,335.9z"/>
	<path fill="none" stroke="#000000" stroke-width="0.5" stroke-miterlimit="10" d="M759.1,349.6c-0.2,0.7-0.4,1.4-1.9,4c-0.6,1-0.9,1.5-1.1,1.9c-0.7,1.1-1.8,2.6-3.6,4.2
		c-0.1,0.9-0.1,1.8-0.2,2.7c1.7-1,4.2-2.7,5.6-5.5c0.6-1.2,0.7-2.2,1.1-5.3c0.7-6.7,0.8-8.6,0.8-8.6c0.4-6.1,0.5-9.2,0.5-10.7
		c0-7,0-13.9-3.9-21.4c-1.7-3.3-3.7-5.9-5.2-7.6c0.5,4.1,0.9,8.4,1.2,12.8c0.4,4.8,0.6,9.4,0.7,13.9c3,1.4,4.4,3.1,4.9,4
		c1.5,2.4,1.4,5.2,1.4,6.2c-0.1,1.2-0.1,2-0.1,3.4c0,0.1,0,0.5,0,1c0,0.4,0,0.7,0,0.8c0,0.2,0,1.3-0.1,2.4
		C759.3,348.5,759.3,349,759.1,349.6z"/>
	<path fill="none" stroke="#000000" stroke-width="0.5" stroke-miterlimit="10" d="M591.6,1149.3c2.2-3.4,5.4-5.4,5.9-5.8c3.5-2.2,6.9-3,8-3.2c3.4-0.7,6.1-0.4,9.5-0.1c4.6,0.4,7.1,0.7,9.7,2
		c4.5,2.3,6.3,6.2,6.9,8.1c0.2,2.4,0.3,5,0.2,7.6c0,3.7-0.3,7.1-0.6,10.3c-1,2.5-2.5,5.4-4.8,8.5c-1.8,2.5-3.7,4.6-5.4,6.2
		c-3.8,2.8-7.7,5.6-11.5,8.4l-3.7,0.1l-4.7,0.1c-1-0.9-2.3-2.2-3.6-3.8c-0.5-0.7-2.2-3-4-7.9c-1.3-3.7-1.9-6.7-2.2-8.3
		C589.2,1160.3,588.2,1154.5,591.6,1149.3z"/>
	<path fill="none" stroke="#000000" stroke-width="0.5" stroke-miterlimit="10" d="M631.2,1169c-0.2,0.9-0.6,2-2.8,5.7c-0.9,1.4-1.3,2.1-1.7,2.7c-1.1,1.5-2.7,3.7-5.4,6
		c-0.1,1.3-0.2,2.6-0.3,3.9c2.6-1.4,6.2-3.9,8.3-7.9c0.9-1.8,1.1-3.2,1.6-7.7c1.1-9.7,1.2-12.3,1.2-12.3c0.5-8.8,0.8-13.2,0.8-15.3
		c0-10,0-20-5.7-30.7c-2.6-4.8-5.6-8.5-7.7-10.8c0.7,5.9,1.3,12.1,1.8,18.4c0.5,6.8,0.9,13.5,1.1,20c4.5,2,6.5,4.5,7.3,5.7
		c2.3,3.5,2.1,7.5,2,8.9c-0.1,1.7-0.1,2.8-0.2,4.9c0,0.2,0,0.7,0,1.4c0,0.6,0,1,0,1.2c0,0.3,0.1,1.8-0.1,3.5
		C631.4,1167.4,631.4,1168.2,631.2,1169z"/>
	<path fill="none" stroke="#000000" stroke-width="0.5" stroke-miterlimit="10" d="M406.6,1157.6c2.2-3.4,5.4-5.4,5.9-5.8c3.5-2.2,6.9-3,8-3.2c3.4-0.7,6.1-0.4,9.5-0.1c4.6,0.4,7.1,0.7,9.7,2
		c4.5,2.3,6.3,6.2,6.9,8.1c0.2,2.4,0.3,5,0.2,7.6c0,3.7-0.3,7.1-0.6,10.3c-1,2.5-2.5,5.4-4.8,8.5c-1.8,2.5-3.7,4.6-5.4,6.2
		c-3.8,2.8-7.7,5.6-11.5,8.4l-3.7,0.1l-4.7,0.1c-1-0.9-2.3-2.2-3.6-3.8c-0.5-0.7-2.2-3-4-7.9c-1.3-3.7-1.9-6.7-2.2-8.3
		C404.2,1168.6,403.2,1162.8,406.6,1157.6z"/>
	<path fill="none" stroke="#000000" stroke-width="0.5" stroke-miterlimit="10" d="M446.2,1177.3c-0.2,0.9-0.6,2-2.8,5.7c-0.9,1.4-1.3,2.1-1.7,2.7c-1.1,1.5-2.7,3.7-5.4,6
		c-0.1,1.3-0.2,2.6-0.3,3.9c2.6-1.4,6.2-3.9,8.3-7.9c0.9-1.8,1.1-3.2,1.6-7.7c1.1-9.7,1.2-12.3,1.2-12.3c0.5-8.8,0.8-13.2,0.8-15.3
		c0-10,0-20-5.7-30.7c-2.6-4.8-5.6-8.5-7.7-10.8c0.7,5.9,1.3,12.1,1.8,18.4c0.5,6.8,0.9,13.5,1.1,20c4.5,2,6.5,4.5,7.3,5.7
		c2.3,3.5,2.1,7.5,2,8.9c-0.1,1.7-0.1,2.8-0.2,4.9c0,0.2,0,0.7,0,1.4c0,0.6,0,1,0,1.2c0,0.3,0.1,1.8-0.1,3.5
		C446.5,1175.8,446.4,1176.5,446.2,1177.3z"/>
	<path fill="none" stroke="#000000" stroke-width="0.5" stroke-miterlimit="10" d="M779.1,1149.3c2.2-3.4,5.4-5.4,5.9-5.8c3.5-2.2,6.9-3,8-3.2c3.4-0.7,6.1-0.4,9.5-0.1c4.6,0.4,7.1,0.7,9.7,2
		c4.5,2.3,6.3,6.2,6.9,8.1c0.2,2.4,0.3,5,0.2,7.6c0,3.7-0.3,7.1-0.6,10.3c-1,2.5-2.5,5.4-4.8,8.5c-1.8,2.5-3.7,4.6-5.4,6.2
		c-3.8,2.8-7.7,5.6-11.5,8.4l-3.7,0.1l-4.7,0.1c-1-0.9-2.3-2.2-3.6-3.8c-0.5-0.7-2.2-3-4-7.9c-1.3-3.7-1.9-6.7-2.2-8.3
		C776.7,1160.3,775.7,1154.5,779.1,1149.3z"/>
	<path fill="none" stroke="#000000" stroke-width="0.5" stroke-miterlimit="10" d="M818.7,1169c-0.2,0.9-0.6,2-2.8,5.7c-0.9,1.4-1.3,2.1-1.7,2.7c-1.1,1.5-2.7,3.7-5.4,6
		c-0.1,1.3-0.2,2.6-0.3,3.9c2.6-1.4,6.2-3.9,8.3-7.9c0.9-1.8,1.1-3.2,1.6-7.7c1.1-9.7,1.2-12.3,1.2-12.3c0.5-8.8,0.8-13.2,0.8-15.3
		c0-10,0-20-5.7-30.7c-2.6-4.8-5.6-8.5-7.7-10.8c0.7,5.9,1.3,12.1,1.8,18.4c0.5,6.8,0.9,13.5,1.1,20c4.5,2,6.5,4.5,7.3,5.7
		c2.3,3.5,2.1,7.5,2,8.9c-0.1,1.7-0.1,2.8-0.2,4.9c0,0.2,0,0.7,0,1.4c0,0.6,0,1,0,1.2c0,0.3,0.1,1.8-0.1,3.5
		C819,1167.4,818.9,1168.2,818.7,1169z"/>
	<path fill="none" stroke="#000000" stroke-width="0.5" stroke-miterlimit="10" d="M409.8,1473.3c2.2-3.5,5.3-5.6,5.9-5.9c3.5-2.3,6.9-3,8-3.3c3.4-0.7,6-0.4,9.4-0.1c4.5,0.4,7.1,0.7,9.7,2
		c4.5,2.3,6.2,6.4,6.9,8.4c0.2,2.5,0.3,5.1,0.2,7.9c0,3.8-0.3,7.3-0.6,10.6c-1,2.5-2.5,5.6-4.8,8.8c-1.8,2.6-3.7,4.7-5.4,6.4
		c-3.8,2.9-7.6,5.7-11.5,8.6l-3.7,0.1c0,0-4.6,0.2-4.7,0.2c-1-0.9-2.3-2.2-3.6-3.9c-0.5-0.7-2.2-3.1-4-8.1c-1.3-3.8-1.9-6.9-2.2-8.6
		C407.5,1484.6,406.4,1478.7,409.8,1473.3z"/>
	<path fill="none" stroke="#000000" stroke-width="0.5" stroke-miterlimit="10" d="M449.3,1493.6c-0.1,0.2-0.1,0.4-0.1,0.5c-0.3,0.9-0.8,2.2-2.7,5.4c-1.6,2.7-1.4,2.3-1.7,2.8
		c-1,1.4-1.3,1.4-3.1,3.6c-1.2,1.5-1.4,1.8-2.2,2.6c-0.6,0.5-0.8,0.6-2.2,1.5c-1.3,0.9-3.4,2.3-3.3,2.4c0,0.1,1.9-0.9,3.8-2.1
		c2-1.2,4.8-3.1,7.6-6.5c2.2-2.7,3.5-5.5,3.8-7.3c0.1-0.7,0.1-1.4,0.5-4.5c0.4-3.5,0.5-3.3,0.7-8.1c0.3-6.5,0.1-11.9-0.2-16.3
		c-1-15.5-1.8-26.8-6.6-40.3c-2.2-6.1-4.5-10.9-6.1-14c0.6,10,1,20.6,1,31.6c0,6.8-0.1,13.3-0.3,19.7c1,0.1,7,1.1,9.9,6.1
		c2,3.5,2,8.2,2,9.2c-0.1,1.8-0.1,2.9-0.2,5.1c0,0.2,0,0.8,0,1.5c0,0.6,0,1,0,1.2c0,0.1,0,0.1,0,0.2l0,0
		C449.7,1487.8,449.6,1489.6,449.3,1493.6z"/>
	<path fill="none" stroke="#000000" stroke-width="0.5" stroke-miterlimit="10" d="M788.8,1471.9c2.2-3.5,5.3-5.6,5.9-5.9c3.5-2.3,6.9-3,8-3.3c3.4-0.7,6-0.4,9.4-0.1c4.5,0.4,7.1,0.7,9.7,2
		c4.5,2.3,6.2,6.4,6.9,8.4c0.2,2.5,0.3,5.1,0.2,7.9c0,3.8-0.3,7.3-0.6,10.6c-1,2.5-2.5,5.6-4.8,8.8c-1.8,2.6-3.7,4.7-5.4,6.4
		c-3.8,2.9-7.6,5.7-11.5,8.6l-3.7,0.1c0,0-4.6,0.2-4.7,0.2c-1-0.9-2.3-2.2-3.6-3.9c-0.5-0.7-2.2-3.1-4-8.1c-1.3-3.8-1.9-6.9-2.2-8.6
		C786.4,1483.2,785.4,1477.3,788.8,1471.9z"/>
	<path fill="none" stroke="#000000" stroke-width="0.5" stroke-miterlimit="10" d="M828.2,1492.2c-0.1,0.2-0.1,0.4-0.1,0.5c-0.3,0.9-0.8,2.2-2.7,5.4c-1.6,2.7-1.4,2.3-1.7,2.8
		c-1,1.4-1.3,1.4-3.1,3.6c-1.2,1.5-1.4,1.8-2.2,2.6c-0.6,0.5-0.8,0.6-2.2,1.5c-1.3,0.9-3.4,2.3-3.3,2.4c0,0.1,1.9-0.9,3.8-2.1
		c2-1.2,4.8-3.1,7.6-6.5c2.2-2.7,3.5-5.5,3.8-7.3c0.1-0.7,0.1-1.4,0.5-4.5c0.4-3.5,0.5-3.3,0.7-8.1c0.3-6.5,0.1-11.9-0.2-16.3
		c-1-15.5-1.8-26.8-6.6-40.3c-2.2-6.1-4.5-10.9-6.1-14c0.6,10,1,20.6,1,31.6c0,6.8-0.1,13.3-0.3,19.7c1,0.1,7,1.1,9.9,6.1
		c2,3.5,2,8.2,2,9.2c-0.1,1.8-0.1,2.9-0.2,5.1c0,0.2,0,0.8,0,1.5c0,0.6,0,1,0,1.2c0,0.1,0,0.1,0,0.2l0,0
		C828.7,1486.4,828.5,1488.2,828.2,1492.2z"/>
	<path fill="none" stroke="#000000" stroke-width="0.5" stroke-miterlimit="10" d="M859.8,331.2c0.6-2.1,1.2-3.3,2.2-4.2c1.5-1.4,3.4-1.8,5.1-2.1c2.2-0.4,3.9-0.3,6.1-0.1
		c2.9,0.3,4.5,0.4,6.2,1.3c2.9,1.5,4,4.1,4.4,5.4c0.1,1.6,0.2,3.3,0.2,5.1c0,2.4-0.2,4.7-0.4,6.9c-1,1.7-2.1,3.6-3.1,5.7
		c-0.9,1.9-1.7,3.7-2.4,5.4c-1.1,1.4-2.1,2.4-2.9,3c-0.8,0.6-1.7,1.2-3.2,2.5c-0.4,0.3-0.7,0.6-0.9,0.8c-0.4,0.2-1,0.4-1.8,0.5l0,0
		c-1.5,0.2-2.7-0.4-2.7-0.4c-1.3-0.6-2-1.6-2.3-2c-0.6-0.6-1.5-1.4-2.3-2.6c0,0-0.1-0.1-0.1-0.2c-0.7-0.9-1.8-2.9-2.5-5.1
		c-0.5-1.8-0.5-3.3-0.5-5.5C859,336.6,858.9,334.6,859.8,331.2z"/>
	<path fill="none" stroke="#000000" stroke-width="0.5" stroke-miterlimit="10" d="M881.7,327.9c1.7-21.6,2.4-39.7,2.6-53.2c0.2-13.3,0-22.9-1.7-34.7c-2-13.7-5.8-28.9-7.3-28.7
		c-1.8,0.3,1.2,23.4,2,57c0.5,23.8-0.3,43.5-1.2,56.8c0.7,0.1,1.7,0.3,2.8,0.7C880.3,326.5,881.2,327.3,881.7,327.9z"/>
	<path fill="none" stroke="#000000" stroke-width="0.5" stroke-miterlimit="10" d="M872.6,360.2c-0.2,0-0.4,0.6-1.4,1.1c-0.7,0.4-1.5,0.5-2,0.5c0.2,2.3,0.3,5.6,0.5,9.6
		c0.3,7.4,0.1,10.4,0.2,14.1c0.1,3.4,0.3,4.3,2.9,20.6c1.7,10.6,2.5,16.1,3.2,21.2c0.9,6,1.5,10.7,2.1,16c1,7.7,1.5,11.6,2,16.6
		c0.7,6.3,1,11,1.4,15.8c0.5,6.4,0.8,10.3,1,15.8s0.1,5.2,0.2,12.1c0.2,6,0.4,8.3,0.9,19.2c0,0,0.2,4.6,0.6,13.9
		c1,24-1.1,36.7-0.4,67.4c0.2,7.7,0.5,13.7-0.1,23c-0.1,2.3-0.7,11-2.6,22.2c-0.5,3.2-0.7,4-5.2,27.1c-0.9,4.6-1.3,6.9-1.6,9.4
		c-1.2,11,0,20.4,0.6,20.4s0.2-7.3,2.4-20c0.8-4.5,0.9-4.3,2.9-14.1c1.7-8.7,2.8-15.2,3.1-16.9c1.4-8,2.4-14.2,3.1-20.8
		c1.1-10.6,1-18.6,0.9-24.1c-0.6-32.9,0.8-30.1-0.2-78.1c-0.1-4.2-0.4-19.7-1.2-39.9c-0.8-19.2-1.4-26.7-2.2-34.5
		c-1.2-10.9-2.9-21.6-3.2-23.5c-1.3-8.2-2-11.1-3.5-20.6c-1.6-9.9-2.3-14.8-2.8-19.1C872.6,377.8,873.9,360.3,872.6,360.2z"/>
	<path fill="none" stroke="#000000" stroke-width="0.5" stroke-miterlimit="10" d="M1043.8,318.5c2.1,0,4.2,0,6.3,0c0.1-5,0.2-12.3,0-21.2c-0.4-20.7-2-34.4-3.8-54c-0.5-5.2-2.7-29.3-3.8-49
		c-0.9-15.1-1.7-37.3-0.8-64.7c0.8-3.8,1.9-9.1,2.7-15.5c1.5-12.2,2.1-27.8,0.5-28c-1-0.2-3.4,6.1-9.3,33.7c0,4.9,0,12.3,0.3,21.3
		c1.2,30.9,5.1,55.7,5,55.7c0,0-0.9-7.6-2.3-16.8c-2.1-13.6-3.1-20.5-5.9-29c-1-2.9-3.5-8.8-8.7-20.5c-4.2-9.6-5.7-12.5-8.2-16
		c-4.4-6.2-8.8-10.8-8.8-10.8c-3.6-3.8-5.8-5.3-7.8-9c-1.8-3.3-2.4-6.5-2.7-8.7c-1-0.2-2.4-0.4-4.2-0.4s-2.7,0-3.5,0.4
		c-2.5,1.3-2.6,5.4-2.7,6.5c-0.1,3.2,0.9,5.2,1.8,8c0.9,2.8,1.4,6.2,2.3,12.9c1.5,10.8-0.1,10.2,1.3,13.9c1.8,4.9,4.3,5.6,10.7,13.2
		c3.3,3.9,5.2,6.9,8.3,11.5c7.2,10.7,6.3,12.3,13.8,24c5,7.6,8.9,12.5,9.9,13.6c2.1,2.6,5.2,6.1,5.2,6.1s-1.4-1.6-2.8-3.2
		c-2.2-2.5-2.4-2.6-2.5-2.6c-0.4,0.2,2.3,4.1,3.9,9.8c0.8,2.9,1,5.8,1.4,11.7c0.3,4,0.4,7.5,0.4,10.5c0.2,21.8,1.9,37.9,3.3,48.7
		c0.7,5,2.1,14.3,2,27C1045.2,306.5,1044.5,313.7,1043.8,318.5z"/>
	<path fill="none" stroke="#000000" stroke-width="0.5" stroke-miterlimit="10" d="M1043.5,319.1c-1.4,0.9-8.3,5.8-9.7,14.4c-0.8,4.9,0.5,8.8,1.8,12.8s2.5,4.9,3.2,5.4c3.7,2.5,9.2-0.4,9.5-0.6
		c6.3-3.4,7.3-11.7,7.6-14.1c0.1-0.9,1.5-14.2-5.8-17.6C1047.8,318.3,1045.3,318.6,1043.5,319.1z"/>
	<path fill="none" stroke="#000000" stroke-width="0.5" stroke-miterlimit="10" d="M1010.9,473.5c0,1,0.2,9.4,0.5,20.5c0.3,12.6,0.4,17.3,0.1,24.1c-0.2,5.5-0.4,4.8-0.8,12.9
		c-0.5,10.3-0.2,12-1,16.9c-0.3,2.2-1.1,6.8-3,12.6c-1.4,4.3-2.2,5.4-3.6,10.1c-1.2,4.1-1.9,7.5-2.2,9.6c-0.6,3.6-1.2,8.5-1.1,14.2
		c1,0,1.9,0,2.9,0c0-3.4,0.2-8,1.2-13.3c1.7-9.2,4.4-12.9,6.8-23.3c1.2-5.1,1.7-8.7,2.3-13.7c0.9-6.8,1.5-14.5,1.7-28.2
		c0.2-18.1-0.8-18.4-0.5-33.3c0.1-6.3,0.3-14.7,1.5-25.5c1.7-15.6,4.6-27.8,6.2-34c3-11.7,7.7-26.2,11.5-35.5
		c0.3-0.7,2.1-5.3,4.2-11.5c2.6-7.8,3.4-12.1,3.8-14.6c0.6-3.4,0.8-6.3,0.9-8.3c-0.1,0-1.6-0.5-1.7-0.5s-1.6-0.4-1.6-0.5
		c-0.3,2.8-0.9,6.8-1.9,11.6c-1.7,8.4-3.8,14.5-4.5,16.4C1021.5,412.8,1010.2,445.9,1010.9,473.5z"/>
	<path fill="none" stroke="#000000" stroke-width="0.5" stroke-miterlimit="10" d="M1064.2,1148.5c1,0.5,2,0.4,2.3,0.4c0.8-1.8,1.8-4.4,2.7-7.7c1-4.1,1.3-7.3,1.5-9.5c1-12.7,0.9-18.1,0.9-18.1
		c-0.4-33.7-2.4-57.3-2.4-57.3c-0.5-5.7-1.5-16-2.6-31.8c-0.1-1.3-0.3-3.9-0.5-7c-1.3-18-2-32.1-2.1-34.7c-1-20.9-4.1-38.3-7.5-72.8
		c-2.3-23.6-3.3-40.8-4.8-65.2c-1.4-23.5-2.2-44.2-3-67.2c-1.7-53.5-2.1-94.6-2.5-158.5c-0.4-53.9-0.3-91.4-0.2-103.5
		c0.1-39,0.2-58.5,0.5-74.8c0.3-14.5,0.8-32.1,0.8-57.8c0-13.1-0.1-23.9-0.2-30.9c-1.5,0.3-3,0.6-4.5,1c0,0-0.3,12.2-0.3,12.5
		c-0.5,19.8-0.2,80.9-0.2,80.9c0.1,21.9-0.1,26.8-0.3,60.3c-0.6,102.1,0.8,194.6,1.2,218.7c0.2,11.4,0.9,55,3.3,107.7
		c0.7,14.6,1.3,26.3,2.3,40.3c2.6,34.5,4.3,38.7,7.3,71.5c4.2,46.1,2.6,57.5,6.8,97.7c0.2,1.6,1.1,11.6,3,31.7
		c0.1,1,1.5,16.3,2.3,35.7c0.3,5.9,0.3,8.9,0,12.8c-0.8,10.2-3.4,18.4-5.5,23.8C1062.6,1146.9,1063.1,1147.9,1064.2,1148.5z"/>
	<path fill="none" stroke="#000000" stroke-width="0.5" stroke-miterlimit="10" d="M1050.3,350.4c0.5-0.6,1.3-1.4,2.1-2.5c1.2-1.6,1.3-2.2,1.5-2.2c1.4,0.1,1.1,26.8,1.4,46.8
		c0.3,18.2,0.4,27.4,1.8,35c3.1,17.5,9.1,26.8,15.8,41.2c19.1,41.2,22.8,79.3,24,92c1.7,18.3,1.1,34.7,0.8,46
		c-0.6,17.6-2.1,32.5-3.5,43.8c0.6,79.8,1.2,159.5,1.8,239.3c-1.2,0-2.3-0.1-3.5-0.1c0.4-7.1,1-18,1.2-31.5c0.3-19-0.4-26.4-1.3-60
		c-0.6-20.2-0.3-15.5-1.2-53.2c-0.9-35.7-1-34.5-1-43.2c0-18.3,0.6-31.9,1.8-57.7c1.7-36.5,2.1-31.8,2.3-43.3
		c0.3-18.4,0.1-74.6-15-109c-0.7-1.6-5.5-12.4-12.5-28.5c-5.1-11.6-7.6-17.5-8.3-19.5c-4.9-13.7-4.8-23.4-5.7-45.9
		C1052.3,387.1,1051.6,370.8,1050.3,350.4z"/>
	<path fill="none" stroke="#000000" stroke-width="0.5" stroke-miterlimit="10" d="M1056.5,332.8c23.7,35.2,37,63.4,44.1,80.6c9.6,23.1,11.3,33.8,11.8,37.8c1.7,12.5,0.3,18.1,2.7,42
		c1.1,11.2,1.7,16.9,3.3,23.5c1.2,4.6,3.7,13.4,14,32c13.9,25.2,20.3,29.1,27,46.8c3.5,9.1,5.1,17,6,22.2c-1.1,0.1-2.1,0.2-3.2,0.3
		c-0.2-5.4-1.2-9.5-2.2-12.3c-1.4-4.2-2.7-5.9-8.2-16.8c-2.7-5.5-2.3-5-3.5-7.2c-4.7-8.9-9.7-14.9-10.8-16.3
		c-4.5-5.6-11.5-18.3-23.2-48.7c-1.8-20.7-3.6-41.4-5.3-62.2c-1.3-5.6-3.2-13.2-6-22c-6.5-20.3-13.6-34.8-19.5-46.5
		c-6.5-13-15.5-29.1-27.5-47c0-1-0.1-2.1,0-3.2C1056.2,334.6,1056.4,333.6,1056.5,332.8z"/>
	<path fill="none" stroke="#000000" stroke-width="0.5" stroke-miterlimit="10" d="M637.3,1492.2c-0.1,0.2-0.1,0.4-0.1,0.5c-0.3,0.9-0.8,2.2-2.7,5.4c-1.6,2.7-1.4,2.3-1.7,2.8
		c-1,1.4-1.3,1.4-3.1,3.6c-1.2,1.5-1.4,1.8-2.2,2.6c-0.6,0.5-0.8,0.6-2.2,1.5c-1.3,0.9-3.4,2.3-3.3,2.4c0,0.1,1.9-0.9,3.8-2.1
		c2-1.2,4.8-3.1,7.6-6.5c2.2-2.7,3.5-5.5,3.8-7.3c0.1-0.7,0.1-1.4,0.5-4.5c0.4-3.5,0.5-3.3,0.7-8.1c0.3-6.5,0.1-11.9-0.2-16.3
		c-1-15.5-1.8-26.8-6.6-40.3c-2.2-6.1-4.5-10.9-6.1-14c0.6,10,1,20.6,1,31.6c0,6.8-0.1,13.3-0.3,19.7c1,0.1,7,1.1,9.9,6.1
		c2,3.5,2,8.2,2,9.2c-0.1,1.8-0.1,2.9-0.2,5.1c0,0.2,0,0.8,0,1.5c0,0.6,0,1,0,1.2c0,0.1,0,0.1,0,0.2l0,0
		C637.7,1486.4,637.6,1488.2,637.3,1492.2z"/>
	<path fill="none" stroke="#000000" stroke-width="0.5" stroke-miterlimit="10" d="M597.9,1471.9c2.2-3.5,5.3-5.6,5.9-5.9c3.5-2.3,6.9-3,8-3.3c3.4-0.7,6-0.4,9.4-0.1c4.5,0.4,7.1,0.7,9.7,2
		c4.5,2.3,6.2,6.4,6.9,8.4c0.2,2.5,0.3,5.1,0.2,7.9c0,3.8-0.3,7.3-0.6,10.6c-1,2.5-2.5,5.6-4.8,8.8c-1.8,2.6-3.7,4.7-5.4,6.4
		c-3.8,2.9-7.6,5.7-11.5,8.6l-3.7,0.1c0,0-4.6,0.2-4.7,0.2c-1-0.9-2.3-2.2-3.6-3.9c-0.5-0.7-2.2-3.1-4-8.1c-1.3-3.8-1.9-6.9-2.2-8.6
		C595.5,1483.2,594.5,1477.3,597.9,1471.9z"/>
</g>
<g id="Drought_24_hr_at_08_MPa">
	<path fill="none" stroke="#000000" stroke-width="0.5" stroke-miterlimit="10" d="M802,1515.9c1.7-0.1,3.4-0.1,5-0.2c1.5-1.3,3.2-2.5,4.9-3.8c0.9-0.7,1.8-1.3,2.7-1.9c-0.2,2-0.5,4.9-0.8,8.4
		c-1.4,18.5-0.4,32.3,0.8,46.6c4.1,48.9,4.9,50.9,4.5,63.2c-0.3,8.1-0.8,12.3-1,24.5c-0.2,12.1,0.2,18.7-0.8,30
		c-0.6,6.7-1.6,19.2-3.2,19.2c-2.1,0-4.7-21.2-5.8-37.8c-2.3-35.9,2.8-38.4,0.2-68c-1.7-19.8-4.4-24-6-49.2
		C801.9,1533.9,801.9,1523.1,802,1515.9z"/>
</g>
<g id="Drought_24_hr_control">
	<path fill="none" stroke="#000000" stroke-width="0.5" stroke-miterlimit="10" d="M423,1517.3c1.7-0.1,3.4-0.1,5-0.2c1.5-1.3,3.2-2.5,4.9-3.8c0.9-0.7,1.8-1.3,2.7-1.9c-0.2,2-0.5,4.9-0.8,8.4
		c-1.4,18.5-0.4,32.3,0.8,46.6c4.1,48.9,4.9,50.9,4.5,63.2c-0.3,8.1-0.8,12.3-1,24.5c-0.2,12.1,0.2,18.7-0.8,30
		c-0.6,6.7-1.6,19.2-3.2,19.2c-2.1,0-4.7-21.2-5.8-37.8c-2.3-35.9,2.8-38.4,0.2-68c-1.7-19.8-4.4-24-6-49.2
		C422.9,1535.3,422.9,1524.5,423,1517.3z"/>
</g>
<g id="Drought_24_hr_02_MPa">
	<path fill="none" stroke="#000000" stroke-width="0.5" stroke-miterlimit="10" d="M611.1,1515.9c1.7-0.1,3.4-0.1,5-0.2c1.5-1.3,3.2-2.5,4.9-3.8c0.9-0.7,1.8-1.3,2.7-1.9c-0.2,2-0.5,4.9-0.8,8.4
		c-1.4,18.5-0.4,32.3,0.8,46.6c4.1,48.9,4.9,50.9,4.5,63.2c-0.3,8.1-0.8,12.3-1,24.5c-0.2,12.1,0.2,18.7-0.8,30
		c-0.6,6.7-1.6,19.2-3.2,19.2c-2.1,0-4.7-21.2-5.8-37.8c-2.3-35.9,2.8-38.4,0.2-68c-1.7-19.8-4.4-24-6-49.2
		C610.9,1533.9,610.9,1523.1,611.1,1515.9z"/>
</g>
<g id="Drought_6_hour_at_08_MPa">
	<path fill="none" stroke="#000000" stroke-width="0.5" stroke-miterlimit="10" d="M808.5,1183.1c-4.1,3-8.2,6-12.4,9c0.4,3.7,1.1,9.2,1.9,16c1.5,12.3,2,14.6,2.7,20.7c1.5,12.6,2,22.1,2.6,33.5
		c0.6,11.9,1,17.8,0.9,25.4c0,2.6-0.1,8.7-0.1,17.2c0,4.4,0.1,7.5,0.2,11.2c0.2,3.1,0.4,5.6,0.8,10.6c0.4,4.6,0.8,8.2,1.4,12.5
		c0.7,4.5,1.1,6.8,1.5,6.8c1.2,0,2.3-13.4,2.3-14.6c0.3-4.6,0.3-7.2,0.4-16.4c0.1-11,0.1-7.1,0.2-18.3c0.1-11.1,0.2-16.6,0.1-19.5
		c-0.1-6.1-0.4-10.9-0.9-20.5c-0.4-7.1-0.6-12.1-1.2-19.1c-1-12.6-1.4-18.9-1.8-22c-0.1-0.9-0.6-5.2-0.6-10.7c0-2.2,0-3.3,0.1-4.7
		c0.1-0.5,0.5-2.4,0.8-4.7l0,0c0.2-1.1,0.4-2.5,0.5-3.8c0.1-1.1-0.1-1,0-3.3c0-0.7,0-1.2,0-1.4
		C808.3,1185.9,808.3,1184.7,808.5,1183.1z"/>
</g>
<g id="Drought_6_hr_control">
	<path fill="none" stroke="#000000" stroke-width="0.5" stroke-miterlimit="10" d="M436,1191.4c-4.1,3-8.2,6-12.4,9c0.4,3.7,1.1,9.2,1.9,16c1.5,12.3,2,14.6,2.7,20.7c1.5,12.6,2,22.1,2.6,33.5
		c0.6,11.9,1,17.8,0.9,25.4c0,2.6-0.1,8.7-0.1,17.2c0,4.4,0.1,7.5,0.2,11.2c0.2,3.1,0.4,5.6,0.8,10.6c0.4,4.6,0.8,8.2,1.4,12.5
		c0.7,4.5,1.1,6.8,1.5,6.8c1.2,0,2.3-13.4,2.3-14.6c0.3-4.6,0.3-7.2,0.4-16.4c0.1-11,0.1-7.1,0.2-18.3c0.1-11.1,0.2-16.6,0.1-19.5
		c-0.1-6.1-0.4-10.9-0.9-20.5c-0.4-7.1-0.6-12.1-1.2-19.1c-1-12.6-1.4-18.9-1.8-22c-0.1-0.9-0.6-5.2-0.6-10.7c0-2.2,0-3.3,0.1-4.7
		c0.1-0.5,0.5-2.4,0.8-4.7l0,0c0.2-1.1,0.4-2.5,0.5-3.8c0.1-1.1-0.1-1,0-3.3c0-0.7,0-1.2,0-1.4C435.8,1194.2,435.9,1193,436,1191.4z
		"/>
</g>
<g id="Drought_6_hour_at_02_MPA">
	<path fill="none" stroke="#000000" stroke-width="0.5" stroke-miterlimit="10" d="M621,1183.1c-4.1,3-8.2,6-12.4,9c0.4,3.7,1.1,9.2,1.9,16c1.5,12.3,2,14.6,2.7,20.7c1.5,12.6,2,22.1,2.6,33.5
		c0.6,11.9,1,17.8,0.9,25.4c0,2.6-0.1,8.7-0.1,17.2c0,4.4,0.1,7.5,0.2,11.2c0.2,3.1,0.4,5.6,0.8,10.6c0.4,4.6,0.8,8.2,1.4,12.5
		c0.7,4.5,1.1,6.8,1.5,6.8c1.2,0,2.3-13.4,2.3-14.6c0.3-4.6,0.3-7.2,0.4-16.4c0.1-11,0.1-7.1,0.2-18.3c0.1-11.1,0.2-16.6,0.1-19.5
		c-0.1-6.1-0.4-10.9-0.9-20.5c-0.4-7.1-0.6-12.1-1.2-19.1c-1-12.6-1.4-18.9-1.8-22c-0.1-0.9-0.6-5.2-0.6-10.7c0-2.2,0-3.3,0.1-4.7
		c0.1-0.5,0.5-2.4,0.8-4.7l0,0c0.2-1.1,0.4-2.5,0.5-3.8c0.1-1.1-0.1-1,0-3.3c0-0.7,0-1.2,0-1.4
		C620.7,1185.9,620.8,1184.7,621,1183.1z"/>
</g>
<g id="Meristematic_zone">
	<path fill="none" stroke="#000000" stroke-width="0.5" stroke-miterlimit="10" d="M205.8,936.8c-0.9,4.2-1.8,7.8-2.6,10.9c-0.7,2.5-1.2,4.3-2.8,6.1c-1.5,1.7-3.2,2.5-4.4,3
		c-1.1-0.4-2.6-1.1-4-2.4c-2.4-2.1-3.2-4.5-4-6.5c-1.1-2.7-2.8-6.5-5.4-11.1c-0.7-12.7-1.5-25.4-2.2-38.1c9.6,0,19.3,0.1,28.9,0.1
		C208.2,911.4,207,924.1,205.8,936.8z"/>
</g>
<g id="Elongation_zone">
	<path fill="none" stroke="#000000" stroke-width="0.5" stroke-miterlimit="10" d="M174,691c13.7,0,27.3,0,41,0c-2.5,62.2-5,124.3-7.5,186.5c-8.7-0.2-17.3-0.3-26-0.5C179,815,176.5,753,174,691
		z"/>
</g>
<g id="Cortex">
	<path fill="none" stroke="#000000" stroke-width="0.5" stroke-miterlimit="10" d="M114.1,264.1c6.7,0.2,13.3,0.4,20,0.7c0.3,135.2,0.6,270.5,0.9,405.7c-4.8,0-9.6,0-14.3,0
		C118.5,535,116.3,399.6,114.1,264.1z"/>
	<path fill="none" stroke="#000000" stroke-width="0.5" stroke-miterlimit="10" d="M144.7,264c7.3,0.2,14.7,0.4,22,0.7c0,0-0.1,4.2-0.1,4.3c-1.8,134-3.7,268.1-5.7,402.1
		c-5.2,0.1-10.4,0.2-15.6,0.3C145.1,535.6,144.9,399.8,144.7,264z"/>
	<path fill="none" stroke="#000000" stroke-width="0.5" stroke-miterlimit="10" d="M166.9,269.8c9.6,0,19.2,0,28.8,0.1c0,0.4-0.1,0.8-0.1,1.2c-9.6,0-19.2,0-28.8,0.1
		C166.9,270.7,166.9,270.3,166.9,269.8z"/>
	<path fill="none" stroke="#000000" stroke-width="0.5" stroke-miterlimit="10" d="M166.7,282.1c10.3,0,20.5,0.1,30.8,0.1c0,0.6-0.1,1.1-0.1,1.7c-10.3,0-20.5,0.1-30.8,0.1
		C166.7,283.3,166.7,282.7,166.7,282.1z"/>
	<path fill="none" stroke="#000000" stroke-width="0.5" stroke-miterlimit="10" d="M166.7,292c10.3,0,20.5,0.1,30.8,0.1c0,0.6-0.1,1.1-0.1,1.7c-10.3,0-20.5,0.1-30.8,0.1
		C166.7,293.2,166.7,292.6,166.7,292z"/>
	<path fill="none" stroke="#000000" stroke-width="0.5" stroke-miterlimit="10" d="M166.7,302.7c8.8,0,17.5,0.1,26.3,0.1c0,0.6-0.1,1.1-0.1,1.7c-8.8,0-17.5,0.1-26.3,0.1
		C166.7,304,166.7,303.4,166.7,302.7z"/>
	<path fill="none" stroke="#000000" stroke-width="0.5" stroke-miterlimit="10" d="M166.2,315.1c10.3,0,20.5,0.1,30.8,0.1c0,0.6-0.1,1.1-0.1,1.7c-10.3,0-20.5,0.1-30.8,0.1
		C166.1,316.4,166.2,315.8,166.2,315.1z"/>
	<path fill="none" stroke="#000000" stroke-width="0.5" stroke-miterlimit="10" d="M83.4,292.9c10.3,0,20.5,0.1,30.8,0.1c0,0.6-0.1,1.1-0.1,1.7c-10.3,0-20.5,0.1-30.8,0.1
		C83.4,294.2,83.4,293.6,83.4,292.9z"/>
	<path fill="none" stroke="#000000" stroke-width="0.5" stroke-miterlimit="10" d="M83.4,277.7c10.3,0,20.5,0.1,30.8,0.1c0,0.6-0.1,1.1-0.1,1.7c-10.3,0-20.5,0.1-30.8,0.1
		C83.4,279,83.4,278.4,83.4,277.7z"/>
	<path fill="none" stroke="#000000" stroke-width="0.5" stroke-miterlimit="10" d="M83.4,265.6c10.3,0,20.5,0.1,30.8,0.1c0,0.6-0.1,1.1-0.1,1.7c-10.3,0-20.5,0.1-30.8,0.1
		C83.4,266.9,83.4,266.2,83.4,265.6z"/>
	<path fill="none" stroke="#000000" stroke-width="0.5" stroke-miterlimit="10" d="M84.2,306.2c10.3,0,20.5,0.1,30.8,0.1c0,0.6-0.1,1.1-0.1,1.7c-10.3,0-20.5,0.1-30.8,0.1
		C84.1,307.5,84.2,306.8,84.2,306.2z"/>
	<path fill="none" stroke="#000000" stroke-width="0.5" stroke-miterlimit="10" d="M84.9,362.5c10.3,0,20.5,0.1,30.8,0.1c0,0.6-0.1,1.1-0.1,1.7c-10.3,0-20.5,0.1-30.8,0.1
		C84.9,363.8,84.9,363.2,84.9,362.5z"/>
	<path fill="none" stroke="#000000" stroke-width="0.5" stroke-miterlimit="10" d="M84.2,376.1c10.3,0,20.5,0.1,30.8,0.1c0,0.6-0.1,1.1-0.1,1.7c-10.3,0-20.5,0.1-30.8,0.1
		C84.1,377.3,84.2,376.7,84.2,376.1z"/>
	<path fill="none" stroke="#000000" stroke-width="0.5" stroke-miterlimit="10" d="M85.9,474.7c10.3,0,20.5,0.1,30.8,0.1c0,0.6-0.1,1.1-0.1,1.7c-10.3,0-20.5,0.1-30.8,0.1
		C85.9,476,85.9,475.4,85.9,474.7z"/>
	<path fill="none" stroke="#000000" stroke-width="0.5" stroke-miterlimit="10" d="M85.9,453.2c10.3,0,20.5,0.1,30.8,0.1c0,0.6-0.1,1.1-0.1,1.7c-10.3,0-20.5,0.1-30.8,0.1
		C85.9,454.5,85.9,453.8,85.9,453.2z"/>
	<path fill="none" stroke="#000000" stroke-width="0.5" stroke-miterlimit="10" d="M163.7,509.6c7.9,0,15.7,0,23.6,0.1c0,0.4,0,0.8-0.1,1.2c-7.9,0-15.7,0-23.6,0.1
		C163.6,510.6,163.7,510.1,163.7,509.6z"/>
	<path fill="none" stroke="#000000" stroke-width="0.5" stroke-miterlimit="10" d="M163.7,496.5c8.3,0,16.5,0,24.8,0c0,0.3-0.1,0.6-0.1,0.9c-8.3,0-16.5,0-24.8,0
		C163.6,497.2,163.7,496.9,163.7,496.5z"/>
	<path fill="none" stroke="#000000" stroke-width="0.5" stroke-miterlimit="10" d="M85.9,493.1c10.3,0,20.5,0,30.8,0.1c0,0.4-0.1,0.8-0.1,1.2c-10.3,0-20.5,0-30.8,0.1
		C85.9,494.1,85.9,493.6,85.9,493.1z"/>
	<path fill="none" stroke="#000000" stroke-width="0.5" stroke-miterlimit="10" d="M94.3,553.8c7.9,0,15.8,0,23.7,0.1c0,0.4,0,0.9-0.1,1.3c-7.9,0-15.8,0-23.7,0.1
		C94.3,554.7,94.3,554.3,94.3,553.8z"/>
	<path fill="none" stroke="#000000" stroke-width="0.5" stroke-miterlimit="10" d="M163.7,533.1c5.9,0,11.9,0,17.8,0.1c0,0.4,0,0.8-0.1,1.2c-5.9,0-11.9,0-17.8,0.1
		C163.6,534,163.7,533.5,163.7,533.1z"/>
	<polygon class="st3" points="80.8,326.9 80.8,327.9 88.9,327.9 88.9,328.6 114.6,328.6 114.6,327.2 	"/>
	<polyline class="st3" points="82.1,341 82.1,342 114.9,342 114.9,341 82.4,341 	"/>
	<polygon class="st3" points="82.1,351 82.1,352.1 87.1,352.1 87.1,352.8 114.9,353 114.9,350.2 88.1,350.2 88.1,350.9 	"/>
	<polygon class="st3" points="166.1,320.9 196.2,320.9 196.2,322 180.1,322 180.1,322.7 166.1,322.9 	"/>
	<polygon class="st3" points="166.1,333.1 197,333.1 197,333.9 195,333.9 195,334.8 166.1,335.1 	"/>
	<polygon class="st3" points="165.9,348.9 195.9,348.9 195.9,350.2 181.9,350.2 181.9,350.9 165.9,350.9 	"/>
	<polygon class="st3" points="165.9,361.1 180.1,361.1 180.1,362 192.9,362 192.9,363.1 165.9,363.1 	"/>
	<polygon class="st3" points="165.5,374 192.9,374 192.9,375 193.8,375 193.8,375.8 165.5,375.8 	"/>
	<polygon class="st3" points="165.1,385 183.1,385 183.1,385.8 192.9,385.8 192.9,387.1 191.1,387.1 191.1,387.9 165,387.9 	"/>
	<polygon class="st3" points="165.1,413 173,413 173,413.9 193,413.9 193,415 165.1,415 	"/>
	<polygon class="st3" points="84,403.1 84,403.8 90.9,403.8 90.9,404.9 116,405 116,403.1 	"/>
	<polygon class="st3" points="85.6,422.9 85.4,422.1 84.6,422.1 84.6,421 116.4,421 116.4,422.9 	"/>
	<path fill="none" stroke="#000000" stroke-width="0.5" stroke-miterlimit="10" d="M164.5,427h7.5v0.9h20.5v1.2H165C164.5,429.1,164.5,427,164.5,427z"/>
	<polygon class="st3" points="164.5,438.1 185,438.1 185,438.8 191.8,438.8 191.8,440 164.5,440 	"/>
	<polygon class="st3" points="164.5,454.1 180.8,454.1 180.8,455.1 191.8,455.1 191.8,456 164.5,456 	"/>
	<polyline class="st3" points="164,467.1 166.7,467.1 166.7,467.7 190.2,467.7 190.2,467.1 190.9,467.1 190.9,465.8 164,465.8 	"/>
	<polygon class="st3" points="164,477.9 190.1,477.9 190.1,478.9 187,478.9 187,479.8 164,479.8 	"/>
	<polygon class="st3" points="164,487 189.2,487 189.2,487.9 170,487.9 170,489 164,489 	"/>
	<polygon class="st3" points="87.9,509.1 87.9,509.6 97,509.6 97,511 117.1,511 117.6,511 117.6,510 104.1,510 104,509.1 	"/>
	<polygon class="st3" points="88.9,521 88.9,522 94.9,522 94.9,523 118,523 118,521 	"/>
	<polygon class="st3" points="163.6,521 187.3,521 187.3,521.9 184.2,521.9 184.1,522.9 163.6,522.9 	"/>
	<polyline class="st3" points="163,543.1 182.2,543.1 182.2,543.9 184.8,543.9 184.8,545 163,545 163,543.4 	"/>
	<polygon class="st3" points="92,540.1 92,540.7 90.8,540.7 90.8,542 118,542 118,541 112.1,541 112.2,540.1 	"/>
	<polygon class="st3" points="163,558.9 183.9,558.9 183.9,559.9 182.2,559.9 182.2,561 163,561 	"/>
	<polyline class="st3" points="163,572 165.9,572 165.9,572.8 182.8,572.8 182.8,574 163,574 163,572.4 	"/>
	<polyline class="st3" points="107.8,567.9 99.1,567.9 99.1,568.9 119.3,568.9 119.2,567.9 107.8,567.9 	"/>
	<polygon class="st3" points="163,581.9 182.8,581.9 182.8,582.8 181.8,582.8 182,583.8 163,583.8 	"/>
	<polygon class="st3" points="162.3,592.9 176,592.9 176,593.6 182.8,593.6 182.8,594.8 162.3,594.8 	"/>
	<path fill="none" stroke="#000000" stroke-width="0.5" stroke-miterlimit="10" d="M162.3,601c5.6,0,11.1,0.1,16.7,0.1v1.7c-5.6,0-11.1,0.1-16.7,0.1C162.3,602.2,162.3,601.6,162.3,601z"/>
	<polygon class="st3" points="161.9,612.9 173,612.9 173,613.8 175.5,613.8 175.5,614.9 161.9,614.9 	"/>
	<polygon class="st3" points="97.9,589.9 97.9,591 118.9,591 118.9,589 105.5,589 105.6,590 	"/>
	<polygon class="st3" points="98.7,600 98.7,601.9 119.6,601.9 119.2,600 	"/>
	<rect x="101.6" y="610.9" class="st3" width="18" height="1.8"/>
	<polygon class="st3" points="104,620 104,620.8 102,620.8 102,621.8 104,621.8 104,622.6 119.6,622.6 119.6,620 	"/>
	<polygon class="st3" points="107.1,633.9 107.1,635 110.3,635 110.3,635.8 120.1,635.8 120.1,633.9 	"/>
	<polygon class="st3" points="161.9,641.8 173,641.8 173,643.2 163,643.2 163,643.8 161.9,643.8 	"/>
	<polygon class="st3" points="161.6,629 175.2,629 175.2,629.8 172.2,629.8 172.2,630.8 161.5,630.8 	"/>
	<rect x="161.2" y="654.1" class="st3" width="4.8" height="1.8"/>
	<polygon class="st3" points="115,644.8 115,645.8 109.2,645.8 109.2,646.7 119.6,646.7 119.6,644.8 	"/>
	<rect x="112.8" y="653.1" class="st3" width="7.6" height="2"/>
	<rect x="116.2" y="664.8" class="st3" width="3.8" height="1.1"/>
	<polygon class="st3" points="161,664 166.1,664 166.1,664.8 165.2,664.8 165.2,665.9 161,665.9 	"/>
</g>
<g id="Stele">
	<path fill="none" stroke="#000000" stroke-width="0.5" stroke-miterlimit="10" d="M231.3,262c4.2,0,8.4,0,12.7,0c0,135.3,0,270.7,0,406c-4.2,0.2-8.4,0.4-12.7,0.7
		C231.3,533.1,231.3,397.6,231.3,262z"/>
</g>
<g id="Root_hairs">
	<path fill="none" stroke="#000000" stroke-width="0.5" stroke-miterlimit="10" d="M484.9,445.4c10.2,0.1,20.5,0.2,30.7,0.3c0.8,0.2,1.7,0.5,1.8,0.9c0,1-4.7,1.9-6.4,2.3
		c-4,0.8-11.8,1.7-26.3,0.3C484.8,447.9,484.9,446.6,484.9,445.4z"/>
	<path fill="none" stroke="#000000" stroke-width="0.5" stroke-miterlimit="10" d="M484.7,451c10.7-0.1,19.2,0.2,25.2,0.5c7.8,0.4,8.4,1.2,8.4,1.4c0,0.7-5.7,1.5-9.9,1.7c-3.6,0.2-6.1,0.1-7.8,0
		c-3.7-0.2-9.1-0.3-16,0.1C484.6,453.5,484.6,452.3,484.7,451z"/>
	<path fill="none" stroke="#000000" stroke-width="0.5" stroke-miterlimit="10" d="M484.6,457.4c3.1,0.3,7.7,0.6,13.4,1c12.9,0.8,18.3,0.8,18.3,1.3c0,0.6-9.2,1.6-18.1,1.8
		c-5.8,0.2-10.7,0-13.9-0.2C484.4,460,484.5,458.7,484.6,457.4z"/>
	<path fill="none" stroke="#000000" stroke-width="0.5" stroke-miterlimit="10" d="M483.8,464.6c3.7,0.1,6.6,0,8.6,0c7.4-0.2,11.1-0.3,12.7-0.4c1.5-0.1,4.2-0.3,7.5,0.5c1.1,0.3,3.5,0.8,3.5,1.3
		c-0.1,1-9,1.1-18.2,1.2c-5.9,0.1-10.9,0-14.4,0C483.6,466.4,483.7,465.5,483.8,464.6z"/>
	<path fill="none" stroke="#000000" stroke-width="0.5" stroke-miterlimit="10" d="M482.9,469.7c1.8,0,4.5,0,7.8,0c4.2,0,7.8,0.1,11.6,0.3c4.8,0.3,13.1,1.1,13.1,1.7c0,0.9-18.4,1.1-19.9,1.1
		c-5.5,0-10-0.1-13-0.2C482.6,471.7,482.8,470.7,482.9,469.7z"/>
	<path fill="none" stroke="#000000" stroke-width="0.5" stroke-miterlimit="10" d="M482.2,474.4c4.8,0.1,8.5,0.2,10.5,0.2c7.5,0.1,10.7,0.2,15.1,0.8c2.3,0.3,7.7,1.1,7.6,1.8
		c0,1.1-14.5,0.7-23.8,1.1c-0.8,0-3.2,0.2-6.4,0c-1.5-0.1-2.6-0.2-3.3-0.2C482,476.9,482.1,475.6,482.2,474.4z"/>
	<path fill="none" stroke="#000000" stroke-width="0.5" stroke-miterlimit="10" d="M481.9,480.5c25.9-0.2,32.4,0.2,32.4,0.8c0,0.7-11.2,1.9-21.8,2.1c-4.3,0.1-7.9,0-10.7-0.1
		C481.9,482.3,481.9,481.4,481.9,480.5z"/>
	<path fill="none" stroke="#000000" stroke-width="0.5" stroke-miterlimit="10" d="M481.9,486.6c24.6,0.4,31.1,1.3,31.1,2.1c0,0.5-2.3,1.3-3.9,1.6c-2.1,0.4-3.1,0-5.8-0.1c-2.3,0-3.7,0.2-5,0.4
		c-2.6,0.3-7.3,0.4-16.3-0.4C482,488.9,481.9,487.8,481.9,486.6z"/>
	<path fill="none" stroke="#000000" stroke-width="0.5" stroke-miterlimit="10" d="M482.1,495.7c2.6,0.1,4.7,0.1,6.1,0.2c3.8,0,5.6,0,11.1,0c1.4,0,2.1,0,2.8,0c3,0.1,7.2,0.3,12.6,1.1
		c-1,0.3-2,0.6-3,0.8c-5.2,0.2-10.5,0.3-16,0.3c-4.6,0-9.1-0.1-13.5-0.2C482.2,497.1,482.1,496.4,482.1,495.7z"/>
	<path fill="none" stroke="#000000" stroke-width="0.5" stroke-miterlimit="10" d="M490.2,773c0.3,0,0.7,0.1,1.1,0.3s0.8,0.4,0.8,0.7c0,0.4-0.6,0.6-0.7,0.7c-0.5,0.2-1,0.2-1.2,0.1
		C490.2,774.3,490.2,773.6,490.2,773z"/>
	<path fill="none" stroke="#000000" stroke-width="0.5" stroke-miterlimit="10" d="M490.3,763.8c3.8,1.1,4,1.9,4,2.2c0,0.2-0.1,0.4-1.1,1.1c-1.2,0.8-2.2,1.3-3,1.7
		C490.3,767.1,490.3,765.5,490.3,763.8z"/>
	<path fill="none" stroke="#000000" stroke-width="0.5" stroke-miterlimit="10" d="M493.9,760.2c-1.5,0.3-2.7,0.5-3.6,0.5c0-0.8,0-1.6,0.1-2.4c4,0.8,4.9,1.2,4.8,1.5
		C495.1,759.8,495.1,760,493.9,760.2z"/>
	<path fill="none" stroke="#000000" stroke-width="0.5" stroke-miterlimit="10" d="M490.2,749.6c5.4,1.8,6.5,2.7,6.4,3.2c-0.1,0.8-3,1.1-4,1.2c-1,0.1-1.9,0.1-2.4,0.1
		C490.2,752.6,490.2,751.1,490.2,749.6z"/>
	<path fill="none" stroke="#000000" stroke-width="0.5" stroke-miterlimit="10" d="M490.4,743.3c2.3,0.4,7.8,1.5,7.8,2.4c-0.1,0.9-5.5,1.2-7.8,1.3C490.4,745.8,490.4,744.6,490.4,743.3z"/>
	<path fill="none" stroke="#000000" stroke-width="0.5" stroke-miterlimit="10" d="M490.4,737.3c7.3,0.1,9.3,0.5,9.4,1c0.1,0.7-3.9,2-7.8,2.2c-0.6,0-1.2,0-1.7,0
		C490.4,739.4,490.4,738.4,490.4,737.3z"/>
	<path fill="none" stroke="#000000" stroke-width="0.5" stroke-miterlimit="10" d="M490.5,730.7c2.9,0.8,5.2,1,6.8,1.1c1.3,0.1,2.7,0,2.8,0.4c0.1,0.5-1.8,1.2-2,1.3c-1.5,0.6-4,1.2-7.7,0.6
		C490.4,733,490.5,731.9,490.5,730.7z"/>
	<path fill="none" stroke="#000000" stroke-width="0.5" stroke-miterlimit="10" d="M490.5,723.5c1.3,0.2,3.2,0.5,5.6,0.8c4.1,0.5,5.4,0.6,5.4,0.8c0,0.3-1.9,0.8-10.9,1.7
		C490.5,725.7,490.5,724.6,490.5,723.5z"/>
	<path fill="none" stroke="#000000" stroke-width="0.5" stroke-miterlimit="10" d="M490.6,717.4c4.9,1.1,7.4,1.1,8.8,0.9c0.4,0,1.8-0.3,1.9,0.2c0.1,0.3-0.3,0.7-0.4,0.7
		c-0.9,0.8-2.4,0.7-2.8,0.6c-1.4-0.1-3.6-0.1-7.4,0.7C490.6,719.5,490.6,718.4,490.6,717.4z"/>
	<path fill="none" stroke="#000000" stroke-width="0.5" stroke-miterlimit="10" d="M490.7,712.3c1.7,0,4.1,0.2,7.1,0.5c2.7,0.3,5.2,0.7,5.2,1.1c0,0.4-2.1,0.9-12.2,1.7
		C490.7,714.5,490.7,713.4,490.7,712.3z"/>
	<path fill="none" stroke="#000000" stroke-width="0.5" stroke-miterlimit="10" d="M490.7,707.4c10.9,0.6,13.4,1.1,13.4,1.5c0,0.2-0.9,0.5-1.6,0.7c-2.4,0.6-4.4,0.4-5,0.4
		c-1.6-0.1-3.8-0.1-6.8,0.6C490.7,709.5,490.7,708.5,490.7,707.4z"/>
	<path fill="none" stroke="#000000" stroke-width="0.5" stroke-miterlimit="10" d="M490.7,702.4c11.3,0.6,15.1,1.1,15.1,1.5s-3.8,1-15.2,1.5C490.7,704.4,490.7,703.4,490.7,702.4z"/>
	<path fill="none" stroke="#000000" stroke-width="0.5" stroke-miterlimit="10" d="M490.9,696.6c11-0.1,15.5,0.1,15.5,0.5s-4.4,1.2-15.5,2.3C490.9,698.5,490.9,697.6,490.9,696.6z"/>
	<path fill="none" stroke="#000000" stroke-width="0.5" stroke-miterlimit="10" d="M491,690.3c10.9,0.1,15.5,0.4,15.5,0.9s-4.6,1.2-15.7,2.2C490.9,692.4,490.9,691.4,491,690.3z"/>
	<path fill="none" stroke="#000000" stroke-width="0.5" stroke-miterlimit="10" d="M490.8,684.7c13,0.4,18.1,0.9,18.1,1.3c0,0.4-5,1-18,1.6C490.9,686.7,490.8,685.7,490.8,684.7z"/>
	<path fill="none" stroke="#000000" stroke-width="0.5" stroke-miterlimit="10" d="M491,677.7c13,0.3,18.1,0.7,18.2,1.1c0,0.4-5.1,1-18.2,1.8C491,679.6,491,678.6,491,677.7z"/>
	<path fill="none" stroke="#000000" stroke-width="0.5" stroke-miterlimit="10" d="M491.1,670.8c12.8,0.1,18.7,0.4,18.7,0.8c0,0.4-6,0.9-18.8,1.7C491,672.4,491,671.6,491.1,670.8z"/>
	<path fill="none" stroke="#000000" stroke-width="0.5" stroke-miterlimit="10" d="M490.8,662.9c0.1,0,0.2,0,0.2,0c5.5,0.1,20.8,0.6,20.8,1.2c0,0.4-4.9,1-21,1.9
		C490.8,665,490.8,663.9,490.8,662.9z"/>
	<path fill="none" stroke="#000000" stroke-width="0.5" stroke-miterlimit="10" d="M490.6,656.7c9,0,14.5,0.2,17.9,0.5c1.4,0.1,3.7,0.3,3.7,0.7s-2,0.8-3.7,1.1c-6,0.1-11.9,0.1-17.9,0.2
		C490.6,658.2,490.6,657.4,490.6,656.7z"/>
	<path fill="none" stroke="#000000" stroke-width="0.5" stroke-miterlimit="10" d="M490.4,649.9c11.2-0.5,22.2-0.7,22.3,0.4c0,0.1-0.1,0.3-0.5,0.5c-4.2,2.3-20.9,1.5-22,1.4
		C490.3,651.4,490.3,650.7,490.4,649.9z"/>
	<path fill="none" stroke="#000000" stroke-width="0.5" stroke-miterlimit="10" d="M490.2,644c16.5,0.3,23.7,0.7,23.7,1.2s-7.1,1.1-23.7,1.8C490.2,646.1,490.2,645,490.2,644z"/>
	<path fill="none" stroke="#000000" stroke-width="0.5" stroke-miterlimit="10" d="M490,637.9c16.4,0.4,24,0.8,24,1.2s-7.6,0.8-24,1.2C490,639.4,490,638.7,490,637.9z"/>
	<path fill="none" stroke="#000000" stroke-width="0.5" stroke-miterlimit="10" d="M489.7,630.9c17.9,0.3,26.2,0.8,26.2,1.2c0,0.5-8.3,1.1-26.1,1.8C489.8,632.9,489.7,631.9,489.7,630.9z"/>
	<path fill="none" stroke="#000000" stroke-width="0.5" stroke-miterlimit="10" d="M489.3,624.9c18.2,0.2,27.4,0.5,27.4,1s-9,1.1-27.2,1.9C489.5,626.9,489.4,625.9,489.3,624.9z"/>
	<path fill="none" stroke="#000000" stroke-width="0.5" stroke-miterlimit="10" d="M489.2,619.9c17.8,0,26.3,0.1,26.3,0.5s-8.5,0.9-26.2,1.7C489.3,621.4,489.3,620.7,489.2,619.9z"/>
	<path fill="none" stroke="#000000" stroke-width="0.5" stroke-miterlimit="10" d="M488.9,612.9c18.7,0.5,28,1.1,28,1.6s-9.3,1.1-27.8,1.6C489.1,615,489,613.9,488.9,612.9z"/>
	<path fill="none" stroke="#000000" stroke-width="0.5" stroke-miterlimit="10" d="M488.6,605.4c19.3-0.1,28.9,0.1,28.9,0.5s-9.6,1.1-28.8,2.1C488.7,607.1,488.7,606.2,488.6,605.4z"/>
	<path fill="none" stroke="#000000" stroke-width="0.5" stroke-miterlimit="10" d="M488.3,598.7c19.2,0.1,28.7,0.4,28.8,0.8c0,0.4-9.5,0.9-28.5,1.6C488.4,600.3,488.4,599.5,488.3,598.7z"/>
	<path fill="none" stroke="#000000" stroke-width="0.5" stroke-miterlimit="10" d="M487.9,590.9c8.1-0.4,14.6-0.5,19.3-0.4c10.5,0.1,10.8,0.6,10.8,0.7c0,0.3-1.9,0.7-2.9,0.9
		c-7.6,1.5-19.8,1.8-27.2,1.8C488,592.9,488,591.9,487.9,590.9z"/>
	<path fill="none" stroke="#000000" stroke-width="0.5" stroke-miterlimit="10" d="M487.5,582.7c21.4,0.6,31.5,1.1,31.5,1.6s-10.1,1-31.3,1.5C487.6,584.7,487.6,583.7,487.5,582.7z"/>
	<path fill="none" stroke="#000000" stroke-width="0.5" stroke-miterlimit="10" d="M486.8,569.4c22.8,0.1,34.2,0.3,34.2,0.8s-11.3,1.1-34,2C486.9,571.2,486.8,570.3,486.8,569.4z"/>
	<path fill="none" stroke="#000000" stroke-width="0.5" stroke-miterlimit="10" d="M487.2,576.2c23.3,0.5,34,1.1,34,1.7c0,0.6-10.7,1.2-33.8,1.9C487.3,578.6,487.2,577.4,487.2,576.2z"/>
	<path fill="none" stroke="#000000" stroke-width="0.5" stroke-miterlimit="10" d="M485.9,556c24.6,0.5,35.3,1.1,35.3,1.8s-10.6,1.6-35.2,2.6C486,559,486,557.5,485.9,556z"/>
	<path fill="none" stroke="#000000" stroke-width="0.5" stroke-miterlimit="10" d="M486.3,563.1c22.8,0.2,34.2,0.6,34.2,1.1s-11.3,1-33.9,1.7C486.4,565,486.4,564,486.3,563.1z"/>
	<path fill="none" stroke="#000000" stroke-width="0.5" stroke-miterlimit="10" d="M484.7,535c22.8,1.3,34.2,2.2,34.2,2.8c0,0.5-11.4,0.6-34.1,0.4C484.8,537.1,484.7,536,484.7,535z"/>
	<path fill="none" stroke="#000000" stroke-width="0.5" stroke-miterlimit="10" d="M484.9,541c23.3-0.2,33.8,0,33.8,0.6s-10.3,1.6-33.6,3.1C485.1,543.5,485,542.2,484.9,541z"/>
	<path fill="none" stroke="#000000" stroke-width="0.5" stroke-miterlimit="10" d="M485.5,550c16.6,0.1,34.6,0.4,34.6,1.3c0,0.4-2.4,0.7-5,1c-6.8,0.9-16.7,1.6-29.3,0.5
		C485.7,551.9,485.6,550.9,485.5,550z"/>
	<path fill="none" stroke="#000000" stroke-width="0.5" stroke-miterlimit="10" d="M484.1,526.9c24.2,0.3,35.2,0.8,35.2,1.4c0,0.7-10.9,1.6-35,2.7C484.3,529.7,484.2,528.3,484.1,526.9z"/>
	<path fill="none" stroke="#000000" stroke-width="0.5" stroke-miterlimit="10" d="M483.6,520.9c24,0.5,35.9,1.1,35.9,1.8c0,0.6-11.9,1.3-35.6,2.1C483.8,523.4,483.7,522.2,483.6,520.9z"/>
	<path fill="none" stroke="#000000" stroke-width="0.5" stroke-miterlimit="10" d="M482.9,512c23.5,0.3,35.2,0.8,35.2,1.4c0,0.6-11.6,1.4-35,2.3C483.1,514.4,483,513.2,482.9,512z"/>
	<path fill="none" stroke="#000000" stroke-width="0.5" stroke-miterlimit="10" d="M482.5,505.9c23.8-0.8,34.9-0.9,35-0.3c0,0.5-11.1,1.7-34.9,3.5C482.6,508.1,482.6,507,482.5,505.9z"/>
	<path fill="none" stroke="#000000" stroke-width="0.5" stroke-miterlimit="10" d="M424.3,458.1c0-0.6,10.7-1.2,35.3-1.6c0,1.3,0,2.7-0.1,4C435,459.5,424.3,458.7,424.3,458.1z"/>
	<path fill="none" stroke="#000000" stroke-width="0.5" stroke-miterlimit="10" d="M443.7,465.9c7-0.2,12.8-0.1,16.6,0.1c0.1,1.5,0.3,2.9,0.4,4.4c-3.7,0.3-9.1,0.5-15.7,0.2
		c-9.8-0.5-20.6-2.1-20.6-3.1C424.6,466.3,436.6,466,443.7,465.9z"/>
	<path fill="none" stroke="#000000" stroke-width="0.5" stroke-miterlimit="10" d="M429,474.8c0.2-1.7,17.3-1.1,32.6-0.2c0,1.2,0.1,2.3,0.1,3.5c-9.1-1.1-15.2-0.9-19.6-0.4
		c-1.2,0.1-6.7,0.8-11.9-1.9C429.1,475.2,429,475,429,474.8z"/>
	<path fill="none" stroke="#000000" stroke-width="0.5" stroke-miterlimit="10" d="M430.3,485.8c0-0.7,10.5-1.3,32.2-1.9c0.1,1.5,0.2,2.9,0.2,4.4C440.8,487.4,430.3,486.5,430.3,485.8z"/>
	<path fill="none" stroke="#000000" stroke-width="0.5" stroke-miterlimit="10" d="M431.1,498.9c0-1,10.1-1.8,32.4-2.5c0.1,2,0.3,4,0.4,5.9C441.3,501,431,499.9,431.1,498.9z"/>
	<path fill="none" stroke="#000000" stroke-width="0.5" stroke-miterlimit="10" d="M432.8,508.3c0-0.5,5.8-1,32.1-0.7c0.1,1.2,0.2,2.4,0.4,3.6c-4.3,0.1-10.1,0.1-17-0.5
		C443,510.2,432.8,509,432.8,508.3z"/>
	<path fill="none" stroke="#000000" stroke-width="0.5" stroke-miterlimit="10" d="M465.7,516.9c0.3,1.5,0.6,3,0.9,4.4c-22.7,0.1-34-0.3-34.1-1C432.5,519.6,443.5,518.4,465.7,516.9z"/>
	<path fill="none" stroke="#000000" stroke-width="0.5" stroke-miterlimit="10" d="M435.1,527.7c0-0.5,10.5-1.3,31.6-2.4c0.1,1,0.2,2,0.2,2.9C445.7,528.4,435.1,528.2,435.1,527.7z"/>
	<path fill="none" stroke="#000000" stroke-width="0.5" stroke-miterlimit="10" d="M434.7,535.4c0-0.6,10.8-1.4,32.5-2.5c0.1,1.2,0.2,2.3,0.4,3.5C445.7,536.3,434.7,536,434.7,535.4z"/>
	<path fill="none" stroke="#000000" stroke-width="0.5" stroke-miterlimit="10" d="M467.8,539.6c0.1,0.9,0.2,1.8,0.4,2.6c-21.7,0.4-32.6,0.4-32.6,0C435.5,541.8,446.3,540.9,467.8,539.6z"/>
	<path fill="none" stroke="#000000" stroke-width="0.5" stroke-miterlimit="10" d="M468.4,547.3c0.2,1.2,0.4,2.5,0.6,3.8c-11.5,0-23.1,0-34.6,0.1C445.7,549.9,457.1,548.6,468.4,547.3z"/>
	<path fill="none" stroke="#000000" stroke-width="0.5" stroke-miterlimit="10" d="M437.3,558.5c10.8-1.1,21.5-2.1,32.2-3.2c0.2,1.3,0.3,2.6,0.5,3.9C459.1,559,448.2,558.8,437.3,558.5z"/>
	<path fill="none" stroke="#000000" stroke-width="0.5" stroke-miterlimit="10" d="M438.2,565.4c0-0.5,6.2-1.4,32.5-2.9c0.2,1.2,0.4,2.4,0.6,3.6c-3.4,0.2-8,0.5-13.4,0.5
		C449.7,566.6,438.2,566.1,438.2,565.4z"/>
	<path fill="none" stroke="#000000" stroke-width="0.5" stroke-miterlimit="10" d="M437.9,575.7c0-0.7,9.5-2,32.9-4c0.1,1.5,0.2,3,0.2,4.6C447.6,576.7,438,576.4,437.9,575.7z"/>
	<path fill="none" stroke="#000000" stroke-width="0.5" stroke-miterlimit="10" d="M440.1,586.5c0-0.8,9.6-1.8,31.9-3.1c0.1,1.6,0.2,3.2,0.4,4.8C449.9,587.8,440.1,587.2,440.1,586.5z"/>
	<path fill="none" stroke="#000000" stroke-width="0.5" stroke-miterlimit="10" d="M441.5,594.6c0-0.6,10-1.3,31-2.4c0.1,1.1,0.2,2.3,0.2,3.4C451.6,595.5,441.5,595.2,441.5,594.6z"/>
	<path fill="none" stroke="#000000" stroke-width="0.5" stroke-miterlimit="10" d="M441.2,603c0-0.9,6.2-1.8,31.9-2.5c0.1,1.3,0.1,2.5,0.2,3.8c-3.1,0.6-7.4,1.2-12.4,1.2
		C451.4,605.7,441.2,604.1,441.2,603z"/>
	<path fill="none" stroke="#000000" stroke-width="0.5" stroke-miterlimit="10" d="M443.3,614.2c0-0.6,10-1.1,29.9-1.6c0.1,1.2,0.2,2.5,0.3,3.8C453.4,615.6,443.3,614.9,443.3,614.2z"/>
	<path fill="none" stroke="#000000" stroke-width="0.5" stroke-miterlimit="10" d="M446.2,622.9c0-0.4,9.2-0.8,27.6-1.2c0,0.8,0.1,1.7,0.1,2.5C455.5,623.7,446.2,623.3,446.2,622.9z"/>
	<path fill="none" stroke="#000000" stroke-width="0.5" stroke-miterlimit="10" d="M445.9,631.6c0-0.5,8.8-0.8,28.2-1.1c0,0.9,0,1.9,0,2.8C454.7,632.6,445.9,632,445.9,631.6z"/>
	<path fill="none" stroke="#000000" stroke-width="0.5" stroke-miterlimit="10" d="M447.4,638.6c0-0.5,8.3-1,27.1-1.7c0,1,0,2,0.1,3C455.7,639.5,447.4,639,447.4,638.6z"/>
	<path fill="none" stroke="#000000" stroke-width="0.5" stroke-miterlimit="10" d="M449.1,647.6c0-0.5,7.6-1.2,25.7-1.9c0,1.1,0,2.2,0.1,3.3C456.7,648.6,449.1,648.1,449.1,647.6z"/>
	<path fill="none" stroke="#000000" stroke-width="0.5" stroke-miterlimit="10" d="M452.2,658c0-0.5,7.4-0.9,23.6-1.2c0,1.1,0.1,2.1,0.1,3.2C459.6,659.2,452.2,658.5,452.2,658z"/>
	<path fill="none" stroke="#000000" stroke-width="0.5" stroke-miterlimit="10" d="M453.6,668.5c0-0.5,6.7-1,22.2-1.5c0,1,0.1,2.1,0.1,3.1C460.3,669.5,453.6,669,453.6,668.5z"/>
	<path fill="none" stroke="#000000" stroke-width="0.5" stroke-miterlimit="10" d="M455.6,678.1c0-0.5,5.8-0.9,20.3-1.3c0,1,0,2-0.1,3C461.4,679.1,455.6,678.5,455.6,678.1z"/>
	<path fill="none" stroke="#000000" stroke-width="0.5" stroke-miterlimit="10" d="M455.9,685.2c0-0.3,6.3-0.5,19.9-0.6c0,0.6,0,1.1,0,1.7C462.2,685.9,455.9,685.5,455.9,685.2z"/>
	<path fill="none" stroke="#000000" stroke-width="0.5" stroke-miterlimit="10" d="M457.2,693.6c0-0.3,5.8-0.6,18.8-0.8c0,0.7,0,1.5,0,2.2C463,694.4,457.2,694,457.2,693.6z"/>
	<path fill="none" stroke="#000000" stroke-width="0.5" stroke-miterlimit="10" d="M458.8,698.9c0-0.4,5.7-0.3,17.1,0.1c0,0.7,0,1.4,0.1,2.1C464.5,700,458.8,699.3,458.8,698.9z"/>
	<path fill="none" stroke="#000000" stroke-width="0.5" stroke-miterlimit="10" d="M458.2,706.6c0-0.5,5.2-0.6,17.6-0.4c0,1,0,2,0,2.9C463.3,707.9,458.2,707.1,458.2,706.6z"/>
	<path fill="none" stroke="#000000" stroke-width="0.5" stroke-miterlimit="10" d="M475.6,712.6c-11.9,0.3-14.7,0.8-14.8,1.3c0,0.5,2.7,1.1,4,1.3c1.7,0.3,2.9,0.3,4.3,0.3c1.5,0,3.7,0.1,6.4,0.5
		C475.6,714.9,475.6,713.8,475.6,712.6z"/>
	<path fill="none" stroke="#000000" stroke-width="0.5" stroke-miterlimit="10" d="M461.8,720.4c0-0.4,2.6-0.8,13.9-0.8c0,0.9,0,1.8,0.1,2.8c-1.6,0-3.7,0-6.2-0.3
		C466.7,721.7,461.8,721,461.8,720.4z"/>
	<path fill="none" stroke="#000000" stroke-width="0.5" stroke-miterlimit="10" d="M464.8,727.6c0-0.3,2.7-0.7,10.8-1.1c0,0.7,0,1.4,0,2.1C467.5,728.3,464.8,727.9,464.8,727.6z"/>
	<path fill="none" stroke="#000000" stroke-width="0.5" stroke-miterlimit="10" d="M467.4,731.9c0-0.3,1.3-0.8,8.6-1.1c0,1.1,0.1,2.1,0.1,3.2C468.6,732.9,467.4,732.3,467.4,731.9z"/>
	<path fill="none" stroke="#000000" stroke-width="0.5" stroke-miterlimit="10" d="M470.2,743.5c0-0.6,3.8-1,6.1-1.2c0,0.8,0,1.7,0,2.5C474,744.6,470.2,744.1,470.2,743.5z"/>
	<path fill="none" stroke="#000000" stroke-width="0.5" stroke-miterlimit="10" d="M471.3,751.2c0-0.3,2.1-1,3.3-0.8c0.1,0,0.5,0.1,0.9-0.1c0.3-0.1,0.5-0.4,0.6-0.6c0,0.9,0.1,1.8,0.1,2.6
		c-0.4-0.1-1.1-0.3-1.9-0.5C472.2,751.5,471.3,751.5,471.3,751.2z"/>
	<path fill="none" stroke="#000000" stroke-width="0.5" stroke-miterlimit="10" d="M476.3,765.9c-0.2,0-0.6,0.1-1,0.3c-0.3,0.2-0.7,0.4-0.7,0.7s0.5,0.6,0.6,0.7c0.4,0.2,0.9,0.2,1.1,0.1
		C476.3,767.1,476.3,766.5,476.3,765.9z"/>
	<path fill="none" stroke="#000000" stroke-width="0.5" stroke-miterlimit="10" d="M475.9,755.4c-0.3,0-0.9,0.2-1.4,0.5s-1.1,0.6-1.1,1.1c0,0.6,0.7,0.9,0.9,1.1c0.7,0.4,1.3,0.3,1.6,0.2
		C475.9,757.3,475.9,756.3,475.9,755.4z"/>
</g>
<g id="Root_hairless_root">
	<path fill="none" stroke="#000000" stroke-width="0.5" stroke-miterlimit="10" d="M485,432.5c-8.4,7.5-16.8,15.1-25.1,22.6c0.9,9.3,2.2,23.3,3.9,40.2c3.1,31,4,36.7,5.5,52.2
		c3.1,31.7,4.1,55.6,5.4,84.4c1.3,30,1.9,45,1.8,64.1c-0.1,6.5-0.3,21.8-0.2,43.4c0,11.1,0.1,18.8,0.5,28.2
		c0.3,7.8,0.8,14.1,1.6,26.6c0.8,11.7,1.6,20.7,2.9,31.4c1.4,11.4,2.1,17.1,3.1,17.1c2.5,0,4.6-33.9,4.8-36.8
		c0.7-11.6,0.7-18.1,0.9-41.2c0.2-27.8,0.3-18,0.5-46.1c0.2-27.9,0.3-41.8,0.2-49.2c-0.2-15.3-0.7-27.5-1.8-51.8
		c-0.8-17.8-1.3-30.5-2.4-48.1c-2-31.8-2.9-47.7-3.6-55.5c-0.2-2.2-1.2-13-1.2-27c0-5.6,0-8.4,0.2-11.9c0.1-1.4,0.9-6,1.7-11.7v-0.1
		c0.3-2.7,0.8-6.3,0.9-9.6c0.1-2.9-0.1-2.5-0.1-8.4c0-1.8,0.1-3.1,0.1-3.5C484.6,439.6,484.7,436.4,485,432.5z"/>
</g>
<g id="Crown_roots">
	<path fill="none" stroke="#000000" stroke-width="0.5" stroke-miterlimit="10" d="M1044.8,311.7c-9.4,5.6-17.8,10.8-25.2,15.3c-7.5,4.7-8.6,5.5-9.8,6.5c-7.2,5.9-11.7,12.4-19.2,23.2
		c-2.8,4-4.2,6-5,7.6c-0.4,0.7-1.1,2.1-2.3,3.8c-2.4,3.3-3.9,3.8-4.5,4c-1.2,0.3-2.3,0.2-3,0c3.4-9.5,9-21,18.3-32.3
		c3.6-4.4,19.1-22.4,45.5-32.3c2.2-0.8,4.1-1.4,5.3-1.8C1044.9,307.6,1044.8,309.6,1044.8,311.7z"/>
	<path fill="none" stroke="#000000" stroke-width="0.5" stroke-miterlimit="10" d="M1057.1,317.3c4.3,2.3,7.7,3.2,9.7,3.8c8,2.5,13.7,7.4,16.2,9.5c7.5,6.4,11,14.3,17.7,29.5
		c1.2,2.6,2.4,5.2,3.5,7.8c2.1,5.1,2.7,7.4,5,10.7c1.4,2,2.8,3.5,4,4.5c1.2,1.1,2.3,1.8,3.2,2.3c-2.6-11.4-7.5-28.2-17.3-44.5
		c-7.9-13-14.5-18.6-18.3-21.3c-3.9-2.8-6.8-4.8-11.2-6.5c-4.7-1.8-8.2-2.1-13.3-5c-2.5-1.4-4.3-2.9-5.5-3.8
		c-0.1,2.8-0.2,5.6-0.3,8.3C1051.8,313.9,1054.1,315.7,1057.1,317.3z"/>
</g>
<g id="Seminal_roots">
	<path fill="none" stroke="#000000" stroke-width="0.5" stroke-miterlimit="10" d="M874,358.8c1.1,3.4,2.9,8.4,6.1,14.1c3.6,6.3,6.2,8.9,10.6,15.6c3.8,5.8,5.7,10,8.6,15.8
		c6.3,12.7,21.4,43.2,22.7,42.7c1.1-0.5-6.8-21.7-14.7-39.7c-5-11.3-8.3-17.6-10-20.7c-4.5-8.2-9.5-12.8-15-23.7
		c-1.8-3.5-3-6.5-3.8-8.4c-0.7,0.7-1.4,1.5-2.2,2.2C875.5,357.5,874.7,358.2,874,358.8z"/>
	<path fill="none" stroke="#000000" stroke-width="0.5" stroke-miterlimit="10" d="M862.4,357.6c0.6,0.7,1.3,1.4,2,2.1c0.8,0.7,1.6,1.4,2.3,1.9c-5.9,5.7-9.8,11.4-12.2,15.6
		c-1.1,2-5.2,9.3-7.8,19.6c-0.5,2.1-0.5,2.4-3.3,19.1c-1.3,7.5-1.3,7.8-1.6,9.6c-3.4,20.4-3.5,32.9-4.4,32.9c-1,0-2.4-14.7-1.9-31.2
		c0.5-15.6,0.8-25.8,5.4-37.9C843.6,382.1,849.4,369.8,862.4,357.6z"/>
</g>
<g id="Primary_root">
	<path fill="none" stroke="#000000" stroke-width="0.5" stroke-miterlimit="10" d="M752.3,359.4c-2.8,2.1-5.5,4.2-8.3,6.3c0.3,2.6,0.7,6.4,1.3,11.1c1,8.6,1.3,10.2,1.8,14.4
		c1,8.8,1.4,15.4,1.8,23.3c0.4,8.3,0.6,12.4,0.6,17.7c0,1.8-0.1,6-0.1,12c0,3.1,0,5.2,0.2,7.8c0.1,2.2,0.2,3.9,0.5,7.4
		c0.3,3.2,0.5,5.7,0.9,8.7c0.5,3.2,0.7,4.7,1,4.7c0.8,0,1.5-9.4,1.6-10.2c0.2-3.2,0.2-5,0.3-11.4c0.1-7.7,0.1-5,0.2-12.7
		c0.1-7.7,0.1-11.6,0.1-13.6c-0.1-4.2-0.2-7.6-0.6-14.3c-0.2-4.9-0.4-8.4-0.8-13.3c-0.6-8.8-1-13.2-1.2-15.3
		c-0.1-0.6-0.4-3.6-0.4-7.5c0-1.5,0-2.3,0.1-3.3c0-0.4,0.3-1.7,0.6-3.2l0,0c0.1-0.7,0.3-1.7,0.3-2.6c0-0.8,0-0.7,0-2.3
		c0-0.5,0-0.9,0-1C752.2,361.4,752.2,360.5,752.3,359.4z"/>
</g>
</svg>
