<?xml version="1.0" encoding="utf-8"?>
<!-- Generator: Adobe Illustrator 19.2.0, SVG Export Plug-In . SVG Version: 6.00 Build 0)  -->
<svg version="1.1" id="Layer_1" xmlns="http://www.w3.org/2000/svg" xmlns:xlink="http://www.w3.org/1999/xlink" x="0px" y="0px"
	 viewBox="0 0 800 600" style="enable-background:new 0 0 800 600;" xml:space="preserve">
<style type="text/css">
	.st0{fill:none;stroke:#000000;stroke-width:0.5;stroke-miterlimit:10;}
	.st1{font-family:'Helvetica-Light';}
	.st2{font-size:12px;}
</style>
<g id="Outlines">
	<path fill="none" stroke="#000000" stroke-width="0.5" stroke-miterlimit="10" d="M75.6,537.8c42.1,0.4,84.2,0.8,126.2,1.2c-1.2-41.1-2.5-82.2-3.8-123.2c-38.8,0-77.7,0-116.5,0
		C79.6,456.4,77.6,497.1,75.6,537.8z"/>
	<path fill="none" stroke="#000000" stroke-width="0.5" stroke-miterlimit="10" d="M123.5,161.7c-1.4,7.2-2.8,14.4-4.2,21.7c13.5,0.2,27,0.3,40.5,0.5c-2-7.4-4-14.8-6-22.2
		C143.7,161.7,133.6,161.7,123.5,161.7z"/>
	<path fill="none" stroke="#000000" stroke-width="0.5" stroke-miterlimit="10" d="M106.5,247.9c22.3-0.2,44.6-0.3,66.9-0.5c3.4,21.3,6.8,42.7,10.1,64c-28.9-0.1-57.8-0.2-86.6-0.4
		C100.1,290,103.3,268.9,106.5,247.9z"/>
</g>
<g id="Labels">
	<text transform="matrix(1 0 0 1 396.7239 423.4258)" class="st0 st1 st2">&lt; 2mm</text>
	<text transform="matrix(1 0 0 1 515.1639 423.4258)" class="st0 st1 st2">3-4mm</text>
	<text transform="matrix(1 0 0 1 669.7741 423.4258)" class="st0 st1 st2">5-7mm</text>
	<text transform="matrix(1 0 0 1 49.9158 204.9857)" class="st0 st1 st2">10mm ear</text>
	<text transform="matrix(1 0 0 1 32.1854 149.6667)" class="st0 st1 st2">Ear primordia</text>
	<text transform="matrix(1 0 0 1 162.6817 136.1916)" class="st0 st1 st2">Inflorescence meristem + </text>
	<text transform="matrix(1 0 0 1 162.6817 150.5916)" class="st0 st1 st2">spikelet pair meristems</text>
	<text transform="matrix(1 0 0 1 179.7032 211.3689)" class="st0 st1 st2">Spikelet meristems</text>
	<text transform="matrix(1 0 0 1 196.7241 366.6875)" class="st0 st1 st2">Floral meristems</text>
	<text transform="matrix(1 0 0 1 228.6391 419.1699)" class="st0 st1 st2">2mm ear</text>
	<text transform="matrix(1 0 0 1 283.249 464.56)" class="st0 st1 st2">1mm ear</text>
	<text transform="matrix(1 0 0 1 411.6179 149.6667)" class="st0 st1 st2">Tassel primordia</text>
</g>
<g id="ear_tip">
	<path fill="none" stroke="#000000" stroke-width="0.5" stroke-miterlimit="10" d="M123.6,161c9.9,0,19.8,0,29.7,0c-2-12.1-5-21.4-7.4-27.8c-2.5-6.6-4.3-9.8-6.6-9.9c-1.9-0.1-4,1.9-7.4,9.6
		C129.1,139,125.6,148.4,123.6,161z"/>
</g>
<g id="ear_mid">
	<path fill="none" stroke="#000000" stroke-width="0.5" stroke-miterlimit="10" d="M106.3,247.7c22.4-0.2,44.9-0.4,67.3-0.7c-4.6-21-9.1-42-13.7-63c-13.7-0.2-27.3-0.4-41-0.7
		C114.7,204.8,110.5,226.2,106.3,247.7z"/>
</g>
<g id="ear_base">
	<path fill="none" stroke="#000000" stroke-width="0.5" stroke-miterlimit="10" d="M96.9,311.3c28.9,0.1,57.8,0.2,86.7,0.3c5,34.6,10,69.1,15,103.7c-38.9,0-77.8,0-116.7,0
		C86.9,380.7,91.9,346,96.9,311.3z"/>
</g>
<g id="1mm_ear">
	<path fill="none" stroke="#000000" stroke-width="0.5" stroke-miterlimit="10" d="M302.8,517c3.9-0.1,7.8-0.2,11.7-0.3c0.4-4.2,0.8-10.3,0.2-17.7c-0.8-9.7-3.3-23.4-5.8-23.3
		c-1.2,0-3.2,2.9-5.5,23.7C303.1,505.2,302.9,511.1,302.8,517z"/>
</g>
<g id="2mm_ear">
	<path fill="none" stroke="#000000" stroke-width="0.5" stroke-miterlimit="10" d="M247.1,434.8c-0.8,0-2.8,0.9-6.5,16.7c-2.3,9.7-3.9,16.5-5,29c-0.8,9.2-1.3,21.4-0.3,35.8c8.1,0,16.2,0,24.3,0
		c1.6-15.1,1.1-27.8,0.2-37c-1.2-12.2-3.2-19.6-5.7-28.5C249.8,435.2,247.7,434.8,247.1,434.8z"/>
</g>
<g id="tassel_2mm">
	<path fill="none" stroke="#000000" stroke-width="0.5" stroke-miterlimit="10" d="M384.6,343.8c-0.5-15.1-1-30.2-1.5-45.2c1.8-3.5,5.2-5.9,9-6c4.6-0.2,9,3,10.5,7.8
		c6.2,16.4,12.3,32.8,18.5,49.2c0.3,0.7,0.6,1.8,0.2,2.7c-0.5,1-1.6,1.4-1.4,1.8c0.1,0.3,1,0.1,1.9,0.4c1.9,0.7,2.3,3.9,2.3,4.3
		c0.5,3.9-1.9,6-0.9,7.2c0.9,1.1,2.9-0.3,4.5,0.8c1.7,1.2,1.5,4.2,1.3,6.5c-0.3,3.8-0.9,8.9-2,15.1c1.7,1.5,3.8,3.7,5.7,6.7
		c2.5,3.8,3.7,7.4,4.3,10c-14.2,0.3-28.4,0.7-42.7,1c0.1-6.1-1.4-10.1-2.8-12.7c-2.1-3.7-4.2-4.7-5.3-8.7c-1.3-4.4-0.6-9.4,1-9.8
		c1.5-0.4,3.9,3.6,4.8,5.7c2,4.1,2,8,2,8s0.1-3.1-1.4-6.7c-1.7-4-3.7-4.6-4.7-7.9c-0.8-2.4-0.5-4.7-0.2-6.3c-0.8-0.9-1.8-2.3-2.8-4
		c-1.3-2.2-1.9-3.3-2-4.5c-0.1-2.7,1.9-3.3,1.7-5.8c-0.2-1.9-1.4-2.3-1.7-4.2C382.5,346.9,383.6,345,384.6,343.8z"/>
</g>
<g id="tassel_5_7mm">
	<path fill="none" stroke="#000000" stroke-width="0.5" stroke-miterlimit="10" d="M662.6,89c1.4-4.3,5.1-7.5,9.5-8.2c4.5-0.7,9.6,1.2,11.2,4.5c1.4,2.8,0.3,6.2,2.6,7.6c0.9,0.5,2.1,0.7,2.4,1.6
		c0.2,0.7-0.2,1.8-0.3,2c-0.2,0.6-0.4,1-0.2,1.2c0.2,0.3,0.8,0,1.2,0.3c0.7,0.6-0.5,2.5,0.2,3.3c0.5,0.5,1.3-0.2,2,0.2
		c1.5,1-0.7,5.6,0.9,6.9c0.7,0.5,1.4-0.1,2.2,0.2c1.2,0.5,2.1,2.6,1.6,9c0.9,0.3,2.1,0.9,2.6,2.1c0.1,0.4,0.3,0.9-0.2,3.4
		c-0.5,2.7-0.9,3.4-0.5,4c0.6,0.9,2,0,2.9,0.9c1.6,1.4-1,5.2,0.9,7.8c0.4,0.6,0.8,0.6,1.1,1.4c0.7,1.6-0.2,2.7,0.5,3.6
		c0.7,0.9,1.7,0.2,2.4,1c0.9,1-0.5,2.5-0.4,6c0,1.2,0.1,3.2,1.4,4.6c0.5,0.6,0.8,0.6,1.1,1.1c0.8,1.5-0.5,3,0.3,4
		c0.5,0.7,1.3,0.1,2,0.8c1.1,1,0,3,0.2,6.1c0.2,2.7,1.2,2.3,1.5,5.1c0.4,3.5-0.8,5.5,0.5,6.9c0.7,0.7,1.2,0.4,1.9,1.1
		c0.7,0.8,0.6,2.2,0.4,5c-0.3,4-0.5,5.6,0.4,6.1c0.5,0.3,0.8,0,1.4,0.4c0.9,0.6,0.8,2,0.8,3.6c-0.2,5.7-0.3,6.2,0,7
		c0.6,1.5,1.5,1.5,3.5,3.4c3.8,3.5,2.5,5.6,6.2,9.9c2.8,3.2,4.1,2.8,5,5.2c1,2.8-0.5,4,0.6,6.8c1.2,2.8,3,2.2,4,4.9
		c1.1,2.9-0.6,4.5,1,7.1c0.8,1.3,1.2,1,2.1,2.5c1.3,2.1,1.3,4.4,1.2,5.2c-0.1,2.7-1.2,4.1-0.4,5.1c0.5,0.6,1.1,0.4,1.6,1.1
		c0.2,0.2,0.5,0.7,0.5,2.3c0,1.1-0.1,1.9-0.3,2.9c-0.5,2.9-1,4-0.6,4.3c0.4,0.2,1.1-0.9,1.6-0.8c1.3,0.5-2.5,10.1,0,11.8
		c0.5,0.3,1.2,0.2,1.6,0.1c0.5,14.2,0.6,26.2,0.6,35.2c0,13.9,0,22.3-0.6,33.5c-0.7,12.6-2,23.1-3,30.5c-6.7,5.1-8.6,9.8-9.1,13.2
		c-0.4,2.7,0.1,4.5,0.1,12.1c0,3.5-0.1,6.5-0.1,8.4c-30.1,0.1-60.2,0.2-90.2,0.2c-3.4-7.9-6.8-16.4-10-25.4
		c-5.2-14.7-9.1-28.6-12.1-41.4c-0.3-14.6,0.5-26.8,1.4-35.9c1.4-14.1,2.9-19.9,4.9-25c3.3-8.5,7.8-14.9,11.1-19
		c0-2.7,0-6.8,0.8-11.8c0.4-2.5,0.7-3.6,1.1-6.1c1.2-6.2,1.1-8.3,1.9-15c0.6-4.8,0.4-1.9,3-16.9c1-5.7,1.6-9.6,4.9-12.1
		c1.4-1.1,2.9-1.6,4-1.9c0.5-1.7,1.1-3.3,1.6-5c0-4,0.1-7.9,0.1-11.9c0.2-0.2,1.1-1.1,1.1-2.5c0-1.8-1.4-2.8-1.5-2.9
		c0-1.9,0.1-3.8,0.1-5.8c0.7-0.9,1.3-1.8,2-2.8c0-0.7,0.1-1.3,0.1-2c-0.6-0.3-1.2-0.6-1.8-0.9c0.1-1.8,0.2-3.5,0.4-5.2
		c0.8-0.3,1.8-0.8,2.1-1.8s-0.5-1.6-0.9-3c-0.8-2.8,1.3-4,0.9-7.6c-0.2-1.9-0.8-1.5-0.9-3.2c-0.2-3,1.4-3.6,1.2-6.4
		c-0.1-2.2-1.2-2.4-1-4.4c0.2-1.9,1.2-1.9,1.5-3.8c0.3-2.5-1.4-3.2-1-5.6c0.3-1.7,1.2-1.5,1.6-3.2c0.6-2.6-1.3-3.6-0.8-6.5
		c0.1-0.6,0.2-0.4,1.5-3.5c1.1-2.5,1.6-3.8,1.9-4.6c0.5-1.7,0.4-2.5,0.5-7C662.4,93.5,662.5,91.5,662.6,89z"/>
</g>
<g id="tassel_3_4mm">
	<path fill="none" stroke="#000000" stroke-width="0.5" stroke-miterlimit="10" d="M490.1,213.5c0.7-1.9,2.3-5.1,5.5-8c1.8-1.6,5.4-4.9,9.8-4.8c5.5,0.2,9.1,6,12.5,11.2c2.3,3.7,5.5,9.8,7,18.5
		c0.4,0.1,1,0.4,1.4,0.9c1.4,1.8-0.8,4.6,0.5,6.2c0.7,0.9,1.6,0.3,2.2,1.2c1.1,1.5-0.8,3.4,0.2,5.1c0.7,1.1,1.7,0.6,2.5,1.6
		c1.6,2.1-1,5.5,0.5,7c0.9,0.8,1.9-0.1,2.9,0.8c1.6,1.4-0.5,4.5,1.2,7.2c0.8,1.2,1.4,0.8,2.1,2.1c1.1,2-0.2,3.5,0.8,5.6
		c0.8,1.8,1.8,1.2,2.8,3c1.3,2.5-0.5,4.4,1,7c0.6,1.1,1.1,1.1,1.8,2c0.9,1.4,1.4,3.9-0.9,8.9c0.5,0.5,1.2,1.2,1.6,2.4
		c0.9,2.4-0.5,3.6-0.5,8c0,1.7,0,2.7,0.6,3.8c0.3,0.7,0.7,1.2,1.1,2.4c0,0.1,0.4,1.1,0.4,1.8c0.2,2.7-3.8,5-3.7,5.1s2.9-1.1,3.6-3.6
		c0.5-1.6-0.2-3-0.5-4c-1.5-5.1,2.3-12.8,6.1-13.3c3.7-0.5,7.3,5.7,8.4,7.5c2.1,3.7,3.2,7.7,3.8,15.6c0.5,6.8,0,8.7-0.1,18.1
		c-0.2,16.4,1.1,17.9-1,23.1c-2.5,6.3-5.1,6-6.8,12.5c-1.2,4.9-1.8,13,2.5,16.1c0.7,0.5,1.3,0.7,1.8,0.9c0.4,4.5,0.8,8.9,1.2,13.4
		c0.9-0.3,2-0.5,3.4-0.2c4.4,0.8,6.3,5.5,6.4,5.9c-20,0.1-40,0.2-60,0.2c0.9-5.9-0.3-9-1.8-10.8c-0.7-0.8-1.6-1.7-2.4-3.4
		c-0.9-2.1-0.8-3.8-0.8-5.9c0.1-5.6,0.1-10.2-2.4-12.3c-1.6-1.3-3-0.5-4.4-2.1c-1.7-1.9-1.2-4.7-1.1-5.8
		c1.2-11.1-12.7-30.2-13.6-31.5c-1.6-2.2-4.1-5.3-4.8-9.9c-0.2-1.6-0.9-6.1,1.5-8.2c2.7-2.3,7.7-0.1,8.3-1.7c0.3-0.7-0.8-1.2-1-3.2
		c-0.3-1.8,0.5-2.2,0.5-4.2c0-2.1-0.9-2-1.2-4.7c-0.3-2.4,0.2-4.5,0.2-4.8c0.3-1.5,0.6-1.6,0.6-2.6c0-1.9-1.1-2.3-1.1-3.8
		c0-1.8,1.5-2,1.6-3.7c0-1.9-1.7-2.2-1.8-4.2c-0.1-1.7,1.2-1.9,1.5-3.9c0.4-2.5-1.3-3.2-1.2-5.9c0.1-2,1-1.8,1.8-4.9
		c0.4-1.8,1-3.9,0-5.8c-0.7-1.4-1.4-1.1-1.8-2.4c-0.4-1-0.1-2.4,0.5-5c0.4-2,0.6-2.1,0.5-2.7c-0.3-1.7-1.6-2.2-1.5-3.5
		c0.1-0.9,0.7-1.1,1.2-2s0.8-2.5-0.2-5.2c-0.4-6.2-0.4-13,0.1-20.2C489.6,218.2,489.8,215.8,490.1,213.5z"/>
</g>
</svg>
