<?xml version="1.0" encoding="UTF-8"?>
<!DOCTYPE svg PUBLIC "-//W3C//DTD SVG 1.1//EN" "http://www.w3.org/Graphics/SVG/1.1/DTD/svg11.dtd">
<svg id="svg3202" width="1261.3" height="761.9" version="1.1" viewBox="0 0 1261.3 761.9" xmlns="http://www.w3.org/2000/svg">
 <g id="g4420" fill="none" stroke="#000000" stroke-width="1px">
  <path id="path4860" d="m1145.4 441.26c-4.6067-4.6067-11.363-1.2284-11.363-1.2284l-5.528-10.442c-0.3071-1.8427-12.899-2.4569-12.899-2.4569-3.6853 3.9925-13.206-2.4569-13.206-2.4569 3.3782-6.1422-4.9138-18.427-4.9138-18.427-2.4569-4.2996-21.191-4.6067-21.191-4.6067-7.6778 10.135-15.356 10.442-15.356 10.442-4.2996 0.92134-7.3707-5.528-7.3707-5.528-8.6158 11.488-15.466 8.1997-19.886 2.9156-3.6151-4.3219-5.6045-9.9792-5.6045-9.9792 0.6142 5.528-12.899 10.135-12.899 10.135l-8.292-4.6067-9.2134 15.356c-3.0711 4.2996 0.30711 28.561 0.30711 28.561 0.92134 6.1422-10.749 11.977-10.749 11.977-8.9062 4.9138-15.663-5.528-15.663-5.528-10.442 46.067 3.9925 44.838 3.9925 44.838l8.9062 5.528c-1.8427 10.749 6.4494 23.648 6.4494 23.648 17.505 3.3782 13.206 14.127 13.206 14.127-11.056 4.9138-7.9849 17.812-7.9849 17.812 7.9849-1.8427 13.513 5.528 13.513 5.528l0.3071 21.805c3.9925-1.2284 13.82 2.764 13.82 2.764 2.764-5.8351 7.6778-5.2209 7.6778-5.2209 7.6778 0.61422 9.8276 9.5205 9.8276 9.5205 6.4494 0.92134 15.048-7.9849 15.048-7.9849l5.2209-6.1422c3.9924 2.764 19.348-1.8427 19.348-1.8427l2.764-2.764c15.356 2.1498 23.033-3.6854 23.033-3.6854l3.6853-5.2209c7.9849 3.3782 16.277-6.7565 16.277-6.7565l5.8351-10.749c3.3782 3.0711 9.5205-7.0636 9.5205-7.0636 10.876 23.012 1.7191 45.611 1.7191 45.611s-5.6462 6.5148-0.8686 17.373c4.7775 10.858-1.303 21.282-1.303 21.282l-18.242-3.4746c-7.3835-0.86864-24.322 6.5148-24.322 6.5148l-27.797-4.7775c-13.03-0.43432-22.15 5.2119-22.15 5.2119l-9.1208-2.6059h-15.201l-20.847 0.43432c-11.292-2.6059-7.8178-26.928-7.8178-26.928-12.595-5.2119-6.0805-36.917-6.0805-36.917l-7.8178 0.86864c5.6462 13.898-17.807 29.1-17.807 29.1-2.1716 20.413 3.4746 25.625 3.4746 25.625 6.0805 16.504-16.07 9.9894-16.07 9.9894-20.847-12.595 5.2119-36.917 5.2119-36.917-6.9492-10.424 6.5148-28.665 6.5148-28.665-25.191-23.453 2.1716-37.352 2.1716-37.352-7.3835-14.333-4.7775-26.928-4.7775-26.928-24.322-17.373-3.4746-37.786-3.4746-37.786-10.858 1.7373-14.333-39.958-14.333-39.958 2.1716-10.424 16.504-9.9894 16.504-9.9894-12.595-34.311-0.43432-46.038-0.43432-46.038s13.956-0.87603 17.334 0.35242c0 0 19.348-3.9924 29.176 2.1498 0 0 21.805-5.8351 28.561-2.4569l13.513-0.30711s15.663-2.4569 23.033 0.30711c0 0 12.284-5.2209 27.947-2.764l47.628-1.6245s9.8021 11.452-6.4748 28.343l-0.9214 5.528s16.277 1.5356 17.812 11.363c0 0 2.7641 30.097-11.363 33.168z"/>
  <g id="g4719">
   <path id="path4869" d="m1139.9 391.2s-27.026-12.284-40.232-10.749l-0.9214-15.97"/>
   <path id="path4871" d="m1099.7 380.45s-5.8351 14.434-2.1498 25.797"/>
   <path id="path4873" d="m1125.5 386.29s-9.5205 35.011-9.8276 40.846"/>
   <path id="path4875" d="m1139 396.73s5.8351 17.505-10.442 32.861"/>
   <path id="path4877" d="m1076.3 401.64s4.9138-27.64-5.528-34.397"/>
   <path id="path4879" d="m1050.5 368.48s-3.0711 11.056 5.2209 17.198c8.292 6.1422-2.1498 20.884-2.1498 20.884"/>
   <path id="path4881" d="m1028.1 399.49s-4.2996-9.2134 4.2996-16.891c8.5991-7.6778 1.8427-15.356 1.8427-15.356"/>
   <path id="path4883" d="m1005.7 369.7 1.2284 35.318"/>
   <path id="path4885" d="m976.5 367.55s12.592 23.033 8.292 44.838c0 0 1.5356 9.8276 12.899 7.9849"/>
   <path id="path4887" d="m984.79 412.39s-8.9239 12.444-25.192 0.84735"/>
   <path id="path4889" d="m965.75 416.39s2.1498 33.168 5.8351 39.003"/>
   <path id="path4891" d="m957.42 463.19s7.4013 4.1787 12.315 1.7218"/>
   <path id="path4893" d="m960.9 500.97 14.676-0.74635"/>
   <path id="path4895" d="m965.68 527.9 14.505 8.872 10.749-7.3707"/>
   <path id="path4897" d="m980.18 536.77s-5.2209 10.442-4.2996 22.726l6.299 6.622"/>
   <path id="path4899" d="m975.88 559.5s-10.627 1.6792-12.377 5.7534"/>
   <path id="path4901" d="m964.37 595.22s0.7507-8.0373-7.3835-1.303"/>
   <path id="path4903" d="m996.08 602.17s6.8286-13.188 13.892-13.495"/>
   <path id="path4905" d="m1023.8 591.44 0.9213 36.239"/>
   <path id="path4907" d="m1041.3 595.74s8.661 20.705-1.351 32.925"/>
   <path id="path4909" d="m1056.4 587.75s15.923 20.1 14.872 38.304"/>
   <path id="path4911" d="m1068.6 611.4s19.348-0.92134 21.191-9.8276c0 0 7.0636 4.6067 7.0636 6.4494 0 0 10.442-0.30711 10.442-4.9138 0 0 13.513 0.30711 15.048 7.9849 0 0-4.6067-8.9062 0.6142-15.97 10.135-8.5991 6.1422-11.056 6.1422-11.056s4.2997-8.292-2.4568-22.726"/>
   <path id="path4913" d="m1129.2 584.07s6.8166 4.6163 14.618 5.0721"/>
   <path id="path4915" d="m1122.4 611.09 0.9612 13.226"/>
   <path id="path4917" d="m1096.9 608.02s10.401 10.921 2.1294 22.812"/>
   <path id="path4919" d="m1089.8 601.57s1.5356-21.498-8.9062-21.805"/>
   <path id="path4921" d="m1106.7 573.32 0.6142 29.79"/>
   <path id="path4957" d="m990 565.25 6.1526-3.9107"/>
  </g>
 </g>
 <g id="LeafDistal15">
  <path id="path3785" d="m1094.7 183.45c26.831 5.1064 49.345 10.881 66.433 17.406 0 0-26.556 0.1931-66.146 1.3196z" fill="none" stroke="#000000" stroke-width="1px"/>
 </g>
 <g id="LeafDistal14">
  <path id="path3783" d="m1095 202.18c-20.791 0.59161-45.176 1.4406-71.197 2.6544l0.8378-32.139c25.63 3.2066 49.162 6.7803 70.071 10.76z" fill="none" stroke="#000000" stroke-width="1px"/>
 </g>
 <g id="LeafDistal13">
  <path id="path3781" d="m1023.8 204.83c-22.919 1.069-47.106 2.4209-71.225 4.1289l0.66066-43.838c25.162 2.2618 49.078 4.7764 71.402 7.5695z" fill="none" stroke="#000000" stroke-width="1px"/>
 </g>
 <g id="LeafDistal12">
  <path id="path3779" d="m952.55 208.96c-23.405 1.6575-46.745 3.6503-68.797 6.0455l0.0284-55.308c23.958 1.6224 47.18 3.4248 69.429 5.4248z" fill="none" stroke="#000000" stroke-width="1px"/>
 </g>
 <g id="LeafDistal11">
  <path id="path3777" d="m883.76 215.01c-27.657 3.0039-53.287 6.6407-74.48 11.042l2.0514-70.625c24.71 1.2628 48.938 2.6822 72.458 4.275z" fill="none" stroke="#000000" stroke-width="1px"/>
 </g>
 <g id="LeafDistal10">
  <path id="path3775" d="m809.28 226.05c-16.431 3.4126-42.862 5.9975-68.688 7.9235l2.5703-81.608c23.006 0.89935 45.785 1.9148 68.169 3.0587z" fill="none" stroke="#000000" stroke-width="1px"/>
 </g>
 <g id="LeafDistal9">
  <path id="path3773" d="m740.59 233.97c-22.07 1.6459-46.837 2.8105-73.05 3.5991l2.492-87.673c24.497 0.70353 48.938 1.5209 73.128 2.4665z" fill="none" stroke="#000000" stroke-width="1px"/>
 </g>
 <g id="LeafDistal8">
  <path id="path3771" d="m667.54 237.57c-22.345 0.67225-45.741 1.0712-69.41 1.2622l1.2672-90.662c23.48 0.47887 47.083 1.0501 70.635 1.7265z" fill="none" stroke="#000000" stroke-width="1px"/>
 </g>
 <g id="LeafDistal7">
  <path id="path3769" d="m598.13 238.83c-23.943 0.19311-48.166 0.17332-71.867 8e-3l1.2499-91.869c23.705 0.31124 47.73 0.70616 71.885 1.1988z" fill="none" stroke="#000000" stroke-width="1px"/>
 </g>
 <g id="LeafDistal6">
  <path id="path3767" d="m526.26 238.84c-23.722-0.1654-46.92-0.47651-68.791-0.86572l-1.2277-91.709c23.291 0.15821 47.114 0.38847 71.268 0.7056z" fill="none" stroke="#000000" stroke-width="1px"/>
 </g>
 <g id="LeafDistal5">
  <path id="path3765" d="m457.47 237.97c-25.586-0.45532-49.354-1.0175-70.015-1.5783l0.61543-90.404c22.057 0.0288 44.848 0.11502 68.172 0.27346z" fill="none" stroke="#000000" stroke-width="1px"/>
 </g>
 <g id="LeafDistal4">
  <path id="path3763" d="m387.46 236.4c-46.758-1.2691-77.605-2.5311-77.605-2.5311l3.281-87.759c23.728-0.10198 48.819-0.14826 74.94-0.11411z" fill="none" stroke="#000000" stroke-width="1px"/>
 </g>
 <g id="LeafDistal3">
  <path id="path3761" d="m309.85 233.87s-28.799-3.6922-64.995-8.3433l0.0866-78.954c21.064-0.19444 43.913-0.35708 68.189-0.46142z" fill="none" stroke="#000000" stroke-width="1px"/>
 </g>
 <g id="LeafDistal2">
  <path id="path3759" d="m244.86 225.52c-22.358-2.873-47.538-6.1119-70.496-9.0725l1.7849-69.071c19.806-0.28532 42.958-0.5717 68.798-0.81022z" fill="none" stroke="#000000" stroke-width="1px"/>
 </g>
 <g id="LeafDistal1">
  <path id="path3755" d="m174.36 216.45c-38.616-4.9798-70.946-9.1724-72.984-9.5121l-0.86864-58.199s28.231-0.67687 75.638-1.3598z" fill="none" stroke="#000000" stroke-width="1px"/>
 </g>
 <g id="TipBS" stroke="#000000" stroke-width="1px">
  <path id="path3849" d="m1049.9 436.69s-50.381-2.1716-41.261 44.301c0 0-32.14 26.494 6.9492 45.169 0 0 6.5148 46.472 49.078 26.494 0 0 37.352 16.504 48.644-23.888 0 0 41.695 0.86865 20.847-36.049 0 0 13.464-33.877-30.402-46.472 0 0-19.544-32.574-53.856-9.5551zm6.5148 23.019-20.413 5.6462s-5.6462 15.636-11.727 18.676c0 0 0.8686 11.727-2.1716 16.939 0 0 7.8178 12.161 5.6462 16.504s0 1.7373 0 1.7373 10.858 1.7373 12.595 8.6864 6.9492 9.1208 6.9492 9.1208 13.03-3.4746 16.07 0.43433c0 0 9.1208-14.767 13.898-14.767 4.7776 0 11.292 0.43432 11.292 0.43432s3.9089-6.5148 9.9894-6.5148c0 0 0.8687-13.464 7.3835-22.15 0 0-7.8178-9.9894-6.9492-17.373 0 0-9.1207-3.4746-11.727-13.464 0 0-14.05 2.5159-18.964-3.3192 0 0-5.6257-3.3291-11.873-0.58967z" fill="#0000ff" fill-rule="evenodd"/>
  <g id="g4661" fill="none">
   <path id="path3817" d="m1049.9 436.69s12.455 13.83 6.5148 23.019"/>
   <path id="path3820" d="m1024.3 484.03s-11.712 4.1389-15.636-3.0403"/>
   <path id="path3822" d="m1027.8 519.21s-6.8158 9.2386-12.161 6.9492"/>
   <path id="path3824" d="m1063.4 537.46s7.2029 11.123 1.303 15.201"/>
   <path id="path3826" d="m1098.6 516.61s11.574 6.0003 14.767 12.161"/>
   <path id="path3828" d="m1106 494.46s21.93 7.0339 28.231-1.7373"/>
   <path id="path3830" d="m1087.3 463.62s6.213-11.771 16.504-17.373"/>
  </g>
 </g>
 <text id="text3855" x="138.69455" y="121.5625" fill="#000000" font-family="Arial" font-size="30px" letter-spacing="0px" text-align="center" text-anchor="middle" word-spacing="0px" style="line-height:1.25" xml:space="preserve"><tspan id="tspan3853" x="138.69455" y="121.5625">1</tspan></text>
 <text id="text3859" x="209.94455" y="121.5625" fill="#000000" font-family="Arial" font-size="30px" letter-spacing="0px" text-align="center" text-anchor="middle" word-spacing="0px" style="line-height:1.25" xml:space="preserve"><tspan id="tspan3857" x="209.94455" y="121.5625">2</tspan></text>
 <text id="text3863" x="277.50919" y="121.5625" fill="#000000" font-family="Arial" font-size="30px" letter-spacing="0px" text-align="center" text-anchor="middle" word-spacing="0px" style="line-height:1.25" xml:space="preserve"><tspan id="tspan3861" x="277.50919" y="121.5625">3</tspan></text>
 <text id="text3867" x="348.75919" y="121.5625" fill="#000000" font-family="Arial" font-size="30px" letter-spacing="0px" text-align="center" text-anchor="middle" word-spacing="0px" style="line-height:1.25" xml:space="preserve"><tspan id="tspan3865" x="348.75919" y="121.5625">4</tspan></text>
 <text id="text3887" x="421.54477" y="121.5625" fill="#000000" font-family="Arial" font-size="30px" letter-spacing="0px" text-align="center" text-anchor="middle" word-spacing="0px" style="line-height:1.25" xml:space="preserve"><tspan id="tspan3885" x="421.54477" y="121.5625">5</tspan></text>
 <text id="text3891" x="492.79477" y="121.5625" fill="#000000" font-family="Arial" font-size="30px" letter-spacing="0px" text-align="center" text-anchor="middle" word-spacing="0px" style="line-height:1.25" xml:space="preserve"><tspan id="tspan3889" x="492.79477" y="121.5625">6</tspan></text>
 <text id="text3895" x="560.35938" y="121.5625" fill="#000000" font-family="Arial" font-size="30px" letter-spacing="0px" text-align="center" text-anchor="middle" word-spacing="0px" style="line-height:1.25" xml:space="preserve"><tspan id="tspan3893" x="560.35938" y="121.5625">7</tspan></text>
 <text id="text3899" x="631.60938" y="121.5625" fill="#000000" font-family="Arial" font-size="30px" letter-spacing="0px" text-align="center" text-anchor="middle" word-spacing="0px" style="line-height:1.25" xml:space="preserve"><tspan id="tspan3897" x="631.60938" y="121.5625">8</tspan></text>
 <text id="text3975" x="701.93805" y="121.5625" fill="#000000" font-family="Arial" font-size="30px" letter-spacing="0px" text-align="center" text-anchor="middle" word-spacing="0px" style="line-height:1.25" xml:space="preserve"><tspan id="tspan3973" x="701.93805" y="121.5625">9</tspan></text>
 <text id="text3979" x="769.50269" y="121.5625" fill="#000000" font-family="Arial" font-size="30px" letter-spacing="0px" text-align="center" text-anchor="middle" word-spacing="0px" style="line-height:1.25" xml:space="preserve"><tspan id="tspan3977" x="769.50269" y="121.5625">10</tspan></text>
 <text id="text3983" x="840.75269" y="121.5625" fill="#000000" font-family="Arial" font-size="30px" letter-spacing="0px" text-align="center" text-anchor="middle" word-spacing="0px" style="line-height:1.25" xml:space="preserve"><tspan id="tspan3981" x="840.75269" y="121.5625">11</tspan></text>
 <text id="text3999" x="913.53827" y="121.5625" fill="#000000" font-family="Arial" font-size="30px" letter-spacing="0px" text-align="center" text-anchor="middle" word-spacing="0px" style="line-height:1.25" xml:space="preserve"><tspan id="tspan3997" x="913.53827" y="121.5625">12</tspan></text>
 <text id="text4003" x="984.78827" y="121.5625" fill="#000000" font-family="Arial" font-size="30px" letter-spacing="0px" text-align="center" text-anchor="middle" word-spacing="0px" style="line-height:1.25" xml:space="preserve"><tspan id="tspan4001" x="984.78827" y="121.5625">13</tspan></text>
 <text id="text4007" x="1052.3529" y="121.5625" fill="#000000" font-family="Arial" font-size="30px" letter-spacing="0px" text-align="center" text-anchor="middle" word-spacing="0px" style="line-height:1.25" xml:space="preserve"><tspan id="tspan4005" x="1052.3529" y="121.5625">14</tspan></text>
 <text id="text4011" x="1123.6029" y="121.5625" fill="#000000" font-family="Arial" font-size="30px" letter-spacing="0px" text-align="center" text-anchor="middle" word-spacing="0px" style="line-height:1.25" xml:space="preserve"><tspan id="tspan4009" x="1123.6029" y="121.5625">15</tspan></text>
 <g id="g4448" fill="none" stroke="#000000" stroke-width="1px">
  <g id="g4735">
   <path id="path4828" d="m995.65 647.34c19.544 21.716 55.159 5.6462 55.159 5.6462 15.201 14.333 49.078-2.1716 49.078-2.1716 14.767 6.9492 38.655 2.6059 38.655 2.6059 17.373-11.292 8.2521-24.756 8.2521-24.756-25.191-9.1208-47.776 2.1716-47.776 2.1716s-34.311-10.424-49.947 0.43433c0 0-26.928-5.2119-49.078 0.43432 0 0-7.3835-1.303-11.727 3.9089 0 0-3.4746 11.292 7.3835 11.727z"/>
   <path id="path4832" d="m1099 630.84s3.4746 7.3835 0.8687 19.979"/>
   <path id="path4834" d="m1049.1 631.27s5.2119 14.333 1.7373 21.716"/>
   <path id="path4836" d="m995.65 647.34s0-9.1208 4.3432-15.636"/>
  </g>
  <g id="g4725">
   <path id="path4830" d="m966.55 633.44c-11.292-3.0403-33.877 1.7373-33.877 1.7373-6.9492 11.727-3.0403 19.544-3.0403 19.544 25.625 14.767 37.786 0.43433 37.786 0.43433l0.43432-9.5551s10.858 1.7373 10.424-7.3835c0 0 2.1716-6.5148-11.727-4.7775z"/>
   <path id="path4838" d="m966.55 633.44s3.9089 8.2521 1.303 12.161"/>
  </g>
 </g>
 <g id="g4480" fill="none" stroke="#000000" stroke-width="1px">
  <path id="path4923" d="m1023.5 498.08s20.884-1.5356 20.884 10.749c0 0 7.9849 17.505-1.2284 23.341"/>
  <path id="path4925" d="m1041.6 502.38s13.82-0.92134 7.3707-13.206c0 0-11.056-5.2209-5.8351-24.876"/>
  <path id="path4927" d="m1045 486.71s12.284-0.30711 15.356-11.977 7.9849-14.434 7.9849-14.434"/>
  <path id="path4929" d="m1077.5 464.91 1.2284 5.2209s-3.9925 3.9925 1.8427 9.2134l0.3071 7.0636 19.348 0.61422"/>
  <path id="path4931" d="m1092.9 516.5c0.6142-8.9062-6.4494-17.505-6.4494-17.505-11.67-2.764-5.528-12.592-5.528-12.592s-6.7565 0.61422-10.135 3.9925c0 0-9.5205-2.4569-10.442 7.0636 0 0 1.5356 10.135-2.764 15.356l3.9925 3.9924-0.9214 4.6067-13.206 3.0711s6.7565 3.0711 6.7565 5.528l8.9062-2.1498 0.9214-5.528-3.9924-0.61423"/>
  <path id="path4937" d="m1064 522.34s6.7565 2.1498 6.4494 3.3782"/>
  <path id="path4939" d="m1063.1 527.87s3.0517 6.8942 0.2974 9.5893"/>
  <path id="path4941" d="m1054.2 530.02s-3.905 5.7184-6.8663 7.0052"/>
  <path id="path4943" d="m1079.1 522.34-2.4569-7.3707s7.0636-7.3707 3.6853-8.292c0 0 0-5.8351-7.3707-0.30711l-0.9214 4.9138s-6.4494 9.5205-10.442 5.528"/>
  <path id="path4945" d="m1072 511.28 4.6067 3.6853"/>
  <path id="path4947" d="m1060.3 497.46 10.135 5.8351 2.4569 3.0711"/>
  <path id="path4949" d="m1070.5 503.3 7.0636-7.9849-6.7565-4.9138"/>
  <path id="path4951" d="m1077.5 495.31 8.9062 3.6853"/>
  <path id="path4953" d="m1057.6 512.82-11.67 1.5356"/>
  <path id="path4955" d="m1060.3 497.46s-5.8351 5.2209-8.5991-1.5356"/>
 </g>
 <g id="TipME" stroke="#000000" stroke-width="1px">
  <path id="path4866" d="m1028.1 399.49s1.9894 5.6572 5.6045 9.9792c4.4199 5.2841 11.27 8.5721 19.886-2.9156 0 0 3.0711 6.4494 7.3707 5.528 0 0 7.6778-0.30711 15.356-10.442 0 0 18.734 0.30711 21.191 4.6067 0 0 8.292 12.284 4.9138 18.427 0 0 9.5205 6.4494 13.206 2.4569 0 0 12.592 0.61423 12.899 2.4569l5.528 10.442s6.7565-3.3782 11.363 1.2284c0 0 23.033 22.726 3.0711 31.633 0 0 12.592 34.089 2.1498 42.996 0 0 9.8276 10.442-8.5991 27.64 0 0-6.1423 10.135-9.5205 7.0636l-5.8351 10.749s-8.2921 10.135-16.277 6.7565l-3.6853 5.2209s-7.6778 5.8351-23.033 3.6854l-2.764 2.764s-15.356 4.6067-19.348 1.8427l-5.2209 6.1422s-8.5991 8.9062-15.048 7.9849c0 0-2.1498-8.9062-9.8276-9.5205 0 0-4.9138-0.61423-7.6778 5.2209 0 0-9.8276-3.9925-13.82-2.764l-0.3071-21.805s-5.528-7.3707-13.513-5.528c0 0-3.0711-12.899 7.9849-17.812 0 0 4.2996-10.749-13.206-14.127 0 0-8.292-12.899-6.4494-23.648l-8.9062-5.528s-14.434 1.2284-3.9925-44.838c0 0 6.7565 10.442 15.663 5.528 0 0 11.67-5.8351 10.749-11.977 0 0-3.3782-24.262-0.30711-28.561l9.2134-15.356 8.292 4.6067s13.513-4.6067 12.899-10.135zm21.844 37.199s-50.381-2.1716-41.261 44.301c0 0-32.14 26.494 6.9492 45.169 0 0 6.5148 46.472 49.078 26.494 0 0 37.352 16.504 48.644-23.888 0 0 41.695 0.86865 20.847-36.049 0 0 13.464-33.877-30.402-46.472 0 0-19.544-32.574-53.856-9.5551z" fill="#008080"/>
  <g id="g4644" fill="none">
   <path id="path4029" d="m1015.2 409.63s6.512 19.898 6.0776 32.928"/>
   <path id="path4031" d="m998.03 448.64 14.333 2.3888"/>
   <path id="path4033" d="m987.83 461.67 13.464 28.014"/>
   <path id="path4035" d="m984.48 505.75s5.952-4.3473 11.598 1.516"/>
   <path id="path4037" d="m1004.1 543.53s11.705-8.4622 14.093-7.3764"/>
   <path id="path4039" d="m1009.7 566.87s13.777-7.0463 15.515-18.339"/>
   <path id="path4041" d="m1031.5 585.67 11.51-27.145"/>
   <path id="path4043" d="m1057.8 555.7s7.1922 7.0924 3.8132 25.914"/>
   <path id="path4045" d="m1083.7 577 3.3914-21.09"/>
   <path id="path4047" d="m1107.3 545.06s5.6112 7.8631 3.1313 23.042"/>
   <path id="path4049" d="m1130.7 525.73s5.5345 5.2093 1.79 24.864"/>
   <path id="path4051" d="m1141 515.31s6.8108 5.2935 9.7031 0.58374"/>
   <path id="path4053" d="m1148.5 472.89s-7.119-1.0202-11.896 2.2372"/>
   <path id="path4055" d="m1134.1 440.03s0.3662 10.342-14.618 11.862"/>
   <path id="path4057" d="m1089.7 433s10.054-1.0134 12.736-8.3245"/>
   <path id="path4059" d="m1061 412.09s-0.8103 13.967 0.4927 18.527"/>
   <path id="path4061" d="m1033.9 409.33s6.2977 15.853-0.2172 29.1"/>
  </g>
 </g>
 <path id="path4959" d="m953.16 337.15 70.624-132.32" fill="none" stroke="#000000" stroke-width="1px"/>
 <path id="path4961" d="m1095 202.18 57.459 131.15" fill="none" stroke="#000000" stroke-width="1px"/>
 <g id="g4430" fill="none" stroke="#000000" stroke-width="1px">
  <path id="path4814" d="m951.34 367.2s-7.3835-9.9894-3.0402-24.756c0 0 31.271-4.3432 43.867 1.303 0 0 35.18-9.1208 52.119 0 0 0 11.292-5.6462 19.11-5.6462 0 0 27.362-8.6864 39.958 1.7373 0 0 30.837-5.2119 45.17-2.1716 0 0 15.636 9.1208-2.1717 25.191l-39.958 1.7373-62.108 1.7373-49.078-1.303z"/>
  <path id="path4816" d="m992.17 343.75s7.8178 9.1208 3.0402 21.282"/>
  <path id="path4818" d="m1044.3 343.75 0.4343 21.716"/>
  <path id="path4820" d="m1103.4 339.84s0 18.242 3.4745 23.453"/>
 </g>
</svg>
