<?xml version="1.0" encoding="UTF-8" standalone="no"?>
<svg xmlns="http://www.w3.org/2000/svg" height="800" width="1066.7" version="1.1" viewBox="0 0 1066.6667 800">
 <g stroke="#000" stroke-width="1px" fill="none">
  <g id="Lines" transform="translate(214.9 -11.738)">
   <path d="m80.8 202.4-18.4-0.4-2.8 0.8-3.6 3.6-2 1.6-3.6 1.2-2.8 2.4-1.2 4v3.6l-3.2 4-3.2 0.4-4 3.6-1.6 3.6-0.4 9.6 4 0.4h-3.6l2 7.2 3.6 7.2 6.8 8.4 10 6 6.8 0.4 7.2 3.2 4.4-0.4 10 0.4 3.6-9.2 3.6-4 10-6.8-0.8-5.6 3.2-5.2 1.2-14.8-2-4-2.4-7.6-1.2-5.2-4-4.4z"/>
   <path d="m70 228.4-0.4-14-1.6-6-5.6-6.4 5.6 8-8.8-0.4-6.8 3.2-10.4 15.6-2 6.8 2.4 4 4.8 1.6 5.6-0.8 7.2-2.4 6.4 0.8 2.4 4-9.2 2-8 4.4-6 6.4 5.6 7.2 10.8 2.8h17.6l8.4-6-11.2-7.6-6-8 7.2-2.8 11.2 10 7.2 0.4 4.4-10-2-13.6-9.6-16-0.8-2-6-0.4-4.4-1.6-3.6 8-1.2 13.6z"/>
   <path d="m80.8 202.4-2.8 5.2z"/>
   <path d="m55.2 236 2-10 4-5.2 3.6-0.4 5.2 8 3.2 0.8 0.4-6 3.2-2.4 5.6 0.8 2 4.8 3.2 3.6 2 6-1.2 7.6-10.4-2.8-7.2 2.8 6 8-8 4.8-2-0.8-4.8-0.8-2.8-0.8-1.2-1.2 1.6-8.4 9.2-2-2.4-4z"/>
   <path d="m104.8 242.4h15.2v-13.2l-16.4 2z"/>
   <path d="m667.6 127.2"/>
   <path d="m119.6 236.4h55.2z" />
   <path d="m58.547 196.15-8.547 3.85l-18.376 21.368-4.2735 5.9829-1.2821 16.667 4.7009 11.966 11.111 14.53 10.684 6.4103 14.53 4.2735 6.8376 0.8547 16.667-5.1282 13.675-13.248 11.111-19.231 0.42735-14.53-2.9915-11.966-5.9829-11.538-7.6923-5.5556-10.684-3.8462-5.9829-2.5641z"/>
  </g>
  <g id="epidermis" transform="translate(214.9 -11.738)">
   <path d="m267.81 164.38-1.9313-1.073-0.21459-1.5021 0.42918-0.85837 4.9356 0.42918 0.2146 1.9313z"/>
   <path d="m275.32 159.66 4.9356 0.42919 2.3605 1.2876 2.5751 1.073-1.5021 1.7167-3.8627 0.21459-3.4335-0.42918-2.5751-1.9313z"/>
   <path d="m262.66 164.59 6.2232 4.2918 3.8627-0.21459 4.2918-0.21459 1.2876-2.3605-4.9356-1.5022h-10.73"/>
   <path d="m270.6 171.46 1.5021 2.1459 15.451 0.21459 0.21459-2.1459-3.0043-1.9313-1.5022-1.5022h-3.8627l-4.9356 1.9313-2.1459-0.21459z"/>
   <path d="m292.71 168.24h-7.2948l-2.2796-1.5198-1.5198-1.0638 2.08-1.4904 5.9747 0.42658 3.3435 2.4316z"/>
   <path d="m285.56 158.81-0.24832 0.92676 6.0234-0.16688s3.3435-0.91186 1.5198 0.45593l-1.8237 1.3678-2.5836 0.45592-3.3095-0.88677 0.26995-1.5448"/>
   <path d="m293.16 165.05c4.8632 0.60791 4.8632 0.60791 4.8632 0.60791l-0.15198-1.2158-1.9757-2.1277-7.4468-0.45593-1.9757 1.6717z"/>
   <path d="m296.66 153.19-0.30395 2.5836 0.91186 0.75987h1.8237l0.6079-0.91185v-1.3678l-1.3678-2.2796z"/>
   <path d="m297.57 160.33h4.2553l0.91185 0.91185-0.15197 1.0638-1.5198 0.91185-3.3435-0.30395z"/>
   <path d="m298.18 170.67 4.1034 1.9757 2.1276 1.5198 7.1429-0.15197 1.8237 3.4954 6.8389 0.75988 1.8237-1.6717 1.8237-3.0395-1.8237-1.3678-1.9757-2.1277-1.6717-1.2158-3.0395-0.91185-4.7112-0.30395h-6.6869l-4.7112 0.15198-2.2796 0.91185z"/>
   <path d="m315.65 166.11-8.5106 0.30395-1.2158-1.3678-1.9757-0.45592-3.3435 0.6079 3.9514-1.9757h2.7356l4.8632 1.2158 3.3435 0.45593 0.6079 1.3678"/>
   <path d="m303.19 153.8-0.15198 1.9757 3.7994 0.30395 2.1277-0.60791-1.8237-0.91185-1.6717-1.0638z"/>
   <path d="m308.97 155.47-0.15198 3.7994 0.91185 1.2158 0.91186 0.75988 0.91185 1.2158 2.5836 0.91185h3.4954l3.7994-0.30395 1.6717-1.8237 0.15198-3.0395-1.0638-1.5198-1.3678-1.0638-1.9757-0.30395-1.2158 0.15197-0.75988 2.2796-0.91185 1.2158-1.6717 0.45592-0.75987 0.15198-0.30396-0.91186 1.8237-1.0638-0.15197-1.3678z"/>
   <path d="m322.19 152.74v2.5836l1.8997 1.8997 1.3966-0.80632v-3.373l-1.0915-0.63019z"/>
   <path d="m329.33 153.65-0.74425 1.2891v1.2945l1.8919 1.8919 1.7775-1.0262 1.0541-1.8257-0.93793-1.6246z"/>
   <path d="m323.1 169.3 2.2796 3.4954 9.8784-0.6079 0.91185-1.2158 2.1277-1.2158-3.0395-1.2158z"/>
   <path d="m322.64 166.41 10.334 0.60791 0.75988-1.2158-1.0638-0.75988-9.2705-0.30395-1.9757 0.75988z"/>
   <path d="m324.32 163.07 3.3435 0.91185 15.35 0.30395 0.6079-2.4316-4.2553 0.30395-2.1277-0.6079-1.9757-0.91185-9.5745-0.30395z"/>
   <path d="m334.8 157.9 8.3587-0.15198 0.30396 0.6079 0.15197 1.3678-0.54482 2.0333-3.9119-1.0482-3.9628-1.0618-0.85077-0.22797z"/>
   <path d="m347.11 161.55 2.7356 0.45593 2.2796 0.91185-0.91185 1.3678-1.3678 0.60791-2.2796 0.75988-2.5836-0.60791-1.9757-0.75988z"/>
   <path d="m183.48 154.29 0.2146-4.721 2.1459-0.85837 2.5751-2.1459 4.2918 0.2146 0.42919 2.1459 1.7167 1.9313 2.1459 1.073 1.7167 1.9313-0.42919 1.9313-3.4335 0.42919-2.3605-2.3605v-1.5021l-1.9313-0.2146-2.1459-1.5021-1.2876 0.21459s-3.8627-0.21459-1.073 1.7167l2.7897 1.9313-0.42918 2.1459z"/>
   <path d="m198.93 150.86 14.378-0.42919 1.073 1.9313s3.2189 0 1.9313 0.64377c-1.2876 0.64378-1.5021 0.64378-1.5021 0.64378l-7.5107 0.21459-0.64378 1.7167 2.5751 1.2876 1.2876-0.64377 1.9313 1.9313-0.42918 1.2876-9.6566-0.85837-0.85837-1.073 0.21459-1.7167-0.72618-2.7101h-1.2052l-1.4398-0.83129z"/>
   <path d="m217.38 154.51h6.6524l1.9313 1.2876 0.85836 1.073-1.073 0.42919-5.1502 0.21459-1.2876-1.5022h-1.9313l-1.073-0.42918z"/>
   <path d="m223.61 149.36 4.2918 0.2146 0.85836 0.64377 1.2876 1.5022-1.5022 0.42918-3.2189 0.42919-1.5022-0.64378-1.5021-1.5022z"/>
   <path d="m235.84 150.43h4.2918l0.85836 1.073-0.21459 0.85837-0.42918 0.85836h-4.5064l-1.5022-1.073v-0.85837z"/>
   <path d="m213.95 148.28 2.7897-0.21459s1.5021-1.073 2.5751 0l1.073 1.073-0.64378 2.3605-3.2189-0.64378z"/>
   <path d="m186.48 159.87c3.2189-1.073 3.2189-1.2876 3.2189-1.2876l2.7897-0.21459 2.7897 0.42918 2.3605 1.2876 0.2146 1.073-3.2189 0.85837-1.2876-0.42919-1.5022 0.64378-4.2918 0.42918z"/>
   <path d="m202.36 161.16 5.5794-0.42919 3.4335 1.073 0.85837 1.2876-0.64378 1.7167-2.5751 0.64377-1.7167-2.7897-4.2918 0.42919z"/>
   <path d="m214.16 160.09 4.0772 0.21459 1.9313 1.2876 2.5751-0.42918 0.64378 1.2876-2.1459 1.5022-4.2918-0.42919-1.9313-0.85837z"/>
   <path d="m223.61 158.58h5.3648l1.1974 2.074-1.3857 1.3857h-2.3868l-1.662-0.44533-0.89085-0.89084z"/>
   <path d="m230.69 156.01s2.6-1.5088 3.0043 0l0.45793 1.709h-1.1017l-2.5616-0.68639z"/>
   <path d="m232.62 160.94 0.85836 1.7167 1.5022 0.64378 2.3605 0.85837-1.7167 1.5022h-5.3648l-1.5022-1.5022h-2.1459l-0.96566-0.96567h3.3262l2.3069-2.3069z"/>
   <path d="m239.27 155.15 3.6481-0.85836 1.2876 2.3605-1.2876 0.85837 3.6481-0.21459 0.2146 1.9313-1.2876 0.85837-2.1459-0.85837-5.1502-0.85837-0.42918 1.5021 4.0772 0.64378 0.64378 1.2876 0.21459 0.64377-5.3648-1.073-2.3605-1.2876 1.073-1.2876v-3.4335z"/>
   <path d="m258.8 169.1h-12.446l-4.721-1.073-3.4335-1.5021 1.2876-1.9313 7.2961-1.5021 4.721-0.21459 4.5064 1.7167 4.721 2.3605 0.64378 1.5022z"/>
   <path d="m246.78 154.29 2.5751-1.7167 2.1459 0.42918 1.9313 4.0773v2.1459l-3.2189-0.42919-1.7167-2.7897z"/>
   <path d="m256.65 153-0.21459-1.2876 3.4335-0.42919 2.1459 1.073 0.85837 1.7167z"/>
   <path d="m249.57 161.37 7.5107 1.073 3.4335 2.3605 2.1459-0.2146 0.85837-4.5064 8.7983-0.42919v-1.9313l-5.1502-1.9313-4.0772 0.64378-3.8627 1.073-0.64378 1.9313-2.7897 0.21459-3.0713 0.82295z"/>
   <path d="m273.82 151.07 2.5751 0.85837 0.42918 3.6481h-5.5794l-0.64378-1.5022v-1.2876z"/>
   <path d="m342.2 168.6 5.2 0.6 0.16839-3.5465 11.43 0.55 3 2.2s2 0.4 1 1.8-1.2 1.4-1.2 1.4l-3.6-1.2-2-0.4-2.2-0.4-1.6 0.2-1.8 0.2 2 1 1.6 0.8 1.8 0.4 0.6 1-2.2 0.4-0.6 0.4-1.8 0.8-0.4-0.8-3.8-0.8-2.2-1.6h-3z"/>
   <path d="m362.4 159.2 1.6-1.8h1l2 0.4-0.2 1.2-0.8 1-2 0.6z"/>
   <path d="m369.4 156.2 1.2 0.2 1.2 0.4s1-1 0.8 0.4l-0.2 1.4-1.4 0.6h-1.4l-0.6-1z"/>
   <path d="m361 173.8v2.4l3.2 0.2 0.4-1.2 2.4-1h1.2l0.6-1.2-2.4-1.2-4.6-0.2z"/>
   <path d="m379.2 155.8h3.4s0.4-0.2 0.4 0.8v1l-1.4 1.6-0.8 0.6-1.8-0.8-0.4-1.2z"/>
   <path d="m373.2 165.6 2-1.2 1.8 1 0.2 1-1.2 0.6h-1.2z"/>
   <path d="m383.8 164.6v6.4h-4l-1.2-1.2v-0.8l0.4-0.8 1.4-0.6 0.4-1.8 0.4-0.6z"/>
   <path d="m360.4 163h7.2l2.4 2.2-0.8 1.6-1.4 0.4-3.8 0.2z"/>
  </g>
  <g id="collenchyma" transform="translate(214.9 -11.738)">
   <path d="m183.6 176.6c0-8.6-0.2-8.6-0.2-8.6l5.2 0.2 2.6 2.2 0.8 2 0.2 1.8-0.6 2.2-3.8 2z"/>
   <path d="m195 170.6 3.8-1.4h3.6l2.6-0.8 3.8 0.2 3 1.2 4.2 2.4 5.6 0.6s1 1 0 1.8-1.2 1-1.2 1l-4.6 0.8-2.2-0.2-3.6 2.2-9 0.2-5.6-3-0.6-2z"/>
   <path d="m214.6 165.6h12.4l3.8954 1.0438 4.6419 1.2438v3.11l-1.94 0.4h-5.6l-5.6-1.4-3.8-0.8-3.8 0.2z"/>
   <path d="m238.2 172.8 2.4-2.2 8.6 0.8 5.8 1 3.4 1 0.6 1.6-6.4 1.8-7-1.6z"/>
   <path d="m225.8 174 6.8-0.4 4.8 2-1.6 1.2-1.6 0.2-1.8 1.2-2.8 0.4-1.6-1.8-2.2-0.2-1.8-1.2z"/>
   <path d="m234.6 179 5.8-1.4 5.8-0.2 1.6 0.8 2 1.4v1.4l-5.6 1-3.6-0.8-4.8-0.2z"/>
   <path d="m183 185.2 0.4-5.4h2.8l6.8 1.6 4.6 1 1.6 1.2v1l-0.4 1.4z"/>
   <path d="m183.8 188.4v9.4l6.4-0.2 4.2-0.2 6-0.6 3.6-4.4 4.2-0.4 0.6-0.6-1.2-0.8-5-0.4-4.2-0.8-0.4-1.4z"/>
   <path d="m203.4 184 4.2-3 6.4-0.8 5.8-0.6h5.6l6.8 2 0.2 1.6-0.8 2.4-3.8 1.4-3.4 1-11.6 0.4-5.6 0.2-2.4-2z"/>
   <path d="m213.6 195h10.2v-0.6l-0.6-1-3.2-0.6-1.4-1.2 3.2-0.2 1.8-0.2 2.6 1s5 5.2 4.6 5.2h-0.4l15.6-0.2 3 1.6 16.2 0.2 1.2 0.8 0.6 1.2v1.6l-2.8 0.4h-1.8l-5.8 1-4.4 0.4-1.2 0.4-7 0.2h-4.8l-11.8 0.8-7.2-7-3-0.2h-2.4l-1.6-0.8h-5.4l-0.2-1.6 0.6-1 1.4-0.4 0.4-1.2 1.6-0.4s2-1.6 2 1.8z"/>
   <path d="m227.6 189.6 1.8-1h3.4l3.4-4.2 16-0.8 0.4 2.4 4.2 0.4 3.6 1.4 5.6 2.2-0.4 5.2-1.8 0.2-19.8 0.2-1.8-1.6-8 0.2z"/>
   <path d="m255.4 177 9 0.4 3 1 5 2.2 1.8 2.4 0.2 1.4-3.6 2.8-3.6 0.6-4.8-0.4-5.6-3.2-4.6-0.6-2.4-2.6z"/>
   <path d="m269.2 176.2 3.2856-0.88038 3.3222-0.8902 6.37 1.7068 2.82 2.26 0.4 2-2.8 1.2-5.8 0.4-2.4-3.2z"/>
   <path d="m276.4 184.2h22.4l6.2 2.2 2.8 3.4 1 4.6-1.2 0.8-4.6 1.6-8.8 5.6-7.6 0.8-6.4-1.4-9.4-1.8-3.2-4-0.4-8.2z"/>
   <path d="m286 175.2 7-2 5.6-0.2 7.6 3 2.8 3.2v2.4l-1.8 0.8-4.2-0.2-6.4 0.2-1.4-1.2-5.6-0.2-2.8-5"/>
   <path d="m300.6 204.6v-3.2l7.2-3.4 4.4-0.6 4 2.4 2.4 2.2-1 2.2-4 1.6-6 0.2z"/>
   <path d="m311.4 185.2 4.8-1.2 5-1 8-0.4 3.8 1.4 4.2 0.6 3.8 2.8v1.8l-1.2 3-7.6 2.4-5.6 0.8-7.6 1-4.8-1.4-4.6-6.6z"/>
   <path d="m326.4 177.2h8.4l2.2-1.4 0.2-1-1.3-1.3h6.7l3 2.9v1.8l-1.6 1.8-4 2.6-5.2-1.4h-7.6l-2.2-1.6-0.8-1.6z"/>
   <path d="m322.2 205.2 3.2-2.8v-3.2l0.8-0.6 4.8 0.2 1.6-1.4h3.6l0.8 2.2 5.2-0.4 1 2 0.6 2.2-0.4 1.6-1.2 1.8-1.6 1.2-2.8 0.8-5.4-0.2-2.6-1-3.2 0.2h-2z"/>
   <path d="m349.6 179.8 1-1.4 0.4-1.6 5-1s0.8-1.4 1 0.8 0 2.2 0 2.2l-1 1.4z"/>
   <path d="m342 184.6 1.4-2.2 4.8-0.4 5.6 0.4 3.8 1 1.4 2.6h4l-1.8 2.4-2.2 0.8-3.2 1-6.4 0.4-2.8-1.6-3-2.2z"/>
   <path d="m339.6 195 2.2-0.8 3-1 1.2 0.4-0.2 2.4 2.8 1.6h5.4v1.6l-1.4 1h-3.4l-3.2-1.2-1.6-1.2-3.4222-0.91699z"/>
   <path d="m360.4 178.6 10.6-0.8 0.8 1.2 1.6 1 2 0.8 0.2 0.8-1.8 1-8-0.2-0.8-1.2-2.2-0.2h-2.6l-0.6-1.2z"/>
   <path d="m384.2 179.8-0.2-6.2-5.4-0.4-1.4 0.8-0.6 1.4v2.4l1.4 1 3.4 1.4z"/>
   <path d="m384.4 188-0.2-4.8-4.6-0.2-6 1.8-3.4 1h-3l-0.8 2.2z"/>
   <path d="m384.6 196.8-0.4-4.4-21.4-0.4-5 2.2 1.6 2 3.8 2.8 5.2 0.8 5-0.4 5.2-2.4z"/>
   <path d="m346 209.6 0.8 3 2.4 0.2 7.4 0.4 3.2-1.8 5.6-0.8h7.2l-0.4-2-1.6-1.8-2.4-2.8-3.2-1-13.8 0.4-2.4 1.6-2.2 2.6z"/>
   <path d="m383.8 201.4-4 1.8-8-0.2 0.4 2.2 2.2 1.6 2.6-1.2 2.2-0.2 2.2 0.8 2.4 0.4 0.6 0.2z"/>
  </g>
  <g id="parenchyma" transform="translate(214.9 -11.738)">
   <path d="m184.2 203.6 6-1.8 6.4-1.2 16.8-0.4 8.4 2.6-4 2.2-2.6 0.2-2 1.6 0.8 2.2v2l-6 2.8-11.2-1-5.6-0.2-5.6-5.6z"/>
   <path d="m211.6 215.6 8.2-5.6 6.4-1.6 17.2-0.4 4.4 1 3.8 2.2 2.4 1.6v2.4l1 1.8-0.6 1.8-1 0.4-2.2 1.6-0.8 1.6-0.8 1.4-10.8 1.4h-4l-6.2-0.4-3.2-1.4-4.4-0.8-3.4-1.2-2.6-0.4-3-1.8-0.2-2.4z"/>
   <path d="m263.8 206.8c7.4-1.6 7.4-1.8 7.4-1.8l4.4-0.8 5.8-0.4 5.2-0.6 3.4 2.4h3.8l6.2 2.2 1.6 1.8 2 3.2 0.8 4.2-0.6 4.4-1.6 2.8-5.6 0.4-4.8 0.8h-2.8l-6.6 0.8-11.2-0.2-4.8-1.8-4.8-2.4-2.2-2.8-0.2-1.8 0.2-3.2 0.8-3.4z"/>
   <path d="m309.8 210.2 11.4-0.8 4.6 0.4 9.2 1.8 4.4 0.8 3 2-4.8 2.2h-0.6l-2.8 2.6-0.6 1.8 1 2.6-2.4 0.6h-1.4l-16-0.4-2.4-1.4-3.6 0.2-1-1-0.4-1.4-0.2-1.8-0.4-5.6z"/>
   <path d="m383.8 231.6-0.4-18-1.8-1-2.4-0.2-4.4 0.6-2.8-0.2-2.2 0.8-6.4 0.2-7 2-4.8 2.4 0.4 2 4 2.2 5.4 1.6 6.6 2.6 7.2 3 4.8 1.8z"/>
   <path d="m187 234v-2.6l-1-2.2 4.2-5 4-0.4 2-0.2-2-2.4-0.6-2-0.4-2.4 3.6-0.6 5.6 0.4 5.4 0.8 0.4 1.6-3.6 0.6-2.6 1.2 0.8 1.4 1.8 0.8 10.4 0.2 4 1.4 4.6 1.8 0.4 1.2-3.2 2-1.8 2.6-1 2.2-5.6 3.8-3.8-1.2-3-1.2-17.4 0.2z"/>
   <path d="m232.2 230.6 6.2-0.2 4.2-0.8 3.2-2 5.2-1.2 3.6-1 6.2 0.6 4.4 0.4 2.8 1 5 0.6 2.4 1.6 2.2 2 0.4 1.8-1.6 1.8-4 1.6-4.4 1.2-3.6 1.6-3.6 2-3 1.4-2-0.6-4.4-3.8-8.6-2.6-4.8-1.2-5.8-1.2-2-1z"/>
   <path d="m291.8 225.4 13.4 0.2 9.8 0.8 11.8 1.2 3.6 2.8 1.8 2.6 0.4 2.4-3.2 3-3.8 2.8-4.2-1.6-5-1.4-3.2 2.4v4.2l-4.2 0.8-4.2-0.8-4-2.8-5-1.4-5-2.4h-6l-2.6-1.4-1-3.6 0.4-2 3.8-2.4 4.6-1z"/>
   <path d="m334 230.2 0.8-3 1.8-1.4 4.8-2 6.6-0.8 5.4 0.4 7 2.6 6.8 2.2 5.2 2.8-0.4 3.6-1.4 1.6-4.4 1.4-6.8 1-5.4-0.2-7.6-1.2-6.8-1.4-4.2-2.2z"/>
   <path d="m384 233.6v21.4l-3.4-1.6-2.6-1.6-3.6-4-1.6-3-0.2-2.4v-2.8l2-2 3.4-1.6 3.8-2.2z"/>
   <path d="m184.4 252.8-0.4-14 7.8-0.8 11 0.4 5.8 1 6.6 4-0.6 2.6-3.2 3.8-9.2 2.2-11.6 1.8z"/>
   <path d="m216.4 240 4.2-1.6 6.2-2 5.8 0.4 8 1.6 7.6 2.2 6.6 4.6 2 6.2-0.6 3.4-3.4 1.6-6.8 0.6-10.8 0.2-3-2.4-9-5.6-3.4-0.6-2.2-2.8z"/>
   <path d="m265 242.4 4.2-1.2 3-2.2 8.4 0.2 3 1.6 6.6 0.8 2.2 0.2 7 3.8 2.6 3.8-1.8 2-4.2 3-5.2 4.8-4.4 1.6-5 0.4-6.6-0.8-3.2-2-6.2 0.4-1.2-1.8-0.4-1.8-1.6-2.8 0.4-3.4z"/>
   <path d="m329.6 243.2s2.2-1.2 3.4-3.4l1.2-2.2h1.8l3.2 1.8 5.2-0.4 2 1.6h10.2l7.2-0.2 2.8 1.8 4.4 4.4 2 3.2-3.8 1.4h-7.6l-3.6 1.8-3.8 0.4-6.6-2.6z"/>
   <path d="m190 263.4 1.8-3.6 8.4-4.4 5.8-2.8 8.2-0.8 5.6 0.4 5.4 2.4 2.2 2.4-1 1.2-3.2 0.8-3.2 1-1.8 1.8-1 3 0.4 2 3.2-0.4 3-0.8s-0.6-1.8 0.6-0.8 1.2 1.2 1.2 1.2l-2.6 2.2-4.4 3-13.2 0.4-6.8-2.8-5.4-1.4-2.4-1.2z"/>
   <path d="m298.4 257.4s-1.8-2.2 1-2.4l2.8-0.2 4.4-5.6 4.8-1 4.2-1 14.2 0.4 6.8 2.2 7.4 2 5.6 2.6-2.6 3.8-4 1.8-0.6 1.4 1.6 2.4-5.2 1.6-4.2 0.2-2.4-3.2-4.2 2.2-1.8 2-2.6 1-2.6 1.8-6-0.4-3.8-0.8-6.2-1.8-4-1.8-2.2-2.4-2.2-3z"/>
   <path d="m191 273.8 4.4-3 1.4 1.6 2 1.4 1.4 0.4v1l-1 1.2-1.2 0.4-3 0.6-2.4-1-1.6-1z"/>
   <path d="m229.6 265.2 3 0.4 1.4-3.2 6.8-0.8 2.8-0.8h19.2l4.2 1.8 4.2-0.2 1.2 4.6-3.6 3.8-1.8 4.6-9.6 8.4-8.6 1-9.2 0.4-2.6-1.4-3.6-1.2-3-1.6-0.6-1.8-0.8-2.6-0.8-9.6z"/>
   <path d="m350 257.8 4.4-0.4 7.2-3 9.2-0.4 8 1.8 4.8 1.6v24.6l-2.8 1.4-5.4 1.2-11.4 0.6-4-1.6-7.4-3.4-1.8-5v-2.8l1-3.6-6-3.8z"/>
   <path d="m185 282.4 6.4-1.4 4.6-1.6 3.4 3.8 0.8 4-1 1.4-8 0.6-1.6-5z"/>
   <path d="m206 274.8 18.4-1.2-0.2 2.2-0.8 1.4 0.2 1.2 2.8 1.2-0.8 3.8-3.6 1.2-1 1.8-1.2 2.2-1 1.4-6 0.4-6.2 0.2-2.6-2.2-0.6-3.8-1.4-4.2-0.6-2.2 2-2z"/>
   <path d="m260.2 287 14.6-15.8 3.8-4.4 0.4-1.6 1.2-1.2 7.2-0.8 2.2 2.8 2.6 0.6 3 0.4 1.6 1.4h2.8l-5.6 4.4-2 3.4-2.2 4.8-4.2 5-4.8 6.2-1.8 3-3.2 1.6-4.8 0.4-3.4-2.8-1.4-1.4z"/>
   <path d="m281.8 294.2 12.8-18 4.4-4 3.4-3 3-0.4 4.2526 2.4553 4.9474 1.3447-1 3.4 0.6 2.8 1.4 1.8-2.6 5-5.2 4.2-7.2 4.8-9.8 1.4-7.4 0.8z"/>
   <path d="m319.4 273.2 7.2-3.6 6.6-0.2 13-1.2-0.4 2.4-0.8 2.6 0.2 2.8 0.2 0.8-5.8 2.2-4.8 1.4-5.2 2-6 0.6-4.2-1.6z"/>
   <path d="m333.4 284.8 6-0.8 4.6-1.4 3.2-1.2 2.6 1.8 3.2 2 2.2 0.2-0.8 1.8 1.4 3-3.6 4.8-4.6 1.2-4.4-1.2-3.8-0.8-3.4-1.4-4.4-2.8-1.4-2z"/>
   <path d="m384 302v-12.8l-4.8 1.6-5.8 2-9 4.2-5 1.4-3.2 3 4.6 1.8 4.6 1.8 4.8 2 3.4-1.4 5.6-1.4z"/>
   <path d="m223.4 290.2 4.4-4.6 6.6-0.2 3 1.6 2.2 5.2-0.6 3.2-0.4 1.6-3.2 2.8-2.2 2.4-5.4-1.4-3.6-0.6z"/>
   <path d="m247 289.2 1.8 0.8 2 1.4 1.6-3 2.2 0.4 5.2 1.2 2.6 4.4-0.4 3.2-3.2 3-4.6 1-4.8-2.6-2.8-3.2z"/>
   <path d="m193 302.4 10.4 10 5.8 0.6 9-1.4 2.6-1.2 3-1.2-2.8-1.6 1.6-2.6-3-1.6-3-0.4-1.8-2.8 4.2 1 0.2-2.6 2-4-6.6-0.6-5-0.8-4.2 0.6-4.8 1.4-4.4 3.6z"/>
   <path d="m183.6 325.8-0.4-18.8 4.4-5.2 1.2 2.4v4l4.6 0.2 4 2.2 3.6 3.6-0.6 6-1.2 4.2-4.6 3.4-5.2 0.4z"/>
   <path d="m204.2 319.6 8.2-1.8 4.8-1 3.4 0.6 3.4 1.6 4.2 1.4 2 0.4 0.2 5.2-2 3.6-7.4 3.8-3.6 3.4-7.2-4.2-5-2.8-2.6 1.2z"/>
   <path d="m227.8 316 0.2-6.4 3-2.4 4.8-1.6 2-2 7.8-0.4 3.6 1.4 3.8 0.8 1 5.4-1.8 4.4-4 2.2h-3.2l-2.2 1.6 0.4 3.2 1.8 3.6-4.4 4.8-1.8-0.8-2-2-3.8 0.4-0.2-2 1.2-2.2 1.4-4.2-1.8-2z"/>
   <path d="m257.6 324.6v-5.8l0.8-6.4 1.4-6.2 7.6-5.8 7.6-1.4 4-0.2h7.8l6 1.6-1.4 2-1.2 2.4-1.8 5v4.4l-1.2 3.2-6.4 1.6-2.8 2-2.4 3.2-2 2.8-8.2 0.2-4.2-0.4z"/>
   <path d="m292.8 306 3.4-2.2 2.2-1.2 1-4.2 10.8-6.2 16.4 0.4 3.4 1.4 5 1 3.8 1.8 3.4 2.2 2.2 0.8-2 5.2-4 2.4-0.2 3.4-1.8 2.2-3.4 1.6-2 2-6.6 1.2-7 2.2-1.8-0.4h-4.4l-3-2-6-0.2-5.2-1.6-3.4-3.4-0.8-2.4-0.6-2.6z"/>
   <path d="m348.2 310.2 6.6-0.4 11-0.2 4.6 0.6 1.6 1.4-0.2 1.4-0.8 1.8 2.6 1.2 3.6 1.4 0.4 1.6-0.6 2-1.8 2-1.2 1-5 1.6-2.8 2.2-1.2 1.2-6.4 1h-4.8l-6.4-0.2-1.8-1.8-0.2-3.2 1.4-1.8v-3.6l-2.8-1.6 0.6-6.8z"/>
   <path d="m375 329 1.6-1.6 2.6-0.6 1.2-1.8h1.2l1 3 1.2 1-2.4 1.2-5.6 1.2z"/>
   <path d="m187.6 336.2 0.4-4 2.2-2 4.4-2.4 4.6 0.8 2 4 1.8 3 1.8 1-2.2 3-4.8-0.2-6.8-0.8z"/>
   <path d="m227 338.8-2.4-0.4-0.4-1.4 3.4-3.2 5-3 2.2 0.6 2.4 0.6 0.6 5.8-2.2 0.2-5.6-1.2z"/>
   <path d="m220 337.4 2.6 2.8 2.8 1.2 3.6-0.8h10.8l5 2.6-0.4 1.8-2.4 0.8-3.8 1-2.8 0.6-4.4-1-3.2-1.4h-2.2l-1.4-0.6-3.2 2.6-2.2-0.4-3.4-1.6 3.2-1.8 0.4-3.4-4-0.8z"/>
   <path d="m241.6 337.2 0.2-4.8 1.4-0.6 3.6-3.6 5.2-1.2h4.6l2.4 3.2-0.4 5.6-0.6 2.6-1.6 6-4 0.6-4-1.2z"/>
   <path d="m264.2 329h6.8l3.2 2.4 0.8 3.4-0.8 3.8-2 0.6-5.8-0.6-3-0.2-2-2.4-0.2-2.8z"/>
   <path d="m277.8 336.8 0.2-9.6 3.6-3.6 6.8-0.6 2.8-4.8h4l4.4 1.2 6.6 1.8 1.4 2.2-5 1.8-2.6-0.2-3 2.6-0.4 2.4 3.6 1.8 3.6 1v3.8l-7.4 0.4-5.2 2.2-5 1.4h-5.8z"/>
   <path d="m308.8 333c7.8-8.4 7.8-8.4 7.8-8.4l4.4-1.6 4.4-2 4.2-0.2 5.4-0.4 5.2-0.4 3.2 2.2-2.6 2.8-6 1.8-1.2 6-10.4 0.8-6.6 1.6z"/>
   <path d="m183.8 355.4v-7.4l4.2-6h11.6l1.4 2.6-1 0.6 0.2 3 0.6 3 3-0.4 2 1.2h3l5.8 0.2 2.8-0.2 0.4 2.8-5 0.8-3.8-1.4-3.4 3.2-1.2 2.2-4-0.4-8.8 0.6-1.6 0.8z"/>
   <path d="m226.8 358 2.8-1.2 1.8 3-4.2 0.2z"/>
   <path d="m231.4 352-0.2-2.4 9.6-1v1.2l-1 2-4.2 0.6h-1.2l-1.2 1.6-1.8-0.4z"/>
   <path d="m233.8 357.6 5-0.6 1.4-1.2 3.4 1 0.6 2-3.2 1.8-3 1.4-3.4 0.8-3.2-3z"/>
   <path d="m239.8 351.8 1-2 3.8 0.4 3 0.2 0.4 2 1.8 3 0.2 1.2h-2.2l-1-2h-3.6l-3 1.2-0.4-4"/>
   <path d="m259.8 354.6-5.2-1.8-4-2.4-3.2-2.2v-0.8l1.8-0.6 4.6 1.4 4.6 1.2 0.8 0.8 4.4 3.2z"/>
   <path d="m249.8 359-2.6 2.6-0.4 2.4 1 2.6h2.8l2.8-1.4 2.4-1 1.4-2.4h2.6l0.6-1.6-2-1-1.8-0.2-2.2-0.4-2.4-1z"/>
   <path d="m260.4 345 1.8-1.4 0.8-2.2h3.2l3.2 0.8 2.4 1.2-3.6 3.4-3.6 2.4z"/>
   <path d="m265.4 351.4 2-1.4 3.4 1.8 3.2 2.2-0.6 4.2v3.4l-1.6 1.4 0.4 2.4-3.6 1-2.4-1.6-0.4-1.6 1.4-1.4 0.6-2.6-2.2-1.2v-2l1.4-0.4 0.4-1.8z"/>
   <path d="m271 347 4.2-2.4 5.2-1.4 4.8 0.4 1.2 2 1.2 2.6-3.4 3.4-3.8 1.8-3.4-1-5-2.8z"/>
   <path d="m291.2 339.2 16.8 0.8 3.2 3.4 3.8 2.2-2.2 1.4-5.8 1.6-6 0.6-8.2-0.4-3.2-4z"/>
   <path d="m322 340.2h4.2l14.2-6.4 6.2-0.4 5.4 1.8-1.4 6-2.4 2-4.8 2.4-2.4 2.8h-3l-5 3.2-7.2-0.6-4.6-4.8-1.8-3.4z"/>
   <path d="m354.8 334 13.2-0.4-0.6 3.4-3 0.6-3.4 0.2-5.2-0.4z"/>
   <path d="m372.2 335.2 4.6-0.4 0.8 1v0.8l-1.6 0.6-3.6 0.2z"/>
   <path d="m275.4 360.6v-3l5.8-1.8 2.6 2v2l-2.6 2.4z"/>
   <path d="m284 354.8 4.6-2.8 4.8-1.2 6 1.6-0.4 2.8-2.2 1.6-3 0.2-7.2 0.6z"/>
   <path d="m306 352.8 2-1.8 4.2-0.2 1.4-1.6 3-1.2 2.6 2.4 1.6 1.4 0.2 1.8-1.6 1-4 0.6-4.2-1.6-3.6 1.4z"/>
   <path d="m328 358.2 3.4 3.2h3.8l0.6-6 8.2-6.4 16.6-5.6 2.8 0.2 4 2.6 3.4-2.4 5.4-1h8l-0.2 5-1.6 1.4-4 1.4-5-1.6-4.2-0.8-3.6 2 1.6 3-1.2 2.8-4.8 1.8-6.4 4.2 3.6 1.8 4 1 0.4-4 7.6-4.6 11.2-3.6 3.2 1.6-0.6 22-6.2 0.2-5.6-1.8-4.2-1.2-2.6 1-0.8 1.4 3.8 4 1.6 5.6 2.4 3.6-8.4-0.4-3.2-4.2-3-3.4 0.8-3.2 1.6-2.8 1.4-3 0.6-4-7.2 2.4-11.6 0.8-2.8-1.8-4.8-5-3.8 2.8-9-0.4-3.2-3.4v-2.4l6-3.6z"/>
   <path d="m287.4 361 3-1 0.6 2.6v5.2l-3.2 0.4 0.6 2-0.4 1.6-3.2 0.6-1.4-1.6-2 0.2-2-4.6 1-1.8 0.8-2.4z"/>
   <path d="m295.2 364.4-0.4-3 3.8-3.6 5.2-2.2 4 1.6 3.8 1 3.2 2.6-4.2 3.4-1.8 3.4-0.8 1.2-5 0.6-4.8 2.2z"/>
   <path d="m277.6 374h5l0.8 2.2-0.8 1.6-3-0.6-2-1.4z"/>
   <path d="m272.6 378.6 2.4-1.4 2.8 2.8 1.8 0.4v3.6l-4.8 0.2-2.2-1.8z"/>
   <path d="m273.4 388.8-1.2-2.4-2-1.4-3-1.2-0.4 3.6 3.4 1z"/>
   <path d="m276 388.4 1-1.4 1.6 0.8 3 3.6h-5.4z"/>
   <path d="m266 391.4v-1.6h1l4.2 1.2-2.4 3h-1.6z"/>
   <path d="m282.4 386.6 0.2-8.8 4.6-1.4 6.8 0.2 5.4 2.6 1.6 4.2 0.6 7-3 2-4.4 2.8-4 0.4-3.2-1.4-5.4-2.8z"/>
   <path d="m302.6 379 3.8-4.4 10.8-1.8 1 2.4-2.2 3.4 4.8 1.2 2.2-0.8 1.2 3.2 3.6 1.6 7-8.2 7.2-2.2 6.4 0.8 5.2 2.6 1.6 6.4 1.8 3.4 0.6 5.4-1.4 4.4-3.6 3.4-7.2 2.4-6.4-1.2-5.6-4.4-6.6-4.4-1-3.4-4.4 1.2-9 0.2-5.4-0.8-3.2-2.2z"/>
   <path d="m384.2 398.2-0.4-19.4h-1.8l-3.6 1.2-1.8 2.6-1.4 3.8-0.6 3.6 3 4.8z"/>
   <path d="m362 390.6 6.6 0.4 3.4 1.4 3.4 2.6 0.6 2-1.2 2.4-4.2 2.6-5.4-2.4-3-0.2-1.4-3.8z"/>
   <path d="m266.8 396-0.4 7 1.4 1.4 1.8-0.2 4.8-1.8 6.6-5 1.8-3.8-4.2-1.4-6.8 1.4z"/>
   <path d="m295.8 398.6 4.4-4.4 5.6-1.4 11.6-0.8 7 2 7.4 6 5 4.6 4.2 6.4v9l-3.2 5.6-4 2.8-6-3.8-3-0.8-4.2-1.4-3.2-2.4-6.4-1-2.4-0.2-3.4-2.6-10.4-14z"/>
   <path d="m269 409.6 7.4-5.2 7.8-3.8 4.6-0.4 3.2 2.4 4 4.2 2.4 5.2-0.2 4-1.2 3.4-2.2 4.2-4.8 3.2-6.6 1.2-5-4.4-6.2-5.2-3-5.2z"/>
   <path d="m242.4 411.4-3.4 2.4-0.2 3.2 1.6 0.8 3.2-0.6 2-0.8 0.6-3z"/>
   <path d="m252.6 407-3.4 3.8-1.4 4.4-0.8 3.2 4 2.6 2.2 2.8 3.6-1.6 6.6-3.2 2.4-2.4-3.6-2-2.8-4.2 4.2 0.8v-2.4l-3.6-2.2z"/>
   <path d="m184.2 419.6 2.6-1.4 6.4 1.6 2.8 2.8 4.8-0.8 1 6.6-0.2 20-2.2 1v2.2l0.2 1.2-3.4 1.8-5.4 0.8-1.6-0.6 3 5.4-0.2 9-2.8 4.2-4.4 3-1.8 0.2z"/>
   <path d="m207.4 425.6 3.2-5.4 5.2-1.2h4.6l0.6 3.6-0.2 4-2.2 2-2.2 1.6-4-0.6-2.4-2.4z"/>
   <path d="m206.4 448.4-1-5.6 4.2-4.4 2.4-5.2 4 0.8 2 4.2 2.2 4.4-2 4.4-5.4 3z"/>
   <path d="m227.4 419.8 10 0.6 1 5.2-1 6-0.6 5.8 2.2 6-8.2 9.2-4.2 4.4-1 2.2-4-3.4-2.8-2.8 2.8-6.6 1.4-5.6 0.4-6.4v-7z"/>
   <path d="m251.4 428.8 0.8-2.4 5.4-3 8.8-1.4 7 1.6 4.6 3-2.4 4.6 0.6 2.6 3 1.4 0.4 1.8-1.6 1.8-5 0.6-1.4 1.6 2 2.6 3 2.4-1 2-3 2.6-5.6-5.8-4.2-3-3-2.8-4.2-0.6-2.6-1.6z"/>
   <path d="m296.8 426.8 7.6-8.6 4 3.2 5.8 1.4h2.8l3.4 5.2 0.8 5.8 3-1 1.8 9.4-2 2.2-4.8 1.2-4.4-0.2-4.8-0.6z"/>
   <path d="m331.8 433.4 4.4-3 4.4-0.4 4.2 3 1.6 2.8 4.4 1 1.2 4.4-2.8 4.2-3.8 2.4-3.2 0.6-5-7.4h-4z"/>
   <path d="m344.4 409.6 2.6-2.4 3.4-0.4 1.4-3 2.8-2.6 5.4 1.2 5.2 2.6 5 4 2.6 5.8 1 7-1.4 11.2-1.2 4.4 0.8 7 0.4 5-2.2 2.6-8.6 1.6-2-3.6-1.4-7.6-2.6-8.4-4.2-3.6-2.8-2.6-3.6-6z"/>
   <path d="m383.2 400.4-6.8 1.6-4.6 2.4 4 6.4 2 10.8 1.6 5.6 3.6 0.8h1.2z"/>
   <path d="m383.2 434.8h-2l-2.6 3.6-2.2 4-1.6 3v3l-1.6 4.4 1.2 2.8 3.4 4 3 1-0.8 2.6-2.8 1.2-2.4 1.2v-2.4l-3.6-4-5.2 0.6 0.2 3.6 2.6 6 1.8 2.2 1.6 7 2.4 5.8 5 8.4 4.2 4z"/>
   <path d="m212.2 473.8-3 0.6-3.8 2.2-2.4 1.4-4.2-1.8-3.6-5.2v-12.6l4.4-5.6 6 0.8 8.8-1 2.4 3.8 0.6 4-1.8 1.6-1.4 3.2 0.6 2.4h6.6l3.4 0.4 3.2 3.2 3.4 4.8v3.8l2-2.6-1.2-5.8-2.8-7.6 1.4-5.4 5.6-7.4 5.6-5.8 3.2 0.6 2.2 8.8 0.8 5.6 2.4 2.8 3.4 5.2-2 10.2-1.2 4.4-1 4-6.4 0.8-5-0.2-3-5.4-1.6 0.6 3.2 7 1.8 6.2 1.4 1.4 4.4-2.2 6.2-0.6 3.2 2 2.4 2.2 2.2-0.4-2.2-3-1.2-3.8-3.6-3 4.4-9.8 6-0.2 5.4-3.4 6 5.2 2.2 7.2 6.6 1.4 0.6 5.8 0.4 4.4v7.2l-4.4 3.4-4.4 2.6-5.6-0.2-2.8-2.8 1 4.6 3.4 4.6 3.2 6.4 0.8 8.6-3 3.6-3.2 3.6-7.4 1.6-5.6-1.6-5.8-4.2-1.2-3.4-3.2 4-3.4 3.2-3.8 2-7.2-1-4.8-5.8-1.2-6.6-1-10.6 2.2-1.4 5.8-1.6 8.2-1.6 3.4-2-4-3-8.6 1.6-7 2.4-6.2-2.8-3.8-0.6h-4.2l-3.4-4.6v-6l-2.2 4.6 0.8 6.6 4.6 2 8 5.2 2.6 6.8 4.2 7.2-2.8 6.2-2.4 4.4-9.8-1.2-12.6-0.6-9.6 2.2-2.6-1.4-0.4-61.4 8.6-2.6 8.4 5 7-0.4z"/>
   <path d="m248 442.2 10.2-1 4.4 3.4 6.4 6.4 0.6 6 0.6 3.8 0.8 4.8-1.8 4.6-3.6 0.2-8 2.8-4.2-10.8-2.8-10.6z"/>
   <path d="m273.4 476v-10.6l2.4-11.4 4.4-1.6 4.2 1.2 3.8 7 8.4 4.4 3.4 2.2 1.6 3.4h1.6v-6.4l-9.4-2.4-3.6-4.6-3.6-9-3-5.2-0.6-7.6 4.4-3.8 4-0.2 6 3.6 7.4 10.4 4 7.2 6.4-0.4 12-4.4 7.6-0.2 7.4 0.8 2.8 6.8 0.4 5.8 4 3.4-1.4 9-5.8 10.4-9.6 12.2-6.4 0.4-11.4 0.4-6.6-7.4-3.8-6.4-4.4 3.4-2.8-0.2-1.4 2.6 5.4 3.6 3.6 4 7.2 1.2 5 3.2-6.2 7.6-8 1.6-7.2 3-5.4-5.2-1-7-1-7.4-2-4.8z"/>
   <path d="m276.2 519.4 4.4-3.8 15-2.6 4.8 6.6 3.8 0.8 2-7.4 10.4-8.4 7.2-2.8 5 0.6 4.4 4.2 5.4 6.2 2.8 4.4 1.4 7.4-3 5.8-2.4 3.6 1 4.2-0.4 4.2-4.2 2.2v3.8l-2.4 4.4-5.6-2.2-3.2-0.4-0.8-2 5.4-2.6 4.4-2.2-13 0.8-7.6 3-5.8-6.2v7.6l1.4 3.8-5.2 2.2-3 3.6-6.4 3.8-14.2 2.2-4.4-3.6-2.2-2.4 8.8-1.6-9.8-3.6v-7.4l3.8-6 8-3.8 8.2 1.6 9-0.8 4-3-0.4-1.2-7.2 2.4-8.6-1-6.6-2-3.4-4z"/>
   <path d="m336.2 500 0.8-4.2 3.8-2.4 3.4 0.4 2.8-2.6-1.6-2.4 1.8-3.2s0.6-5.2 1.6-2.2 1.2 3 1.2 3l1.8-0.2 2.2-1.6 5-0.6 0.8-4.6 2-1.8-3.6-0.6 4.8-2.8 3.4 1 3.2-0.6 0.2 11.6 2.4 2.8 3.8 7.2 5.6 4.6 2.8 0.8-0.6 26-3.4 1.4-4 0.8-3.2-2.8-3.2 2.4-4.6-1-3.6-1.6-7.8-5.4-2.2-4.8-2.6-2-1.6 7.4-2.2-2.2-1.8-3.8-0.4-3.8 4.6-2.2 1.4-3-2.4-1.6-4.6 1-5-3z"/>
   <path d="m367.2 532.2-2 3.2h5.4l8.2-1 0.8 8.8 3.6 4-4.4 2.6s-2.8-0.6 0.4 1.6 1.6 2.2 1.6 2.2h2.6l0.4 6.8-0.2 3.8 0.6 18.4h-5.2l-8.8-1.6-3.4-0.8-6 0.2-5.4-2.6-4.4-5-8.4-8.6-2.2-7.2-1.6-5 2.4-5.6 1-8.2 2-5.2 5.8-3.4 7.4-1.2z"/>
   <path d="m186 544.2 9.2-1.8h12.8l11 1.2 3.2 1.6-0.8 3.4-2.8 3.4-2.4 2.8-1.4 3.2-0.8 2.4-7.6-0.6-4.6 1.4-6-2-5-4.2-4.8-4.8z"/>
   <path d="m219.8 558 5.2-3.2 6.8-6.4 2.6-1.8s-0.6 1.4 2.2 1.6l2.8 0.2 1 3.8 2.2 3.4s-4 0 0.8 3 4.2 3.6 4.2 3.6l-3 1.4h-4.6l-1.4 1.2-1.4 1.6-5 0.8 0.4 4.4 1 1.4 2.8 2.6-0.6 4.2-0.8 1.8-3.2 2.6v2l6.4 1.2-1.8 5.4v2l2.2 4.6-5.6 1.8-10 2.6-4.6 1-3.2-3.4-2.6 1.4-2.8 3.8-8.2-2.4-4.4-1.4-8-8.6-3.8-5.8-1.2-3-0.8-4.6 6.4-5.6 8.4-10 6.8-1.8 6.8-1.2 5-0.2 8.2 1 0.2-1.2-3.6-2.4-3.6-0.2 0.4-1z"/>
   <path d="m245.6 547.2 7-0.8 3.2 1.8 3.6 3.2 1.4 4.2 5.2 2.6 1 3-5.6 2.2h-5l-5.2-3.2-1.8-4-0.2-3.2-3.6-2.8z"/>
   <path d="m240.4 576c2.2 1.4 0 3.2 2.2 1.6l2.2-1.6 0.4-3 9.8-4.2 6.4-2.4 6.6-1.4h3.8l2.6 3h4.4l2.6 1.8 2 6.6-0.8 6 0.2 4-0.6 4.8-3.2 3.8-4.2 2.8-3.4 2.2-4 2.2-4.8 0.2-2.6 0.8-8.8 0.2-4.4-1.8-3.2-1.8-2.8-4-1.6-2.8 1.4-2.4z"/>
   <path d="m288.2 571 9.2-5.6 9.4-8.2 5.2-0.6s4.4-0.6 5.8 2 1.4 2.6 1.4 2.6l3.6 2.8-3 1.8-2 3-1.8 6 4.2 1.6 5.6 0.4 0.8 2.8v3.6l-3.8 1.2 1 2 0.4 2.6-10.4 2.4-4.6 0.4-6.6 4.4-9.2-0.2-8-6.4 2.4-10.4z"/>
   <path d="m323.8 559.2 4-2.8 2.4-1.2 2.2 0.8 2.8 0.8 0.2 2.8-1.2 2.2-1.6 2.4-2.4 3.2-2.6 0.2-1.8-2.6-3.4-4.4z"/>
   <path d="m327.8 587.6 1.6-3 5.2-3.6-0.2-1.4-2.6-1.2-1.6-8 5.2-1 7.8 0.6 3.4 3.2 3 2-0.6 2.2-1.6 0.8-2.4 2.4-2.8 2.6-2.6 2.4-3-4.6-0.2 5.2-0.6 4-1.6 1.6-2.2-0.4-3-1.8z"/>
   <path d="m354 580.6 2.2 0.8 3.8 1.2 6.4 0.4 3.4 1.6 2.4 6-0.8 5-1.6 1-0.4 1.4v1.4l-2.8 2.2-5.6 1.4-1.4 0.6-1 2.8v2.4l5 2 3-1.6 0.6-2.6-4.8-0.2v-1l7.2-2.6 6.4-0.4 0.8 2.8 0.2 3.4-0.6 2.8v1.2l0.6 2.6 4.8-0.2 1.6 2 0.2 35.8-4.8-1.2-2.2-0.6-1.4-3.4-3.4-0.6-3.6 1.4-1-6v-10.8l-3.2-2.2s-4 2.8-1.2-0.4 2.8-3.2 2.8-3.2l3.6-2.8-1.8-3-3.6 3.6-11.2-2.8-6.6-1.2v-2.4l-3.4-8.4 2.6-4.8 1.4-2.4-8.4-6-0.8-7.2 5.6-0.8 5-4.6 5-2.6z"/>
   <path d="m342.2 650-0.4-4.2 1.6-1.8-2-1.2-4.6-6.4 0.2-3.2 9.8-9.4 4.2-1.4 5 1.2 2.8 5.2 3 4.4 0.8 3.2-0.2 3.8-3.8 2.2-1.2 3.8-10.2 4z"/>
   <path d="m293.2 613.4 1.4-4.6 2.6-7.4 5-3.2 11-3.8 12.2-2.6 4.6 1 1.8 2.6 3.8 4.4 2.4 3 1 4.6 2.6 5 1 3.4-0.6 2.8-2.4 5-2.6 5-3.2 2.4-8 0.4-5.4-2.6h-5.4l-5.4-0.4-7.6-0.8-3.6-2.2-2.4-3.4 0.4-3.4z"/>
   <path d="m273.2 611.2-0.6-4.8 1.6-3.4 8-2.8 6.4-2 3.8 1 0.4 5.2-1 3-2.2 3.2-2 3.6-2 3-5-0.4-6.2-1.2z"/>
   <path d="m224.2 609 7.8-4 6.4 1 7.4-0.8 5.6 3 0.2 4.8 2.6 1 2.6 0.2v-4l4.4-4.2h6.6l2.8 6.8-1.6 4.6-2.4 3.2 0.8 2.6-2.6 2.6-5 2.4-2.4 1.4-3-4.2-5 0.8-5.6 2.2-9.4-2.2-7.2 1-4-0.8 3.2-4.6-0.4-1.6 2.4-5.6-4.8-2z"/>
   <path d="m190.2 613.4 3.8-0.4 4.8-2 5.4-2.6 4.4 0.2 5 2 4.8 2.6 2.6 2.2-1.6 2.4-4 2.8-3.4 1.2-0.4 2.2 1.2 3.6 2.6 3.4 5.4-0.6 8.2 0.4 14.4 1.2 11.4 2.2 2 4 3.2 4.2 1 4-6.2 3.8-3.2 1.2-0.6 3.2-3.8 1-13.8-0.6-13.6-0.2-7.4-2.4-1.4-2.6-3.8-2-0.8-5.2 0.2-7.6 2.2-2-1-2v-5.2h-6l-4-3.6 1.4-3.2 8 2.2 1.2-5.2-7.4-1-6.2 2-5 0.4z"/>
   <path d="m183.6 630.8 0.4 9.2s1.8-0.8 2.2 1.8l0.4 2.6 3.8 0.6 5.2-1 5.2-2.6 0.8-1.2-3.6-4.8-4.2-1 1.4-1.6 0.6-1.2-3.8-3.6-2 2z"/>
   <path d="m265.6 630.8c3.6-5.8 9.4-10.8 9.4-10.8l11.2-0.4h4l0.2 3.2 3.6 3.2s3-1.4 1.4 1.2l-1.6 2.6-0.6 2.8-1 2.6-5.2-1.2-6.8-0.4-2.6 1-5.2 0.4-3.8 0.4z"/>
   <path d="m294.8 638.4 5.6-5.8 10.2-1.4 5.2 1.4 12 2.2 5.2-0.2 1.6 3.6-0.4 3.6 3 3.8 0.2 2.2-0.6 3.4-2.2 2.8-1 3.4-2.2 0.4-6 0.2-6.2-1.2-6.2-0.8-6-2.8-6.4-0.2-3-3.4-4.2-2.4-1-3.2 0.2-3.4z"/>
   <path d="m266 644 1.8-2.4 5.2-1.4 5-0.4 3.8-2 4.8 0.8 4 4-1.4 3.8-6.4 0.2-10.4 0.8-6.8-0.2z"/>
   <path d="m266.4 651 8.4-0.6 13-1.2 6.8 1.6 2 2.6 2.4 3.4-1.2 2.6-4 0.8-6.4 1-7.6 1-4.6-3.4-4.6 0.6-3.2 0.6-3.8-2.6 0.4-4z"/>
  </g>
  <g id="endodermis" transform="translate(214.9 -11.738)">
   <path d="m188.4 646.8h4.6l2.4-0.6 2.2 0.4 4.2-0.8 2.2 2.4-0.8 2.4-3.2 1-1 2 2.8 1 1.4 3.6-1.6 2-5 0.6-1.2-1.6-3 1.2-3.6-0.6-3-0.6-1.4-0.2-0.4-8.2 2.4-0.8 1-0.2 2.6 1.6 2.6-0.2 1-1.8h-3z"/>
   <path d="m183.8 661 7.8 1.4-2 3.4-0.6 1.4-1.2 0.8-1 1.8-0.6 1.6-1.8-0.4z"/>
   <path d="m184 673 6.6-2 6.4-2.2 5-0.2-1.2-2-0.2-3 1-3.4 5.8-1.6 4.2-1.2 4 0.2 4.2 1.4 3 0.2 3.4-1 5.4 0.4 7.2 0.4 3 2.4 1 1.6-0.8 3-2.2 1.2-0.6 1.8-8-0.6-3.6 0.2-6 0.6-10.6 0.2-0.8 1.8 3.2 1.2 3.2 1.8 0.4 1.6-32.8-0.4z"/>
   <path d="m244.4 660.6 1.6-1.4 3.8-0.4h7.8l3.2 1.6 2 1.6 0.4 2.4-2.8 3.4-1.2 2.6-5.6 0.6-5-0.6-4.2-1.6-2.4-2.8z"/>
   <path d="m264.2 667.6 2.8-4.4h5.8l5 3.8 5.2-1.2-1.4 5-6.4-2-2.4 1.6z"/>
   <path d="m285.4 666 6.8-2 8 0.6 3.8-0.2-1.4 4.4-5.8 2.6-7.6-0.2-5.4-2.6z"/>
   <path d="m303.8 655.4-0.6 2.4 2 2-1.2 4.6 3.2 4 8 0.4 9.8-2.8 4-2.6 0.2-1-3.4-0.8h-11l-2.2-1.8-4.8-3z"/>
   <path d="m336.4 659.2 2.4-3.6 5.4-2.2 2.2 2.8 3.8-2.2 8.4-2.4 6.8-0.8 5.6 2.2 3.8 3-3.4 3.6-5.4 1.2h-6.6l-9.8-0.4-2.2-2-4.8 1-1.6 2-2.6-0.6z"/>
   <path d="m383.8 654.8-0.2 21h-166.6l-1-4.4h19.2l14 1 17.2 0.2 9.6 0.4 17.4 0.4 12-2.8 20.6-2 8.6-4.8 7.8-0.8 7.2-2.6 8.6 3.2 9.4-0.6 7.2-3.2 2.6-4.8z"/>
  </g>
  <g id="vascular" transform="translate(214.9,-11.738)">
   <path d="m185 361.2 2.4 0.2-0.2 1.2-1.2 1.6z"/>
   <path d="m197 361.2 6 0.4 3 2.6 2 1.2-3.4 1.2-4.6-2.8-2.8-1.2z"/>
   <path d="m207.6 359.8s0-0.8 2.2-0.8h2.2l2.8-2 1.2 0.6 3.8 2.8-0.4 4.4-0.6 2.2 2.2 2.6 1.8 0.8 1 2.4-2 1.6 1.6 1.6-2.6 2.4h-1.8l3 3.2-2.2 1.6-1.2 3.6-2-1.2-1-2.6-1.8-0.4-0.6-2.8-2.2-2-1.8-1.8-2.4 2.2-2.4-0.4-2.4-2.6 3.4 0.2-0.6-2.8-1.4-1.2-0.6-3.2 3 1 3.2 0.2 0.8 2.4 1.6-4.4 0.6-4.6-2-1.2z"/>
   <path d="m225 362.8 0.8 6 2.4 2.6 2.8-0.6s-0.6-2-0.4-4 0.4-2 0.4-2l1-0.8-1.4-1-1.2 3.8-2.6-0.6z"/>
   <path d="m234.6 366.8 1.6-2 2.6 0.4-0.6 3-2 0.8h-0.8z"/>
   <path d="m241 369.8 1.4-1.6h3l0.85622 1.483h-2.86z"/>
   <path d="m251 370 3.6 5 0.8 0.2h3.6l2.6-3.6 1.2-1.6-2.2-0.2-2.2 2.4-4.8-0.6-2-0.6z"/>
   <path d="m194.9 366.8 1.8-1.6 1.2 3.5 1.7 2 1 1.7-1.4 0.5-2.5-2.3-1.1-0.4z"/>
   <path d="m190.8 371.3-1-3.3-1.8-2.1 3.4-0.9 1.2 1.8 1 4.9z"/>
   <path d="m184.2 366.4-0.3 6 2.4 0.5 1.8-1.9-1.5-4.1z"/>
   <path d="m225.6 373.6h3l2.8 1.6 2.9 2.5 1.5 1.8 0.3-6.7 1.4-2.2 2 1.1-0.5 4.3 0.5 2.7-1.6 2.3 0.8 2.1-1 1.8-2.5-0.2-1.8-4.3-2.5-3.9-5.2-0.6z"/>
   <path d="m242 373.5 4-0.4 0.9 1.2-1.7 2.2-3.3-0.5-0.7-2.1z"/>
   <path d="m252.1 375.9-0.2 2.6 1.2 0.1 0.3-1.4 1.4-0.3-0.3-0.9z"/>
   <path d="m256.2 383.9v-2.1l1.1-0.6 0.1-3.7 1.4-0.5 0.2 3.1 1.4 0.4-0.3 1.8-1.2 1.9z"/>
   <path d="m262.6 383.5 1.7 0.8 0.4 1.9-0.1 1.4-0.9 1.2h-4.5l-0.3-2.6 1.9-2.2z"/>
   <path d="m184.5 378 4.1-4.1 1.2-0.8 0.8 1.3-1.8 1.9 1.4 1.1 0.4 1.6v1l-1-0.2z"/>
   <path d="m198.6 379.2 2.2 4.6 3.6 1.4 3.2 1.5 0.5-2.6-5.1-1.9-2-3.3-1.3-0.9z"/>
   <path d="m219.9 386.1 1.2-3.1 1.7-0.2 0.3 3.3 5.5-3.7 0.9-2.6 2.2 0.1 0.5 2.2-1.3 1.9-0.4 1.2-5.2 2.5-2.3 0.5z"/>
   <path d="m239 386.1 1.9-3.8 2.2-4.8 1.5 0.8-0.3 5.3-1.6 2.8z"/>
   <path d="m185.4 391.3c3.7-2.8 2.6-0.8 3.7-2.8s-0.7-1.8-0.7-1.8l4.1-1.2 3.6 0.2 1.1 2.8 1.7 3.2 1.7-2.2 1.2-3 2 0.1 0.9 4.7-2.7 3.4-4.6 0.1-1.9-2.8-3.3-2.9-1.9 1.2 3.5 3.3-1.2 1.4-3.2 1.9-3-1z"/>
   <path d="m209.1 392.5-2.8-0.8-0.8 1.4 1.4 1.3 4 0.4z"/>
   <path d="m229.7 387.1-0.4 4.4-4.3 3.4-0.9 2.2 2.8 0.1 2.6-1.9 3-2.2 0.2-5.5z"/>
   <path d="m236.8 387.7-2.1 2.5-1.7 5.3 0.7 4.6 3.9 1.2 2.9 0.4-0.2-7.6 1-2.9-1.2-3z"/>
   <path d="m246 385.1 0.5 2.4-0.5 0.8 3 4-3.7 0.6-1.2-1v-4.5z"/>
   <path d="m252.6 382.8-0.5-2.3 2.1-0.6 0.2 2.6z"/>
   <path d="m251.2 390.6 2.6-0.3 0.6 2.8 1.3 0.4-0.6 1-2.3-0.6-2.1-1.1z"/>
   <path d="m257.7 394.5h5.3l0.8 1.4-1.2 2.1-0.9 2.1v1.9l-0.2 1.5-1.6-0.2-1.7-1.1-1.5-1.5-1-4.4z"/>
   <path d="m250.7 395.9-0.2 5 3.5 0.4-0.6-5z"/>
   <path d="m244.7 398.9-0.2 2.2 3.4-0.1-0.7-2.1z"/>
   <path d="m244.8 394.5 0.4 1.7 2.6-0.2-0.4-1.6z"/>
   <path d="m239.1 406.5h1.7l0.9-1.3 2.1-0.2 1.4 2.1-1.9 1.7-3.4 0.5-1.6-1.1v-1.1z"/>
   <path d="m233.9 402-1.7 2-0.1 3.5 3.2 0.6 0.9-5.5z"/>
   <path d="m235.2 411.6-1.3 3.4 0.3 1.4 2 0.2 1.5-3.4z"/>
   <path d="m222.9 398.9-0.7 1.6-0.3 1.9 1.4 1 2.1-1.2 0.9-3.5z"/>
   <path d="m216.2 395.4v1.7l2.2 1.1-0.2 2.9-0.6 1.1v0.5l2.3-0.2 0.3-4.6-1.4-2z"/>
   <path d="m211.6 390.1 6.7-0.1 0.5 1.9-0.4 0.2-2.7 0.1-4.3-0.2z"/>
   <path d="m222.3 404.9-4.5 2.6-0.5 3.7 1.6 2.6 1.2 3.2 11.1 0.2 0.6-6.1-2.7-1.8-2.9-1.4-1-1.5-1-1.7z"/>
   <path d="m212.2 411.7-0.4 3.6 3.7 0.8 0.7-0.7-0.3-2.4-1.3-0.9z"/>
   <path d="m205.1 410.5-1.1 1.9-1 2.8v2.1l4.8-0.1-0.5-2.5 2.2-0.5-0.2-2.4z"/>
   <path d="m186.9 402.4-1.5 3.1-0.1 5.9 3.9 3.8 1.9 2.4 4.9-0.6 0.4-2.7 1.4-1.3-0.6-2.6-1.1-1.2-2.4-0.6-2.1-2.6-0.2-2.8z"/>
   <path d="m209.3 403.5 0.4-3.8 3.8 0.1v2.8l2.1-0.2 0.7 3-1.4 0.1-0.7-1.2-2.1-1.8-1.2 0.4-0.2 1.2z"/>
   <path d="m206.6 405.1 4.6 0.1-0.5 2.6-3.8-0.4z"/>
   <path d="m205.9 398.4-2 1.7-0.2 2.4 3.1 0.1 0.1-4.1z"/>
   <path d="m202.6 398.4-2.5-0.4v5.9l2.7 0.4z"/>
   <path d="m195.5 398.5-2.9-0.3-0.9 2.7 2.2 0.8 1.9-1.4z"/>
  </g>
 </g>
 <g id="labels" font-family="Sans" transform="translate(214.9 -11.738)">
  <text style="word-spacing:0px;letter-spacing:0px" xml:space="preserve" font-size="16px" y="304" x="88.818359" line-height="125%"><tspan y="304" x="88.818359" style="text-anchor:middle;text-align:center" line-height="0px">Mature Green Fruit</tspan><tspan y="354" x="88.818359" style="text-anchor:middle;text-align:center" line-height="0px"/></text>
  <g font-size="40px">
   <text style="word-spacing:0px;letter-spacing:0px" xml:space="preserve" line-height="125%" y="389" x="105"><tspan y="389" x="105" font-size="16px" line-height="0%">Vascular</tspan></text>
   <text style="word-spacing:0px;letter-spacing:0px" xml:space="preserve" line-height="0%" y="166" x="393"><tspan y="166" x="393" font-size="16px" line-height="0%">Epidermis</tspan></text>
   <text style="word-spacing:0px;letter-spacing:0px" xml:space="preserve" line-height="125%" y="194" x="393"><tspan y="194" x="393" font-size="16px" line-height="0%">Collenchyma</tspan></text>
   <text style="word-spacing:0px;letter-spacing:0px" xml:space="preserve" line-height="125%" y="279" x="394"><tspan y="279" x="394" font-size="16px" line-height="0%">Parenchyma</tspan></text>
   <text style="word-spacing:0px;letter-spacing:0px" xml:space="preserve" line-height="125%" y="672" x="395"><tspan y="672" x="395" font-size="16px" line-height="0%">Endodermis</tspan></text>
  </g>
 </g>
</svg>
