<?xml version="1.0" encoding="UTF-8"?>
<svg id="svg4082" width="1263.3" height="261.23" version="1.1" viewBox="0 0 1263.3 261.23" xmlns="http://www.w3.org/2000/svg">
 <g id="LeafDistal11">
  <path id="path4657" d="m1072.1 144.96c31.529 1.4894 62.037 3.1491 91.171 4.997-30.302 1.5626-60.501 2.923-91.09 4.1012z" fill="none" stroke="#000000" stroke-width="1px"/>
 </g>
 <g id="LeafDistal10">
  <path id="path4655" d="m1072.1 154.06c-31.752 1.2229-63.926 2.2495-97.075 3.1018l-1.7825-16.226c33.73 1.1787 66.779 2.5146 98.776 4.0261z" fill="none" stroke="#000000" stroke-width="1px"/>
 </g>
 <g id="LeafDistal9">
  <path id="path4653" d="m975.07 157.16c-31.363 0.80645-65.9 1.457-97.417 1.9703l0.0121-21.093c32.266 0.83936 64.239 1.8 95.622 2.8967z" fill="none" stroke="#000000" stroke-width="1px"/>
 </g>
 <g id="LeafDistal8">
  <path id="path4651" d="m877.66 159.13c-31.732 0.51688-63.441 0.89475-94.918 1.1528l0.0491-24.368c31.721 0.60127 63.44 1.304 94.881 2.1219z" fill="none" stroke="#000000" stroke-width="1px"/>
 </g>
 <g id="LeafDistal7">
  <path id="path4649" d="m782.74 160.28c-32.528 0.26663-64.811 0.40529-96.621 0.43714l-2.5132-26.374c32.853 0.42242 66.02 0.94011 99.184 1.5687z" fill="none" stroke="#000000" stroke-width="1px"/>
 </g>
 <g id="LeafDistal6">
  <path id="path4647" d="m686.12 160.72c-33.077 0.0331-65.643-0.0492-97.443-0.22327l0.83938-27.122c30.882 0.24436 62.34 0.5636 94.09 0.97183z" fill="none" stroke="#000000" stroke-width="1px"/>
 </g>
 <g id="LeafDistal5">
  <path id="path4645" d="m588.67 160.49c-33.734-0.18463-66.606-0.47242-98.312-0.83497l-0.85493-26.843c32.373 0.10618 65.837 0.2849 100.01 0.55528z" fill="none" stroke="#000000" stroke-width="1px"/>
 </g>
 <g id="LeafDistal4">
  <path id="path4643" d="m490.36 159.66c-33.634-0.38461-65.955-0.85334-96.599-1.3723l-0.0176-25.589c30.496-0.0231 62.555 0.01 95.761 0.11844z" fill="none" stroke="#000000" stroke-width="1px"/>
 </g>
 <g id="LeafDistal3">
  <path id="path4641" d="m393.76 158.29c-34.826-0.58977-67.487-1.2444-97.447-1.914l-0.87464-23.406c30.285-0.14223 63.263-0.24227 98.304-0.26879z" fill="none" stroke="#000000" stroke-width="1px"/>
 </g>
 <g id="LeafDistal2">
  <path id="path4639" d="m296.32 156.37c-37.292-0.83352-70.402-1.6904-98.3-2.4745l0.79859-20.288c27.565-0.23913 60.142-0.47174 96.627-0.6431z" fill="none" stroke="#000000" stroke-width="1px"/>
 </g>
 <g id="LeafDistal1">
  <path id="path4635" d="m198.02 153.9c-61.345-1.7242-97.49-3.0968-97.49-3.0968l0.84745-16.102s36.458-0.56089 97.441-1.0899z" fill="none" stroke="#000000" stroke-width="1px"/>
 </g>
 <g id="labels" fill="#000000" font-family="Arial" font-size="30px" letter-spacing="0px" text-anchor="middle" word-spacing="0px">
  <text id="text3855" x="154.63376" y="121.5625" text-align="center" style="line-height:1.25" xml:space="preserve"><tspan id="tspan3853" x="154.63376" y="121.5625">1</tspan></text>
  <text id="text3859" x="242.83293" y="121.5625" text-align="center" style="line-height:1.25" xml:space="preserve"><tspan id="tspan3857" x="242.83293" y="121.5625">2</tspan></text>
  <text id="text3863" x="339.21112" y="121.5625" text-align="center" style="line-height:1.25" xml:space="preserve"><tspan id="tspan3861" x="339.21112" y="121.5625">3</tspan></text>
  <text id="text3867" x="434.18994" y="121.5625" text-align="center" style="line-height:1.25" xml:space="preserve"><tspan id="tspan3865" x="434.18994" y="121.5625">4</tspan></text>
  <text id="text3887" x="533.2467" y="121.5625" text-align="center" style="line-height:1.25" xml:space="preserve"><tspan id="tspan3885" x="533.2467" y="121.5625">5</tspan></text>
  <text id="text3891" x="629.07294" y="121.5625" text-align="center" style="line-height:1.25" xml:space="preserve"><tspan id="tspan3889" x="629.07294" y="121.5625">6</tspan></text>
  <text id="text3895" x="726.29865" y="121.5625" text-align="center" style="line-height:1.25" xml:space="preserve"><tspan id="tspan3893" x="726.29865" y="121.5625">7</tspan></text>
  <text id="text3899" x="825.51471" y="121.5625" text-align="center" style="line-height:1.25" xml:space="preserve"><tspan id="tspan3897" x="825.51471" y="121.5625">8</tspan></text>
  <text id="text3975" x="926.35181" y="121.5625" text-align="center" style="line-height:1.25" xml:space="preserve"><tspan id="tspan3973" x="926.35181" y="121.5625">9</tspan></text>
  <text id="text3979" x="1014.2554" y="121.5625" text-align="center" style="line-height:1.25" xml:space="preserve"><tspan id="tspan3977" x="1014.2554" y="121.5625">10</tspan></text>
  <text id="text3983" x="1111.7766" y="121.5625" text-align="center" style="line-height:1.25" xml:space="preserve"><tspan id="tspan3981" x="1111.7766" y="121.5625">11</tspan></text>
 </g>
</svg>
