<?xml version='1.0' encoding='utf-8'?>
<svg xmlns="http://www.w3.org/2000/svg" height="628.49" id="svg9539" version="1.1" viewBox="0 0 757.44336 628.48535" width="757.44">
    <g id="outlines">
        <path d="m202.69 134.55s-2.9782-10.637-14.891-14.466l-7.6583 8.9347s17.019 4.6801 22.975 17.444" fill="none" id="path13909" stroke="#000000" stroke-miterlimit="10" stroke-width="0.5" />
    </g>
    <g id="LeafYoung">
        <path d="m187.79 120.08s-4.2546-28.081-42.972-16.593c0 0-31.484-1.2764-34.463 54.034 0 0 19.571 8.5093 34.888-1.2764 0 0 28.081 4.2546 34.888-27.23z" fill="#00d400" id="path13911" stroke="#000000" stroke-miterlimit="10" stroke-width="0.5" />
        <path d="m183.11 125.19s-29.357-12.338-65.947 27.23" fill="#00d400" id="path13913" stroke="#000000" stroke-miterlimit="10" stroke-width="0.5" />
        <path d="m168.22 123.91s-2.5528-8.9347-9.7856-12.338" fill="#00d400" id="path13915" stroke="#000000" stroke-miterlimit="10" stroke-width="0.5" />
        <path d="m167.49 133.33s2.9637-5.0099 0.72972-9.4244" fill="#00d400" id="path13917" stroke="#000000" stroke-miterlimit="10" stroke-width="0.5" />
        <path d="m157.87 124.31s-4.8136-4.8136-13.237-5.7161" fill="#00d400" id="path13919" stroke="#000000" stroke-miterlimit="10" stroke-width="0.5" />
        <path d="m155.76 137.85s5.4153-6.9195 2.1059-13.538" fill="#00d400" id="path13921" stroke="#000000" stroke-miterlimit="10" stroke-width="0.5" />
        <path d="m146.74 129.12s-7.5212-3.0085-12.034-2.4068" fill="#00d400" id="path13923" stroke="#000000" stroke-miterlimit="10" stroke-width="0.5" />
        <path d="m135 135.74s-5.4153-2.4068-11.131-0.6017" fill="#00d400" id="path13925" stroke="#000000" stroke-miterlimit="10" stroke-width="0.5" />
        <path d="m125.37 144.77h-6.017" fill="#00d400" id="path13927" stroke="#000000" stroke-miterlimit="10" stroke-width="0.5" />
    </g>
    <g id="Flower">
        <path d="m356.44 116.82c1.8909-12.102 14.371-8.5093 14.371-8.5093 17.208 3.0255 21.179 17.586 21.179 17.586 27.797 37.63-27.419 34.983-27.419 34.983s-42.925 20.422-37.252-19.855c0 0-3.2146-6.2402 3.0255-13.426 0 0 11.157-25.717 26.095-10.778z" fill="#e9afdd" id="path14094" stroke="#000000" stroke-miterlimit="10" stroke-width="0.5" />
        <path d="m370.44 162.77s6.9966 3.4037 12.102 1.1346c0 0 5.1056-6.9966 0.75639-12.291 0 0-0.56728-15.128-17.586-13.048 0 0-4.7274 3.0255 1.3237 6.6184l0.37819 6.4293s2.8365 6.6184 3.0256 11.157z" fill="#e9afdd" id="path14096" stroke="#000000" stroke-miterlimit="10" stroke-width="0.5" />
        <path d="m382.54 163.91s3.5928-8.8875-3.971-10.968c0 0-8.3202-7.1857-11.535-7.753" fill="#e9afdd" id="path14100" stroke="#000000" stroke-miterlimit="10" stroke-width="0.5" />
        <path d="m362.12 166.18s-2.6474-2.4582-6.4293 2.2692c-5.862 4.9165-13.048 0.94548-13.048 0.94548s-0.5673-3.5928-5.4838-5.862c0 0-3.971-1.891 3.0255-11.535 0 0 8.6984-12.48 15.128-9.2657 0 0 5.2947 4.3492 5.6729 6.4293 0 0-3.2146 5.862 1.1346 17.019z" fill="#e9afdd" id="path14098" stroke="#000000" stroke-miterlimit="10" stroke-width="0.5" />
        <path d="m336.97 158.23s6.8075-3.2146 6.8075-5.4838c0 0 10.778 1.1346 11.535-10.022" fill="#e9afdd" id="path14102" stroke="#000000" stroke-miterlimit="10" stroke-width="0.5" />
        <path d="m370.44 162.77c-0.75639-12.669-9.0766-16.64-9.0766-16.64-4.3492 7.5638 0.75638 20.044 0.75638 20.044s3.6243-0.11443 3.6243-2.3875c0 0 4.4445 1.9789 4.6959-1.0162z" fill="#e9afdd" id="path14112" stroke="#000000" stroke-miterlimit="10" stroke-width="0.5" />
        <path d="m365.74 163.79s-3.0118-4.3592-4.3807-17.657" fill="#e9afdd" id="path14114" stroke="#000000" stroke-miterlimit="10" stroke-width="0.5" />
    </g>
    <g id="g315">
        <path d="m138.71 236.05s48.776 6.8882 69.626-9.6806" fill="none" id="path13879" stroke="#000000" stroke-miterlimit="10" stroke-width=".91532" />
        <path d="m137.04 243.87s27.739 3.5372 40.398-3.1648c0 0 1.6755-0.18616 5.9573 0.74467 0 0 10.425-0.74467 29.6-8.5636" fill="none" id="path13881" stroke="#000000" stroke-miterlimit="10" stroke-width=".91532" />
    </g>
    <g id="Pod-7DAF">
        <path d="m177.44 240.71s-24.202 10.425-28.111 29.042c0 0 0.55849 2.7925-3.351 5.585 0 0-7.4466 27.739-0.18616 30.904 0 0 6.3296-9.3083 10.798-10.984 0 0 7.0743-5.0265 2.9787-16.755 0 0 1.8617-6.702 5.3988-8.7498 0 0 3.351-0.74466 1.3032-11.17 0 0 2.9787-3.7233 3.7233-8.1913 0 0 2.9786-5.585 7.4466-9.6806z" fill="#b3ff80" id="path13885" stroke="#000000" stroke-miterlimit="10" stroke-width=".91532" />
        <path d="m151.93 269.94s3.9095 4.8403 7.6328 2.9786" fill="#b3ff80" id="path13887" stroke="#000000" stroke-miterlimit="10" stroke-width=".45766" />
        <path d="m157.52 278.13s-1.117-4.468-7.2605-3.351" fill="#b3ff80" id="path13889" stroke="#000000" stroke-miterlimit="10" stroke-width=".45766" />
        <path d="m177.44 240.71s-11.728 18.989-0.93082 27.739l2.4202 11.728s0.37233 2.234 5.3988 5.9573 8.5636 10.611 8.5636 10.611 8.0051 6.5158 17.5 0.37234c0 0-4.468-9.8668-12.845-18.244l-5.2126-10.053s-1.3032-2.9787-2.234-3.9095c0 0-2.234-7.4466-6.8882-11.542z" fill="#b3ff80" id="path13895" stroke="#000000" stroke-miterlimit="10" stroke-width=".91532" />
        <path d="m179.86 272.17s6.1435 4.0956 10.053-2.7925" fill="#b3ff80" id="path13897" stroke="#000000" stroke-miterlimit="10" stroke-width=".45766" />
        <path d="m181.53 279.24s1.4893-8.0051 11.17-3.351" fill="#b3ff80" id="path13899" stroke="#000000" stroke-miterlimit="10" stroke-width=".45766" />
    </g>
    <g id="g405">
        <path d="m305.9 207.86s68.542 9.6795 97.842-13.604" fill="none" id="path13849" stroke="#000000" stroke-miterlimit="10" stroke-width="0.5" />
        <path d="m303.55 218.85s38.98 4.9706 56.769-4.4474c0 0 2.3545-0.2616 8.3715 1.0464 0 0 14.65-1.0464 41.596-12.034" fill="none" id="path13851" stroke="#000000" stroke-miterlimit="10" stroke-width="0.5" />
    </g>
    <g id="Pod-10-13DAF">
        <path d="m360.32 214.4s-34.009 14.65-39.503 40.811c0 0 0.78482 3.9241-4.709 7.8483 0 0-10.464 38.98-0.2616 43.427 0 0 8.8947-13.08 15.173-15.435 0 0 9.9412-7.0634 4.1858-23.545 0 0 2.6161-9.4179 7.5866-12.296 0 0 4.709-1.0464 1.8313-15.697 0 0 4.1857-5.2322 5.2322-11.511 0 0 4.1857-7.8483 10.464-13.604z" fill="#99ff55" id="path13855" stroke="#000000" stroke-miterlimit="10" stroke-width="0.5" />
        <path d="m324.48 255.48s5.4938 6.8018 10.726 4.1857" fill="#99ff55" id="path13857" stroke="#000000" stroke-miterlimit="10" stroke-width=".64312" />
        <path d="m332.32 266.99s-1.5696-6.2786-10.203-4.709" fill="#99ff55" id="path13859" stroke="#000000" stroke-miterlimit="10" stroke-width=".64312" />
        <path d="m360.32 214.4s-16.481 26.684-1.308 38.98l3.4009 16.481s0.52322 3.1393 7.5866 8.3715c7.0635 5.2322 12.034 14.912 12.034 14.912s11.249 9.1563 24.591 0.52321c0 0-6.2786-13.865-18.051-25.638l-7.325-14.127s-1.8313-4.1858-3.1393-5.4938c0 0-3.1393-10.464-9.6796-16.22z" fill="#99ff55" id="path13865" stroke="#000000" stroke-miterlimit="10" stroke-width="0.5" />
        <path d="m363.72 258.62s8.6331 5.7554 14.127-3.9241" fill="#99ff55" id="path13867" stroke="#000000" stroke-miterlimit="10" stroke-width=".64312" />
        <path d="m366.07 268.56s2.0929-11.249 15.697-4.709" fill="#99ff55" id="path13869" stroke="#000000" stroke-miterlimit="10" stroke-width=".64312" />
    </g>
    <g id="g495">
        <path d="m514.9 201.29s78.822 11.131 112.52-15.644" fill="none" id="path13781" stroke="#000000" stroke-miterlimit="10" stroke-width="0.5" />
        <path d="m512.2 213.93s44.826 5.7161 65.284-5.1144c0 0 2.7076-0.30085 9.6271 1.2034 0 0 16.847-1.2034 47.835-13.839" fill="none" id="path13783" stroke="#000000" stroke-miterlimit="10" stroke-width="0.5" />
    </g>
    <g id="Pod-14-17DAF">
        <path d="m577.48 208.81s-39.11 16.847-45.428 46.932c0 0 0.90253 4.5127-5.4153 9.0254 0 0-12.034 44.826-0.30084 49.941 0 0 10.229-15.042 17.449-17.75 0 0 11.432-8.1229 4.8136-27.076 0 0 3.0085-10.831 8.7246-14.14 0 0 5.4153-1.2034 2.106-18.051 0 0 4.8136-6.017 6.017-13.237 0 0 4.8135-9.0254 12.034-15.644z" fill="#44aa00" id="path13785" stroke="#000000" stroke-miterlimit="10" stroke-width="0.5" />
        <path d="m536.26 256.04s6.3178 7.822 12.335 4.8136" fill="#44aa00" id="path13789" stroke="#000000" stroke-miterlimit="10" stroke-width=".73958" />
        <path d="m545.29 269.28s-1.8051-7.2204-11.733-5.4153" fill="#44aa00" id="path13791" stroke="#000000" stroke-miterlimit="10" stroke-width=".73958" />
        <path d="m577.48 208.81s-18.953 30.686-1.5042 44.826l3.911 18.953s0.6017 3.6102 8.7246 9.6271c8.1229 6.017 13.839 17.148 13.839 17.148s12.936 10.53 28.28 0.60169c0 0-7.2204-15.945-20.759-29.483l-8.4237-16.246s-2.106-4.8136-3.6102-6.3178c0 0-3.6102-12.034-11.131-18.653z" fill="#44aa00" id="path13787" stroke="#000000" stroke-miterlimit="10" stroke-width="0.5" />
        <path d="m581.39 259.65s9.928 6.6187 16.246-4.5127" fill="#44aa00" id="path13793" stroke="#000000" stroke-miterlimit="10" stroke-width=".73958" />
        <path d="m584.1 271.09s2.4068-12.936 18.051-5.4153" fill="#44aa00" id="path13795" stroke="#000000" stroke-miterlimit="10" stroke-width=".73958" />
    </g>
    <g id="Root">
        <path d="m205.93 520.2c-0.33438-4.2955-0.61052-13.266-0.61365-19.934l-0.006-12.124-3.7867-7.3547c-3.2051-6.2252-3.7867-8.2452-3.7867-13.153 0-6.1436 1.566-15.146 2.9314-16.852 0.6385-0.79766 2.6343-11.579 2.7299-14.748 0.0479-1.5878-4.0323 0.69616-6.3698 3.5656-1.4326 1.7586-3.7534 4.6168-5.1571 6.3515-1.497 1.85-4.0967 3.6167-6.2875 4.2731-2.8907 0.86608-4.668 2.3981-7.861 6.7761-2.5162 3.4501-5.6954 6.4935-8.1492 7.8011-4.2018 2.2392-4.0993 1.9883-4.4219 10.82-0.0411 1.1252-0.39425 2.3677-0.78475 2.7611-0.3905 0.39337-0.71653 1.6027-0.7245 2.6874-0.0115 1.5668-0.19327 1.6896-0.88421 0.59743-0.47834-0.75615-0.67222-1.6943-0.43087-2.0849 0.24137-0.39053 0.66806-3.2864 0.94824-6.4352 0.51799-5.8216-0.20126-7.0252-2.525-4.2253-1.6656 2.0069-9.4276 7.3124-9.2983 6.3556 0.0562-0.4155 2.3821-2.827 5.1687-5.3588 3.5938-3.2653 6.3049-4.8674 9.3267-5.512 4.2985-0.91679 5.6565-2.1002 12.274-10.696 1.5022-1.9514 4.6972-4.4447 7.1-5.5406 3.8677-1.764 4.102-2.0333 2.0436-2.3482-1.2788-0.19555-3.9501 0.13105-5.9361 0.72618-1.9861 0.59504-3.9852 0.8507-4.4424 0.56812-0.45724-0.28252-2.685 0.32731-4.9505 1.3554-4.6263 2.0993-6.4859 2.3689-6.4859 0.94043 0-0.53368 1.2869-1.2277 2.8597-1.5423 1.5728-0.31456 3.089-0.94291 3.3692-1.3963 0.28021-0.45342 2.0034-0.8244 3.8292-0.8244s4.1684-0.45422 5.2058-1.0094c1.0373-0.55516 3.855-1.1698 6.2614-1.3659 3.458-0.28193 4.8211-0.92614 6.5015-3.0732 1.1694-1.4942 3.9057-3.95 6.0808-5.4573l3.9547-2.7406-0.37291-5.7202c-0.20516-3.1461-1.138-7.2112-2.073-9.0335-3.269-6.3711-2.7705-22.297 0.81008-25.878 2.0869-2.0869 3.3227-8.208 3.3283-16.486 0.004-5.6393-0.32362-7.7998-1.178-7.7732-0.65084 0.0207-3.5263 1.4152-6.39 3.0998-4.1828 2.4606-5.6532 4.0181-7.4772 7.9201-2.0667 4.4212-2.8478 5.1199-8.7022 7.7846-8.1863 3.7261-14.45 10.502-14.716 15.92-0.0966 1.9684-0.66745 6.1349-1.2685 9.2589-0.60108 3.124-1.0481 7.2737-0.99341 9.2215 0.11476 4.0868-1.3395 7.3452-3.2783 7.3452-1.3606 0-1.2915-4.7267 0.19374-13.253 0.31744-1.8223 0.48036-4.062 0.36205-4.977-0.11831-0.91498 0.45119-2.3299 1.2656-3.1443 1.3978-1.3978 1.9943-3.2388 1.0494-3.2388-0.23723 0-1.914 1.0062-3.7262 2.236s-5.0088 2.5101-7.1035 2.845c-2.8905 0.46221-5.4723 2.0893-10.71 6.75-6.532 5.8118-9.2686 7.3498-9.2686 5.209 0-0.52067 0.3628-0.94667 0.80623-0.94667s3.6984-2.5531 7.2332-5.6736c4.4547-3.9325 7.9839-6.1644 11.5-7.2729 2.7904-0.87961 5.0735-1.9475 5.0735-2.3731 0-0.42559 0.6291-0.77379 1.398-0.77379 0.76889 0 3.0908-2.2365 5.1599-4.97 7.3102-9.6578 8.6114-10.899 13.765-13.13 8.992-3.8928 7.0762-4.3043-9.436-2.0265-3.124 0.43098-6.745 1.4628-8.0467 2.293-3.4134 2.177-8.52 2.9852-8.52 1.3484 0-0.74355 1.5053-1.5703 3.55-1.9498 1.9525-0.36234 4.2411-1.2785 5.0858-2.036 0.84468-0.75748 3.8327-1.5047 6.64-1.6604 2.8073-0.15561 6.048-0.78825 7.2015-1.4056 1.1535-0.61734 3.1105-0.86812 4.3489-0.55729 2.9115 0.73074 8.6961-1.6977 10.279-4.3153 1.5062-2.491 15.533-13.244 17.276-13.244 1.2941 0 2.3834 2.8104 2.4059 6.2078 0.008 1.1863 1.5859 3.1072 4.0363 4.9133 2.2128 1.631 5.2259 3.9012 6.6957 5.0448 2.6537 2.0648 5.9445 2.6106 18.628 3.0895 2.8637 0.10827 7.1814 0.54696 9.5951 0.97521 2.8309 0.50224 5.0716 0.41293 6.3135-0.25175 2.0489-1.0965 10.598-0.37669 10.598 0.89238 0 0.69444-9.0841 1.8705-14.2 1.8384-3.3084-0.0207-15.593-0.89496-21.537-1.5326-3.1535-0.33828-4.97-0.17306-4.97 0.4521 0 1.9421 4.3517 5.8239 9.4667 8.4444 4.0867 2.0937 6.1499 4.036 9.5916 9.0295 5.1233 7.4334 7.0421 9.0524 14.075 11.876 4.9927 2.0048 17.813 12.937 16.597 14.153-0.52938 0.52937-1.4894-0.2269-9.5755-7.5444-3.4498-3.1218-5.945-4.5459-8.8146-5.0307-2.8211-0.47662-5.0335-1.7164-7.4947-4.2-5.2335-5.2809-7.7521-8.2905-7.7521-9.2632 0-0.48002-1.2246-2.046-2.7214-3.4801l-2.7214-2.6073-0.59346 2.3645c-0.32639 1.3005-0.23365 3.3526 0.20611 4.5602 0.88125 2.4201 0.68179 26.12-0.2275 27.029-1.1382 1.1381-1.8034-0.75828-1.6502-4.7044 0.26353-6.7905 0.22942-10.44-0.14836-15.869-0.19928-2.8637-0.43014-7.1582-0.51302-9.5434-0.1286-3.7003-0.53272-4.5338-2.754-5.68-3.485-1.7982-5.6382-4.3184-7.82-9.1527-1.2484-2.7662-3.2146-4.9099-6.2948-6.8633-2.4636-1.5624-4.8218-2.8407-5.2406-2.8407-0.41873 0-0.76133 1.9741-0.76133 4.3868 0 4.3505-1.5539 11.277-2.9522 13.159-0.91985 1.2383-2.7112 12.144-2.7207 16.563-0.007 2.9805 0.56477 3.7485 5.2803 7.1 2.9421 2.0911 6.8357 6.0676 8.7778 8.9647 2.262 3.3743 4.2616 5.317 5.6819 5.52 2.1679 0.30995 9.2577 6.7484 12.915 11.728l1.8911 2.575 5.1763-1.3917c5.9978-1.6126 10.444-1.802 10.444-0.44503 0 0.52067-0.3195 1.0016-0.71 1.0687-0.3905 0.0672-1.775 0.27217-3.0767 0.45538-11.06 1.5576-11.741 2.4888-4.0612 5.5568 4.5173 1.8047 17.933 12.799 15.618 12.799-0.58971 0-3.6354-2.2872-6.7683-5.0825-4.0755-3.6365-6.7448-5.2502-9.3823-5.672-3.9316-0.62871-8.1282-4.1619-11.963-10.072-2.6356-4.0617-6.893-8.1058-7.6921-7.3067-0.32433 0.32433-0.6264 6.787-0.67129 14.362-0.0824 13.895-0.91863 17.965-1.8084 8.8018-0.46401-4.7785-0.1714-12.117 0.80215-20.117 0.42675-3.5068 0.21412-3.9436-2.8775-5.9108-1.836-1.1682-4.1842-3.7822-5.218-5.8088-1.8615-3.6489-8.7752-10.014-9.7827-9.007-0.28755 0.28755 0.13144 2.443 0.93112 4.7899 1.9652 5.7674 1.2132 17.228-1.5234 23.217-2.5528 5.5874-4.2272 18.246-3.4996 26.458 0.39774 4.4891 1.5719 8.4116 4.109 13.727 2.8452 5.9606 3.5099 8.3836 3.3399 12.175-0.11673 2.6033-0.46801 10.804-0.78058 18.223-0.31257 7.4195-0.89897 13.49-1.3031 13.49-0.40414 0-1.0084-3.5145-1.3428-7.81z" fill="#d38d5f" id="path14409" stroke="#000000" stroke-miterlimit="10" stroke-width=".94667" />
    </g>
    <g id="g577">
        <path d="m316.21 453.86-0.60169 64.983" fill="none" id="path14141" stroke="#000000" stroke-miterlimit="10" stroke-width="0.5" />
        <path d="m323.13 454.16s-0.90255 16.847 1.2034 33.695c2.1059 16.847 0 30.686 0 30.686" fill="none" id="path14143" stroke="#000000" stroke-miterlimit="10" stroke-width="0.5" />
    </g>
    <g id="Nodule">
        <path d="m338.43 510.05c-1.7031 2.9498-7.5747 7.2609-13.115 4.0625-5.5399-3.1985-6.5443-4.8733-4.8412-7.8231s7.8755-6.9601 13.415-3.7617c5.5399 3.1985 6.2435 4.5725 4.5404 7.5223z" fill="#ffe680" fill-rule="evenodd" id="path14151" stroke="#000000" stroke-miterlimit="10" stroke-width="0.5" />
        <path d="m340.28 488.46c-1.9108 3.3096-6.6584 1.8661-10.975-0.62619-4.3168-2.4923-8.0724-7.4965-6.1616-10.806 1.9108-3.3096 8.7643-0.96362 13.081 1.5287 4.3168 2.4923 5.9664 6.594 4.0556 9.9035z" fill="#ffe680" fill-rule="evenodd" id="path14153" stroke="#000000" stroke-miterlimit="10" stroke-width="0.5" />
        <path d="m316.51 466.95c-0.00002 3.0739-3.3674 2.858-7.5212 2.858s-6.3178-2.191-6.3178-5.2648c-0.00001-3.0738 0.96057-4.6631 5.1144-4.6631s8.7246 3.9961 8.7246 7.0699z" fill="#ffe680" fill-rule="evenodd" id="path14155" stroke="#000000" stroke-miterlimit="10" stroke-width="0.5" />
        <path d="m318.57 475.25c-0.83138 3.1028-2.3132 5.4981-7.021 4.2366-4.7077-1.2614-9.3543-0.28666-8.523-3.3894 0.83138-3.1028 2.3132-5.4981 7.021-4.2366 4.7077 1.2614 9.3543 0.28666 8.523 3.3894z" fill="#ffe680" fill-rule="evenodd" id="path14157" stroke="#000000" stroke-miterlimit="10" stroke-width="0.5" />
    </g>
    <g id="Seed-10-13DAF">
        <path d="m380.23 432.6s3.1761-4.2348 5.2935-1.0587c0 0 16.939-2.1174 3.1761-14.116 0 0-14.293-9.7048-18.175 5.47 0 0 1.2352 10.058 9.7048 9.7049z" fill="#ffccaa" id="path14203" stroke="#000000" stroke-miterlimit="10" stroke-width="0.5" />
    </g>
    <g id="Seed-14-17DAF">
        <path d="m419.5 435.86s3.5353-4.7137 5.8921-1.1784c0 0 18.855-2.3569 3.5353-15.712 0 0-15.909-10.802-20.23 6.0886 0 0 1.3748 11.195 10.802 10.802z" fill="#ffb380" id="path14201" stroke="#000000" stroke-miterlimit="10" stroke-width="0.5" />
    </g>
    <g id="Seed-21DAF">
        <path d="m458.01 438.3s3.8292-5.1056 6.3819-1.2764c0 0 20.422-2.5528 3.8292-17.019 0 0-17.231-11.7-21.911 6.5947 0 0 1.4891 12.126 11.7 11.7z" fill="#ff9955" id="path14199" stroke="#000000" stroke-miterlimit="10" stroke-width="0.5" />
    </g>
    <g id="Seed-25DAF">
        <path d="m498.92 439.36s0.42548-4.8928-6.8074-2.7655c0 0-21.06-6.382-0.21271-21.06 0 0 21.911-3.191 21.699 16.168 0 0 0.42547 11.488-14.678 7.6583z" fill="#ff7f2a" id="path14259" stroke="#000000" stroke-miterlimit="10" stroke-width="0.5" />
    </g>
    <g id="Seed-28DAF">
        <path d="m534.18 439.15s2.1273-8.2966 6.3819 0.21269c0 0 16.806 2.1274 15.529-12.551 0 0-10.424-30.208-36.164-0.21269 0 0-2.1273 9.1474 14.253 12.551z" fill="#ff6600" id="path14261" stroke="#000000" stroke-miterlimit="10" stroke-width="0.5" />
    </g>
    <g id="Seed-35DAF">
        <path d="m579.41 437.36s0.17927-6.2142 6.0568 1.0701c0 0 10.594 5.5456 16.108-7.9926 0 0-0.62578-15.174-17.801-16.739 0 0-22.268-0.81132-20.533 22.642 0 0-0.51549 10.196 16.169 1.0196z" fill="#d45500" id="path14255" stroke="#000000" stroke-miterlimit="10" stroke-width="0.5" />
    </g>
    <g id="Seed-42DAF">
        <path d="m632.23 439.58s1.0637-7.2329-7.2329 0c0 0-13.402 4.2546-17.019-12.551 0 0 3.8292-17.444 24.039-15.742 0 0 25.953 3.6164 19.146 30.421 0 0-1.4892 11.913-18.933-2.1273z" fill="#803300" id="path14205" stroke="#000000" stroke-miterlimit="10" stroke-width="0.5" />
    </g>
    <g id="labels" style="font-size:30px;font-family:sans-serif;fill:#000000">
        <text id="text14439" style="font-size:16.713px;font-family:Arial;fill:#000000;letter-spacing:0px;text-anchor:middle;word-spacing:0px;line-height:1.25;text-align:center" x="160.10205" y="182.07161" xml:space="preserve">
            <tspan id="tspan14437" style="stroke-width:.55710" x="170.10205" y="182.07161">Young Leaf</tspan>
        </text>
        <text id="text14457" style="font-size:16.713px;font-family:Arial;fill:#000000;letter-spacing:0px;text-anchor:middle;word-spacing:0px;line-height:1.25;text-align:center" x="364.37054" y="189.01048" xml:space="preserve">
            <tspan id="tspan14455" style="stroke-width:.55710" x="374.37054" y="189.01048">Flower</tspan>
        </text>
        <text id="text14505" style="font-size:16.713px;font-family:Arial;fill:#000000;letter-spacing:0px;text-anchor:middle;word-spacing:0px;line-height:1.25;text-align:center" x="165.09735" y="329.72726" xml:space="preserve">
            <tspan id="tspan14503" style="stroke-width:.55710" x="175.09735" y="329.72726">1 cm Pod (7 DAF)</tspan>
        </text>
        <text id="text14517" style="font-size:16.713px;font-family:Arial;fill:#000000;letter-spacing:0px;text-anchor:middle;word-spacing:0px;line-height:1.25;text-align:center" x="353.22159" y="329.72726" xml:space="preserve">
            <tspan id="tspan14515" style="stroke-width:.55710" x="373.22159" y="329.72726">Pod shell (10 - 13 DAF)</tspan>
        </text>
        <text id="text14525" style="font-size:16.713px;font-family:Arial;fill:#000000;letter-spacing:0px;text-anchor:middle;word-spacing:0px;line-height:1.25;text-align:center" x="565.06165" y="329.72726" xml:space="preserve">
            <tspan id="tspan14523" style="stroke-width:.55710" x="595.06165" y="329.72726">Pod shell (14 - 17 DAF)</tspan>
        </text>
        <text id="text14529" style="font-size:16.713px;font-family:Arial;fill:#000000;letter-spacing:0px;text-anchor:middle;word-spacing:0px;line-height:1.25;text-align:center" x="407.04041" y="398.6048" xml:space="preserve">
            <tspan id="tspan14527" style="stroke-width:.55710" x="407.04041" y="398.6048">Seeds (DAF)</tspan>
        </text>
        <text id="text14565" style="font-size:16.713px;font-family:Arial;fill:#000000;letter-spacing:0px;text-anchor:middle;word-spacing:0px;line-height:1.25;text-align:center" x="180.40475" y="516.89001" xml:space="preserve">
            <tspan id="tspan14563" style="stroke-width:.55710" x="180.40475" y="516.89001">Root</tspan>
        </text>
        <text id="text14569" style="font-size:16.713px;font-family:Arial;fill:#000000;letter-spacing:0px;text-anchor:middle;word-spacing:0px;line-height:1.25;text-align:center" x="282.07233" y="513.68512" xml:space="preserve">
            <tspan id="tspan14567" style="stroke-width:.55710" x="282.07233" y="513.68512">Nodule</tspan>
        </text>
        <text id="text14577" style="font-size:30px;font-family:Arial;fill:#000000;letter-spacing:0px;text-anchor:middle;word-spacing:0px;line-height:1.25;text-align:center" x="556.47461" y="142.79039" xml:space="preserve">
            <tspan id="tspan14575" style="font-size:16px;fill:#808080" x="556.47461" y="142.79039">DAF = Days after fertilization</tspan>
        </text>
    </g>
    <g id="g645" style="font-size:30px;font-family:sans-serif;fill:#000000">
        <text id="text14537" style="font-size:16.713px;font-family:Arial;fill:#000000;letter-spacing:0px;text-anchor:middle;word-spacing:0px;line-height:1.25;text-align:center" x="378.8017" y="455.65158" xml:space="preserve">
            <tspan id="tspan14535" style="font-size:10.399px;stroke-width:.55710" x="398.8017" y="455.65158">10 - 13</tspan>
        </text>
        <text id="text14541" style="font-size:16.713px;font-family:Arial;fill:#000000;letter-spacing:0px;text-anchor:middle;word-spacing:0px;line-height:1.25;text-align:center" x="422.21545" y="455.65158" xml:space="preserve">
            <tspan id="tspan14539" style="font-size:10.399px;stroke-width:.55710" x="442.21545" y="455.65158">14 - 17</tspan>
        </text>
        <text id="text14545" style="font-size:16.713px;font-family:Arial;fill:#000000;letter-spacing:0px;text-anchor:middle;word-spacing:0px;line-height:1.25;text-align:center" x="459.49445" y="455.65158" xml:space="preserve">
            <tspan id="tspan14543" style="font-size:10.399px;stroke-width:.55710" x="479.49445" y="455.65158">21</tspan>
        </text>
        <text id="text14549" style="font-size:16.713px;font-family:Arial;fill:#000000;letter-spacing:0px;text-anchor:middle;word-spacing:0px;line-height:1.25;text-align:center" x="497.45996" y="455.65158" xml:space="preserve">
            <tspan id="tspan14547" style="font-size:10.399px;stroke-width:.55710" x="520.45996" y="455.65158">25</tspan>
        </text>
        <text id="text14553" style="font-size:16.713px;font-family:Arial;fill:#000000;letter-spacing:0px;text-anchor:middle;word-spacing:0px;line-height:1.25;text-align:center" x="537.19287" y="455.65158" xml:space="preserve">
            <tspan id="tspan14551" style="font-size:10.399px;stroke-width:.55710" x="557.19287" y="455.65158">28</tspan>
        </text>
        <text id="text14557" style="font-size:16.713px;font-family:Arial;fill:#000000;letter-spacing:0px;text-anchor:middle;word-spacing:0px;line-height:1.25;text-align:center" x="584.40686" y="455.65158" xml:space="preserve">
            <tspan id="tspan14555" style="font-size:10.399px;stroke-width:.55710" x="600.40686" y="455.65158">35</tspan>
        </text>
        <text id="text14561" style="font-size:16.713px;font-family:Arial;fill:#000000;letter-spacing:0px;text-anchor:middle;word-spacing:0px;line-height:1.25;text-align:center" x="628.46155" y="455.65158" xml:space="preserve">
            <tspan id="tspan14559" style="font-size:10.399px;stroke-width:.55710" x="648.46155" y="455.65158">42</tspan>
        </text>
    </g>
</svg>
