<?xml version="1.0" encoding="utf-8"?>
<!-- Generator: Adobe Illustrator 16.0.0, SVG Export Plug-In . SVG Version: 6.00 Build 0)  -->
<!DOCTYPE svg PUBLIC "-//W3C//DTD SVG 1.1//EN" "http://www.w3.org/Graphics/SVG/1.1/DTD/svg11.dtd">
<svg version="1.1" id="Layer_1" xmlns="http://www.w3.org/2000/svg" xmlns:xlink="http://www.w3.org/1999/xlink" x="0px" y="0px"
	 width="612px" height="792px" viewBox="0 0 612 792" enable-background="new 0 0 612 792" xml:space="preserve">
<g id="SAM">
	<path fill="none" stroke="#000000" stroke-width="0.5" stroke-miterlimit="10" d="M491.436,549.076
		c0-6.12,0.918-11.016,1.76-14.458c0.612-2.448,1.377-5.585,3.29-9.333c0.994-1.989,2.371-4.667,4.896-7.573
		c4.973-5.661,10.939-7.804,13.312-8.645c3.748-1.301,6.961-1.76,8.95-1.836c5.967-0.383,10.404,0.918,11.322,1.224
		c2.83,0.842,4.742,1.912,7.038,3.213c2.447,1.301,4.972,2.754,7.649,5.278c0.688,0.688,2.831,2.754,4.819,5.967
		c2.907,4.591,3.749,8.798,4.743,13.617c0.688,3.213,1.301,7.65,1.301,13.005"/>
	<path fill="none" stroke="#000000" stroke-width="0.5" stroke-miterlimit="10" d="M499.469,520.466
		c1.988,2.983,4.207,4.819,5.661,5.891c2.83,2.065,5.508,3.06,8.032,3.901c1.683,0.611,3.901,1.377,6.809,1.759
		c4.514,0.688,7.879,0.153,12.24-0.459c3.519-0.535,5.278-0.765,7.268-1.683c3.442-1.606,5.584-3.901,6.578-4.973
		c2.448-2.754,3.749-5.508,4.361-7.42"/>
	<path fill="none" stroke="#000000" stroke-width="0.5" stroke-miterlimit="10" d="M487.075,549.612
		c-0.382-5.968-0.306-19.508,8.033-32.818c3.672-5.814,10.71-16.983,24.097-19.737c12.47-2.524,22.645,3.825,25.169,5.432
		c8.798,5.508,12.775,13.158,15.3,18.13c5.891,11.552,6.503,22.567,6.196,29.07C539.555,549.688,513.315,549.612,487.075,549.612z"
		/>
	<path fill="none" stroke="#000000" stroke-width="0.5" stroke-miterlimit="10" d="M488.682,549c0-2.601,0.229-6.12,0.842-10.098
		c0.459-2.678,0.994-6.044,2.448-10.175c0.382-0.994,1.912-5.278,5.202-10.48c1.988-3.137,3.748-5.967,7.114-8.95
		c3.901-3.52,7.649-5.355,9.716-6.197c1.988-0.841,5.508-2.295,10.48-2.524c5.813-0.306,10.174,1.301,12.087,1.989
		c2.677,0.994,4.666,2.142,5.737,2.83c0.688,0.459,3.519,2.219,6.809,5.738c3.901,4.207,6.043,8.186,7.649,11.321
		c0.995,1.913,2.754,5.279,4.132,10.021c1.147,3.825,2.447,9.716,2.371,17.06"/>
	<path fill="none" stroke="#000000" stroke-width="0.5" stroke-miterlimit="10" d="M489.294,540.202
		c0.765,0.077,1.53,0.153,2.295,0.153"/>
	<path fill="none" stroke="#000000" stroke-width="0.5" stroke-miterlimit="10" d="M492.584,528.039
		c0.841,0,1.683,0.076,2.524,0.076"/>
	<path fill="none" stroke="#000000" stroke-width="0.5" stroke-miterlimit="10" d="M498.933,520.848
		c-0.611-0.765-1.224-1.606-1.759-2.371"/>
	<path fill="none" stroke="#000000" stroke-width="0.5" stroke-miterlimit="10" d="M505.818,508.149
		c0.152,1.683,0.229,3.365,0.382,5.125"/>
	<path fill="none" stroke="#000000" stroke-width="0.5" stroke-miterlimit="10" d="M515.687,502.564
		c0.076,1.989,0.153,3.901,0.153,5.891"/>
	<path fill="none" stroke="#000000" stroke-width="0.5" stroke-miterlimit="10" d="M527.161,500.27c0,2.219,0.077,4.437,0.077,6.732
		"/>
	<path fill="none" stroke="#000000" stroke-width="0.5" stroke-miterlimit="10" d="M538.942,503.865
		c0,1.836-0.076,3.748-0.076,5.584"/>
	<path fill="none" stroke="#000000" stroke-width="0.5" stroke-miterlimit="10" d="M548.964,510.75
		c-0.842,1.071-1.606,2.142-2.448,3.213"/>
	<path fill="none" stroke="#000000" stroke-width="0.5" stroke-miterlimit="10" d="M554.319,522.378
		c0.688-0.306,1.3-0.535,1.988-0.842"/>
	<path fill="none" stroke="#000000" stroke-width="0.5" stroke-miterlimit="10" d="M558.68,532.017
		c0.611-0.152,1.224-0.229,1.76-0.382"/>
	<path fill="none" stroke="#000000" stroke-width="0.5" stroke-miterlimit="10" d="M560.592,544.181c0.918,0,1.76,0.076,2.678,0.076
		"/>
</g>
<g id="Mature_Leaf">
	<path fill="none" stroke="#000000" stroke-width="0.5" stroke-miterlimit="10" d="M445,473.647
		c-1.453-0.153-2.83,3.366-2.983,3.901c-1.3,3.366-1.07,6.273-1.07,6.503c0.841,10.862,0.382,21.802,0.918,32.665
		c0.688,14.688-0.459,20.272,2.524,32.207c0.459,1.836,0.918,3.365,1.224,4.36c6.044,0.153,12.164,0.306,18.207,0.459
		c0.383-1.377,0.842-3.596,0.306-6.196c-0.765-3.749-2.142-4.131-3.442-8.263c-1.529-4.972,0.229-5.967-1.529-10.327
		c-0.383-0.842-1.147-2.601-1.606-5.126c-0.995-5.049,0.765-6.196,0-11.551c-0.307-2.295-0.536-1.53-1.836-7.65
		c-0.689-3.366-1.225-6.272-1.53-7.803c-0.842-4.59-0.612-3.979-0.918-5.432c-1.377-6.044-3.213-7.65-4.973-12.775
		c0,0-0.459-1.454-1.683-3.137C445.995,474.26,445.612,473.724,445,473.647z"/>
</g>
<g id="Young_Leaf">
	<path fill="none" stroke="#000000" stroke-width="0.5" stroke-miterlimit="10" d="M388.85,492.008
		c-0.306,0-0.612,0.535-0.918,1.377c-0.842,2.371-0.995,3.824-0.995,3.824c-0.306,3.443-0.229,5.355-0.229,5.355
		c0.229,3.979,0.766,6.503,0.995,8.339c0.459,3.213,0,3.442-0.229,11.092c-0.307,12.853,0.765,14.535,1.989,15.147
		c0.535,0.306,0.382,0,5.278,0.459c3.519,0.306,4.514,0.612,5.125-0.076c0.612-0.766,0.153-2.295-0.459-4.514
		c-0.306-1.071-0.611-1.836-0.765-2.143c-0.918-2.142-1.301-3.978-2.065-7.649c-0.612-2.983-0.918-4.514-0.918-6.579
		c0-0.842,0.306-1.377,0.229-2.372c-0.153-1.529-0.688-2.142-1.147-4.207c-0.153-0.842-0.229-1.301-0.307-1.989
		c-0.535-3.672-1.529-7.038-2.142-9.256c-0.153-0.459-0.842-2.143-2.371-5.509C389.768,492.849,389.309,492.008,388.85,492.008z"/>
</g>
<g id="Seed_S5">
	<path fill="none" stroke="#000000" stroke-width="0.5" stroke-miterlimit="10" d="M318.087,453.299
		c-0.383-0.077-0.918-0.229-1.683-0.459c-2.754-0.842-4.59-1.836-5.202-2.065c-3.442-1.378-9.333,3.901-10.557,5.049
		c-9.256,8.415-12.087,19.354-12.393,20.808c-0.918,3.749-0.918,8.645-0.995,18.283c-0.076,8.951-0.076,13.388,0.688,19.661
		c0.688,5.967,2.219,14.076,5.891,22.95c2.678,6.578,6.12,12.622,10.71,14.075c1.147,0.383,3.136,0.995,5.355,0.307
		c1.913-0.612,2.143-1.606,4.36-2.372c0.688-0.229,2.983-0.918,5.355-0.152c2.065,0.611,1.912,1.606,4.055,2.371
		c0.459,0.153,2.906,0.994,5.201,0c1.607-0.688,1.607-1.606,4.361-4.36c1.377-1.377,1.759-1.53,2.983-2.678
		c0,0,2.677-2.448,5.354-6.35c4.36-6.35,4.667-25.397,5.049-34.578c0.688-18.359,2.066-19.966,0.307-27.999
		c-0.842-3.748-3.061-12.622-10.099-19.125c-1.377-1.3-6.502-6.043-10.251-4.666c-1.224,0.459-1.988,1.377-4.054,1.683
		C320.765,453.834,318.699,453.375,318.087,453.299z"/>
	<path fill="none" stroke="#000000" stroke-width="0.5" stroke-miterlimit="10" d="M313.573,549.612
		c-5.584-2.678-8.185-6.273-9.256-8.033c-1.759-2.906-2.601-6.12-3.366-8.874c-0.688-2.754-1.071-4.819-1.147-5.737
		c-1.377-9.18-0.765-17.824-0.842-32.895c0-5.126-0.077-6.886,0.536-9.869c1.147-5.89,3.825-10.862,4.896-12.775
		c1.3-2.295,1.989-3.213,4.055-7.038c1.606-2.983,1.759-3.213,2.371-4.207c1.147-1.836,3.061-4.284,6.196-6.885"/>
	<path fill="none" stroke="#000000" stroke-width="0.5" stroke-miterlimit="10" d="M315.409,548.541
		c-2.524-3.748-3.136-6.885-3.213-9.027c-0.153-3.289,0.842-5.508,0-9.715c-0.382-1.836-0.765-2.295-1.377-4.055
		c-1.76-5.432-0.383-8.874-0.153-16.142c0.153-5.737-0.611-5.202-0.688-11.398c0-2.219,0.077-7.268,1.837-16.447
		c1.3-6.656,3.595-16.219,7.879-27.693"/>
	<path fill="none" stroke="#000000" stroke-width="0.5" stroke-miterlimit="10" d="M323.289,453.451
		c0.918,1.989,1.912,4.59,2.83,7.727c0,0,0.688,2.678,1.377,5.355c1.989,8.721-0.229,29.376-0.535,31.747
		c-1.53,14-1.683,12.087-2.371,19.813c-0.307,3.213-0.995,11.628-1.836,17.442c-0.459,3.213-1.301,7.803-2.831,13.388"/>
	<path fill="none" stroke="#000000" stroke-width="0.5" stroke-miterlimit="10" d="M331.321,549.383
		c0.918-3.596,2.143-8.874,2.831-15.453c0.688-6.273,0.459-9.869,0.535-15.606c0.076-18.437,2.371-27.004,1.147-42.457
		c-0.153-2.448-0.535-5.967-1.989-10.251c-2.218-6.35-5.813-10.71-8.186-13.234"/>
</g>
<g id="Seed_S4">
	<path fill="none" stroke="#000000" stroke-width="0.5" stroke-miterlimit="10" d="M222.309,467.91
		c-2.601,3.289-3.901,4.973-4.59,6.35c-1.453,2.754-1.989,5.202-2.601,8.95c-0.918,5.432-1.606,9.639-1.913,15.988
		c-0.382,8.492-0.536,13.082,0.918,18.437c0.382,1.454,0.995,3.137,1.3,5.737c0.688,5.355,0.383,8.874,0.383,8.874
		c-0.077,1.225-0.229,2.143,0.153,3.29c0.612,1.683,1.683,1.683,2.219,3.289c0.612,1.76-0.383,2.372,0.153,4.055
		c0.459,1.453,1.3,1.377,2.601,3.137c1.759,2.448,0.841,3.672,2.372,5.354c1.071,1.071,2.983,2.143,4.59,1.684
		c1.3-0.383,2.142-1.53,3.519-3.29c1.147-1.529,1.3-2.142,1.836-2.218c1.071-0.077,1.377,1.988,3.519,4.207
		c0.688,0.688,1.989,2.065,3.672,2.602c3.442,0.994,7.191-2.296,7.956-2.984c3.901-3.442,2.448-5.967,7.038-10.71
		c1.606-1.683,2.524-2.142,3.29-3.901c0.995-2.295,0.229-3.366,1.071-6.655c0.688-2.524,1.377-2.601,2.219-5.126
		c0.459-1.453,0.765-2.906,0.918-7.344c0.153-4.514,0.076-7.956,0-10.71c-0.153-5.891-0.229-8.797-0.306-9.868
		c-0.459-14.841-0.306-14.152-0.459-14.994c0,0-2.142-10.175-10.48-16.447c-1.606-1.147-4.59-3.366-7.038-2.372
		c-1.53,0.612-1.454,1.989-3.672,3.29c-2.524,1.529-5.202,1.377-5.891,1.3c-0.765-0.076-3.213-0.382-5.355-2.065
		c-1.53-1.224-1.606-2.065-2.524-2.142C226.134,463.473,225.14,464.314,222.309,467.91z"/>
	<path fill="none" stroke="#000000" stroke-width="0.5" stroke-miterlimit="10" d="M230.265,550.53
		c-2.219-2.372-3.519-4.59-4.361-6.273c-1.224-2.371-1.912-4.514-2.295-5.813c-0.535-1.684-0.459-1.836-0.994-3.979
		c-1.148-4.284-1.76-4.973-2.295-7.344c-0.535-2.372-0.229-3.366-0.229-7.65c0.077-3.519-0.153-6.502-0.459-12.469
		c-0.535-8.722-1.071-8.645-0.688-11.629c0.306-2.754,0.688-2.142,2.907-10.403c1.989-7.345,2.065-8.263,3.29-10.558
		c1.836-3.595,4.284-6.043,6.043-7.573"/>
	<path fill="none" stroke="#000000" stroke-width="0.5" stroke-miterlimit="10" d="M234.625,467.986
		c-0.459,1.913-1.224,4.514-2.754,7.421c-0.765,1.453-1.454,2.448-1.76,2.907c-2.371,3.672-5.508,11.398-6.349,19.813
		c-0.306,3.289,0.306,1.3,0.612,13.081c0.153,5.661,0.077,8.339,0.918,12.622c0.612,3.29,1.606,6.809,1.606,6.809
		c0.918,3.29,1.071,3.061,1.606,5.432c0.918,3.901,0.688,5.126,1.836,7.268c0.842,1.606,1.913,2.678,2.678,3.366"/>
	<path fill="none" stroke="#000000" stroke-width="0.5" stroke-miterlimit="10" d="M238.297,467.757
		c0.995,3.137,1.147,5.661,1.147,7.421c-0.076,2.83-0.765,5.125,0.229,8.338c0.383,1.225,0.842,2.065,0.995,2.372
		c3.06,5.967,0.229,18.972-0.612,33.736c-0.383,6.426,0,7.114-0.688,10.939c-1.224,7.268-3.825,12.852-5.891,16.524"/>
	<path fill="none" stroke="#000000" stroke-width="0.5" stroke-miterlimit="10" d="M241.357,466.839
		c0.918,1.301,2.065,3.137,3.137,5.432c1.147,2.448,1.989,4.896,2.677,7.803c0.842,3.596,1.377,7.574,1.53,17.366
		c0.153,8.338,0.229,12.469-0.077,16.064c-0.765,7.956-2.219,11.093-2.065,15.988c0,0.995,0.153,2.983-0.612,5.355
		c-0.306,0.918-0.765,1.912-1.53,3.672c-1.224,2.601-1.377,2.601-1.454,3.366c-0.382,2.065,0.536,2.677-0.076,4.284
		c-0.306,0.841-0.688,1.07-1.836,2.371c-0.765,0.842-1.836,2.142-2.907,3.825"/>
	<path fill="none" stroke="#000000" stroke-width="0.5" stroke-miterlimit="10" d="M227.894,463.626
		c0.841-0.765,2.448-2.065,4.896-2.754c2.295-0.612,4.208-0.306,5.584-0.076c2.448,0.382,4.514,1.3,5.967,2.142"/>
</g>
<g id="Seed_S3">
	<path fill="none" stroke="#000000" stroke-width="0.5" stroke-miterlimit="10" d="M163.633,474.336
		c-0.994,0-2.142,0.765-4.208,4.055c-2.371,3.748-3.289,6.272-3.289,6.272c-1.989,5.585-3.902,10.863-4.208,18.36
		c-0.077,0.994,0.076,5.432,0.306,14.152c0.077,1.76,0.077,2.831,0.077,4.438c0,2.524-0.077,3.442,0.077,6.502
		c0.459,8.722,0.765,13.158,3.136,16.906c1.76,2.755,5.355,6.732,5.432,6.809l0.077-0.076c0.306-0.229,2.371-1.912,5.278-2.83
		c2.218-0.766,4.055-0.688,6.885-0.612c0.459,0,1.377,0,2.448,0.153c1.454,0.152,2.142,0.229,2.677,0.459
		c0.995,0.459,1.377,0.994,2.525,1.07c0,0,0.382,0,0.841,0c2.448-0.152,4.131-1.988,4.973-2.83c1.606-1.606,2.218-3.366,2.601-4.438
		c0.765-2.295,0.841-4.283,0.841-4.819c0.077-4.743,1.606-8.874,2.524-14.765c1.836-11.321,0.306-21.19-0.918-30.37
		c-0.229-1.836-0.995-7.114-4.36-12.699c-0.918-1.529-4.055-6.579-6.885-6.12c-1.3,0.229-1.147,1.377-2.983,2.524
		c-3.06,1.837-7.879,1.225-11.092-0.765C165.087,474.948,164.705,474.336,163.633,474.336z"/>
	<path fill="none" stroke="#000000" stroke-width="0.5" stroke-miterlimit="10" d="M166.77,476.248
		c-0.153,0.153-0.306,0.459-0.459,0.766c-0.688,1.07-3.366,5.278-5.355,9.333c-2.065,4.36-2.983,7.956-4.131,12.393
		c-0.536,1.989-1.224,4.743-1.76,8.186c-0.306,2.219-1.224,9.104-0.153,17.213c1.53,11.552,6.426,20.349,9.562,25.168"/>
	<path fill="none" stroke="#000000" stroke-width="0.5" stroke-miterlimit="10" d="M167.076,548.465
		c-2.295-7.421-3.29-14.076-3.672-19.508c-0.535-7.038,0.383-6.273,0.153-18.742c-0.077-4.743-0.459-12.699,0.229-19.737
		c0.229-2.371,0.612-4.973,1.377-7.956c0.612-2.448,1.3-4.514,1.836-6.044"/>
	<path fill="none" stroke="#000000" stroke-width="0.5" stroke-miterlimit="10" d="M175.108,477.549
		c1.454,2.831,3.213,6.885,4.667,12.011c1.454,5.278,1.836,9.409,2.219,13.311c0.535,5.814,0.382,10.175,0.229,15.989
		c-0.153,6.502-0.306,9.715-0.918,13.311c-0.688,3.901-2.142,9.562-5.355,15.988"/>
	<path fill="none" stroke="#000000" stroke-width="0.5" stroke-miterlimit="10" d="M177.327,476.631
		c1.912,1.989,4.284,4.896,6.502,8.721c0.841,1.454,3.825,6.886,5.432,14.688c2.142,10.786,0.306,19.508-1.53,27.54
		c-1.224,5.508-3.442,13.158-7.727,21.879"/>
</g>
<g id="Seed_S2">
	<path fill="none" stroke="#000000" stroke-width="0.5" stroke-miterlimit="10" d="M113.373,491.625
		c-0.918,1.683-0.995,3.519-1.071,5.278c-0.076,1.913,0.306,1.989,0.383,4.896c0.077,1.606,0,2.754-0.077,3.672
		c-0.153,2.448-0.153,4.819-0.153,9.639c-0.077,11.246,1.683,14.535-0.077,18.437c-0.153,0.383-0.918,1.912-1.454,4.208
		c-0.459,1.836-0.535,3.442-0.535,4.36c-0.688,2.295-1.53,6.502-0.536,11.551c0.536,2.831,1.53,5.126,2.372,6.732
		c2.142,0.153,4.36,0.383,6.502,0.535c0.382-0.535,1.071-1.377,2.065-2.142c1.377-0.994,2.295-1.147,2.983-1.453
		c3.213-1.684,0.306-9.792,2.831-19.661c0.688-2.524,0.995-2.524,1.377-4.666c0.765-4.284-0.076-6.503-0.306-11.935
		c-0.077-1.377,0.076-0.152,0.229-9.18c0.153-6.962,0.076-8.95-0.229-11.704c-0.459-3.672-0.842-3.061-0.995-5.814
		c-0.383-5.354,0.918-7.19-0.459-10.863c-0.612-1.683-1.071-1.836-1.606-3.748c-0.765-2.907,0-3.672-0.459-5.967
		c0-0.153-0.153-0.766,0.076-0.918c0.306-0.229,0.842,0.306,1.147,0.152c0.459-0.306-0.459-1.836,0.229-2.754
		c0.077-0.076,0.229-0.306,0.459-0.306c0.306-0.076,0.459,0.306,1.148,0.765c0.535,0.383,0.918,0.612,1.224,0.688
		c0.383,0.153,0.765,0.307,0.995,0.077s-0.153-0.688,0.077-1.225c0.153-0.459,0.535-0.382,1.3-1.07
		c0.229-0.229,0.153-0.153,0.688-0.688c1.071-1.071,1.224-1.071,1.454-1.454c0.382-0.765,0-1.071,0.306-1.453
		c0.459-0.459,1.3,0.229,2.448-0.077c0.765-0.229,1.606-0.918,1.76-1.759c0.153-0.766-0.229-1.225,0.076-1.76
		c0.153-0.306,0.306-0.229,0.918-0.765c0.459-0.459,0.765-0.688,0.688-0.842c-0.153-0.306-1.53,0.306-2.065-0.306
		c-0.229-0.307-0.153-0.688-0.382-0.766c-0.229-0.076-0.382,0.229-0.459,0.307c-0.229,0.306-0.153,0.459-0.306,0.611
		c-0.306,0.307-0.995,0.153-1.454-0.152c-0.918-0.536-0.765-1.377-1.53-1.684c-0.153-0.076-0.459-0.076-1.071,0
		c-0.842,0-0.918,0.153-1.224,0c-0.688-0.229-0.765-0.918-1.147-0.842c-0.229,0-0.306,0.307-0.536,0.842
		c-0.229,0.536-0.382,0.995-0.382,1.53c-0.077,1.301,0.535,1.76,0.229,2.142c-0.077,0.153-0.306,0.153-1.606,0
		c-1.454-0.152-1.836-0.306-2.066,0c-0.229,0.229-0.076,0.688,0,1.301c0.153,0.612,0.306,0.918,0.229,0.918
		c-0.153,0.153-0.994-0.918-1.224-0.688c-0.229,0.153,0.229,0.842-0.077,1.301c-0.306,0.535-1.377,0.688-1.836,0.306
		c-0.383-0.306-0.229-0.765-0.612-0.918c-0.229-0.076-0.306,0-0.765,0.076c0,0-0.459,0.077-0.995,0
		c-1.147-0.152-1.377-2.447-2.372-2.524c-0.765-0.076-1.836,1.225-2.218,2.524c-0.612,1.989,0.535,3.673-0.306,4.361
		c-0.459,0.382-1.224,0.152-1.3,0.459c-0.077,0.229,0.229,0.535,0.459,0.611c0.612,0.383,1.224-0.076,1.53,0.229
		c0.153,0.153,0,0.307,0.153,0.459c0.383,0.536,1.836-0.306,2.142,0.153c0.153,0.229-0.153,0.535,0.077,0.842
		c0.306,0.459,1.071,0.152,1.683,0.535c0.229,0.153,0.382,0.459,0.535,1.377c0.229,1.836-0.153,3.442-0.382,4.438
		c-0.306,0.994-0.382,1.529-0.765,2.295c-0.459,0.841-0.841,1.147-1.377,1.836c-0.765,0.918-2.601,3.06-2.831,5.661
		c-0.076,0.459-0.076,0.918-0.229,1.606C114.062,490.478,113.603,491.242,113.373,491.625z"/>
</g>
<g id="Seed_S1">
	<path fill="none" stroke="#000000" stroke-width="0.5" stroke-miterlimit="10" d="M66.096,560.934
		c2.142,0.077,4.208,0.153,6.349,0.229c1.606-0.918,2.295-1.912,2.525-2.677c0.229-0.766,0.382-1.989,1.453-3.137
		c0.153-0.153,0.153-0.153,0.229-0.307c1.377-1.453,0.688-4.59,0.536-5.431c-0.459-2.448-0.153-5.05-0.306-7.574
		c-0.535-7.573-0.382-13.387-0.306-14.841c0.076-3.06,0.153-2.678,0.153-4.131c-0.077-4.743-1.071-6.35-1.3-11.552
		c-0.153-3.136,0.153-4.36,0.459-5.278c0.688-2.142,1.836-3.596,2.677-4.514c0.842,0.536,1.683,1.071,2.524,1.606
		c0.153-1.147,0.536-1.377,0.765-1.453c0.688-0.229,2.065,0.994,2.831,2.219c0.229,0.382,0.459,0.841,0.688,0.841
		s0.459-0.459,0.536-0.841c0.076-0.383-0.153-0.612,0-0.688c0.229-0.307,1.377,0.535,1.836,0.152
		c0.229-0.229,0.153-0.688,0.076-0.918c-0.382-1.836-2.065-2.065-2.295-3.519c-0.076-0.612,0.077-1.453,0.612-1.836
		c0.841-0.688,1.912,0.383,3.136-0.153c1.377-0.611,1.913-2.83,1.454-3.366c-0.153-0.152-0.459-0.152-1.147-0.229
		c-0.841-0.076-1.147,0-1.224-0.076c-0.076-0.153,0.153-0.535,1.76-1.53c-0.077-0.306-0.153-0.611-0.459-0.765
		c-0.306-0.153-0.612,0-1.224,0.076c-0.306,0.077-0.765,0.077-1.301,0c0.153-0.152,1.377-1.529,0.995-2.142
		c-0.153-0.306-0.688-0.306-1.53-0.306c-1.53,0-2.372,0.382-2.524,0.076c-0.153-0.306,0.459-0.688,0.382-1.53
		c0-0.153-0.077-0.688-0.382-0.765c-0.459-0.153-0.995,1.301-1.454,1.224c-0.383-0.076-0.688-0.918-0.842-3.672
		c-0.306,0.076-0.688,0.153-1.071,0.306c-0.459,0.153-0.841,0.307-1.224,0.459c0,0.536,0,1.377,0.077,2.296
		c0.153,1.453,0.306,1.759,0.229,2.447c0,0.229-0.229,2.143-1.53,2.754c-1.3,0.612-3.136-0.229-4.054-1.3
		c-0.153-0.153-0.765-0.918-1.836-2.448c-0.229-0.306-0.536-0.688-0.765-0.612c-0.382,0.077-0.077,1.225-0.536,2.065
		c-0.918,1.53-3.978,1.454-4.284,0.842c-0.153-0.383,1.071-0.994,0.841-1.683c-0.153-0.536-0.918-0.459-1.147-0.995
		c-0.229-0.688,0.765-2.065,2.065-2.524c0.918-0.306,1.606-0.152,1.76-0.535c0.153-0.307-0.229-0.766-0.612-0.995
		c-0.076-0.076-0.229-0.076-0.995-0.152c-0.918-0.077-1.071,0-1.147,0c-0.153,0.076-0.535,0.229-0.918,0.765
		c0.077,0.612-0.076,1.071-0.229,1.377c-0.076,0.229-0.306,0.459-0.612,0.995c-0.459,0.688-0.688,0.765-0.765,0.841
		c-0.076,0-0.535,0.229-0.841,0.077c-0.459-0.229-0.383-0.995-0.383-1.53c0-0.842,0.229-1.377,0.459-2.219
		c0.459-1.606,0.765-2.678,0.536-2.754c-0.306-0.153-1.3,1.377-1.606,1.224c-0.229-0.152,0.459-1.147,0-2.065
		c0-0.076-0.306-0.535-0.612-0.535c-0.459,0-0.612,0.918-0.995,0.918s-0.765-0.688-0.536-1.071c0.153-0.229,0.459-0.152,0.688-0.382
		s0-0.459,0.077-1.225c0.077-0.535,0.153-0.765,0-0.994s-0.382-0.306-0.459-0.306c-0.382-0.077-0.612,0.152-0.688,0.152
		c0.153,0.688,0.077,1.071-0.077,1.225c-0.306,0.306-0.688,0.152-0.918,0.535c-0.229,0.306-0.076,0.612-0.076,1.071
		c0,0.229-0.077,0.765-0.153,1.836c-0.229,1.759-0.306,2.601-0.765,3.137c-0.153,0.152-0.688,0.841-1.3,0.765
		c-1.147-0.153-1.989-2.983-1.147-4.055c0.229-0.306,0.459-0.306,0.612-0.612c0.459-0.918-0.382-2.447-0.765-2.371
		c-0.612,0.076-0.077,4.055-1.224,4.36c-0.383,0.076-0.536-0.306-1.53-0.459c-0.918-0.153-1.759-0.076-1.759,0.076
		c0,0.153,0.918,0.229,1.836,0.995c0.077,0.076,0.918,0.765,0.765,1.07c-0.229,0.46-2.754-0.841-3.442,0
		c-0.229,0.307-0.077,0.536-0.383,1.301c-0.153,0.307-0.306,0.766-0.612,0.995c-0.918,0.918-2.754,0.229-2.831,0.535
		c-0.077,0.153,0.306,0.383,0.459,0.459c0.995,0.612,2.065,0.535,2.754,0.535c1.301,0,3.519,0.077,3.596,0.459
		c0,0.229-1.071,0.307-2.524,1.225c-1.147,0.765-1.301,1.377-2.295,1.683c-0.765,0.229-1.071,0.076-1.453,0.383
		c-0.688,0.611-0.536,2.219,0,2.448c1.071,0.459,3.366-3.825,4.59-3.29c0.765,0.306,0.229,2.219,1.454,2.907
		c0.765,0.535,1.683,0.153,1.989,0.688c0.153,0.229-0.076,0.459-0.153,1.377c-0.077,0.535-0.153,1.377,0,1.453
		c0.306,0.153,0.688-1.606,2.142-2.371c0.459-0.229,1.377-0.229,3.06-0.306c1.53,0,2.295,0,2.601,0.152
		c0.995,0.688,0.383,1.836,1.454,4.438c0.536,1.3,0.918,1.377,1.224,2.601c0.382,1.225,0.382,2.295,0.306,2.831
		c-0.229,6.655-0.995,10.48-0.995,10.48c-1.301,6.579-1.989,9.944-2.065,12.622c-0.229,5.355,0.612,5.967,0,10.327
		c0,0-0.536,3.443-0.383,6.656c0.077,1.377,0.153,2.218,0.306,2.754c0.077,0.611,0.077,0.382,0.688,2.754
		c0.306,1.377,0.459,1.76,0.688,2.524c0.229,0.612,0.306,0.688,0.459,1.301c0.306,0.994,0.459,1.759,0.536,2.065
		C65.102,557.721,65.408,559.021,66.096,560.934z"/>
</g>
<g id="Seedling_Root">
	<path fill="none" stroke="#000000" stroke-width="0.5" stroke-miterlimit="10" d="M540.09,351.095
		c0.459,0.153,1.606,0.535,2.219,1.683c0.459,0.765,0.306,1.301,0.229,3.978c0,2.448,0.076,2.219,0,3.29
		c-0.076,1.071-0.229,1.606-0.918,4.284c-1.071,4.208-1.147,4.59-1.071,5.125c0.076,1.759,0.535,2.065,0.918,4.208
		c0.383,2.372,0.076,3.366,0,6.885c0,0-0.076,3.06,0.229,6.426c0.383,4.896,3.901,10.787,8.645,13.923
		c7.573,4.972,19.201,6.578,21.956,6.196c0.382-0.077,1.988-0.307,2.524,0.459c0.229,0.306,0.229,0.765,0.076,1.07
		c-0.383,0.688-1.606,0.612-2.371,0.612c-4.132-0.153-2.219,0.459-5.814,0.153c-2.065-0.153-3.596-0.459-6.731-1.071
		c-5.202-1.071-7.727-1.606-8.798-1.989c-3.52-1.377-7.114-3.672-7.114-3.672l0,0c-7.421-7.267-7.956-17.212-8.186-20.578
		c-0.536-8.874,0.459-13.541,0.459-13.541c0.535-2.524,1.453-5.584,0.688-5.967c-0.688-0.306-1.684,1.606-4.896,3.29
		c-0.535,0.306-0.229,0.077-3.748,1.53c-2.524,1.071-3.213,1.377-4.438,1.53c-0.688,0.077-3.137,0.459-3.519-0.459
		c-0.383-0.841,0.994-2.448,2.448-3.29c1.529-0.995,2.295-0.536,4.207-1.53c1.301-0.688,1.377-1.071,2.678-1.989
		c0.841-0.612,1.606-0.994,2.295-1.3c2.754-1.147,3.289-1.071,3.748-1.606c0.536-0.765,0.459-2.372-2.218-6.35
		c1.529-0.995,2.983-1.3,3.824-1.454C538.024,350.789,538.942,350.636,540.09,351.095z"/>
</g>
<g id="Inflorescence_P6">
	<path fill="none" stroke="#000000" stroke-width="0.5" stroke-miterlimit="10" d="M452.956,423.387
		c0.383,0.077,0.842,0.229,1.377,0.229c0.612,0.077,1.147,0,1.53-0.076c0-1.224,0.076-2.448,0.076-3.749
		c0.459-24.556,0.383-48.883-0.076-72.98c-0.383,0.077-0.688,0.077-1.071,0.153c-0.076-0.153-0.152-0.459-0.152-0.841
		c0-0.306,0.076-0.536,0.076-0.688c0.153,0,0.459,0.076,0.765-0.153c0.612-0.382,0.536-1.53,0.077-1.836
		c-0.307-0.229-0.766,0.077-0.995-0.153c-0.152-0.153,0-0.306,0-0.841c0-0.612-0.152-0.765-0.076-0.995
		c0.229-0.306,0.842-0.077,1.224-0.306c0.459-0.306,0.536-1.3-0.076-4.667c-0.383-2.372-0.765-3.749-0.076-4.437
		c0.229-0.229,0.459-0.306,0.688-0.612c0.459-0.765,0.153-1.683,0-2.065c-0.076-0.153,0-1.683,0-4.743
		c0-2.218,0.076-2.983,0.076-5.737c0-0.153,0-0.306,0-0.612c0-5.431-0.306-5.814,0.153-6.655c0.076-0.153,0.383-0.688,0.306-1.377
		c0-0.153-0.076-0.918-0.459-1.071c-0.306-0.076-0.688,0.229-0.688,0.306c-0.229,0.229-0.229,0.459-0.306,0.765
		c-0.229,1.147-0.076,1.377-0.307,1.606c-0.306,0.382-1.07,0.382-1.3,0.076c-0.153-0.229,0-0.382,0.076-1.3
		c0-0.612-0.076-0.688,0.076-0.918c0.229-0.382,0.612-0.229,0.842-0.536c0.153-0.229,0.076-0.382,0.076-1.071
		c0-0.459,0.077-0.688,0.077-0.995c0.152-1.53-0.688-2.295-0.307-2.831c0.307-0.382,0.688-0.153,0.995-0.535
		c0.306-0.459,0.076-1.071-0.077-1.836c-0.152-0.918,0-1.071,0-2.678c0-3.366-0.765-5.049,0.077-5.508
		c0.229-0.153,0.459-0.153,0.765-0.077c0.535,0.229,0.765,1.071,0.765,1.3c0.153,0.536,0,0.765,0.153,0.995
		c0.229,0.229,0.842,0.153,1.224-0.153c0.229-0.229,0.307-0.536,0.307-2.142c0-1.224,0-1.836-0.077-2.065
		c-0.382-0.918-1.147-0.765-1.836-1.76c-0.229-0.306-0.382-0.688-0.611-2.372c-0.229-2.065-0.153-3.442-0.153-3.442
		c0.153-1.759,0.153-4.743,0-10.098c0.153-0.077,0.459-0.306,0.612-0.765c0.152-0.383,0.306-1.071,0-1.454
		c-0.229-0.306-0.536-0.153-0.842-0.306c-0.994-0.535,0.383-3.213,0.229-7.038c0-0.842-0.153-2.219,0.612-2.754
		c0.382-0.306,0.765-0.229,0.994-0.612c0.306-0.536,0.076-1.377-0.383-1.683c-0.382-0.229-0.688,0-0.841-0.229
		c-0.153-0.229,0.152-0.612,0.229-1.377c0-0.153,0.076-0.382,0-0.995c-0.077-1.759-0.383-2.601-0.383-3.442
		c0.076-1.454,0.918-1.606,1.683-3.442c0.536-1.301,0.459-2.219,0.536-4.284c0-4.284,0.076-6.426,0.229-8.109
		c0.382-3.596,1.147-5.202,0.076-7.268c-0.153-0.306-0.765-1.377-1.453-1.3c-1.225,0.076-1.606,3.672-2.143,3.595
		c-0.688-0.076-0.535-5.202-0.535-5.202c0.153-4.284,0.153-10.71-0.383-19.967c-0.229,0-0.535,0-0.765,0.229
		c-0.153,0.153-0.153,0.306-0.153,0.765c-0.076,1.071-0.229,0.995-0.152,1.454c0.076,0.612,0.229,0.841,0.076,1.071
		c-0.229,0.306-0.612,0.229-0.765,0.459c-0.077,0.306,0.306,0.612,0.611,0.995c0.153,0.229,0.383,0.612,0.307,2.372
		c-0.077,1.454-0.229,2.677-0.383,4.513c-0.076,0.688-0.076,0.918-0.076,1.224c0.076,0.536,0.152,0.688,0.076,1.071
		c-0.076,0.383-0.383,0.536-0.535,0.765c-0.459,0.612-0.307,1.454-0.153,2.295c0,0,0.382,2.219,0.153,5.891
		c0,0.459-0.077,0.688-0.077,1.224c0.077,0.841,0.229,1.147,0,1.377s-0.765,0.229-1.071,0c-0.459-0.382-0.076-1.3-0.076-2.983
		c0-0.688-0.076-0.995-0.153-2.065c-0.306-2.601-1.07-10.557-0.765-10.634c0.076,0,0.383,1.071,0.535,2.219
		c0.229,2.218-0.382,3.749,0.229,4.054c0.229,0.077,0.459,0,0.536-0.076c0.688-0.306,0.688-1.53,0.765-3.825
		c0.077-2.983,0.077-3.672,0-5.661c-0.076-2.372-0.229-3.06-0.535-3.136c-0.229-0.077-0.688,0.459-0.842,0.841
		c-0.076,0.229-0.076,0.459-0.076,0.612c0,1.301,0.076,1.989,0,2.066c-0.076,0-0.307-0.383-0.459-0.842
		c-0.459-1.3,0.076-1.683-0.153-3.519c-0.076-0.382-0.076-0.841,0.153-0.994c0.229-0.229,0.612,0.076,0.918-0.077
		c0.765-0.306,1.071-3.213-0.383-4.973c-0.459-0.612-0.688-0.459-1.147-1.071c-0.918-1.301-1.071-3.29-0.383-3.749
		c0.459-0.382,0.995,0.229,1.53-0.077c0.688-0.382,0.459-1.683-0.076-5.584c-0.383-2.754-0.459-3.519-0.994-3.672
		c-0.689-0.306-1.76,0.612-2.296,1.224c-0.688,0.841-0.841,1.836-0.841,3.29c-0.153,3.213-0.229,4.819,0.152,7.191
		c0.229,1.606,0.612,3.136,0,3.519c-0.382,0.229-0.841-0.229-1.3,0.076c-0.766,0.459-0.842,2.372-0.077,2.984
		c0.459,0.382,0.918,0,1.377,0.306c0.842,0.459,0.919,2.295,0.153,6.809c-0.688,4.208-1.071,4.514-1.224,6.809
		c-0.153,2.983,0.306,5.278,0.076,5.278c-0.383,0.077-0.842-5.278-2.524-5.431c-0.994-0.153-2.371,1.606-2.295,3.06
		c0.076,1.147,0.842,1.224,1.606,2.983c0.076,0.153,1.53,3.519,0.153,5.278c-0.459,0.612-0.918,0.612-1.071,1.071
		c-0.229,1.147,1.989,1.759,2.065,3.442c0.076,1.147-0.994,1.3-1.147,2.83c-0.153,1.071,0.306,1.224,0.918,3.29
		c0.535,1.912,0.229,2.218,0.842,3.978c0.535,1.606,0.765,1.454,1.07,2.524c0.612,2.295-0.688,2.984-0.611,5.738
		c0.076,2.677,1.3,2.983,0.994,5.278c-0.229,2.066-1.224,2.142-1.147,3.596c0.153,2.524,3.137,3.29,2.83,5.125
		c-0.152,1.071-1.224,0.995-1.529,2.524c-0.229,1.301,0.306,2.524,0.306,2.601c0.229,0.459,0.383,0.688,0.459,0.765
		c1.224,1.606,0.918,6.426,0.842,8.262c-0.153,4.131-0.229,6.273,0.153,8.415c0.306,1.53,0.459,1.53,0.765,3.29
		c0.535,2.983,0.153,3.749,0.383,6.961c0.382,4.36,1.224,4.36,0.994,7.497c-0.076,1.147-0.229,2.142-0.306,4.284
		c0,1.606,0,2.831,0.076,3.29c0.229,5.202,0.076,7.038,0.612,20.119c0.076,2.601,0.306,6.197,0.535,10.557
		c0,0.077,0,0.536,0.459,0.765c0.459,0.306,0.918,0.077,0.918,0.077c1.147,3.825,0.842,5.967,0.306,7.191
		c-0.152,0.382-0.535,1.147-0.611,2.218c-0.077,1.301,0.382,1.53,0.611,3.06c0.229,1.989-0.459,2.448-0.076,4.36
		c0.229,1.071,0.612,1.836,0.765,2.142c1.76,3.749,0.307,13.464-0.076,17.06c-0.153,1.071,0.076-0.229-0.306,13.005
		c-0.229,8.721-0.383,13.771-0.307,21.42C452.88,421.475,452.956,422.698,452.956,423.387z"/>
</g>
<g id="Inflorescence_P5">
	<path fill="none" stroke="#000000" stroke-width="0.5" stroke-miterlimit="10" d="M381.276,422.239
		c-0.077-0.535,0-0.535,0.306-1.912c0.076-0.459,0.076-0.766,0.153-1.377c0.076-0.766,0-1.147,0-1.913c0-0.994,0-1.453,0-2.218
		c0-3.442-0.383-12.47-0.766-12.47c0,0-0.076,0.076-0.152,0.153c0,0-0.307,0.152-0.766,0c-0.918-0.383,1.301-10.481,0.307-10.863
		c-0.229-0.077-0.536,0.535-0.918,0.459c-0.383-0.153-0.383-1.224-0.153-4.055c0.153-2.524,0.229-2.372,0.229-3.366
		c0.076-2.525-0.153-2.295-0.077-4.59c0.077-2.142,0.383-2.983-0.229-3.672c-0.536-0.612-1.148-0.459-1.378-1.147
		c-0.306-0.688,0.077-1.53,0.46-2.065c0.688-0.918,1.377-0.688,1.759-1.454c0.307-0.536,0.153-0.995,0-1.913
		c-0.152-1.3,0-1.683,0-3.29c0-2.448-0.382-4.667-0.611-5.967c-0.46-3.366-0.688-9.333,0.306-14.458
		c0.306-1.454,0.842-3.901-0.459-5.355c-0.535-0.612-1.301-0.918-1.301-1.606c0-0.918,1.377-1.301,1.301-2.219
		c0-0.841-1.225-0.994-1.301-1.913c-0.076-0.841,0.766-0.994,1.301-2.524c0.306-0.765,0.383-1.453,0.459-2.524
		c0.076-1.224,0-2.142,0-2.372c-0.229-3.06,0.688-8.645,1.071-16.065c0.152-3.366,0-2.448,0.152-5.967
		c0.307-5.661,0.766-7.803,0.307-11.857c-0.153-1.683-0.307-1.606-0.459-3.29c-0.229-2.372-0.077-3.825,0.152-8.186
		c0.459-7.65,0.459-8.338,0-9.486c-0.535-1.377-1.224-2.142-1.224-3.749c0-2.219,1.301-3.443,0.612-4.284
		c-0.459-0.536-1.454-0.612-2.066-0.306c-0.229,0.077-0.765,0.383-1.224,1.301c-0.383,0.765-0.535,1.836,0,4.437
		c0.306,1.683,0.918,3.749,1.071,5.661c0,0.383,0.076,0.842-0.153,1.301c-0.306,0.841-0.842,0.918-1.224,1.606
		c-0.077,0.153-0.229,0.612,0,1.913c0.459,2.524,1.683,4.36,1.3,5.661c0,0.077-0.076,0.229-0.152,0.459
		c-0.229,0.842-0.536,1.377-0.612,1.607c-0.612,1.453-0.306,1.683-0.918,2.83c-0.535,0.995-0.842,0.995-1.224,1.913
		c-0.229,0.688-0.307,1.224-0.307,1.606c-0.076,1.454,0.307,2.372,0.307,2.372s-1.76-3.06-0.612-5.967
		c0.383-0.918,0.688-0.995,1.224-1.913c1.225-2.295,0.766-4.743,0.612-5.814c-1.147-7.574,1.377-17.748-1.071-18.437
		c-0.611-0.153-1.224,0.382-1.759,0c-0.766-0.536-0.459-1.836-0.459-3.596c0-2.142-0.612-2.065-0.918-4.743
		c-0.229-1.836-0.153-3.29-0.153-3.978c0.076-2.754,0.535-4.59-0.153-4.896c-0.382-0.153-0.688,0.306-1.071,0.153
		c-0.535-0.306,0.077-1.989,0.153-4.743c0.077-2.295-0.306-2.678-0.612-2.831c-0.306-0.153-0.765-0.077-1.07,0.153
		c-0.307,0.306-0.153,0.841-0.153,1.606c0.076,1.301-0.229,2.372-0.306,2.372c-0.077,0-0.766-3.137,0-6.579
		c0.152-0.688,0.459-1.836-0.153-2.372c-0.459-0.459-1.071-0.153-1.453-0.612c-0.766-0.841,0.229-2.907,0.306-3.137
		c0.612-1.3,1.301-1.454,1.301-2.372c0.076-0.535-0.153-0.994-0.612-1.912c-0.612-1.301-0.994-1.53-1.301-2.219
		c-0.688-1.377,0.077-2.142,0.153-4.284c0.076-2.754-1.071-2.601-1.224-5.661c-0.077-2.219,0.535-3.978-0.307-4.437
		c-0.535-0.306-1.224,0.076-1.453-0.306c-0.153-0.229,0-0.536,0.153-1.3c0.306-1.224,0.459-1.913,0.152-2.219
		c-0.459-0.535-1.988-0.382-2.677,0.459c-0.918,0.995-0.307,2.831,0,3.901c1.912,6.426,1.912,12.623,1.759,12.623
		c-0.076,0-0.765-1.836-1.3-4.131c-0.536-2.218-0.612-3.366-1.454-3.901c-0.611-0.306-1.453-0.229-1.912,0.153
		c-0.612,0.536-0.842,1.606-0.307,4.131c1.071,5.508,3.52,8.415,2.525,9.333c-0.383,0.383-1.071,0.383-1.454,0.153
		c-0.688-0.306-0.765-1.301-0.918-2.524c-0.306-3.06-0.459-4.59-0.459-4.59c0.153-7.726,0.535-8.491-0.306-10.098
		c-0.307-0.612-0.307-0.306-2.219-3.137c-0.842-1.224-1.301-1.913-1.912-1.913c-0.612,0-1.225,0.536-1.454,1.224
		c-0.841,1.989,2.295,3.901,1.76,6.809c-0.076,0.306-0.229,0.995-0.459,1.759c-0.535,1.76-0.765,1.76-0.765,2.372
		c0.076,1.3,1.453,1.454,1.606,2.831c0.152,1.071-0.688,1.3-0.918,2.678c-0.153,1.071,0.306,2.065,1.224,3.978
		c1.224,2.678,1.683,2.678,1.76,3.902c0.152,1.53-0.612,1.989-0.307,3.442c0.307,1.224,0.842,1.147,1.301,2.524
		c0.612,1.76-0.229,2.295,0.306,3.978c0.459,1.454,1.147,1.224,1.606,2.831c0.077,0.382,0.612,1.913,0,3.595
		c-0.306,0.918-0.611,0.918-0.765,1.607c-0.229,1.224,0.535,2.065,1.071,2.983c0.918,1.759,0.152,2.295,0.611,6.12
		c0.077,0.918,0.536,2.754,1.454,6.426c1.071,4.284,0.994,3.596,1.224,4.59c0.459,2.448,1.147,5.967,0.459,10.098
		c-0.306,1.913-0.611,1.836-0.611,2.983c0.076,2.907,1.912,3.901,2.983,6.961c0.535,1.683,0,1.301,0.459,6.426
		c0.152,1.913,0.229,1.377,1.07,8.032c0.307,2.525,0.766,5.967,0.766,5.967s-0.153,3.213-0.153,5.814c0,4.055,0,6.12,0.459,7.727
		c0.612,2.142,1.606,4.513,0.765,5.202c-0.306,0.229-0.688,0.153-0.918,0.459c-0.459,0.535-0.076,1.606,0.229,2.448
		c0.995,2.754-0.152,0.612,1.225,4.284c1.606,4.284,2.065,4.36,2.524,6.349c0.383,1.836-0.076,1.683,0.306,4.131
		c0.612,3.978,1.913,6.808,1.454,6.961c-0.307,0.153-1.377-1.683-1.76-1.454c-0.383,0.153,0.153,1.913,0.459,4.437
		c0.459,3.978-0.459,4.208,0.229,6.502c0.842,2.601,2.219,2.754,2.142,4.743c0,1.147-0.535,1.53-0.611,3.672
		c-0.077,1.454,0.152,2.065,0.306,2.524c0.383,0.995,0.918,1.301,1.301,1.913c0.765,1.071,0.459,2.065,0.306,4.896
		c0,0-0.153,2.754,0.076,8.338c0.077,1.53,0.153,1.454,0.153,2.372c0,0.765-0.076,1.224,0.153,1.836
		c0.229,0.612,0.459,0.918,0.688,1.3c0.688,1.147,0.382,2.448,0.229,3.213c-0.077,0.307,0.076-0.306,0.382,6.503
		c0.383,7.497,0.536,11.245,0.536,11.398c0,0-0.307,2.295,0.611,5.661c0.077,0.383,0.307,0.994,0.919,1.301
		c0.611,0.306,1.453,0.229,1.683-0.153C382.194,423.693,381.429,423.311,381.276,422.239z"/>
</g>
<g id="Inflorescence_P4">
	<path fill="none" stroke="#000000" stroke-width="0.5" stroke-miterlimit="10" d="M299.345,433.256
		c1.53-0.918,0.841-3.672,0.535-11.017c-0.306-7.344,0.153-8.95,0.995-10.327c1.071-1.684,2.065-1.912,2.448-3.596
		c0.612-2.678-1.683-3.442-1.53-6.502c0.077-3.366,2.831-5.126,1.836-7.039c-0.382-0.688-0.765-0.536-1.224-1.377
		c-0.841-1.454-0.382-2.983,0-4.896c0.459-2.448,1.53-7.65-0.076-8.721c-0.765-0.459-1.76,0.076-1.989-0.383
		c-0.153-0.306,0.229-0.612,1.224-1.913c0.459-0.612,0.841-1.071,1.071-1.377c0.077-1.453,0.077-2.907,0.153-4.36
		c0.382-0.153,0.918-0.459,1.147-0.995c0.306-0.612,0-1.071-0.153-2.677c-0.153-1.377-0.229-1.989,0.077-2.601
		s0.688-0.765,0.688-1.301c0-0.688-0.688-1.224-0.688-1.224s-0.688-0.459-1.454-0.229c-0.688,0.229-1.147,0.841-1.224,1.606
		c0.153-2.065,0.306-4.131,0.459-6.12c0.688-0.841,1.53-1.913,2.448-3.213c1.53-2.065,1.913-2.754,1.683-3.213
		c-0.306-0.688-1.454-0.765-2.295-0.612c-1.147,0.229-1.989,1.301-2.295,2.601c0-0.995,0.076-2.295,0.153-3.672
		c0.229-3.825,0.536-4.59,0.765-5.049c0.535-1.147,0.765-0.918,1.989-2.907c0.918-1.454,1.301-2.218,1.53-3.213
		c0.306-1.683,0-3.902-0.918-4.131c-0.842-0.229-2.066,1.377-2.142,1.224c-0.153-0.153,2.907-2.372,2.754-5.049
		c-0.077-1.683-1.3-1.913-1.377-3.978c-0.077-1.683,0.688-2.295,0.153-3.366c-0.535-1.071-1.606-0.994-1.836-1.836
		c-0.229-0.918,0.842-1.377,1.683-3.06c0.077-0.229,1.683-3.366,0.459-5.355c-0.612-0.994-1.3-0.688-1.989-1.836
		c-0.612-0.995-0.229-1.454-0.612-3.366c-0.536-2.678-1.53-3.137-1.071-4.284c0.306-0.841,0.841-0.765,1.836-2.142
		c0,0,0.612-0.918,1.071-2.142c0.765-2.218,0.229-4.437,0-6.12c-0.688-5.585,2.142-9.562,1.071-10.098
		c-0.688-0.382-2.142,1.224-2.448,0.918c-0.229-0.229,0.842-1.3,1.53-2.907c0.382-0.918,0.535-2.372,0.765-5.202
		c0.306-3.596,0.459-5.355,0-5.508c-0.459-0.153-1.147,1.224-1.53,1.071c-0.612-0.229-0.306-3.672,0.765-7.038
		c0.765-2.524,1.453-3.29,1.224-4.896s-1.3-3.29-2.142-3.213c-0.765,0.076-1.148,1.53-1.53,1.377c-0.382-0.077-0.382-1.683,0-3.213
		c0.382-1.454,0.918-1.836,1.377-2.907c0.459-0.995,0.306-2.831,0-6.273c-0.306-3.366-0.306-2.142-0.612-5.202
		c-0.229-2.524-0.229-3.672-0.918-3.978c-0.688-0.306-1.76,0.536-1.989,0.765s-0.765,0.688-1.224,1.836
		c-1.071,2.678-0.229,5.202-0.153,5.355c0.536,1.53,1.071,1.454,1.224,2.601c0.153,1.454-0.688,1.836-1.377,4.131
		c-0.612,2.219,0,2.525-0.765,4.743c-0.459,1.377-0.841,1.606-1.071,2.754c-0.229,1.454,0.076,2.448,0.306,3.519
		c0.918,4.055,0.536,7.191,0.459,7.191c-0.076,0,0-2.065-1.224-4.131c-0.383-0.612-1.224-1.836-1.683-1.683
		c-0.688,0.229-0.153,3.596,0,4.59c0.382,2.295,0.841,3.519,0.153,4.284c-0.382,0.383-0.765,0.459-1.224,1.071
		c-0.459,0.612-0.535,1.224-0.612,1.53c-0.153,0.995-0.382,4.208,1.683,7.038c0.918,1.3,1.377,1.224,1.989,2.448
		c0.612,1.224,0.688,2.448,0.765,3.519c0.077,1.224,0.077,2.601-0.153,2.601c-0.306,0.077-0.612-3.519-1.683-3.672
		c-0.459-0.077-0.995,0.612-1.224,1.071c-0.536,1.147,0.077,2.448,0,2.448s-0.382-1.53-1.53-2.754
		c-0.229-0.229-1.224-1.3-1.836-1.071c-0.765,0.306-0.918,2.907,0,5.049c0.918,2.142,2.142,2.066,3.213,4.284
		c0.688,1.377,0.306,1.683,0.918,4.896c0.765,4.208,1.759,6.35,1.224,6.579c-0.383,0.229-1.071-0.918-3.213-2.601
		c-1.606-1.224-2.754-2.142-3.213-1.836c-1.3,0.841,2.983,10.174,2.754,10.251c-0.076,0-0.459-1.147-1.683-1.836
		c-0.536-0.306-1.377-0.612-1.683-0.306c-0.306,0.306,0.229,0.918,0.765,2.448c0.229,0.765,0.459,1.606,0.765,3.366
		c0.383,2.142,0.383,2.448,0.153,2.754c-0.536,0.842-1.683,0.306-2.142,0.918c-0.995,1.224,2.754,4.36,3.978,9.486
		c0.382,1.606,0.306,3.978,0.153,8.721c-0.077,3.29-0.306,3.749-0.153,5.814c0.229,2.984,0.306,4.514,0.765,6.426
		c0.382,1.759,0.918,3.213,0.306,3.672c-0.306,0.229-0.841,0.229-1.224,0c-1.071-0.765,0.536-3.136-0.612-5.049
		c-0.612-0.995-1.759-1.683-2.295-1.377c-0.995,0.535,0.918,4.667-0.459,5.661c-0.612,0.383-1.301-0.076-1.53,0.306
		c-0.459,0.688,1.607,2.372,3.06,5.508c0.229,0.535,1.683,3.519,0.765,4.284c-0.688,0.612-2.295-0.536-2.601-0.153
		c-0.306,0.382,1.454,1.453,2.142,3.672c0.153,0.612,0,0.229,0.306,3.06c0.229,1.759,0.382,2.601-0.153,3.06
		c-0.382,0.306-0.765,0.076-1.071,0.459c-0.229,0.382-0.077,0.918,0.077,1.606c0.382,1.224,0.688,1.147,0.688,1.836
		c0,0.306-0.077,0.765,0.229,1.071c0.076,0.077,0.153,0.153,0.229,0.229c0.612,0.536,1.071,0.689,1.53,1.224
		c1.071,1.147,0.612,2.065,1.224,4.896c0.841,3.672,2.448,5.584,1.53,6.579c-0.382,0.382-0.765,0.229-1.224,0.765
		c-0.918,0.994-0.459,2.754-0.306,3.213c1.147,4.743,0.459,9.868,0.918,14.765c0.382,3.901,0.995,12.24,1.224,15.529
		c0,0.229,0.306,2.524,0.306,2.754c0.383,3.213,0.383,4.131,1.071,4.59C297.355,433.562,298.58,433.715,299.345,433.256z"/>
</g>
<g id="Inflorescence_P3">
	<path fill="none" stroke="#000000" stroke-width="0.5" stroke-miterlimit="10" d="M217.872,278.419c-1.301,0.536-1.76,4.59,0,6.961
		c1.224,1.683,2.907,1.53,3.06,2.754c0.153,1.148-1.147,1.53-2.754,4.208c-1.606,2.448-1.224,3.29-2.218,3.902
		c-2.372,1.377-5.891-1.989-6.655-1.147c-0.689,0.688,1.377,3.136,3.595,8.338c2.448,5.584,1.836,6.809,1.377,7.268
		c-0.688,0.612-1.683-0.077-2.218,0.535c-0.688,0.842,0.765,2.601,1.683,5.279c1.453,4.513,1.836,5.355,2.218,6.961
		c0.612,2.677,0.459,5.125,0.459,6.043c0,0.995-0.077,1.76-0.153,2.601c-0.765,8.415-1.606,9.486-0.842,12.24
		c0.536,1.836,0.995,2.065,1.683,4.743c0.841,3.213,1.147,6.961,0.306,7.268c-0.688,0.229-1.377-1.836-2.219-1.683
		c-0.535,0.077-1.147,1.071-1.683,9.792c-0.229,3.137-0.077,2.448-0.306,5.279c-0.306,4.59-0.536,6.043-0.306,8.644
		c0.229,1.989,0.536,2.372,0.842,4.208c0.688,3.672,0,5.125-0.536,11.169c-0.765,9.027,0.459,9.869-1.147,13.388
		c-0.383,0.765-1.147,2.524-1.683,5.049c-0.612,3.213-0.153,4.819,0,5.278c0.459,1.53,0.995,1.377,1.683,3.061
		c0.841,2.065,0.841,3.901,0.841,5.891c0,3.06-0.536,4.055,0.306,5.278c0.612,0.842,1.683,1.683,2.524,1.377
		c0.765-0.306,0.995-1.453,1.147-2.219c0.688-4.36,0.306-8.186,0.306-8.645c-0.459-4.437-0.612-6.579,0-8.95
		c0.688-2.448,2.372-5.814,4.743-8.645c1.148-1.377,2.448-2.601,2.525-4.438c0-0.994-0.383-1.606-0.306-3.365
		c0.077-1.224,0.077-1.989,0.536-2.754c0.841-1.377,1.989-1.147,2.524-2.218c0.459-1.071-0.383-1.836-0.536-3.366
		c-0.153-1.147,0.153-2.831,1.989-5.049c-0.536-0.306-1.148-0.536-1.683-0.842c1.3-2.83,1.606-5.355,0.535-6.12
		c-0.918-0.688-2.907,0.229-4.207,0.841c-2.831,1.301-3.596,2.831-4.437,2.524c-0.918-0.382-1.301-2.524-0.536-3.901
		c0.612-1.071,1.377-0.765,2.524-1.989c1.224-1.377,1.53-3.06,1.683-3.901c0.382-2.218-0.383-2.907,0.306-3.596
		c0.612-0.688,1.607-0.306,5.049-0.306c3.213,0,4.054-0.306,4.437-0.536c1.3-0.688,2.601-2.218,2.218-3.06
		c-0.459-1.071-3.29-1.071-5.049-0.841c-1.606,0.229-2.372,0.688-2.754,0.306c-0.765-0.765,0.841-3.137,0.306-3.596
		c-0.918-0.765-5.967,4.055-6.426,3.596c-0.229-0.229,0.688-1.836,2.218-3.06c1.454-1.224,2.372-1.224,4.743-2.754
		c1.147-0.765,2.065-1.453,1.989-1.989c-0.229-0.841-3.29-0.536-3.366-1.147c-0.077-0.382,1.683-0.765,4.208-1.989
		c2.601-1.224,3.901-1.836,4.437-3.06c0.612-1.453-0.229-2.371,0.536-3.366c0.765-0.918,1.759-0.459,2.754-1.377
		c1.071-0.995,1.53-2.831,0.841-3.596c-0.841-0.918-3.136,0-3.901,0.306c-1.836,0.765-2.983,1.913-3.366,2.218
		c-2.065,2.066-6.961,6.809-7.497,6.426c-0.383-0.229,0.688-2.907,2.754-5.049c1.454-1.454,2.142-1.301,3.595-2.754
		c1.989-1.989,3.366-4.819,2.754-5.278c-0.612-0.612-3.825,1.836-6.656,3.901c-2.983,2.219-4.514,3.749-5.049,3.366
		c-0.383-0.306,0.076-1.683,0.535-2.524c0,0,0.612-0.918,1.989-1.913l0.077-0.077c0.382-0.229,0.688-0.459,0.994-0.612
		c2.984-1.606,3.902-1.989,3.902-1.989c3.978-1.683,6.273-0.841,6.961-2.218c0.459-0.918,0.076-2.448-0.842-3.06
		c-2.983-1.989-11.245,6.502-12.852,5.049c-0.459-0.382-0.229-1.377,0-1.989c0.535-1.071,1.683-0.995,2.754-1.989
		c1.683-1.377,2.218-4.054,1.683-4.437c-0.765-0.535-3.519,2.295-3.902,1.989c-0.229-0.229,1.224-1.606,2.219-4.208
		c0.841-2.219,0.306-2.678,1.147-3.901c1.071-1.683,2.372-1.301,5.049-3.366c1.147-0.841,3.749-2.831,3.366-4.437
		c-0.229-0.995-1.53-1.53-2.524-1.683c-0.459-0.076-1.683-0.076-3.902,1.683c-3.136,2.524-3.825,5.202-4.743,5.049
		c-1.071-0.229-0.842-4.054-1.683-4.208c-1.071-0.153-2.601,5.661-3.06,5.584c-0.382-0.076-0.153-3.978,0.841-8.644
		c1.224-5.738,2.678-7.956,1.377-10.557c-0.688-1.454-1.683-1.76-1.683-3.06c0-1.606,1.453-2.295,3.595-4.743
		c0.306-0.382,4.514-5.278,3.366-6.961c-0.536-0.841-1.76-0.077-3.06-1.147c-1.224-0.995-0.688-2.142-1.989-3.901
		C220.473,279.567,218.867,278.037,217.872,278.419z"/>
</g>
<g id="Inflorescence_P2">
	<path fill="none" stroke="#000000" stroke-width="0.5" stroke-miterlimit="10" d="M142.061,431.726
		c0.995-0.153,0.612-8.874,0.536-10.327c-0.383-7.804-1.454-8.492-1.148-13.924c0.23-3.748,0.842-4.437,0.536-7.496
		c-0.306-3.673-1.3-4.667-0.841-7.498c0.382-2.218,1.071-2.218,1.989-5.584c0.612-2.524,0.765-4.514,0.842-5.891
		c0.153-3.442-0.306-4.208-0.306-7.497c0-3.213,0.536-3.366,0.841-7.267c0.459-5.508,0-10.863-0.535-10.863
		c-0.536,0-0.995,4.208-1.377,4.208c-0.306,0-0.612-3.136,0-6.655c0.612-3.519,1.759-5.125,0.841-6.426
		c-0.612-0.841-1.913-1.224-2.524-0.841c-0.688,0.459,0,1.53-0.306,3.901c-0.153,1.454-0.382,1.301-1.147,4.437
		c-0.382,1.683-0.536,2.524-0.536,3.06c0.077,2.219,1.147,2.983,0.842,4.437c-0.153,0.612-0.536,1.53-1.989,2.524
		c0,4.055-0.306,7.268-0.535,9.486c-0.536,3.902-0.995,5.279-0.842,8.339c0.229,3.29,0.306,4.972,0.842,6.12
		c0.382,0.841,0.994,1.912,0.535,2.524c-0.459,0.612-1.683,0-2.218,0.535c-0.765,0.842,1.3,2.831,1.683,5.891
		c0.306,2.602-1.071,2.678-1.377,6.962c-0.153,1.836-0.306,3.595,0.306,5.89c0.459,1.913,1.071,2.678,0.842,4.208
		c-0.229,1.453-1.071,1.989-0.842,3.06c0.229,1.071,1.147,1.225,1.989,2.219c1.224,1.454,0.841,2.983,1.147,5.278
		C139.689,428.206,141.372,431.802,142.061,431.726z"/>
</g>
<g id="Young_Inflorescence">
	<path fill="none" stroke="#000000" stroke-width="0.5" stroke-miterlimit="10" d="M69.309,368.766
		c0.688-0.153,1.913,0.612,3.901,4.743c-0.229,0.536-0.995,3.137,0.306,5.891c0.918,1.989,2.448,2.983,3.06,3.366
		c0.688,6.196,0.841,13.54-0.306,21.726c-0.382,2.754-0.841,5.355-1.377,7.804c0.536,0.918,1.147,1.836,1.683,2.754
		c-0.077,4.59-0.153,9.104-0.306,13.693c-0.918,1.071-1.53,1.224-1.989,1.147c-0.688-0.076-0.994-0.765-2.218-1.377
		c-0.536-0.229-0.918-0.383-1.224-0.383c-0.076-2.678-0.076-5.354-0.153-8.032c0.382-0.766,0.765-1.913,0.841-3.366
		c0.229-3.213-1.377-5.584-1.989-6.426c0.382-0.612,1.759-2.983,1.147-6.12c-0.459-2.295-2.601-3.748-2.219-4.207
		c0.383-0.459,2.678,1.453,3.366,0.841c0.612-0.535-0.841-2.219-1.377-5.278c-0.536-2.831,0.382-3.137,0-6.961
		c-0.229-2.295-0.765-4.208-1.147-5.279c-0.765-2.524-1.224-2.983-1.683-4.437C66.326,374.427,67.626,368.996,69.309,368.766z"/>
</g>
<g id="Outlines">
	<path fill="none" stroke="#000000" stroke-width="0.5" stroke-miterlimit="10" d="M164.016,473.953
		c0.535-0.765,1.606-1.988,3.29-2.677c0.306-0.153,1.071-0.459,3.519-0.612c3.06-0.229,4.59-0.306,6.426,0.306
		c0.918,0.307,2.524,0.995,4.131,2.678"/>
	<path fill="none" stroke="#000000" stroke-width="0.5" stroke-miterlimit="10" d="M160.956,551.83
		c1.3,0.918,3.213,2.219,5.891,3.29c1.53,0.612,3.366,1.301,5.737,1.53c1.759,0.152,4.437,0.382,7.114-1.071
		c3.596-1.913,4.896-5.508,5.279-6.579"/>
	<path fill="none" stroke="#000000" stroke-width="0.5" stroke-miterlimit="10" d="M532.899,352.089
		c-1.53-3.442-2.066-6.273-2.296-8.262c-0.152-1.53-0.229-2.754-0.152-3.672c0.152-2.677,0.765-4.208,0.611-7.42
		c-0.229-4.36-1.836-7.65-3.978-12.164c-2.371-4.896-3.672-5.584-4.437-9.333c-0.307-1.683-0.23-2.295-0.459-7.726
		c-0.153-4.055-0.307-4.973-0.459-8.415c-0.919-18.896,0.535-27.999,3.748-32.589c1.301-1.836,2.448-2.372,3.289-2.448
		c1.989-0.229,3.902,1.606,4.896,3.136c1.301,2.066,0.765,3.519,0.459,9.716c-0.306,6.885,0.229,8.186-0.918,11.705
		c-0.765,2.524-1.76,4.131-2.219,4.896c-5.891,10.48-1.224,32.589,1.071,32.589c0.688,0,0.306-1.76,2.448-5.279
		c1.147-1.912,2.983-3.978,6.655-8.032c0.994-1.071,0.842-0.918,1.301-1.454c0.535-0.612,3.136-3.595,5.737-7.497
		c5.354-8.032,4.437-10.557,9.104-15.3c1.529-1.53,2.907-2.524,4.896-3.978c6.427-4.667,8.492-4.055,11.705-7.727
		c1.683-1.913,2.065-3.137,4.437-5.125c2.448-2.065,4.438-2.754,4.896-2.907c2.754-0.918,6.426-1.071,6.885,0
		c0.459,1.224-3.289,3.748-5.126,4.972c-3.442,2.295-4.59,2.142-7.267,4.131c-2.448,1.759-3.825,3.672-5.126,5.278
		c-2.524,3.366-2.754,4.973-5.278,9.715c-1.225,2.295-3.137,5.814-6.196,9.715c-3.825,4.896-5.738,7.344-9.104,8.186
		c-2.065,0.536-3.596,0.153-5.126,1.53c-0.765,0.688-0.842,1.147-2.219,4.896c-1.759,4.667-1.912,4.513-2.218,5.967
		c-0.612,2.754-0.153,3.137-0.919,4.896c-0.918,2.142-1.759,1.913-2.677,3.978c-0.918,2.142-0.077,2.678-0.918,5.738
		c-0.688,2.601-1.454,2.677-1.76,4.667c-0.383,2.371,0.306,4.284,0.918,5.967c0.229,0.536,0.383,0.765,0.765,1.53
		c0.229,0.383,0.459,0.765,0.766,1.607c0.306,0.612,0.688,1.606,0.918,2.907c-0.842,0.077-1.684,0.229-2.602,0.383
		C535.5,351.248,534.047,351.707,532.899,352.089z"/>
	<path fill="none" stroke="#000000" stroke-width="0.5" stroke-miterlimit="10" d="M541.008,308.178
		c0.612-2.142,0.766-3.978,0.918-5.278c0.153-2.295-0.076-3.213-0.229-3.749c-0.459-1.53-0.994-1.606-1.53-2.907
		c-1.453-3.213,0.842-5.432-0.688-7.727c-0.689-0.995-1.989-1.913-2.678-1.53c-1.301,0.688,1.453,5.584-0.688,10.634
		c-0.688,1.683-1.606,2.524-2.219,3.29c-2.142,2.677-3.825,7.803-1.53,18.819"/>
	<path fill="none" stroke="#000000" stroke-width="0.5" stroke-miterlimit="10" d="M142.061,364.1c0,1.147,0,2.372,0,3.519
		c-0.459,0.841-0.842,1.224-0.995,1.147c-0.306-0.077-0.229-1.606,0.306-4.514c-0.077-0.382,0.153-0.688,0.306-0.688
		C141.831,363.564,142.061,363.793,142.061,364.1z"/>
	<path fill="none" stroke="#000000" stroke-width="0.5" stroke-miterlimit="10" d="M299.191,319.118
		c-0.076-0.995-0.153-2.142-0.153-3.366c0-1.147,0.077-2.218,0.153-3.213c0.153,0.153,1.683,1.224,1.683,3.213
		C300.951,317.817,299.345,319.041,299.191,319.118z"/>
	<path fill="none" stroke="#000000" stroke-width="0.5" stroke-miterlimit="10" d="M294.295,328.527
		c-0.612-0.306-0.612-1.071-0.918-3.213c-0.459-3.136-0.918-3.978-0.612-4.131c0.535-0.306,2.142,1.836,3.06,3.519
		c0.688,1.3,1.224,2.295,0.765,3.06C296.131,328.527,294.984,328.91,294.295,328.527z"/>
	<path fill="none" stroke="#000000" stroke-width="0.5" stroke-miterlimit="10" d="M297.126,368.766
		c0.306-0.306,0-1.224-0.765-2.219c0,0.765,0.077,1.53,0.077,2.372C296.896,368.996,297.049,368.842,297.126,368.766z"/>
	<path fill="none" stroke="#000000" stroke-width="0.5" stroke-miterlimit="10" d="M296.131,333.193
		c-0.153,0.153,0.153,0.612,0.459,1.454c0.383,0.995,0.306,1.53,0.536,1.53c0.153,0,0.382-0.076,0.842-1.224
		c-0.536-0.536-0.995-1.147-1.53-1.683C296.361,333.193,296.208,333.193,296.131,333.193z"/>
	<path fill="none" stroke="#000000" stroke-width="0.5" stroke-miterlimit="10" d="M295.29,338.625
		c-0.077,0-0.612,0.306-0.765,0.841c-0.077,0.306,0,0.536,0.077,0.688c0.382,0.077,0.765,0.077,1.224,0.153
		C295.672,339.772,295.443,339.161,295.29,338.625z"/>
	<path fill="none" stroke="#000000" stroke-width="0.5" stroke-miterlimit="10" d="M300.186,336.253
		c-0.229,0.077-0.306,0.612-0.306,1.836c0.306,0,0.612-0.076,0.842-0.076c0.076-0.077,0.076-0.229,0.153-0.383
		c0-0.229,0-0.382-0.077-0.459C300.568,336.56,300.339,336.253,300.186,336.253z"/>
	<path fill="none" stroke="#000000" stroke-width="0.5" stroke-miterlimit="10" d="M296.744,281.25
		c-0.077-0.382,0.229-0.765,0.535-0.765c0.229,0,0.383,0.306,0.459,0.459c0.153,0.229,0.306,0.765,0.077,0.918
		C297.662,282.015,296.82,281.709,296.744,281.25z"/>
	<path fill="none" stroke="#000000" stroke-width="0.5" stroke-miterlimit="10" d="M300.186,384.525
		c-0.077,0-0.229,0.306-0.306,0.536c-0.306,0.841-0.612,2.065-0.306,2.218c0.076,0.077,0.306,0,0.765-0.612
		C300.339,385.672,300.416,384.602,300.186,384.525z"/>
	<path fill="none" stroke="#000000" stroke-width="0.5" stroke-miterlimit="10" d="M368.041,254.934
		c0.383-0.382,0-1.147-0.535-2.983c-0.918-2.831-1.071-3.902-1.301-3.902c-0.306,0-0.382,1.606-0.382,3.366
		c-0.077,2.754,0.229,3.213,0.535,3.442C366.817,255.316,367.659,255.316,368.041,254.934z"/>
	<path fill="none" stroke="#000000" stroke-width="0.5" stroke-miterlimit="10" d="M364.446,263.885
		c-0.307-0.153-0.077-0.765-0.077-1.76c0-0.306,0-2.065-0.994-3.366c-0.535-0.765-0.918-0.765-1.301-1.606
		c-0.229-0.535-0.459-1.53-0.152-1.683c0.459-0.229,1.912,0.918,2.677,2.371c0.307,0.536,0.459,1.147,0.766,2.524
		c0.535,2.448,0.306,2.984,0.076,3.213C365.135,263.808,364.676,264.038,364.446,263.885z"/>
	<path fill="none" stroke="#000000" stroke-width="0.5" stroke-miterlimit="10" d="M369.878,257.382
		c0.306-0.076,1.07,0.765,0.918,1.53c-0.153,0.612-0.842,1.071-1.147,0.918c-0.153-0.077-0.153-0.459-0.077-1.147
		C369.648,257.841,369.648,257.382,369.878,257.382z"/>
	<path fill="none" stroke="#000000" stroke-width="0.5" stroke-miterlimit="10" d="M369.036,267.021
		c0.459-0.382,1.377-0.077,1.912,0.153c0,0.612,0,1.606,0,2.754c-0.076,1.683-0.152,4.131-0.459,4.208
		c-0.152,0-0.229-0.306-1.147-3.902C368.883,268.321,368.653,267.403,369.036,267.021z"/>
	<path fill="none" stroke="#000000" stroke-width="0.5" stroke-miterlimit="10" d="M372.555,273.218
		c-0.152,0-0.152,0.382-0.382,2.218c-0.153,0.841-0.229,1.224,0,1.377s0.688,0,0.918-0.229c0.076-0.077,0.306-0.382,0.076-1.606
		C373.014,274.671,372.784,273.218,372.555,273.218z"/>
	<path fill="none" stroke="#000000" stroke-width="0.5" stroke-miterlimit="10" d="M372.784,279.108
		c-0.229,0-0.535,0.459-0.918,2.065c0.612,0.459,1.225,0.842,1.53,0.612C374.009,281.403,373.32,279.108,372.784,279.108z"/>
	<path fill="none" stroke="#000000" stroke-width="0.5" stroke-miterlimit="10" d="M373.702,284.004
		c0.307,0.612-1.147,2.295-1.759,1.989c-0.383-0.153-0.536-0.995-0.383-2.065C372.555,283.622,373.473,283.622,373.702,284.004z"/>
	<path fill="none" stroke="#000000" stroke-width="0.5" stroke-miterlimit="10" d="M369.954,287.446
		c-0.076,0.077-0.383,0.229-0.459,1.53c-0.076,1.071-0.153,1.683,0.153,2.295c0.306,0.612,0.611,0.459,0.994,1.147
		c0.612,1.071,0.153,1.913,0.612,2.219c0.306,0.153,0.918-0.077,1.224-0.459c0.688-0.995-0.612-2.907-0.765-3.06
		c-0.536-0.688-0.688-0.612-0.918-1.147c-0.383-1.071,0.382-2.066-0.077-2.448C370.566,287.293,370.184,287.37,369.954,287.446z"/>
	<path fill="none" stroke="#000000" stroke-width="0.5" stroke-miterlimit="10" d="M377.604,293.337
		c-0.382,0.229-0.306,0.995-0.229,1.913c0.076,2.448-0.307,3.749,0,3.825c0.229,0.076,0.688-0.765,0.918-1.301
		c0.306-0.765,0.076-0.918,0.229-2.601c0.076-0.994,0.229-1.377-0.077-1.683C378.216,293.337,377.834,293.261,377.604,293.337z"/>
	<path fill="none" stroke="#000000" stroke-width="0.5" stroke-miterlimit="10" d="M370.413,301.446
		c-0.153,0.153,0,0.459,0.076,1.301c0.077,0.995-0.152,1.147,0.077,1.683c0.229,0.459,0.459,0.459,0.535,0.918
		c0.076,0.382-0.076,0.612-0.153,1.224c-0.076,0.536,0,0.842,0.077,1.377c0.229,1.989-0.383,2.907,0.152,3.29
		c0.307,0.229,0.766,0.153,1.071-0.076c0.306-0.306,0.229-0.842,0.076-1.836c-0.382-2.984-0.229-3.519,0.077-3.825
		c0.306-0.229,0.688-0.153,0.841-0.382c0.077-0.229-0.152-0.612-0.382-0.842c-0.536-0.382-0.995,0-1.301-0.229
		c-0.535-0.459,0.459-1.759-0.076-2.448C371.255,301.293,370.643,301.216,370.413,301.446z"/>
	<path fill="none" stroke="#000000" stroke-width="0.5" stroke-miterlimit="10" d="M372.938,330.516
		c0.229-0.077,0.459-0.918,0.306-4.437c-0.459,0-0.994-0.077-1.453-0.077c-0.153,0.612-0.229,1.836,0.229,3.137
		C372.096,329.292,372.632,330.592,372.938,330.516z"/>
	<path fill="none" stroke="#000000" stroke-width="0.5" stroke-miterlimit="10" d="M376.763,362.34
		c-0.307-0.076-0.383-0.841-0.459-1.53c-0.077-0.536-0.077-1.53,0.076-1.53s0.229,0.383,0.765,1.148
		c0.307,0.535,0.459,0.535,0.459,0.841C377.604,361.728,377.068,362.417,376.763,362.34z"/>
	<path fill="none" stroke="#000000" stroke-width="0.5" stroke-miterlimit="10" d="M452.574,278.496
		c-0.307,0.306-1.147,1.224-1.225,2.524c0,0.382-0.076,1.071,0.459,1.683c0.383,0.459,1.071,0.841,1.377,0.688
		C453.492,283.239,453.645,282.245,452.574,278.496z"/>
	<path fill="none" stroke="#000000" stroke-width="0.5" stroke-miterlimit="10" d="M451.579,258.988
		c-0.535,0-0.918-0.535-1.07-0.918c-0.153-0.382-0.077-0.612,0-1.759c0.076-0.612,0.076-1.377,0.076-2.142
		c0-0.918-0.076-1.3,0.076-1.377c0.307-0.153,0.918,0.765,0.995,0.918c0.152,0.229,0.459,0.688,0.765,1.989
		c0.306,0.994,0.383,1.53,0.306,1.989C452.574,258.147,452.191,258.988,451.579,258.988z"/>
	<path fill="none" stroke="#000000" stroke-width="0.5" stroke-miterlimit="10" d="M453.415,261.054
		c-0.688,0.994-0.841,1.912-0.918,2.448c0,0.459-0.076,1.377,0.307,1.606c0.382,0.229,1.147-0.382,1.453-0.994
		C454.716,263.272,454.334,262.048,453.415,261.054z"/>
	<path fill="none" stroke="#000000" stroke-width="0.5" stroke-miterlimit="10" d="M444.924,232.979
		c0.153,0.995,0.229,1.606,0.229,1.606l0,0c-0.459-0.306,0.842,1.071,1.377,0.918c0.229-0.076,0.307-0.535-0.076-2.524
		C445.919,232.902,445.459,232.979,444.924,232.979z"/>
	<path fill="none" stroke="#000000" stroke-width="0.5" stroke-miterlimit="10" d="M446.607,240.476
		c0.229,0.153,0.459,0.306,0.459,0.612s-0.383,0.459-0.995,1.071c-0.459,0.459-0.918,0.918-0.918,1.453
		c0,0.459,0.383,0.459,0.688,1.148c0.307,0.688,0.153,0.994,0.459,1.453c0.229,0.306,0.612,0.612,0.918,0.459
		c0.153-0.076,0.229-0.382,0.229-1.377c-0.076-1.454-0.306-2.831-0.382-2.831c0,0,0,0.229,0.076,1.071"/>
	<path fill="none" stroke="#000000" stroke-width="0.5" stroke-miterlimit="10" d="M453.722,317.894
		c-0.229,1.759-0.383,3.442-0.612,5.202c0.765-0.153,0.994-0.383,1.071-0.612c0.076-0.229-0.076-0.382-0.076-0.918
		c-0.077-0.536,0.076-0.841,0.076-1.071C454.334,320.112,454.257,319.271,453.722,317.894z"/>
	<path fill="none" stroke="#000000" stroke-width="0.5" stroke-miterlimit="10" d="M454.027,553.131
		c-0.918-1.606-1.53-3.06-1.912-4.055c-0.229-0.535-0.307-0.918-0.459-1.377c-0.307-1.224-0.229-2.295-0.153-4.207
		c0.306-4.131,0.459-4.819,0-5.891c-0.229-0.459-0.459-0.765-0.612-1.53c-0.229-0.918-0.076-1.53-0.535-2.142
		c-0.229-0.307-0.306-0.229-0.535-0.536c-0.383-0.611,0-1.147-0.229-2.065c-0.077-0.382-0.307-0.688-0.383-0.841
		c-0.994-1.684,0.383-5.585-0.306-9.181c-0.383-1.836-0.766-1.377-1.301-3.519c-0.535-2.372-0.229-4.055,0-6.12
		c0.229-2.219,0.688-6.579-0.306-11.169c-0.842-3.901-1.76-3.519-1.837-6.044c-0.076-2.754,0.995-6.426-0.459-7.573
		c-0.152-0.076-0.459-0.306-0.611-0.765c-0.383-0.918-0.077-2.143,0.382-2.295c0.459-0.077,0.919,0.688,0.995,0.765
		c0.383,0.535,0.383,0.994,0.459,1.53c0.152,1.301,0.306,1.147,0.535,2.448c0.536,3.519-0.459,4.896,0.536,7.42
		c0.382,0.918,0.535,0.842,0.765,1.684c0.383,1.377,0,2.142,0.383,3.978c0.076,0.535,0.229,0.842,0.306,1.147
		c0.688,2.219,0.459,4.59,0.306,6.044c0,0.229-0.306,4.666,0.459,9.485c0.459,2.907,0.766,2.448,0.918,4.59
		c0.307,3.673-0.611,5.05,0.229,8.186c0.229,0.688,0.536,1.606,0.918,2.907c0.612,1.836,0.918,2.602,1.147,3.901
		c0.153,0.918,0.153,1.53,0.153,2.219c0,0.918,0,5.049,0.306,7.191c0.229,1.529,0.842,3.595,2.678,6.043"/>
	<path fill="none" stroke="#000000" stroke-width="0.5" stroke-miterlimit="10" d="M394.511,537.296
		c-0.459-1.071-0.688-1.989-0.842-2.678c-0.229-1.225-0.612-2.831-0.383-4.743c0.077-0.688,0.229-1.071,0.153-1.836
		c-0.076-0.918-0.383-1.224-0.612-2.142c-0.306-0.842-0.306-1.76-0.382-3.443c-0.077-1.988,0.076-1.836-0.077-2.906
		c-0.229-2.295-0.918-2.524-1.224-4.896c-0.076-0.765-0.076-1.76-0.076-3.596c0-1.3-0.153-2.524,0.076-3.824
		c0.076-0.536,0.229-1.301-0.153-2.143c-0.152-0.383-0.306-0.459-0.535-0.842c-0.153-0.229-0.306-0.688-0.383-2.371
		c-0.076-1.071,0-1.606-0.229-2.601c-0.152-0.766-0.306-0.842-0.306-0.842c-0.153,0-0.383,0.688-0.459,1.224
		c-0.076,0.536,0,0.766,0.153,1.913c0.152,1.377,0.229,2.065,0.229,2.295c0,0.535-0.077,0.994,0.152,1.224s0.536,0.153,0.766,0.383
		c0.382,0.383,0,1.224-0.077,1.453c-0.076,0.307-0.152,1.684-0.229,4.438c-0.076,2.524,0.459,2.754,0.766,5.661
		c0.382,4.437-0.536,8.797,0.918,9.562c0.152,0.076,0.382,0.152,0.535,0.382c0.535,0.536,0.383,1.454,0.306,2.524
		c-0.076,0.536-0.076,0.459-0.152,1.071c-0.153,1.071-0.077,1.606-0.077,2.678c0,0.611,0.077,0.994,0.383,1.3
		c0.153,0.23,0.306,0.153,0.459,0.383c0.229,0.383,0.153,0.688,0.229,1.377c0,0.229,0.076,0.536,0.229,0.918"/>
	<path fill="none" stroke="#000000" stroke-width="0.5" stroke-miterlimit="10" d="M65.79,495.067
		c1.147,2.907,2.218,5.814,3.366,8.721c0.765-0.459,1.836-1.224,2.831-2.524c0.765-0.994,1.454-1.836,1.224-2.677
		c-0.077-0.383-0.382-0.995-3.213-2.143C68.926,496.062,67.549,495.526,65.79,495.067z"/>
	<path fill="none" stroke="#000000" stroke-width="0.5" stroke-miterlimit="10" d="M219.249,329.445
		c-0.077-0.306-0.153-1.453,0.536-2.524c0.841-1.377,2.295-1.606,2.524-1.683"/>
	<polyline fill="none" stroke="#000000" stroke-width="0.5" stroke-miterlimit="10" points="220.09,349.258 220.396,345.893 
		220.396,345.893 	"/>
	<path fill="none" stroke="#000000" stroke-width="0.5" stroke-miterlimit="10" d="M221.238,397.912
		c0.918,1.225-2.218,5.814-3.366,5.432c-0.918-0.306-0.536-3.596-0.306-5.661c0.612,0,1.301-0.076,1.913-0.076
		C220.09,397.453,220.932,397.453,221.238,397.912z"/>
	<path fill="none" stroke="#000000" stroke-width="0.5" stroke-miterlimit="10" d="M224.068,385.137
		c-1.759,1.759-3.595,3.595-5.355,5.355c0.383,0.076,3.749,0.918,5.279-0.842c0.612-0.688,0.612-2.065,0.535-4.743
		c-0.076-2.983-0.076-4.437-0.841-4.743c0,0-0.382-0.153-3.366,1.683l0,0c0,0.688,0,1.3,0,1.989
		c1.301,0.077,2.601,0.077,3.902,0.153"/>
	<path fill="none" stroke="#000000" stroke-width="0.5" stroke-miterlimit="10" d="M216.954,393.093
		c0.076,1.071,0.229,2.066,0.306,3.137c0.536-0.382,1.224-0.918,1.836-1.53c0.612-0.612,1.071-1.224,1.453-1.76
		c-0.382-0.077-0.994-0.229-1.683-0.153C218.025,392.71,217.413,392.94,216.954,393.093z"/>
</g>
<g id="Labels">
	
		<text transform="matrix(1 0 0 1 55.5386 572.9746)" fill="none" stroke="#000000" stroke-width="0.5" stroke-miterlimit="10" font-family="'Helvetica'" font-size="8">Seed S1</text>
	
		<text transform="matrix(1 0 0 1 103.4419 572.9746)" fill="none" stroke="#000000" stroke-width="0.5" stroke-miterlimit="10" font-family="'Helvetica'" font-size="8">Seed S2</text>
	
		<text transform="matrix(1 0 0 1 154.4663 572.9746)" fill="none" stroke="#000000" stroke-width="0.5" stroke-miterlimit="10" font-family="'Helvetica'" font-size="8">Seed S3</text>
	
		<text transform="matrix(1 0 0 1 222.3091 572.9746)" fill="none" stroke="#000000" stroke-width="0.5" stroke-miterlimit="10" font-family="'Helvetica'" font-size="8">Seed S4</text>
	
		<text transform="matrix(1 0 0 1 299.9575 572.9746)" fill="none" stroke="#000000" stroke-width="0.5" stroke-miterlimit="10" font-family="'Helvetica'" font-size="8">Seed S5</text>
	
		<text transform="matrix(1 0 0 1 377.2734 570.8652)" fill="none" stroke="#000000" stroke-width="0.5" stroke-miterlimit="10" font-family="'Helvetica'" font-size="8">Young Leaf</text>
	
		<text transform="matrix(1 0 0 1 441.3389 570.8652)" fill="none" stroke="#000000" stroke-width="0.5" stroke-miterlimit="10" font-family="'Helvetica'" font-size="8">Mature Leaf</text>
	
		<text transform="matrix(1 0 0 1 515.834 570.8652)" fill="none" stroke="#000000" stroke-width="0.5" stroke-miterlimit="10" font-family="'Helvetica'" font-size="8">SAM</text>
	
		<text transform="matrix(1.2068 0 0 1 21.4629 442.1221)" fill="none" stroke="#000000" stroke-width="0.5" stroke-miterlimit="10" font-family="'Helvetica'" font-size="8">Young Inflorescence</text>
	
		<text transform="matrix(1.2068 0 0 1 21.4629 451.3018)" fill="none" stroke="#000000" stroke-width="0.5" stroke-miterlimit="10" font-family="'Helvetica'" font-size="8">(P1)</text>
	
		<text transform="matrix(1 0 0 1 118.4424 442.1221)" fill="none" stroke="#000000" stroke-width="0.5" stroke-miterlimit="10" font-family="'Helvetica'" font-size="8">Inflorescence (P2)</text>
	
		<text transform="matrix(1 0 0 1 193.9805 442.1221)" fill="none" stroke="#000000" stroke-width="0.5" stroke-miterlimit="10" font-family="'Helvetica'" font-size="8">Inflorescence (P3)</text>
	
		<text transform="matrix(1 0 0 1 269.0332 442.1221)" fill="none" stroke="#000000" stroke-width="0.5" stroke-miterlimit="10" font-family="'Helvetica'" font-size="8">Inflorescence (P4)</text>
	
		<text transform="matrix(1 0 0 1 350.4023 442.1221)" fill="none" stroke="#000000" stroke-width="0.5" stroke-miterlimit="10" font-family="'Helvetica'" font-size="8">Inflorescence (P5)</text>
	
		<text transform="matrix(1 0 0 1 428.75 442.1221)" fill="none" stroke="#000000" stroke-width="0.5" stroke-miterlimit="10" font-family="'Helvetica'" font-size="8">Inflorescence (P6)</text>
	
		<text id="Seedling_Root_1_" transform="matrix(1 0 0 1 531.2734 442.1221)" fill="none" stroke="#000000" stroke-width="0.5" stroke-miterlimit="10" font-family="'Helvetica'" font-size="8">Seedling Root</text>
</g>
</svg>
