<?xml version="1.0" encoding="utf-8"?>
<!-- Generator: Adobe Illustrator 16.0.0, SVG Export Plug-In . SVG Version: 6.00 Build 0)  -->
<!DOCTYPE svg PUBLIC "-//W3C//DTD SVG 1.1//EN" "http://www.w3.org/Graphics/SVG/1.1/DTD/svg11.dtd">
<svg version="1.1" id="Layer_1" xmlns="http://www.w3.org/2000/svg" xmlns:xlink="http://www.w3.org/1999/xlink" x="0px" y="0px"
	 width="612px" height="792px" viewBox="0 0 612 792" enable-background="new 0 0 612 792" xml:space="preserve">
<image display="none" overflow="visible" enable-background="new    " width="800" height="599" xlink:href="riceanoxia_rma_image.png"  transform="matrix(0.765 0 0 0.765 0 166.8823)">
</image>
<g id="Labels">
	
		<text transform="matrix(1 0 0 1 105.7803 582.0156)" fill="none" stroke="#000000" stroke-width="0.5" stroke-miterlimit="10" font-family="'Helvetica-Light'" font-size="10">Aerobic</text>
	
		<text transform="matrix(1 0 0 1 377.7354 582.0166)" fill="none" stroke="#000000" stroke-width="0.5" stroke-miterlimit="10" font-family="'Helvetica-Light'" font-size="10">Anoxia</text>
	
		<text transform="matrix(1 0 0 1 476.7051 257.499)" fill="none" stroke="#000000" stroke-width="0.5" stroke-miterlimit="10" font-family="'Helvetica-Light'" font-size="10">Coleoptile</text>
	
		<text transform="matrix(1 0 0 1 177.0327 412.0684)" fill="none" stroke="#000000" stroke-width="0.5" stroke-miterlimit="10" font-family="'Helvetica-Light'" font-size="10">Coleoptile</text>
	
		<text transform="matrix(1 0 0 1 314.3281 474.6836)" fill="none" stroke="#000000" stroke-width="0.5" stroke-miterlimit="10" font-family="'Helvetica-Light'" font-size="10">Caryopsis</text>
	
		<text transform="matrix(1 0 0 1 196.625 489.6143)" fill="none" stroke="#000000" stroke-width="0.5" stroke-miterlimit="10" font-family="'Helvetica-Light'" font-size="10">Caryopsis</text>
</g>
<g id="Anoxic_coleoptile">
	<path fill="none" stroke="#000000" stroke-width="0.5" stroke-miterlimit="10" d="M441.099,208.192
		c-3.748-1.224-9.256,3.366-12.01,7.956c-2.372,4.055-2.372,8.262-2.296,16.524c0.077,5.967,0.153,11.705,1.684,19.431
		c1.836,8.951,3.901,12.011,2.295,17.136c-1.301,3.979-3.213,4.438-5.126,7.956c-1.988,3.749-2.677,8.645,1.684,24.557
		c5.432,19.661,10.098,25.016,6.885,31.977c-2.065,4.437-4.437,3.29-6.885,7.956c-3.672,7.114,0.765,11.857,3.442,30.294
		c1.989,13.541,0.994,21.038,0.535,23.944c-0.841,5.508-1.529,5.049-2.295,10.251c-1.836,12.316,1.913,14.382,1.147,26.239
		c-0.765,11.934-4.819,15.529-1.683,22.262c2.065,4.437,4.131,3.672,5.737,7.956c3.213,8.721-3.672,16.447,0.076,20.195
		c0.995,0.995,1.071,0.153,6.35,2.524c2.602,1.225,3.749,1.989,6.35,2.983c1.913,0.766,3.596,1.225,4.667,1.454
		c-0.612-4.819-1.454-8.645-1.989-11.169c-1.147-5.126-1.836-6.426-1.147-8.568c1.224-3.825,4.59-3.596,6.885-7.42
		c1.377-2.296,1.454-4.514,0.535-12.547c-1.07-9.485-1.836-11.78-2.295-16.523c-0.918-9.257,1.071-8.95,0.536-18.819
		c-0.612-11.857-3.52-13.158-2.831-22.873c0.536-7.803,2.448-7.268,2.295-13.694c-0.229-10.328-5.125-13.464-2.83-19.431
		c1.836-4.82,5.508-3.978,8.568-9.716c0.688-1.3,2.371-4.896,1.683-15.376c-0.918-13.847-4.284-13.693-3.978-22.874
		c0.306-9.256,3.748-11.475,2.295-19.966c-0.918-5.355-2.372-4.896-3.443-10.251c-1.453-7.574,1.301-9.257,2.296-22.262
		c0.382-5.355,0.765-10.557-0.536-17.136c-0.841-4.361-1.453-4.361-2.295-9.104c-1.071-6.502-0.459-9.333-2.83-12.546
		c-1.225-1.683-1.53-1.071-4.59-3.978C443.088,210.946,443.317,208.881,441.099,208.192z"/>
</g>
<g id="Aerobic_coleoptile">
	<path fill="none" stroke="#000000" stroke-width="0.5" stroke-miterlimit="10" d="M180.158,319.959
		c3.136,0.459,5.355,11.934,3.442,22.262c-0.995,5.125-2.754,8.721-5.738,14.841c-3.136,6.426-6.196,11.016-10.251,17.136
		c-7.114,10.634-8.109,10.481-10.251,15.377c-3.136,7.114-3.672,13.464-3.978,17.671c-0.535,6.886,0.306,9.792,1.147,18.819
		c1.148,13.082-0.229,11.704,0.536,30.829c0.612,15.76,1.76,21.956-1.683,23.945c-2.142,1.224-3.595-0.459-12.01-1.684
		c-9.41-1.377-11.552,0.229-14.306-1.683c-4.131-2.907-3.978-10.021-2.831-21.114c1.683-17.06,2.601-25.628,5.738-37.103
		c3.749-13.77,7.65-22.873,14.305-38.25c6.35-14.611,9.562-22.032,14.306-26.239c4.36-3.902,8.874-6.197,11.398-12.546
		c1.683-4.284,0.995-6.732,3.442-12.546C174.267,327.456,177.48,319.653,180.158,319.959z"/>
</g>
<g id="Outline">
	<path fill="none" stroke="#000000" stroke-width="0.5" stroke-miterlimit="10" d="M479.349,519.777
		c0.383,16.906-22.644,28.917-28.534,31.977c-14.688,7.65-27.616,7.88-51.943,7.956s-38.556,0-54.774-7.956
		c-8.415-4.207-28.993-14.306-29.758-30.294c-0.918-19.508,28.534-33.277,33.2-35.42c13.312-5.967,24.48-5.89,46.665-5.737
		c22.186,0.153,35.879,0.229,51.867,7.421C454.486,491.625,478.967,502.564,479.349,519.777z"/>
	<path fill="none" stroke="#000000" stroke-width="0.5" stroke-miterlimit="10" d="M200.201,519.777
		c0.382,15.759-19.737,27.311-27.999,31.977c-18.666,10.71-36.797,10.786-51.408,10.863c-14.306,0.076-33.201-0.077-53.091-10.863
		c-10.48-5.661-28.382-15.453-29.146-30.294c-0.842-18.59,25.934-32.054,32.512-35.42c17.672-8.874,34.042-8.721,47.354-8.567
		c11.934,0.152,29.759,0.535,49.113,10.251C179.01,493.537,199.818,504.018,200.201,519.777z"/>
	<path fill="none" stroke="#000000" stroke-width="0.5" stroke-miterlimit="10" d="M200.506,521.307
		c1.224-1.3,3.902-1.224,5.738-0.152c1.759,0.994,1.606,2.371,3.213,2.83c1.53,0.459,2.218-0.612,3.366,0
		c1.3,0.688,0.688,2.372,1.989,3.366c1.377,0.994,2.678-0.306,4.208,0.688c1.454,0.918,0.841,2.295,2.218,3.672
		c1.607,1.606,3.443,0.688,5.738,1.683c2.754,1.225,3.213,4.055,4.896,6.732c1.53,2.524,4.513,5.585,10.939,7.727
		c0.229,0.459,1.53,3.137,0.688,3.901c-0.153,0.153-0.765,0.459-3.366-0.994c-4.437-2.372-5.355-4.438-8.415-5.355
		c-1.759-0.535-3.06-0.383-3.672-0.306c-7.727,0.153-9.027-12.546-19.89-19.049c-0.841-0.459-5.508-3.213-6.579-1.989
		c-1.301,1.377,3.06,7.574,7.268,13.006c0.612,0.459,1.606,0.994,2.677,0.994c1.224,0,1.76-0.612,2.372-0.306
		c1.071,0.382,0.612,2.447,1.147,4.742c0.841,3.52,3.749,6.886,6.885,7.88c1.607,0.535,2.066,0.076,3.672,0.842
		c2.218,0.994,4.284,3.137,3.901,4.055c-0.536,1.07-4.973,1.224-7.879-0.995c-2.601-1.912-2.601-4.514-5.049-5.354
		c-1.53-0.536-3.06-0.077-4.054,0.306c-0.077-1.377-0.306-3.366-1.377-5.355c-1.224-2.447-2.907-3.824-3.519-4.36
		c-2.142-1.836-5.125-5.202-8.721-11.628c0.153-0.765,0.383-1.989,0.688-3.366C200.124,521.843,200.354,521.536,200.506,521.307z"/>
</g>
</svg>
