<?xml version="1.0" encoding="UTF-8" standalone="no"?>
<svg xmlns="http://www.w3.org/2000/svg" height="800" viewBox="0 0 1066.6667 800" width="1066.7" version="1.1">
 <g id="Lines">
  <g stroke="#000" stroke-width="1px" fill="none">
   <path d="m344.8 151.6 11.6 14 6.4 8-11.6-21.2-2.4-4 1.6-4 8.4-10.8-3.2-4.8"/>
   <path d="m358.8 133.6 2.8 4h2l2.4-0.8 7.2-10"/>
   <path d="m366 136.8 5.2 2.8 3.2-4.8"/>
   <path d="m371.2 139.6l3.6 4.8 5.6-9.6"/>
   <path d="m374.8 144.4 3.6 2.4 3.6-7.2"/>
   <path d="m378.4 146.8 2.4 4.8-0.8 2 7.6-5.2"/>
   <path d="m380 153.6v6.4l11.6 11.2-0.8 3.6h14l3.6 5.6"/>
   <path d="m378 186-4.4-8.4v-2l-0.4-3.2 0.4-2.4 1.2-2.4 3.2-3.2 2-4.4"/>
   <path d="m393.2 152 2.8 8.4 0.4 6.4 9.2 2.4"/>
   <path d="m410.4 148.8-14.864 8.5818"/>
   <path d="m422 151.2-10 2.8-8.8 3.2-6.8445 1.834"/>
   <path d="m416.4 157.6-15.2 4.8-5.7981 1.5536"/>
   <path d="m231.6 205.2-2.8 7.6-15.2 10.4-4.8 8-4.4 3.2"/>
   <path d="m258.4 202.4c-0.4 6.4-0.8 6.4-0.8 6.4l-5.6 1.2-4.4 2.4"/>
   <path d="m257.6 208.8v6.8l-5.2 0.8-3.6 6"/>
   <path d="m257.6 215.6 1.6 5.6-4 10.4"/>
   <path d="m270.8 217.6l-2.8-2.8-2.4-0.8-1.6 0.4-6.4 1.2v-6.8l0.8-6.4"/>
   <path d="m261.6 214.4v-6.4l-1.7804-6.6445"/>
   <path d="m261.6 214.4v8l-6.4 9.2"/>
   <path d="m226 285.6-5.6 16.4-2.4 6.8-1.2 6v4.4l-0.8 8.4"/>
   <path d="m240.4 296 3.6-2.4 2.4-1.6 2.8-0.8v-2.4"/>
   <path d="m249.2 325.6 0.8-15.6 1.2-9.2 2.4-10"/>
   <path d="m260.8 300 7.6 8.8 3.2 4.8 3.2 2"/>
   <path d="m342.4 268-3.2 5.6-0.8 4.4-0.8 4.4-0.4 7.2 0.8 3.2"/>
   <path d="m322 277.6z"/>
   <path d="m330 274.8 9.2-1.2"/>
   <path d="m353.2 287.6-0.8-3.6-13.2-10.4"/>
   <path d="m240.4 360.4v-4l-4.8-1.6-6.4-0.8h-6.4l-2.8 2-3.2 4.4-3.6 4.4"/>
   <path d="m224.4 359.6 5.2517-1.4072 3.1856-0.85359 3.8624 1.0349l3.7 2.03"/>
   <path d="m211.6 375.6c8-4.8 7.6-4.8 7.6-4.8l2.4-0.4"/>
   <path d="m212.8 383.2 3.2-2.8h2.4"/>
   <path d="m245.6 351.6 4.4 3.2 6 2.8 5.2 3.2 5.2 5.2 0.4-1.2"/>
   <path d="m240.4 360.4h4.8l4.8-5.6"/>
   <path d="m261.2 369.6-3.6-1.2-12.4-8"/>
   <path d="m245.2 360.4 0.8 5.6 2.4 7.6 4 8.4 2.8 10"/>
   <path d="m248.4 373.6-4.4 2.8"/>
   <path d="m246 366 8.4 6.8"/>
   <path d="m261.2 380.8-12.8-7.2"/>
   <path d="m262.8 387.2-10.4-5.2"/>
   <path d="m245.6 387.6 6.8-5.6"/>
   <path d="m501.6 299.6 2.8 4.4 3.2 2.4 3.6-0.4 4.8-0.4"/>
   <path d="m497.2 309.2z"/>
   <path d="m497.2 309.2h9.2l4.9856 2.8785 2.21 1.92"/>
   <path d="m555.2 303.6 4.8 2.8 4.8-0.4h2l3.2-1.6 4.4-1.2 1.2-3.6"/>
   <path d="m561.2 316.8z"/>
   <path d="m561.2 316.8l1.2-5.2 4.3392-2.5053 3.316-0.88852h5.94l7.6 4.1938"/>
   <path d="m474 232.4 27.2 0.4h16l18.8 2 14.8-2.4h11.2l10.8-3.6h8.4l19.6-10.8 11.6-4"/>
   <path d="m472.8 246.4 27.2 2.4 14 2.4 17.2-3.6 19.2-2.8 19.6-4 20.4-3.2 32.4-12.8"/>
   <path d="m271.6 473.6h-6l-5.6 1.2-5.6 2-6.4 2.4-4 2.4-5.2 4.8-5.6 5.2"/>
   <path d="m265.6 473.6z"/>
   <path d="m265.6 473.6-1.2 4.4"/>
   <path d="m265.6 473.6-4.4-4.4-2.4-3.2"/>
   <path d="m257.2 482.4 1.2-3.6 1.6-4-9.6-5.2"/>
   <path d="m254 476.4-6 2.8"/>
   <path d="m244 481.6-7.2-2.4"/>
   <path d="m254 476.4h-11.2"/>
   <path d="m238.8 486.4-4-0.8"/>
   <path d="m304.4 480.8 6.4-6.8 8.8-8.8 5.6-3.2 8.8-0.4"/>
   <path d="m326.8 458-1.6 4"/>
   <path d="m304.4 480.8 3.6 2.4 3.2-0.4 6.4 0.4"/>
   <path d="m312 474.4 6-0.4 5.6 0.8 2.8 0.8"/>
   <path d="m312 474.4 0.8-7.2-1.6-3.6"/>
   <path d="m322.8 202-4 7.2-6.8 8-3.2 4.4-2.4 4.4-1.6 3.2-2 3.2-1.2 4v4l0.4 6.4 0.8 8.8 0.4 4.8 1.6 3.6 1.2 5.2-0.8 5.2-0.4 4 2 10.4 0.4 9.6 2 9.2v13.2l0.8 5.6 6.4-10.8v-4l2.8-0.8 3.2 8-3.6 4.4-2 4.4-1.2 4.8-2.4 3.2-2.4 2.4-2.4 4.8-2 5.2-1.2 6.4-4.8 9.2-2.4 5.6-1.6 9.6-2 6.8-2.4 8.8 0.8 7.2 0.8 8.4 1.6 9.6 0.4 10.4-1.2 12.8 0.8 6.8v8l-0.4 15.6 3.6 8.4 6-0.8-1.6 4.8-3.2 4-2.4 3.6v4.8l1.2 9.6-0.4 12.4-0.4 9.6 1.2 8.4-3.2 10 1.2 13.2v0.8l-6.8-0.4 1.2-11.6 0.4-2.4-1.2-1.6-1.2-1.2-0.8-1.6 0.4-2.4 1.2-0.8 1.2-2 3.2-16-2.8-10.8 1.6-16.4-4-5.6-6.8-6.4-10.8-9.2 5.2-2.8 7.2 3.6 6.8 10.4 0.4-14.8-1.6-9.2-0.8-18.8v-19.6l-4-27.6-6-6.8-8.4-8.8v-2l13.2 7.2 4-1.6 6-23.6 9.6-23.6-4-10.4-9.2-11.2-26.4-22.4-0.8-4.4 7.2 3.6 17.2 14 16 14.8 1.2-16-3.2-24-4.8-20.8 0.4-8.4-7.2-10-5.6-8-10.8-6.8 5.2-2.4 10 8.4 7.6 9.2 2.4-14.4 4.4-8.8 6-8.4z"/>
   <path d="m299.2 598 6.4-1.6 8.8-4.8"/>
   <path d="m300.8 606h3.6l4.8 2.4"/>
   <path d="m290 600.8-2.8 2.8-6.4 3.6h-0.8"/>
   <path d="m287.2 603.6l-3.6 7.2v2.8"/>
   <path d="m300.4 616.4 4.8 2.4 4.4 6.4 5.6 4"/>
   <path d="m302 628.4 7.6 2.4 10.8 1.6 11.6 2"/>
   <path d="m309.6 630.8 0.4 7.2 5.6 5.2 2.8 4.4"/>
   <path d="m338.8 650.8-4-2-2.4-2.8-5.2-4.4-7.2-4-2.8-2.8-2-5.6"/>
   <path d="m327.6 654.4-4-2.8v-2l0.4-2.8 3.2-5.2 4.4-2 2.8 0.4 2.4 0.8"/>
   <path d="m304.4 649.2 3.6 0.4 10.8 7.2"/>
   <path d="m305.2 656.4s0.4 2.4 2.8 2.4h2.4 2l6.4 2.8 10.4 7.6"/>
   <path d="m312.4 658.8-2 5.6 3.2 2.8 5.6 7.6 4.8 4 6 3.2"/>
   <path d="m318.8 661.6 0.8 4 0.4 2.4 1.2804 4.7785"/>
   <path d="m325.6 666-0.8 4 2.4 5.2 0.4 1.6"/>
   <path d="m304.4 664.8 2 2.8 2 6"/>
   <path d="m303.6 675.2 12 5.6"/>
   <path d="m309.6 677.6z"/>
   <path d="m309.6 677.6l4.5909 7.9517 7.0091 3.2483 6 6.4 5.6 7.2 7.2 8 1.2 3.6"/>
   <path d="m315.2 691.6-1.0091-6.0483"/>
   <path d="m308 698v-4.8l0.4-5.6-1.2-2.8-1.6-3.2-3.2-1.6"/>
   <path d="m317.2 712.8-3.2-4.8-2-1.6-4-1.6-10.4-7.6"/>
   <path d="m307.2 709.6 0.8-4.8"/>
   <path d="m292.4 685.2l-6.8 12.4-5.6 6-2 6.4"/>
   <path d="m294.4 642.4-4-0.4-2.4 1.2-2.8 12v5.2l-4.4 3.2"/>
   <path d="m285.2 655.2-4 2.4-3.2-1.2-2 6.4-4.4 4.8-1.2 8-0.4 2.4"/>
   <path d="m278 656.4-6.8 2.8-2.4 2.8"/>
   <path d="m271.6 667.6-8 2.8-3.2 2"/>
   <path d="m293.2 633.6c-6.8 2.8-12 9.2-12 9.2l-9.2 6.4-8.4 6.4"/>
   <path d="m291.6 624.8-3.2 2.8-4.8 1.2-6.4 3.6"/>
   <path d="m288.4 627.6-2.4 6.8-9.2 2.4-4.8 1.2-6.4-0.4"/>
   <path d="m255.6 654z"/>
   <path d="m257.2 647.6 0.8-3.2 14.135-3.7876h5.46l3.358-1.9388 5.04-4.27"/>
   <path d="m255.6 654 1.6-6.4"/>
   <path d="m241.2 658.8 3.6-5.6 7.2-3.6 5.2-2"/>
   <path d="m234 663.2 1.2-5.2 2-4.8 3.6-1.6 4 1.6"/>
   <path d="m292.8 620.4-13.6 5.6-11.2 4.8-0.8 2"/>
   <path d="m249.6 632 6.8-2h7.6l4 0.8"/>
   <path d="m267.6 614.8v2.8l4 3.2 5.2 2 6.8 6"/>
   <path d="m292 615.6-3.6 1.6-9.2 0.8-4.132 1.1072l-3.47 1.69"/>
   <path d="m165.6 571.2 6-0.8 4.8 4v25.6l1.2 3.2-2.8 1.2-0.8 6.8 2.4 5.6 2.8 7.2 1.2 8-1.6 8-2.4 3.6-4.8 2.4-0.4 3.6 0.4 2.8 1.6 2.8 3.2 2 1.6 6.4h-5.2l-5.2 1.6-1.6 1.2v-56.8l1.2-2 1.2-2.4 0.8-1.6v-2.4l-2.4-2.8-1.6-1.2 2.8-3.2v-2l-1.2-2.4z"/>
   <path d="m489.6 528.8z"/>
  </g>
  <g>
   <circle cx="489.6" cy="528.8" r="1.5"/>
   <circle cx="497.6" cy="530.8" r="1.5"/>
   <circle cx="491.2" cy="522.8" r="1.5"/>
   <circle cx="495.6" cy="526" r="1.5"/>
   <circle cx="499.6" cy="517.6" r="1.5"/>
   <circle cx="506.4" cy="521.6" r="1.5"/>
   <circle cx="514.4" cy="528.4" r="1.5"/>
   <circle cx="499.2" cy="507.6" r="1.5"/>
   <circle cx="498" cy="496.4" r="1.5"/>
   <circle cx="500.8" cy="482.8" r="1.5"/>
   <circle cx="503.2" cy="473.2" r="1.5"/>
   <circle cx="503.2" cy="490.4" r="1.5"/>
   <circle cx="506.8" cy="480.4" r="1.5"/>
   <circle cx="511.6" cy="476.8" r="1.5"/>
   <circle cx="516.8" cy="480.4" r="1.5"/>
   <circle cx="523.6" cy="487.2" r="1.5"/>
   <circle cx="530" cy="497.2" r="1.5"/>
   <circle cx="534" cy="504.4" r="1.5"/>
   <circle cx="538.8" cy="513.6" r="1.5"/>
   <circle cx="544" cy="522.8" r="1.5"/>
   <circle cx="546" cy="528" r="1.5"/>
   <circle cx="534.4" cy="529.6" r="1.5"/>
   <circle cx="524.4" cy="529.2" r="1.5"/>
   <circle cx="517.6" cy="522" r="1.5"/>
   <circle cx="511.2" cy="514.4" r="1.5"/>
   <circle cx="506.8" cy="504" r="1.5"/>
   <circle cx="508.8" cy="496.4" r="1.5"/>
   <circle cx="512.4" cy="488" r="1.5"/>
   <circle cx="516.4" cy="495.6" r="1.5"/>
   <circle cx="517.6" cy="503.2" r="1.5"/>
   <circle cx="519.2" cy="512" r="1.5"/>
   <circle cx="523.2" cy="519.2" r="1.5"/>
   <circle cx="530.8" cy="522.8" r="1.5"/>
   <circle cx="538" cy="522.4" r="1.5"/>
   <circle cx="532.8" cy="515.2" r="1.5"/>
   <circle cx="527.2" cy="513.2" r="1.5"/>
   <circle cx="524.8" cy="506.4" r="1.5"/>
   <circle cx="531.6" cy="509.6" r="1.5"/>
   <circle cx="524.8" cy="500" r="1.5"/>
   <circle cx="523.2" cy="494" r="1.5"/>
   <circle cx="518.4" cy="489.2" r="1.5"/>
   <circle cx="513.2" cy="484.8" r="1.5"/>
   <circle cx="428.8" cy="657.2" r="1.5"/>
   <circle cx="429.2" cy="664.8" r="1.5"/>
   <circle cx="430.4" cy="675.6" r="1.5"/>
   <circle cx="432.8" cy="682.8" r="1.5"/>
   <circle cx="434.4" cy="692.8" r="1.5"/>
   <circle cx="435.6" cy="699.6" r="1.5"/>
   <circle cx="440.4" cy="706" r="1.5"/>
   <circle cx="450" cy="700" r="1.5"/>
   <circle cx="456" cy="690.4" r="1.5"/>
   <circle cx="460.4" cy="683.2" r="1.5"/>
   <circle cx="464.4" cy="672.8" r="1.5"/>
   <circle cx="465.6" cy="664" r="1.5"/>
   <circle cx="465.6" cy="657.2" r="1.5"/>
   <circle cx="456.4" cy="658" r="1.5"/>
   <circle cx="446.4" cy="658.8" r="1.5"/>
   <circle cx="438.8" cy="657.2" r="1.5"/>
   <circle cx="437.6" cy="663.2" r="1.5"/>
   <circle cx="446.4" cy="666" r="1.5"/>
   <circle cx="454" cy="674" r="1.5"/>
   <circle cx="454.8" cy="664" r="1.5"/>
   <circle cx="440.4" cy="673.2" r="1.5"/>
   <circle cx="441.2" cy="687.2" r="1.5"/>
   <circle cx="447.6" cy="679.6" r="1.5"/>
   <circle cx="449.6" cy="690.8" r="1.5"/>
   <circle cx="442.8" cy="696.4" r="1.5"/>
  </g>
  <g stroke="#000" stroke-width="1px" fill="none">
   <path d="m771.6 121.6v151.2l0.8 3.6 1.6 2 1.2 4 1.6 2 2.4 1.2 2.8-0.4 2.4-2.4 2.4-3.2 2-2.8 1.2-2"/>
   <path d="m973.6 118.4v152.4l0.8 4.8 1.2 2 2 3.6 2 1.2 4 1.2 2.8-1.6 1.6-3.2 3.6-7.6"/>
   <path d="m771.6 342.8 0.8 152.4 0.8 4 1.2 2 0.8 2.8 2.8 2 2 1.2 3.6 0.4 4-5.6 2.8-6.8"/>
   <path d="m973.6 340.4v151.6l0.8 2.4 1.6 3.2 1.2 2.4 2.4 2.4 2.8 1.6 2-1.2 4-2.4 5.2-8.8"/>
   <path d="m772.4 554.4 0.8 153.2v2.4l1.2 3.2 1.2 2 3.2 2.4 4 1.2 2.8-1.6 4.8-10"/>
   <path d="m974 551.2-0.8 153.2 1.6 4 3.6 4.8 1.6 2 1.6 0.4 4.4-0.8 2-3.6 4-7.6"/>
   <path d="m606.4 709.6 16.8-0.4-3.2 4.8-1.2 2-1.6 0.8-1.2 1.2-2.4-1.2-2.8-1.6z"/>
  </g>
 </g>
 <g id="Flower">
  <path d="m394.8 132-4.4-2.8-5.2-4-12 1.6-10.8-2-6.8 4-8 7.2-2.8 15.6 3.6 12.4 5.2 5.2 4 6.8 5.2 4.8 6.8 4.8 8.4 0.4 2.4 6.4 2 4 4 2 2.4-2.8 2-4.4-1.2-2.4 0.4-2.4h1.6l2 2.4 4.8 5.6 4 0.8 2.4-0.8 0.8-2.4 2.8-11.6 4-7.6v-1.2l-6.8-2.4 5.2-3.6 8-2 6.4-5.2 3.2-6.4 0.4-1.6 3.6-1.6-4-6-4 1.2-4.8 2-6.8-0.8-2.8-0.8-4.8 0.8-4.4 2.8-7.6 4 3.2-7.6z" stroke="#000" stroke-width="1px" fill="none"/>
 </g>
 <g id="Leaves" stroke="#000" stroke-width="1px" fill="none">
  <path d="m231.6 205.2h-4.8l-3.2 0.8-4 1.6-5.2 5.2-5.6 1.2-3.2 3.6-5.2 6.4-3.6 5.6v2.8l-1.2 3.6-1.2 5.2-1.2 2.8 6.8-0.8 4.4-2.4 5.6-2.4 6.4-2.4 4-3.6 3.6-5.2 7.2-3.2 6-3.6 3.6-6 1.2-7.6-1.2-1.2z"/>
  <path d="m242 206.8 6-1.6 4-2.4 6.4-0.4 1.4196-1.0445l10.18-4.56 2-3.2 3.6-4.4 2.8-3.2h3.2l4.8 2.4 1.2 2.8v2l-0.8 2v6.4l-2.4 4-1.2 4.8-2.4 5.6-4.5909 7.9517-7.4091 5.2483-4 3.6-3.2 2-2.4 3.6-2 4.4-4.4-1.2-6-3.6-2-2.4-4-4v-17.2"/>
  <path d="m240.8 214.4 1.2-7.6"/>
  <path d="m287.6 193.2 4 3.6 1.6 2v6l0.8 2.8v7.6l-0.8 3.2-1.2 4-0.8 3.2-2 2-0.8 4"/>
  <path d="m257.2 242.8 15.6 5.6 0.4-4.8-11.6-8.8"/>
  <path d="m268.8 229.2l4.4 14.4"/>
  <path d="m284 232.4-1.2 5.6-1.6 2.4-3.6 0.8-4.4 2.4"/>
  <path d="m233.6 285.2-7.6 0.4-4.4 2.8-3.2 0.4-8.8 7.2-4.4 3.2-0.8 10.4-1.6 2.4 6.8 18.8-0.8 3.6-0.4 19.2-1.2 4.8 4.8-2.8h4l9.6-27.2 2-8 5.6-13.2-2.4-4.8-1.2-4.4 0.4-5.2z"/>
  <path d="m233.6 285.2-3.6 7.6 0.8 9.6 2.4 4.8v8.4l2.8 4.4 2.8 6.8 5.6 7.6 6 6.8 3.6 1.2-0.4-8.4-0.4-5.6-1.2536-4.6785 1.1144-4.1588 2.94-3.16 2-4.8 1.2-3.2 1.6-8.4 2.8-8.4-0.8-4.4-2-9.2-1.6-4.8-2-5.6-4-4.4-0.8-0.4-7.2 4.8-0.8 2 0.4 8.4-4 0.4h-2.8z"/>
  <path d="m256 316.4 10 4.4 2.4 2.4 2.8 3.6 5.6 3.6 7.2 3.2h4.8l-1.6-2.8-1.6-4.8-1.2-6-0.8-4.4-1.2-6.4-0.8-3.6-18-14"/>
  <path d="m260.8 278l4-3.2 3.6 3.2 6.4 6.4 2.8 6 2 6.4 0.8 2.4-10.4-8.4-7.2-3.6z"/>
  <path d="m245.6 351.6-5.6-2-4.4-1.6h-6.4l-4 0.8-2.8 1.2-11.6 11.6-2.8 4.4-5.6 8-1.6 4-1.2 13.2 2.4 4 2 4 4 4 4 2 1.6 0.4 1.6-12 2.4-5.6 0.8-7.6 1.2-5.6 2-4.4 5.2-4.4 2.4-2 11.2-3.6 9.6-5.6z"/>
  <path d="m240.4 360.4-11.2 3.6-0.4 17.2 2 4 4.8 9.2 8 8.4 8 10.8 4.4 1.6 8.4 0.8 6.4-12.4 1.6-5.2-1.6-4.4-0.4-2.8v-12l-2-21.2-1.6-4.4-4.8-4.4-4.8-2.8-6-0.8-5.6 6 4.4 3.2z"/>
  <path d="m276.8 470.8-4-6-6-3.6-3.2-1.6h-8l-3.2 2.4-5.6 1.2-3.2 1.6-4.8 2.4-3.2 2.8-1.6 3.2-2.4 5.2-2 5.2v5.2l-0.95359 3.5588 4.4974 4.4974h5.66l6-1.2562 8.4-1.6 7.6-2 7.6-4.4 1.6-7.6z"/>
  <path d="m304.4 480.8-1.6 4.8 1.6 5.2 3.6 3.2 7.2 0.8 7.6-2 7.6-7.2 1.2-8 3.6-9.2 5.2-6 1.2-6-3.2-4-5.2 0.4-7.6 1.2-2.4-0.4-6.4 0.4-7.6 2.4-8.4 8.8-2 2.4v7.6l2.9517 5.1124z"/>
  <path d="m342.4 268 9.2-2.4 3.6 0.8 7.6 2.4 2.4 4.4 2.8 6.4-2.8 7.2v3.2l-0.8 3.6-2 3.6-4.4 4.4-5.6 3.6-4 1.6-4.8 3.2-6 2.4-3.2 1.6-3.6 3.2-3.6 2.8-4 4.4-0.8-5.6-3.2-8-2-4.4-4.8-5.6-5.6-12 1.6-8.4 0.8-6.4 4-6.8 8.4-3.6 7.2-1.2 9.6 3.6z"/>
 </g>
 <g id="Root">
  <path d="m290 561.6-1.6 8 1.6 12.4v18.8l2 14.8 0.8 4.8-1.2 4.4 1.6 8.8 1.2 8.8 0.4 12-1.2 9.2v9.2l-1.2 12.4-2.4 11.6-1.6 8.4v4l9.2-12 1.6-6.4 1.6-4.8 1.6-6 1.2-4.8 0.8-10.4 0.8-8.4-0.8-7.2-1.6-10.4-0.8-10.4-1.6-12 0.4-10.4-1.6-8 0.8-10.4-1.6-8.4-1.2-11.2-0.4-6z" stroke="#000" stroke-width="1px" fill="none"/>
 </g>
 <g id="Nodule" stroke="#000" stroke-width="1px" fill="none">
  <path d="m177.6 603.2 4.4-0.4 3.6 0.4 3.6 1.6 4.8 3.6 3.2 1.6 1.2 1.2 1.6 2.4v2.8l-0.8 2.8-2.4 1.6-8.8 0.4-3.6-2-10.4-8"/>
  <path d="m178.8 640 7.6 0.8 3.2 1.2 4.4 3.2 2.4 4.4-2.8 4-5.6 0.8-5.6 1.2-6 1.6"/>
  <path d="m166.8 589.6-4.4-1.2-1.2-3.2-4.4-2.8-4.8-1.2-2 1.6-1.2 3.2v3.2l3.2 4.4 6.4 1.6 6.8 2-6.8 1.2-6 0.8-2.4 0.8-1.6 1.6-0.4 2.4v2.8l2.8 2h3.2l3.6-1.2 4.4-0.4 4 2.4"/>
 </g>
 <g id="Green_Pods" stroke="#000" stroke-width="1px" fill="none">
  <path d="m544.4 245.6-5.2 6-10 4-3.6 2.8-4.4 5.2-6 3.6-5.6 3.2-5.2 5.6-4 10.8-3.2 8.8-2.4 3.6v3.2l-1.7072 6.3713-2.69 2.83-2.8 8.8-2 8.4-0.8 8.8v4.8l-2 8v11.2l1.6 4.8 2.8 5.2 6-4.4 4-5.6 4-4.4 5.2-5.2 6.4-6 6.4-10.4 0.8-4.4-0.8-6-0.8-4-0.4-2.8v-4.8l3.2-7.6s-0.8-0.8 2.8-4.4 3.6-4 3.6-4l2.8-6-1.2-6v-10l3.6-7.6 6-8.4z"/>
  <path d="m556 243.6 2 8 3.6 6.4 1.6 6 2.8 4 3.6 6.8 4 7.6 1.2 5.2 2.8 5.6 2.8 5.2 4.4 6.8 4 4.8 2.8 7.2 6.8 5.6 4 4.4 4.8 8 4.4 10.8 1.6 3.6 4.4 4.4-2.8 2.4-10 3.6h-5.6l-5.2-1.2-6.8-3.2-4-3.6-4.4-6.4-3.6-6-5.2-5.2-5.6-3.6-4.8-4-3.2-3.2-2.8-6v-3.6l-2.4-10-1.6-7.2-2-6.4-4.4-6-1.6-7.6-0.8-6 1.6-7.6 4.8-9.6 3.2-6z"/>
 </g>
 <g id="SAM">
  <path d="m445.2 534h109.6l-0.4-3.6-2-3.6-2-5.6-2-8-3.2-6.4-2.8-3.2-6.4-9.2-3.6-5.6-4-5.2-4.8-3.2-4.8-4.8-14-5.6h-11.2l-6 2.4-12 6.8-8 8-7.2 9.2-6 10.4-5.2 14.4z" stroke="#000" stroke-width="1px" fill="none"/>
 </g>
 <g id="Root_tip">
  <path d="m472.4 647.2-4.4 1.6-7.6 1.6-10.4 1.2-4 0.8-4.4-1.2-8-0.4-6.4-2.4-5.6-2.8-0.4 34.8 2.4 8 3.6 11.6 6.4 8.8 2 4 4 1.2 3.2-2 4-2 3.6-2.8 3.6-3.6 5.2-5.2 4.4-5.6 6-14.8 0.4-3.6 1.6-9.6z" stroke="#000" stroke-width="1px" fill="none"/>
 </g>
 <g id="Root_Hair_48_HAI_Stripped">
  <path d="m624 553.6-0.8 155.6-16.8 0.4-2-156.8z" stroke="#000" stroke-width="1px" fill="none"/>
 </g>
 <g id="Root_Hair_48_HAI" stroke="#000" stroke-width="1px" fill="none">
  <path d="m772.4 563.2-3.2-0.4-40 16.8-2.8 2.4v1.2l5.2 2 19.6-1.2h9.6l11.2-3.6z"/>
  <path d="m771.6 609.6-42.8 7.6-5.2 1.2-0.8 1.6v2.4l16 2 32.8-0.8z"/>
  <path d="m772.8 650.8-9.2 0.4-14.4 1.2-12 0.4-8.8 2-7.6 2-1.2 2.4 3.6 3.2 15.2 2 10.4 1.2 14 1.6h10.4z"/>
 </g>
 <g id="Roothair_48HAImock" stroke="#000" stroke-width="1px" fill="none">
  <path d="m973.2 560.8-36.8 12.8-6.4 3.6-1.6 3.6 3.2 1.2 18 0.8 12-2.4 10.8-1.6z"/>
  <path d="m973.2 606.4-45.6 8-2 1.6-0.8 2.4 0.4 1.6 7.2 1.6 41.6 0.4z"/>
  <path d="m974 648.4-15.6 0.4-9.2 1.6-10.4 1.6-6.8 0.8-6 1.6-3.6 2v0.8l2 2.8 6.8 2 12 0.8 20.4 2.4h10z"/>
 </g>
 <g id="Root_Hair_24_HAI" stroke="#000" stroke-width="1px" fill="none">
  <path d="m771.6 351.2-2.4-0.8-42 17.6-0.8 1.2-0.4 1.6v1.2l2.8 1.2 22.8-0.8 7.2-1.6 8-0.4 5.6-2.8z"/>
  <path d="m771.6 396.8-32 5.2-12.8 3.2-3.6 2.4v1.6l0.4 2 18.4 1.2 30.4-0.4z"/>
  <path d="m770.8 438.8-17.6 1.6-13.6 1.6-10.4 2.4-7.6 0.8-0.8 2 0.4 1.6 3.2 2.4 34 4 13.6 0.8z"/>
 </g>
 <g id="Roothair_24HAImock" stroke="#000" stroke-width="1px" fill="none">
  <path d="m973.6 348.4-4-0.8-27.6 11.6-10 4.8-3.2 2.4-1.2 1.6 1.6 1.6 4.4 1.2 18.4-1.2 8.8-1.6 13.2-2.4z"/>
  <path d="m973.2 394.4-19.2 2.4-25.6 5.6-4 2.4-0.4 2 2.4 2h22.4l24.8-0.4z"/>
  <path d="m972.8 436-28.8 2.4-15.6 2.4-6.8 3.2v2.4l5.6 2.4 35.2 3.6 11.2 0.4z"/>
 </g>
 <g id="Root_Hair_12HAI" stroke="#000" stroke-width="1px" fill="none">
  <path d="m771.6 129.6-4.4 0.8-36.8 15.2-3.2 2.4-1.6 1.6 0.8 1.6h24.8l10.8-1.2 10-2.4z"/>
  <path d="m771.6 175.2-45.6 9.2-2.4 1.2-0.8 2.4 3.2 3.6 46-0.4z"/>
  <path d="m771.2 217.2-18 1.6-13.2 1.6-11.2 1.2-7.2 2.4-1.6 2.8 3.6 2 17.6 3.2 19.2 1.6 12 0.4z"/>
 </g>
 <g id="Roothair_12HAImock" stroke="#000" stroke-width="1px" fill="none">
  <path d="m974.4 127.2-5.6-1.2-31.2 13.2-10 6.4-0.4 2 2 2 22.8-0.8 12-2 9.6-1.6z"/>
  <path d="m973.2 173.2-26 5.2-18.4 2.8-4.4 2.4-0.8 1.2 3.6 3.2 16 0.4h30.4z"/>
  <path d="m972.8 214-21.2 1.6-18.4 3.2-10 1.6-0.4 3.2 1.6 2.8 5.2 2.4 33.6 2.8 10.8-0.4z"/>
 </g>
 <g id="Labels" font-size="40px" font-family="Sans" fill="#000000">
  <text style="word-spacing:0px;letter-spacing:0px" xml:space="preserve" line-height="125%" y="43" x="698"><tspan font-size="18.667px" y="43" x="698">HAI = Hours after Inoculation</tspan></text>
  <text style="word-spacing:0px;letter-spacing:0px" xml:space="preserve" line-height="125%" y="331" x="819"><tspan font-size="16px" y="331" x="819">Root hairs 24 HAI mock</tspan></text>
  <text style="word-spacing:0px;letter-spacing:0px" xml:space="preserve" line-height="125%" y="541" x="650"><tspan font-size="16px" y="541" x="650">Root hairs 48 HAI</tspan></text>
  <text style="word-spacing:0px;letter-spacing:0px" xml:space="preserve" line-height="125%" y="539" x="823"><tspan font-size="16px" y="539" x="823">Root hairs 48 HAI mock</tspan></text>
  <text style="word-spacing:0px;letter-spacing:0px" xml:space="preserve" line-height="125%" y="598" x="427"><tspan font-size="16px" y="598" x="427">48 HAI stripped root</tspan></text>
 </g>
 <g font-size="40px" font-family="Sans" fill="#000000">
  <text style="word-spacing:0px;letter-spacing:0px" xml:space="preserve" line-height="125%" y="180" x="442"><tspan font-size="16px" y="180" x="442">Flower</tspan></text>
  <text style="word-spacing:0px;letter-spacing:0px" xml:space="preserve" line-height="125%" y="347" x="345"><tspan font-size="16px" y="347" x="345">Leaves</tspan></text>
  <text style="word-spacing:0px;letter-spacing:0px" xml:space="preserve" line-height="125%" y="684" x="129"><tspan font-size="16px" y="684" x="129">Nodule</tspan></text>
  <text style="word-spacing:0px;letter-spacing:0px" xml:space="preserve" line-height="125%" y="610" x="335"><tspan font-size="16px" y="610" x="335">Root</tspan></text>
  <text style="word-spacing:0px;letter-spacing:0px" xml:space="preserve" line-height="125%" y="386" x="500"><tspan font-size="16px" y="386" x="500">Green Pods</tspan></text>
  <text style="word-spacing:0px;letter-spacing:0px" xml:space="preserve" line-height="125%" y="489" x="548"><tspan font-size="16px" y="489" x="548">SAM</tspan></text>
  <text style="word-spacing:0px;letter-spacing:0px" xml:space="preserve" line-height="125%" y="694" x="482"><tspan font-size="16px" y="694" x="482">Root tip</tspan></text>
  <text style="word-spacing:0px;letter-spacing:0px" xml:space="preserve" line-height="125%" y="110" x="638"><tspan font-size="16px" y="110" x="638">Root hairs 12 HAI</tspan></text>
  <text style="word-spacing:0px;letter-spacing:0px" xml:space="preserve" line-height="125%" y="110" x="820"><tspan font-size="16px" y="110" x="820">Root hairs 12 HAI mock</tspan></text>
  <text style="word-spacing:0px;letter-spacing:0px" xml:space="preserve" line-height="125%" y="332" x="646"><tspan font-size="16px" y="332" x="646">Root hairs 24 HAI</tspan></text>
 </g>
</svg>
