<?xml version="1.0" encoding="UTF-8" standalone="no"?>
<svg id="svg10" xmlns="http://www.w3.org/2000/svg" height="1018.7" viewBox="0 0 1200 1018.6667" width="1200" version="1.1">optimizeQuality&quot;
	<g id="layer1" stroke="#000" stroke-width="1px" fill="none">
		<path id="path23" d="m37.916 158.58 5.765-7.9823 7.0953-6.4302 6.6519-7.0954 2.8825-1.7738h1.5521l6.6519 0.88692 3.7694 3.7694 5.0998 4.2129 3.5477 1.7738 1.3304 0.22173 1.1086-0.88691-0.22173-4.878-1.1086-5.0998-1.9956-5.3215-1.9956-2.439-0.22173-4.6563-0.22173-5.765-1.1086-1.9956-1.9956-1.9956-3.3259-0.88692-2.2173-0.44346-3.3259-3.5477-5.5432-4.6563-4.4346-2.8825h-2.8825l-1.3304-3.7694-2.439-3.7694v3.3259l-0.88692 3.1042-4.2129 3.1042-4.878 2.6608-5.5432 0.22173-5.765-0.44346-5.0998 3.5477-3.3259 5.0998-1.5521 5.0998-1.5521 2.6608-3.9911 4.4346-2.8825 2.439v2.439l1.3304 1.1086 3.9911-1.1086 7.5388-3.3259 2.8825-1.7738 1.9956-0.22173s0.22173 6.4302 0.22173 6.2084c0-0.22173 0.88692 6.6519 0.88692 6.6519l3.5477-0.66519 2.439-3.1042 2.8825-1.1086 3.1042-0.88692 0.22173 4.6563v4.6563l1.1086 4.2129-0.44346 5.3215z"/>
		<path id="path25" d="m78.049 127.54-3.7694-2.2173-3.7694-3.7694-5.3215-2.6608h-2.2173"/>
		<path id="path27" d="m74.501 113.12l-6.6519 1.3304-3.7694 1.1086h-3.326l-2.6608-1.3304-2.2173-2.6608-1.7738-3.1042-0.88692-3.5477-2.6409-4.5741-3.1241 3.6872-3.5477 3.9911-2.6608 3.3259-1.1086 0.22173-3.3259 1.5521-3.1042-1.5521-3.9911-3.1042-1.9956-3.3259"/>
		<path id="path29" d="m40.133 111.57-0.22173 3.9911 1.5521 1.3304 1.3304 1.7738 2.2173 0.88691h2.439l2.439 0.44346 2.6608-0.66518 1.9956-1.3304 1.7738-1.5521 1.7738-2.2173"/>
		<path id="path31" d="m27.051 125.54 2.8825-2.439 3.3259-1.9956 4.6563-1.5521 3.5477-2.6608"/>
		<path id="path33" d="m45.011 119.55-4.878 3.9911-3.5477 2.439-2.6608 3.9911-5.765 8.4257"/>
		<path id="path35" d="m40.133 132.64 5.3215-5.0998 3.3259-2.439 1.5521-0.22173 3.9911-0.66519 1.3304-1.3304v-1.1086l-1.1086-3.7694"/>
		<path id="path37" d="m60.31 135.3-1.7738-4.6563-0.88692-1.9956-1.5521-2.6608-1.7738-1.7738"/>
		<path id="path39" d="m57.428 137.07-2.6608-1.5521-2.2173-1.9956-0.88692-1.9956"/>
		<path id="path41" d="m41.463 146.16 2.6608-3.9911 1.7738-3.5477 1.7738-2.8825 1.5521-2.6608 2.439-1.5521"/>
		<path id="path43" d="m139.91 168.78 6.4302-13.747 1.5521-0.44346h2.2173l2.6608-1.1086 2.2173-2.439 2.439-3.1042 1.1086-1.7738 4.4346 0.22173 1.5521-0.66519 3.1042-1.9956h2.439l4.4346 3.3259 2.8825 3.1042 5.0998 1.1086 2.8825-0.44346 2.2173-1.9956-0.66519-6.4302v-2.6608l2.6608-3.3259 3.1042-1.3304 2.8825-1.7738 1.3304-1.7738 3.1042-3.9911 3.3259 1.5521 3.5477 1.1086 0.66519-0.44346 0.22173-1.9956-4.4346-4.2129-7.9823-3.326-3.1042-2.2173-4.4346-3.5477-6.4302-1.9956-3.5477 0.22173-1.7738-1.9956-4.2129-3.7694-2.8825-2.2173-2.8825-1.5521-2.2173-0.22173-4.2129 0.22173-2.439-0.44346-2.439-0.88691-3.3259 0.22173-3.1042 2.439-1.9956 1.1086-4.2129 0.66519-3.5477 0.22173-3.5477 2.2173-1.9956 2.8825-1.3304 4.6563-0.88692 3.3259-2.6608 3.1042-3.7694 3.1042-1.5521 1.5521-1.7738 2.2173-0.22173 2.2173v4.878l0.66519 1.7738-0.66519 2.439-3.1042 2.439-0.22173 1.9956-0.44346 4.2129 5.3215-3.9911s5.0998-4.2129 4.878-4.2129c-0.22173 0 0 0 0 0l3.3259-1.3304 7.7605-2.439 3.3259 2.6608 0.88692 5.0998 1.1086 4.2129 2.2173 5.3215"/>
		<path id="path45" d="m158.54 146.16-5.765-2.439-2.439-0.88692-4.4346-1.7738-4.2129-0.88692"/>
		<path id="path47" d="m185.37 150.82-4.2129-5.9867-4.878-5.0998-3.9911-2.439-6.8736-4.4346-5.765-2.439-4.4346-0.88692-6.2084-1.9956h-6.2084l-7.9823 1.5521-6.4302 3.1042-3.5477 3.5477-3.3259 2.6608"/>
		<path id="path49" d="m149 127.54 4.2129-7.7605 1.7738-3.9911 1.1086-3.1042 2.439-1.5521h2.2173l3.3259 1.5521 1.3304 3.9911-1.1086 9.3126-1.3304 5.9867"/>
		<path id="path51" d="m164.97 119.55 12.86-6.8736"/>
		<path id="path53" d="m163.86 102.92-3.1042 8.204"/>
		<path id="path55" d="m146.34 105.58 6.8736 14.191"/>
		<path id="path57" d="m134.15 119.55 14.856 7.9823"/>
		<path id="path59" d="m275.39 136.63h-19.29l-2.6608 1.9956-3.326 1.3304 0.44346-0.22173"/>
		<path id="path61" d="m273.17 133.08-14.86-10.64-11.3-10.87"/>
		<path id="path63" d="m289.8 142.84 5.765 7.9823 0.66519 6.6519"/>
		<path id="path65" d="m292.24 139.29 18.625 0.22173 4.4346 1.5521 6.4302 1.1086 1.7738 0.88692"/>
		<path id="path67" d="m293.57 124.43l9.5344-8.8692"/>
		<path id="path69" d="m288.03 117.78 3.1042-13.082-1.5521-1.7738"/>
		<path id="path71" d="m369.84 169.66 4.4346-12.195 4.2129-1.5521 7.0953-2.8825 11.53-5.765 7.5388-6.8736 5.0998-5.9867 2.8825-7.0953 1.3304-3.7694 0.88692-5.765-1.3304-0.88692-2.8825 2.439-1.5521-0.22173-2.8825-1.5521h-5.3215l-1.5521-5.3215-8.4257-7.3171-1.7738 1.1086-1.7738 5.0998-5.3215-5.765-3.5477 3.7694-2.8825-2.2173-0.44346-3.1042-3.5477 5.5432-1.9956 3.5477 1.7738 8.6474-0.22173 14.191-1.1086 3.9911-1.3304 7.5388-0.88692 6.4302 1.1086 5.5432-3.1042 7.9823z"/>
		<path id="path73" d="m365.41 135.74 4.6563 3.9911"/>
		<path id="path75" d="m393.57 156.14-4.2129-4.878"/>
		<path id="path77" d="m387.36 111.13l-4.6563 3.326-1.9956 3.1042-1.1086 6.2084 0.22173 6.6519"/>
		<path id="path79" d="m391.13 112.68s-1.5521 1.7738-1.7738 7.5388c-0.22173 5.765-0.22173 5.9867-0.22173 5.9867l-3.3259 5.9867-3.1042 9.3126-2.2173 2.2173-6.2084 0.44346-1.9956 3.3259-4.4346 6.2084"/>
		<path id="path81" d="m380.49 143.72-1.1086 3.9911v1.9956l3.3259 0.88691 6.6519 0.66519"/>
		<path id="path83" d="m400.89 117.56-0.44346 2.2173v1.5521l0.66519 1.7738 1.1086 1.1086 3.1042-1.5521 2.2173-1.3304 3.1042-1.9956"/>
		<path id="path85" d="m387.8 147.05 6.4302-4.2129 3.7694-3.9911 6.6519-6.2084 2.8825-3.5477"/>
		<path id="path87" d="m402.22 124.21-1.9956 6.2084-2.439 2.6608-3.1042 5.3215-1.5521 2.2173"/>
		<path id="path170" d="m135 174.67l129-0.5"/>
		<path id="path172" d="m136 194.67c152.5-0.5 151.5 0 151.5 0l15 11.5"/>
		<path id="path174" d="m136 217.67h150.5"/>
		<path id="path176" d="m136 239.17h144"/>
		<path id="path178" d="m137 265.17h129.5"/>
		<path id="path180" d="m136 453.17 79-0.5 8.5-15"/>
		<path id="path182" d="m135.5 476.67 116 0.5"/>
		<path id="path184" d="m136.5 516.67 165.5 0.5 31.5-114.5"/>
		<path id="path186" d="m135 539.67 151.5-0.5 10 19"/>
		<path id="path188" d="m134.5 563.67h44.5v-11.5l4.5 0.5"/>
		<path id="path190" d="m179 563.67 0.5 105.5h3"/>
		<path id="path192" d="m369 299.67-18 37-4 5-9.5 8.5-8.5 7-4 7.5-4 6.5-2.5 10 0.5 8 2 10 3.5 9 3 6.5 6.5 8 7 6.5 8 3.5 9 1.5 11-1.5 11.5-5.5 9.5-8 9.5-18v-11.5l-0.5-11.5-2.5-12-6.5-13-11-5.5-9.5-4.5-4-3.5-2.5-3.5v-4.5l0.5-6.5 4-8.5 8.5-15"/>
		<path id="path194" d="m305.5 551.17-0.5 8"/>
		<path id="path196" d="m307 568.17 3 37.5"/>
		<path id="path198" d="m325 599.17-3-35.5"/>
		<path id="path200" d="m320.5 552.67 0.5 5.5h-0.5"/>
		<path id="path202" d="m317.5 588.17-1-21.5"/>
		<path id="path204" d="m311.5 574.67 0.5 8.5"/>
		<path id="path206" d="m243 561.67-21.5 23.5"/>
		<path id="path208" d="m238.5 576.67-12 11 0.5 4.5 6 10.5"/>
		<path id="path210" d="m221.5 593.67 6 5.5 1.5 7.5"/>
		<path id="path212" d="m230 560.17-7 4.5"/>
		<path id="path214" d="m223 571.17-5.5 2.5"/>
		<path id="path216" d="m217 587.67-4.5 2.5-10 8.5-4.5 5-1.5 7.5-0.5 12"/>
		<path id="path218" d="m212.5 590.17-5.5-1"/>
		<path id="path220" d="m210.5 601.17-1.5-6.5"/>
		<path id="path222" d="m200.25 594.92 5.25 1.75"/>
		<path id="path224" d="m193.5 606.42 4.5-2.75"/>
		<path id="path226" d="m191.75 618.42 4-3"/>
		<path id="path228" d="m200.25 619.42-4.5-4"/>
		<path id="path230" d="m201.75 605.17 0.75-6.5"/>
		<path id="path232" d="m256.75 558.17 4.5 0.75 6.25 1 6.5 2.25 9.5 7.25 3.75 3.75"/>
		<path id="path234" d="m261 559.42-1.5 1.25-0.25 2.5"/>
		<path id="path236" d="m261 559.42 1.5-3.5 2.25-1 3.5-1 5.25 0.25"/>
		<path id="path238" d="m267.5 559.92-0.75 3-0.25 2.25"/>
		<path id="path240" d="m271 560.17 3-2.5 5-0.25"/>
		<path id="path242" d="m274 562.17-0.25 6.75 1.25 2.75"/>
		<path id="path244" d="m277 563.92 3-1.25 5.25-0.5"/>
		<path id="path246" d="m280.5 572.17 0.75-4h5"/>
		<path id="path248" d="m242.5 574.92 7.5 1 9.25 2.5 15.75 5 10.5 8"/>
		<path id="path250" d="m262.5 569.92-6.75-0.25-6 1.25-1.25 1.5-1 3 1 9.5 0.75 2.75 2 1.25"/>
		<path id="path252" d="m254.75 576.67 5.5-1.75 6.25-1.5 3 0.5"/>
		<path id="path254" d="m258 578.42-0.5 8.75 1.25 1.75 2 2"/>
		<path id="path256" d="m272.25 578.42-3.25 0.5-1 2.25-0.75 7.25 1 1.75 2.25 2.75"/>
		<path id="path258" d="m275 583.42v6.25l1.75 1.5 2.75 1.75"/>
		<path id="path260" d="m234.5 607.67 22 17 12.75 12.5"/>
		<path id="path262" d="m229 623.67-1.25-3.5 0.75-3.5 1.25-2.75 6.25-4 3.25-4 5.75-3.5 4.5-1.25 3.75 2 4.5 3.25 1.25 1.5"/>
		<path id="path264" d="m239.25 629.92-2.75-4.5-0.5-2.75v-3l2-3.25 4-3.25 4-3.25 4-0.25h13.75"/>
		<path id="path266" d="m246 616.92 1.25 16.25"/>
		<path id="path268" d="m251.5 619.67 5.5-2 7-0.75"/>
		<path id="path270" d="m256.5 624.67v10.75"/>
		<path id="path272" d="m260.5 627.42 9.25 0.25"/>
		<path id="path274" d="m240.5 638.92 10.25 20 9 10.5"/>
		<path id="path276" d="m219 609.92-5.5 1.75-5.5 3.5-2.5 5.75"/>
		<path id="path278" d="m218.75 621.42-4.5 1.5-3 3-3.5 4.75"/>
		<path id="path280" d="m221.75 626.42-2.5 4-2 2.75-1 3.25-1.5 7.75"/>
		<path id="path282" d="m226.25 632.67-3 5-2.25 4.25"/>
		<path id="path284" d="m236.25 638.67-5.25 4.5-2.5 3-0.5 2.5-0.75 3.75"/>
		<path id="path286" d="m235 659.92 1-3 2.25-3.75 1.75-3 4-4.25 13.75-1 3.75 1.5 2 2.25 4.5 4.25"/>
		<path id="path288" d="m249.25 655.42-1.5 6-0.25 6"/>
		<path id="path290" d="m249.25 655.42 4.25-2 5.75 1.5 3.75 4 1 2.5"/>
		<path id="path292" d="m277.5 552.17 5.75-0.25 6.75 0.25 10.5 3 5 1.5"/>
		<path id="path294" d="m307 568.17-1.75-2-5-5-6.75-2.25-5-1.25-3.75 0.75"/>
		<path id="path296" d="m135 683.17 116.75 0.25 29.25 26.5"/>
		<path id="path298" d="m134.75 705.92 33.5 0.25"/>
		<path id="path300" d="m136 727.17 37.5 0.25 22.5 17.25"/>
		<path id="path302" d="m134.75 746.67 13.25-0.25 21.5 21.25"/>
		<path id="path304" d="m134.75 831.67h14l4.5-7"/>
		<path id="path306" d="m135.25 851.67 53.75-0.5"/>
		<path id="path308" d="m135.5 905.92 239.25 1"/>
		<path id="path310" d="m197 716.42 4 21.5 2 10.5 1.25 4.5 5.5 11.5 1.25 7.25 2.75 10.25 0.5 2.75-3.25-0.75-2.5 0.5-5.75 2.5-5 0.75-7.5-2.5-5.5-2.5-5.25-2.25"/>
		<path id="path312" d="m214.25 784.67-0.25 2.75"/>
		<path id="path314" d="m213.5 804.42-0.25 4.75-2.5 4.25"/>
		<path id="path316" d="m179.75 816.92l10.25 0.5 4.5-1.5 16.25-2.5"/>
		<path id="path318" d="m213.25 809.17-0.25 9.25-1 2.5-0.75 5.75-0.25 3.25v4l4.25-1.25 1.25-6 1.25-13 0.25-8.25-0.25-9.75 1.25-5.25 1.5-3.5 0.75-9.75-1-8.75-2.5-5.25-3.75-10.75-2.25-5.75-1.75-7.75-1-7.25-0.5-8 0.25-8.75-3.25-0.75h-2l-1.5 0.75-5 1.5"/>
		<path id="path320" d="m214 787.42 0.25 7-0.75 10"/>
		<path id="path322" d="m179.75 816.92h-3.75"/>
		<path id="path324" d="m234.5 687.42 10 22.25-0.25 8.5 0.25 31.75 1.25 8.75 1.75 8.75v3.25l-0.75 2.25-0.5 4.5 2.5 5-1 4.5-0.5 5.25-0.75 4.75v5.75l0.75 5.75-1.75 5-1 6.5-0.25 5.5v4.5l0.5 7.5 4.5-1v-6l-0.5-8.25 0.5-6 1.5-4.5 2.75 6.5 3.75 6.75 5.25 3.75 5.5 1.75 3.75 3 5.75 5 1 3 3.5 2.5 9.25 5 5.75 3.25 9.25 1 8.25-2.25 6.75-2.75 5.75-2.25 1-2.75v-1.25l-1.25-1.75-3.5-1.25-4.75-1.5-7.75-0.25-12-0.75-1.5 1-3.75 2-1.75 2.75-0.75 2.5 0.25 4.25"/>
		<path id="path326" d="m291 844.67-4.25-1-3.5-2-4-5.25-4.25-3.75-3.75-3.75-3.75-1-4-2.25-1.5-1.75-2.5-2.25-2.5-4-1.5-2.75-1.5-3-1.5-2.75 1.5-3.75 1-3.75h3l4.75-0.5 3.5 0.5 5.5 0.5 8.25-1.5 0.5 1.5 1.5 4.5 4 3 4.25 1.5 5.5 0.25 5.25-1.5 3.5-1.25 3.75-0.75 5-0.25 3-2 4.25-3 5.25-1.25 3-3.5v-3l-1.5-1.75-7.75-3.5-8.5-0.5-11-0.5h-6.75l-6.25 1.5-4.5 4-2.25 3.75-4.75 1-11.5-0.25-7.5-0.5 0.25-3.5 0.5-9.25-0.25-4.5-0.75-6 0.25-5.25v-3l8.5-1.5 4.25-2.25 5.5-6.75 4-3.5 3.5-0.5 3 0.5 4 0.25h4.5l2-1.5-0.5-3-2-2.75-4-2.75h-2.25l-5 1.5-3.25 2.5-3.25 3.25-5 5.75-2.75 2.75-4.75 4.5-5.75 2.75-0.75-5.5v-7.75l1.25-5.5v-4.5l0.5-15.5-1.75-3-1.5-2.5-3-5.25-2-5.25-6.25-18.25"/>
		<path id="path330" d="m280.25 797.92-0.25 2.75"/>
		<path id="path332" d="m369 796.17-0.25 115.75 80.25 0.25v-115.25z"/>
		<path id="path334" d="m449 796.92 69.75 69.75"/>
		<path id="path336" d="m450 908.92 67.5-21.75"/>
		<path id="path338" d="m504.25 853.67-7.5 0.75-4.5 1-5.25 1.75-4.25 1.75-5.5 3-3.5 3-2.5 2.5-1.75 2.75-0.75 15.5 2 3.5 5 5.75 3.5 2.25 6 2 5.5 2 8 1.75 11.75 1.25h15.75l12.5-0.75 9-2 9-3 9.25-5 4-5 0.25-18.25-2.25-4-3.75-3.75-10-5-7.5-2.5-11-2-16-0.25h-12z"/>
		<path id="path340" d="m470 878.42 6.25-5.25 5.5-3.5 6.25-2.25 7-2.25 10.25-2h5.5l12.5-0.75 5.5-0.25 6.75 1.25 11.25 1.75 6 2.5 7.25 3.25 6.25 4.5 3 3-2.75 2.5-5.75 4.75-4.75 1.75-13 4.5-8 1-11.5 0.75-11-0.5-5.75-0.75-12.75-1.75-7.25-2.75-7.75-3.75z"/>
		<path id="path342" d="m514.75 870.67-1.25 2.5v10l1.5 0.75 2.5 3.25 6.75-0.5 1-2 1-4.25 4.25 0.5v-6l-2.25-2.5-4-3-6.5 0.25z"/>
		<path id="path344" d="m512.5 859.92 9 9.75"/>
		<path id="path346" d="m576.5 908.67c0.25-16 0.25-16.25 0.25-16.25"/>
		<path id="path348" d="m576.75 868.92c0.25-12.75 0-12.75 0-12.75"/>
		<path id="path350" d="m576.75 816.17-0.25 17"/>
		<path id="path352" d="m576.75 779.17-0.25 15.25"/>
		<path id="path354" d="m576.5 739.67v17.75"/>
		<path id="path356" d="m576.5 701.67 0.25 15.5"/>
		<path id="path358" d="m576.5 661.42 0.25 18.5"/>
		<path id="path360" d="m576.5 624.92 0.25 15.5"/>
		<path id="path362" d="m576.5 584.42v17.75"/>
		<path id="path364" d="m576.25 546.92 0.25 16"/>
		<path id="path366" d="m576.75 470.92v16"/>
		<path id="path368" d="m576.75 220.17-0.25 18"/>
		<path id="path370" d="m576.75 183.67v14.5"/>
		<path id="path372" d="m576.75 144.17-0.25 16.5"/>
		<path id="path374" d="m576.75 103.42v18"/>
		<path id="path376" d="m576.5 62.167 0.25 18.5"/>
		<path id="path378" d="m388 483.67-2.25 6.75-1.75 4.5-2 4.5-1.75 3.75 0.25 5.75-0.75 2.5-1.75 1-8.5-7-6.75-2h-10.25l-6.75 0.25-1.25-0.25 1 6.25 3.75 10.5 6.25 6.75 1 1.25-5 2-1.75 1.5-3.25 2.25-3.5 1 3 4.5 6.75 6 5.25 2 5.75 0.75h5.25l4.5-1.25 5-1.75 2.75-3.5 0.75-4v-1l4-1"/>
		<path id="path380" d="m356.5 528.17 4.25 2.75 5.75 1.5 6.5 0.25 4.75-0.25 4-0.75"/>
		<path id="path382" d="m378 512.42 2.25 2.75 1.25 2.5 0.75 2 1.75 4.25 0.25 2.25v2l-0.25 2-2.25 1.5"/>
		<path id="path384" d="m384 530.17 2 5.5"/>
		<path id="path386" d="m384 530.17-38.25-26.5"/>
		<path id="path388" d="m345.5 509.67 6.5-1 0.5-4.75"/>
		<path id="path390" d="m350.25 513.42 3.25 0.75 4.5-1.75 0.25-4.5-0.75-2.5"/>
		<path id="path392" d="m351.5 516.92 3 1h5.75l3.75-0.75 1.25-2.25 0.25-3.25-0.75-4.75"/>
		<path id="path394" d="m355.75 522.17 3.25 0.75 4 0.25 1.5-0.75 3-3.5 2.25-4.25v-4.25l-0.25-5"/>
		<path id="path396" d="m363 527.67 4.75-2 2.25-1 2.25-2.5 0.5-4.25 0.25-5.25-0.25-1.75"/>
		<path id="path398" d="m368.5 529.67 4.25-0.5 1.5-0.75 1.5-3.25 0.75-5.5-0.25-5"/>
		<path id="path400" d="m382 536.67-39-1.75"/>
		<path id="path402" d="m349.75 531.67 1.75 3-5.5 4.75"/>
		<path id="path404" d="m353.5 532.42 3.5 2.75-4.5 5"/>
		<path id="path406" d="m355.75 530.92 6.25 4.5-6.25 6.75"/>
		<path id="path408" d="m361 542.17 4.75-6.5 0.75-3.25"/>
		<path id="path410" d="m362.5 545.67 2.75-1.5 2.25-2 3.5-6-1-3.5"/>
		<path id="path412" d="m367.5 546.17 4.75-5 1.75-1.25 1.5-4-2.5-3.25"/>
		<path id="path414" d="m373.5 546.92 1.75-3.5 2.75-3.75 0.5-3-0.75-4.25"/>
		<path id="path416" d="m388 483.67 5.25 6.25 4.25 7.75 2.75 6.5 2 7 0.5 3 0.25 2.5v4.75l-0.75 3.25-1.5 3.75-2.5 3.5-3 1-4-0.75-2.25-0.5-3 4"/>
		<path id="path418" d="m389 531.67-1-48"/>
		<path id="path420" d="m399.5 525.67-3.25 3.5-6.75-0.75-5.25-0.25"/>
		<path id="path422" d="m403 516.67-6.25 6.25-5 2.25-2.5 0.5-5.25-1.75"/>
		<path id="path424" d="m400.25 512.92-1.5 2.5-1.75 2.25-7.75 4.25-4.5-1.5-3.25-2.75-1.25-2.5"/>
		<path id="path426" d="m399.5 507.67-0.75 2.25-3.25 3-3.25 2.25-3 1.5-3-1.75-1.75-1.75-1.5-2.5-2.5-1.75"/>
		<path id="path428" d="m396.5 503.17-4.25 6-3 3.25-2-2.5-3.25-4.75-1.25-2.25"/>
		<path id="path430" d="m394.25 498.17-0.25 1.75-3 3.25-2 2.5-4-6.5"/>
		<path id="path432" d="m393 495.67-4.5 2.5-3-2.75"/>
		<path id="path434" d="m402.75 514.17 2-5.5 4.5-5.75 8-6.25 2 2.5 1.75 4.25 2.25 7.5 2 7v4.25l-0.5 6.25-1.5 4.5-2.75 4.5-4.75 5.75-4.25 3-4.25 1h-1.5l-1 2.5-5-3.25-4.75-4.5-3-4.25-6-2"/>
		<path id="path436" d="m395.25 532.92-3.25 4.75"/>
		<path id="path438" d="m407.25 547.17-1.75-5.5v-3l11.75-42"/>
		<path id="path440" d="m409.25 502.92 4.5 3.75 4-2.25"/>
		<path id="path442" d="m409.75 507.42 0.25 3.5 2.5 2 3-1 2.25-1 3.25-2.75"/>
		<path id="path444" d="m407.25 510.92 0.25 2 1 2 0.75 1.25 1.75 2 4-1 3.75-2.25 2.75-2.75"/>
		<path id="path446" d="m405.75 515.92 1.25 3.75 2.25 3.25 5.25-0.5 3.5-2 3.5-3.5"/>
		<path id="path448" d="m403 521.42 3.25 5.5 2 2.25 3.75 0.75 8.5-4.25 2.25-3.25"/>
		<path id="path450" d="m406.5 534.42-2.25-2.5-1-4.25"/>
		<path id="path452" d="m406.5 534.42 6-0.5 4.25-2 3.25-1.75"/>
		<path id="path454" d="m401.75 533.17v1.75l1.25 3 2.5 3.75 7.25-0.75 2.5-2.25 3-3.25"/>
		<path id="path456" d="m386 535.67 13.75 13.5 9.5 10 11 14.25 7.75 8.25 3.75 4.75 5 10.5 3 4.25 7.5 9.75 6.75 5.25"/>
		<path id="path458" d="m454.25 611.67-5.75-5.75-5.75-7.75-4.75-5.75-6.75-10-9.5-13-7.75-8.75-9.25-11"/>
		<path id="path460" d="m399.75 549.92-2.25-0.5-2.25-2.5-4-3-2.5-1-2.75-0.5-4.75-0.75"/>
		<path id="path462" d="m369 548.17-4.25 3.5-3.75 3.25-2 2.75 7 5 4.25 1.25 9.25 2.75 5-0.75 4.5-1 7-2.25 3.25-3.25 1.25-6.5-0.75-3"/>
		<path id="path464" d="m399.75 549.92-12.25 2.25-9 1.25-9 1.5-10.5 2.75"/>
		<path id="path466" d="m397.5 549.42-2.75 6.25-2.25 4.75"/>
		<path id="path468" d="m397.5 549.42-8.25-3.75"/>
		<path id="path470" d="m386.75 561.92 2.5-6 1.75-4.75-3.75-3.75-1.25-0.25-4-2.25"/>
		<path id="path472" d="m381.75 562.92 2.75-4.5 2-6.25-3.75-3.75-4.25-3.25"/>
		<path id="path474" d="m378.5 562.17 3-6 0.75-3-4.5-4.75-4.25-1.5"/>
		<path id="path476" d="m374.25 561.92 2-3 2-5.25-3-3-6.25-2.5"/>
		<path id="path478" d="m370.25 560.92v0.75l2-3.75 1-3.75-4-3.25-3-0.25"/>
		<path id="path480" d="m411.75 563.17-4.75 0.75-1.75-2.5-3-1.75-3-0.25"/>
		<path id="path482" d="m384.5 565.92-0.25 4.75-3.5 7.5 0.25 3.75 2.25 0.75 10-0.75 5.5-1.5 5.75-3.75 3.75-5.25 2.25-4.25 1.25-4"/>
		<path id="path484" d="m407 563.92-6.75 2.75-6 4.5-8.5 5.5-4.75 5.25"/>
		<path id="path486" d="m396 562.67 7.25 2 2.25 7.75"/>
		<path id="path488" d="m389 564.92l6.75 0.75 4.5 1 0.75 4 0.75 3.25v3"/>
		<path id="path490" d="m384.25 570.67 6.25-3 5.75 1.5 1.5 4v2l1 5.25"/>
		<path id="path492" d="m384 574.42 3-1.25 3.5-1.25 3.75-0.75 0.75 5-0.75 3.25"/>
		<path id="path494" d="m411.75 563.17-6.5-1.75-6-2"/>
		<path id="path496" d="m420.25 573.42-4 1.5-4.5 0.75-1.25 1.75-2 4.5v2.75l0.5 5.25h8l4.75-3.5 1.5-2.25 0.25-3.5-1.75-3.25-1.5-4"/>
		<path id="path498" d="m420.25 573.42-3 5.25-4.25 5.75-4 5.5"/>
		<path id="path500" d="m421.75 586.42-1.75-5-2.75-2.75-3-0.5-3.75-0.75"/>
		<path id="path502" d="m418.5 586.67v-1.25l-0.75-2.25-2.25-1.5-3.25-0.75-3.75 1"/>
		<path id="path504" d="m415 588.17-0.5-2-1.75-1.5h-4.25"/>
		<path id="path506" d="m415.5 561.42 0.25-1.75s3.5 1.75 5 2.25 1.75 0.5 1.75 0.5l3-1 3.25-3 2.5-2 3.75-5 1.5-2.75 0.25-4.25-1.75-3.25-1.75-2.75-0.25-3v-1.25h-3.5l-3.25 0.5-2.5 1.5-3.25 1.25-6.25 8.75-0.5 3 0.25 5.75z"/>
		<path id="path508" d="m433.25 538.42-6 6-4 4.5-3.75 5-3.75 5.75"/>
		<path id="path510" d="m426.25 534.67-0.5 5.5 1.25 3.5 2.25 1.25h2.75l2.25-0.25"/>
		<path id="path512" d="m420.5 537.42 0.75 4.75v2.25l2 4.5 3.75 0.5h5.75l3.75-0.75"/>
		<path id="path516" d="m418.5 543.17 0.5 5.25 1.75 3 3.75 2 3.75-0.5 3.25-0.5"/>
		<path id="path518" d="m414.25 546.17 2 3 0.75 2.5 2.5 2.25 2.25 1.75 3 0.75h6.5"/>
		<path id="path520" d="m424.75 571.92v-3.5l3.25-2.25 4.5 0.5 2.5 1.75 0.75 1h1.25l-1 2.5v2.75l-1.75 3.5-3.75 1.75"/>
		<path id="path522" d="m427.25 575.67 2.25-2.5 2.25-1.75 4-2"/>
		<path id="path524" d="m428 568.92h-0.5l2 4.25 4.75 5"/>
		<path id="path526" d="m431.75 571.42-1-2.75 1 2.75l4.25 0.5"/>
		<path id="path528" d="m454.25 611.67-3.25-19-3-9.25-1.5-16.5-1-31-2-17.5 0.75-15.25"/>
		<path id="path530" d="m445 556.42-4.25-1-3.5-1.25-2.25-2.75"/>
		<path id="path532" d="m445 556.42h6.25l3.5-1.5 6-4.5 0.25-2-1.25-4.25 10.5-7v-1.5l-7.75-2.25-2-0.75-5.25-1-2-6-2.5-4.25-0.75-10.75-0.25-2.75 0.5-2.75 0.5-1.5 3-2h1.75l5 0.5 2.5 2.25 1 4.75-0.5 2 2.25 1.25 3.75-1.25 2-1.5-0.5-2.25-4-0.75-4.5-2.5"/>
		<path id="path534" d="m443.25 512.42-4.5 6.25-2.5 5.25v3l-3.25 7.25"/>
		<path id="path536" d="m436.5 548.67 4 1.5 4.75 3.25 7.25-2.5 5.5-2.25"/>
		<path id="path538" d="m436.75 544.42 6 3.25 2.5 1.75 6.25-2.5 8.25-2.75"/>
		<path id="path540" d="m446.25 545.42-3.5-2.25-3.5-3.75-3.5-4"/>
		<path id="path542" d="m446.25 545.42 7.25-5.5 3-3.5 2-1.5"/>
		<path id="path544" d="m438.25 531.42 2.75 4.25 4 3l5.75-2.25 4.5-4.75"/>
		<path id="path546" d="m436.25 523.92 4.5 4.75 4 4 2.75-1 3.25-6"/>
		<path id="path548" d="m438.75 518.67 3 4 2.5 2.5 3.5-2.75 3-1"/>
		<path id="path550" d="m444.25 503.17l-3.25-1-2 1.75-1 2.5-0.75 4 0.75 2 0.25 2-1 1h-1l-1.25-1v-1.5l0.75-3 1.25-6.25 3-2.5-6-1-1.75 0.5-1.25 1.5-1.5 0.75-2.25 1.5-1.75-1.5-1.25-1.25-0.25-2.25 0.5-1 1.25-0.75 2-0.25h1.5l2.75 0.25 1 0.5h2l2.75 0.5 3.5 0.5 0.25-3.25-2.5-2.5-1.75-3.25-1.25-2.75v-0.5l-1.75-0.25-0.75 1.75-0.75 2.25-2.75 2.25-1.5 1.5-1.25-3-0.25-2.25 4-3.5-3.5 2.75-1.25-2-0.75-3.5 0.25-1.75 2.25-0.25 1.75 1.25 2.5 2-0.5-3-0.25-2.25 5-0.5 4.25-2.5 2.75-2 2 1.75 3.5-0.5 2.75 3.5 2 1.75 1.75-4.5 0.75-1.75-1.25-5.5 0.5-1 1.75 5 3 5 2 2-0.5 2.5-1.25 3.5-1.75 1.75-3.75 0.5-2.75 2-2.5 3.75v3l1 7"/>
		<path id="path552" d="m448.75 484.67z"/>
		<path id="path554" d="m446 483.17-2 0.25-1 1.5s-3.25-0.25 0 1.5l3.25 1.75 2.5-3.5"/>
		<path id="path556" d="m446 483.17 2.75 1.5"/>
		<path id="path558" d="m443.25 512.42 7.5 9"/>
		<path id="path560" d="m448.25 557.17 0.25 9.5 2.75 18.75 3.5 9.5-0.5 16.75"/>
		<path id="path562" d="m471 507.42-0.25-8-2.25-3-2.25-3-1.75-4v-0.75l3.25 1.25-1.25-3.5v-2l2 0.75-0.25-10 1.5-4h2.5l-0.5 7.75 0.25 4 1.75 1.5 1.25 3.25-2.75 6 2 7.5 1.25-2 4-3 0.75-1.5-3.25-1.75-2.5-4.5"/>
		<path id="path564" d="m472 482.92 4.5-1 4.5 1.5-1.75-2.25-0.5-9.25 2-6 2-0.5 0.25 2.25 3-2.5 8-4.25 3.5-1 1 3.25 0.25 5.5-1.25 2.25-0.75 3.25-1 3 4.5-2.25 4.25-0.25 1.5 0.5-1.25 2.25-1.25 3.75-4 4-5.75 3-1.25 0.25 3.25 1.25 2.75 2.75-2.25 1-5.5 3.5h-3.5l-7.75-0.75 2.25 2.5 5.25 2.5-1.25 1.75-4.25 0.25-2 2.75-3.5 4.5-1 5.25-0.75 4.25-0.75 13 5.5-5.75"/>
		<path id="path566" d="m480.25 494.67 9-19.5 4.75-7.75 3.5-7.5"/>
		<path id="path568" d="m481 491.67-4.5-6.75"/>
		<path id="path570" d="m481 491.67 3.5 1.25h5.75l2.75-0.75"/>
		<path id="path572" d="m483.5 488.17 2.5 1 1.75 0.5h2.5"/>
		<path id="path574" d="m483.5 488.17 21.25-10.75"/>
		<path id="path576" d="m485.5 482.42-1.5-3.75-1.75-5.5 0.75-5.5"/>
		<path id="path578" d="m490 484.42-2-1.75 0.25 0.25"/>
		<path id="path580" d="m489.75 480.17 3.75 3 2.5 1.5"/>
		<path id="path582" d="m486 468.17 1.25 1.5 3.25 2 3 0.75 4-1.5"/>
		<path id="path584" d="m485 471.17 0.25 1.75 1.25 1 2.75 1.25l4.25 0.75-0.25-0.75"/>
		<path id="path586" d="m479 527.17 4-7.5 1.5-5.25 3.75-4.25 4.25-5 1.25-1.25 0.5 2.5 4.5-5.5 7-4.75v2.25l9.5-1.5-4.5 5.25 2.5 4-9.25 2.5-4.25 3-2 2.25 4.25 0.75-12 6.5-8.25 6.5-6 8.5-4 5.75-1 6.25-7.25 38.75 10.75-12.5 5.5-4.5 2.25-3.5 10.5-7.5 4.25-2.5-5.5-4.25-3.25-4-2-3.75 0.25-2 3.75-6.75 3.25 2.5 4.75 4 1 5.5v4.5l-0.5 3 3.25-1.75-0.5-3.75 0.75-5.25 3.75-4.25 4-3.5 3-1.75 4.25-1 4.25-2.25 1 3.25-0.5 6.25-1.5 6.25-1.5 4.25-3.75 3 2.75 0.5 3.5 1.75 3.25 2.25-1.75 2.5-7 3-4-0.25-6.75 0.25-4.75-1.25-4-1.5-3.25-0.5-7.25 7.25-18.75 18"/>
		<path id="path588" d="m524.5 559.17-6.5-1.25-9.5-1.25h-6.5l5.5-7 3-4 4.25-4.25 6.5-9.75"/>
		<path id="path592" d="m502 556.67 1.25 3.25 2.25 2"/>
		<path id="path596" d="m508.5 556.67 1.75 3.5 2.75 2"/>
		<path id="path598" d="m518.5 561.17-1.75-1.25-2.25-2.5 0.5-2.75"/>
		<path id="path600" d="m508.5 556.67 1.75-2h4.75"/>
		<path id="path602" d="m517 533.92-2.25 4.5v3l7-0.25"/>
		<path id="path604" d="m512.25 537.67-1.25 1.5 0.75 3.5 4.5 2.25 3-1"/>
		<path id="path606" d="m508.5 539.67-0.5 3.5 2.5 2.5 2.5 1.75 2-0.25h2.5"/>
		<path id="path608" d="m505 543.42-0.25 0.5 0.5 2.75 1.5 3.25 4 1 5.25 0.25"/>
		<path id="path610" d="m496.75 556.42-1.75-6-5-14.75"/>
		<path id="path612" d="m489.25 542.17 1 1.5 2.75 1.5 2.25-2.5v-1.25"/>
		<path id="path614" d="m488 548.17 3-0.25 2.75 0.75 2-1.25 1.25-2.5"/>
		<path id="path616" d="m491.25 552.17 4.5 0.25 3.25-4.75"/>
		<path id="path618" d="m467 586.67 13.75-5 7-1h2.5l5 0.5 8.5 0.75-4.25-1.25-1.5-3.25 0.5-2.25 3-4.75 1-2 5 2 1.5 2.25 1.5 5.75-1.5 2.5-3.75 1.5h4.5l4.25-1-0.5 2.75-2-0.5v3.75l0.25 3.25-0.25 3.5-1.75 3-2.5 2.5-4.5 1.75-1.25-2.75-1.75-3-1.5-4.25 0.75-4 0.75-2.5h-1l-1.75 2-1.5 2.75-0.75 0.25-4.5-0.75-0.25-2-0.5-3-5 0.5-5.75 2-8.5 3.25-4.5 3.25-3.5 4-0.5 4.5-1 13.75"/>
		<path id="path620" d="m505.25 582.42-1.5-0.5"/>
		<path id="path622" d="m502.5 568.42 2.5 6.75v3.25l-1.25 3.5"/>
		<path id="path624" d="m498.5 575.17 6.5 3.25 5-2.5"/>
		<path id="path626" d="m500.25 572.67 4.75 2.5 4-2.5"/>
		<path id="path628" d="m501.5 570.42 2.5 1.5 3.5-1.5"/>
		<path id="path630" d="m505.25 582.42v3.75l0.5 3v2.75l-0.5 3.5-2.5 6"/>
		<path id="path632" d="m499 587.42l6.25-1.25 3 1.25 3.5 3.25"/>
		<path id="path636" d="m505.75 589.17-2.75 2.5-3.25 4"/>
		<path id="path638" d="m505.75 589.17z"/>
		<path id="path640" d="m505.75 589.17 5.75 5"/>
		<path id="path642" d="m509.75 597.17-4.5-1.75-3.75 3.25"/>
		<path id="path644" d="m471.5 509.67-1.5 20.5 0.25 5.5"/>
		<path id="path646" d="m460.75 550.42 3.5 7.5 6-20.75"/>
		<path id="path648" d="m460.75 550.42 1.75 10.75-0.25 8.25-0.75 9-3 12.25-3.75 4.25"/>
		<path id="path650" d="m454 616.17 0.5 16-4.5 5.5-2-5.75-4.25-6.5-8-9.75-5.75-2.75-9.25-3-4.25-0.5h-4"/>
		<path id="path652" d="m450.5 648.92-3-6.5-2.5-8.25-7.25-12.75-8-6-12.5-3.25-4.75-2.75"/>
		<path id="path654" d="m412.5 609.42-11-3.75-9.75-1.5-8 0.75-5 3.5-1.75 1.5 2.5 3.75 5.25 5.5 4.25 1.5 5.75-0.5 5-1.5 8.25-3z"/>
		<path id="path656" d="m410.5 611.92-18.5 1-4-0.25-4.75-0.75-6.25-2"/>
		<path id="path658" d="m402.5 616.67 2-4-3-7"/>
		<path id="path660" d="m394.5 606.67 2 0.75 4.5 5-1.75 3.25-2.25 2.25"/>
		<path id="path662" d="m389 606.42 1.5 1 3.75 2.75 1.5 2.5-1.25 3.75-1.75 2"/>
		<path id="path664" d="m384.25 607.42 1.5 1 1.25 0.5 5 4-1.5 3-1.75 2.25"/>
		<path id="path666" d="m381.5 608.42 1.75 3.5-0.5 2.75"/>
		<path id="path668" d="m460.75 615.42-0.75 15.25 2.5 3.75 3.5 2v2.75l-2.75 1.25-3.5 1.5-2 10.5-0.75 7.75 2 5.25 7.25 5.75 9.5 3.75 11 2 4.75-3 2.25-5.25 5.25 1.25"/>
		<path id="path670" d="m491.5 673.92 7 1.25"/>
		<path id="path672" d="m489.25 675.67 7.75 4 1.75 2.5"/>
		<path id="path674" d="m450.5 648.92-0.75 7 0.75 7.25-1.75 7.25-5.25 3.25-9.5 3.5-6.25 7-5 8h-5l-3.75 2.25-5.75 5.75-2.75 5-3 9.5-0.25 4.75-0.25 7 1.25 0.25 4.5-2.25 10-8 5-7 3.25-7-1-7.5-1.75-3"/>
		<path id="path676" d="m466.25 671.17 5 4.5s4.25 0.5 5 6l0.75 5.5 2 4.25 2.25 4 2 3.5 4.25-0.5h4.75l3.75 3 3.25 4.5 4.25 7 2.5 7.5-0.5 5.25-12.75-4-7-2.25-4-3.25-2.25-4.5-0.5-4.25 4.5-8.25"/>
		<path id="path678" d="m477.25 683.67 3.5 1.75 7.5 5.25"/>
		<path id="path680" d="m477.25 683.67 4-2.5 4-1.5 3 0.5 5.75 2.25 4 3.25-1.5 2-3 0.5-1.75-2.25-2.75-2.5-0.5-3"/>
		<path id="path682" d="m460 668.42-0.5 5.75-1 4.25-3.25 4.5-1.5 5.75-2.5 7-1.75 7-1.75 3-2.25 0.75-1.25 4.75 0.75 4.25 2.5 1.5-1.25 2.5-3.5 2-2.75 1.25 2.5 5"/>
		<path id="path684" d="m440 722.67-2.5 3.5-3.25 4.25-2.75 4-3.75 0.75-3.5-3.25-1.5 0.5-3.75 1.75-5.5 3.25 4.25 2.25 4.75 1 4.75-2.5 1-3"/>
		<path id="path686" d="m459 665.42 1 3"/>
		<path id="path688" d="m472.25 748.92-5.5-9.5-1-7.25-2.25-7.5 2-4.75 4-3.5 7.25-0.5 1.25 2.5 1.5 4.25v8.75l-1.5 7.5z"/>
		<path id="path690" d="m472.25 715.92v-13.75l-1-2.75-3.75-6-2.5-3.75-2.5-2 4.5 0.75 7 8 4.5 5.5"/>
		<path id="path692" d="m462.5 687.67-4-9.25"/>
		<path id="path694" d="m459.5 674.17 8.5 7 9.25 2.5"/>
		<path id="path696" d="m473.25 692.92-8-9-6.75-5.5"/>
		<path id="path698" d="m432.25 759.92 1.25-2.5 3-4 1-3.75-0.75-3.75-3.5-2.25-4.5-0.5-3.75 3.25 2 4.25 3.25 4.25z"/>
		<path id="path700" d="m433.25 743.67-1.75-9.25"/>
		<path id="path702" d="m436.25 729.17 0.75 3.5"/>
		<path id="path704" d="m434.5 708.67-6.75 1-2.25 4-3 9.25 6-0.25 6.75-2.75 1-5z"/>
		<path id="path706" d="m434.5 708.67 1-5-2.5-7-1.25-4.5v-3l0.5-3.25 3.75-4.5 5-4.25h7.25l2-0.25 2.25-2.5 1.25-9.25-3-4.5"/>
		<path id="path708" d="m441.5 689.42 5.5-6 4.5-2.75 3-4v-6.25l-0.5-2.25"/>
		<path id="path710" d="m445.5 706.42-1-9.5 3-7.75 3.5-4.25 3.5-8.25"/>
		<path id="path712" d="m447.75 713.67 3.25-4.5 3.5-5.75 1.5-4 2.25-3 2.25-5.25 2-3.5"/>
		<path id="path714" d="m457 660.17-3 8"/>
		<path id="path716" d="m459 665.42-2.5 8.5-5.5 16.25-3 6.25-7.75 12-1.25 10.75"/>
		<path id="path718" d="m456.75 708.17l-0.25-14.75-2.75-4.75 4.25-4.75 5.5-9.5-7.25-10.25"/>
		<path id="path720" d="m1108.2 103.42h8.75l-0.5 137.75h-6.75"/>
		<path id="path724" d="m1117.2 153.42h4.8"/>
		<path id="path726" d="m1120.8 253.17-208-0.25"/>
		<path id="path728" d="m1014 138.17-4 2.25-3.5 3.75-2.25 7.5-0.5 8.75-0.25 5.25-0.75 7.25 1 4.75-0.5 6.5v4.5l1.75 4.25 3 5.25 4.25 5.75h16l2.25-4.5 2.75-8.25v-6.75l-1.25-5.5v-7.75l-0.25-10.75-1.25-7.5-3.75-11-3.5-3.75z"/>
		<path id="path730" d="m887.75 312.17-4.5-10-4-7-4.25-12.25 0.25-8.5 1-5.25-4.75-9.75-5-7-8.5-8.75-9.75-8-11.5-6-8.75-3.25-1.75-1.25-4.25-3.5 1.5-2 7.75-1 7-2 10.5 0.25 2.25 1.75 7.25 1 4.25 4.25"/>
		<path id="path732" d="m848.75 216.92 5-3.25 3.75-3.75 3.5-3 4.75 2.25 24.25 1.75 9.25 4.25 4-3 7-4 4.5-1.25 14.75-0.75 8.75-1.75 6.75 3.75 7.25 0.5 3.5 3.5 2 6.25-13-0.25-2 2.5"/>
		<path id="path734" d="m957.75 218.42 7.25-0.75 9.75-3.25 11.5-2.25 9.5 2 1.75 2.25-1.25 4.25-1.5 2-12 3.5-7.25 3.25-11.5 7.25-7.25 10-10.5 12-5.25 8-0.75 8.5-2.5 9-6.5 11.5-7.5 16.25-36 0.25"/>
		<path id="path736" d="m941 272.67-5.75 2-2.75 3.75-5 10.5-2.5 7.25-5.25 6.75"/>
		<path id="path738" d="m895 304.92-3.75-3-7-7.75-4.75-12.75-4.25-7"/>
		<path id="path740" d="m913.75 303.67 3-4.25 2-4.75v-8.25l-1.25-5.25-0.5-3.5 0.5-4.5-0.5-21-3-8.5-2.25-4.75-3.5-1.75 1.5-4.5v-2.25l-1-5.25-1.5-2.5-2.75-0.5-2.5 0.75-2.25 2.25-1.5 5.75v4.75l2 2.75-2.5 0.5-2.5 2-6.25 8.5v7l0.75 21.75-1 6.5 0.5 5 2.25 5 3.25 4.25 0.25 6z"/>
		<path id="path742" d="m908.25 237.17l-2.75 2.5h-2.5l-2.75-1.25"/>
		<path id="path371" d="m1044.8 333.17l77.75-0.25"/>
		<path id="path373" d="m1067.5 312.67 1.25 3.25 1.75 3-0.5 3.25"/>
		<path id="path375" d="m1055.2 312.42 2.75 7.75 4.25 6.75v2.5l1.25 3.25"/>
		<path id="path377" d="m1074 336.42 11 36.5"/>
		<path id="path379" d="m1062.5 340.67 2 3 12.5 35"/>
		<path id="path381" d="m561.75 353.42 2.75-6.75 1.25-5.25-1.5-9.75-5.5-9.25-10.5-10.75-9.75-7-15.5-1.75-28.75-1.5-3.25-0.75 2.25 10 5 16.5 9 14.25 14 12.75 8.75 5.25 8 2.75h10.25l8.5-3.5z"/>
		<path id="path383" d="m491 300.67 32 25.25 13.75 7.5 21 17.25 4 2.75"/>
		<path id="path385" d="m558.75 322.42-2 17.75-2 7.5-6 4.5-17.5 3.5-5.5 1.25"/>
		<path id="path387" d="m548.25 311.67-0.75 20.25-1.75 8.5-3.5 4.25-13.25 5.5-10.5 1"/>
		<path id="path389" d="m525.75 303.17 9.75 14.5 2.5 9.75-1.25 6-3.25 4-7.25 3.75-19 0.25"/>
		<path id="path391" d="m516.25 302.17 8 9.75 1.75 9.5-0.75 5.75-6.75 4.5-8.75 1.75h-7.75"/>
		<path id="path393" d="m508.5 302.17 4 6 2.5 5.5v5l-7.5 3-6.5-1-5.75-2.75"/>
		<path id="path395" d="m502.5 301.67 4.5 6 1.25 3.75-0.25 2-4.5 2.25-7.5-2-2.75-3"/>
		<path id="path397" d="m556.75 358.67 5 7 4 8.75-2 4.5-6.5 7.25-6.75 2.75-16.5 2.25-11.75-1-15.5-7.5-11.75-9.75-5-7 4.75-0.5 5.5-5 8-4.75 10.25-4.5"/>
		<path id="path399" d="m494.75 365.42 24.5 3.25 15.75 1.25 27.75-1.75"/>
		<path id="path401" d="m550.5 388.92 8.5-14 1-6.5-6.25-8.5"/>
		<path id="path403" d="m531 390.42 13.25-7.5 3.75-3.25 5.75-11 0.25-3.75-3.25-3.5"/>
		<path id="path405" d="m518.75 388.17 11-2.5 7-5 5.5-11.25-4.25-7.25"/>
		<path id="path407" d="m514.25 385.67 12-6.5 8.75-9.25-1.25-9.25"/>
		<path id="path409" d="m506.75 382.67 13.25-7 6.5-6.75-0.75-3.75-2.25-3.75-12.25-7"/>
		<path id="path411" d="m500.25 376.92 5.5-0.75 5.5-1.5 5.25-6.5v-4.75l-6-4.5-2.25-3.25"/>
		<path id="path413" d="m495 372.92 6-2 0.25-1.75 1-3.5-2-5.25"/>
		<path id="path415" d="m562.5 326.92v-10.75l1.25-9.75 2.5-12 6-13.75 3-5.75 2-7.25 2.5-3.75 2.75 5.5 5.75 7.5 6 7.25 7.25 14 4.75 14.5 2.5 11.5 1 11.75-1.75 8.25-4.5 9-6.25 7.25-7.75 2.5-7.25-3.5-10.25-7.25-3-3.5-3.25-7.25"/>
		<path id="path417" d="m580.25 366.42 2-7"/>
		<path id="path419" d="m582.25 359.42 0.5-45.25-1.75-33.75-1.25-16.5"/>
		<path id="path421" d="m577 368.42-14.25-0.25"/>
		<path id="path423" d="m562.5 326.92 9.75 16.25 6.5 6.5 3.5 2.75 6.5 1.5 7-1.75 12.25-8"/>
		<path id="path425" d="m562.75 320.42 6.75 10.25 7 7.5 5 4.5 5-2.75 9.25-7.5 8.25-10.25 3-6.5"/>
		<path id="path427" d="m563.25 312.42 8.75 13.25 7 6.25 3 1.25 6-5.25 9.75-8.5 6-14.25"/>
		<path id="path429" d="m564.75 299.17 9 11.75 7.75 8.75 4.5-2.5 6.5-9.5 7-14.25"/>
		<path id="path431" d="m567.75 289.92 11 14.25 3.5 2.75 6-4.75 6-11.25v-6.75"/>
		<path id="path433" d="m572.25 280.67 5 10.5 4.25 4.5 3.5-3 4-7.75 1-6.25"/>
		<path id="path435" d="m575.25 274.92 2.75 7 3 1.75 2.25-2.5 3-6.25"/>
		<path id="path437" d="m608 320.92 9-12.25 13-13.75 8-7.25 4 8.5 4 14 6.25 17.5 0.5 15.5-2.75 13.75-6.5 12-10.75 13.5-11.5 5.25-3-0.5-5-3.75-5.25-5.75-4.75-10.5-3-10.5"/>
		<path id="path439" d="m613 399.17 0.25-15.75 6.25-27.5 8-30.25 6.75-25.75 3.75-12.25"/>
		<path id="path441" d="m603.5 353.17 4.75 15.5 5.5 9.25 4.25 2.5 15-5.25 10.5-6.25"/>
		<path id="path443" d="m606.75 347.42 5.25 15.75 4.5 8 3.5 1.75 8.25-0.5 9.5-6 13-13.25"/>
		<path id="path445" d="m609.5 338.92 3.75 8.75 3.25 6.75 3.25 1.25 6.75-1.25 15.25-7.5 10.75-11.25"/>
		<path id="path447" d="m610.75 317.17 3.5 12.25 3.25 9 4.5 6.25 4 0.75 7.25-3.25 11-11.25 4.5-12"/>
		<path id="path449" d="m617 308.67 0.5 7.75 3 10.25 4.5 6.75 2.75 0.75 5-2 10-6.75 4.5-10"/>
		<path id="path451" d="m621.75 303.67v7.25l1.25 4.75 4.75 7.5 3 0.5 5.25-2.25 10-11.25"/>
		<path id="path453" d="m626 298.67 1.5 8.75 3.25 6 4.25-2.25 9-8.5"/>
		<path id="path455" d="m630 294.92 1.25 7.25 1.25 2.25 3-0.25 6.5-8"/>
		<path id="path457" d="m561.75 382.17 13-0.75 10.25 1.75 6.25 5 7.75 8.5 2 6.25-2.5 7.75-2.75 7-8.75 5.5-10.5 3.5-15.75 1.75-18-4.75-17.75-8.75-4.75-2 2.5-3.5 7.5-7.5 10.5-9.75 3.75-2.25"/>
		<path id="path459" d="m605.25 396.17-9.25 1.25-30 4.75-24.5 5-21.25 5.75"/>
		<path id="path461" d="m592.25 419.17 2.75-10-1.75-11.5-5.75-9.5-5.75-5.5"/>
		<path id="path463" d="m582.75 423.92 7.25-13.75-1.25-11.25-6-9.75-8-7.75"/>
		<path id="path465" d="m569.75 427.17 10.25-10.5 1.5-3.75 2.25-14-3-5.25-8.5-6.75-10.5-4.75"/>
		<path id="path467" d="m560.75 428.42 10.25-14.5 4.5-8.5 0.5-5.25-3.5-3.75-9.25-7.75-6-2.5"/>
		<path id="path469" d="m551.75 425.42 11.25-9.5 5-9.75 0.75-4.5-7.5-5.5-8.25-4.5-8.5-1.75"/>
		<path id="path471" d="m546 423.67 9-7.5 5.25-7.5-0.5-5-4-3-9.5-6.75-5.5-1.75"/>
		<path id="path473" d="m539.75 421.92 7.5-7.25 5.5-7-0.25-2.75-5-3.25-7.25-2.75-5-1.5"/>
		<path id="path475" d="m534 418.92 7.5-7 2-4.75-2.5-3-5.75-2.5-5.25 0.25"/>
		<path id="path477" d="m529.5 416.67 4.25-5 1.25-2.5-0.75-2-8-2"/>
		<path id="path479" d="m595.75 417.67 5.5-2 5.75-0.75 6.75 0.75 5.25 3.75 2.25 3.75 2 3.25 0.5 6-2.25 4.75-4.25 6.25-8 6.5-8.75 5.5-11.5 4.25-11 0.75-12.25-1.25-0.25-5.75 2.75-10.25 4.75-11.75 3.5-4.75"/>
		<path id="path483" d="m628.5 422.17-7.75 0.5-4.75 0.75-7.25 3.75-12.75 7-15 10.25-7.75 6.75-7.5 8"/>
		<path id="path485" d="m601.25 415.67 10 5.25 4.75 2.5 1.75 5.25-0.5 14.75"/>
		<path id="path487" d="m595.75 417.67 9.25 5 5.75 3.5 1.5 4.5-0.25 16.75"/>
		<path id="path489" d="m587 423.17 12.25 3.25 5 3 1 5 0.75 16"/>
		<path id="path491" d="m575.25 429.42h11.25l9 1.25 3.25 2.25-0.75 6.5-4.25 14.75-4.75 5.5"/>
		<path id="path493" d="m570.25 438.17 10.5-3 4.75 0.25 5 3.25 1 6.5-3.5 7.75-4.5 7"/>
		<path id="path495" d="m568.25 443.17 9.5-2 3.25 3.25 0.5 5.25-2.5 6.5-1 4.25"/>
		<path id="path497" d="m566 448.67 5.25-0.75 5.25 0.25v2l-1.75 9.75"/>
		<path id="path499" d="m606 450.42z"/>
		<path id="path501" d="m606 450.42v-4.75"/>
		<path id="path503" d="m604.25 453.42 1.75-3"/>
		<path id="path505" d="m634.5 422.67 2.25-8.25 11.75-18.5 12.5-16 8.25-7"/>
		<path id="path507" d="m636.75 414.42-3.75-5.25-1.25-5-0.75-7 2-7.25 5.75-10.5 7.25-7.75 10-7.5 6.25-2 5 0.5 0.75 7 1.5 6.75 2.25 3.25 3 4 1 6.75-2.75 8.75-5 8.25-9.5 8.75-9 4.5-7.5-0.75z"/>
		<path id="path509" d="m633 389.92 2.5 10 4.25 9 4.25 3.25 8.25 2h8.25"/>
		<path id="path511" d="m638.75 379.42v7.5l1 8.5 1.75 5.75 1.75 2.75 3.75 2.25 8.75 0.75 12.25 0.5"/>
		<path id="path513" d="m646 371.67 1 10.5 0.5 9.75 1 4 4.75 4 12 1.5 7.75-2.25"/>
		<path id="path515" d="m662.25 362.17-6.75 9.25-0.75 4.25-1.25 8 1.5 3.75 4 4.5 10.25 1.25 6.5-2.75"/>
		<path id="path517" d="m667.25 362.67-4.5 7-0.75 6.25-1 4 5.75 1.25 4.5-1.5"/>
		<path id="path519" d="m644.5 446.67-6-2.5h-5.25l-6 1.5-3.25 4.25-3 6-1.5 5.75-0.75 9 2 5 4.75 2.5 8.25-2.5 10-5 4.5-5.75 2.25-4.75-0.25-4.75-2.75-6z"/>
		<path id="path521" d="m647 444.92-6 6-5.75 5.5-5.75 7-8.75 12.25"/>
		<path id="path523" d="m650.5 460.17-4.25-6.25-4-4.5-9-5.25"/>
		<path id="path525" d="m644.75 468.17-1-8.75-4.5-6.5-5.25-3.75-10 0.75"/>
		<path id="path527" d="m639.25 472.42-1-6.5-1.25-7.25-1.75-2.25-4-1.25h-5l-5.25 0.75"/>
		<path id="path529" d="m633.75 475.67-0.25-6.5 0.5-6.25-2.25-3-5.25-0.25-7 2"/>
		<path id="path531" d="m619.25 464.92 5 0.25 3.5 1 1.25 2.5 0.5 7.75"/>
		<path id="path533" d="m655.75 445.17-3-6v-3.75l1.5-3.5 3.25-2 3.75-2h4l5.5 2.5 4 2.25 3.25 1.5-1 3.5-1.75 6-1.5 4.25-2.5 4-4.75 4.5h-1.5l-4.5-1-2.5-5.25z"/>
		<path id="path535" d="m678 434.17-6.5 2.5-7 5-7.75 6"/>
		<path id="path537" d="m675.75 440.92-2.75-1.75-1.5-2.5-0.25-3-0.5-3.25"/>
		<path id="path541" d="m668.12 429.42-1.375 6.625 0.375 3.875 3.125 3.375 4.375 2"/>
		<path id="path543" d="m672.5 449.92-5.875-2.5-3.75-4.5-0.75-4.875 1.875-10.125"/>
		<path id="path545" d="m668.38 454.42-5.125-3.125-4.875-5-1.125-7.25-0.125-8.75"/>
		<path id="path547" d="m663.5 469.67-7-1.5-2.5 3.75 0.5 7 2.5 7.25 1.75 0.75 6-5.5 3.5-6.25-2.25-4z"/>
		<path id="path549" d="m663.5 469.67-3.75 6.5-1 10.75"/>
		<path id="path551" d="m668.25 475.17-6-3-8.25-0.25"/>
		<path id="path553" d="m664.75 481.42-2.5-5-2.5-0.25-4-0.75-1.25 3.5"/>
		<path id="path555" d="m662 484.17-2.75-3.25-3 2.5"/>
		<path id="path557" d="m561.75 353.42 18.5 13 26 24.75 6.75 8 21.5 23.5 22.25 25"/>
		<path id="path559" d="m665 456.42 8.25 15.25 12.75 18.25 14.75 20.75 10.5 10"/>
		<path id="path561" d="m560.25 355.67 16.75 12.75 28.25 27.75 23.25 26 18.5 22.75 16.5 24.75"/>
		<path id="path563" d="m668.25 475.17 17.25 25.5 13.5 17.5 15 11.75"/>
		<path id="path565" d="m652.5 261.67c4 16 4.25 16 4.25 16l2.5 8 4.75-6.25 3.25-9.75 3.5-2.75 5.5 3 4 6.5"/>
		<path id="path567" d="m655.75 273.42 7.5-6.5 4 2.75"/>
		<path id="path569" d="m652.5 261.67 5-4.25 7.25 3.75 8 3.25 0.25-9.75 2.25-3 13.25-7.5 4.25 6 8-4 5.75 8.25 2.75 1.75 1.75 4.25 4.75 5.5-4 3-2 4-5.25 0.25-4.25-4.25"/>
		<path id="path571" d="m699.25 261.92 10-5.75"/>
		<path id="path573" d="m694 260.67-4.25-5.25"/>
		<path id="path575" d="m692.75 250.17-3 5.25-8.5 2.5-1 18.5"/>
		<path id="path577" d="m704.5 273.17-4.5 8-5 1.25-5-2-9.75-4"/>
		<path id="path579" d="m699.25 261.92-5.25-1.25-5 5 1.25 3.5 2.75 3 7.25-3.25z"/>
		<path id="path581" d="m693 272.17-3.75 7.5"/>
		<path id="path583" d="m689 265.67-8.25-0.25"/>
		<path id="path585" d="m652.25 290.17 3.25 2.5 8.75-0.25 1.25 2 0.5 2.75-5.5 4-0.75 3.5-1.25-2.25-3.75-0.25-2.25-1.75-1-3.25 2.75-1.75z"/>
		<path id="path587" d="m665.5 294.42 7.25 0.5 10 3.25 8-0.25"/>
		<path id="path589" d="m677.75 328.67-2-1.75-2 1-0.25-5.25 1.75-4.25 0.75-1 2.25 1.75 3 2.5v2l-1 3.25z"/>
		<path id="path591" d="m676 317.42 1.25-9.5 5.5-9.75"/>
		<path id="path593" d="m680.25 276.42 10.5 21.5 1.75 14.5"/>
		<path id="path595" d="m700 281.17-0.25 20.25 1.75 14.5"/>
		<path id="path597" d="m692.5 312.42 7.25 6.25 3.25 9.25v9.5l3.75 7.5 4 3.25 1.25 11.25-4.5 9-7.75 6.5-4.5-1-8-4.5-6.5-6.25-4.25-12.5 1.5-12 5-10 6.5-11.25z"/>
		<path id="path599" d="m701.5 315.92-0.5 5.75"/>
		<path id="path601" d="m692.5 312.42 3 50.75 4.25 11.75"/>
		<path id="path603" d="m679.25 357.17 12.5 10 6.5 2.5 3.5-2 8.25-4.25"/>
		<path id="path605" d="m678 338.67 2 6.25 5.25 8.5 9 4.5 3.5-2.75 9-10.25"/>
		<path id="path607" d="m681 332.17 3.25 6.75 9.75 10 2.75-2 6.25-9.5"/>
		<path id="path609" d="m684.5 326.42 2.75 5.25 6.5 7.25 2.75-2.75 6.5-8.25"/>
		<path id="path611" d="m687.25 320.67 1.5 4.25 5.25 6.5 3-3 4-6.75"/>
		<path id="path613" d="m679.25 359.92-5-0.25-8.75-3 1.75 6"/>
		<path id="path615" d="m673 399.17 5 4.5 6 1.75 6.5 1.5 3.25-3 2.5-5.25 0.75-11-1.75-13.75"/>
		<path id="path617" d="m665.5 356.67 18.25 22.25 13.25 8.75"/>
		<path id="path619" d="m667.25 362.67 5.5 2.25 1.5-5.25"/>
		<path id="path621" d="m668 369.67 8.75 0.75 4-7.25"/>
		<path id="path623" d="m669.5 376.42 14.25 2.5 0.75-12.25"/>
		<path id="path625" d="m673.5 380.92 10.5 1.5 3.5-1.5 2-9.75"/>
		<path id="path627" d="m674.75 383.67 12 1.75 5-1.5 3.5-10"/>
		<path id="path629" d="m675.75 390.42 10.75-1 8.25-4 1.5-1.75"/>
		<path id="path631" d="m675.75 400.42 7-4 12-11"/>
		<path id="path633" d="m680.5 403.67 10-6.5 6.5-9.5"/>
		<path id="path635" d="m687.75 405.42 8.75-11.75"/>
		<path id="path637" d="m712 359.42 2.75 1.25 5.25-2.5 1.75 7.75-8.5 19.25-9.25 7-6.75-1.25 9-14 13.25-18"/>
		<path id="path639" d="m708 387.92-7-1-4.75-3.25"/>
		<path id="path641" d="m713.25 385.17-10.5-2-7.25-4.5"/>
		<path id="path643" d="m715.75 379.17-11-0.25-5-4"/>
		<path id="path645" d="m718.25 373.42-10.5 1-4.25-2.5"/>
		<path id="path647" d="m720 369.17-9 0.75-3.5-1.5"/>
		<path id="path649" d="m721.5 363.17-6.5 2.5-5-2.25"/>
		<path id="path651" d="m711.25 520.67-13-44-1.75-27.25v-34.5l0.75-24 2.5 48.5 3.75 35 7.5 37.5"/>
		<path id="path655" d="m713.25 385.17 11 21.75 4.5 15.25-0.5 13.75-17.25 76"/>
		<path id="path657" d="m720.5 382.17 8.25 22.75 3.75 10 7.5-30.75 4.5-31.75 0.25-30.25v-6.25l-1.25-16.25-6-15.5-3.25-4.25-1.5-4.5 1.25-2.25 5.25 5 1.5-2.75-2.75-6-0.25-6.5h1.25l2 7.25-1.25-27 3-4 3.25 6 0.25 14.5-0.25 6.75 4-2.5 1.5 4.25-5 10 0.25 11.75 2.75 3.5v4.5l-0.25 5.5 1.25 9.75 0.25 3.25 3.25-7.75-1.5-3.75-0.25-3 2.75-0.25 3.75-4-8-4v-3l6-4 5.25 3 2-4.25-7-4.5-1.25-3.5-1.25-4.25v-4.25l0.25-5.25-0.25-2.25 8.75 4.5 5.75 8.5 0.5-4 1-2.75-4.25-3-6.25-11.5-0.25-7.75 1.75-8.75 3.75-8.25 3.25 5.5 1.25 2 5.5-8.75 12.75-8.25 8-3.75 2.25 5.25 0.75 7.5-2 9.5-3.25 10-4.5 4.75-2.25 4 7.75-4 5.25-4.5 7.75-1.25 3.75 2 3.25-1.75-4 8-6.75 9-6.75 6.25-8.25 2-2.5 0.5 1.75 3 6.75 3.25 1.5 2.75-4.75 4.5-10 4-5.25-1.25s-7-8.25-8.25-4-2 5.25-2 5.25l5.5 3.75 4.5 2.5 2 4-1.5 1.75-8.75 0.25-6-1.25-2 1.5 3.25 3.25-0.25 1.75-3.5 1.5-2.5 2-3.5 6.25-1.25 6-2.5 41"/>
		<path id="path659" d="m765.25 228.42 2.25 16.5 5.5 19 8.25-16.5 0.25-6 14.5-26.25"/>
		<path id="path661" d="m811.5 248.42-14 8.25-19 9.25-5.5-2"/>
		<path id="path663" d="m796.5 281.42-28-0.25 0.75 0.25"/>
		<path id="path667" d="m768.5 281.17-14-19.75"/>
		<path id="path669" d="m761.75 282.92 6.75-1.75 0.5-6.75"/>
		<path id="path671" d="m757 280.92 8.5-4 1-6.75"/>
		<path id="path673" d="m755.75 276.92 6.75-3.5 4-3.25"/>
		<path id="path675" d="m754.5 273.17 6.75-2.5 2-4.75"/>
		<path id="path679" d="m761.75 282.92"/>
		<path id="path681" d="m754.25 267.42 5.25-0.25 1.25-2.75"/>
		<path id="path683" d="m768.5 281.17-6.75 1.75"/>
		<path id="path685" d="m791.75 285.92-1.25-4.5 1.75-4.25"/>
		<path id="path687" d="m788.5 287.17-2-6 1.75-5.75"/>
		<path id="path689" d="m781.75 289.92-1.25-8.5 6-9-7.75 3-6-1.25-3.25-3.75"/>
		<path id="path691" d="m776.5 288.67-2.5-7.5 4.75-5.75"/>
		<path id="path693" d="m772.75 274.17l-3.5 7.25 1.25 2.5"/>
		<path id="path695" d="m810.75 254.67-5.5-2.75-0.75-5"/>
		<path id="path697" d="m807.75 258.67-6.75-4.5-1-6.5"/>
		<path id="path699" d="m805.5 261.17-8-4.5-2.75-4.5"/>
		<path id="path701" d="m804 263.67-10.25-4.75-1.75-5.25"/>
		<path id="path703" d="m801 266.67-11.5-6v-5.75"/>
		<path id="path705" d="m787 256.17-6 6-8 1.75"/>
		<path id="path707" d="m769.75 235.92-2.25 9"/>
		<path id="path709" d="m766.25 264.67 6.75-0.75"/>
		<path id="path711" d="m761.5 236.67 5.25 2.75 3-3.5"/>
		<path id="path713" d="m760 241.42 7.5 3.5"/>
		<path id="path715" d="m759.75 245.42 9.75 5.75"/>
		<path id="path717" d="m760 253.17 11.75 7.25"/>
		<path id="path719" d="m770.5 267.67l8-1.75"/>
		<path id="path721" d="m787 256.17-0.5 6 6 8"/>
		<path id="path723" d="m786.5 272.42-8-6.5 2.5-3.75"/>
		<path id="path725" d="m798.25 220.42-8.25 4.25-2-5.75"/>
		<path id="path727" d="m798.5 223.17-4.25 4.25-6.25 3.75-2.25-4.75-2-5.25"/>
		<path id="path729" d="m799 227.92-6.75 7.25-8.25 2.25-2.75-3.5-1-10.25"/>
		<path id="path731" d="m797 237.42-8.5 2.5-7 1.5-6-7.25-0.25-7"/>
		<path id="path733" d="m794.25 244.67h-5.75l-7.25 0.25-5-3.75-5-7.75"/>
		<path id="path735" d="m789.25 252.17-5.75-0.75-3.5-0.75-6.5-6.25-3.75-8.5"/>
		<path id="path737" d="m787 256.17-4.75-1-4-1.5-6.25-4.75-4.5-4"/>
		<path id="path739" d="m783.5 259.42-7.75-0.5-5.75-5.25"/>
		<path id="path741" d="m720.5 382.17-2.25-8.75"/>
		<path id="path743" d="m749.75 364.17 10.75-12.5 0.75-6 2.75-5.25 3.5-0.25 1.25-2.75-3.25-4 10-14.5 1 4 3-4.25 11.5-16.25 3.75 6 6.5-9 6-5.5 4.75-5.5 0.75 5.25 16-4.75 3.5 0.5 0.5 2-2 3-5 8.25 5 5-6.75 3-21.25 6.75-2.5 3.25 5.25 3v3l-14.75 8.25-7.75 3.5v2l-4.5 2-10 7.75-22 28.5-17.75 89.5 15-14 9.5-10 11.75-23 10.5-22.75"/>
		<path id="path745" d="m780.25 400.67-20.75 46.5-27.5 24.5"/>
		<path id="path747" d="m782.5 369.17-2 4.75-2.5 6.75 0.5 8.25 8.5 12.25 8.5 5.75 2 1.75 2.75-2.75 1.25-11-2-11.25-9.5-10z"/>
		<path id="path749" d="m782.5 369.17 7.25 16.5s4.25 7 6 15l1.75 8"/>
		<path id="path751" d="m780.75 374.17 6.25 5 3-5.5"/>
		<path id="path753" d="m778 380.67 11.75 5 4-7.75"/>
		<path id="path755" d="m778.5 384.42 11 6.5 4.25 2.75 5.75-10"/>
		<path id="path757" d="m783.75 396.17 11.25 2.5 6.25-7.25"/>
		<path id="path759" d="m797.5 408.67-1.5 6.5 9.5-6.5 12.75-16.5 23-28 3.5-4.25"/>
		<path id="path761" d="m808 404.67-2.25-7.75 1.75-10.5 8-10.75 11.75-9.25 17.5-6.5 1.25 4 0.25 9-2.5 12.5-5.5 11.75-4.25 5.5-8.75-1.75-7.75-1-5.25 0.25"/>
		<path id="path763" d="m837.25 361.92 1 5.25 7.75 1.75"/>
		<path id="path765" d="m846.25 372.92-12 1-2-9.75"/>
		<path id="path769" d="m827.25 366.42 0.25 12.75 9.25 0.25 9-3.5"/>
		<path id="path771" d="m844.75 382.92-11.5 3.5-9.5-1-3.5-6.75 2-8.75"/>
		<path id="path773" d="m842 388.67-8.75 2.25-5.25 2.5-8.25-0.25-2.25-0.5-3-4.5 1-12.5"/>
		<path id="path775" d="m838.25 397.17-14.5 0.75-8.25-1.5-4.5-3.75-2-9.5"/>
		<path id="path777" d="m834 402.67 11.5 7.5 7 5.5c-7.5 3.5-7.75 3.5-7.75 3.5l-10 4.5-10.75 1-12.25-0.25-7.25-4.5-8.5-4.75"/>
		<path id="path779" d="m852.5 415.67-12.5-3.75-18.75-3.5-15.75 0.25"/>
		<path id="path781" d="m847.75 417.92-7.75-6 5.5-1.75"/>
		<path id="path783" d="m841.75 420.67-7-9.5 3.75-6"/>
		<path id="path785" d="m834.75 423.67-8.75-14 8-7"/>
		<path id="path787" d="m824 424.67-7-8.75-2.5-6.5 3-3.75 7.75-4.75"/>
		<path id="path789" d="m816.5 423.92-7.75-10.25-0.75-5 6.75-8.75"/>
		<path id="path791" d="m805 419.42-3.75-7.25"/>
		<path id="path793" d="m759.5 447.17 10.75-9 10-9.5 15.75-13.5-25 16.25-7.25 6.25"/>
		<path id="path795" d="m732 471.67 21.75-7.5 13.25-4.5 14.75-1 14.25-1 20.75 3.5 12.25 2-20 0.25-33.25-1-12 4.75-22.5 7.75-13.5 10.25"/>
		<path id="path797" d="m810.5 459.17 2.25-6.75-0.75-11.25-4-9.25-4 6.25-4 5.75-2.5 4 0.5 5.75 2.5 2.75z"/>
		<path id="path799" d="m808 431.92 7 1.75 4 4 4.25 6.75 1 6.25-3 3.25-3.75 0.75-7 4.5"/>
		<path id="path801" d="m815 433.67c-0.5 4 2 0.49999-0.5 4l-2.5 3.5-4-1.25-4-2.75"/>
		<path id="path803" d="m802.25 441.17 3.25 3.5 6.75 2.25 3.5-2.75 3.25-6.5"/>
		<path id="path805" d="m823.25 444.42l-4 4.75-6.5 3.25-9.5-4-3.75-3.5"/>
		<path id="path807" d="m798 453.67 10.5 2.25 5.75 0.5 9.5-8.5"/>
		<path id="path811" d="m812.5 463.67 0.5 4.25 1.5 9-1.75 9-5 11.75"/>
		<path id="path813" d="m817 463.17 6.75 3.25 3 3.5-0.5 5-1 10.25-4 5-7.75 6.75-5.75 0.75-6.25-5.25-2.25-9.5 0.25-8 2-7.25 3.25-4.25"/>
		<path id="path815" d="m815.25 493.92-1.75-3.5-2.5-1.75-5.25-0.25-4.25 4"/>
		<path id="path817" d="m821.25 490.17-4-4-3.75-3.25h-3l-10.25 4.5"/>
		<path id="path819" d="m815.25 493.92-1.75 3"/>
		<path id="path821" d="m825.25 485.17-6.25-8.5-4.5-3.75-5.75 1.25-9.25 5"/>
		<path id="path823" d="m826.25 476.67-8-5.75-5.25-1.5-12.25 1"/>
		<path id="path825" d="m727.75 485.17-5.25 39.25v4l2 33.75"/>
		<path id="path827" d="m714 529.92-0.5 31.75"/>
		<path id="path829" d="m713.5 561.67-10 10.75-8.75-18.5-14-21-16.25-13.25-18.25-4-15.75-0.75-4.5 1.25-6.5 2.25-6.5 1.75-3.75-1.25-8-5.5-7-6.5-17.75-2-10.25 4.25-6 4-2 3.25 2.25 6.5 8 7.25 11.75 5.5 11 1 10.25-6.25 4.5-8 6.75-2 15.5-1.5 15.25 0.5 24.25 7.75 16.75 20.5 17 33"/>
		<path id="path831" d="m558.25 516.42c19 4.25 19 4.5 19 4.5l10.75 1.25 24.75-1.75"/>
		<path id="path833" d="m560.5 522.92 5-2 1.25-2.5-0.5-2.5-2.25-4.75"/>
		<path id="path835" d="m565 527.17 5-1.25 7.25-5-1-4.25-10-7.5"/>
		<path id="path837" d="m572.75 531.92 5.25-4.25 5.75-6.25v-4l-10.5-10.75"/>
		<path id="path839" d="m576.75 534.17 10.5-8.25 0.75-3.75-1.75-8.75-5.25-8"/>
		<path id="path841" d="m585.25 535.67 7.25-6.75 5-7.75-4-8.25-6.25-7"/>
		<path id="path843" d="m597.5 532.42 2.5-5.75 0.75-6-2-9.5"/>
		<path id="path845" d="m724.5 562.17-5 25-2.75 14.75 1.25 12.25 2.5 4.25 1 8.5"/>
		<path id="path847" d="m701.5 580.67v15.5l0.75 13 1.5 9 0.75 6-2.25 5.5-3 7.5-17.75 6.75-14 7-10.25 9.5-6.25 10.5-4 7.5-2 1.5"/>
		<path id="path849" d="m646.75 682.42 6.25-6.5 7.5-10.25 4.5-6.5 7.5-6 10.25-3.25 12.25-4 8-6.75-0.5 3.75-1.5 5.25-14 2.75-10 7.25-8.25 7.25-2.75 8-2.75 10.5-2.5 11.5-1 11.75 1.75 7-3.75 2.5-5.5 6-2.5 5.25v5.5l1.5 4.25h0.25l6.5 1.25 10.75-0.75 7-3 3.5 1.75 4.75 1.25 11.5-3.25 9.5-6.25 10.5-10.25 7.75-19.25 2.75-12.5v-9.5l-2.75-12-5.5-8.25-12.25-7.5-4.5-0.75"/>
		<path id="path851" d="m661.5 714.17 4.75-1 5 1.5 4.5 4.5 1.5 6-1.5 10"/>
		<path id="path853" d="m684 738.17 2.75-7.5 4.75-7.25 1.25-16.5 1-15 4.75-15.25 6.25-8.5 0.5-9 0.25-9.75"/>
		<path id="path855" d="m691.25 650.17 0.75 9.75 4.5 9s7.75-3.25 7 8.25l-0.75 11.5 0.25 9.25"/>
		<path id="path857" d="m711.25 653.17-0.25 10.25-3 10.5-5.25 9.75"/>
		<path id="path859" d="m708 673.92 2 6.75 5.75 5.5 0.5 5.5-0.5 4.5-0.5 4-0.75 7.5v2.75l6 9.25"/>
		<path id="path861" d="m728.5 717.42v-6.5l-2.5-5-5.5-4.5-4.25-9.75"/>
		<path id="path863" d="m734 712.92-5.5-2"/>
		<path id="path865" d="m733 707.17-2.25-2-4.75 0.75"/>
		<path id="path867" d="m722.5 630.92v4.25l-0.75 9-1.25 8.5-2.75 4.25"/>
		<path id="path869" d="m711.25 666.42 4.25 2 15 0.75 9.25 6 10 1"/>
		<path id="path871" d="m739.75 675.17 7.25 6.75 8.25 2.25"/>
		<path id="path873" d="m747 681.92 8.25 9 3 6"/>
		<path id="path875" d="m753.5 700.42-4.25-8.5-2.25-10"/>
		<path id="path877" d="m746.25 725.67 1.25-12-2.75-14.75-7-14.75-11-15.75"/>
		<path id="path879" d="m696.5 744.17-1-9.25-0.5-5.75-3.5-5.75"/>
		<path id="path881" d="m702.75 745.67-0.75-4.75-6.5-6"/>
		<path id="path883" d="m720.5 652.67 7.5 5.25 11.5 10 10.25 11.75 0.5 3.25"/>
		<path id="path885" d="m780.5 674.67-3-0.5-13.75-7.25-8.75-2.75-9.5-3.25-7.25-5.25-3.75-6.75-5.5-5.25-7-3"/>
		<path id="path887" d="m767.75 690.92-6.25-12-1.25-5.75-2.25-8-4.5-8-9.25-11-10.5-8-7.5-5-3.75 2"/>
		<path id="path889" d="m758 665.17 3.5-2.5 4.75-3 5.25-1 4-3 3.5-6.5 3.5-5.25 10-10.25 8.5-0.25"/>
		<path id="path891" d="m779 649.17h3.75l4.25 1 12.75 8"/>
		<path id="path893" d="m782.5 643.92 6.5-1.25 7.75 1.5 7 5"/>
		<path id="path895" d="m684 738.17-8 10-2.75 3.75-3.5 7.5"/>
		<path id="path897" d="m673 759.67 4.25-7.75 6.75-13.75"/>
		<path id="path899" d="m681.75 744.17 1.75 3 8 7.25-3.5 4-4.5 8 1.25 6 3 8.75 6.5 6.25 11 5 12.25 4 5.5-0.25 5-2.25 3-6-4-7.75-4.25-12.5-2.75-4.75-5.75-6-7.5-5.5-5.75-0.5-9.5 3.5"/>
		<path id="path901" d="m670.5 756.42-10.25 0.75-13.5 4-16.5 9.5-10.25 14.25-3.5 8.75-1.25 18.5 1.5 6.25 5 9.75 7.75 11 11 6.25 9.75 6.25 10.75 2.5 19.75-0.5 14.75-5.5 14-9.25 10.5-13 4.75-15-0.25-11.5-2.5-10.5-8.75-12.25-7.25-8.75-10-5.75-12.75-3.75z"/>
		<path id="path903" d="m642.75 758.17-5.75 6.75 0.5 6.75 2 5.5 3.75 1.5 6.75-0.5 6.25-4.5 1.75-6.25-3.5-5.75-4.75-4.75z"/>
		<path id="path905" d="m658 767.42 11.75-8"/>
		<path id="path907" d="m670.5 782.92 4.5 3 1.5 3.75 1.25 8.5-1.75 3.25-2 2.5"/>
		<path id="path909" d="m671.25 805.92-10-0.25-2.25-2.25"/>
		<path id="path911" d="m656.75 801.42-2.25-6.25 0.25-2.75 0.5-4.75 3-3 3.75-2.75 4.25 0.5"/>
		<path id="path913" d="m724.25 813.67 127.5 47-152-15"/>
		<path id="path915" d="m757 638.17h365"/>
		<path id="path917" d="m788.5 693.17 332.5-0.5"/>
		<path id="path919" d="m946.5 881.67 175.5 1.5"/>
		<path id="path921" d="m1097.5 771.67 24.5 0.5"/>
		<path id="path923" d="m1080.5 781.17h41.5"/>
		<path id="path925" d="m1006 752.67 0.5-14.5-5.5-7-1-4 2-6 5.5-5h4.5l3.5 6 8-5 11-3 15 0.5 10.5 4 6.5 4.5-1.5-9-0.5-4.5 7.5-7.5 7-0.5 8 7.5 4 12.5-2 6.5-8 9-10.5 7-0.5 6.5z"/>
		<path id="path927" d="m1078.5 714.67 43.5 1"/>
		<path id="path929" d="m1002 721.17-81.5 52 85.5-20.5"/>
		<path id="path931" d="m951.5 911.67 3-195.5 1 15.5 8.5-1.5 0.5-5.5"/>
		<path id="path933" d="m959 726.67-1-16-123.5-0.5 1 17.5"/>
		<path id="path935" d="m830.5 724.17 0.5 7.5h9.5l-1-16 3.5 196h108.5"/>
		<path id="path653" d="m1087 377.67 36-1"/>
		<path id="path665" d="m1093.5 490.42-3.5-0.75-1.75 1.5-1.25 6.25 2.5 6 2 4.5 1.5 10.75-1 2-7.5 9.25-4.5 9-3.5 10.75-2.75 11-2 9v7.5l0.25 6.75 2 8.5 1.75 4-11.75-7.75-7.5-6-5.25-3.5-2-0.25v1.25l1.25 5.5 5.75 7.75 8.5 9.5s6 2 5.75 4.25l-0.25 2.25 0.5 3.25 3-2.25 1.25-0.75 8.5 7.25 5.75 7.25-7.75 2.25-9 1.5-5.5 3.5-1.25 1.5"/>
		<path id="path677" d="m1089.2 624.17 21.5-0.5 16.25-0.5 2.25 0.5 3 1.5"/>
		<path id="path722" d="m1112.5 623.17c2.75-3 3-3 3-3l2-3.75-0.5-3.5 5.25-0.5 2.75-0.75v-1.5l-3.5-3-5-2.5 2.5-6.75 1.75-7 1.5-8.75 0.25-8 1.25-10-0.25-9.5 5.25-8.5 0.25-2.5-2-4.5-2.5 2.25-1.5 5-2.25 5.25-1.5-7-2.5-7.5-4.5-9.75-1.5-6.75 1.25-8.5-0.5-5-1.25-6.25-2.5-6.75-2-4.25-12.25 0.5"/>
		<path id="path744" d="m1117 612.92-3.5 0.5-1.25-2.5-0.25-3 0.25-2.75 4.25-0.5"/>
		<path id="path746" d="m1123.5 554.67-2.75-3"/>
		<path id="path748" d="m1075.8 596.42 8.5 4.25 4.75 4.25 2 5v3.25l-2 2.25-5.5 1.5"/>
		<path id="path750" d="m1098.5 603.67 0.5-1.75 1.75 2.75"/>
		<path id="path752" d="m1095.8 592.92s0.75-5.5 1.75-3.25 1 2.5 1 2.5"/>
		<path id="path754" d="m1104.8 600.92 1.25-3 0.5 0.25 2.25 3.25"/>
		<path id="path756" d="m1104.8 593.92 1.5-4 1.5 3.75"/>
		<path id="path758" d="m1113 589.67 0.5-2.75 1.75 3.25"/>
		<path id="path762" d="m1110.2 584.17-3.5-2.5 0.25 3.5"/>
		<path id="path764" d="m1101 585.42 1.75-3.5 1.25 5"/>
		<path id="path766" d="m1089.5 585.17 0.75-3.25 1.75 2.25"/>
		<path id="path768" d="m1086 590.67 0.75-2.5 2.25 3"/>
		<path id="path770" d="m1080.2 583.42 1.5-3.5 1.75 4.25"/>
		<path id="path772" d="m1116.8 578.17 1-3.25 1.75 3.5"/>
		<path id="path774" d="m1082.8 573.67-0.25-3"/>
		<path id="path776" d="m1089.8 564.17-0.25-4.25-1.5 4"/>
		<path id="path778" d="m1083.2 563.17-0.5-3.5"/>
		<path id="path780" d="m1111.2 560.67v-3l-1-1.5-2 2.25v2.25"/>
		<path id="path782" d="m1099.2 558.42-1.25-3.25-1.25 4.25"/>
		<path id="path784" d="m1094.8 551.67 0.5-3.75 1.75 4"/>
		<path id="path786" d="m1106 549.67 1.5-3.75 1 4"/>
		<path id="path788" d="m1104.2 541.17 1.75-3.75 0.75 3.5"/>
		<path id="path790" d="m1093.5 542.17 0.75-4.25 1 5"/>
		<path id="path792" d="m1086.2 545.67 0.5-2.25"/>
		<path id="path794" d="m1085.2 553.42v-3.75"/>
		<path id="path796" d="m1089.8 530.92 1.75-1.25"/>
		<path id="path798" d="m1094.2 534.67 0.25-2.5"/>
		<path id="path800" d="m1099.5 532.42 0.25-3"/>
		<path id="path802" d="m1103.5 532.67 0.25-4.5"/>
		<path id="path804" d="m1107.8 533.17 1.25-4.25"/>
		<path id="path806" d="m1112 543.92 1.75-6.5"/>
		<path id="path808" d="m1095.2 514.92-1.25-4.75"/>
		<path id="path810" d="m1099.2 512.42 2.5-4.5"/>
		<path id="path812" d="m1096.2 504.92-3-3"/>
		<path id="path814" d="m1105.2 501.67-3.75-4.25"/>
		<path id="path818" d="m1035 585.67 6.5-0.75 0.5-174.75"/>
		<path id="path820" d="m1033.8 359.67h7.75l0.5 50.5 79.75 0.25"/>
		<path id="path822" d="m1015.2 364.17-10-8-11.25-6-13.75-2.75-21.25-1.75l18.75-14.75"/>
		<path id="path824" d="m961.5 345.92-0.5 4.5 1.75 6.25"/>
		<path id="path826" d="m977 360.42v-13.25"/>
		<path id="path828" d="m975 339.92-8.25 6.25"/>
		<path id="path830" d="m977 347.17 4.25-3.25 9.75-3.25 15.5-2"/>
		<path id="path832" d="m1010 347.17-10 0.25-6 2.75-2 12.5 2.75 4.5 4.25 4"/>
		<path id="path834" d="m1010.2 368.92-3-3.75-2-9"/>
		<path id="path836" d="m1019.2 353.17h-8l-6 3"/>
		<path id="path838" d="m952.25 342.92-9 5.75-8.75 8.75-6.5 6.75-2.5 2.75-6.75 9.75-4.5 8-8 12.25 6 3.5 9-10.5 6.5-12.5 0.5-1.25"/>
		<path id="path840" d="m962.25 360.92-14 8.75-7.25 8-2.5 5.5-14.25-0.25"/>
		<path id="path842" d="m938.5 383.17 15.5 1.75 19.75 2.75 8 4.25 9.5 0.5 13.75 3.75 27 10.5"/>
		<path id="path844" d="m937 401.17 0.25-5.5 1.25-12.5"/>
		<path id="path846" d="m915 381.92h-7.25"/>
		<path id="path848" d="m930.75 361.17-8.25-1.5-9-0.5"/>
		<path id="path850" d="m913.5 356.42 9 0.25 10 2.25"/>
		<path id="path852" d="m944.75 383.42 0.25 10.75 3 6.75 7.75 8.75 6 6.75"/>
		<path id="path854" d="m954 384.92 1.25-4.5 3-5 17.25-9.75"/>
		<path id="path856" d="m962.75 385.92v6.75l2 6.25 5.5 7.25 11.25 9.75"/>
		<path id="path858" d="m967 386.17 8.25-8 7.75-4 7-2.25"/>
		<path id="path860" d="m981.75 391.92 0.75 6.75 7.75 9.25 4.5 5"/>
		<path id="path862" d="m986.75 392.17 1.25-3.75 6.75-5.25 8-2"/>
		<path id="path864" d="m997.75 394.67 0.5 4.5 3 5.75 7.75 7"/>
		<path id="path866" d="m995 393.17l7.75-3.25 11.5-0.5"/>
		<path id="path868" d="m903 354.67 5 4.75-2 7.75"/>
		<path id="path870" d="m908 359.42c-8 2.5-8 3-8 3l-6-1.5"/>
		<path id="path872" d="m900 362.42-5 5.75-7.75 2"/>
		<path id="path874" d="m895 368.17-3.25 5.75-7 5.25"/>
		<path id="path876" d="m895.5 381.42-15.25 14.25-6.75 6.75"/>
		<path id="path878" d="m889 392.67-0.5-4.5-5.75 1.5"/>
		<path id="path880" d="m893.5 413.92 1 8 2.25 15.25"/>
		<path id="path882" d="m896 430.17c-5.5 1.5-5.25 1.5-5.25 1.5l-8 6-5.5 6.5"/>
		<path id="path884" d="m888 434.42-0.75 7.75"/>
		<path id="path886" d="m869.5 421.67-4.75 16.75-0.25 9-4.75 5.5-8.75 11"/>
		<path id="path888" d="m864.5 447.42 5 4 2.25 8-5.5 3-5.75 6-10.25 15.5"/>
		<path id="path890" d="m855 496.42 9.75-16.5 4.25-3.25 2.25-1.25"/>
		<path id="path892" d="m904.5 428.17 13.75 11 10.75 9.75 14 12.5 13.25 7.75 21 9.5 26.5 15.75 16.25 12.5"/>
		<path id="path894" d="m909.75 474.67 3.75-9 2.5-8.75 6-6 7.5-1.5"/>
		<path id="path896" d="m955.25 429.17-3.25 1.5-6.5 0.25 0.75 3.25 1 6.5-8.75 7.5-3.25 6.25"/>
		<path id="path898" d="m982.25 435.67h-12.5l-11.25 2.75-11.25 2.25"/>
		<path id="path900" d="m946.75 458.17 1.5-5.25s-3.5-1.25 1-6 4.5-4.75 4.5-4.75v-3.25"/>
		<path id="path902" d="m1000.8 454.67-6.25-3.25-7-3.25-17.75 0.25-6.5 2-16.5 7.75"/>
		<path id="path904" d="m935.25 454.42-5.25 2-7.75 11.5-2.5 8.75 0.5 14.75"/>
		<path id="path906" d="m964.75 472.67 7.75-5.5 11-2.5 25.5-2"/>
		<path id="path908" d="m992.25 455.67-1.25 4.25-2.5 4"/>
		<path id="path910" d="m975 452.67 4 6-0.25 7"/>
		<path id="path912" d="m938.75 456.92-3 15 0.75 8.5 3.75 14.5 5.5 8"/>
		<path id="path914" d="m956.25 469.17-1.5 5.5 1.5 10.25 8 14.75 6.75 3.25"/>
		<path id="path916" d="m972.25 493.17c-11.25 0.5-11.5 0.5-11.5 0.5"/>
		<path id="path918" d="m955.25 501.42 5.5-7.75"/>
		<path id="path920" d="m981 504.17 2-5.75-3.75-10.75-2-9"/>
		<path id="path922" d="m988.5 490.17-1.75 3.25 3.5 7.5 8.75 5"/>
		<path id="path924" d="m1015.2 478.92-8.25-1h-14l-9 4.25 0.25 0.75"/>
		<path id="path926" d="m1006 484.92-6.5-1.25-6.5-5.75"/>
		<path id="path928" d="m926.25 472.92 4.5-3 5 2"/>
		<path id="path930" d="m932.75 455.92-2.5 8.75"/>
		<path id="path932" d="m1009.5 578.67l-13-21.75-23.75-24-18.5-18-5.5-6.5"/>
		<path id="path934" d="m1012.2 545.42-9-4-8.5-6h-13s-2.25 4.25-3 3.5-6 8.5-6 8.5l0.25 9.25 3 10.75"/>
		<path id="path936" d="m961.5 562.42 11.5-5.75 7.25-2.5 8.5 3.75"/>
		<path id="path938" d="m959 552.67 12-21.25"/>
		<path id="path940" d="m958.75 535.67 3.25 5 3 1.5"/>
		<path id="path942" d="m1015.5 529.17-16.25-8.25-15.75-4.75-10 2.25-9.25 6.25"/>
		<path id="path944" d="m991.25 532.92-6.5-7-11.25-7.5"/>
		<path id="path946" d="m960.25 520.42-4.5 5.5-4.25 8.75-2.75 9.75 0.25 19"/>
		<path id="path948" d="m934.25 555.92 6.5-6.5 7.5-1.5"/>
		<path id="path950" d="m950.5 537.17-5.5 0.25-5.75-8.25"/>
		<path id="path952" d="m944.25 526.67 4.75-1.5 6.75 0.75"/>
		<path id="path954" d="m929.25 552.42 2-15.75 4.25-1 5.25 3.75"/>
		<path id="path956" d="m931.25 536.67 3-7.75 8.5-20.5"/>
		<path id="path958" d="m923.5 531.17 6.5-6 6-0.25"/>
		<path id="path960" d="m917.25 527.42 3.5-15.25 4.75-10"/>
		<path id="path962" d="m913.75 507.42l3.5-3.25 8.25-2"/>
		<path id="path964" d="m929.25 513.42 6-6.5"/>
		<path id="path966" d="m918.25 543.67-11.75-15.75-0.5-23.75 3.25-9.5 4.75-2.5"/>
		<path id="path968" d="m887.75 521.17-1.75-7 1.25-7.75 4.25-10.25 7.75-8.5 6.25-4"/>
		<path id="path970" d="m880 499.67 1.25-8.75 5-16.75 5-5.5 8.75-4"/>
		<path id="path972" d="m885 464.17s6-1.25 8.25 0.25 2.25 1.25 2.25 1.25"/>
		<path id="path974" d="m891.75 486.17-1.5-3-6.25-2.5"/>
		<path id="path976" d="m894.5 472.92-3.25-4.25"/>
		<path id="path949" d="m320.5 552.67 1.5 11"/>
	</g>
	<g id="BV_T" stroke="#000" stroke-width="1px" fill="none">
		<path id="path979" d="m263.5 176.92 0.75-5.75 7.5-13.5 3.75 0.5 1.75 2.25-7.75 14.25s-0.5 2.5-6 2.25z"/>
		<path id="path981" d="m268.75 147.92v6.75s-2.5 0.25 3 3 6.25-0.75 6.25-0.75l5.5-1 1.75-1.75-3.75-2.5-6-4.25z"/>
		<path id="path983" d="m285.25 154.17 7.5 6.5 4 4.25 16-12.75 17.25-2.25 9-3.75-7.5-6.25-13.25-9.75-3.25-2.25-8-20.5-12.5 0.25-9.75 1.25-9 1.75-4.5-0.5-13.75-8-18.75-0.25 5.75 13 3 8.75-5.25 17.75 1.75 2.75 12.5 2.25 12.25 1.5 6.75-0.5z"/>
	</g>
	<g id="BV_W" stroke="#000" stroke-width="1px" fill="none">
		<path id="path986" d="m281.5 277.42 13.5-0.25 5.5 0.5 8.75-17.25 4-15 9.75-12.75 9-6.25 22.25-11v-1.25l-2.5-2.75-7.5-2.5-10.25 0.25-8.75 4.75 9-5-6.5-3.75-5.75-3.75-6.75 2-12.75 2.75-7.25 4-4.5-5.5-5-3h-14.25l-5.5-0.25-7.25 2-5.75 1.75-3 6.25h10.5-10.5l-9.25-2.25-7-2.25-12.75 1-0.25 2s-0.5 2.25 1.25 3.75l1.75 1.5 6 0.75 13.5 6.75 11.5 10.75 10.25 15.5 4.25 10 6.75 12.25z" stroke="#000" stroke-width="1px" fill="none"/>
	</g>
	<g id="BV_Y" stroke="#000" stroke-width="1px" fill="none">
		<path id="path989" d="m290.25 212.67-2.75 2-0.25 9.5 2.5 2.25 3.5 0.5 2.25-4-0.25-4.25-0.75-4z" stroke="#000" stroke-width="1px" fill="none"/>
	</g>
	<g id="BV_P_X" stroke="#000" stroke-width="1px" fill="none">
		<path id="path992" d="m288.75 228.67-2.5-1-4.75 5.75-0.75 22.25 4.5-0.25 3.25-5z"/>
		<path id="path994" d="m293.25 226.92 6.75 5 1.5 5.25v18.5l-3.25-4-3.5-2.5z"/>
	</g>
	<g id="BV_P_V" stroke="#000" stroke-width="1px" fill="none">
		<path id="path997" d="m266.25 252.42 9.75 18.75 5.5 6.25 19 0.25 8.75-17.25 2.25-8.75 3.25 1-0.75 8.25-5.75 14.5-7 11.5-3.25 8.25-0.75 22h-9.75l-0.25-16.75-2.75-8.75-5.5-6-4-5-4.75-9.25-7.75-18.5z" stroke="#000" stroke-width="1px" fill="none"/>
	</g>
	<g id="STD_AF" stroke="#000" stroke-width="1px" fill="none">
		<path id="path1000" d="m214 415.07-2.75 3.85v2.75l-0.25 3.5 1 2.5 2 4.25 4 5.75 6.75 4.25 5 0.75 4-1.5 4.25-4 2.5-4.5 0.25-8.75-3.95-5.65-7.2-7-1 10.2-3.8-10.2h-2.2l-5.2 3.8z" stroke="#000" stroke-width="1px" fill="none"/>
	</g>
	<g id="STD_AE" stroke="#000" stroke-width="1px" fill="none">
		<path id="path1003" d="m242.2 444.67-1.7 8v6.25l1 6.5 3.75 6 8.5 10.5 7.5 4.5 13.25 3.5 8-0.5 10.5-4.25 9.25-10.5 1.75-12.75-1.25-8-7.95-11.65-0.6 2.2-19.4-13-0.6 5.4 5 9-0.8 3-16.8-17-3.6 0.2-1.4 1.6-4.6 2.2-2.8 5.4-7 3.4"/>
		<path id="path1005" d="m164.4 382.67-4.9 0.25-4 4-6 7.75-2.5 9.5v9l2.25 6.25 7.25 11 9 7.5 8 3.5h12.25l10-5.25 8.25-8.25 2.2-9.85-11.8-22.8-1 1.2v15.6l-1.6 7.6-4.8-11.4 0.6-8.8 1-6h-7.8l-0.8 2-4.4 1.6h-9.8l3.8-4.6 8.4-4z"/>
		<path id="path1007" d="m170.6 353.47-4.35-2.05-5 0.5-4.75 2.5-5.75 6.5-6.25 12.75v6.5l3 7.75 4.5 3.5 7.5-8.5 4.9-0.25 2-1.6 12.6-1.6v-7.8l-7.8-7.2 0.6-1.8 5.2 0.6z"/>
	</g>
	<g id="STD_AH" stroke="#000" stroke-width="1px" fill="none">
		<path id="path1010" d="m351.75 355.42-5.25 1.5-5.5 4-5 3.75-1.75 6.25-4.25 11.75-0.5 14 4.75 9.5 5.25 5.5 4.75 2.25 2.75-10.75-1.75-10.5 0.75-12 2.5-9.5z"/>
		<path id="path1012" d="m370.25 356.92v9.25l2 5.75 2 7.25v10.25l-2.25 9-6.5 7.75-4.75 5.5-0.5 4.25 2.25 2.75 8-2.25 10-7.75 7.25-10.5 2.5-13-1.25-13.75-3-3.5-7.75-9.75z"/>
	</g>
	<g id="BV_L" stroke="#000" stroke-width="1px" fill="none">
		<path id="path1022" d="m292.5 575.42-3.5-10.25-4.25-6.75-7.25-6.25-10.75-2.5-6.75 1.5-4 3.25 0.75 3.75-3.75 3.75v3.25h4.5l11.25 4.75 6.5 5.75z"/>
		<path id="path1024" d="m251.5 557.42-3.25-3.25-11-2.5 5.75 10z"/>
		<path id="path1026" d="m253 565.17-6.25-0.25-5.75 5.25-2.5 6.5 3 8.25 7.25 7 9.75 4.75 34-1-11.75-13.5-5.5-6.5-10.5-7.5-7.25-3z"/>
		<path id="path1028" d="m236 560.67-1.75-3.5-6.5-2.25-2 1.25-3.5 1-5.25 6-0.25 5.75 3.25 0.25 2.75-1.25 7.5 0.75z"/>
		<path id="path1030" d="m216.75 568.92-4.25 6-2 6 7.25-0.5 8.75-6.75 4.75-2-1-3-7.5-0.75-2.75 1.25z"/>
		<path id="path1032" d="m258.5 596.67 5.75 5 4.75 7.75 3.5 10 2.75 6.25-1.25 12 2.75 9.5-12-4.5-11.25-1.5-10.25-3.5-10.5-3-7.75-8.25-5.25-8.25-0.75-8.25 5.5-2.5 4.5-0.75 4-4 4.5-6.75 6.25-1.25 9.5-0.25z"/>
		<path id="path1034" d="m221.5 585.17l-9.5-0.75-8.25 1.25-7.25 6.75-3.75 7.5-2.75 9.25 1 15.5 3.5 6 4.5 9 0.75-10.75 2-1.5 0.5-15.5 7-7.5 4-0.25 3.25-3.5 5-7z"/>
		<path id="path1036" d="m201.75 627.42l2.5 7.5 4.25 7.5 8.25 8.25 9.75 10.5 13.75 7.25 23 11.75 1.75-8 4.75-12 1.75-14.5-6.75-3-11.25-1.5-20.75-6.5-13-16.5-0.75-8.25 1.75-2.5-1.75-2.5-5.75-0.75-4 0.25-7 7.5z"/>
	</g>
	<g id="BV_U" stroke="#000" stroke-width="1px" fill="none">
		<path id="path943" d="m307 568.17-1.5-11.5-15.5-4.5h-12.5l7.25 6.25 3.75-0.75 11.75 3.5z" stroke="#000" stroke-width="1px" fill="none"/>
	</g>
	<g id="BV_Q" stroke="#000" stroke-width="1px" fill="none">
		<path id="path1039" d="m255.5 723.17 9.25-4.75 13.75-3.25 12.75-0.75 16.25-6.5 3.75-2.25 6.5-3 5.25-3 3.5-4.75 1-4.5-1.5-3.75-2.5-1-4.75 2.5-2.75 1-4.25 5.75-1.75 6.25-7.5 4.75-10.5 5-15.75 1.5-13.5 3.75-7.5 5.75z" stroke="#000" stroke-width="1px" fill="none"/>
	</g>
	<g id="BV_O" stroke="#000" stroke-width="1px" fill="none">
		<path id="path1042" d="m208.75 714.92-0.5-11.25-3.25-4-3.5-6.75-2 3.75-5.75-3.25-11.25-2.5 1 4.25 2.5 6.25-13.25-0.25-4.5 5 2.5 0.75h3.75l6.25 0.25-5.25 7.25v3l1.25 2.75 13-8 4.75-0.25 2.5 4.5 8.5-2.25z" stroke="#000" stroke-width="1px" fill="none"/>
	</g>
	<g id="BV_Q_1" stroke="#000" stroke-width="1px" fill="none">
		<path id="path1045" d="m202.75 744.92-6.75-0.25h-6l-3 2-1.5 4.5 0.75 1.25 4.75-3.25 3.75-0.5 5.25-1 3 0.75z" stroke="#000" stroke-width="1px" fill="none"/>
	</g>
	<g id="BV_P_R" stroke="#000" stroke-width="1px" fill="none">
		<path id="path1048" d="m179.5 780.42-1 5.75-4.75 2.75-7.75 3-20.75-1.75-6.75-1.75-5.5-2-2.25-1.75 0.5-2.5 11.75-6.25 3.75-2.75 5.25-0.75 14-2.25 8.25 1.75 4.75 4.75z" stroke="#000" stroke-width="1px" fill="none"/>
	</g>
	<g id="BV_P_S" stroke="#000" stroke-width="1px" fill="none">
		<path id="path1051" d="m176 816.92-0.5 2.5-4.75 4.25-6.5 1.5-14.5-1-6.75-1.75-4.75-1.5 0.75-3 6-3 16-6h8l6.25 3.5z" stroke="#000" stroke-width="1px" fill="none"/>
	</g>
	<g id="BV_N" stroke="#000" stroke-width="1px" fill="none">
		<path id="path1054" d="m256.25 774.92 4.25 5 3.75 6-2.75 1-4.5-6"/>
		<path id="path1056" d="m246.25 777.42-4.5 2-6.5 3.5-4.25 5.5 0.75 1 5.25-4.25 4.5-3.25 6.25-2z"/>
		<path id="path1058" d="m248.75 782.42s-2.5-1.5-6 2.25-3.75 3.75-3.75 3.75l-3 5.75-0.5 4.25-0.75 3.75 1 1.5 2.75-3.75s-1.75-2.75-0.75-4.75l1-2 2.5-3-0.25 5.5 0.5 0.75 1.5-5.5 1-1.75 3.75-2.25"/>
		<path id="path1060" d="m228.5 796.17c-1.25-1-1.25-1.25-1.25-1.25l-7.25-0.5-2.25 1.25 1.25-5.25 3.75 1.75 5.25 0.75 2.5 2.75z"/>
		<path id="path1062" d="m248.75 782.42l-1 4.5"/>
		<path id="path1064" d="m218.25 809.92 2-5.75 1.5-0.5 7.5 10.75 2.75 2.25v-3l-3.5-3.25-1.75-5-3-3.5-0.25-2 4.5 1 5.25 5h8.5l4.75-3.25-2.5-0.75-2-0.5-6.25 2.25-3.5-1.75-5.25-3.25-9.25-3z"/>
		<path id="path1066" d="m252.5 809.17 6.25 2.25 6.75 7.5 4.5 6 1.25 4l0.75-2.5-1-4.25-9.5-11.75-7.5-5z"/>
		<path id="path1068" d="m214 787.42-2.75 0.5-6.25 3.25-0.25 2.5l5-2.5-2.5 4.25-5.5 3-2 7.5 1.5 1 2.75-7.25 7-5.5 3.25 0.25-5.5 4.5-2.25 4.75 3.75-3.25 3.5-3.5z"/>
		<path id="path1070" d="m210.75 813.42-16.25 2.5-2 3.25-6 9v4.5s-4.75 1.25-4.75 3.5v2.25l1.75 1.5 2-4.5 1.75 8.25 1-9.25 1.5-6.75 2.5-2.5 1 6.5 1-9 2-4.5 13.75-2.25-0.5 4.25-5.25 1.5-3.25 7.5 3.5-3.75 7.5-4.5 1.25-11.75z"/>
		<path id="path1072" d="m211.5 824.67-3.75 2.75-1 0.75-1.75 4.75-7 6-5.25 6.75-2.5 8.25h1.5l2.75-7 7-8.5 5.25-3.75h1.25l-4 5.25-2.25 4-0.5 7.25s0 3.75 1.5-0.5l1.5-4.25 1.25-4.25 3.75-5.25 3.75-0.5-1.75 5.75-5 6.75-2.5 7.5s0.5 3.25 2.5-1.5l2-4.75 0.75-2.5 0.75 7 1.5-3.25-0.25-5.75h2.5l1.75 7.25-2.5 5.25-1 9s-9 11.75-6 12 2.75 0.25 2.75 0.25l4.5-0.5v-7.25l4.25-5.75-2.6908-0.721 1.4408-9.529 0.5-7-1-4.25-1.5-2.75 0.75-6.5 0.5-2.5-4.25 1.25z"/>
		<path id="path1074" d="m244.75 837.42-9.5 8.5-8 9-4.75 6.5-2.75 1.5 3.25 5.5 1.75 3-2.5 5 0.25 4 1 0.5 1.5-6.25 3.75-4 1-3.5-1.5-1-2.5 1.5-2.75-4.5 11.25-12.5 2.25-2.5-2.75 9.5-2.75 1.75-1.5 17.75 1.5 1.5 0.75-15.5h1.5l3.75 15.75 1.25 0.5-4-15.25 1.5-8 3-6 1.5 6.75-1.5 8.75-0.5 6.25 5 7.5 1-0.5v-3.75l-3.75-3.75 0.5-6 1.5-6 2.5-4.25v-7.5s-1.5-4.5 1 0 2.5 4.75 2.5 4.75l-3 7.5-2 4.25 5.5-5 0.25 3.25-3.25 6 1.5 0.25 1.5-3 0.25 13.25s0.5 10.5 1.5 0.75l1-9.75 3.5 6.25 0.75-1.25-3.75-10 0.5-6 2.75-2.25 4.5 23.5 2-1.5-3-18 6.5 7.25 1-0.75-11-16.25 7 2 4.75 3.25h1.5l-19.5-19.75z"/>
	</g>
	<g id="BV_P_P" stroke="#000" stroke-width="1px" fill="none">
		<path id="path1077" d="m420 848.17-5.25 1.75-1.25 2.25-6-6-5.25 0.5-5.5 5-0.5 2-5.75 1.5-4.75 2.75-4.5 5s-4.25 0.75-1.75 5l2.5 4.25-3.75 1.75-2.25 2.25-1 5.75 3.5 2.25 4 5.75-3.25 3.75v4.25l10.5 5.25c6.5 3.25 6.75 3.25 6.75 3.25l2.25-1 1.75-3.5 2 0.5 2.5 5.5 9.75-2.5 1.5-4.25 3.5-1 1.25 2 6.5-1 5.5-16s-0.25-2.5 2.25-0.25l2.5 2.25 1.75-0.5 4.75-7.5v-6l-1.25-1.75 1.5-3.25v-5.5l-11-4.75h-7.5l-2-6.5-0.5-7.75 1.5-7 1.75-5.25-2-8.75-1.5-2-2-0.25 1.5 7.25 0.75 6-3 3-0.5 7.25z"/>
		<path id="path1079" d="m421.25 820.42-3.5-0.5h-9.25l-9.25-9.5 13.75-0.5 6.5 6.5 1.75 4"/>
		<path id="path1081" d="m423.5 814.67-0.5-5.75 5-5.5s7.5 0.5 9.5-0.75 2.5-1.5 2.5-1.5l3-0.25v4.75l-3.25 4.75-6 4.25s-3 1.75-10.25 0z"/>
		<path id="path1083" d="m423.5 814.67-0.25 6"/>
	</g>
	<g id="S1" stroke="#000" stroke-width="1px" fill="none">
		<path id="path937" d="m1011.2 240.17-0.25-10-1.5-3.25-7-14.25-5.5-8.75-4.25-11.5-3.5-10-0.5-8.5h2.25l4.5 11 7 15 5 4.25-5-4-12-26.25 1-5.75-5.25-9.75-8-10-8.5-8.75-17.75-9.75-8.5-2.5-6.5-5.5 1-3.5 4-1.25 5.75 0.75 5-2.75 10.75 0.75 2.75 2.5 8.5 2.75-8.75-2.75 0.25-3.75 9.75-7.75 2.5 2.75 27.25 1 8 5.25 5-4.25 7.25-1.75 3.75-4.25 13.25 0.5 2.5-1.5 7.25 0.25 3 3.75 10.25 0.5 4.5 3 0.75 6.25-8.75-0.25-5 2.75 4.75-2.25 11.75-0.5 23.75-4.5 8.25-0.75 4.25 3-0.5 5.75-4 1.5-7.75 2.5-9.25 4-5 2.5-8 6.5-9 11.5-8.5 9.75-2.75 9-1.75 3.75h-2l-4.75 9.75-6.25 10.25-8 10.25 9-10.75 10.25-19.5 2.25 0.25-1.75 9.25-7.5 15.25-11.25 19.25-8 11.5-1 12z"/>
		<path id="path939" d="m1014.2 141.92-2.5 0.5-5 9 0.25 25.5 3-4 3.25-1.75 0.75-1z"/>
		<path id="path941" d="m1021.8 144.42 0.25 21 2.75 2 1.75 6 5 3 0.25-16-1.25-7.5-3.75-11h-3z"/>
	</g>
	<g id="S10" stroke="#000" stroke-width="1px" fill="none">
		<path id="path945" d="m899.88 242.67-3.625-0.125-5.125 9.375-0.875 24.75 0.75 0.625 4.25-4.875 3-1.125 1.375-1.375z"/>
		<path id="path947" d="m907.62 244.29-0.5 20.5 2.25 1.875 2.125 7.25 3 1.75h2.25l0.25-23.5-4.5-7.125-1.25-3.125-2.625 0.125z"/>
	</g>
	<g id="S5" stroke="#000" stroke-width="1px" fill="none">
		<path id="path951" d="m1103.5 402.67-22.25-69-4.5-21.25-31.25-0.5 0.5 5.5 5.75 10.25 8.75 23 3 15.75 12 43z" stroke="#000" stroke-width="1px" fill="none"/>
	</g>
	<g id="S3" stroke="#000" stroke-width="1px" fill="none">
		<path id="path955" d="m1052.2 330.67-13.5-3.75-6-1.75-22.75 0.75-7.5 8 31-0.5 26.25 14.25z" stroke="#000" stroke-width="1px" fill="none"/>
	</g>
	<g id="S2" stroke="#000" stroke-width="1px" fill="none">
		<path id="path959" d="m1055 345.17-10.25 1.5-7.25 6.75-1-14.5 5.75-1.25z"/>
		<path id="path961" d="m1002.5 333.92 7.5-8v-3.25l-1.75-2.25-6.25-0.25-3 3.25-5.75-0.5-6 6.5z"/>
		<path id="path963" d="m1031.2 368.42-8.25-17.5-9.25-9.5-11.25-7.5-15.25-4.5-12.5-1.5-8.25 0.5-6 1.25-4.25 3.25-2.75 6-1.25 4 4.25 4-4.25 4-3.75 4.5-0.5 3.5 7.75-0.75 12.75 3.5 15.75 4.75 12.5 7.25 11-1.5 18-3z"/>
		<path id="path965" d="m1035.5 407.17-13.75-13-16.5-14.25-8.5-6.25-15.5-8.75-21.25-5.5-4.25-1.25-7.75 0.75-6.5 3-9.25 7.25-4.5 8.25-0.25 4 11 1.75-3.75 5.5-4.25 2.25-0.75 9 5.75 6.25 12.75 7.25 7.75 5 24.5 1.5 16.25-4.25 20.5-4.25z"/>
		<path id="path967" d="m940.75 350.92-2.25-7-13.25-2.5-9.25 3.75 6 4.25 5 5.75 6.25 1.25z"/>
		<path id="path969" d="m913.5 356.42-6-6.25-6-2-13.75 15.25-8.75 13.25-6.25 20.5-3.25 8.5 16.5-5 14.5-10.5 7.25-8.25-2.5-7.25-9.75 0.5-20 12.5 19.75-12.5 10.75-0.5 7.5-11.75v-3.75z"/>
		<path id="path971" d="m912.25 400.42-6-3.5-4.75 7-14.5 10.5-6.5 6.5 0.25 1.5 17-0.25 7.5-4.75z"/>
		<path id="path973" d="m901.5 403.92-7-0.5-3-3.25-5.5 0.5-7 8-12.75 9.5-11.25 10-3.25 5.25-1.5 7-2 13.5-2.5 18.25 0.75 15 4.75 10.5 3.5 9.75 6.5 8.75 8 9.5-0.75-24.75 2-19.5 4-20.75-1.5-6.75 0.5-20 4.75-9 2.25-4z"/>
		<path id="path975" d="m874.5 457.92 10.75-7.5 11.5-13.25 8.5-19.75-7.5 4.75-17 0.25-7.25 11.5-0.5 20z"/>
		<path id="path977" d="m1027.5 513.17-3.75-9-3.5-9-1.25-15.5-3.5-11.5-11.5-18.5-12.25-10.25-12-9.25-17.25-6-13.75-0.25-17 4.25-5.5 5.25-1.5 7.5-1.75 2.25-7.5-3.75-5.25 3-2.75 6.5-5.25 12.75 0.25 14.25 7.75 9.25 12.5 12.5 24.25 8.5 27 1.75 29.25 2.25 19.75 2.25z"/>
		<path id="path980" d="m910.25 442.42-4.75-3.25-1-11-4.25 2.25-3.5 6.75-8.5 10.5-13.75 10.25-1.75 13 5.75-7.75 9-10 13.75-0.5 4 0.5 5-10.75"/>
		<path id="path982" d="m1013.2 584.67 1.5-5-3.5-10.75 3.5-16.5 5.25-20.75-2.25-14.25-3.5-6.25-67.25-5-24.25-8.5-20.25-21.75-0.25-14.25 3-8.5h-17.8l-14.75 17.75-1.5 29.25 4.5 9.75 11.25 14.75 13.75 12 17.5 10 10 9.25 14.25 8.75 16 3.5 21.5 3.75 15.5 2.5 9.25 5.5 6.25 5.5z"/>
	</g>
	<g id="S15" stroke="#000" stroke-width="1px" fill="none">
		<path id="path985" d="m1105.8 489.92-2-5-4.75-6.75-3.25-1.25 2.75 7.75v3l0.25 2.5z"/>
		<path id="path987" d="m1098.8 490.17-5.25-7.75-2-4.25-1-2.5-0.25-4.75-2-5.25-1.5 4.5-0.25 2-3.5-8.5-1.75-1.25v7l-3.75-5 1.75 7.75 0.5 3 2 5.25 4.75 2 3.5 7.25 3.5 0.75z"/>
	</g>
	<g id="S6" stroke="#000" stroke-width="1px" fill="none">
		<path id="path990" d="m771.75 651.92-0.25-3.75-1.5-3.25-2.75-3.75-3-1-7.25-2-8.25-6-8.5-3.25-3.5-1.75-18.75 0.5v3.25l17.5-0.5 11.5 4.75 9.75 8.5 1 4.75 3.5 5.5 4.75 2.75 3.25-0.25 2.25-1z" stroke="#000" stroke-width="1px" fill="none"/>
	</g>
	<g id="S13" stroke="#000" stroke-width="1px" fill="none">
		<path id="path993" d="m772.5 686.92-6.5 6.5-2.75 8-1.5 24.5 2.25 4.5 4 8.75 2.75 5.25 6.75 5.5 5.75 2.25 11.75 0.75 6-2.25 9-6.75 3.5-8.75-1.5-14.75-2-9-4.25-7.5-6-6.75-11.5-8-6.25-2z" stroke="#000" stroke-width="1px" fill="none"/>
	</g>
	<g id="S8" stroke="#000" stroke-width="1px" fill="none">
		<path id="path996" d="m761.75 725.92-13 0.5-8.25 2.25-15.75 14.5-3.25 6.25 0.5 15.25 4.75 12.5 6 13 8.5 12.25 7 11.75 6.25 4.25 13-0.5 2.25-4 7-9.75 8.5-15.25 3.75-8.75-0.5-13.25-2.75-9.5-2.5-5.25-7.75-3.75-4.75-4z" stroke="#000" stroke-width="1px" fill="none"/>
	</g>
	<g id="S7" stroke="#000" stroke-width="1px" fill="none">
		<path id="path999" d="m646.75 682.42 2.25 7.25 1.5 9.5-2.75 4-5.75 7-5 4.5-6.5 3.5-6.25-0.25-8.25-6.25-0.75-5.75 0.25-19 3.5-5 9.75-8.25 10-0.25 6.25 6.5z" stroke="#000" stroke-width="1px" fill="none"/>
	</g>
	<g id="S9" stroke="#000" stroke-width="1px" fill="none">
		<path id="path1002" d="m673 759.67 3.5 5.75 2.5 10.25 2.5 7.25 2.25 11.5v5.5l-3.75 8-2.75 3.5 1.25 2 11 9.5 6.75 4 8 1.5 9.5 3.5-6.75-1-7.25-1.5 2.75 7.75v1.75l-2.75-2.5-3.5-7-4.5-2.5-10.5-8.25-5-5-1.5 3v15.25s6.5 1.75 6.5 2.75-1 2.5-1 2.5l-4.75-3.25-2.25 2.5-0.25-2.5 0.25-19.5 1.25-4.25-4.5-9.75-2.25-13.5 2.75-4 0.75 10.25 2.75 10.75 2 5 4.75-11-0.5-3.25-2.25-14.25-3.25-7-1.75-7.25-2-1.5z"/>
		<path id="path1004" d="m673 759.67-2 5-0.5 18.25-2.75 4-2.75 4.75-4 8-5 9.25-3.75 5.75-1 5.5-1.5 4.5v6.5l6.75 4 0.75 2.75-7.5-4.5-1.5 5-1.25 0.5 1.25-10-0.5-6.5 1.75-5h-2.75l-8.75 6.25-1.25 8 1.75 2.5v5.5l-0.5 0.25-1.25-4.75h-2l-5.25 4 1.75-5 3.75-1.5 0.25-8 6.25-5.75-5.25 1.5-8.25 1.75-2.25 2.75-1.75-1.25 8.75-6.25 9.75-0.25 7.5-1.75 3.75-9 7.25-12.75 5.25-11.25 1.5-10.75-0.25-8.25z"/>
	</g>
	<g id="S4" stroke="#000" stroke-width="1px" fill="none">
		<path id="path1008" d="m1070 750.67 0.5-6.5 10.5-7 8-9 2-6.5-2.25-9.25-1.75-3.25-8-7.5-7 0.5-7.5 7.5 2 13.5-6.5-4.5-10.5-4-15-0.5-11 3-8 5-3.5-6h-4.5l-5.5 5-2 6 1 4 5.5 7-0.5 14.5z" stroke="#000" stroke-width="1px" fill="none"/>
	</g>
	<g id="S16" stroke="#000" stroke-width="1px" fill="none">
		<path id="path1011" d="m1079.8 761.92-7.5 1-9.25 3.75-10.5 7.75-6.75 14.75-5.5 26.5-0.75 27 3.25 17.75 6.75 8.5 7.25 4.5 19.75-0.25 10.5-2.25 10-12.75 8.25-22.5 1.5-25.75v-27.25l-4.5-7.5-7.75-7.5z"/>
	</g>
	<g id="S12" stroke="#000" stroke-width="1px" fill="none">
		<path id="path1025" d="m1077.2 765.67-14 8.25-9.5 8.75-6.25 15.75-1 14.25v34.5l0.25 8.75 7 9.5 7.25 3.75 14 1.25 10.75-4.25 9-11.5 6.5-19 1.5-31.5-0.25-18-4-10.75-14.25-8.25z"/>
	</g>
	<g id="S14" stroke="#000" stroke-width="1px" fill="none">
		<path id="path1029" d="m917.5 774.92c4.5 0.75 4.5 0.75 4.5 0.75l-2.5 3.25-19.25-0.25-5 2.75 2 1 4-1.75 6-0.25 7 6.5-2.75 2.25-7.75 2.5-7.5 0.25-1.75-4.5 1.75-3.5-2.75-1.5-6 6.75-5.75 11.5 0.25 7 1.75-5 4.75-4.75 8.5-0.75-2.5 5.5-2.5 7-3.5 3.5-4.5 0.25-2.25-2.75-3.25 6.75 0.5 10.75-0.75 7.75 1.75 4 2.25-2.75-0.75-4.5 2.75-3.75 5.25-1.75 6-1.75 1 10-3 4.25-3.75 2.75-5.75-1-1-1.5-2.5 1.5 1.25 5 2.75 8.5 2 2.75-3-0.25-3.75-8.5-3-11-0.5-6.5-4-3.25-2 2.5-5.25 1.25-4.5-1-6.25-3.75 6.75-3.75 1.5-2.5h4.5l4.75 3.5 1.5 2.75 2.75 1.5-0.25-13 1.5-6.5 0.75-6.5-2-2-2.25 1.75h-2.25l-4.75-0.75-5.25-6.5-2.5-5.75 11-0.5 4.5-0.25 3.25 5 0.5 3.75-0.5 2.25 2 2.5 1.5-7.25 4.5-8.25 5.5-5-0.5-1-4.25 0.25-4.5-2.5 0.25-16.5 10 3.25 4 4.5v5.5l-2.5 4 7-3 10 0.75 0.25-2.5 7.25-5.25z"/>
		<path id="path1031" d="m886.5 857.67 3.25 5 6-3.5 10-0.5v1.5l-9.25 0.5v1.75l7 1.25 9-4.75 11.75-1.75 12 0.25 1 2-7.25 1-12.5-0.75-3 2.75 7.5 2.25 0.75 2-8.25-0.5-3.75-2.75-5.5 3.25 2.25 2 9.25 0.75 1.5 2-5.75-0.75-0.5 3.25-2.75 0.5-2-4-3.25-1.25-6.25 2.75-2.25 0.5 1.25 2.5 6.75 5.5 6.25 0.75 8.75-2.5-0.75 3.25-7.5 1.25 9 3.75-0.5 1-4.5-0.75-0.75 5.75-2.75-0.5-0.75-5-7-3-3-3.5 0.75 4 2.5 6 3 3.5 4.5 3.25-4.75-1-2.75 4.75-1.25-5.5-1-7.25-2.25 8.75-6.5 4 3-5.75 2-7.75-0.25-7.75-2-1.5-2 4 2 7.75-2.25 3.5-2-7.25-2.5 6.5h-2.75l1.75-6.75 3-5.5 1-5.25 0.25-5.5-5-7.5-3-5.25z"/>
		<path id="path1033" d="m887.5 865.29-1.5 1.875-5 1.625-3.125-1.625-5.375-1.375-3.375 1.5-4.625 5.875-7.875 0.625h-4.12l-6.5 6.875-0.5 3.25 1.75 0.375 6.25-8 4.875 0.25-1.75 2.875-3.625 2.25 0.5 3.125 2.25 1 0.625-3.375 4.625-4.5 0.625-2.375 4 0.125v3l-2.875 4 0.5 5.25 1.875 0.125 0.375-5 3.875-6.625 7.375-5 0.125 2.25 2.375 3.875 3.25-0.25-2.125-3.75-0.125-2.25 4.75 0.25 4.25-4.625z"/>
		<path id="path1035" d="m884.75 861.04-7.75-0.25s-1.75 1.375 0.5 2l2.25 0.625 0.25 1.875h-4.125l-4.125-3-1 1-3.125 3.5-2 1-2.375-0.75-2.875-1.25-1.375 2-5.125 4.125-3.5 1.125 3.75-3.5 3.625-2.875-0.625-1.25-3.5 0.25-5 4.125-0.875-2.25 5.625-3.625-0.125-3.25 1.75-1.75 0.25 4.375 4.25 0.125-0.625-5.125 2.625-0.875 2.25 6.125 4.125-0.5 4.25-3.125 5.5-1.625 5.875-0.875z"/>
	</g>
	<g id="layer33" font-family="Sans" fill="#000000">
		<g font-size="40px">
			<text id="text882" style="word-spacing:0px;letter-spacing:0px" xml:space="preserve" line-height="125%" y="51.666687" x="16"><tspan id="tspan880" font-size="14.667px" line-height="0%" y="51.666687" x="16">Double monoploid Solanum tuberosum Group Phureja clone DM1-3516R44</tspan></text>
			<text id="text886" style="word-spacing:0px;letter-spacing:0px" xml:space="preserve" line-height="125%" y="50.666687" x="592.75"><tspan id="tspan884" font-size="14.667px" line-height="0%" y="50.666687" x="592.75">Heterozygous diploid Solanum tuberosum Group Tuberosum RH89-039-16</tspan></text>
			<text id="text890" style="word-spacing:0px;letter-spacing:0px" xml:space="preserve" line-height="125%" y="177.66669" x="17"><tspan id="tspan888" font-size="10.667px" line-height="0%" y="177.66669" x="17">Whole mature flower</tspan></text>
			<text id="text894" style="word-spacing:0px;letter-spacing:0px" xml:space="preserve" line-height="125%" y="196.66669" x="101"><tspan id="tspan892" font-size="10.667px" line-height="0%" y="196.66669" x="101">Petals</tspan></text>
			<text id="text898" style="word-spacing:0px;letter-spacing:0px" xml:space="preserve" line-height="125%" y="218.66669" x="90"><tspan id="tspan896" font-size="10.667px" line-height="0%" y="218.66669" x="90">Carpels</tspan></text>
			<text id="text902" style="word-spacing:0px;letter-spacing:0px" xml:space="preserve" line-height="125%" y="240.66669" x="85"><tspan id="tspan900" font-size="10.667px" line-height="0%" y="240.66669" x="85">Stamens</tspan></text>
			<text id="text906" style="word-spacing:0px;letter-spacing:0px" xml:space="preserve" line-height="125%" y="265.66669" x="97"><tspan id="tspan904" font-size="10.667px" line-height="0%" y="265.66669" x="97">Sepals</tspan></text>
			<text id="text910" style="word-spacing:0px;letter-spacing:0px" xml:space="preserve" line-height="125%" y="454.66669" x="19"><tspan id="tspan908" font-size="10.667px" line-height="0%" y="454.66669" x="19">Immature whole fruit</tspan></text>
			<text id="text914" style="word-spacing:0px;letter-spacing:0px" xml:space="preserve" line-height="125%" y="478.66669" x="34"><tspan id="tspan912" font-size="10.667px" line-height="0%" y="478.66669" x="34">Mature whole fruit</tspan></text>
		</g>
		<g font-size="10.667px">
			<text id="text918" style="word-spacing:0px;letter-spacing:0px" xml:space="preserve" line-height="100%" y="507.66669" x="18"><tspan id="tspan916" x="18" y="507.66669">Inside of fruit </tspan><tspan id="tspan920" x="18" y="518.33337">(mesocarp/endocarp)</tspan></text>
			<text id="text953" style="word-spacing:0px;letter-spacing:0px" xml:space="preserve" line-height="0%" y="539.66669" x="95"><tspan id="tspan951" x="95" y="539.66669">Petiole</tspan></text>
			<text id="text957" style="word-spacing:0px;letter-spacing:0px" xml:space="preserve" line-height="0%" y="564.66669" x="108"><tspan id="tspan955" x="108" y="564.66669">Leaf</tspan></text>
			<text id="text961" style="word-spacing:0px;letter-spacing:0px" xml:space="preserve" line-height="0%" y="682.66669" x="13"><tspan id="tspan959" x="13" y="682.66669">Stolon (above ground)</tspan></text>
			<text id="text965" style="word-spacing:0px;letter-spacing:0px" xml:space="preserve" line-height="0%" y="706.66669" x="95"><tspan id="tspan963" x="95" y="706.66669">Shoots</tspan></text>
			<text id="text969" style="word-spacing:0px;letter-spacing:0px" xml:space="preserve" line-height="0%" y="724.66669" x="13"><tspan id="tspan967" x="13" y="724.66669">Stolon (below ground)</tspan></text>
			<text id="text973" style="word-spacing:0px;letter-spacing:0px" xml:space="preserve" line-height="0%" y="748.66669" x="94"><tspan id="tspan971" x="94" y="748.66669">Tubers</tspan></text>
			<text id="text977" style="word-spacing:0px;letter-spacing:0px" xml:space="preserve" line-height="0%" y="832.66669" x="96"><tspan id="tspan975" x="96" y="832.66669">Tubers</tspan></text>
			<text id="text981" style="word-spacing:0px;letter-spacing:0px" xml:space="preserve" line-height="0%" y="852.66669" x="99"><tspan id="tspan979" x="99" y="852.66669">Roots</tspan></text>
			<text id="text985" style="word-spacing:0px;letter-spacing:0px" xml:space="preserve" line-height="0%" y="906.66669" x="100"><tspan id="tspan983" x="100" y="906.66669">Callus</tspan></text>
			<text id="text989" style="word-spacing:0px;letter-spacing:0px" xml:space="preserve" line-height="0%" y="729.66669" x="577"><tspan id="tspan987" x="577" y="729.66669">Young tuber</tspan></text>
			<text id="text993" style="word-spacing:0px;letter-spacing:0px" xml:space="preserve" line-height="0%" y="865.66669" x="655"><tspan id="tspan991" x="655" y="865.66669">Root</tspan></text>
			<text id="text997" style="word-spacing:0px;letter-spacing:0px" xml:space="preserve" line-height="100%" y="814.66669" x="779"><tspan id="tspan995" x="779" y="814.66669">Mature </tspan><tspan id="tspan999" x="779" y="825.33337">tuber</tspan></text>
			<text id="text1003" style="word-spacing:0px;letter-spacing:0px" xml:space="preserve" line-height="0%" y="156.66669" x="1126"><tspan id="tspan1001" x="1126" y="156.66669">Flower</tspan></text>
			<text id="text1007" style="word-spacing:0px;letter-spacing:0px" xml:space="preserve" line-height="0%" y="253.66669" x="1127"><tspan id="tspan1005" x="1127" y="253.66669">Stamens</tspan></text>
			<text id="text1011" style="word-spacing:0px;letter-spacing:0px" xml:space="preserve" line-height="0%" y="334.66669" x="1129"><tspan id="tspan1009" x="1129" y="334.66669">Petiole</tspan></text>
			<text id="text1015" style="word-spacing:0px;letter-spacing:0px" xml:space="preserve" line-height="0%" y="377.66669" x="1126"><tspan id="tspan1013" x="1126" y="377.66669">Stem</tspan></text>
			<text id="text1019" style="word-spacing:0px;letter-spacing:0px" xml:space="preserve" line-height="0%" y="413.41669" x="1126.75"><tspan id="tspan1017" x="1126.75" y="413.41669">Leaf</tspan></text>
			<text id="text1023" style="word-spacing:0px;letter-spacing:0px" xml:space="preserve" line-height="0%" y="477.66669" x="1106"><tspan id="tspan1021" x="1106" y="477.66669">Tuber sprout</tspan></text>
			<text id="text1027" style="word-spacing:0px;letter-spacing:0px" xml:space="preserve" line-height="0%" y="639.66669" x="1127"><tspan id="tspan1025" x="1127" y="639.66669">Stolon</tspan></text>
			<text id="text1031" style="word-spacing:0px;letter-spacing:0px" xml:space="preserve" line-height="0%" y="693.66669" x="1125"><tspan id="tspan1029" x="1125" y="693.66669">Tuber peel</tspan></text>
			<text id="text1035" style="word-spacing:0px;letter-spacing:0px" xml:space="preserve" line-height="0%" y="716.66669" x="1124"><tspan id="tspan1033" x="1124" y="716.66669">Shoot apex</tspan></text>
			<text id="text1039" style="word-spacing:0px;letter-spacing:0px" xml:space="preserve" line-height="0%" y="773.16669" x="1124"><tspan id="tspan1037" x="1124" y="773.16669">Tuber cortex</tspan></text>
			<text id="text1043" style="word-spacing:0px;letter-spacing:0px" xml:space="preserve" line-height="0%" y="786.16669" x="1124"><tspan id="tspan1041" x="1124" y="786.16669">Tuber pith</tspan></text>
			<text id="text1047" style="word-spacing:0px;letter-spacing:0px" xml:space="preserve" line-height="0%" y="878.66669" x="1127"><tspan id="tspan1045" x="1127" y="878.66669">Whol<tspan id="tspan1053" line-height="100%">e</tspan></tspan><tspan id="tspan1049" y="889.33337" x="1127" line-height="100%">in-vitro</tspan><tspan id="tspan1051" y="900" x="1127" line-height="100%">plant</tspan></text>
		</g>
		<path id="path1018" fill="#FFFFFF" d="m1098 781.42-10 7.75-6.5 8.25-5 37 2.25 3 18.25-4.75z"/>
		<path id="path1013" fill="#FFFFFF" d="m1078 771.42-3 0.25-15 10.5-5.5 7.25-3 8.75 19 9.25 4-8.25 1.75-16.75z"/>
		<path id="path1016" fill="#FFFFFF" d="m1083.2 769.92-1.5 14.5 2.5 2 10.5-5.25 1-4.75z"/>
		<path id="path1020" fill="#FFFFFF" d="m1050 802.17v53.5l9.75 9.25 4 1.25 6-39.5-0.5-12.25z"/>
		<path id="path1023" fill="#FFFFFF" d="m1097.2 836.67-19.25 7.5-3.5 9.5-1.75 2.75-0.5 9.75 10.75-1.5z"/>
	</g>
	<g id="labels" stroke="#000" stroke-width="1px" fill="none">
		<path id="path89" d="m289.75 226.42-1 2.25-0.25 21.75-1.25 2.5-2 2.5-4.5 0.25-1.5 2-0.75 7 1 2.5 1.25 3.75 2.5 4.25h2.25s-7.75 1.75 1.25 2.25 8.25-0.25 8.25-0.25l4-4.5 2.25-2.5 1-3.5 0.25-6.25-1-4.75-1.5-2-1.75-2-3-2-0.5-0.5-1.5-22.25z"/>
		<path id="path91" d="m51.2 317.67-8.8 0.8-6.2 2.6-5.8 3-4 2.8-3.8 4.4-4 4.6-2.4 4.8-0.8 4-2 5.8-0.8 8.4-0.4 8.4 1.6 8 2.4 5.6 5 8.8 5.8 5.4 7.2 4.4 6.8 3.6 9.8 1.4h7l10.8-3.8 7.2-4.6 4.6-5 3.8-5.6 3-7.2 1.6-8.2 0.8-8.4-0.4-9.6-2-6.6-4-8-5.6-7.6-7.2-5.8-9-3.8z"/>
		<path id="path93" d="m50.8 323.67-6 1-8.4 1.4-5.2 3.6-4.4 3.2-3 3.4-3.6 5.2-0.8 1.4-2.2 8.4-1.2 5.6 0.4 5.2 0.8 6.2 1.6 6.8 2.4 5.6 2.4 4.2 3.6 5.2 4.6 3.2 5.2 3 6.6 1.6 6.6 0.6h6.2l8.2-1.8 5.6-3 6.4-5.8 4.4-7.2 2-5.8 2.2-8.2 0.8-8.2-1.4-6.6-3.2-9-3.8-6.4-6-6.4-7.8-4.2-6.2-1.8z"/>
		<path id="path95" d="m51.6 344.27 0.2-4-0.4-4-2-3.6-1.8-3-1.6-0.2-3.4-0.2-4 1.2-3.4 2-4.8 3.6-4 3.6-2.6 6.6-1.6 5.8-0.6 5.6 0.2 9.2 1 5.8 2.6 6.4 3.4 4.4 3.2 3.8 3.6 3.4s4.2 3.2 7 3.2 3.4-0.8 3.4-0.8l3.4-3.2v-2.4l-0.4-5.2-0.8-2.8-4.4-4.4-0.6-2.4v-5.2l2.2-2.6 2.6-2v-1.4l-0.4-2.4-0.8-0.8-0.8-2.4v-2l1.6-1.8 2-1.2z"/>
		<path id="path97" d="m58 330.67-2.8 2.2-1.6 3-0.2 3.2 1 3.8 2.6 2.2 1.2 2.2-0.2 3-1 3.4-2-2.6-1.6-4.8-1.8-2"/>
		<path id="path99" d="m43.8 375.07 1.6-2.2 2.4-1.2 1.4 2.8 2 2.8 2-1.2 0.8-4.4 1.4-0.8 2 0.2 0.6 4.2 1.2-2.4 1-4.8-2.6-2.2-2.2-1.6-1.2-1.4v-3.4l0.8-1.4 1.6-1.8 0.4-2.6"/>
		<path id="path101" d="m51.2 377.27-0.2 4.8 0.6 5.8 0.2 2.2 1.2 2.2 1.8 1h3.4l4-0.8 6.8-2.8 4.8-4.6 3.6-6.4 3-5.2 0.2-3.2 1.2-6.4-0.4-5.4-1.2-7.6-2.2-8.2-3.8-4.4-5.6-4.4-4.6-3-6-0.2"/>
		<path id="path103" d="m48.8 340.87-2.4 1.2-1.8 1.4v1.6l0.6 1.8 2-0.4 1.8-1.2 0.8-2.4z"/>
		<path id="path105" d="m48.8 332.87-1.8 1.2-1.6 1.8v3.2h3.4l2.6-2.8"/>
		<path id="path107" d="m38.6 330.47l0.8 4.8 1.2 1 1.4 0.6 0.8-3-0.2-4.6"/>
		<path id="path109" d="m35.2 332.47 3 4.6v2.6l-1.2 1-4.2-4.4-2.4-0.2"/>
		<path id="path111" d="m26.4 339.67 2 4 3.2 1.2 2.6-0.2v-1.6l-3.6-4.6-0.2-2.4"/>
		<path id="path113" d="m23.8 346.27 4.2 0.6 1.6 0.6 0.8 2-0.6 1.8h-2.6l-2.8 1.4-2.2-0.6"/>
		<path id="path115" d="m21.6 357.67 5-0.2 1.6-1v-2l-6-2.4"/>
		<path id="path117" d="m22 360.47 4.2-0.6h2.4l0.6 0.6 1 1.4v1l-1.2 1-2 0.6h-5.6"/>
		<path id="path119" d="m21.8 366.87 3.8 0.2 2.6-0.2 1.4 0.6 0.8 1v1.2l-3.8 1.6-3.8 1.4"/>
		<path id="path121" d="m24.4 376.67 3.4-2.2 2-1.6 1.2-0.4 2 1.2-0.4 2-1.4 2.4-3.4 3.4"/>
		<path id="path123" d="m29.2 384.07 2.2-2.8 2.6-2.6h1.6l1 1.4-0.4 2.8-0.2 5-0.4 2.8"/>
		<path id="path125" d="m38 391.67 1.4-5 0.6-0.8 0.4-1 2.6 0.4 1.6 2.2 1.4 5.6"/>
		<path id="path127" d="m54.8 393.27 0.2-5.8 0.6-1.8 2.4-2.6 1 0.8v2.6l-0.6 2.4-0.2 4.4"/>
		<path id="path129" d="m62.2 392.47 0.2-3.4-0.6-1.2-1-3 0.4-2 1.4-0.2 0.8 1.6 0.2 2 2.6 4.4"/>
		<path id="path131" d="m69 389.67-2-3.6-1.2-2.8-0.8-2.4v-1.6l1.8 1.4 1 3.2 1.6 3.6 1 0.2"/>
		<path id="path133" d="m73.8 385.07-2.8-4.4-1.8-2.8v-2.2l3.4 2.4 1 2.4 0.2 4.6"/>
		<path id="path135" d="m78.4 375.87-3.4-1.2-2-1.2-1.6-1.8v-1h1.2l2 0.8z"/>
		<path id="path137" d="m80.6 368.07-3.8-1h-2.4l-1.8-1-1.6-1.6 2.6-0.6 3.8 0.2 4.4-0.2"/>
		<path id="path139" d="m81.4 358.47-3 2-3 0.4-2.2-1-0.4-0.8 0.4-0.8 2.6-1.4 5.4-0.4"/>
		<path id="path141" d="m80.2 350.87-2.4 2-3.6 0.6-2.4 0.6-0.2-2 2.4-2.8 4.4-1.4h1.4"/>
		<path id="path143" d="m78 342.67-3.2 2.6-3 2.4-3 2.4 2.2-3.8 1.4-2 3.2-4"/>
		<path id="path145" d="m70.6 334.87-1.8 3.4-0.6 2.2-0.6 4.2 3.6-2.4 3-4"/>
		<path id="path147" d="m64 330.87-0.8 4.2-0.2 3.8 0.4 3.6 2.2-3.4 1.2-3.6 0.2-3"/>
		<path id="path149" d="m60.2 331.47 0.2 4.6-0.2 3.6-1.8 1.2-1-4-2.2-4"/>
		<path id="path151" d="m154.6 282.27 4.4 3.4 5.6 4.2 6.2 5.6 4 5.8 0.8 2.6-0.4 4-0.8 3.6-12 15.2-7.8 10.2-4 6.8-3.8 8.6-10 14.6-5.2 8.2-7 8.6"/>
		<path id="path153" d="m135 389.87 11.8-21.4 6.4-12.4 3-8 6.4-10 7-8.4 8.2-6.2 4.2-2.2h2.8l3.2 1 4 4.8 5.8 11 4.2 5.4 0.2 4.4-3.4 4.2-5.4 4.8-5.4 4.6-3 2-1.6-1.8-3.6-2.6-3.6-3-3.4-1.8-2.2-0.8-0.4 1 5.2 5.6 1.6 3.2-3.6-1-1.6 0.4-0.6 1.8 6 5.2 1.8 2 0.6 6-0.6 1.8-4.6 0.8-8 0.8-2 1.6 3.6 1.6 6 2 4 2.2-2.2 1.8-6.2 2.2-2.8 2.8-1 1.8h9.8l4.4-1.6 0.8-2 3.6-0.4 4.2 0.4v4.2l-1 1.8-0.6 8.8 2.6 7.6 2.2 3.8 1.6-7.6v-15.6l1-1.2 9.6 19.4 2.2 3.4-1-11.4-0.8-6-1.6-5.8-2.2-5 1.4-3 6-8.4 4-5.4 2.4 6.2 4.6 6.6 2.2 5.4 0.8 9.4-1.2 7.2-4.6 3.8-2.2 3.4h3.4l5.2-3.8h2.2l3.8 10.2 1-10.2 3.6 2.8 3.6 4.2-1-5.2-4-5-2.2-3.6-1.8-9.2-2.2-9.2-4-6-0.8-2.8 0.2-1.4 1.2-1.2 4.2 2.6 8.8 6 15.4 9.6 4 2.4"/>
		<path id="path155" d="m179 379.47 6.4 0.8 0.2-1.4 0.8-4.6 0.4-6.2 3.4-2.2 8.8-6.2 5.8-6.8 3.8 7 0.8 4.8-0.4 4.4-2 5.2-3 4.6-3.8 3.8-6.4 2-2.4-1.6-2-2.4-0.2-4.8-2.8-4.6"/>
		<path id="path157" d="m263.8 400.27 17.2 9.2"/>
		<path id="path159" d="m283.8 404.87-22-12"/>
		<path id="path161" d="m252.6 388.07-33.2-21.8-3.2-3.6-5.6-10.4-10.2-21.4-3.6-7-4.6-4.8 12.4 11.2 15.8 16.2 13.2 13.2 12 12.2 4.4 7 1.4 5z"/>
		<path id="path163" d="m156 278.07 7.4 3-2.4-10.2"/>
		<path id="path165" d="m165 270.07 3.6 10 4.4 7.4 4 4 3.6 5.4 0.8 4 1.4 3.4 12.8-16.2"/>
		<path id="path167" d="m200 289.87-10.2 14.4-2 3.8v2.2l3.8 1.6 8.2 7.4 8.8 6.8 9.8 9.4 8.2 10.8 4.2 4.4 7.2 6.8 7.2 7.8 7.6 9.2 4.4 7.4 2.8 7.8 1.8 3.2 2 7.4 1.2 8.4 0.2 4.8 0.6 1.8 1.8 3.6 2 2.6 7.8 6 11 8 6.4 6.8-0.6 2.2-1.6-0.2-2.4-1.6-3-2.8-4.4-3.4-3.8-2.6-2.2-1.8-2-0.6-1 2.2 0.4 3.2 3.4 5.6 1.6 3.4-0.8 3-2.8-3-14-14h-1.6l-2 0.2-1.4 1.6-1.8 0.6-2.8 1.6-1.6 2-1.2 3.4-7 3.4 0.4-4.2 7.6-9.2 5.6-8.8 3.8-6.2-0.4-3.8-0.2-1.6-2.2-6.4-0.4-4.2-1.8-5"/>
		<path id="path169" d="m252.6 388.07 2 7.2"/>
	</g>
</svg>
