<?xml version="1.0" encoding="utf-8"?>
<!-- Generator: Adobe Illustrator 16.0.0, SVG Export Plug-In . SVG Version: 6.00 Build 0)  -->
<!DOCTYPE svg PUBLIC "-//W3C//DTD SVG 1.1//EN" "http://www.w3.org/Graphics/SVG/1.1/DTD/svg11.dtd">
<svg version="1.1" id="Layer_1" xmlns="http://www.w3.org/2000/svg" xmlns:xlink="http://www.w3.org/1999/xlink" x="0px" y="0px"
	 width="612px" height="792px" viewBox="0 0 612 792" enable-background="new 0 0 612 792" xml:space="preserve">
<image display="none" overflow="visible" enable-background="new    " width="800" height="599" xlink:href="ricestigma_mas_image.png"  transform="matrix(0.765 0 0 0.765 0 166.8823)">
</image>
<g id="Suspension_Cell">
	<path fill="none" stroke="#010101" stroke-width="0.5" stroke-miterlimit="10" d="M254.103,338.233
		c1.071-1.224,3.061-1.301,4.284-0.153c1.301,1.148,1.377,3.213,0.383,4.284c-1.224,1.377-3.825,0.995-4.819-0.535
		C253.262,340.758,253.185,339.228,254.103,338.233z"/>
	<path fill="none" stroke="#010101" stroke-width="0.5" stroke-miterlimit="10" d="M272.616,338.004
		c1.301-0.918,2.983-0.765,4.131,0.153c1.683,1.377,1.453,4.131,0.153,5.202c-1.684,1.377-5.202,0.229-5.738-1.989
		C270.856,340.222,271.469,338.845,272.616,338.004z"/>
	<path fill="none" stroke="#010101" stroke-width="0.5" stroke-miterlimit="10" d="M294.036,337.162
		c1.224-0.765,2.907-0.765,4.131,0c2.065,1.301,2.524,4.743,0.688,6.503c-1.836,1.759-5.278,1.224-6.503-1.071
		C291.435,340.681,292.2,338.233,294.036,337.162z"/>
	<path fill="none" stroke="#010101" stroke-width="0.5" stroke-miterlimit="10" d="M261.447,347.719
		c1.529-1.759,4.973-1.683,6.502,0.382c1.225,1.683,1.071,4.284-0.535,5.585c-1.912,1.606-5.126,0.688-6.273-1.454
		C260.376,350.856,260.376,348.943,261.447,347.719z"/>
	<path fill="none" stroke="#010101" stroke-width="0.5" stroke-miterlimit="10" d="M282.102,347.184
		c1.684-2.065,5.355-2.295,7.191-0.153s0.994,5.967-1.606,7.191c-2.371,1.071-5.355-0.153-6.273-2.524
		C280.802,350.167,281.107,348.408,282.102,347.184z"/>
	<path fill="none" stroke="#010101" stroke-width="0.5" stroke-miterlimit="10" d="M248.671,357.435
		c1.454-0.918,3.519-0.765,4.82,0.153c2.524,1.836,2.678,6.655,0.152,8.262c-1.683,1.071-4.513,0.536-5.966-1.224
		C245.994,362.484,246.453,358.888,248.671,357.435z"/>
	<path fill="none" stroke="#010101" stroke-width="0.5" stroke-miterlimit="10" d="M272.08,360.189
		c1.53-1.454,3.902-1.301,5.432-0.153c1.989,1.607,2.143,5.049,0.153,6.656c-1.683,1.377-4.514,0.995-5.967-0.918
		C270.474,364.09,270.474,361.643,272.08,360.189z"/>
	<path fill="none" stroke="#010101" stroke-width="0.5" stroke-miterlimit="10" d="M290.44,360.189
		c1.53-2.219,5.737-2.754,7.727-0.383c1.76,2.066,1.377,5.738-1.071,7.191c-2.447,1.454-5.737-0.153-6.809-2.524
		C289.676,363.249,289.522,361.489,290.44,360.189z"/>
	<path fill="none" stroke="#010101" stroke-width="0.5" stroke-miterlimit="10" d="M306.735,358.506
		c1.529-1.989,4.36-2.372,6.272-1.224c2.678,1.606,3.137,5.891,0.918,7.879c-1.912,1.683-5.278,1.377-7.038-0.688
		C305.664,362.866,305.435,360.342,306.735,358.506z"/>
	<path fill="none" stroke="#010101" stroke-width="0.5" stroke-miterlimit="10" d="M303.522,374.035
		c1.453-1.836,4.054-2.295,5.737-1.453c3.06,1.53,3.137,7.573,0.535,9.18c-1.836,1.147-5.278,0.153-6.655-2.372
		C302.374,377.86,302.222,375.642,303.522,374.035z"/>
	<path fill="none" stroke="#010101" stroke-width="0.5" stroke-miterlimit="10" d="M283.938,372.735
		c1.988-1.836,5.431-1.53,7.19,0.536c2.065,2.448,1.224,6.655-1.453,7.879c-2.524,1.224-5.891-0.612-6.809-3.213
		C282.255,376.33,282.484,374.112,283.938,372.735z"/>
	<path fill="none" stroke="#010101" stroke-width="0.5" stroke-miterlimit="10" d="M292.2,384.21
		c1.836-1.377,4.514-0.995,5.967,0.535c1.912,1.989,1.453,5.661-0.918,7.038c-2.295,1.301-5.661-0.153-6.503-2.677
		C290.211,387.5,290.67,385.434,292.2,384.21z"/>
	<path fill="none" stroke="#010101" stroke-width="0.5" stroke-miterlimit="10" d="M264.89,382.45
		c1.836-1.071,4.131-0.229,5.432,0.918c0.152,0.077,2.524,2.295,1.606,5.049c-0.536,1.683-2.143,2.907-3.749,3.06
		c-2.83,0.229-5.354-2.831-5.201-5.584C262.9,385.663,263.054,383.521,264.89,382.45z"/>
	<path fill="none" stroke="#010101" stroke-width="0.5" stroke-miterlimit="10" d="M262.365,372.353
		c0.994-2.372,4.284-3.519,6.655-2.372c2.754,1.454,3.442,5.737,1.453,7.727c-1.912,1.912-5.66,1.3-7.344-0.918
		C262.212,375.718,261.677,373.959,262.365,372.353z"/>
	<path fill="none" stroke="#010101" stroke-width="0.5" stroke-miterlimit="10" d="M247.601,371.817
		c1.606-1.377,4.36-0.995,5.737,0.536c1.913,2.065,1.071,6.043-1.071,7.038c-2.218,0.995-5.508-1.3-5.967-3.978
		C246.147,374.265,246.529,372.735,247.601,371.817z"/>
</g>
<g id="Shoot">
	<path fill="none" stroke="#010101" stroke-width="0.5" stroke-miterlimit="10" d="M111.277,325.305
		c-1.53-3.442-2.065-6.273-2.295-8.262c-0.153-1.53-0.229-2.754-0.153-3.672c0.153-2.677,0.765-4.208,0.612-7.42
		c-0.229-4.36-1.836-7.65-3.978-12.164c-2.372-4.896-3.672-5.584-4.437-9.333c-0.306-1.683-0.229-2.295-0.459-7.726
		c-0.153-4.055-0.306-4.973-0.459-8.415c-0.918-18.896,0.536-27.999,3.749-32.589c1.301-1.836,2.448-2.372,3.29-2.448
		c1.989-0.229,3.901,1.606,4.896,3.136c1.3,2.066,0.765,3.519,0.459,9.716c-0.306,6.885,0.229,8.186-0.918,11.705
		c-0.765,2.524-1.759,4.131-2.218,4.896c-5.891,10.48-1.224,32.589,1.071,32.589c0.688,0,0.306-1.76,2.448-5.279
		c1.148-1.912,2.984-3.978,6.656-8.032c0.995-1.071,0.841-0.918,1.3-1.454c0.536-0.612,3.137-3.595,5.738-7.497
		c5.355-8.032,4.437-10.557,9.104-15.3c1.53-1.53,2.907-2.524,4.896-3.978c6.426-4.667,8.491-4.055,11.704-7.727
		c1.683-1.913,2.066-3.137,4.437-5.125c2.448-2.065,4.437-2.754,4.896-2.907c2.754-0.918,6.426-1.071,6.885,0
		c0.459,1.224-3.29,3.748-5.125,4.972c-3.442,2.295-4.59,2.142-7.268,4.131c-2.448,1.759-3.825,3.672-5.125,5.278
		c-2.524,3.366-2.754,4.973-5.278,9.715c-1.224,2.295-3.137,5.814-6.197,9.716c-3.825,4.896-5.737,7.344-9.104,8.185
		c-2.065,0.536-3.595,0.153-5.125,1.53c-0.765,0.688-0.841,1.147-2.218,4.896c-1.76,4.667-1.913,4.514-2.219,5.967
		c-0.612,2.754-0.153,3.137-0.918,4.896c-0.918,2.142-1.759,1.913-2.677,3.978c-0.918,2.142-0.077,2.678-0.918,5.738
		c-0.688,2.601-1.454,2.677-1.76,4.667c-0.382,2.372,0.306,4.284,0.918,5.967c0.229,0.536,0.383,0.765,0.765,1.53
		c0.229,0.383,0.459,0.765,0.765,1.607c0.306,0.612,0.688,1.606,0.918,2.907c-0.842,0.077-1.683,0.229-2.601,0.383
		C113.878,324.463,112.425,324.922,111.277,325.305z"/>
	<path fill="none" stroke="#010101" stroke-width="0.5" stroke-miterlimit="10" d="M117.245,284.148
		c0.612-2.142,0.765-3.978,0.918-5.279c0.153-2.295-0.077-3.213-0.229-3.748c-0.459-1.53-0.995-1.607-1.53-2.907
		c-1.453-3.213,0.842-5.432-0.688-7.727c-0.688-0.995-1.989-1.913-2.677-1.53c-1.301,0.688,1.454,5.584-0.688,10.633
		c-0.688,1.683-1.606,2.524-2.219,3.29c-2.142,2.677-3.825,7.803-1.53,18.819"/>
</g>
<g id="Root">
	<path fill="none" stroke="#010101" stroke-width="0.5" stroke-miterlimit="10" d="M117.245,324.004
		c0.459,0.153,1.606,0.536,2.218,1.683c0.459,0.765,0.306,1.3,0.229,3.978c0,2.448,0.077,2.218,0,3.29
		c-0.076,1.071-0.229,1.606-0.918,4.284c-1.071,4.208-1.147,4.59-1.071,5.125c0.077,1.76,0.536,2.065,0.918,4.208
		c0.382,2.372,0.077,3.366,0,6.885c0,0-0.077,3.06,0.229,6.426c0.382,4.896,3.901,10.787,8.645,13.923
		c3.519,2.372,9.639,3.672,21.956,6.197c0.688,0.153,2.677,0.536,2.677,1.071c0,0.153-0.153,0.536-2.448,1.071
		c-0.536,0.153-3.366,0.841-5.508,0.918c-15.3,0.076-23.026-7.497-23.026-7.497c-7.42-7.268-7.956-17.212-8.186-20.579
		c-0.536-8.874,0.459-13.541,0.459-13.541c0.536-2.524,1.454-5.584,0.688-5.967c-0.688-0.306-1.683,1.606-4.896,3.29
		c-0.535,0.306-0.229,0.076-3.749,1.53c-2.524,1.071-3.213,1.377-4.437,1.53c-0.688,0.076-3.136,0.459-3.519-0.459
		c-0.382-0.841,0.995-2.448,2.448-3.29c1.53-0.994,2.295-0.535,4.208-1.53c1.3-0.688,1.377-1.071,2.677-1.989
		c0.842-0.612,1.607-0.995,2.295-1.301c2.754-1.147,3.289-1.071,3.748-1.606c0.536-0.765,0.459-2.372-2.218-6.35
		c1.53-0.994,2.983-1.3,3.825-1.453C115.179,323.698,116.097,323.545,117.245,324.004z"/>
</g>
<g id="Ovary">
	<path fill="none" stroke="#010101" stroke-width="0.5" stroke-miterlimit="10" d="M417.966,438.524c17.289,0,34.654,0,51.943,0
		c1.606-11.321,2.602-26.852,0-44.905c-1.912-13.311-5.278-24.556-8.645-33.43c-11.934-0.153-23.944-0.306-35.878-0.383l0,0
		c-1.071,4.361-2.678,10.939-4.514,18.972c-1.377,5.967-3.213,13.923-3.749,16.065C415.365,402.876,414.141,416.416,417.966,438.524
		z"/>
</g>
<g id="Stigma">
	<path fill="none" stroke="#010101" stroke-width="0.5" stroke-miterlimit="10" d="M425.846,359.118
		c11.704,0.153,23.409,0.306,35.113,0.459c-1.836-10.098-1.224-18.054-0.459-23.333c1.377-8.721,3.137-8.874,7.268-25.857
		c1.377-5.737,3.06-11.322,4.514-17.06c1.147-4.437,3.748-8.338,5.432-12.623c0.152-0.459,0.611-1.606,1.683-2.448
		c1.606-1.224,3.596-1.071,4.284-0.995c1.683,0.153,1.53,0.612,3.672,1.147c2.601,0.612,4.514,0.229,5.661-0.153
		c0.918-0.306,1.683-0.536,1.683-0.995c0.077-0.765-2.065-1.3-5.661-3.442c-2.218-1.3-2.83-1.989-2.983-2.831
		c-0.076-0.765,0.229-1.683,0.842-2.142c0.688-0.535,1.53-0.382,2.678-0.306c0,0,1.377,0.153,5.661,0.306
		c3.289,0.077,4.131-0.229,4.666-0.535c0.459-0.229,1.53-0.842,1.989-2.142c0.459-1.224,0.229-2.754-0.536-3.672
		c-1.453-1.76-4.36-1.301-5.431-1.148c-3.29,0.536-6.197,2.831-6.273,2.831l0,0l0,0c-1.76,0.229-1.836,0.153-1.836,0.153
		c-0.765-0.536-0.076-3.825,1.989-5.967c1.683-1.683,3.672-2.218,5.967-2.677c0.994-0.229,3.06-0.612,6.961-0.536
		c6.12,0.077,7.88,1.071,11.935,0.153c1.759-0.382,4.207-1.224,4.131-1.836c-0.076-0.459-1.454-0.688-2.831-0.841
		c-6.043-0.765-10.403-0.842-10.403-0.842c-0.383,0-16.524-1.606-9.945-0.994c-0.612-0.077-1.912-0.153-2.142-0.842
		c-0.307-0.841,1.3-2.065,2.678-3.136c2.524-1.913,4.972-3.06,6.119-3.519c3.29-1.454,3.672-1.071,4.973-2.142
		c0.536-0.459,2.831-2.295,2.983-5.278c0-0.306,0.153-4.055-2.524-5.508c-1.988-1.071-4.284-0.306-5.508,0.459
		c-0.306,0.229-1.147,0.995-2.678,2.524c-1.224,1.224-1.836,1.836-1.988,1.989c-2.525,2.831-2.831,6.196-3.137,6.12
		c-0.229-0.077-0.153-1.989,0.459-4.437c0.535-2.142,1.53-4.743,3.672-8.109c2.524-3.902,3.213-3.443,5.432-6.962
		c1.988-3.136,2.983-5.89,3.519-7.65c0.688-2.142,1.76-5.661,1.836-10.098c0.077-4.513-0.841-5.125-1.147-5.278
		c-1.3-0.612-3.289,0.918-3.519,1.147c-0.536,0.383-1.301,1.147-2.983,4.667c-1.301,2.754-1.53,3.672-2.143,3.672
		c-0.841,0-1.453-1.76-2.142-3.52c-0.229-0.612-0.535-1.606-1.301-4.513c-0.612-2.601-0.688-3.213-0.994-3.29
		c-0.688-0.077-1.53,4.131-1.684,4.819c-0.306,1.377-0.459,2.678-0.535,4.284c-0.229,3.366,0.076,4.36-0.153,8.109
		c-0.076,1.53-0.229,4.284-0.535,4.284c-0.229,0-0.383-1.224-1.453-8.262c-0.612-3.825-0.688-4.208-0.688-5.278
		c-0.077-1.913,0.076-2.907-0.307-2.983c-0.612-0.153-2.065,2.677-2.983,5.125c-0.535,1.454-0.842,2.983-1.453,5.967
		c-0.536,2.678-0.766,3.978-0.842,5.279c-0.153,2.524,0.153,4.513,0.459,5.967c0.306,1.989,0.535,2.295,1.147,5.432
		c0.306,1.759,0.459,2.677,0.535,3.519c0.307,3.366-0.306,7.191-0.994,7.268c-0.842,0.077-2.142-6.12-2.678-10.404
		c-0.306-2.677-0.306-3.901-1.147-5.967c-1.301-3.06-3.596-5.584-4.437-5.278c-0.995,0.459,1.53,4.743-0.536,8.951
		c-0.459,0.918-0.918,1.377-1.3,2.677c-0.459,1.606-0.307,2.983-0.153,4.82c0.153,1.759,0.229,2.601,0.688,3.519
		c0.229,0.459,0.459,0.841,2.142,2.83c2.066,2.525,1.989,2.295,2.143,2.525c1.453,2.524,0.765,5.278,0.535,5.967
		c-0.229,0.995-0.459,1.836-0.842,1.836c-0.841,0.077-1.146-3.519-3.442-7.65c-1.759-3.29-3.978-5.432-4.819-6.273
		c-2.678-2.601-4.055-2.831-6.272-5.661c-1.53-2.065-1.76-3.06-2.295-2.983c-1.377,0.229-2.907,7.268,0.306,11.934
		c0.918,1.3,1.071,0.765,3.137,3.136c4.437,5.049,4.59,8.338,4.514,9.257c0,1.071-0.229,2.065-0.536,2.142
		c-0.612,0.077-0.765-3.213-3.137-4.819c-1.3-0.918-3.06-1.147-3.519-0.536c-0.459,0.536,0.688,1.454,0.994,3.672
		c0.229,1.759-0.306,2.065,0.153,3.136c0.612,1.301,1.683,1.301,1.836,2.448c0.153,0.841-0.306,1.912-0.842,1.989
		c-0.918,0.153-1.912-2.065-3.289-4.513c0,0-1.147-2.142-5.432-9.104c-2.678-4.284-6.35-10.328-8.645-9.639
		c-1.147,0.306-1.683,2.065-1.683,2.295c-0.307,1.147-0.153,2.601,0.688,3.519c0.918,1.071,1.912,0.688,2.983,1.3
		c1.912,1.071,1.76,3.902,2.448,9.486c0.611,5.508,0.994,8.262,2.295,10.251c1.989,2.983,4.666,5.278,4.666,5.278
		c1.53,1.224,3.061,2.219,3.29,3.978c0.076,0.842,0,1.913-0.536,2.142c-0.918,0.306-2.065-2.754-5.508-4.514
		c-0.841-0.459-1.989-0.995-2.524-0.536c-1.071,0.842,0.765,4.82,1.147,5.661c0.536,1.224,0.918,1.913,1.53,2.678
		c2.065,2.295,4.131,1.53,5.278,2.677c3.29,3.596-8.262,18.743-9.257,26.699c-0.152,1.3-0.459,2.601-1.147,5.125
		c-0.765,3.06-1.224,3.901-1.988,4.284c-1.225,0.536-1.913-0.688-3.825-0.459c-1.76,0.229-3.825,1.607-4.438,3.443
		c-0.611,1.836,0.612,3.06-0.459,4.819c-0.152,0.229-0.765,1.3-1.453,1.3c-1.453-0.076-2.142-5.202-2.83-8.491
		c0,0-3.061-14.917-14.383-31.518c-0.382-0.536-1.224-1.759-1.683-3.519c-0.842-2.983-0.612-7.191,1.53-10.48
		c2.142-3.213,4.437-3.06,5.508-6.426c0.535-1.53,0.688-3.596-0.153-4.131c-1.071-0.612-2.83,1.913-3.978,1.454
		c-2.295-0.995,1.759-13.388-0.459-14.382c-1.225-0.536-3.52,3.213-4.973,2.524c-0.994-0.459-0.994-2.831-0.535-4.437
		c0.459-1.989,1.606-3.213,2.295-3.978c3.519-4.208,4.972-9.333,4.513-9.639c-0.688-0.459-7.42,9.945-9.104,9.104
		c-0.765-0.382,0.229-3.136,1.301-10.48c0.536-3.519,1.225-8.032,0.536-8.262c-0.995-0.306-4.591,11.245-5.814,10.939
		c-0.918-0.229,0-7.727-0.535-19.431c-0.077-2.219-0.229-3.978-0.842-4.131c-0.994-0.153-3.137,4.208-3.825,8.797
		c-0.688,4.208,0.383,5.355,0.153,10.251c-0.229,5.202-1.684,10.863-2.678,10.787c-1.912-0.077-2.065-20.426-3.519-20.426
		c-0.688,0-1.377,4.437-2.295,11.093c-1.377,9.639-1.454,13.923-2.143,13.923c-0.841,0.077-1.071-6.502-4.131-17.595
		c-0.918-3.29-1.989-7.115-3.825-12.087c-1.836-4.972-2.448-5.584-3.137-8.491c-1.453-6.273-0.382-10.71-1.453-10.939
		c-1.377-0.306-3.748,7.191-5.432,6.808c-1.377-0.306-0.306-5.89-2.983-7.267c-1.147-0.536-2.754-0.306-3.442,0.535
		c-0.306,0.383-0.459,0.918,0.306,4.437c0.612,2.831,1.071,3.749,0.688,3.978c-0.841,0.688-5.049-3.672-5.508-3.29
		c-0.382,0.383,2.831,3.366,3.825,7.956c0.688,3.213-0.153,5.279-0.459,7.497c-1.147,10.098,10.098,19.661,9.486,20.196
		c-0.383,0.306-3.825-3.902-10.099-6.809c-3.748-1.76-4.437-1.147-4.514-0.995c-0.611,0.688,0.153,2.524,1.148,3.672
		c0.765,0.918,1.606,1.377,3.136,2.142c2.524,1.301,3.061,0.995,3.672,1.836c0.842,1.224,0,2.295,0.842,3.825
		c0.612,1.147,1.683,1.606,2.295,1.836c4.514,2.219,8.645,9.486,8.109,9.945c-0.229,0.229-1.836-0.841-2.983-1.989
		c-0.918-0.918-0.918-1.377-1.684-1.836c-1.301-0.765-3.137-0.765-3.442-0.153c-0.383,0.765,2.602,1.913,4.514,5.508
		c0.765,1.377,1.377,3.136,0.994,3.442c-0.765,0.536-5.125-5.967-6.426-5.278c-0.612,0.306-0.306,2.295,0.459,3.825
		c0.612,1.147,1.606,2.295,5.126,4.131c4.819,2.448,6.272,1.989,8.491,4.131c2.065,1.913,2.83,4.208,2.524,4.437
		c-0.383,0.306-3.061-3.442-7.65-4.514c-1.912-0.459-2.295,0-2.447,0.153c-0.536,0.765,0.611,2.524,1.147,3.289
		c1.912,2.831,4.36,4.208,4.513,4.284c5.279,2.831,10.558,1.071,10.787,1.989c0.152,0.688-2.372,2.295-13.082,6.502
		c-0.229,0.382-0.611,0.994-0.535,1.836c0.076,1.454,1.377,2.524,2.524,2.831c0.383,0.076,0.842,0.076,1.683,0
		c2.602-0.229,3.061-0.765,3.52-0.459c0.842,0.612-0.459,2.524,0.459,5.278c0.076,0.229,0.612,1.913,1.147,1.836
		c0.994-0.077,0.535-5.891,2.524-6.502c0.535-0.153,1.224,0.077,1.53,0.459c0.918,0.995-0.383,2.754,0.306,3.442
		c0.766,0.765,3.137-0.918,7.803-1.683c1.454-0.229,2.448-0.306,2.984,0.306c0.611,0.688,0.229,1.606,0.535,3.137
		c0.383,1.683,1.224,2.601,1.836,3.442c1.147,1.454,2.142,4.284,4.131,9.945c1.989,5.584,2.983,8.415,3.825,12.393
		c1.683,7.727,0.612,9.18,2.83,13.617c1.071,2.142,1.989,3.136,2.143,5.278c0.229,3.06-1.377,4.36-0.995,7.497
		c0.229,1.989,0.995,2.524,1.684,4.437C426.84,350.932,427.376,354.222,425.846,359.118z"/>
</g>
<g id="5d-seed">
	<path fill="none" stroke="#010101" stroke-width="0.5" stroke-miterlimit="10" d="M118.392,448.394
		c0.077-1.989-7.803-3.442-7.65-4.59c0.076-0.612,2.371-0.842,3.978-0.612c0.382,0.076,1.759,0.229,3.366,1.224
		c2.065,1.225,1.913,2.219,3.366,3.061c2.218,1.224,3.749-0.459,5.814,0.306c2.218,0.842,2.448,3.52,4.284,8.568
		c1.377,3.748,3.443,7.114,5.202,10.71c5.125,10.633,4.896,9.944,5.202,10.71c2.372,5.737,3.06,10.327,3.978,17.136
		c0.459,3.29,1.377,11.016,1.224,21.726c-0.229,13.235-1.989,21.88-3.978,31.442c-1.683,8.186-2.754,10.71-4.896,13.157
		c-5.279,5.891-15.071,8.263-19.278,4.896c-0.612-0.535-0.535-0.688-3.978-7.344c-2.754-5.279-2.983-5.509-3.366-6.732
		c-0.765-2.371-0.842-4.437-0.306-10.404c0.306-3.519,0.765-7.956,1.53-13.157c2.677-13.006,3.289-24.021,3.366-32.054
		c0-4.131,0-9.869-0.918-17.442c-1.3-10.175-3.672-18.513-5.814-24.479c0.995-0.842,2.448-1.913,4.284-3.061
		C116.862,449.541,118.315,449.234,118.392,448.394z"/>
</g>
<g id="Endosperm">
	<path fill="none" stroke="#010101" stroke-width="0.5" stroke-miterlimit="10" d="M267.49,456.655
		c-1.529,0.459-2.601,1.224-3.978,2.142c-2.602,1.76-4.131,3.596-4.896,4.591c-8.338,10.098-9.409,9.715-9.792,12.239
		c-0.536,3.52,1.454,4.361,0.917,10.099c-0.306,3.136-0.841,2.907-0.917,5.508c-0.077,4.514,1.759,5.967,1.53,9.792
		c-0.153,2.601-1.3,2.601-1.836,5.813c-0.459,3.061,0.077,5.432,0.229,6.427c1.606,8.108-0.612,14.382,1.606,28.688
		c1.683,10.786,4.284,15.529,6.12,18.359c1.301,1.913,5.661,8.568,9.486,7.65c2.142-0.535,3.595-3.442,4.131-5.278
		c0.382-1.454,0.152-2.295,0-5.278c-0.153-2.602-0.153-4.82-0.153-6.197c3.442-2.295,6.885-4.59,10.251-6.885
		c1.301,4.438,1.76,7.803,1.912,10.021c0.077,1.301,0.229,2.602,0.307,3.901c0.459,5.202,0.382,5.737,0.765,5.814
		c1.301,0.459,5.049-5.737,7.497-11.935c0.153-0.382,0.229-0.611,0.306-0.841c0.766-2.065,1.913-6.044,3.061-14.842
		c0.842-6.731,1.147-11.934,1.224-14.075c0.688-16.601,1.071-24.939-1.224-29.605c-0.459-0.995-1.76-3.366-1.53-6.427
		c0.229-2.754,1.53-3.442,1.836-5.813c0.459-3.672-2.065-6.732-3.978-9.18c-3.366-4.208-5.355-3.673-9.181-8.568
		c-1.912-2.448-1.683-2.831-3.06-3.979C275.37,456.502,271.162,455.508,267.49,456.655z"/>
</g>
<g id="Embryo">
	<path fill="none" stroke="#010101" stroke-width="0.5" stroke-miterlimit="10" d="M270.168,551.209
		c3.366-2.371,6.732-4.742,10.021-7.114c0.535,2.678,0.994,4.896,1.301,6.579c0,0,0.611,3.596,1.301,10.48
		c0.152,1.76,0.229,2.448-0.077,3.366c-0.994,2.907-4.36,3.978-5.432,4.437c-5.432,2.143-10.403-0.765-11.016-1.224
		c1.76-1.301,2.601-2.754,3.06-3.596c0.995-1.989,1.071-3.978,1.071-5.967c0-0.383,0-1.53-0.076-3.901
		C270.244,553.045,270.168,551.897,270.168,551.209z"/>
</g>
<g id="Outline">
	<path fill="none" stroke="#010101" stroke-width="0.5" stroke-miterlimit="10" d="M266.879,252.171
		c0.688,4.437,0.688,8.109,0.306,14.306c-0.459,8.185-0.765,12.24-1.606,16.83c-1.836,9.945-3.825,10.175-7.65,23.18
		c-2.907,10.098-1.683,9.945-5.049,21.267c-0.229,0.765-0.994,3.06-2.371,7.114c-0.842,2.601-1.989,5.891-3.366,10.021
		c-3.672,11.016-4.055,12.087-4.743,13.617c-1.224,2.907-2.295,4.973-2.448,5.355c-0.918,1.836-3.825,9.715-0.842,16.601
		c1.53,3.519,3.978,5.508,6.197,7.268c2.065,1.683,6.731,4.59,18.742,6.961c5.661,1.147,14.229,2.218,24.786,1.3
		c7.114-0.612,14.229-1.377,22.262-5.431c5.049-2.601,10.862-5.508,12.699-11.399c1.147-3.672,0.306-7.267-0.919-12.699
		c-1.147-4.973-2.677-8.338-3.824-11.093c0,0-4.896-11.551-9.869-26.392c-1.988-5.967-3.442-10.328-4.742-16.524
		c-1.377-6.273-0.995-6.885-2.219-12.087c-2.065-8.491-3.596-8.797-6.044-17.442c-1.836-6.35-3.289-11.475-3.213-18.207
		c0.076-3.978-0.459-7.956,0-11.934c0.306-2.524,0.842-5.049-0.612-6.961c-0.918-1.224-2.142-1.683-4.131-2.295
		c-0.841-0.306-3.365-1.071-8.567-1.224c-3.596-0.077-5.891-0.153-9.027,0.688c-2.295,0.612-4.131,1.53-5.278,2.142
		C265.808,246.816,266.42,249.264,266.879,252.171z"/>
	<path fill="none" stroke="#010101" stroke-width="0.5" stroke-miterlimit="10" d="M250.89,334.791
		c20.043,0.076,40.086,0.076,60.129,0.153"/>
	<path fill="none" stroke="#010101" stroke-width="0.5" stroke-miterlimit="10" d="M266.42,456.196
		c3.213-2.83,4.054-5.432,4.36-6.885c0.382-1.989,0.229-4.59,0.152-5.432c-0.152-2.754-0.611-3.442-0.152-5.049
		c0.152-0.612,0.841-3.213,2.906-3.825c0.842-0.229,1.989-0.153,2.755,0.535c0.611,0.536,0.918,1.454,0.688,3.825
		c-0.383,4.973-2.065,6.579-1.071,8.186c0.688,1.071,1.76,0.688,3.06,2.372c0.229,0.306,0.995,1.3,1.301,2.524
		c0.612,2.983-2.065,5.584-2.371,5.813"/>
	<path fill="none" stroke="#010101" stroke-width="0.5" stroke-miterlimit="10" d="M452.391,500.413
		c-0.611,0.688-1.453,1.684-2.295,2.983c-1.147,1.606-3.519,4.973-4.514,9.945c-0.994,4.743-0.382,9.792-0.382,9.792
		c0.611,0.459,1.453,0.994,1.988,0.688c0.766-0.383,0.689-1.912,0.689-5.049c0.076-3.137,0.076-4.743,0.382-5.814
		c0.536-2.142,1.454-3.519,3.061-5.967c0.841-1.301,2.218-3.06,4.054-5.049"/>
	<path fill="none" stroke="#010101" stroke-width="0.5" stroke-miterlimit="10" d="M429.977,515.713
		c0.842,2.219,1.76,3.979,2.524,5.279c1.071,1.836,2.065,3.442,3.825,4.896c1.224,0.994,3.213,2.602,4.514,1.989
		c1.988-0.918,1.683-6.12,0.688-6.35c-0.536-0.153-0.842,2.065-1.989,2.371c-1.224,0.383-3.442-1.3-7.65-9.026"/>
</g>
<g id="Anther">
	<path fill="none" stroke="#010101" stroke-width="0.5" stroke-miterlimit="10" d="M450.632,497.43c0-2.448,2.371-4.36,3.06-4.896
		c3.061-2.524,9.716-9.027,18.896-18.131c1.071-0.535,1.989-0.688,2.524-0.688c0.766-0.076,1.454-0.153,2.372,0.153
		c0.229,0.076,1.377,0.535,1.988,1.606c0.153,0.306,0.766,1.453,0.153,3.596c-1.147,4.131-5.661,8.491-9.639,13.464
		c-2.065,2.524-4.132,5.508-7.956,9.256c-1.377,1.301-3.596,3.366-4.896,2.754c-1.071-0.535-0.459-2.295-1.989-3.442
		c-1.453-1.147-2.983-0.382-3.978-1.606C450.632,498.654,450.632,497.812,450.632,497.43z"/>
	<path fill="none" stroke="#010101" stroke-width="0.5" stroke-miterlimit="10" d="M413.07,487.943c0,0-0.459-1.606-0.536-4.207
		c0-1.606,0.153-2.219,0.536-2.754c0.535-0.688,1.453-1.147,2.371-1.071c0.765,0.077,1.53,0.459,3.29,2.754
		c1.759,2.295,2.754,4.284,3.06,4.896c1.836,3.442,2.601,3.442,4.36,6.35c1.147,1.836,2.065,4.666,3.979,10.327
		c2.371,6.962,2.677,8.798,1.606,9.945c-0.612,0.765-1.606,1.147-2.524,1.07c-1.684-0.076-2.831-1.912-3.825-3.442
		c-4.208-6.502-2.831-3.213-5.661-8.186C419.726,503.779,415.671,496.512,413.07,487.943z"/>
	<path fill="none" stroke="#010101" stroke-width="0.5" stroke-miterlimit="10" d="M444.435,562.226
		c1.148-2.295,1.454-4.208,1.989-6.35c1.147-4.514,2.065-4.514,2.907-7.956c0.535-1.989,0.994-4.973,0.535-8.874
		c0.383-0.459,0.918-1.147,1.836-1.836c1.071-0.765,1.606-0.842,1.836-1.454c0.153-0.535-0.152-1.3-0.918-2.754
		c-0.535-0.994-0.765-1.529-1.07-1.606c-1.071-0.306-1.836,1.836-3.29,1.836c-1.529-0.076-1.759-2.371-3.596-2.754
		c-1.07-0.152-2.065,0.459-3.06,1.071c-0.842,0.535-2.448,1.53-2.371,2.754c0.076,1.071,1.529,1.071,2.371,2.524
		c0.459,0.765,0.535,1.836-0.153,5.432c-0.459,2.371-0.918,3.442-1.453,5.278c-0.994,3.52-1.301,6.273-1.606,8.874
		c-0.535,4.743,0.153,3.29-0.383,7.421c-0.229,1.606-0.459,2.906,0.383,3.596c0.688,0.611,2.065,0.535,2.907,0
		c0.611-0.383,0.841-0.842,1.606-2.372C443.976,562.99,443.976,563.144,444.435,562.226z"/>
</g>
<g id="Labels">
	
		<text transform="matrix(1 0 0 1 128.3154 304.8174)" fill="none" stroke="#010101" stroke-width="0.5" stroke-miterlimit="10" font-family="'Helvetica'" font-size="10">Shoot</text>
	
		<text transform="matrix(1 0 0 1 128.3154 354.6221)" fill="none" stroke="#010101" stroke-width="0.5" stroke-miterlimit="10" font-family="'Helvetica'" font-size="10">Root</text>
	
		<text transform="matrix(1 0 0 1 256.4346 226.5195)" fill="none" stroke="#010101" stroke-width="0.5" stroke-miterlimit="10" font-family="'Helvetica'" font-size="10">Suspension</text>
	
		<text transform="matrix(1 0 0 1 357.2354 309.2212)" fill="none" stroke="#010101" stroke-width="0.5" stroke-miterlimit="10" font-family="'Helvetica'" font-size="10">Stigma</text>
	
		<text transform="matrix(1 0 0 1 372.7471 408.8887)" fill="none" stroke="#010101" stroke-width="0.5" stroke-miterlimit="10" font-family="'Helvetica'" font-size="10">Ovary</text>
	
		<text transform="matrix(1 0 0 1 86.8677 431.7275)" fill="none" stroke="#010101" stroke-width="0.5" stroke-miterlimit="10" font-family="'Helvetica'" font-size="10">Seed 5d</text>
	
		<text transform="matrix(1 0 0 1 294.9287 584.1006)" fill="none" stroke="#010101" stroke-width="0.5" stroke-miterlimit="10" font-family="'Helvetica'" font-size="10">Embryo</text>
	
		<text transform="matrix(1 0 0 1 302.5537 478.2627)" fill="none" stroke="#010101" stroke-width="0.5" stroke-miterlimit="10" font-family="'Helvetica'" font-size="10">Endosperm</text>
	
		<text transform="matrix(1 0 0 1 432.2871 584.1006)" fill="none" stroke="#010101" stroke-width="0.5" stroke-miterlimit="10" font-family="'Helvetica'" font-size="10">Anther</text>
</g>
</svg>
