<?xml version="1.0" encoding="UTF-8" standalone="no"?>
<svg id="svg10" xmlns="http://www.w3.org/2000/svg" height="1333.3" viewBox="0 0 1333.3333 1333.3333" width="1333.3" version="1.1">
	<g id="Lines" stroke="#000" stroke-width="1px" fill="none">
		<path id="path21" d="m176.25 159.83c-7.0748 10.886-19.823-11.903 0 0z"/>
		<path id="path23" d="m168.25 156.33c-2.6747-9.4276 12.342-3.705 0 0z"/>
		<path id="path25" d="m165.5 158.33c-11.792 9.7966-5.9147-7.5851 0 0z"/>
		<path id="path27" d="m165.25 157.08c-16.864-12.642 10.511-8.0662 0.0346-0.009z"/>
		<path id="path29" d="m161.5 156.58c-11.577-5.4102-33.779 1.3412-11.5-0.25"/>
		<path id="path31" d="m140 153.08c-16.024-3.3901-6.4265 13.524 0 0z"/>
		<path id="path33" d="m131.25 154.83c-6.8861-22.281-14.874 2.518 0 0z"/>
		<path id="path35" d="m128.25 156.83c-17.96-5.0727-6.9969 15.877 0 0z"/>
		<path id="path37" d="m128.25 156.83c3.9501 22.228 18.435 4.0625 0 0z"/>
		<path id="path39" d="m159.25 149.58c-21.984-7.8648-13.917-25.585-2.8954-3.9468-1.4791 2.6432 1.3458 2.9487 2.8954 3.9468z"/>
		<path id="path41" d="m147 141.58c-29.186 2.2538 25.541 14.414 0 0z"/>
		<path id="path43" d="m137 142.33c6.3736-17.126-7.7002-10.849-0.54561-4.812-10.063-4.3439-8.6486 5.8557 0.54561 4.812z"/>
		<path id="path45" d="m176.25 159.83c-8.264-13.817-6.5513-37.815-24-42.75 0.94204 3.5692 8.3629 15.787 8 4.5"/>
		<path id="path47" d="m167.75 137.83c-11.847-8.9101-26.873-19.3-19-24.25-5.929-1.3918 20.961-8.0591 11.5 8"/>
		<path id="path49" d="m176.25 159.83c3.4209-15.001 3.1464-31.875 9.5974-46.303-10.548 10.042 1.3732-9.3033-16.484 0.46231 1.8893 4.9848 0.54107 21.402 8.8868 23.341"/>
		<path id="path51" d="m171.75 112.08c1.25 2.8333 2.5 5.6667 3.75 8.5"/>
		<path id="path53" d="m178.5 156.83c6.2705 7.777 4.9981-8.8386 7.75-11.75"/>
		<path id="path55" d="m195.25 144.58c-4.5014 5.8304-9.1768 11.534-13.5 17.5"/>
		<path id="path57" d="m194 157.33c-6.0804 2.9268-8.2966 8.6179-11.25 14.25"/>
		<path id="path59" d="m182 159.33c1.3949 20.721 1.4582 41.502 2.25 62.25 13.559-11.027-5.3989-41.547 10.25-33.25 6.0772-13.031 4.0034 6.0484 7.5186 10.871-15.05-1.6332-12.605 11.586-17.769 22.379"/>
		<path id="path61" d="m176.25 159.83c0.23983 10.105 6.3014 63.84 3.0898 49.672-3.4029-20.607-26.549-12.66-9.7034-26.097 11.392-10.735 1.8755 21.603 10.864 28.925"/>
		<path id="path63" d="m184.25 221.58v57c11.512-13.427 7.9101-28.292 6-43.25 13.074-34.94 18.065 7.9971 4.25 18"/>
		<path id="path65" d="m180.5 212.33c-1.9085 11.519 4.5185 57.351-7.6808 26.509-8.6696-27.388-10.854-19.497-2.1055 3.6747 3.08 4.5534 4.3066 10.564 9.0363 13.817"/>
		<path id="path67" d="m194.5 253.33c2.0472 10.626-2.3347 22.054-9.75 29.75"/>
		<path id="path69" d="m179.75 256.33c-0.54152 14.964-3.2647 56.657 0.47569 51.011-16.515-24.148-17.9-24.506-2.7095 1.1994 7.7071 17.063 4.8114 37.547 12.484 55.04-12.567-13.626-25.166-27.224-37-41.5 4.7068 19.946 28.188 31.321 36.122 49.054 0.32964 17.404 3.3124 34.559 7.3778 51.446"/>
		<path id="path71" d="m184.75 283.08c0.45496 15.331-0.81181 52.308 13.634 21.633 8.5836-12.92 20.63-33.364 15.462-47.149-8.997-10.23 8.7817-42.77 10.654-17.983 6.3195 20.65-13.843 24.106-4.011 0.95452-0.67543-2.8735 0.57297-6.3-2.239-8.4545"/>
		<path id="path73" d="m188 319.83c1.965 23.775 6.6152 47.197 8.25 71 12.714-24.997 17.948-53.269 29.25-78.5-1.4136 30.523-19.43 59.663-28.282 88.021 0.44 32.196 35.785-17.905 41.788-33.273 11.066-14.955 19.896-31.416 27.744-48.248-25.728 20.909-9.38-2.5032 3.8237-15.955 8.2772-17.927 15.358-36.587 23.176-54.795-10.545-2.9848-2.981-32.951-6.735-46.859-1.9156-34.204 7.5908 2.4406 9.1093 17.119 4.7212 20.02 7.3007 27.735-3.0458 42.932-10.485 22.764-19.246 46.594-25.329 70.808l-1.25-13.25"/>
		<path id="path75" d="m281.25 288.83c3.5652-1.9067 33.976-43.653 23.135-24.436-12.212 22.562-24.423 45.124-36.635 67.686"/>
		<path id="path77" d="m277.75 299.33c5.5833-5.4167 11.167-10.833 16.75-16.25"/>
		<path id="path79" d="m293.75 248.08c-1.6667-21.583-3.3333-43.167-5-64.75"/>
		<path id="path81" d="m267.75 332.08c-5.3309 10.641-31.099 42.896-22.816 39.14 10.567-4.0627 42.252-39.911 33.234-14.496-4.1109 28.209-20.059 52.327-44.298 67.288-17.143 3.6679-17.297 50.409-29.167 20.424 2.5764-22.044 24.962-38.355 42.44-51.251 5.0358-3.8681 10.072-7.7361 15.107-11.604"/>
		<path id="path83" d="m222 413.33c3.0204-14.156 13.703-24.901 18-38.5"/>
		<path id="path87" d="m230.25 385.08c-7.1882 11.065-26.897 63.592-29.872 35.668l-0.46798-3.0206-0.41009-2.6469"/>
		<path id="path89" d="m276.25 354.58c-17.417 18.25-34.833 36.5-52.25 54.75"/>
		<path id="path91" d="m203.75 442.83c-28.883 13.745-3.6109-35.824-6.1262-8.0752-0.0436 2.3583 0.98161 4.7557-0.12383 7.0752"/>
		<path id="path93" d="m302.25 244.08c10.385 0.58267 24.283-24.75 31.281-37.973 0.80378-4.1986-26.791 21.451-32.42 33.08l-0.61 0.89"/>
		<path id="path95" d="m300.5 237.33c6.5905-13.151 21.278-51.991 12.683-16.963l-0.55287 3.0062-0.12991 0.70636"/>
		<path id="path97" d="m316.5 202.33c15.981-9.5106 12.967-34.029 25.276-42.068 9.3482 2.3962-1.2867 21.09-8.5259 17.068"/>
		<path id="path99" d="m342.25 160.33c3.8624-17.234 15.01-5.2411 2.25 1"/>
		<path id="path101" d="m321.25 196.58c2.0804-16.157 4.4574-33.898 6-42.5-0.091-8.1153 25.455-4.0711 5.9397 10.92-7.5955 1.9743 0.91674 18.635-8.4397 19.08"/>
		<path id="path103" d="m336.25 159.33l-6.5 0.5"/>
		<path id="path105" d="m316.5 202.33c7.4458-15.722 1.6221-52.823-3.7661-46.837 14.262-6.5411 7.4566 5.3754 8.0206 20.445-1.1695 1.2456 2.6892 7.9534-1.7545 5.642"/>
		<path id="path107" d="m195 562.33c14.522-29.287 28.728-61.946 60.835-75.57 22.038-16.506 30.681-18.105 13.916 8.5748-9.7334 27.876-31.526 48.241-49.697 70.101-8.5021 17.436-9.7263-16.711-19.822-5.5592l-2.7677 1.2973z"/>
		<path id="path109" d="m209.25 555.83c-3.914-10.313 32.619-40.684 47.077-58.583 4.4743-4.8057 8.9486-9.6114 13.423-14.417"/>
		<path id="path111" d="m250.5 492.08c-8.2694 9.0716-14.065 19.341-18.5 30.75"/>
		<path id="path113" d="m253 512.33c-15.153 13.945-30.641 27.542-43.75 43.5"/>
		<path id="path115" d="m136.75 390.83c7.9866 14.954 10.738 31.228 5.25 47.75-6.1048-6.0434-40.619-37.772-22.062-26.637 9.3322 8.4682 1.7455-19.722 11.473-3.6951 7.1692 33.062 3.4249-8.9848 5.3383-17.418z"/>
		<path id="path117" d="m139.5 431.08c0.26092-9.2619 3.6626-18.763 0.25-27.75"/>
		<path id="path119" d="m133.5 426.33c-2.6667-2.8333-5.3333-5.6667-8-8.5"/>
		<path id="path121" d="m139.5 425.83c-5.4167-3.8333-10.833-7.6667-16.25-11.5"/>
		<path id="path123" d="m142 438.58c11.277 4.4637 14.045 51.52 7.3854 28.698-2.19-9.62-4.66-19.21-7.39-28.7z"/>
		<path id="path125" d="m161.75 484.58c-17.852-16.566-36.01-32.826-52-51.25 10.403 25.504 22.031 52.997 46 68.5-0.85411-10.27-13.959-23.803 6-17.25z"/>
		<path id="path127" d="m150.25 483.33c-12.17-9.0897-20.658-21.229-30-33"/>
		<path id="path129" d="m155 484.08c4.7234 22.094 4.9354 46.301 13.5 67"/>
		<path id="path131" d="m168.5 551.08c14.584-0.13564 0.4667-34.074 8.097-47.189-1.1623-9.9698 12.632-55.515-2.9068-32.154-7.2369 9.0026-10.074 21.143-15.44 31.343"/>
		<path id="path133" d="m175.5 475.08c-4.8743 14.06-8.029 28.802-14.5 42.25"/>
		<path id="path135" d="m155.75 501.83c-0.0417 17.982-3.2851 35.885 3.25 53.25 11.319-5.3865 1.3921-19.763 2.25-29.25"/>
		<path id="path137" d="m168.5 551.08c5.6626 22.401 7.7452 46.856 21.25 66.25"/>
		<path id="path139" d="m164.75 550.08c0.29797 29.039 15.597 55.507 23.601 82.303-0.86713 17.816-1.7343 35.631-2.6014 53.447"/>
		<path id="path141" d="m194.75 620.83c19.474 5.5346 3.5019-10.208-5-3.5"/>
		<path id="path143" d="m97.75 513.08c26.889 16.075 52.237 34.39 70.5 60.25"/>
		<path id="path145" d="m175 579.08c5.4167 8.5833 10.833 17.167 16.25 25.75"/>
		<path id="path147" d="m188.5 629.33c-11.23 16.69-17.5-27.16-33.17-30.91-24.57-23.63-55.02-48.8-57.58-85.34"/>
		<path id="path149" d="m176.5 601.58c-17.877-11.46-25.98-31.459-38.25-48"/>
		<path id="path151" d="m162.75 590.33c-22.305-17.092-37.607-40.83-56-61.75"/>
		<path id="path153" d="m116.25 549.58c8.6282 8.1967 15.62 18.316 26.5 23.75"/>
		<path id="path155" d="m194.75 620.83c-0.47617 17.628-4.1571 48.879 12.107 18.891 16.447-32.989 52.568-43.963 84.893-55.141-15.465 41.764-58.04 59.415-91.5 83.75-3.9152 6.6623-8.7857 12.32-14.5 17.5"/>
		<path id="path157" d="m195.25 663.33c19.312-17.414 39.368-34.699 54.307-55.527 4.231-3.3244 8.462-6.6487 12.693-9.9731"/>
		<path id="path161" d="m217.25 643.33c14.82-4.6648 27.139-14.76 40.75-22"/>
		<path id="path163" d="m256 617.33c-5.493 1.3597-7.1124 6.0103-9.5 10.5"/>
		<path id="path165" d="m116.75 638.83c28.846 19.863 54.01 45.063 67.25 78 20.656 15.337 14.764 32.084-3.8604 9.5579-27.41-18.9-43.18-49-57.64-78.06"/>
		<path id="path167" d="m134.75 660.58c11.621 13.11 16.624 29.211 22.75 45.25"/>
		<path id="path169" d="m121.75 661.58c5.17 7.0896 8.6553 15.165 17.25 18.75"/>
		<path id="path171" d="m182.5 728.33c-17.993-6.1314-35.217-15.238-43.5-33.25"/>
		<path id="path173" d="m136.5 698.58c4.4167 4.25 8.8333 8.5 13.25 12.75"/>
		<path id="path175" d="m116.75 638.83c-1.8343 37.125 14.312 75.353 47.134 94.628 17.3 9.3361 24.837 38.682 21.234 3.7287-0.0393-2.2023-0.0786-4.4046-0.11798-6.6069"/>
		<path id="path177" d="m191.75 738.33c-0.006 18.899-3.8542 49.077 13.063 18.304 21.453-34.396 60.123-50.211 98.187-58.304-22.049 36.588-55.803 65.843-95.399 82.215-5.7171 3.0635-12.098 4.6323-18.101 7.0346"/>
		<path id="path179" d="m193.25 779.33c21.774-16.043 47.589-23.573 69-40.5"/>
		<path id="path181" d="m260.75 734.08c-4.8053 3.1678-8.7502 5.353-9 11.75"/>
		<path id="path183" d="m213.25 766.08c21.297-16.429 34.379-40.106 57.75-53.75"/>
		<path id="path185" d="m292 705.33l-52.5 36.25"/>
		<path id="path187" d="m285.5 714.58c-7.5428 4.1575-14.693 10.035-23.5 11"/>
		<path id="path189" d="m185.75 685.83c0.0833 11.167 0.16667 22.333 0.25 33.5"/>
		<path id="path191" d="m194 677.58l-4 46"/>
		<path id="path193" d="m189.5 787.58c-4.5097 14.193 6.4758 45.513-7.8506 48.856-5.793-22.841 4.0175-52.628 3.8506-77.856"/>
		<path id="path195" d="m186.5 883.08c5.0229 4.6525 10.423 8.9017 14.75 14.25"/>
		<path id="path201" d="m188 911.33c4.7416 1.8449 8.4221 5.333 12.5 8.25"/>
		<path id="path203" d="m186.5 927.58c4.712-0.4356 8.0718 3.0796 12 5"/>
		<path id="path209" d="m184.5 948.58c10.828 0.45164 16.812 19.734 27.75 24"/>
		<path id="path211" d="m206.5 975.83c-3.0474-2.6019-2.4998-5.1943-1.25-8.5"/>
		<path id="path213" d="m198.25 959.08c-3.836 10.252-4.5441 16 5.5 23.5"/>
		<path id="path215" d="m208.66 1035.5c19.476 10.325 26.524 50.931 11.586 8.872"/>
		<path id="path217" d="m235.75 1064.6c-3-4.0833-6-8.1667-9-12.25"/>
		<path id="path219" d="m236.5 1059.3c-4.5036-5.9221-8.4705-11.776-15.75-14.5"/>
		<path id="path221" d="m198.5 1061.1c-0.82374-4.1325-1.6475-8.2649-2.4712-12.397"/>
		<path id="path223" d="m191.75 1055.1c1.3483-9.0804-8.3253-13.813-4.5866-22.711"/>
		<path id="path225" d="m186.25 1039.8c-3.355 7.5896 0.36316 16.255-3 24.25"/>
		<path id="path227" d="m187.25 1060.6c-0.4683-2.7593 1.8506-5.926-2-7.5"/>
		<path id="path233" d="m540.25 245.58c-14.129 19.716-37.717-7.3539-55.862 4.4654-22.033 2.5589-31.759 3.8634-25.755-13.449-0.96879-3.9029-7.1283-2.2249-9.883-4.016"/>
		<path id="path235" d="m450.75 258.33c11.158-1.6045 11.724 0.6224 4.75 8"/>
		<path id="path237" d="m732.5 285.83c4.4665-22.079 13.008-41.602 23.248-61.347l1.208-2.8078 0.79391-1.8453"/>
		<path id="path239" d="m750.5 214.83c-1.9086 12.157-4.53 24.089-8.5 35.75"/>
		<path id="path241" d="m738.25 266.08c-9.3577-12.124-3.3192-30.643 1.25-43.5"/>
		<path id="path243" d="m718.75 276.58l6 32.5"/>
		<path id="path245" d="m748.5 305.58c28.593-15.567 64.01-19.251 95.619-13.313 4.1271 1.0211 8.2542 2.0423 12.381 3.0634"/>
		<path id="path247" d="m779.75 293.33c11.562-13.194 33.147-17.03 49-11.25"/>
		<path id="path249" d="m849.25 286.58c-5.8356 0.28396-11.678-0.11383-17 2.75"/>
		<path id="path251" d="m740.25 328.33h17.75"/>
		<path id="path253" d="m705.25 305.58c-23.845-15.053-41.38-42.069-71.5-44.5"/>
		<path id="path255" d="m676.5 283.08c-18.022-10.524-37.707-4.5148-56.25-12.75"/>
		<path id="path257" d="m651.5 275.33c-13.221-8.9529-32.498-12.87-48-17.5"/>
		<path id="path259" d="m623.25 264.33l-24.75-2.25"/>
		<path id="path261" d="m718.5 309.33c-11.314 13.261-23.712 25.648-34 39.75"/>
		<path id="path263" d="m730 357.58c4.7678 18.617-2.4026 33.858-6.8278 51.323-0.59747 4.22-1.1065 8.4523-1.6722 12.677"/>
		<path id="path265" d="m727.25 431.33c4.1742-15.832 3.4165-31.877 4.75-48"/>
		<path id="path267" d="m737.75 416.58c-1.6141-7.6012-4.0248-14.98-6.75-22.25"/>
		<path id="path269" d="m943 318.58c-7.8875 34.212-9.2132 11.184-10.638-10.976-2.5779-34.723-4.163-69.522-6.3616-104.27 17.992-3.434 6.6606 33.041 12.036 46.778 1.6546 22.824 3.3092 45.648 4.9638 68.472z"/>
		<path id="path271" d="m949 300.08c-2.5833-4.3333-5.1667-8.6667-7.75-13"/>
		<path id="path273" d="m952.5 290.58c-4.3333-8.4167-8.6667-16.833-13-25.25"/>
		<path id="path275" d="m929 257.33c-5.9167-4.8333-11.833-9.6667-17.75-14.5"/>
		<path id="path277" d="m930.25 281.33l-14.5-5.25"/>
		<path id="path279" d="m994.75 235.33c-19.923 58.2-36.575 117.42-52 177-9.6917-18.248-3.6247-38.949-2.5-58.5"/>
		<path id="path281" d="m938.5 371.33c-3.4017-3.0081-4.7204-7.3444-6.75-11.25"/>
		<path id="path283" d="m942.75 412.33c13.652-5.5509 22.066-21.078 29-33"/>
		<path id="path285" d="m966 375.33c-0.97413 5.233-2.2951 10.379-1.75 15.75"/>
		<path id="path287" d="m987.5 324.08c-10.901 12.156-17.4 29.56-31.5 38.5"/>
		<path id="path289" d="m980.75 325.33l-1 8.25"/>
		<path id="path293" d="m959.25 348.08c-0.65057-18.698-0.47277-37.768 6.25-55.5"/>
		<path id="path295" d="m956.25 301.83c1.2304 4.4803-1.1138 10.778 3.75 13.5"/>
		<path id="path297" d="m995 280.58c-7.2674 12.609-11.643 26.848-24.75 35"/>
		<path id="path299" d="m979.75 250.33c-3.298 12.086-7.1393 24.628-2.75 37"/>
		<path id="path301" d="m998.25 245.08c-3.1141 13.679-10.262 25.63-19.25 36.25"/>
		<path id="path303" d="m947.5 436.58c-1.5833-8.0833-3.1667-16.167-4.75-24.25"/>
		<path id="path305" d="m938.25 439.08c-1.3333-7.0833-2.6667-14.167-4-21.25"/>
		<path id="path307" d="m1165.2 382.33c4.7657 9.8172 2.8918 54.57-4.9078 36.141-21.635-57.495-42.331-115.5-61.163-173.81-6.9845-9.9266-21.366-54.79-3.5214-27.69 39.773 39.894 62.073 91.972 81.69 143.8 7.5286 16.507 14.25 33.295 18.152 51.065-17.996-3.6284-22.884-14.03-30.25-29.5z"/>
		<path id="path309" d="m1187.5 408.08c22.304 22.01-7.7749 14.001-10.25-3.75"/>
		<path id="path311" d="m1195.8 280.83c3.9579 35.731 2.2635 72.398-6.75 107.25-4.6362-17.765-22.919-34.826-11.837-52.948 6.2914-17.561 4.6542-41.253 18.587-54.302z"/>
		<path id="path313" d="m1193.5 289.58c-5.3954 23.577-8.7279 47.523-11.75 71.5"/>
		<path id="path315" d="m1165.2 382.33c-17.922-52.289-36.89-104.68-64.5-152.75"/>
		<path id="path317" d="m1180.5 319.83c-16.809-30.175-22.667-64.41-34-96.75-3.8294 24.443-0.7918 50.256 5 74.25"/>
		<path id="path319" d="m1170.5 329.08c-8.7273-27.904-19.313-55.067-21.5-84.5"/>
		<path id="path321" d="m1170.5 541.08c-7.3859-9.4926-25.715-46.412-25.763-37.513 3.6624 28.849 16.423 57.564 19.617 85.233-17.485 15.64-5.5784 44.542 2.5629 15.861-0.2881-21.253-0.7124-42.653 3.5826-63.58z"/>
		<path id="path323" d="m1152.2 519.08c2.749 13.122 7.3186 25.858 13.5 37.75"/>
		<path id="path325" d="m1179 614.33c11.835 22.361 16.294-20.089 24.968-29.387 22.909-51.109 68.221-91.511 81.316-146.72-5.2063-5.0862-24.816 24.342-33.56 34.399-14.074 16.315-28.288 33.044-45.224 46.458 1.0926-18.759 2.781-38.181-3.5-56.25-7.5541 27.509-23.168 52.198-22.129 81.649-1.3478 23.139-5.8469 46.845-1.8714 69.851z"/>
		<path id="path327" d="m1179 614.33c7.3925-32.364 21.53-62.621 27.5-95.25"/>
		<path id="path329" d="m1201.5 484.58c-7.3225 30.325-12.852 60.891-22.25 90.75"/>
		<path id="path331" d="m1277.5 449.58c-24.592 38.392-54.947 72.794-81.155 110.11l-1.9008 2.3937-0.1939 0.24413"/>
		<path id="path333" d="m498.25 449.33c-4.0695-15.668-17.906-29.641-14-46.5-26.904-11.863-17.131 3.7194-9.6252 23.398 3.0457 8.48 6.1348 16.937 8.6252 25.602"/>
		<path id="path335" d="m484.25 402.83c-4.2298-18.533-1.5098-37.514-0.75-56.25-13.958 13.432-10.863 18.11-10.629 39.331-0.8335 5.0594-3.1234 9.7334-1.371 14.919"/>
		<path id="path337" d="m487 591.58c-8.552 20.721-2.8591 46.043-5.25 68.613-0.18105 18.539 0.35326 37.119-0.25 55.637"/>
		<path id="path339" d="m484.75 583.33c-7.4468 7.4543-2.957 23.187-11.75 3.25"/>
		<path id="path341" d="m470.5 592.58c10.386 31.738 3.8583 66.816 5.3459 99.95-0.25594 7.5195 0.25717 15.033 0.40413 22.55"/>
		<path id="path343" d="m465 707.08c-6.9135 11.885 19.029 23.848 26.75 9.75-6.2028-4.8823 13.566-5.9385 0-10.5"/>
		<path id="path349" d="m474.5 722.83c-0.16667 6.9167-0.33333 13.833-0.5 20.75"/>
		<path id="path353" d="m686.75 558.83c3.0613 14.594 18.251 20.224 24 34"/>
		<path id="path355" d="m768.5 567.08c-12.469 6.0749-15.824 21.195-26.5 29.75"/>
		<path id="path357" d="m782 647.83c-9.0695-14.913-20.693-26.455-39.25-25.75"/>
		<path id="path359" d="m709.25 619.58c-15.077 0.59581-30.149 11.979-42 19.75"/>
		<path id="path363" d="m731.25 667.83c3.825-8.829 3.4428-17.852 3.25-27.25"/>
		<path id="path365" d="m713.75 665.83c-2.6394-6.6226-3.9022-13.699-6-20.5"/>
		<path id="path371" d="m482.75 1029.1c3.6386-12.142-5.3933-46.009-5.4734-20.263 0.84899 6.4637-0.65375 14.575-0.52664 21.513"/>
		<path id="path188" d="m477.5 921.83c7.0708 4.799-8.9192 2.7527 0 0z"/>
		<path id="path190" d="m473 928.21c-4.5426 5.7207-3.1306-6.559 0 0z"/>
		<path id="path192" d="m481.88 931.58c9.5453 3.7935-5.9078 4.694 0 0z"/>
		<path id="path194" d="m476.62 934.33c-3.1417 7.9507-6.5848-7.7536 0 0z"/>
		<path id="path196" d="m483.62 941.58c7.39 7.5494-6.6267 2.0228 0 0z"/>
		<path id="path198" d="m469.38 945.46c3.0412 8.0913-6.5987-0.90244 0 0z"/>
		<path id="path200" d="m463.62 950.83c3.5097 7.8263-7.0393-0.63486 0 0z"/>
		<path id="path202" d="m469.25 953.58c4.5393 5.7502-6.1309 1.0328 0 0z"/>
		<path id="path206" d="m482.62 957.08c4.7451 8.6156-7.5948-0.37384 0 0z"/>
		<path id="path208" d="m476.38 960.71c3.7366 5.1504-3.7084 1.299 0 0z"/>
		<path id="path210" d="m471.62 970.71c5.1151 6.6752-7.1629 0.80916 0 0z"/>
		<path id="path212" d="m476.88 975.08c3.0957 5.1814-5.6516 0.009 0 0z"/>
		<path id="path214" d="m493.38 921.33c7.7432 0.99202-4.01 5.7315 0 0z"/>
		<path id="path216" d="m499.12 927.33c7.277 5.8332-5.9247 3.1856 0 0z"/>
		<path id="path218" d="m495.75 934.33c6.5356 6.0242-7.0908 2.6828 0 0z"/>
		<path id="path220" d="m502.12 943.33c5.8494 7.645-6.566 1.784 0 0z"/>
		<path id="path222" d="m493.75 950.58c5.2173 5.0287-5.6376 1.9072 0 0z"/>
		<path id="path224" d="m497.38 967.58c-7.2179 2.4515 0.92369-8.6079 0 0z"/>
		<path id="path226" d="m490.88 972.46c6.6198 5.883-7.1856 3.1207 0 0z"/>
		<path id="path228" d="m727.2 1029.1c-6.9426-13.159 10.698-36.88-7.4-36.6 0.31711 7.4764-5.6417 42.505 7.4 36.6z"/>
		<path id="path230" d="m738.25 964.71c-2.9726-9.754-6.8706 7.0771 0 0z"/>
		<path id="path232" d="m743.88 953.83c-7.7412-4.0836 0.20818 8.9771 0 0z"/>
		<path id="path234" d="m744.88 944.71c-6.3534 4.814 6.7659 4.8043 0 0z"/>
		<path id="path236" d="m739.38 936.08c7.446 7.2142-5.3843 4.069 0 0z"/>
		<path id="path238" d="m750 928.46c6.1143 11.978-8.9809 2.4481 0 0z"/>
		<path id="path240" d="m749.5 919.33c5.4168 8.3043-5.8092 3.8334 0 0z"/>
		<path id="path242" d="m741.75 918.33c5.6427 3.5206-4.185 4.3269 0 0z"/>
		<path id="path244" d="m745.75 909.96c7.9178 3.6042-5.0467 6.4398 0 0z"/>
		<path id="path246" d="m741.12 902.58c6.6421 9.1937-11.664 2.0929 0 0z"/>
		<path id="path248" d="m729.5 917.08c-7.283-8.9082-4.4909 9.8303 0 0z"/>
		<path id="path250" d="m730 929.83c-0.18905-10.769-7.6214 3.9691 0 0z"/>
		<path id="path252" d="m721.12 902.96c4.5693 7.1186-7.2904 1.4619 0 0z"/>
		<path id="path254" d="m713.5 909.33c6.5598 3.6452-6.5685 2.9876 0 0z"/>
		<path id="path256" d="m718.38 916.33c7.5213 6.0025-8.6293 2.9246 0 0z"/>
		<path id="path258" d="m710.5 931.08c9.2446 5.8976-7.8834 4.5306 0 0z"/>
		<path id="path260" d="m728 944.21c-10.591 0.0504 4.0191 10.333 0 0z"/>
		<path id="path262" d="m725.88 957.58c-6.5207-10.032-5.8999 11.315 0 0z"/>
		<path id="path264" d="m720.38 965.33c6.6376 3.9443-6.7634 3.1225 0 0z"/>
		<path id="path266" d="m714.12 960.46c7.4905 4.1606-6.5504 3.8671 0 0z"/>
		<path id="path268" d="m709.62 952.33c6.8249 4.9474-6.0206 6.5421 0 0z"/>
		<path id="path270" d="m972.8 1028.7c-8.5614-15.172 11.366-40.973-7.5996-44.533-6.3542 8.9884 3.7236 30.716-0.56636 45.494-1.6474 4.9563 6.4718-1.6658 8.166-0.9612z"/>
		<path id="path272" d="m983.75 945.33c11.291 6.2945-10.917 9.3458 0 0z"/>
		<path id="path274" d="m991 934.96c10.802 6.1695-9.7209 7.3072 0 0z"/>
		<path id="path276" d="m994.25 925.21c9.4749 9.3447-9.2019 3.3253 0 0z"/>
		<path id="path278" d="m988 914.33c8.4397 9.2348-8.1323 6.6502 0 0z"/>
		<path id="path280" d="m1000.9 905.71c5.3118 10.324-9.9688 1.5668 0 0z"/>
		<path id="path282" d="m992.38 901.58c6.3547 10.102-9.5522 1.4704 0 0z"/>
		<path id="path284" d="m1001.2 893.83c7.3794 10.822-11.167 4.1204 0 0z"/>
		<path id="path286" d="m995.62 881.71c13.673 9.9702-9.417 6.7193 0 0z"/>
		<path id="path288" d="m987.38 873.71c9.868 0.42891-4.0853 7.7736 0 0z"/>
		<path id="path290" d="m974.5 889.96c-8.435-6.4527-1.2125 9.7365 0 0z"/>
		<path id="path292" d="m974.75 902.21c8.7243 11.171-9.2306 5.0738 0 0z"/>
		<path id="path294" d="m973.12 924.83c3.1894 14.64-10.183-2.5543 0 0z"/>
		<path id="path296" d="m962.25 889.21c9.3457 9.2253-12.412 6.1334 0 0z"/>
		<path id="path298" d="m965.88 873.96c3.7332 9.6719-11.489-0.0106 0 0z"/>
		<path id="path300" d="m958 881.21c1.5456 8.7406-10.593-2.3271 0 0z"/>
		<path id="path302" d="m949.75 891.21c3.9831 5.3684-7.7091 1.349 0 0z"/>
		<path id="path304" d="m946.5 902.46c6.1709 9.5483-10.002 1.3077 0 0z"/>
		<path id="path306" d="m954.75 919.83c2.8084 9.6464-8.37-0.68621 0 0z"/>
		<path id="path308" d="m969.62 937.83c4.1715 11.849-11.076-0.0475 0 0z"/>
		<path id="path310" d="m964.88 950.33c5.119 10.596-7.8882 2.8048 0 0z"/>
		<path id="path312" d="m956.88 944.46c6.2289 5.4818-6.6524 2.2788 0 0z"/>
		<path id="path314" d="m952.25 935.08c7.8166 8.0008-7.6866 4.6104 0 0z"/>
		<path id="path316" d="m944.75 914.58c8.5682 4.3384-6.6895 9.0786 0 0z"/>
		<path id="path318" d="m1185.8 1031.9c-4.7633-14.14 6.5138-37.412-3.0562-44.95-21.519-2.984-4.9805 34.875-4.9116 43.936 2.6559 0.338 5.3119 0.6761 7.9678 1.0141z"/>
		<path id="path320" d="m1188.4 843.33c-0.051 10.158-8.2134-3.0358 0 0z"/>
		<path id="path322" d="m1196.6 843.93c5.7677 8.5148-9.7949 2.6157 0 0z"/>
		<path id="path324" d="m1203.2 855.73c1.694 10.917-10.97-2.7424 0 0z"/>
		<path id="path326" d="m1215 872.33c7.0639 10.273-9.9857 0.49151 0 0z"/>
		<path id="path328" d="m1216.2 885.33c0.9793 11.842-7.9816-4.2317 0 0z"/>
		<path id="path330" d="m1215.2 899.13c6.5901 9.821-7.5721 4.3421 0 0z"/>
		<path id="path332" d="m1211.4 915.13c3.9573 10.237-8.821 0.0544 0 0z"/>
		<path id="path334" d="m1203 925.13c12.707 3.9755-9.2607 7.3991 0 0z"/>
		<path id="path336" d="m1193 934.33c7.6006 9.8043-10.529 5.1919 0 0z"/>
		<path id="path338" d="m1183.8 946.93c7.0095 6.4633-7.664 4.9634 0 0z"/>
		<path id="path340" d="m1183.4 933.73c4.9451 11.612-10.467-1.0872 0 0z"/>
		<path id="path342" d="m1177.8 917.33c8.4073 9.0881-8.0429 6.638 0 0z"/>
		<path id="path344" d="m1195.2 911.53c11.128 9.4787-7.9428 6.783 0 0z"/>
		<path id="path346" d="m1197.6 893.73c8.2528 10.626-7.4871 9.0958 0 0z"/>
		<path id="path348" d="m1202.6 879.93c6.7727 7.782-6.6251 8.475 0 0z"/>
		<path id="path350" d="m1186.6 902.73c6.9819 11.808-9.383 3.1744 0 0z"/>
		<path id="path354" d="m1194.8 869.13c9.9396 0.80544-5.7975 5.7691 0 0z"/>
		<path id="path356" d="m1189.8 855.93c7.8326 9.9302-10.711 4.674 0 0z"/>
		<path id="path358" d="m1184.4 873.73c9.1942 6.5083-9.3727 6.4806 0 0z"/>
		<path id="path360" d="m1179.8 860.93c6.7405 9.8973-9.2748 5.6392 0 0z"/>
		<path id="path362" d="m1174.8 881.33c6.227 10.023-8.2582 4.4719 0 0z"/>
		<path id="path364" d="m1182.4 890.53c6.4863 3.0188-4.8696 6.603 0 0z"/>
		<path id="path366" d="m1176 898.93c6.4736 9.5646-8.0888 5.9801 0 0z"/>
		<path id="path368" d="m1184.8 831.33c-6.7729 25.452-24.449 49.662-14.092 76.876 0.7221 21.608 15.788 43.48 4.8924 64.524"/>
		<path id="path370" d="m1179.6 822.73c-2.5372 27.053-28.688 46.387-24.721 75.175 3.1257 21.697 15.214 43.032 16.921 65.025"/>
		<path id="path388" d="m722.75 622.33c-6.7481 5.7062-16.061 9.0821-20.25 17.25"/>
		<path id="path390" d="m745.75 636.33c-0.63421-6.2807-4.4344-9.2835-9.25-12.75"/>
		<path id="path392" d="m743.5 629.33c-9.9148 6.7703-24.604 9.6775-35.5 3.25"/>
		<path id="path394" d="m720 586.33c-8.8984 10.165-0.17672 21.825-6 33"/>
		<path id="path396" d="m717.75 608.08c5.001-2.0985 6.7093 6.6136 5.25 9.75"/>
		<path id="path398" d="m723.25 613.33c6.0268-9.0215 12.16-3.1166 10 6"/>
		<path id="path400" d="m721.75 609.33c1.2164-2.8922-0.60639-7.6731 2-9.75"/>
		<path id="path402" d="m733.5 613.08c-3.8264-6.9864 12.671-20.864 9.25-6.25"/>
		<path id="path440" d="m147.67 314.33c-13.486-18.012-19.746-31.511-6 1.3333"/>
		<path id="path345" d="m489.25 720.58l-1.25 23.75"/>
	</g>
	<g id="Germinating_Seed">
		<path id="path443" d="m432.33 223.67 21-0.66667l19.67-4.67h18l28.667 4 13.667 9 8.3333 10 0.33333 11-6 10-8.6667 8-9.3333 3-37-2-21.333-1-21.67-3.33 5.3333-7 8.6667-6-9 0.33333-10.333 4-19.333 5.6667-10 2-5-0.66667-0.33333-1.3333-0.33333-3 0.66666-1.6667 11.333-13.333 11.333-5.6667 16.333-6.3333 6.3333-1.3333z" stroke="#000" stroke-width="1px" fill="none"/>
	</g>
	<g id="Cotyledon" stroke="#000" stroke-width="1px" fill="none">
		<path id="path446" d="m471.5 357.58 1.8333 16.083 0.16667 6.1667-2.75 15.25 0.75 5.75-8-4-8.1667-3.1667-13.667 1l-30.66-0.33-3.6667-2.3333-3-8.3333 0.66667-7.6667 3-8 11.333-14.333 9-6.3333 10.333-3 11.667-0.33333 8.3333 4.6667z"/>
		<path id="path448" d="m483.5 346.58-1.75 30.25 0.75 15.75 1.75 10.25 6.0833-2.5 48.333-14.333 8.6667-4 5.3333-9.6667-0.66667-5.3333-3-9-14-13.333-15.667-5.3333-29.667 2z"/>
	</g>
	<g id="Young_Leaf" stroke="#000" stroke-width="1px" fill="none">
		<path id="path451" d="m749 203 6-1 5.6667 2.6667 5.3333 7 1.3333 8.6667-2.6667 18.667-4.3333 16-11 16.667-11 16-5.6667 6.6667-3.3333-13.333l-2.33-8.69v-7.3333l-2.33-11.67 0.33-18.33 3.3333-9 4.6667-10 7.6667-9.6667z"/>
		<path id="path453" d="m732.67 294.33-5.6667-22-5.3333-2-5.3333-0.33333-3.6667 1.6667-2.3333 4-1.6667 8.6667 2.6667 9.6667 5.3333 11 6.6667 10 2.6667 4.3333 2.6667 1 7.6667-3.3333 17.333-6.3333l7.32-0.68 46.67-11.67 13.33-0.33 16 1 18 3.3333 13.333-1-0.33-2.33-4.33-6.67-18.67-12.66-16.33-7.34-15.67-1.33-12 1-10 3-31.333 16.667-15 10-8 4.6667-5.3333 6.3333z"/>
		<path id="path455" d="m723.33 313.67-6.6667-8.6667-4.3333 2.3333-8.3333 3-7.6667 6-10 12.333-5.3333 9.3333-1.6667 8.6667 0.66667 3 2 3h11.667l10.667-9 11.333-19.667z"/>
		<path id="path457" d="m712.33 307.33-8.3333 3-12.667-8.6667-13-7-27.667-11.333-19-5-21.333-5.3333s-11-1.6667-15.333-5l-4.3333-3.3333-0.66-2.34 6.6667-4.6667 17-5.3333 15 0.33334 14 3.3333 19.667 8 13 8.6667 16.333 13.667z"/>
		<path id="path459" d="m728.67 320.33 6 4 6.3333-2.3333 10.667-2.6667 5.6667 0.33334 5.6667 2 3 4.3333 1.6667 3.6667-2.3333 3.3333-4.6667 2.6667-14.333 0.33333-4.6667-1.6667-2-2.3333-4.3333-2.6667-8.3333-1 3.3333 9 1.6667 7.6667 3.6667 12.667 6.3333 11 2.6667 6.6667l3.31 12.67s0.66667-1.6667 0 10 0 12 0 12l-1.6667 7.6667-5.6667 11-3.6667 5.6667-6.3333 3.6667-3.3333-0.33333-4.3333-2.3333-6-6-4.6667-6.6667-1.6667-12.667v-6.6667l2.33-9.66 4.6667-13.667 6-15.333 1-7v-10.34l-1.67-9.33-1.6667-4-2-7.6667-3.6667-2.3333 7.6667-10.333z"/>
	</g>
	<g id="Senescing_Leaf">
		<path id="path462" d="m998 219.67 3.3333 10 3 16-4.3333 40-9.3333 43-9.6667 34.333-6 27.333-12 27-5.3333 8.6667-2.3333 0.33333-3-1-2.6667-2.3333-1-3.3333-2.3333-4-3.5833-3.3333-6.0833 2-6 7.6667-4.3333 1-1.6667-5-2-32.333 12.833-44.583 7.5-22.5 6-18.5 3.5-9.5 8.1667-15.917 5-14.333 8.6667-13.333 12.333-12.667z" stroke="#000" stroke-width="1px" fill="none"/>
	</g>
	<g id="Root" stroke="#000" stroke-width="1px" fill="none">
		<path id="path465" d="m187.75 836.83c-0.89006 5.1966 1.2882 19.979 7.7137 10.129 0.10996-7.8952 15.238-10.83 12.81-0.66607-8.6718-1.4892-10.792 10.98-18.371 12.787-2.5867 6.5727-1.8001 13.952-3.0643 20.852-1.507 15.351 2.4208 30.682-0.0399 45.986-0.52353 16.575-3.5299 32.898-7.4558 48.977-2.843 9.3811-5.5277 21.515 5.4472 26.795 8.0154 7.6576 18.333 11.476 28.205 16.073 5.3353 1.5739 4.584 5.6121-0.69169 3.2163-2.8885-1.7083-10.946-4.8416-6.6132 1.4319 1.6325 3.6916 10.998 11.354 2.9742 13.046-6.7164-6.8866-6.9021-19.111-15.922-23.742-7.5625 0.3348-1.9295 10.936-2.9614 15.998 0.74347 10.116 11.319 13.688 15.592 21.698 0.69557 7.0041-5.3931-3.8704-9.3435-0.7296-2.2189-9.6989-12.909-16.43-9.9676-27.516 0.91786-8.0436-2.2002-22.497-11.577-22.191-3.486 7.6579-4.4888 16.328-5.9521 24.606-0.4002 4.1271-2.7797 10.317-1.2142 2.4311-1.5168-9.1955 2.267-18.729 1.4559-27.186-7.3474 1.8639-8.8766 13.218-13.968 18.764-2.0221 3.0312-6.1056 5.932-8.7696 6.6687 6.1081-4.9802 9.4857-15.047 13.193-22.649 5.3027-6.5814 12.47-12.1 12.849-21.308 4.2402-10.956 3.959-22.862 3.7962-34.418-1.2726-10.132 2.9519-20.015 1.9614-30.19 1.364-9.203 2.4185-18.418 2.141-27.739-0.48824-5.2978 2.9179-20.924-5.4954-11.981-5.8071 4.2381 8.5721-5.2462 6.0372-10.502 1.3325-9.0809-5.0184-18.578-0.16373-27.131 2.114-2.9384 4.5166-3.3271 7.3953-1.5119z"/>
		<path id="path467" d="m940.75 530.58c2.3086 8.0556 5.8719 15.977 5.0757 24.565 0.4796 9.3336 2.4474 18.594 4.9884 27.559 6.6184 13.678 10.901 28.558 13.445 43.519 0.14728 9.6061 12.881 12.483 19.983 16.966 8.2239 2.5505 12.003 11.791 20.473 12.788 0.3652 3.4614 13.062 10.009 7.1947 9.6685-4.623-1.2618-13.916-12.762-15.56-4.5031 0.74043 3.0385 5.6641 11.509-1.212 9.1418-4.5704-6.857-0.0845-16.151-9.8386-19.579-5.2677-3.2022-14.545-14.462-19.244-10.878-2.1944 9.1974 5.1193 15.966 9.6174 23.165 6.7161 9.3684 14.315 18.361 18.969 28.965 3.712-2.3263 3.5529-18.639 11.22-9.3635 4.0143 1.4004 11.338 12.27 3.1294 6.3569-3.7528-3.5237-9.1043-5.5777-7.9451 1.8582 1.5884 7.6913 10.982 13.213 16.663 18.874 3.4517 4.2705 17.895 6.1999 13.935 12.105-3.9709-2.2462-8.5054-3.8082-4.1733 2.1523-1.6985 3.4536-8.5113-7.4037-11.811-9.025-6.1447-5.1776-11.578-12.475-18.209-16.385 2.4797 9.3439 2.2021 19.167 2.5482 28.801 3.809 0.10732 13.153 9.0069 4.7525 5.1896-9.8225-3.8112 5.2345 13.143-2.7456 13.153-6.8044-8.0296-5.7934-18.958-7.0239-28.824-0.43664-11.373-1.5713-23.131-10.932-30.848-5.4316-6.6225-10.451-17.091-18.893-16.659-7.2341 2.9503-5.0276 14.289-8.0008 20.811-2.7686 4.2616-2.0803 16.907-2.0941 16.528-0.96554-8.5946-1.2455-17.113-0.84149-25.798 2.5481-10.18-0.89562-20.298-2.2955-30.083 0.2206-4.1615-1.371-10.978-3.1958-2.7305-4.0989 7.3234-10.933 13.368-10.987 21.962-0.83339 3.6456-3.8874 12.181-3.5968 3.4901-0.59007-6.3335-0.41593-15.79 3.0007-19.611 3.7422-6.0534 5.0274-14.284 11.843-19.015 4.5616-7.0846 4.7258-12.98-0.10098-19.923-3.0834-8.0342-4.0679-16.767-7.5539-24.693-2.3796-7.9788-3.8495-15.657-5.7641-23.906-3.3174-5.0481 1.694-16.003-4.5699-21.462-2.8085-5.6804-4.9236-14.418-4.8286-19.199 4.3278 1.1609 12.329-5.4553 14.006-2.2624 0.75132 2.3993 1.1259 4.6116 0.57114 7.1318z"/>
		<path id="path792" d="m179.58 893.94c-0.50073 0.15471-0.66309 0.33627-0.98042 0.65361-0.0545 0.0545-0.12896 0.0945-0.16341 0.1634-0.0244 0.0487 0.0385 0.12489 0 0.16341-0.0385 0.0385-0.11468-0.0244-0.1634 0-0.0689 0.0344-0.10894 0.10893-0.1634 0.1634-0.0545 0.0545-0.12896 0.0945-0.16341 0.1634-0.0244 0.0487 0.0487 0.13905 0 0.16341-0.0974 0.0487-0.22937-0.0487-0.3268 0-0.0487 0.0244 0.0243 0.11468 0 0.1634-0.0344 0.0689-0.12896 0.0945-0.16341 0.1634-0.0244 0.0487 0.0385 0.12489 0 0.16341-0.0385 0.0385-0.12489-0.0385-0.1634 0-0.0385 0.0385 0.0244 0.11468 0 0.1634-0.0344 0.0689-0.12068 0.0993-0.1634 0.1634-0.0676 0.10134-0.0773 0.24069-0.16341 0.32681-0.0385 0.0385-0.11468-0.0244-0.1634 0-0.0689 0.0344-0.10894 0.10894-0.1634 0.1634-0.0545 0.0545-0.12896 0.0945-0.16341 0.16341-0.0244 0.0487 0.0244 0.11468 0 0.1634-0.34002 0.68005 0.0113-0.17468-0.3268 0.1634-0.0385 0.0385 0.0243 0.11469 0 0.16341-0.0689 0.13779-0.25791 0.18901-0.32681 0.3268-0.0244 0.0487 0.0385 0.12489 0 0.16341-0.077 0.077-0.22937-0.0487-0.32681 0-0.33048 0.16524-0.0524 0.3792-0.1634 0.49021-0.0385 0.0385-0.1634 0.0545-0.1634 0s0.1634-0.0545 0.1634 0c0 0.27097-0.22915 0.11457-0.32681 0.1634-0.0434 0.0217-0.46852 0.44683-0.49021 0.49021-0.0244 0.0487 0.0385 0.12489 0 0.1634-0.111 0.11101-0.32497-0.16707-0.49021 0.16341-0.0324 0.0648 0.0334 0.4568 0 0.49021-0.0385 0.0385-0.12489-0.0385-0.1634 0-0.077 0.077 0.077 0.24978 0 0.3268-0.0861 0.0861-0.24069 0.0773-0.32681 0.16341-0.0385 0.0385 0.0302 0.11808 0 0.1634-0.63162 0.94743-0.0786 0.121-0.49021 0.32681-0.0689 0.0344-0.10893 0.10893-0.1634 0.1634l-0.1634 0.1634"/>
		<path id="path794" d="m177.62 923.68c-0.27234 0.0545-0.55354 0.0756-0.81702 0.16341-0.0731 0.0244-0.10894 0.10893-0.1634 0.1634-0.16611 0.1661-0.26086 0.22641-0.32681 0.49021-0.0264 0.10568 0.0487 0.22937 0 0.32681-0.0689 0.13779-0.23437 0.20356-0.32681 0.3268-0.0731 0.0974-0.10893 0.21787-0.1634 0.32681-0.0545 0.10894-0.13387 0.20865-0.1634 0.32681-0.1415 0.56598 0.20691 0.0981-0.16341 0.65361-0.19932 0.29899-0.20833 0.0163-0.3268 0.49021-0.0264 0.10568 0.077 0.24978 0 0.32681-0.077 0.077-0.24978-0.077-0.32681 0-0.12179 0.12179-0.0994 0.33028-0.1634 0.49021-0.0452 0.11308-0.12489 0.21126-0.16341 0.3268-0.0172 0.0517 0.0302 0.11809 0 0.16341l-0.3268 0.3268c0 0.0545 0.0243 0.11469 0 0.16341-0.0344 0.0689-0.10894 0.10893-0.16341 0.1634-0.0545 0.0545-0.0993 0.12068-0.1634 0.1634-0.10134 0.0676-0.24069 0.0773-0.32681 0.16341-0.0385 0.0385 0.0244 0.11468 0 0.1634-0.0937 0.18733-0.34094 0.2273-0.49021 0.32681-0.0641 0.0427-0.10893 0.10893-0.1634 0.1634l-0.65361 0.65361c-0.10894 0.10894-0.19863 0.24135-0.32681 0.32681-0.10134 0.0676-0.22547 0.0958-0.32681 0.1634-0.0641 0.0427-0.0993 0.12068-0.1634 0.16341-0.10134 0.0676-0.22547 0.0958-0.32681 0.1634-0.18854 0.12569-0.30167 0.36452-0.49021 0.49021-0.10134 0.0676-0.22547 0.0958-0.3268 0.1634-0.0641 0.0427-0.0993 0.12068-0.16341 0.16341-0.10134 0.0676-0.22547 0.0958-0.3268 0.1634-0.0641 0.0427-0.0993 0.12068-0.16341 0.1634-0.10134 0.0676-0.22547 0.0958-0.3268 0.16341-0.0641 0.0427-0.0993 0.12067-0.16341 0.1634-0.10134 0.0676-0.24068 0.0773-0.3268 0.1634-0.0385 0.0385 0.0385 0.12489 0 0.16341-0.0385 0.0385-0.12489-0.0385-0.16341 0-0.0385 0.0385-0.0385 0.12489 0 0.1634 0.0385 0.0385 0.10894 0 0.16341 0h0.81701"/>
		<path id="path796" d="m175.87 945.89c0.55126 2.5799-1.0363-0.14382-1.3595 0.1794-0.33809 0.33809 0.51664-0.0132-0.1634 0.32681-0.22539 0.11269-0.14616-0.19789-0.32681 0.1634-0.0244 0.0487 0.0487 0.13904 0 0.1634-0.0974 0.0487-0.22937-0.0487-0.3268 0-0.0487 0.0244 0.0243 0.11469 0 0.16341-0.0345 0.0689-0.12068 0.0993-0.16341 0.1634-0.13512 0.20268-0.19169 0.45094-0.3268 0.65361-0.25027 0.3754-0.0933-0.0701-0.49021 0.32681-0.33809 0.33809 0.51664-0.0132-0.16341 0.32681-0.22539 0.11269-0.14616-0.19789-0.3268 0.1634-0.0244 0.0487 0.0487 0.13904 0 0.1634-0.0974 0.0487-0.22938-0.0487-0.32681 0-0.0487 0.0244 0.0244 0.11469 0 0.16341-0.0344 0.0689-0.10894 0.10893-0.1634 0.1634-0.0545 0.0545-0.0945 0.12895-0.16341 0.1634-0.0487 0.0244-0.11468-0.0244-0.1634 0-0.0689 0.0345-0.10894 0.10894-0.1634 0.16341-0.0545 0.0545-0.12896 0.0945-0.16341 0.1634-0.0244 0.0487 0.0385 0.12489 0 0.1634-0.0861 0.0861-0.22547 0.0959-0.3268 0.16341-0.0641 0.0427-0.0945 0.12895-0.16341 0.1634-0.0487 0.0244-0.12489-0.0385-0.1634 0-0.0861 0.0861-0.0621 0.25925-0.1634 0.32681-0.0906 0.0604-0.22938-0.0487-0.32681 0-0.0487 0.0243 0.0487 0.13904 0 0.1634-0.0974 0.0487-0.22937-0.0487-0.32681 0-0.0487 0.0244 0.0244 0.11468 0 0.1634-0.0344 0.0689-0.10893 0.21787-0.1634 0.16341-0.0926-0.0926 0.94774-0.57736-0.1634 0.1634-0.0453 0.0302-0.10894 0-0.16341 0-0.10893 0.0545-0.24068 0.0773-0.3268 0.1634-0.077 0.077 0.0974 0.27809 0 0.32681-0.0974 0.0487-0.22938-0.0487-0.32681 0-0.0487 0.0244 0.0545 0.1634 0 0.1634s0-0.10893 0-0.1634c-0.10894 0.21787-0.17464 0.4634-0.32681 0.65361-0.0761 0.0951-0.22937 0.0903-0.3268 0.16341-0.12325 0.0924-0.21788 0.21787-0.32681 0.3268-0.0545 0.0545-0.12068 0.0993-0.1634 0.16341-0.0676 0.10133-0.0773 0.24068-0.16341 0.3268-0.0861 0.0861-0.22547 0.0959-0.3268 0.16341-0.12819 0.0855-0.21788 0.21787-0.32681 0.3268"/>
		<path id="path798" d="m154.81 1017.6c0.0426 0.01 1.0556-0.01 1.2446 0.3708 0.0215 0.043 0 0.5682 0 0.6536v1.4707c0 0.04-0.005 0.4849 0 0.4902 0.0385 0.038 0.12489-0.038 0.1634 0 0.077 0.077-0.0487 0.2294 0 0.3268 0.0344 0.069 0.12895 0.094 0.1634 0.1634 0.0211 0.042 0 0.8646 0 0.9804 0 0.06-0.007 0.6471 0 0.6536 0.0385 0.038 0.12489-0.038 0.16341 0 0.007 0.01 0 0.5936 0 0.6536"/>
		<path id="path800" d="m155.07 1010.1c-0.21787 0.054-0.4321 0.1265-0.65362 0.1634-0.10745 0.018-0.21787 0-0.3268 0h-0.49021-0.98042c-0.16341 0-0.32807-0.02-0.49021 0-0.27559 0.034-0.54067 0.1357-0.81702 0.1634-0.27099 0.027-0.54468 0-0.81702 0-0.1634 0-0.32903-0.027-0.49021 0-0.1699 0.028-0.32031 0.1351-0.49021 0.1634-0.2149 0.036-0.43574 0-0.65361 0h-0.1634c-0.0545 0-0.12489-0.038-0.16341 0-0.0385 0.038 0.0385 0.1249 0 0.1634-0.0385 0.038-0.10893 0-0.1634 0-0.10894 0-0.22937-0.049-0.32681 0-0.0487 0.024 0.0487 0.139 0 0.1634-0.0974 0.049-0.3268 0.1089-0.3268 0s0.21787 0 0.3268 0h-0.1634"/>
		<path id="path802" d="m170.27 1016.7c0.21787 0.1089 0.45874 0.1807 0.65361 0.3268 0.0436 0.033-0.0244 0.1147 0 0.1634 0.24915 0.4983 0.12954-0.2988 0.32681 0.4902 0.0264 0.1057-0.0264 0.2211 0 0.3268 0.0295 0.1182 0.12488 0.2113 0.1634 0.3268 0.0344 0.1034-0.0487 0.2294 0 0.3268 0.0344 0.069 0.12895 0.095 0.1634 0.1634 0.0244 0.049-0.0244 0.1147 0 0.1635 0.0345 0.069 0.12896 0.095 0.16341 0.1634 0.0654 0.1307-0.0654 0.3594 0 0.4902 0.0344 0.069 0.12895 0.095 0.1634 0.1634 0.0244 0.049-0.0172 0.1117 0 0.1634 0.0385 0.1155 0.12489 0.2112 0.1634 0.3268 0.0172 0.052-0.0385 0.1249 0 0.1634 0.0385 0.038 0.12489-0.038 0.16341 0 0.0334 0.033-0.0324 0.4254 0 0.4902 0.0344 0.069 0.12895 0.094 0.1634 0.1634 0.0244 0.049-0.0244 0.1147 0 0.1634 0.0344 0.069 0.14472 0.089 0.1634 0.1634 0.0396 0.1585 0 0.3268 0 0.4902 0 0.055-0.0385 0.1249 0 0.1634 0.0385 0.038 0.12489-0.038 0.16341 0 0.18776 0.1878 0.1634 0.289 0.1634 0.4902"/>
		<path id="path804" d="m167 1014.7c-0.80875 0.2355-0.82564 0.3354-1.3072 0.817-0.0545 0.055-0.0945 0.1289-0.1634 0.1634-0.28926 0.1446-0.0558-0.2431-0.32681 0.1634-0.0995 0.1493-0.13948 0.3965-0.3268 0.4902-0.0487 0.024-0.11469-0.024-0.16341 0-0.13779 0.069-0.18901 0.2579-0.3268 0.3268-0.0487 0.024-0.12489-0.038-0.16341 0-0.33808 0.3381 0.51664-0.013-0.1634 0.3268-0.0487 0.024-0.12489-0.038-0.1634 0-0.0385 0.038 0.0385 0.1249 0 0.1634-0.0385 0.038-0.12489-0.038-0.16341 0-0.0861 0.086-0.0773 0.2407-0.1634 0.3268-0.0385 0.038-0.12489-0.038-0.1634 0-0.0385 0.038 0.0243 0.1147 0 0.1634-0.0345 0.069-0.12896 0.094-0.16341 0.1634-0.0244 0.049 0.0385 0.1249 0 0.1634-0.16119 0.1612-0.3268-0.3348-0.3268 0.1634"/>
		<path id="path806" d="m167.32 1026c0.60152 0.1485 1.2175 0.2475 1.8046 0.4456 0.0516 0.017-0.0244 0.1147 0 0.1634 0.0344 0.069 0.12896 0.095 0.16341 0.1634 0.0243 0.049-0.0244 0.1147 0 0.1634 0.0344 0.069 0.13904 0.09 0.1634 0.1634 0.0249 0.075-0.0364 0.5809 0 0.6536 0.0344 0.069 0.12895 0.094 0.1634 0.1634 0.0482 0.096-0.0375 0.3779 0 0.4902 0.0385 0.1156 0.12489 0.2113 0.16341 0.3269 0.0456 0.1369-0.0541 0.5453 0 0.6536 0.0344 0.069 0.12895 0.094 0.1634 0.1634 0.0487 0.097-0.0487 0.2293 0 0.3268 0.0344 0.069 0.12895 0.095 0.1634 0.1634 0.0244 0.049-0.0244 0.1147 0 0.1634 0.0345 0.069 0.12896 0.094 0.16341 0.1634 0.0654 0.1307-0.0654 0.3595 0 0.4902 0.0344 0.069 0.12895 0.094 0.1634 0.1634 0.10277 0.2055-0.23468 0.3268 0.1634 0.3268"/>
		<path id="path808" d="m166.83 1023.8c-0.88307 0.5298-0.59244 0.2656-0.98042 0.6536-0.10894 0.1089-0.20356 0.2343-0.32681 0.3268-0.19487 0.1461-0.45094 0.1917-0.65361 0.3268-0.14875 0.099-0.34538 0.4178-0.49021 0.4902-0.0487 0.024-0.12489-0.039-0.16341 0-0.077 0.077 0.077 0.2498 0 0.3268-0.0817 0.082-0.40851-0.082-0.49021 0-0.0385 0.038 0.0385 0.1249 0 0.1634-0.0385 0.039-0.12489-0.038-0.1634 0-0.0861 0.086-0.0773 0.2407-0.1634 0.3268-0.0385 0.038-0.11469-0.024-0.16341 0-0.19608 0.098-0.29412 0.3922-0.49021 0.4902-0.48086 0.2404 0.21514-0.3785-0.3268 0.1634"/>
		<path id="path810" d="m149.84 1023c-0.73076 0.1543 0.14615 0.6882 0 0.9805-0.20192 0.4038-0.1634-0.056-0.1634 0.3268 0 0.1337 0.0353 0.7111 0 0.817-0.0385 0.1155-0.12489 0.2112-0.16341 0.3268-0.0172 0.052 0.0244 0.1147 0 0.1634-0.0344 0.069-0.13904 0.09-0.1634 0.1634-0.0689 0.2067 0.0974 0.4587 0 0.6536-0.0689 0.1378-0.24135 0.1986-0.32681 0.3268-0.0604 0.091 0.0487 0.2294 0 0.3268-0.0344 0.069-0.12895 0.095-0.1634 0.1634-0.0244 0.049 0.0244 0.1147 0 0.1634-0.0345 0.069-0.12895 0.095-0.1634 0.1634-0.0244 0.049 0 0.109 0 0.1634v0.1634"/>
		<path id="path812" d="m148.04 1020.6c-0.27234-0.054-0.54207-0.1241-0.81701-0.1634-0.10784-0.015-0.21787 0-0.32681 0h-0.98042-3.2681c-1.7086 0 0.0629-0.097-0.98042 0.1634-0.38127 0.095-0.3268-0.1566-0.3268 0.1634"/>
	</g>
	<g id="Stem" stroke="#000" stroke-width="1px" fill="none">
		<path id="path470" d="m200 615.58-4-6.25 10-47h-4l-6.6667 30-3.3333 18-2.25 7z"/>
		<path id="path472" d="m197.5 441.83 0.83333 16.833-0.33333 12.667 1.6667 28-0.66667 8.6667 0.66667 11.333 2.3333 9.6667 1.6667 16 4.6667-8.3333-1.6667-4.6667-1.6667-9-1-11v-10.667l-0.33333-15 1.33-5.33v-19l-1.3333-9 0.0833-10.167z"/>
		<path id="path474" d="m1190.7 736.33-2.6667-18-1-35.667-5.3333-32.333-2.6667-36-2-14.75 2.25-24.25 1.4167-25.333 2.6666-22.333 1.4167-16.583 0.25-39.417-1-22.333-5.5-36-1.25-9-12-22 4.0833 24 2 12.667 1.3334 23.333 1.6666 29.333-1 25.667-2.3333 26.667-0.5 17.083-3.5 27-1.25 18 1.25 27.75 1.6667 20.5 2.3333 24.667 7.3333 75 1.6667 3.6667 6.6667 1.6667z"/>
		<path id="path476" d="m1168 203.33l9.3333-2.3333 2.3334 115.33-13.167-26.25z"/>
	</g>
	<g id="Labels" font-family="Sans" fill="#000000">
		<text id="text334" style="word-spacing:0px;letter-spacing:0px" xml:space="preserve" font-size="10.667px" line-height="0%" y="108.33325" x="204"><tspan id="tspan332" font-size="16px" y="108.33325" x="204">Bud</tspan></text>
		<text id="text349" style="word-spacing:0px;letter-spacing:0px" xml:space="preserve" font-size="16px" line-height="0%" y="763.33325" x="466"><tspan id="tspan347" x="466" y="763.33325">Bud</tspan></text>
		<text id="text353" style="word-spacing:0px;letter-spacing:0px" xml:space="preserve" font-size="10.667px" line-height="0%" y="757.33325" x="721"><tspan id="tspan351" x="721" y="760.39813"/></text>
		<text id="text357" style="word-spacing:0px;letter-spacing:0px" xml:space="preserve" font-size="10.667px" line-height="0%" y="762.33325" x="698"><tspan id="tspan355" font-size="16px" y="762.33325" x="698">Flower</tspan></text>
		<text id="text357-4" style="word-spacing:0px;letter-spacing:0px" xml:space="preserve" font-size="10.667px" line-height="0%" y="173.29028" x="205.83594"><tspan id="tspan355-6" font-size="16px" y="173.29028" x="205.83594">Flower</tspan></text>
		<text id="text379" style="word-spacing:0px;letter-spacing:0px" xml:space="preserve" font-size="10.667px" line-height="0%" y="207.33325" x="105"><tspan id="tspan377" font-size="16px" y="207.33325" x="105">Early</tspan></text>
		<text id="text379-4" style="word-spacing:0px;letter-spacing:0px" xml:space="preserve" font-size="10.667px" line-height="0%" y="1049.802" x="456.25391"><tspan id="tspan377-3" font-size="16px" y="1049.802" x="456.25391">Early</tspan></text>
		<text id="text401" style="word-spacing:0px;letter-spacing:0px" xml:space="preserve" font-size="10.667px" line-height="0%" y="1046.3333" x="689"><tspan id="tspan399" font-size="16px" y="1046.3333" x="689">Early-mid</tspan></text>
		<text id="text401-8" style="word-spacing:0px;letter-spacing:0px" xml:space="preserve" font-size="10.667px" line-height="0%" y="255.802" x="53.160156"><tspan id="tspan399-1" font-size="16px" y="255.802" x="53.160156">Early-mid</tspan></text>
		<text id="text423" style="word-spacing:0px;letter-spacing:0px" xml:space="preserve" font-size="10.667px" line-height="0%" y="306.33325" x="84"><tspan id="tspan421" font-size="16px" y="306.33325" x="84">Late</tspan></text>
		<text id="text423-6" style="word-spacing:0px;letter-spacing:0px" xml:space="preserve" font-size="10.667px" line-height="0%" y="1050.0286" x="1162.4219"><tspan id="tspan421-3" font-size="16px" y="1050.0286" x="1162.4219">Late</tspan></text>
		<text id="text445" style="word-spacing:0px;letter-spacing:0px" xml:space="preserve" font-size="10.667px" line-height="0%" y="1044.3333" x="934"><tspan id="tspan443" font-size="16px" y="1044.3333" x="934">Late-mid</tspan></text>
		<text id="text445-6" style="word-spacing:0px;letter-spacing:0px" xml:space="preserve" font-size="16px" line-height="100%" y="254.29028" x="236.17578"><tspan id="tspan443-3" line-height="100%" y="254.29028" x="236.17578">Late</tspan><tspan id="tspan465" line-height="100%" y="270.29028" x="236.17578">-mid</tspan></text>
		<text id="text469" style="word-spacing:0px;letter-spacing:0px" xml:space="preserve" font-size="10.667px" line-height="0%" y="480.33325" x="211"><tspan id="tspan467" font-size="16px" y="480.33325" x="211">Stem</tspan></text>
		<text id="text469-0" style="word-spacing:0px;letter-spacing:0px" xml:space="preserve" font-size="10.667px" line-height="0%" y="755.14966" x="1165.9961"><tspan id="tspan467-0" font-size="16px" y="755.14966" x="1165.9961">Stem</tspan></text>
		<text id="text491" style="word-spacing:0px;letter-spacing:0px" xml:space="preserve" font-size="10.667px" line-height="0%" y="945.33325" x="203"><tspan id="tspan489" font-size="16px" y="945.33325" x="203">Root</tspan></text>
		<text id="text491-6" style="word-spacing:0px;letter-spacing:0px" xml:space="preserve" font-size="10.667px" line-height="0%" y="759.02856" x="951.94922"><tspan id="tspan489-9" font-size="16px" y="759.02856" x="951.94922">Root</tspan></text>
		<text id="text513" style="word-spacing:0px;letter-spacing:0px" xml:space="preserve" font-size="10.667px" line-height="0%" y="292.33325" x="396"><tspan id="tspan511" font-size="16px" y="292.33325" x="396">Germinating Seed</tspan></text>
		<text id="text517" style="word-spacing:0px;letter-spacing:0px" xml:space="preserve" font-size="16px" line-height="0%" y="475.33325" x="438"><tspan id="tspan515" x="438" y="475.33325">Cotyledon</tspan></text>
		<g font-size="10.667px">
			<text id="text521" style="word-spacing:0px;letter-spacing:0px" xml:space="preserve" line-height="0%" y="466.33325" x="684"><tspan id="tspan519" font-size="16px" y="466.33325" x="684">Young Leaf</tspan></text>
			<text id="text525" style="word-spacing:0px;letter-spacing:0px" xml:space="preserve" line-height="0%" y="463.33325" x="888"><tspan id="tspan523" font-size="16px" y="463.33325" x="888">Senescing Leaf</tspan></text>
			<text id="text529" style="word-spacing:0px;letter-spacing:0px" xml:space="preserve" line-height="0%" y="852.33325" x="416"><tspan id="tspan527" font-size="18.667px" y="852.33325" x="416">Seed Developmental Stages</tspan></text>
		</g>
	</g>
	<g id="Early_Seed_Development" stroke="#000" stroke-width="1px" fill="none">
		<path id="path407" d="m165.75 217.33 1.9167-4.6667 0.66666-4.6667-1.6667-4.6667-5.3333-4.3333-2.3333-3-2.3333-2.3333 0.66666 5.6667v11l1 2.3333 5.4167 4.9167z"/>
		<path id="path409" d="m482.25 999.33 3.4167-4.6667 4.6667-8.3333l10.66-11.33 10.667-18.333 1-16.333-3.6667-9.3333-9.6667-14-6.3333-5-2.6667-2.6667-2.33-10.33-2-3h-2.3333l-2.3333 8-1.6667 6.6667-9.3333 7-9 10.667-4 7.6667-2.6667 9.3333 0.66666 8.3333 1.6667 5.3333 3.6667 10.667 3.3333 5 4.3333 7 5.3333 11.333 2.3333 5.3333z"/>
		<path id="path411" d="m487.67 913.67 12.667 9 4.6667 9.3333 0.33333 7 0.66667 10.333-2 7.6667-2 5.6667-5.3333 9.3333-9 10.667-6 7s-1.3333 1.3333 0-4.3333c1.3333-5.6667 1.3333-6 1.3333-6l5-11.333 2-7.6667 1-17.667-1-11.333z"/>
		<path id="path413" d="m482.67 914.67 3.6667 11.333 2 14.333-0.66666 11.667-4 14.667-5 16-0.66667 5-7-9-5.3333-8-4.3333-11.667-1.6667-14.667 2.3333-9.3333 9.6667-13z"/>
	</g>
	<g id="Early-mid_Seed_Development" stroke="#000" stroke-width="1px" fill="none">
		<path id="path416" d="m140 251.33l3 3 6 1 5.6667 3.3333 3.3333 4.3333 3.6667 6.6667 2.3333 8v6.9167l-5.6667 0.75-5.3333-2.3333-5.3333-3.6667-6-9.3333 1-6z"/>
		<path id="path418" d="m729 993.53 3.6667-8.8667 6.6667-9.3333 10.333-10 7.6667-13 3.6667-21.667-2-13-5.6667-12.667-6.6667-7-11.667-8-2.3333-13.667-1.3333-2-3.6667 2.6667-4.3333 12.333-10.333 9.3333-9.3333 11.333-5.6667 8-3 13v10.333l3.6667 9.3333 6.3333 13.667 6 9.3333 7.3333 11.333 1.4667 7.5333 2.8 0.4 3.6 1.6z"/>
		<path id="path420" d="m733 895 12.667 7.6667 5.6667 8.6667 3.6667 10.667-1.6667 14.333-2.6667 9.6667-6.6667 15-11.333 14-4 5.6667-2.6667 1.3333 2-13.333 7.6667-18 1.3333-20.667 0.33333-10.333z"/>
		<path id="path422" d="m727.67 895 2.3333 7.3333 2.3333 12.333 1 7.6667-1.3333 16-3.3333 14.667-2.3333 11.333-4 12 0.33334 3-10-12l-7.67-15.33-3-14.667 0.66667-15.333 6-10 15-14.667z"/>
	</g>
	<g id="Late-mid_Seed_Development" stroke="#000" stroke-width="1px" fill="none">
		<path id="path427" d="m228 265 0.66667 4 1.6667 3 2 3 2 4.6667 2.6667 6.6667 0.33333 4.3333-0.33333 5-2.6667 8-3.6667 5.6667-5.1667 3-3.1667-3.6667-1.6667-3-1.3333-3-0.66666-4-1-3.3333-1-5.3333v-2.6667l0.33333-4 1.3333-3 2-2.6667 1.6667-3.3333 1-4 1-3.3333z"/>
		<path id="path429" d="m977.67 836.67 3.3333 4.3333 0.66667 15.667 8 6.3333 13.667 10 4.6667 9.6667 6 16.333v19.667l-3.6667 13-8 14.333-12 15.333-7 5.6667-5 10.667-4.3333 8.6667-3-0.2-8-2.6-2-7.8667-5.3333-13-10.667-14-4-11.667-7.3333-13.667 1-20.667 2.3333-8.6667 6.6667-13 13-13 10.333-10 5-11.667 3.3333-8z"/>
		<path id="path431" d="m978.67 862.33 8.3333 4 6 6 7.3333 8.6667 4.6667 9.3333 1.6667 12.333-0.6667 9-3.3333 14-9 19.667-9.6667 11-9 10-4.6667 4.6667 4.3333-15.667l6.31-13.33s-1.3333 11 1.6667-16.667 2.6667-27.667 2.6667-27.667l-2-10.667z"/>
		<path id="path433" d="m973.33 863.67 1.6667 5 2 9.6667 2.6667 16.667 1 17.333-2.6667 13.333-7.6667 23.667-2.3333 14-0.33333 2.3333-6.6667-5.6667-6.3333-7.6667-5-8.6667l-5.67-14.66-4-21.333 2.6667-13 4.6667-9.6667 21-17.667z"/>
	</g>
	<g id="Late_Seed_Development" stroke="#000" stroke-width="1px" fill="none">
		<path id="path436" d="m1171 811.33-3 5 4 13.333-1.6667 8.3333-12.333 21-12 16.333-2.6667 12.667 1 18 2.6667 12 5.6667 15.333 8.6666 16.333 10 19.667 2.2667 17.8 12.2-0.2 0.8667-7.9333 1.6666-6.6667 3.3334-7.6667 12-19 9.3333-16.667 9-18.333 3-20.667-1.3333-18.667-6.6667-11.333-11.667-14-12.667-12-6.6667-9.6667-0.3333-5-0.6667-3-4 1-1.6667 0.33334-3.3333-2z"/>
		<path id="path438" d="m124.33 280c5.3333 6 5.3333 6.3333 5.3333 6.3333l11.667 8 10 8.6667 8 16-5-3.3333h-3.33l2 6.4167-10-2.75-0.66667 11.667-5.3333-3.3333-3.6667-4.6667-3.3333-8-0.66667-6.3333-1.3333-17-4-8z"/>
	</g>
	<g id="Buds" stroke="#000" stroke-width="1px" fill="none">
		<path id="path373" d="m188.75 125.71 0.5 4.375h3.375l-0.125 3.875-0.875 3-1.25 4.5-1.875 2.375-2.25 1.25-0.625-1.5-1.125-3.125v-1.375l-0.25-6.375 1.5-2.625z"/>
		<path id="path375" d="m202.62 125.21 1.375 3.875 1.5 0.375-0.875 2.875-1.75 5.125-2.25 3.5-2.125 2.875-3.25 0.75-0.125-2.125-0.125-3.5 1.875-4.5z"/>
		<path id="path380" d="m477.75 532.33-2.5 4-0.5 5 1.75 5.75 2.5 1.5h4.5l3.5-2.5 1-7-1.25-2.75-2-2-2-1.5-2.5-0.75z"/>
		<path id="path382" d="m487 546.08-1.5 30.75 1.75 6.25 4.25 12 7 19.5 2.75 12.25 3.25 15.75 2 16.5-1.5 10-4.5 19.5-4.5 11.5-4.25 6.25 1.75 0.25 2.5 2.75-1 2.5-4.5 2-2.5 2-5.5 2.5-7-0.25-4-2-7-2-2.25-2.75 0.5-2 2.25-2.25-8.25-21.25-6-26.75 0.75-20.5 10.25-31.5 7.5-18.25 2.75-11.25 1.75-17 2.75-13.5 2.5 1.5h4.5z"/>
	</g>
	<g id="Flower" stroke="#000" stroke-width="1px" fill="none">
		<path id="path378" d="m216.12 130.71 0.75 3.5 5.125-0.75 0.125 2.5-4.125 5 6.75 0.875 1.125 1.75 0.125 1.25-1.875 2.125-1.625 2.5-7.125-1.5-12.625 8.5-2.625 1.5-2.875 0.375-3.25-1-0.375-2.375 2.25-3.25 4.125-4.625 5-3.125 3.125-2 1.625-3.375 1.5-3.5 2.125-3z"/>
		<path id="path386" d="m728.75 743.33 1-57 3.75-4.5 4.5-4 4.75-10.25 2.75-11.25 0.25-20 8.25 9.25 5.25 8 9 2.75 5.5 1 4.75 2.5 8.25-0.5 5.25-3 2.25-8.5 0.25-9.25-1.25-7.25-5-9.75-8.75-8.5-10.75-4-8-0.75-15.25 0.75-2.25 1-0.5-3.25 6.5-4.75 34.75-22.25 7-8.75 2.25-6.5-1-11.75-3.75-5.75-5.75-2.75-12.25 0.75-10 3.5-10.25 7.25-6.75 10-4.25 12.75-1.5 8-3.5-1-3.5 0.75-1 11.75-2.25 0.75-0.75-5.75-6.75-6.75-0.25-16.75-5.75-14.25-4.75-7.25-12.25-7.25-14.25-4-6 2.25-5.75 6-2.75 19.5 1.25 8.5 3 4.25 8 10 29.25 18v3.75l-16-0.5-5.5 4.25-8.25 3.25-10.75 1.25-6.75 5-5.25 6.5-1 8.5 0.25 9.5 2.5 7.75 5.25 5.5 4-0.25 9.75-7.25 9.5-3.25 4.5-1 5.5-2.5 5-6.25 1 19.75 2.75 9.75 2.5 6.5 6 5 5.5 5-0.25 59.75z"/>
	</g>
</svg>
