<?xml version="1.0" encoding="UTF-8" standalone="no"?>
<svg
   xmlns:dc="http://purl.org/dc/elements/1.1/"
   xmlns:cc="http://creativecommons.org/ns#"
   xmlns:rdf="http://www.w3.org/1999/02/22-rdf-syntax-ns#"
   xmlns:svg="http://www.w3.org/2000/svg"
   xmlns="http://www.w3.org/2000/svg"
   xmlns:sodipodi="http://sodipodi.sourceforge.net/DTD/sodipodi-0.dtd"
   xmlns:inkscape="http://www.inkscape.org/namespaces/inkscape"
   height="800"
   width="1066.7"
   version="1.1"
   viewBox="0 0 1066.6667 800"
   id="svg424"
   sodipodi:docname="Solanum_lycopersicum.svg"
   inkscape:version="0.92.2 (5c3e80d, 2017-08-06)">
  <metadata
     id="metadata430">
    <rdf:RDF>
      <cc:Work
         rdf:about="">
        <dc:format>image/svg+xml</dc:format>
        <dc:type
           rdf:resource="http://purl.org/dc/dcmitype/StillImage" />
        <dc:title></dc:title>
      </cc:Work>
    </rdf:RDF>
  </metadata>
  <defs
     id="defs428" />
  <sodipodi:namedview
     pagecolor="#ffffff"
     bordercolor="#666666"
     borderopacity="1"
     objecttolerance="10"
     gridtolerance="10"
     guidetolerance="10"
     inkscape:pageopacity="0"
     inkscape:pageshadow="2"
     inkscape:window-width="1920"
     inkscape:window-height="986"
     id="namedview426"
     showgrid="false"
     inkscape:zoom="4.72"
     inkscape:cx="426.89369"
     inkscape:cy="274.15896"
     inkscape:window-x="-11"
     inkscape:window-y="-11"
     inkscape:window-maximized="1"
     inkscape:current-layer="Mature_Green_Fruit" />
  <g
     id="Lines"
     transform="translate(-193.92 28.141)"
     stroke="#000"
     stroke-width="1px"
     fill="none">
    <path
       d="m603.2 77.6 10.8 2 4 0.4 3.2 2.4h2l3.6-3.2-5.2-0.8-5.6-1.6-4.4-0.4-3.6-2-6.4 1.2z"
       id="path2" />
    <path
       d="m644.8 95.6 8 8.4v-6.8l5.2-8.8 8-10.8 9.6-8.4 6.8-5.2 6.4-1.2 4.8 1.2 0.8-2.4 9.6 0.4 3.2-2 13.6 0.4 2.4 2.4-1.2 0.8-10.8-0.4v1.6l-3.6 1.6-1.6-1.6h-6.8l-8.8 1.2-7.2 2 0.8 2.4-1.2 2.8-5.6-0.8-10 11.2-4.8 9.2-5.2 6.4-2.4 9.2-0.4 3.2 5.2 8.8 5.2 1.2 2.4-1.6v-5.6l2.8 3.2 2.4-2.4 0.8 2.8-3.2 3.6 0.8 0.8 3.2 0.8-0.4 0.8-6 3.2-0.4-4.8"
       id="path4" />
    <path
       d="m672.8 129.2 0.4 8.4"
       id="path6" />
    <path
       d="m667.6 127.2"
       id="path8" />
    <path
       d="m667.6 139.6v-12.4"
       id="path10" />
    <path
       d="m662 127.6 5.6 12"
       id="path12" />
    <path
       d="m673.2 137.6 11.2-6 7.2-2.4 10.4-10 14.4-11.6 10.8-8.8 14-6.8 11.6-2.8s6 4 2.8 4-2.8 1.2-2.8 1.2l-8 0.4-13.2 6.4-10 8.4-9.6 7.2-12 19.2"
       id="path14" />
    <path
       d="m673.2 137.6-5.6 2 5.2 3.6 0.4-5.6 9.2 8.4 9.2 6.8 1.6-3.2-10.8-5.2"
       id="path16" />
    <path
       d="m672.4 152.4v4.4l10-10.8 4.8 3.6-7.6 8-3.2 8.4-2.4 7.2-1.2 6v3.6l0.8 5.2 0.8 15.2 4.8 17.2 0.4 15.2 4.4 15.6 1.6 17.2 11.6-4 15.2-11.2 8.8-5.2 7.2-4.4 14.4-7.6 11.6-4.4"
       id="path18" />
    <path
       d="m770 225.6 8.4-2 9.2-0.8 10.4-1.2 0.4 3.6-6.8-0.4-8 1.6-10.8 2z"
       id="path20" />
    <path
       d="m755.6 235.6-13.2 4.8-13.2 8.8-17.6 11.6-11.6 9.6-5.6 2.4-2.8 1.6-1.2 4-18 51.2-2.4 6.4-4.8 25.6 12.8-5.6 9.6-1.6 10-2.8 7.6-0.4 10.8-3.6 8.4-2.8 7.2-8.8 4.8-0.8s17.2-10.8 15.6-5.6l-1.6 5.2-13.6 2.4-8.8 8.4-4.8 3.6 0.8 3.6-1.2 0.8-3.2-2-8 1.2v5.6l-2.4-0.4-2.8-3.2-4 0.8v4.4l-2.4 1.2-3.2-2.4-5.6 0.4 2.8 6.4-2.8 0.8-5.2-6.4-0.4 5.6h-2.4l-1.2-3.6-4.8 1.6-0.8 4.4-2 1.6-0.8-4.4-8 3.6"
       id="path22" />
    <path
       d="m665.6 368.8-0.4 4.4-3.6-1.6-2.8 3.2-2.4 8-1.6 7.6-1.6 8-0.8 24.8 1.6 4.8 0.8 18 14.4-7.2 24.4-10 24-10 9.2-0.4 5.2-4.8 4 1.6"
       id="path24" />
    <path
       d="m791.6 408.8 10 1.2 11.6 2.4 7.6 2.8 11.2 5.2 10.8 3.6 2.4-0.8 1.6 1.2v4"
       id="path26" />
    <path
       d="m842.8 428.4v-4.4"
       id="path28" />
    <path
       d="m853.2 434.8 6-4-2.8-2.4h-3.6v-2.8l0.8-2.8-6.8 1.6v4"
       id="path30" />
    <path
       d="m852.8 428.4-3.6 3.6"
       id="path32" />
    <path
       d="m842.8 428.4-11.2-2.8-5.6-1.6-10-3.6-7.2-4.8-5.2-1.6-0.8 4.4-4-0.4-0.8-3.2-12.8-2"
       id="path34" />
    <path
       d="m798 414.8 5.6-0.8"
       id="path36" />
    <path
       d="m735.6 419.6-3.2-0.4-10.8 4.8-6.4 1.6-20.4 7.2-10.4 6-11.2 4.4-10 7.2-6.4 5.6-1.6 4.4 0.4 4.4 6-1.2 16.4-4.4 12-2.4 8.8-2.4h11.6l4.8-2"
       id="path38" />
    <path
       d="m731.6 450 3.2-2 16.8 1.2 1.6-1.6 1.6-1.2 3.2 2 5.6-2.4 4 4.4 1.6 2.8-2.4-1.6-6-0.4-2.8 1.2-0.8 1.2-3.6-1.2h-17.6l-4.4 2-6.8 1.6-4 0.4-1.6 1.2-2.8-0.8-3.6 1.6-8.8-0.4-6.4 2.8"
       id="path40" />
    <path
       d="m704 458-12 4.4-10 1.2-23.6 8-4 5.6-2 15.6 1.6 11.6-1.6 33.2 1.6 9.2-1.2 19.2 4.4 16 5.2 12.8 14-17.2 0.8-5.2 8-6.8 4.8-12 13.2-10.4 5.2-3.2v0.4"
       id="path42" />
    <path
       d="m713.2 529.2 6.8-2.8 7.2-2.4 4.8-5.6"
       id="path44" />
    <path
       d="m736.8 514.8 6.8-4.8h1.2l-1.6 3.6-12.4 13.2"
       id="path46" />
    <path
       d="m719.6 536.8-11.6 8.4-5.6 7.6-20.4 27.6-15.2 22-1.2 4.8-22.8 1.6-7.6-28-3.2-24.4-20.4-10"
       id="path48" />
    <path
       d="m594 540.4-4.8-2-5.2-0.8"
       id="path50" />
    <path
       d="m560 535.6-9.2-0.4"
       id="path52" />
    <path
       d="m528.4 542-7.6 3.2-4.8 2.4-0.8 2"
       id="path54" />
    <path
       d="m499.6 551.2 3.6-4.4"
       id="path56" />
    <path
       d="m509.2 542.4 12.8-4.4 8.4-0.8"
       id="path58" />
    <path
       d="m548.4 531.6 14.8-1.2 2.8-1.2"
       id="path60" />
    <path
       d="m572 529.6 22.8 3.2-1.6 0.8"
       id="path62" />
    <path
       d="m609.2 537.6s13.2 10 19.2 8.8l6-1.2-2-36 5.2-16.4-12-7.2-4 1.6 0.8-9.6-1.2-2-4.8 7.2-2-3.6 2-4.8-4.8 2.4-0.4 2.4-0.8 4.4-1.6-8-2 0.8-1.6 3.6v4.8l-0.4-3.6-1.6-0.8-2.8 4-1.2-5.2-2-2-1.6 2.8-3.2 2.4v-3.6l2.4-4.4-4.8 1.6-1.6 3.6v2.8"
       id="path64" />
    <path
       d="m584 482.8v-6.4l4.4 6"
       id="path66" />
    <path
       d="m584 476.4 4.8-4.8-0.4-1.6-4 2-2-6-3.6 4.4-3.2-6.8-3.2-2.4-0.4 2.4 2 6.4-1.2 3.2-2.4 1.6-3.2-4.8-1.6-0.8-0.8 8.8-3.6 0.4-4-5.6 1.6 8"
       id="path68" />
    <path
       d="m622.4 477.6 10.8 4.8 2.8-0.4 1.2-38.4 2-13.6v-12.8l-6.4-4-2.8 1.2-2-2.8 2.8-8.8-6.4 6.4"
       id="path70" />
    <path
       d="m615.6 404 1.6-7.2-3.6-0.8-0.4-2.4-2 8v2.8"
       id="path72" />
    <path
       d="m611.2 401.6-2.4-3.2 0.4-7.2-2-3.2-1.6 12-1.6-1.6-2.4-9.2-2.8 9.6-0.4 1.6h-8.4l-2-4-3.2 3.6-2.8 0.4-2.8-6.8-0.8 6.4-2.8 1.2-1.2-2.4-2.8-0.8-0.4-4-3.6 4-0.4 5.6-3.6 0.8-3.2-3.2 2.8 7.6h-0.4"
       id="path74" />
    <path
       d="m576 405.6-0.4-4.4"
       id="path76" />
    <path
       d="m580 405.2 2-4.8"
       id="path78" />
    <path
       d="m583.6 408 3.2-3.2 16-1.6 1.2 2.4"
       id="path80" />
    <path
       d="m630.8 402.8 8.8 6.8 2.4-10.8-0.8 1.2"
       id="path82" />
    <path
       d="m617.2 396.8 7.6 3.6 6 2.4"
       id="path84" />
    <path
       d="m596.4 374-16-0.4-7.2 3.2-10.8 2.4-9.6 2.4-3.2 2.4v-0.8"
       id="path86" />
    <path
       d="m534.8 388.4-16 15.2"
       id="path88" />
    <path
       d="m546.8 379.6 16-4.8 14.8-4.4 18.4-0.4"
       id="path90" />
    <path
       d="m632 377.2 8.4 4 5.2-2.4 7.6-28.4 8-28.4 9.2-18.8 6-20.4 0.4-31.6-4.8-18.4-3.6-10h-4.8l-23.6-10.4-6.4 2-10.8 2.8-4 4.8-6 4.8-4 4.4-8 6.4-4.8 8-0.4 2-3.2-1.2-1.2-4.4 7.2-6.4 6-6.4 5.2-4.4 4-6 18.4-9.2 2-2-6-10 2.4-0.8 8.8 8.8 10.8-8 12-1.6 5.6-0.8"
       id="path92" />
    <path
       d="m667.6 218.4-4.4-4.4-9.6-3.6-3.6-0.8-5.2-2.4-0.4-1.2 6.4-2.8 6-3.2h8l2 2.4z"
       id="path94" />
    <path
       d="m667.6 195.2 0.4-7.6-0.4-28.8-2.4-6.4-1.6-8.4-6.4 0.8-3.2 9.2-6 3.6v-8l2.4-4.4-0.8-1.6 2.8-4.4 10.4 0.8-6.4-15.2-3.2-7.6-9.6-16.8 1.2-4.8"
       id="path96" />
    <path
       d="m608 74.4 6.4-10 9.2-8.8 0.4-0.4"
       id="path98" />
    <path
       d="m597.6 73.2-6.4-0.4-3.6 0.4-2 1.6-3.6 1.6-3.6 2.4-7.2 4"
       id="path100" />
    <path
       d="m607.2 79.6-2.8 5.2-1.2 2.4v1.2l-2 3.2-0.4 3.6-0.8 2.4-0.8 2.8-0.8 4.4v3.6"
       id="path102" />
    <path
       d="m634 78.4 0.8 3.6-1.2 4v3.2l0.4 4.4v8.4"
       id="path104" />
    <path
       d="m767.6 89.2-1.2 5.2-3.2 4.4-3.2 6-2 3.2-3.2 6.4-2.8 5.2-1.2 4.4-0.8 5.6"
       id="path106" />
    <path
       d="m797.2 95.2 7.6 2 3.2 3.6 5.6 3.6 5.6 5.6 8 8.4 3.2 6"
       id="path108" />
    <path
       d="m681.2 134v4.8s5.2-4 3.2 0.8-3.2 0.4-3.2 0.4l1.2 4.4"
       id="path110" />
    <path
       d="m628 197.6-9.2-9.2-9.2-2.8-9.2-6.4-8.4-0.8-5.2-1.6"
       id="path112" />
    <path
       d="m604.4 229.2-5.2-4.4-8.8-3.2-7.6-0.8-8.4-1.2-11.6 2.4-8.4 3.6-9.6 5.6-9.6 6.8-4 4.4-2.8 4.4"
       id="path114" />
    <path
       d="m617.6 237.6 5.6 7.6 4.4 4 5.6 8.4 5.2 3.2 2.8 5.6 5.2 7.6 2.8 7.2 6 7.2 6.8 6.4 8.4 8.4"
       id="path116" />
    <path
       d="m592.4 246.4-2.8 6v15.2l-1.2 5.6-4.4 11.2-2 8.8-4.8 12.8 1.6 28"
       id="path118" />
    <path
       d="m589.6 267.6 4-8.4v-7.6l2.4-6"
       id="path120" />
    <path
       d="m763.2 222v-5.2l-0.4-2.4-0.4-12 0.4-10.8-2-7.6-1.2-9.2"
       id="path122" />
    <path
       d="m804.4 218 17.6-22.4"
       id="path124" />
    <path
       d="m810.8 224 1.2 6 0.8 6-0.8 3.6-1.6 5.2-0.8 4-1.2 5.6-0.4 3.2"
       id="path126" />
    <path
       d="m766.4 232v6.8l-0.4 4.8-0.8 4-2.4 6-1.6 2.4-3.2 7.2-1.2 7.2s-1.2 10-1.6 10.4-2 11.2-2 11.2l-2 7.2-0.8 4.8v5.2"
       id="path128" />
    <path
       d="m688.4 72.8 4 0.8 6 3.2 3.6 3.2 0.8 2 2.8 4.8-6-0.8-6-2.8-3.2-1.2-2-2.8-2-1.2v-1.2"
       id="path130" />
    <path
       d="m714.8 68.8 4 5.6 2.4 4 0.4 1.6-4-0.8-2.8-2.4-2-2.4-0.8-2.4-0.8-1.2"
       id="path132" />
    <path
       d="m759.2 332.4v3.6"
       id="path134" />
    <path
       d="m784 384.8c-3.2 6-3.6 6-3.6 6l-1.6 2.8-5.2 4.8-4.4 3.6-4 4-4.8 4.8-3.6 3.6-4.8 4.4-3.2 3.6-4 4.8-1.2 4.8-3.2 2.8"
       id="path136" />
    <path
       d="m598.4 361.6s3.6 2 9.2 5.2l5.6 3.2 4.4 4.4 4.4 4.4"
       id="path138" />
    <path
       d="m546.8 379.6-5.6 9.6-0.8 3.2-2 2.8-1.2 7.6-1.6 7.2-1.2 10.4 2.4 10.8 2.8 5.2 2.8 6.8 2.8 6"
       id="path140" />
    <path
       d="m544.8 497.6-0.4 3.2 0.4 5.2 2 6 2 2.8 1.2 2.8"
       id="path142" />
    <path
       d="m482.8 516.4 2.4 5.6 3.2 4 3.2 4 4 3.6 2.4 1.6"
       id="path144" />
    <path
       d="m600.8 536.4 1.2 4"
       id="path146" />
    <path
       d="m565.6 535.2 3.2 3.2 3.2 4"
       id="path148" />
    <path
       d="m542.4 533.6c-2 1.6-2-0.8-2.4 1.6l-0.4 2.4 3.2 5.2 3.6 3.6"
       id="path150" />
    <path
       d="m511.2 552.4-1.2 8.4-0.8 9.2v8.4l0.8 10.4"
       id="path152" />
    <path
       d="m491.2 562.8z"
       id="path154" />
    <path
       d="m491.2 562.8-3.2 6-0.4 4.4-1.2 3.2-4.4 4.4"
       id="path156" />
    <path
       d="m800 648.8 5.6-4.8-4.8-3.2-1.6-1.6-2.8-2.4-4.4-3.6v-2l6.4 0.8 4.4 4.4 4.4-0.4s-2.4-7.6 0.8-4.8 3.6 2.8 3.6 2.8l3.2-4 2.4 6.8-0.8 3.2v2.8l14.4-5.2h2l-0.8 2.4-2.4 3.6-8.8 0.4-2.4 0.8 11.6 6 2.8 6.4-0.4 2.4-8-4.8-8-4-4-4z"
       id="path158" />
    <path
       d="m905.6 642-6.4-4-4.4-4.4-1.2-2h5.6l5.6 4.8 2 1.6 3.6-5.2v-1.6l3.2 2.4 2.8-2.8 2 6-1.2 4.4 9.6-1.6 8-2.4v2.8l-2 1.6-12 4 9.6 4.8 4.8 8.4-5.2-2-9.2-4.8-7.2-6-6.8 2h-4.4z"
       id="path160" />
    <path
       d="m1019.2 642.8-2.8-2h-2l-3.6-0.8-6.4-8 0.8-1.2h4.4l7.2 5.6 2 0.8 3.2-4.8 2-0.4 3.6-2s4-10.8 2.4 0.4l-1.6 11.2 6.8-1.6 8.4-2.4h2l-0.4 3.6-5.2 2-5.2 0.8-2 2 10.4 5.6 2.4 4.4v2l-10.4-4.8-6-2.8-3.6-4.4-3.2 1.6h-8.8z"
       id="path162" />
    <path
       d="m1003.2 576-3.6-17.2-4.4-10.8-0.4-7.2"
       id="path164" />
    <path
       d="m999.6 543.2 2.4 7.6s2.4-0.4 3.2 6l0.8 6.4 3.6 12.4-6.4 0.4"
       id="path166" />
    <path
       d="m994.8 533.2 9.2 5.2"
       id="path168" />
    <path
       d="m985.2 528-6.4 12 1.2 4-3.2 4"
       id="path170" />
    <path
       d="m990.8 534-2.4-12-8-28-2-2-6.8 6.4-3.6-0.4 10-8.8 0.8-6-2.4-6.8-2-8.8-1.2-6.8v-8.4l-2-10.4-1.6-8"
       id="path172" />
    <path
       d="m939.6 540.8 5.6-8.4 6-7.6 8.4-10 8.4-16.8"
       id="path174" />
    <path
       d="m916 465.2 9.6-6.8 12.8-8 14.4-8 12.4-9.6 4.4 1.2"
       id="path176" />
    <path
       d="m965.2 432.8 4-4.8 2-5.2-0.4-8.4-1.6-7.6v-11.6l2.8-10.8 2-0.4 1.2 0.8"
       id="path178" />
    <path
       d="m974 384 1.6-9.6 4.8-9.6 2.8-11.6 5.2-13.2 4.8-14.8 5.6-11.2 2-2.8"
       id="path180" />
    <path
       d="m974.8 398.8-0.8-3.6v-3.6l1.2-6.8"
       id="path182" />
    <path
       d="m981.2 399.2 11.2-0.8 5.6-2 10-3.2 10-7.6"
       id="path184" />
    <path
       d="m976 419.6-2.61-4.51 0.21-9.89v-4.8l1.2-1.6"
       id="path186" />
    <path
       d="m974 426 0.4 4.4 0.8 6.4 0.8 6 2 2 12.4-0.8 15.2 0.8 14.8-3.2 10-2.4 8.8 1.2"
       id="path188" />
    <path
       d="m978 444.8-1.6 4.4 1.6 5.6v8l0.8 5.6 2.8 5.2-0.4 3.6 3.2 6.8 1.6 7.2 0.4 3.6 0.8 5.6 2 4 7.6 3.6 7.6 1.6 10.8 3.6 4 1.2 11.6 0.4"
       id="path190" />
    <path
       d="m996.4 528.8-1.6-4.4-1.6-6-1.2-4-0.8-3.6-2-6.4"
       id="path192" />
    <path
       d="m777 483c14-28 14-29 14-29"
       id="path194" />
    <path
       d="m510 116 108 29"
       id="path196" />
    <path
       d="m836 89-92-11"
       id="path198" />
    <path
       d="m905 257c0 344-2 344-2 344h-148"
       id="path200" />
    <path
       d="m765 675 20-7"
       id="path202" />
    <path
       d="m872 634 10 21"
       id="path204" />
    <path
       d="m963 673c30-9 29-9 29-9"
       id="path206" />
  </g>
  <g
     id="Leaves"
     transform="translate(-193.92 28.141)"
     stroke="#000"
     stroke-width="1px"
     fill="none">
    <path
       d="m603.2 66.8v-5.6l8.4-6.8 4-1.6 6-2.8 3.6 0.4 3.2 2.4 2 6.4-1.2 6.8-6 4.8-2.8 2.4h-8.4l-4.8-1.6z"
       id="path209" />
    <path
       d="m598.8 75.4h-2.4l-8.6 11.4-3.8 1.6-1.2 1.4-1.2 1-4.6 1.2-3 1.4-1 1.6-1.4 2.6-1.2 2.8-1.4 2-3.4 2.6-2.8 3-2 3.6-1 2.2-1.6 2.2-1.2-1.6-0.6-6.8 1.2-4 3.2-8.4 3.4-5.2 3.4-7 8.6-7.2 5.8-4.6 4.2-2.2 4.6-1 4.6 0.2 2.8 0.8 3 2.6-0.2 1.8z"
       id="path211" />
    <path
       d="m598.8 75.4 0.2 3.8-3 0.8-4.4 7.8-2.8 6-0.4 4.8-0.8 8 5 4.8-0.4 2.8v3.6l2.6 0.2 3.8-3.4 3.4-5.4 4.4-5.6 3.2-4.4 3.2-2.8 2-10.2-1.8-3.2-3.4-3.8-6.4-1.6z"
       id="path213" />
    <path
       d="m628.2 72.2 2.6-2.2 4-1.4h2.8l1.4 0.4 2.4-1.8 1.8-0.4 0.8 2.2-1.8 9.2 1.8 4.4 1 6.2-0.2 6.8-1.2 4.8-2.2 6.8-2.4 5.6-3.4 4.4-1.6 0.4-2-2.6-3.6-2-1.8-1-1.4-7.2-1-5-0.2-4.2-1.2-4.8v-2.8l-0.2-2 0.6-3.6 3.6-3.2 3.8 0.2 3.4-1-2.6-2.4-3.2-2.6z"
       id="path215" />
    <path
       d="m769.6 67.4c2.0267 0.14998 3.7539-0.36017 4.9159-2.1159 1.8436 0.62732 3.6323 2.0679 5.0841 3.5159 1.8766-0.71266 3.8084-2.2162 5.6505-2.433 1.4885 0.56374 3.202 3.3986 4.4139 1.1686l5.34-5.336c4.0281 0.08582 8.1084 0.87348 12.038-0.36753 1.9905-1.0809 3.3022 0.44864 4.6819 1.7166 2.2216 1.814 4.1642 4.1113 7.1176 4.6577 2.4801 1.002 5.2232 1.6177 7.5555 2.8245l4.8073 5.7687c-0.62955 2.2947-2.6542 1.7602-4.5042 1.5797-7.62-0.226-15-2.294-22.52-3.316-5.06-0.934-10.26-0.26-15.38-0.464-2.5888 0.95693-5.2429 1.8065-7.0922 3.9807-2.4421 2.4159-5.5427 4.2132-7.8002 6.7457-1.8915 2.1875 2.1892 1.0933 3.4998 1.5212 1.7932-0.02809 3.5183 0.32179 5.1926 0.9525 2.0518-0.85361 3.9338-2.8895 6.2664-1.7867 1.872 0.44882 3.8798 0.50171 5.5336 1.5867-1.2058 1.0864-3.0779 3.1548-1.4799 4.5034 1.4937 1.5833 3.3018 0.75955 5.0729 0.21854 3.5356-0.70292 6.7761-2.1627 9.8937-3.9379 1.555-1.4615 3.345-0.62813 5.104-0.09766 1.8454 0.99008 1.8386 3.4534 2.2092 5.3137 2.2427 0.17228 4.1836 1.1252 6 2.4 0.77654 2.1569-1.2415 2.959-2.225 4.3-0.22311 1.8495-0.48511 4.439 1.8077 4.9705 2.2801 1.2245 5.0445 2.547 5.3789 5.4143 1.2727 2.4121 1.0714 5.0776 1.0384 7.7152 2.2068 4.1512 4.5476 8.3314 6.2 12.701 0.2736 5.5785-0.68973 11.129-0.2 16.699-1.5114 3.6223-2.3705 7.5339-3.9453 11.093-3.1444 4.2253-5.5639 9.0302-8.9161 13.056-1.5692 1.162-3.2896 1.7545-5.2481 1.4506-2.3834 0.85352-2.327-1.6765-1.7521-3.2667 0.69892-2.581 3.1962-4.2758 4.6633-6.4783 2.1123-2.0383 1.7347-5.291 2.635-7.9204 0.1452-4.0656-1.5798-8.0449-3.2622-11.714-1.9345-3.8594-1.5849-8.2337-1.5745-12.421-1.207 2.3882-2.5451 4.7268-3 7.4-1.3464-1.1708-3.5898-1.8168-3.2174-3.9932-0.23514-2.7053-0.61651-5.3832-1.6003-7.9074-0.2642-2.2096-0.007-4.6464-0.59041-6.717-2.2359-2.323-4.2554-4.9248-7.3406-6.1536-1.4765-1.0036-3.8013-1.3723-3.6575-3.5889-0.31826-1.8935 1.1618-3.7144 1.7788-5.4866 2.2195-1.3818 0.16204-3.2122-1.6112-2.418-2.1052 0.605-4.0756 1.9912-6.0492 2.576-1.9902-0.15719-3.1477-1.5141-4.1478-3.0977-0.008-1.5543-0.29427-3.9151 0.7057-5.1899 1.8527-1.2475 3.387-2.4356 0.23322-2.7491-2.1653-1.0167-4.4695 0.36092-6.7034 0.52525-0.6239-2.0643-2.1124-4.1046-4.4949-3.9759-2.845-1.1902-1.4773 1.6692-1.3416 3.3443-0.005 2.8283 1.1563 5.8978-0.5669 8.421-0.61552 1.9147-1.785 3.4242-3.3965 4.6106-1.1898 2.9329-1.8989 6.0474-2.7696 9.0487-2.8195 3.5021-4.4132 7.6891-6.2304 11.751-2.4648 2.5034-4.136 5.5311-5.6053 8.6922-2.0044 4.7528-5.9512 8.2348-8.9947 12.308-2.6998 1.6551-5.3918 3.3289-8.5758 3.8298-1.4904 0.10714-1.8992-2.7856-2.402-4.0868-1.6307-4.6119-0.98442-9.5477-1.2222-14.347 0.20592-2.685-0.68492-5.635 1.1002-7.9382 2.8504-5.6863 6.0292-11.282 7.6998-17.458 1.8667-0.93333 3.7333-1.8667 5.6-2.8v-8.4l6-5c-0.41021-1.2929-3.8987-3.6209-1.4484-3.9519 2.0161-0.61604 4.0322-1.2321 8.7484-11.448 4.0497-11.327 5.4325-12.007 6.9-10z"
       id="path217" />
    <path
       d="m762 163.8 1 3.8 2.6 4.6 3 6.8 0.6 6.2 1 4.4 2.8 2 3.2 0.8-0.4 2.4-1 1.8 0.4 3.4-0.4 3.8-3.8 2.6-1.8 2.8-0.4 2.8v3l-2 3.2-3.6 3.8 0.8 4.8h2.6l3.4-1.2 2.8 2.8-1.2 2.4v2.8l1.8 1.2 5 1.2 2.2 1.4 0.8 2.6-4.6 2.6-1.4 2.6-0.6 8.2 0.6 3.8 1.6 4.6-1.4 4.8-2.2 3.6-2.2 6.6-1.2 3.6-5.8 2.2-2.8 6-4.2 6.8-3.4 7.8-1.2 5.6-1.2 2.4-1-2-4.6-5-3-10.8-0.2-6.6-0.6-9.6 1.8-6.6 4.8-7 1-4.6-1.8-2.8-1.4-3 3.8-4.6 3.2-4 3.4-4.6 0.8-3.6-1.8-2.8-1.4-2 5-3 0.8-7.4 0.2-5.4-4.4-4.4-1-7-4.6-4.6-2.2-2.8-1-2.8-1-3.8-0.6-4.8 0.8-5.2 1.4-3.6 2.8-4 3-5 3.4-3.2z"
       id="path219" />
    <path
       d="m802.4 217-0.4-6.2 1.4-2.4 3-3 1.2-3.2 0.8-5.8-0.4-3.6 2-2.2 6.4-7.4 3.2-0.4 3.4 1.2 3.2 3.2 3.2 3.6-0.6 13 2 5.4-0.8 5.4-2.2 1.6-12.8 0.6-3.4 1.4-1.6 3 6.2 3.6 1.6 2.2 0.6 3.2 1.4 2.6-0.6 3.2-1.8 3.8 0.4 2.2 1 2.4-0.2 7.2-0.8 4.2-1.4 2.8-3.8 8.4-3 3.8-2 4.4-1.2 3-2.6-3.4-1-9.6-3.2-6.2-0.2-4.4-2.8-5.2-1.2-5.8 3.6-6.4-2.2-3-0.8-4 4.8-5h-2.4l-0.4-3.6v-5.4z"
       id="path221" />
    <path
       d="m628 197.6-6.4-0.6-2.2-1-3.6-0.4-4.2-0.2-2.8 1.8-2.8-0.4h-7l-3.6-4.8-7.6-7-3.2-1.2-2.4 1.2-3.8 4-4 1.2-1.8 1.8-2.6 1-1-1.2-0.4-2.2v-2.2l4.4-5 16.8-14.6 3.6 0.2 13.2 3.2 5 0.6 2.4 6.8 1.6 3.6 3.2-1.4 4.6 0.6 1 6.4 4.4 3.4 1.6 5.6z"
       id="path223" />
    <path
       d="m609.6 224.8-0.4-7.4-2.4-4.2-6.2-3.2h-4.4l-10-1.2-6.8 1.2-6.8-1-3.8-1.6-6-0.6-4.4 3.6-7.4 4.8-10.6 5.6-5.6 6-4 7.4-2.6 5.2-1.2 4.8 1.4 2.6 0.4 2.2 9-5 6.6-2.2 10.6-3 9.4-1.6 8.6-1 10.4-3 6-3.2 4.2 2.4 4.8 3.2"
       id="path225" />
    <path
       d="m618.8 222 14.4-0.4 2.6 4 3.4 5 3.2 2.2 1.6 5.8 0.4 2.4 1.4 3.2 5.8 3.8 2 5.2 4.2 5-1 3 3.2 4.2 2.2 4.6 0.2 4.8 2 8 0.4 6.2 3.4 4.8 3 4.6-0.8 4.8-4.6-0.8-3.4-0.8-6-2.4-6.4-1.4-8.2-4.2-5.8-6.6-3.6-5.6-2.6-7.4-2-4.8-3.2-4.8-1.6-3-1.6-5.6-1.2-5.2-1.6-3.2-3.6-1.8-1-4 0.2-1.2 4.2-0.8-0.8-2-5.4-1.4-3.6-0.4-4.2-0.2z"
       id="path227" />
    <path
       d="m623 261.4-3.6 2.2-0.8 3.2 1.4 4.8-3.8 6.2-4.2 4.2 0.8 4.6-0.6 3.4-5.6 3.4-0.8 3.4-2 2.4-3.6 5.4-3.6 0.8-3 2.2v9l-2.2 3.6-5.2 4.4-1.4 5.6-1.6 7-1.6 4.8-3.8 1.6-3-2-4-4.2-2.4-4.2-2.8-6.2-1.6-7.2v-8.2l-0.6-11.6 1.4-3-0.4-3.4-4.6-6.6 2.4-5.6 3-2.8-0.8-2.8 0.2-8 1-6.6 0.4-6.2 2.4-5.2 2-3 2.4-1.6h17.6l2 1.2"
       id="path229" />
    <path
       d="m595.6 247.6 2.2 0.4 4.4-1.4h9.2l3.6-1"
       id="path231" />
    <path
       d="m752.2 328.6 7.2 0.6 5 2.4 1.2 1.6-0.6 2.2-2.2 3.4-3.2 3-3.8-2.2-3.8-2.8-1.6-2z"
       id="path233" />
    <path
       d="m594.4 374.8-0.4 3.2 1 1.6 0.2 3.8-3-1.6-5.6-4.8-2.2-3.6 9.6 0.2"
       id="path235" />
    <path
       d="m587 369.2 3.8-3 2.4-0.2 3.2 0.8 0.8 1.6-1.2 1.6 0.4 4 0.6 5 2.6 2.4 5.8 1.2 5.6-0.8 1.6 2.4 2-0.4 5.8-1 1.4 2.6 1.6 1.4 3.6 0.8 3.8 4.6 3.4 3 2.2 2.6 4.8 2.2v-7.4l-2.8-1.2-0.6-3.8-2.4-4.8-3.4-5.6-3.8-3.4-4.8-5-4.6-3.8-5.8-3.8-3-0.8-6-0.4h-4.4l-1.2 1.6-4 0.8-3.2 0.2-2 1.6-4.8 5.4"
       id="path237" />
    <path
       d="m549.6 384 7 19v4.6l-1.6 4-1.2 3-1.8 4.6-1.2 5-0.4 4.6 0.8 5.2 1 4 0.8 6.4 0.8 3.2v12l1.2 3.6 0.2 2.8-1.2 1.2h-2.2l-4.6-2.8-6.8-6.8-4.8-4.2-5.2-3.8-3-8-0.6-5.2-1.2-4.2-1.4-1.4-1.8-0.8-3.6-0.4-0.2-4.8 1.6-5.4 1.6-5.4 5-7.2 7.2-7.6 2-4.8v-4.2l-1.2-1.8 4.4-5.4 4.6-2z"
       id="path239" />
    <path
       d="m518.8 403.6-1.2 4.2v3.6l-0.8 4.8-1.6 5.8-0.4 5.2 0.6 6.8v10.6l-0.6 8.2 0.8 7 0.8 7.2v6.8l0.8 5.4 1.6 5.6 1.2 3.2 2.4 3 1.8 3.4v2.8l-7.8-4.6-6.8-4-5.4-7-4.8-6.4-3.4-4.6-0.8-17.8 4-8.2 3.6-6.4 1.2-4 1-7 0.6-7-0.2-5.8 5-5.6z"
       id="path241" />
    <path
       d="m751 386.2 0.8-1.6 5.2-2.4 4-1 5.6 1 10.8 0.6 2.8-1.2 5.6-0.2 3.2 3.8 4.8 1.8 5.6 2 3.2 1.8 0.2 3.6-2.6 2.4-2.8 3.6-5.8 8.4-6.4 4-5.6 3-3.2 3.4-2.8 0.6-5.4 2.6-8.2 4.6-5.6 5-6 3.8-7.6 3-4-3.2-1.8-4.2 0.6-11.8 1.8-7.6 2-4.8 4.6-7.8 5.6-2.4 8.2-4.6 4.6-1-7.8-2.6z"
       id="path243" />
    <path
       d="m715.2 452.4 0.8-5.8 4.6 1.8 3.2-0.2 0.8-4.8 2.6 5.4 3.8-2.2 0.6 7.8-9.8-1.2 3 2.8-5.6 1.6-2.8-0.8z"
       id="path245" />
    <path
       d="m720.6 517.6 2-2.6 0.8-3 4.6 0.8 5.8-3.2 2.2-2.6 0.6 2.4 0.2 5.4-0.8 3.2-4 0.4 0.2-2.4-0.2 2.4-3.8-2.2-1.4 1.2z"
       id="path247" />
    <path
       d="m 570.2,511.4 v -3.2 l -1.2,-3.4 -2,-3.4 -1.8,-3.2 m 0,0 -2.2,-2.6 -4,-4.2 -4.4,-1.8 -3,-2.2 -3.6,-3.6 -3.6,0.6 -2,1.6 -1.6,-0.8 -3.2,3.8 -1.2,5 -0.2,1.4 1.8,3.8 1.2,2.8 -1.4,2 -3,-1.4 -1.8,-1 -2.2,2.8 1,8.8 3.4,4.6 6.6,4 4,-0.6 h 5 l 3.8,5.6 2.4,4.2 6.2,-0.6 -6,-5.6 -1.8,-3 v -3.2 l -0.2,-4.2 0.6,-4.8 v -2 l 7.2,-0.2 0.8,1.4 3.8,1.8 2.6,0.8"
       id="path249"
       inkscape:connector-curvature="0"
       sodipodi:nodetypes="ccccccccccccccccccccccccccccccccccccccccc" />
    <path
       d="m595 535.6-1 4.8 3.6 3.2 3.6 4.2 4 3.2 3 1 0.8-4.8-0.8-1-0.8-4.4v-2.2l1.8-2-1.6-2.8-1.8-0.2-6.6 0.4z"
       id="path251" />
    <path
       d="m572 529.6 8.6 6.8 8.6 8.8 4.4 8.6 2.4 7.4 2.6 10-1.6 8.4-2.8 6.6-5.6 7.2-4 3-1-1.4 3.8-7.2 1.2-10-2-7.4-3.4-6.8-1.8-2.8-1-9.8h-1.6l-2 3 1.2 5.8-1.2 2-2.2-1-3.2-3.2-1.8-2.6-1.8-5.8v-7.2l-2.6-0.8-2.6 2.6-5.6 3.6h-5l1.6-4 2.8-5 3.6-2.8 6-6.4z"
       id="path253" />
    <path
       d="m550.4 531.4-0.2 6-1.6 1.2v3l1 3 0.4 6-0.8 2.4-3.8-1.6-1.4-0.2-2.2-1.6-4.8-0.4-2 1.8-2.6-3.4-2.4-4-1.8-3.6 5.2-6 3.2-1.2 4.8-1.4 4.2-0.4z"
       id="path255" />
    <path
       d="m509.2 542.4-3.6-1-2-1.8 3.6-2 2.6-1.4 0.4-2.8-0.4-2.2 1.6-3 2-5 2.6-0.4 5.4-0.2-1.6-5-4-3.2-2.4-0.8-2.8-2.6-0.6-2-3.6-1.6-3.8 0.2-3 1.8-1.6 1.6-5.8-0.6-4.6 1.4-3.2 1.4-2.4 0.8-2.6 3.2-1.4 4-1.8 2.4-1.6 2.8-0.4 3.4 2.4 2.2 4 1.6 3.4 1.2-2.2 6-0.8 0.8 1.4 2 5.4 1.6 4.6-1.2 4-2h3l3.4 1.8 0.4 3 3.4-1z"
       id="path257" />
    <path
       d="m499.6 551.2-4-1-3.6-2.4-2.8 0.2-2.8 1.8-1.2 4.4-0.8 5.6-2.4 3-0.8 4.6-0.2 2.6 0.4 2.8-1 3.4-0.6 3 1.6 8.8v3.8l-0.2 4.4 1.6 4 1 5-0.4 5.6-1 7.6v4.4l5.8 0.8 2.4 2.4 7.2 11.4 2 1.4 1.8-4.2-0.2-6.6-5.6-5-0.2-4.4-1.4-12-1.6-8.2-3.6-3.4 6.2-1.4 3.4-3.6 1.4-5 0.2-7.8-1.4-5.8-3.4-5.8 0.2-2.8 3.4-2.8 3.4-4.2-2.8-4.6"
       id="path259" />
    <path
       d="m515.2 549.6 4 0.8 4.2 2 1.6 2.4 1.6 8.8-0.2 5 1.6 4.6-2.8 6.8-3 5.6-3.4 11-1.8 8.2-1 9-2.2 3.6-2.4-1.6-4.6-6-2.2-6.2-4.6-7.8-1.4-5.8 3.2-6-1.6-6.8 0.4-7v-12.4l2.6-4.6 3.6-3.2 2.2-0.4h1.4l2.6 1.2z"
       id="path261" />
    <path
       d="m713.2 529.2-4.4-1.6-0.8 6.2-2.2 1.4-0.2 2.4 2.8 2.4 1-1.8 1-2.4z"
       id="path263" />
    <path
       d="m719.6 536.8 0.8-4.6 4.2-3.6 2.2-1.2 4-0.6-0.8 3.4 0.4 2-4.2-0.4 0.2 5.8-3.2 3.4-0.8-3z"
       id="path265" />
  </g>
  <g
     id="Root"
     transform="translate(-193.92 28.141)">
    <path
       d="m674.54 612.97c7.7005 3.3308 16.196 4.697 23.46 9.0274 4.3061 2.3313 8.7421 4.3965 13.205 6.4063 1.833 3.3709 4.3104 6.4352 5.9718 9.8528 1.1185 2.8205 0.77967 3.6666-1.7512 1.5429-6.5937-3.911-12.779-8.5874-19.973-11.372-5.6187-2.5346-11.239-5.0661-16.847-7.6237 1.9269 3.302 4.7112 6.2427 5.0504 10.214 1.6597 7.5331 2.6073 15.25 3.1496 22.936-0.26951 4.4023 2.2452 8.3523 2.9004 12.652 1.1414 5.8313 4.4771 10.997 5.0716 16.967 1.2537 4.3885 0.82787 8.9514 0.4279 13.431-2.5624-1.6634-3.6306-4.6102-3.3435-7.5721 0.003-3.7212-0.31721-7.3903-1.6474-10.896-2.3204-5.6097-5.4814-10.89-7.1214-16.787-1.5242-4.0953-2.2236-8.5169-1.4725-12.852 0.34195-5.1558-0.50901-10.33-0.21532-15.506 0.0303-2.4043-2.2893-4.1221-3.3809-6.1604-2.0064-2.8089-4.0128-5.6178-6.0191-8.4268-2.8022 0.93383 0.28429 3.1509 0.78562 4.8046 2.0147 3.9331 5.3796 7.7487 4.8144 12.433 0.0786 8.4192-0.15688 16.895 0.11722 25.279 1.5576 4.5342 3.5954 9.0486 4.8069 13.612 0.10448 3.5745-2.1388 1.0982-3.8583-0.0283-2.1048-1.144-3.8218-3.061-4.6585-5.238-0.0558-5.9393 0.56425-11.885 0.45832-17.806-0.33-3.66-0.47-7.36-2.27-10.66-0.22286-3.9296 0.16102-7.9738-0.43504-11.833-1.2724-3.2524-2.0374-6.7921-4.6842-9.2663-1.3038-1.6188-3.2728-4.5567-1.8749-0.8173 1.2404 4.3392 2.4269 8.6878 2.4912 13.233 0.64273 5.8615-0.43839 11.748-0.0971 17.634-0.0696 6.2981-0.0271 12.609-1 18.85 1.4997 5.7116 2.7714 11.501 5.4257 16.819 1.8838 4.6011 3.4959 9.378 4.6999 14.186 0.27056 2.0726 1.1294 5.1833-1.3862 2.3392-1.8823-1.2021-3.3948-2.6982-4.024-4.8966-4.24-8.87-7.87-18.05-10.72-27.45 0.43818-4.8522 0.54287-9.7632 2.2-14.4 0.19881-4.4005 1.4408-8.864-0.0344-13.163-1.4399-4.0739-0.0227-8.2827 0.2344-12.437-0.88159-3.4448-1.2023-7.1191-3.5268-9.9735-1.2359-3.1823-2.0788-1.9054-1.4598 0.81393 1.4957 4.3441 3.0192 8.853 3.2692 13.424-0.78277 4.8453-2.1458 9.6502-1.502 14.595-0.077 4.0559 0.9046 8.2686-0.91681 12.075-1.3282 3.9497-2.7313 7.8851-2.7516 12.105-0.0974 3.625 2.2582 6.9477 2.1733 10.646 0.25268 4.7456 1.2427 9.3539 2.6409 13.886 0.67789 2.9938 2.0299 5.8986 1.6734 9.029-1.591-0.48195-4.2851-3.9461-4.5337-0.79903-0.70577 3.2166-1.0562-2.1107-1.5832-3.1923-1.4247-4.5757 0.009-9.4212-0.695-14.115 0.0712-4.0348-1.5189-7.8072-2.3882-11.693-1.4992 2.4023-3.5536 4.59-3.4837 7.5989-1.1822 4.2814 0.79763 8.5208 1.1831 12.797 0.54875 4.4467 1.8894 8.8402 2.2102 13.273-0.56362 3.3238-0.38318 6.8834-2.4667 9.7255-0.29411 1.5783-3.3088 4.2911-3.9029 3.1332-0.13972-3.8314-1.0998-7.7193-0.71229-11.514 0.58321-3.3588 1.9347-6.7107 2.0322-10.074-0.79162-4.4065-2.1529-8.7868-2.5811-13.21 0.58236-3.337 0.43503-6.9262 1.4731-10.106 1.9721-3.3946 4.5738-6.5208 5.0788-10.541 0.74289-2.2014 1.2363-4.4113 0.39797-6.6666-1.36-5.25-1.46-10.64-1.63-16.02 2.3308-5.165 3.9677-10.634 5.1807-16.137-0.28988-2.2582 0.0453-4.8164-0.63161-6.8888-2.1182-3.0306-2.1026 0.37136-2.5434 2.3973-1.5823 4.4818 0.79943 10.069-3.2065 13.581-1.2963 4.121-4.5815 8.6004-4.2823 12.793-0.95685 4.0643-1.862 7.1283-4.1514 10.5-0.98685 3.2221-0.49763 5.3081-0.4016 8.4508-0.14201 3.9134-2.0274 7.2556-2.008 11.228-1.5196 4.9395-2.3774 8.6009-3.2128 12.45-0.97377 3.1195-2.4767 8.097-1.8595 9.9303 0.93788 1.835-1.7476 4.3086-0.95178 0.63962-0.15122-2.1178 0.38967-4.4837-0.44924-6.3454 0.71606-2.8329-0.89625-3.6075-0.75558-5.9763-0.25016-2.0453-0.57998-4.0576-0.40161-6.2805-0.95106-3.048-0.43518-6.4037 0.40161-8.8353 1.6488-0.9536 0.31321-7.2067 2.008-8.8353 0.84482-2.5644 1.9167-5.3131 3.2128-7.6305 1.816-3.5065 1.6893-7.194 2.4096-11.245 0.94372-0.89637 1.3212-4.0513 1.2048-4.6911 1.9112-3.3455-1.4442 1.9359-2.4096 2.2815-1.8697 1.7938-2.6082 3.4697-4.4177 6.4257-1.1269 0.85893-2.6689 3.8683-4.8193 5.2209-2.015 2.1072-5.6501 3.8192-8.5071 5.9784 1.306 0.69024-1.9333 3.4345-1.1314 4.0618 0.52095 2.9769 0.59411 3.8856-2.008 6.0241-1.5923 1.3618-3.6787 5.5456-5.1205 4.4177 1.1412-2.2126 2.3476-4.902 1.9076-7.921-0.0381-2.6784 2.8555-3.6944 4.4177-6.5368 1.1691-3.7016 2.0183-6.6698 4.1857-10.071 1.9309-0.96845 2.9705-4.285 5.4528-5.5914 1.9253-1.3469 4.0356-4.7424 5.6207-5.5081 0.51436-2.3401 7.6552-3.4536 1.2066-1.7208-4.8863-0.10227-8.4115 2.505-12.696 4.4903-0.8169 0.69909-4.5273 3.8675-6.9832 5.1482-4.5901 0.972-8.7096 3.9794-12.44 5.8364-2.4135 0.68437-5.5459 1.0529-2.6754 0.99096 0.97972 0.36535 3.2604-2.3031 4.4732-3.9157 0.0823-0.12213 3.5742-2.5936 3.012-2.9116 1.8901-1.3494 1.3632-2.8686 3.2183-3.6013 2.1248-1.2822 3.5907-1.9856 4.3194-3.0772 1.927-0.45781 5.5717-2.8273 5.924-2.7449 3.5759-1.6857 4.4446-3.5652 7.0202-5.8376 2.2421-2.1233 2.8013-5.196 4.8193-6.4257 0.70473-2.0774 1.9904-4.4028 3.2128-5.6225-0.20825-3.5358 2.5383-1.7007 3.3709-4.9534 1.2615-1.1663 0.88463-2.8676 1.664-3.9995 0.85709-3.3325-0.83933-6.1834 1.6205-5.9419 3.0706-1.3771 10.548-0.8 10.548-0.8 13.12-1.003 17.135-0.6963 21.187 4.9663z"
       stroke="#000"
       stroke-width="1px"
       fill="none"
       id="path268" />
  </g>
  <g
     stroke="#000"
     stroke-width="1px"
     fill="none"
     id="g308">
    <g
       id="Unopened_Flower_Bud"
       transform="translate(-193.92 28.141)">
      <path
         d="m684 70.4 12-0.4 6 3.6 4.6641 8.0785 2.2503 8.3981-1.4189 1.4189-2.4 2.4-10.48-2.808-5.572-3.217-4.2572-4.2572-2.6809-4.6434v-4.17l-0.73388-2.7389z"
         id="path271" />
      <path
         d="m711.2 64.8h7.2l5.8 5.8 4.449 2.5687 0.15 10.431-0.8 4.4-3.6 0.8-5.2-3.2-4.4-2.4-4.6-4.6-1.3026-2.2562-1.1996-4.4771v-3.467l1.4148-2.4505z"
         id="path273" />
    </g>
    <g
       id="Fully_Opened_Flower"
       transform="translate(-193.92 28.141)">
      <path
         d="m649.6 143.6-5.2 0.4-3.6 1.2-3.6-1.6h-2l2 3.6-2.4 4-3.6 3.2 2 0.8 4 0.8 4.8-4.8-3.6 3.2-1.6 6.4 0.4 1.6 10.8-4.8-3.6 4 2.4 4 4.4-4.4 4.8 0.4 3.6-1.6 3.6-1.6-4.4-2.8-4.8-1.6-6 3.6v-8z"
         id="path276" />
      <path
         d="m670 121.6 3.2-3.6 5.6-2.8 1.2 4-0.8 1.6-5.2 2.4-0.4 0.8z"
         id="path278" />
      <path
         d="m673.6 124 6.4 1.2 2-0.8 2.4 2-4.4 3.2-7.2-0.4z"
         id="path280" />
      <path
         d="m691.6 129.2-7.2-2.8-4.4 3.2 1.2 4.4 3.2-2.4z"
         id="path282" />
      <path
         d="m681.2 134 3.2-2.4 7.2-2.4 2.4 4.4 6 2.4-6 2.8 0.4 3.2-1.2 7.6-10.8-5.2-1.2-4.4 4-2"
         id="path284" />
    </g>
    <g
       id="Breaker_Fruit"
       transform="translate(-193.92 28.141)">
      <path
         d="m563.2 408.8-5.2 6-2.6053 4.5124-1.8653 6.9615v8.53l2.4497 4.243 4.2889 4.2889 5.915 1.5849 4.7785 1.2804 6.5445 1.7536 8.3813-4.8389 6.5544-1.7563v-12.16l-1.3832-5.1621v-4.84l1.3746-2.3809-1.0094-1.7483-3.8713-6.7052-4.8255-1.293-3.832-1.0268h-4.09l-2.3278 0.62373-3.6588 0.98039-3.3812 1.9522z"
         id="path287" />
      <path
         d="m592.43 416.82 5.793-5.793 3.4-3.4 1.8904-3.2743 4.7443-1.2712 7.2774 1.95 6.6713 1.7876 5.6862 5.6862 2.5594 4.433v10.663l-1.2573 4.6922-1.334 4.9785-2.6406 4.5736-4.4658 1.1966-7.6909 2.0608h-7.06l-5.8003-1.5542-4.4736-4.4736-3.33-1.88"
         id="path289" />
    </g>
    <g
       id="Breaker_Fruit_10"
       transform="translate(-193.92 28.141)">
      <path
         d="m676.4 368-11.2 5.2-1.6 6.4-1.6 5.2-0.8 9.2 1.2 4.4 4 4.8 6 4.4 6.4 0.4 5.2-3.2 6.4-4 5.6-4.4 2.8-3.6 1.2-3.6 0.8-3.6v-4.8l-1.6-7.6-3.2-4-10.4-3.6z"
         id="path292" />
      <path
         d="m698.8 392.8 4.4 3.2 8-0.4 5.6-3.2 2.8-4.8 4.4-8v-4.8l-1.2-8-6-6-5.2-2.4-9.2 1.6-2.4 1.2-6 4.4-2.8 0.8"
         id="path294" />
      <path
         d="m720.8 386 5.2 0.4 6.4-2.4 4-2.4 5.6-8.8 1.2-3.2v-4.8l-0.8-4.8-5.6-4.4-4.4-1.6-8.4-1.2-8 2.8-4.4 2.8"
         id="path296" />
    </g>
    <g
       id="Mature_Green_Fruit"
       transform="translate(-193.92 28.141)">
      <path
         d="m 584,482.8 -6.4,-3.2 -4.4,-1.6 h -8.4 l -3.6,0.4 -2.4,2.4 -2.4,4.4 -1.8,4.4 4.4,1.8 6.2,6.8 6,-5.8 3.2,-5.6 5.2,-2.8 4.4,-1.2"
         id="path1239"
         inkscape:connector-curvature="0"
         sodipodi:nodetypes="cccccccccccccc" />
      <path
         d="m 575.2,518 -1.6,-1.2 -3.4,-5.4 m 0,0 -2.6,-0.8 -3.8,-1.8 -0.8,-1.4 -7.2,0.2 v 2 l 6.2,7.6 2.8,1.2 4.4,0.4 h 2.4 l 3.6,-0.8"
         id="path301"
         inkscape:connector-curvature="0"
         sodipodi:nodetypes="cccccccccccccc" />
      <path
         d="m605.2 488.8v-4l11.2-2 5.2 4.4 3.6 4 4 8.4v4.4l-0.8 7.6-2.8 5.6-2.4 6-10.8 1.6-12.4-4.8"
         id="path305" />
      <path
         d="m 573.17688,516.53359 -3.40634,-5.38936 -0.006,-3.18936 -1.2,-3.4 -2,-3.4 -1.5821,-3.07744 6.21789,-5.67743 3.2,-5.6 5.2,-2.8 4.4,-1.2 8.4,-0.4 8,2 4.8,4.4 1.2,2 4,5.2 0.4,8 -1.6,6.4 -2.8,4 -6.4,5.6 -6,4 -8.4,1.2 -10.61156,-7.3332 z"
         id="path1285"
         inkscape:connector-curvature="0" />
    </g>
  </g>
  <g
     id="1cm_Fruit"
     transform="translate(-193.92 28.141)">
    <path
       d="m757.2 453.6v7.2l1.6 2.8 3.6 1.2 3.6 0.8 3.6-2.8 1.2-2.8 0.4-2.4-2-4.4-2.4-1.6-6-0.4z"
       stroke="#000"
       stroke-width="1px"
       fill="none"
       id="path310" />
  </g>
  <g
     id="2cm_Fruit"
     transform="translate(-193.92 28.141)">
    <path
       d="m795.2 420.4-4.4 2-3.2 4.8-1.2 2.8-0.8 3.6 0.8 5.6 2 4.4 9.6 2.8 4.4-0.8 6-4.4 1.6-4.4 0.4-6-2-4.4-3.2-4-2.4-4z"
       stroke="#000"
       stroke-width="1px"
       fill="none"
       id="path313" />
  </g>
  <g
     id="3cm_Fruit"
     transform="translate(-193.92 28.141)">
    <path
       d="m838.8 428.8-8.4 3.2-1.6 5.6-1.6 8 0.4 3.6 0.8 4.4 4.4 5.6 2.4 4 5.6 1.2h7.2l3.2-2.4 3.2-5.2 3.6-4v-4l-0.4-2.8-2-4.8-2.4-6.4-4-2.8-2.4-3.6z"
       stroke="#000"
       stroke-width="1px"
       fill="none"
       id="path316" />
  </g>
  <g
     id="Pimpinellifolium_Leaf"
     transform="translate(-193.92 28.141)"
     stroke="#000"
     stroke-width="1px"
     fill="none">
    <path
       d="m972 384.4-4-2.8-2.8-5.6-2-3.6 1.2-2.8v-4l-5.6-6.4 4-10.4 3.6-8 5.2-1.6 2.8-4.8-1.2-4 10.4-10 4.4-5.2 8.4-5.6 6-7.2 8.8-14 2 0.8 0.4 6.8-2 4-2.8 14.4v5.6l-2.8 6.8 2.4 4.4 0.4 15.2-2.4 4.8 0.4 2.4 1.2 3.2-2 2.8-2.8 5.2-2.4 4-0.4 2-8.8 5.2-2 3.6-1.2 2.4-5.2 2-3.6-0.8-2.8-2.4z"
       id="path319" />
    <path
       d="m974 395.2 9.2-5.2 5.8-5.8 7.4-1.8 10.8-1.2 13.2-2.4 8.8-0.4h5.6l-5.6 7.6-6 9.6-4 4-10.8 4.8-12 5.6-8.4 1.6-2.4-0.8-2-1.6-2.4-3.2-1.6-2.4-6-3.2z"
       id="path321" />
    <path
       d="m974 426 2-6.4 4.4-0.4 4-0.4 3.2 2-3.6 3.6-2 4z"
       id="path323" />
    <path
       d="m965.2 432.8-6-1.2-3.6-3.6-5.6 0.8-2 1.2-12.8 1.2-7.6 4.4-1.2 3.2-6 8.8-3.6 8.8-0.8 8.8 8.4 0.8 15.2-1.2 7.6-3.2h7.6l10.4-10.4v-18.4"
       id="path325" />
    <path
       d="m986 443.2 1.2-5.6 9.6-5.2 16.8-3.6 11.6 3.2 17.821 4.7751 0.579 4.0249-6 5.2-4.8 3.6-10.8 3.2-8 7.2h-8l-4.4-0.8-9.2 3.2-8.4-10.4-2.8-4-3.2-3.2z"
       id="path327" />
    <path
       d="m978.8 468.4c6-3.6 6.4-3.6 6.4-3.6h5.2l3.6 3.6-3.2 3.2-3.6 0.4-5.6 1.6z"
       id="path329" />
    <path
       d="m968 498-10-0.8-4.4 4.8-4 2.4-4.8 8.4-4 10.4-3.6 5.6-2.4 6.4v5.2l4.8 0.4 7.6-3.6 12.8-4.8 7.6-4.4 9.6-11.6-0.4-7.6-5.2-10.4z"
       id="path331" />
    <path
       d="m989.2 504.4 8-5.2 8.4-2h12.8l8 5.2 6.8 4 6.4 6-4.8 6.4-4.8 3.2-5.2 1.6-9.6 2.8-6.4-1.2-5.2-1.2-1.6-0.8-10-8.8z"
       id="path333" />
    <path
       d="m985.2 528h-6l-2.8 4-2.4 4.8v15.2l2 3.6 4-0.4 6.4-11.2 4.4-5.2v-4.8z"
       id="path335" />
    <path
       d="m996.4 528.8 5.2 0.8 6 3.6 6 5.6 2.4 3.2h-7.2l-9.2 1.2-4.8-2.4-1.634-6.0981v-3.9z"
       id="path337" />
  </g>
  <g
     id="Pimpinellifolium_Immature_Green_Fruit"
     transform="translate(-193.92 28.141)"
     stroke="#000"
     stroke-width="1px"
     fill="none">
    <path
       d="m798 644.8-2.4 2.8-2 3.2-0.8 2.4-0.4 3.2 0.4 3.6 3.6 2.8 1.6 4 3.6 4 4.8 0.8h6.4l4-3.2 2.4-4.4 3.2-4 2-5.2"
       id="path340" />
    <path
       d="m824.4 654.8-12-8-12.4 2-2-4"
       id="path342" />
  </g>
  <g
     id="labels"
     font-family="Sans"
     transform="translate(-193.92 28.141)">
    <g
       font-size="40px"
       id="g385">
      <text
         style="word-spacing:0px;letter-spacing:0px"
         xml:space="preserve"
         y="42"
         x="603"
         line-height="125%"
         id="text347"><tspan
           font-size="18.667px"
           y="42"
           x="603"
           line-height="0%"
           id="tspan345">S. lycopersicum cv Heinz</tspan></text>
      <text
         style="word-spacing:0px;letter-spacing:0px"
         xml:space="preserve"
         y="96"
         x="843"
         line-height="125%"
         id="text351"><tspan
           font-size="16px"
           y="96"
           x="843"
           line-height="0%"
           id="tspan349">Unopened Flower Buds</tspan></text>
      <text
         style="word-spacing:0px;letter-spacing:0px"
         xml:space="preserve"
         y="105"
         x="367"
         line-height="125%"
         id="text355"><tspan
           font-size="16px"
           y="105"
           x="367"
           line-height="0%"
           id="tspan353">Fully Opened Flowers</tspan></text>
      <text
         style="word-spacing:0px;letter-spacing:0px"
         xml:space="preserve"
         y="338"
         x="498"
         line-height="125%"
         id="text359"><tspan
           y="338"
           x="498"
           font-size="16px"
           id="tspan357">Leaves</tspan></text>
      <text
         style="word-spacing:0px;letter-spacing:0px"
         xml:space="preserve"
         y="249"
         x="890"
         line-height="125%"
         id="text363"><tspan
           y="249"
           x="890"
           font-size="18.667px"
           id="tspan361">S. pimpinellifolium</tspan></text>
      <text
         style="word-spacing:0px;letter-spacing:0px"
         xml:space="preserve"
         y="321"
         x="915"
         line-height="125%"
         id="text367"><tspan
           y="321"
           x="915"
           font-size="16px"
           id="tspan365">Leaves</tspan></text>
      <text
         style="word-spacing:0px;letter-spacing:0px"
         xml:space="preserve"
         y="696"
         x="722"
         line-height="125%"
         id="text371"><tspan
           font-size="16px"
           y="696"
           x="722"
           line-height="1px"
           id="tspan369">Immature Green Fruit</tspan></text>
      <text
         style="word-spacing:0px;letter-spacing:0px"
         xml:space="preserve"
         y="622"
         x="862"
         line-height="125%"
         id="text375"><tspan
           font-size="16px"
           y="622"
           x="862"
           line-height="0%"
           id="tspan373">Breaker Fruit</tspan></text>
      <text
         style="word-spacing:0px;letter-spacing:0px"
         xml:space="preserve"
         y="696"
         x="921"
         line-height="125%"
         id="text379"><tspan
           font-size="16px"
           y="696"
           x="921"
           line-height="0%"
           id="tspan377">Breaker +5 Fruit</tspan></text>
      <text
         style="word-spacing:0px;letter-spacing:0px"
         xml:space="preserve"
         y="374"
         x="434"
         line-height="125%"
         id="text383"><tspan
           y="374"
           x="434"
           font-size="16px"
           id="tspan381">Breaker Fruits</tspan></text>
    </g>
    <text
       style="word-spacing:0px;letter-spacing:0px"
       xml:space="preserve"
       font-size="16px"
       transform="scale(1.0082 .99191)"
       y="511.94888"
       x="407.89362"
       line-height="125%"
       id="text391"><tspan
         y="511.94888"
         x="407.89362"
         style="font-variant-ligatures:normal;font-variant-numeric:normal;font-variant-caps:normal;font-feature-settings:normal"
         id="tspan387">Mature Green </tspan><tspan
         y="528.3476"
         x="407.89362"
         style="font-variant-ligatures:normal;font-variant-numeric:normal;font-variant-caps:normal;font-feature-settings:normal"
         id="tspan389">Fruits</tspan></text>
    <g
       font-size="40px"
       id="g413">
      <text
         style="word-spacing:0px;letter-spacing:0px"
         xml:space="preserve"
         line-height="125%"
         y="640"
         x="552"
         id="text395"><tspan
           y="640"
           x="552"
           font-size="16px"
           id="tspan393">Roots</tspan></text>
      <text
         style="word-spacing:0px;letter-spacing:0px"
         xml:space="preserve"
         line-height="125%"
         y="355"
         x="738"
         id="text399"><tspan
           y="355"
           x="738"
           font-size="16px"
           id="tspan397">Breaker +10 Fruits</tspan></text>
      <text
         style="word-spacing:0px;letter-spacing:0px"
         xml:space="preserve"
         line-height="125%"
         y="479"
         x="681"
         id="text403"><tspan
           y="479"
           x="681"
           font-size="16px"
           id="tspan401">1cm Fruit</tspan></text>
      <text
         style="word-spacing:0px;letter-spacing:0px"
         xml:space="preserve"
         line-height="125%"
         y="498.60001"
         x="745.40002"
         id="text407"><tspan
           y="498.60001"
           x="745.40002"
           font-size="16px"
           id="tspan405">2cm Fruit</tspan></text>
      <text
         style="word-spacing:0px;letter-spacing:0px"
         xml:space="preserve"
         line-height="125%"
         y="406"
         x="810"
         id="text411"><tspan
           y="406"
           x="810"
           font-size="16px"
           id="tspan409">3cm Fruit</tspan></text>
    </g>
  </g>
  <g
     id="Pimpinellifolium_Breaker_Fruit"
     transform="translate(-193.92 28.141)"
     stroke="#000"
     stroke-width="1px"
     fill="none">
    <path
       d="m905.6 642-6.4 2.8-2.8 2.8-2.4 4.8-0.8 4.8 6 8 3.2 5.6 6.4 1.2 6.4-2 6.8-6.8 3.6-5.2-4.8-6"
       id="path416" />
    <path
       d="m920.8 652-7.2-6-11.2 2 3.2-6"
       id="path418" />
  </g>
  <g
     id="Pimpinellifolium_Breaker_5_Fruit"
     transform="translate(-193.92 28.141)"
     stroke="#000"
     stroke-width="1px"
     fill="none">
    <path
       d="m1019.2 642.8-9.2 1.6-1.6 4.4-2 4-0.4 4.8 1.2 3.6 5.6 5.2 1.6 2.8 4.4 2h6l6.8-4.8 4.4-7.2-0.8-5.6-9.6-7.6-12 1.6z"
       stroke="#000"
       stroke-width="1px"
       fill="none"
       id="path421" />
  </g>
</svg>
