<?xml version="1.0" encoding="UTF-8"?>
<!DOCTYPE svg PUBLIC "-//W3C//DTD SVG 1.1//EN" "http://www.w3.org/Graphics/SVG/1.1/DTD/svg11.dtd">
<svg id="svg3202" width="1261.3" height="330.84" version="1.1" viewBox="0 0 1261.3 330.84" xmlns="http://www.w3.org/2000/svg">
 <g id="LeafDistal15">
  <path id="path3785" d="m1094.7 174.83c26.831 5.1064 49.345 10.881 66.433 17.406 0 0-26.556 0.1931-66.146 1.3196z" fill="none" stroke="#000000" stroke-width="1px"/>
 </g>
 <g id="LeafDistal14">
  <path id="path3783" d="m1095 193.56c-20.791 0.59161-45.176 1.4406-71.197 2.6544l0.8378-32.139c25.63 3.2066 49.162 6.7803 70.071 10.76z" fill="none" stroke="#000000" stroke-width="1px"/>
 </g>
 <g id="LeafDistal13">
  <path id="path3781" d="m1023.8 196.21c-22.919 1.069-47.106 2.4209-71.225 4.1289l0.66066-43.838c25.162 2.2618 49.078 4.7764 71.402 7.5695z" fill="none" stroke="#000000" stroke-width="1px"/>
 </g>
 <g id="LeafDistal12">
  <path id="path3779" d="m952.55 200.34c-23.405 1.6575-46.745 3.6503-68.797 6.0455l0.0284-55.308c23.958 1.6224 47.18 3.4248 69.429 5.4248z" fill="none" stroke="#000000" stroke-width="1px"/>
 </g>
 <g id="LeafDistal11">
  <path id="path3777" d="m883.76 206.39c-27.657 3.0039-53.287 6.6407-74.48 11.042l2.0514-70.625c24.71 1.2628 48.938 2.6822 72.458 4.275z" fill="none" stroke="#000000" stroke-width="1px"/>
 </g>
 <g id="LeafDistal10">
  <path id="path3775" d="m809.28 217.43c-16.431 3.4126-42.862 5.9975-68.688 7.9235l2.5703-81.608c23.006 0.89935 45.785 1.9148 68.169 3.0587z" fill="none" stroke="#000000" stroke-width="1px"/>
 </g>
 <g id="LeafDistal9">
  <path id="path3773" d="m740.59 225.35c-22.07 1.6459-46.837 2.8105-73.05 3.5991l2.492-87.673c24.497 0.70353 48.938 1.5209 73.128 2.4665z" fill="none" stroke="#000000" stroke-width="1px"/>
 </g>
 <g id="LeafDistal8">
  <path id="path3771" d="m667.54 228.95c-22.345 0.67225-45.741 1.0712-69.41 1.2622l1.2672-90.662c23.48 0.47887 47.083 1.0501 70.635 1.7265z" fill="none" stroke="#000000" stroke-width="1px"/>
 </g>
 <g id="LeafDistal7">
  <path id="path3769" d="m598.13 230.21c-23.943 0.19311-48.166 0.17332-71.867 8e-3l1.2499-91.869c23.705 0.31124 47.73 0.70616 71.885 1.1988z" fill="none" stroke="#000000" stroke-width="1px"/>
 </g>
 <g id="LeafDistal6">
  <path id="path3767" d="m526.26 230.22c-23.722-0.1654-46.92-0.47651-68.791-0.86572l-1.2277-91.709c23.291 0.15821 47.114 0.38847 71.268 0.7056z" fill="none" stroke="#000000" stroke-width="1px"/>
 </g>
 <g id="LeafDistal5">
  <path id="path3765" d="m457.47 229.35c-25.586-0.45532-49.354-1.0175-70.015-1.5783l0.61543-90.404c22.057 0.0288 44.848 0.11502 68.172 0.27346z" fill="none" stroke="#000000" stroke-width="1px"/>
 </g>
 <g id="LeafDistal4">
  <path id="path3763" d="m387.46 227.78c-46.758-1.2691-77.605-2.5311-77.605-2.5311l3.281-87.759c23.728-0.10198 48.819-0.14826 74.94-0.11411z" fill="none" stroke="#000000" stroke-width="1px"/>
 </g>
 <g id="LeafDistal3">
  <path id="path3761" d="m309.85 225.25s-28.799-3.6922-64.995-8.3433l0.0866-78.954c21.064-0.19444 43.913-0.35708 68.189-0.46142z" fill="none" stroke="#000000" stroke-width="1px"/>
 </g>
 <g id="LeafDistal2">
  <path id="path3759" d="m244.86 216.9c-22.358-2.873-47.538-6.1119-70.496-9.0725l1.7849-69.071c19.806-0.28532 42.958-0.5717 68.798-0.81022z" fill="none" stroke="#000000" stroke-width="1px"/>
 </g>
 <g id="LeafDistal1">
  <path id="path3755" d="m174.36 207.83c-38.616-4.9798-70.946-9.1724-72.984-9.5121l-0.86864-58.199s28.231-0.67687 75.638-1.3598z" fill="none" stroke="#000000" stroke-width="1px"/>
 </g>
 <text id="text3855" x="138.20905" y="121.5625" fill="#000000" font-family="Arial" font-size="30px" letter-spacing="0px" text-align="center" text-anchor="middle" word-spacing="0px" style="line-height:1.25" xml:space="preserve"><tspan id="tspan3853" x="138.20905" y="121.5625">1</tspan></text>
 <text id="text3859" x="209.45903" y="121.5625" fill="#000000" font-family="Arial" font-size="30px" letter-spacing="0px" text-align="center" text-anchor="middle" word-spacing="0px" style="line-height:1.25" xml:space="preserve"><tspan id="tspan3857" x="209.45903" y="121.5625">2</tspan></text>
 <text id="text3863" x="277.02368" y="121.5625" fill="#000000" font-family="Arial" font-size="30px" letter-spacing="0px" text-align="center" text-anchor="middle" word-spacing="0px" style="line-height:1.25" xml:space="preserve"><tspan id="tspan3861" x="277.02368" y="121.5625">3</tspan></text>
 <text id="text3867" x="348.27368" y="121.5625" fill="#000000" font-family="Arial" font-size="30px" letter-spacing="0px" text-align="center" text-anchor="middle" word-spacing="0px" style="line-height:1.25" xml:space="preserve"><tspan id="tspan3865" x="348.27368" y="121.5625">4</tspan></text>
 <text id="text3887" x="421.05927" y="121.5625" fill="#000000" font-family="Arial" font-size="30px" letter-spacing="0px" text-align="center" text-anchor="middle" word-spacing="0px" style="line-height:1.25" xml:space="preserve"><tspan id="tspan3885" x="421.05927" y="121.5625">5</tspan></text>
 <text id="text3891" x="492.30927" y="121.5625" fill="#000000" font-family="Arial" font-size="30px" letter-spacing="0px" text-align="center" text-anchor="middle" word-spacing="0px" style="line-height:1.25" xml:space="preserve"><tspan id="tspan3889" x="492.30927" y="121.5625">6</tspan></text>
 <text id="text3895" x="559.8739" y="121.5625" fill="#000000" font-family="Arial" font-size="30px" letter-spacing="0px" text-align="center" text-anchor="middle" word-spacing="0px" style="line-height:1.25" xml:space="preserve"><tspan id="tspan3893" x="559.8739" y="121.5625">7</tspan></text>
 <text id="text3899" x="631.12384" y="121.5625" fill="#000000" font-family="Arial" font-size="30px" letter-spacing="0px" text-align="center" text-anchor="middle" word-spacing="0px" style="line-height:1.25" xml:space="preserve"><tspan id="tspan3897" x="631.12384" y="121.5625">8</tspan></text>
 <text id="text3975" x="701.45251" y="121.5625" fill="#000000" font-family="Arial" font-size="30px" letter-spacing="0px" text-align="center" text-anchor="middle" word-spacing="0px" style="line-height:1.25" xml:space="preserve"><tspan id="tspan3973" x="701.45251" y="121.5625">9</tspan></text>
 <text id="text3979" x="769.01715" y="121.5625" fill="#000000" font-family="Arial" font-size="30px" letter-spacing="0px" text-align="center" text-anchor="middle" word-spacing="0px" style="line-height:1.25" xml:space="preserve"><tspan id="tspan3977" x="769.01715" y="121.5625">10</tspan></text>
 <text id="text3983" x="840.26715" y="121.5625" fill="#000000" font-family="Arial" font-size="30px" letter-spacing="0px" text-align="center" text-anchor="middle" word-spacing="0px" style="line-height:1.25" xml:space="preserve"><tspan id="tspan3981" x="840.26715" y="121.5625">11</tspan></text>
 <text id="text3999" x="913.05273" y="121.5625" fill="#000000" font-family="Arial" font-size="30px" letter-spacing="0px" text-align="center" text-anchor="middle" word-spacing="0px" style="line-height:1.25" xml:space="preserve"><tspan id="tspan3997" x="913.05273" y="121.5625">12</tspan></text>
 <text id="text4003" x="984.30273" y="121.5625" fill="#000000" font-family="Arial" font-size="30px" letter-spacing="0px" text-align="center" text-anchor="middle" word-spacing="0px" style="line-height:1.25" xml:space="preserve"><tspan id="tspan4001" x="984.30273" y="121.5625">13</tspan></text>
 <text id="text4007" x="1051.8674" y="121.5625" fill="#000000" font-family="Arial" font-size="30px" letter-spacing="0px" text-align="center" text-anchor="middle" word-spacing="0px" style="line-height:1.25" xml:space="preserve"><tspan id="tspan4005" x="1051.8674" y="121.5625">14</tspan></text>
 <text id="text4011" x="1123.1173" y="121.5625" fill="#000000" font-family="Arial" font-size="30px" letter-spacing="0px" text-align="center" text-anchor="middle" word-spacing="0px" style="line-height:1.25" xml:space="preserve"><tspan id="tspan4009" x="1123.1173" y="121.5625">15</tspan></text>
</svg>
