<?xml version="1.0" encoding="UTF-8"?>
<!-- Created with Inkscape (http://www.inkscape.org/) -->
<svg id="svg10" width="800" height="950" version="1.1" viewBox="0 0 800 950" xmlns="http://www.w3.org/2000/svg" xmlns:cc="http://creativecommons.org/ns#" xmlns:dc="http://purl.org/dc/elements/1.1/" xmlns:rdf="http://www.w3.org/1999/02/22-rdf-syntax-ns#">
 <metadata id="metadata16">
  <rdf:RDF>
   <cc:Work rdf:about="">
    <dc:format>image/svg+xml</dc:format>
    <dc:type rdf:resource="http://purl.org/dc/dcmitype/StillImage"/>
    <dc:title/>
   </cc:Work>
  </rdf:RDF>
 </metadata>
 <g id="female_catkins">
  <path fill="none" stroke="#000000" stroke-width="0.5" stroke-miterlimit="10" d="m363.66 203.44-11.401 0.47506-3.3254-0.95012-1.9002-0.47506-3.0879 2.3753-9.0261 0.95012-4.9881 0.71259-11.876 5.2256-7.601 3.8005-4.038-0.23752-3.0879 1.1876-2.1378 3.3254-1.1876 1.1876-7.8385 5.2256-1.9002-3.3254-0.71259-1.9002-2.1378 1.1876-3.0879 3.0879-1.1876 2.8504-8.7886 5.7007-0.71259 3.0879-1.9002-2.1378-13.777 5.9382-0.95011 3.0879-3.0879-0.47506-13.777 7.3634-0.71259 3.5629-2.3753 0.71259-3.5629-1.1876-12.827 8.5511-5.7007 2.1378 0.23753 2.8504-3.3254-0.47506v-1.9002l-13.064 4.9881-1.1876 3.8005-2.8504 0.47506-0.47506-2.3753-12.589 7.3634-4.7506-0.47506-5.9382 4.9881-9.7387 4.038-3.0879 0.23753-3.5629 2.3753-6.6508 6.6508-6.8884 2.8504-1.6627-0.47506 6.8884-7.1259 6.4133-5.2257 4.2755-3.5629 5.2256-0.23753 1.9002-0.23753 0.95012-2.8504 0.71258-1.4252 9.2637-4.2755 9.0261 0.95012 2.1378-1.9002"/>
  <path fill="none" stroke="#000000" stroke-width="0.5" stroke-miterlimit="10" d="m352.26 203.92-1.4252 5.4632-1.9002 3.3254-2.8504 1.6627-1.4252-2.1378-1.9002-2.1378 1.1876-5.2256l3.0879-2.3753z"/>
  <path fill="none" stroke="#000000" stroke-width="0.5" stroke-miterlimit="10" d="m333.25 206.29 0.23753 6.1758-2.8504 3.5629-4.5131 2.1378-3.8005-2.6128v-2.3753l2.1378-3.0879 5.4632-3.5629z"/>
  <path fill="none" stroke="#000000" stroke-width="0.5" stroke-miterlimit="10" d="m310.45 215.56-1.6627 5.7007-4.2755 5.7007-4.038-1.6627-0.47506-4.2755 3.3254-4.5131z"/>
  <path fill="none" stroke="#000000" stroke-width="0.5" stroke-miterlimit="10" d="m292.16 226.25-1.1876 5.2256-4.038 3.0879-1.9002-1.1876-1.1876-2.8504-0.71259-2.3753 6.4133-7.1259z"/>
  <path fill="none" stroke="#000000" stroke-width="0.5" stroke-miterlimit="10" d="m273.63 236.94 2.1378 4.9881-2.8504 4.7506-2.8504 0.47506-1.9002-2.1378-0.23753-4.7506 2.1378-3.3254 1.6627-2.1378z"/>
  <path fill="none" stroke="#000000" stroke-width="0.5" stroke-miterlimit="10" d="m257.01 243.82 2.3753 4.2755-3.8005 5.9382-1.4252 1.4252-3.563-0.71259-1.6627-1.6627-0.71259-2.1378 5.7007-7.601z"/>
  <path fill="none" stroke="#000000" stroke-width="0.5" stroke-miterlimit="10" d="m239.43 254.28 1.9002 4.038-0.71259 3.5629-3.3254 3.563-2.8504 0.47506-2.3753-3.0879 2.6128-6.4133 2.3753-1.4252z"/>
  <path fill="none" stroke="#000000" stroke-width="0.5" stroke-miterlimit="10" d="m215.2 267.34 4.7506-0.95012 2.1378 2.3753-2.3753 3.5629-6.8884 5.4632-6.1758-1.9002-0.95012-3.0879 4.038-3.8005 2.1378-2.1378z"/>
  <path fill="none" stroke="#000000" stroke-width="0.5" stroke-miterlimit="10" d="m197.62 273.75 2.6128 1.9002 0.23753 2.6128-4.9881 6.1758-2.8504 1.4252-4.2755-1.1876-0.47506-3.8005 0.95011-2.1378 5.9382-4.5131z"/>
  <path fill="none" stroke="#000000" stroke-width="0.5" stroke-miterlimit="10" d="m181.71 279.22 0.47506 3.0879-1.4252 4.038-4.038 4.5131-2.1378 0.95012-2.1378 0.71258-1.1876-1.4252-1.4252-0.95012-0.47506-1.1876v-1.9002l1.6627-3.3254 1.9002-1.4252 4.038-3.563z"/>
  <path fill="none" stroke="#000000" stroke-width="0.5" stroke-miterlimit="10" d="m162.71 291.33v4.038l-1.1876 1.6627-4.038 1.1876-1.4252-0.47506-0.95012-0.71259-0.71259-1.1876 0.23753-5.4632 3.5629-2.3753 3.0879-0.23753z"/>
  <path fill="none" stroke="#000000" stroke-width="0.5" stroke-miterlimit="10" d="m147.98 297.03 1.4252 3.0879 1.4252 1.6627-1.1876 2.3753-1.1876 0.95012-0.95012 1.6627-2.6128 1.9002-1.1876-0.47506-2.1378 0.23753-1.4252-0.47506-0.95012-1.1876 0.95012-2.3753 0.95012-4.5131z"/>
  <path fill="none" stroke="#000000" stroke-width="0.5" stroke-miterlimit="10" d="m133.49 310.81h-2.6128l-2.1378-0.47506 0.71259-2.8504v-2.1378l1.6627-2.6128 1.6627-2.8504 1.6627-0.47506h4.9881l1.6627 0.47506-1.9002 6.8884z"/>
  <path fill="none" stroke="#000000" stroke-width="0.5" stroke-miterlimit="10" d="m146.32 292.28-4.9881-0.47506-2.8504-0.47506-1.4252-1.9002-0.23753-1.9002 2.6128-2.3753 2.6128-0.71258h2.8504l2.3753 1.9002 2.6128 1.1876 0.47505 0.71259z"/>
  <path fill="none" stroke="#000000" stroke-width="0.5" stroke-miterlimit="10" d="m157.01 283.49-3.3254-2.6128-0.71259-2.1378 2.3753 0.47506 0.95012-1.1876 0.47506-1.4252-0.23753-3.0879 5.4632-0.23753 0.95012 1.1876 0.71259 0.71259 2.1378 3.5629-1.6627 4.2755z"/>
  <path fill="none" stroke="#000000" stroke-width="0.5" stroke-miterlimit="10" d="m175.06 274.47-2.3753-2.3753 0.47505-1.1876 0.23753-0.71259v-2.1378l1.6627-0.23753 0.47506-1.1876 2.6128-0.47506 3.3254 0.95012 1.9002 0.23753 3.8005 2.3753-0.95012 3.8005-2.1378 1.9002z"/>
 <path fill="none" stroke="#000000" stroke-width="0.5" stroke-miterlimit="10" d="m192.87 267.1-3.3254-4.2755 2.3753-4.038 2.6128-0.95012h3.3254l2.1378 0.95012 2.3753 1.1876 0.23753 2.3753-3.563 3.0879z"/>
 <path fill="none" stroke="#000000" stroke-width="0.5" stroke-miterlimit="10" d="m217.58 256.18-2.3753-0.95012-3.563-0.23753h-2.3753l-3.3254 1.4252-3.5629 3.563 0.23753 2.3753 9.5012 2.3753 8.5511-2.3753z"/>
 <path fill="none" stroke="#000000" stroke-width="0.5" stroke-miterlimit="10" d="m224.23 253.33-1.1876-2.8504 2.8504-2.8504 2.1378-2.1378 1.9002-0.47506 7.3634 1.4252 0.71259 5.2257-5.4632 3.0879z"/>
 <path fill="none" stroke="#000000" stroke-width="0.5" stroke-miterlimit="10" d="m247.98 240.5-1.4252-2.6128-0.23753-2.1378v-0.47506l1.4252-0.95012 1.9002-0.71259h1.6627l2.3753 0.47506h3.3254l-0.23753 6.4133-4.2755 2.1378z"/>
 <path fill="none" stroke="#000000" stroke-width="0.5" stroke-miterlimit="10" d="m266.03 229.57-0.47506-2.3753v-1.1876l0.47506-0.71259 0.71259-0.95012 1.9002-0.71259 0.95012-0.95011 1.4252-0.23753 1.9002-0.23753 4.038 0.95011 0.47506 5.9382-1.9002 1.6627z"/>
 <path fill="none" stroke="#000000" stroke-width="0.5" stroke-miterlimit="10" d="m281.47 222.21-0.95011-3.0879-0.71259-1.9002l0.71259-0.95012 0.71258-0.71259 2.3753-0.71258h2.6128l2.8504 0.47506 1.1876 3.0879z"/>
 <path fill="none" stroke="#000000" stroke-width="0.5" stroke-miterlimit="10" d="m300 212.71-2.6128-2.3753-0.23753-1.1876v-1.4252l0.23753-1.1876 3.0879-1.4252h3.0879l3.0879 0.47506 4.038 2.3753-0.71259 3.8005-5.9382 1.9002z"/>
 <path fill="none" stroke="#000000" stroke-width="0.5" stroke-miterlimit="10" d="m318.53 204.16-2.6128-2.3753-1.1876-2.3753-0.95012-1.6627 1.4252-1.1876 1.4252-0.95012 1.6627-0.23753h4.9881l2.1378 0.95012 3.8005 2.6128 1.1876 2.3753z"/>
 <path fill="none" stroke="#000000" stroke-width="0.5" stroke-miterlimit="10" d="m339.9 198.69-0.23753-2.6128 0.47506-0.71259 0.47506-1.1876 0.71259-0.47506 0.95012-0.47506 1.6627-0.47506 2.3753-0.23753 2.1378 0.71259 2.8504 1.6627-0.23753 1.6627-3.5629 1.9002z"/>
 </g>
 <g id="female_catkins">
  <path fill="none" stroke="#000000" stroke-width="0.5" stroke-miterlimit="10" d="m346.08 214.37l2.1692 2.1294z"/>
  <path fill="none" stroke="#000000" stroke-width="0.5" stroke-miterlimit="10" d="m344.75 217.75 1.3308-3.3794z"/>
  <path fill="none" stroke="#000000" stroke-width="0.5" stroke-miterlimit="10" d="m342.5 215 2.1556-2.7672z"/>
  <path fill="none" stroke="#000000" stroke-width="0.5" stroke-miterlimit="10" d="m326.13 218.17 0.87173 3.829z"/>
  <path fill="none" stroke="#000000" stroke-width="0.5" stroke-miterlimit="10" d="m326.13 218.17-2.6283 1.579z"/>
  <path fill="none" stroke="#000000" stroke-width="0.5" stroke-miterlimit="10" d="m322.33 215.56-1.3278 3.6918z"/>
  <path fill="none" stroke="#000000" stroke-width="0.5" stroke-miterlimit="10" d="m326.13 218.17-5.1283 1.079z"/>
  <path fill="none" stroke="#000000" stroke-width="0.5" stroke-miterlimit="10" d="m304.51 226.96-2.5131 4.7904z"/>
  <path fill="none" stroke="#000000" stroke-width="0.5" stroke-miterlimit="10" d="m304.51 226.96-4.7631 3.0404z"/>
  <path fill="none" stroke="#000000" stroke-width="0.5" stroke-miterlimit="10" d="m300.48 225.3-0.72506 4.7031z"/>
  <path fill="none" stroke="#000000" stroke-width="0.5" stroke-miterlimit="10" d="m304.51 226.96-4.7631 3.0404z"/>
  <path fill="none" stroke="#000000" stroke-width="0.5" stroke-miterlimit="10" d="m286.94 234.56-3.4359 4.9394z"/>
  <path fill="none" stroke="#000000" stroke-width="0.5" stroke-miterlimit="10" d="m285.04 233.37-3.0356 2.3771z"/>
  <path fill="none" stroke="#000000" stroke-width="0.5" stroke-miterlimit="10" d="m285.04 233.37-5.0356 0.37708z"/>
  <path fill="none" stroke="#000000" stroke-width="0.5" stroke-miterlimit="10" d="m285.04 233.37-1.1876-2.8504z"/>
  <path fill="none" stroke="#000000" stroke-width="0.5" stroke-miterlimit="10" d="m270.07 247.15 0.92874 4.8504z"/>
  <path fill="none" stroke="#000000" stroke-width="0.5" stroke-miterlimit="10" d="m268.17 245.01-1.921 4.4881z"/>
  <path fill="none" stroke="#000000" stroke-width="0.5" stroke-miterlimit="10" d="m270.07 247.15-3.8213 2.3504z"/>
  <path fill="none" stroke="#000000" stroke-width="0.5" stroke-miterlimit="10" d="m250.59 254.75 0.40618 3.9994z"/>
  <path fill="none" stroke="#000000" stroke-width="0.5" stroke-miterlimit="10" d="m250.59 254.75-4.5938 1.7494z"/>
  <path fill="none" stroke="#000000" stroke-width="0.5" stroke-miterlimit="10" d="m234.44 265.91 0.05819 6.3355z"/>
  <path fill="none" stroke="#000000" stroke-width="0.5" stroke-miterlimit="10" d="m234.44 265.91-5.4418-0.16449z"/>
  <path fill="none" stroke="#000000" stroke-width="0.5" stroke-miterlimit="10" d="m232.07 262.83z"/>
  <path fill="none" stroke="#000000" stroke-width="0.5" stroke-miterlimit="10" d="m232.07 262.83-3.0665 2.9234z"/>
  <path fill="none" stroke="#000000" stroke-width="0.5" stroke-miterlimit="10" d="m212.83 277.79-3.5766 4.709z"/>
  <path fill="none" stroke="#000000" stroke-width="0.5" stroke-miterlimit="10" d="m210.25 276.5-1 6z"/>
  <path fill="none" stroke="#000000" stroke-width="0.5" stroke-miterlimit="10" d="m206.65 275.89-3.6508 5.8593z"/>
  <path fill="none" stroke="#000000" stroke-width="0.5" stroke-miterlimit="10" d="m192.64 285.87 1.6134 4.883z"/>
  <path fill="none" stroke="#000000" stroke-width="0.5" stroke-miterlimit="10" d="m192.64 285.87-1.6366 6.133z"/>
  <path fill="none" stroke="#000000" stroke-width="0.5" stroke-miterlimit="10" d="m188.36 284.68-4.861 6.5707z"/>
  <path fill="none" stroke="#000000" stroke-width="0.5" stroke-miterlimit="10" d="m188.36 284.68 0.38895 5.3207z"/>
  <path fill="none" stroke="#000000" stroke-width="0.5" stroke-miterlimit="10" d="m172.45 292.52 2.3034 6.7322z"/>
  <path fill="none" stroke="#000000" stroke-width="0.5" stroke-miterlimit="10" d="m171.26 291.09-0.75891 7.9074z"/>
  <path fill="none" stroke="#000000" stroke-width="0.5" stroke-miterlimit="10" d="m169.83 290.14 0.66627 8.8575z"/>
  <path fill="none" stroke="#000000" stroke-width="0.5" stroke-miterlimit="10" d="m157.48 298.22 4.0178 3.0315z"/>
  <path fill="none" stroke="#000000" stroke-width="0.5" stroke-miterlimit="10" d="m161.52 297.03-0.02019 4.2191z"/>
  <path fill="none" stroke="#000000" stroke-width="0.5" stroke-miterlimit="10" d="m161.52 297.03-4.0202 4.4691z"/>
  <path fill="none" stroke="#000000" stroke-width="0.5" stroke-miterlimit="10" d="m141.57 308.43 4.9323 3.0677z"/>
  <path fill="none" stroke="#000000" stroke-width="0.5" stroke-miterlimit="10" d="m141.57 308.43-3.8177 4.8177z"/>
  <path fill="none" stroke="#000000" stroke-width="0.5" stroke-miterlimit="10" d="m141.57 308.43 0.4323 6.8177z"/>
  <path fill="none" stroke="#000000" stroke-width="0.5" stroke-miterlimit="10" d="m128.74 310.33 0.25891 4.4175z"/>
  <path fill="none" stroke="#000000" stroke-width="0.5" stroke-miterlimit="10" d="m128.74 310.33-2.9911-4.5825z"/>
  <path fill="none" stroke="#000000" stroke-width="0.5" stroke-miterlimit="10" d="m128.74 310.33 0.25891 4.4175z"/>
  <path fill="none" stroke="#000000" stroke-width="0.5" stroke-miterlimit="10" d="m128.74 310.33-4.4911 5.1675z"/>
  <path fill="none" stroke="#000000" stroke-width="0.5" stroke-miterlimit="10" d="m128.74 310.33-4.7411-0.58254z"/>
  <path fill="none" stroke="#000000" stroke-width="0.5" stroke-miterlimit="10" d="m137.05 289.43-3.3046 2.0701z"/>
  <path fill="none" stroke="#000000" stroke-width="0.5" stroke-miterlimit="10" d="m136.82 287.53-4.8171-1.5297z"/>
  <path fill="none" stroke="#000000" stroke-width="0.5" stroke-miterlimit="10" d="m136.82 287.53-1.3171-4.7797z"/>
  <path fill="none" stroke="#000000" stroke-width="0.5" stroke-miterlimit="10" d="m152.97 278.74c-2.9996 0.62571-0.32893-1.1009-0.71912-1.4911-0.0589-0.0589-0.16667 0-0.25 0-0.0833 0-0.19107 0.0589-0.25 0-0.0101-0.0101 0-0.90819 0-1v-0.25 0.5c0-0.25 0.0791-0.51283 0-0.75-0.0264-0.0791-0.16667 0-0.25 0v-0.25"/>
  <path fill="none" stroke="#000000" stroke-width="0.5" stroke-miterlimit="10" d="m155.34 279.22c-1.9354-0.16073-0.08349-1.1943-0.34442-1.7162-0.0527-0.10541-0.1973-0.14459-0.25-0.25-0.0373-0.0745 0.0589-0.19107 0-0.25-0.0589-0.0589-0.19107 0.0589-0.25 0-0.0589-0.0589 0.0589-0.19107 0-0.25-0.51726-0.51726 0.0202 0.79044-0.5-0.25-0.0373-0.0745 0.0589-0.19107 0-0.25-0.11785-0.11785-0.38215 0.11785-0.5 0-0.0589-0.0589 0.0808-0.22979 0-0.25-0.65179-0.16295-1.3333-0.16667-2-0.25"/>
  <path fill="none" stroke="#000000" stroke-width="0.5" stroke-miterlimit="10" d="m156.77 276.6c-7e-3 -0.11778-0.13738-0.3468-0.0196-0.35333 0.11778-7e-3 0.0724 0.45883 0.0196 0.35333l-0.5196-1.3533c-0.0833 0-0.19107 0.0589-0.25 0-0.0589-0.0589 0.0589-0.19107 0-0.25-0.0589-0.0589-0.19107 0.0589-0.25 0-0.0589-0.0589 0.0589-0.19107 0-0.25-0.11785-0.11785-0.38215 0.11785-0.5 0-0.0589-0.0589 0.0589-0.19107 0-0.25-0.0589-0.0589-0.19107 0.0589-0.25 0-0.125-0.125 0.125-0.625 0-0.75-0.0589-0.0589-0.19107 0.0589-0.25 0-0.11785-0.11785 0.11785-0.38215 0-0.5-0.0589-0.0589-0.33242-0.0123-0.25 0 0.67566 0.10064 1.3547 0.17696 2.0321 0.26544"/>
  <path fill="none" stroke="#000000" stroke-width="0.5" stroke-miterlimit="10" d="m172.68 272.09c-0.3947-0.19675-0.78939-0.39351-1.1841-0.59026 0-0.0833 0.0589-0.19107 0-0.25-0.0589-0.0589-0.16667 0-0.25 0h-0.25c-0.0833 0-0.19107 0.0589-0.25 0-0.11785-0.11785 0.11785-0.38215 0-0.5-0.125-0.125-0.625 0.125-0.75 0-0.0589-0.0589 0-0.16667 0-0.25"/>
  <path fill="none" stroke="#000000" stroke-width="0.5" stroke-miterlimit="10" d="m173.4 270.19c-0.38222-0.14667-0.76445-0.29335-1.1467-0.44002-0.0833-0.0833-0.14459-0.1973-0.25-0.25-0.0745-0.0373-0.19107 0.0589-0.25 0-0.0589-0.0589 0.0373-0.17546 0-0.25-0.0527-0.10541-0.1973-0.14459-0.25-0.25-0.0373-0.0745 0.0373-0.17546 0-0.25-0.0527-0.10541-0.1973-0.14459-0.25-0.25-0.0373-0.0745 0.0589-0.19107 0-0.25-0.0511-0.0511-0.65088 0.0496-0.75 0-0.10541-0.0527-0.14459-0.1973-0.25-0.25-0.14907-0.0745-0.5 0.16667-0.5 0 0-0.0833 0.33333 0 0.25 0h-1.25-0.25c-0.0833 0-0.19107-0.0589-0.25 0-0.0589 0.0589 0 0.16667 0 0.25v0.25"/>
  <path fill="none" stroke="#000000" stroke-width="0.5" stroke-miterlimit="10" d="m173.4 270.19c-4.1791 0.94323 0.37068-1.6727-0.14667-2.19-0.0589-0.0589-0.19107 0.0589-0.25 0-0.0589-0.0589 0.0589-0.19107 0-0.25-0.0589-0.0589-0.19107 0.0589-0.25 0-0.0589-0.0589 0.0373-0.17546 0-0.25-0.0527-0.10541-0.14459-0.1973-0.25-0.25-0.0745-0.0373-0.25 0.0833-0.25 0 0-0.10262 1.3002 0.26674-0.25-0.25-0.43871-0.14624-0.23738 0.26262-0.75-0.25-0.0833-0.0833-0.14459-0.1973-0.25-0.25-0.0745-0.0373-0.19107 0.0589-0.25 0-0.0589-0.0589 0.0589-0.19107 0-0.25-0.0589-0.0589-0.25-0.0833-0.25 0 0 0.11785 0.16667 0.16667 0.25 0.25"/>
  <path fill="none" stroke="#000000" stroke-width="0.5" stroke-miterlimit="10" d="m173.4 268.05c0.37515-1.3827 0.35333-0.85248 0.35333-1.5523 0-0.0833 0.0589-0.19107 0-0.25-0.11785-0.11785-0.38215 0.11785-0.5 0-0.0602-0.0602 0.0602-0.93984 0-1-0.0589-0.0589-0.19107 0.0589-0.25 0-0.11785-0.11785 0.11785-0.38215 0-0.5-0.0589-0.0589-0.19107 0.0589-0.25 0-0.0589-0.0589-0.0833-0.25 0-0.25s0 0.33333 0 0.25v-0.75"/>
  <path fill="none" stroke="#000000" stroke-width="0.5" stroke-miterlimit="10" d="m191.92 258.79c-0.72466 0.48713-1.4112 1.0364-2.174 1.4614-0.0728 0.0406 0.0589-0.19107 0-0.25-0.11785-0.11785-0.38215 0.11785-0.5 0s0.0745-0.35093 0-0.5c-0.0527-0.10541-0.1973-0.14459-0.25-0.25-0.0373-0.0745 0.0589-0.19107 0-0.25-0.0589-0.0589-0.21273 0.0745-0.25 0-0.0745-0.14907 0.0404-0.33831 0-0.5-0.1009-0.40361-0.24587-0.49587-0.5-0.75-0.0833-0.0833-0.1973-0.14459-0.25-0.25-0.0373-0.0745 0.0589-0.19107 0-0.25-0.0589-0.0589-0.19107 0.0589-0.25 0-0.0589-0.0589 0.0373-0.17546 0-0.25-0.0527-0.10541-0.1973-0.14459-0.25-0.25-0.0373-0.0745 0.0589-0.19107 0-0.25-8e-3 -8e-3 -0.68937 0-0.75 0"/>
  <path fill="none" stroke="#000000" stroke-width="0.5" stroke-miterlimit="10" d="m189.55 262.83c-0.26623-0.1922-0.48518-0.47896-0.79869-0.5766-0.11252-0.035-0.14459 0.1973-0.25 0.25-0.0745 0.0373-0.16667 0-0.25 0-0.0833 0-0.25 0.0833-0.25 0s0.33333 0 0.25 0c-1.4167 0-0.0833-0.16667-0.5 0.25-0.11785 0.11785-0.38215-0.11785-0.5 0-0.0589 0.0589-0.0833 0.24722 0 0.25 0.76798 0.0256 1.5325-0.1156 2.2987-0.1734"/>
  <path fill="none" stroke="#000000" stroke-width="0.5" stroke-miterlimit="10" d="m191.92 258.79c-0.47466-0.0962-0.971-0.11726-1.424-0.2886-6e-3 -2e-3 -0.0234-0.72658 0-0.75 0.0589-0.0589 0.19107 0.0589 0.25 0 0.0589-0.0589 0-0.16667 0-0.25v-0.25-1"/>
  <path fill="none" stroke="#000000" stroke-width="0.5" stroke-miterlimit="10" d="m202.38 259.98c0.45823-0.99208 0.91647-1.9842 1.3747-2.9762-0.0833 0-0.19107 0.0589-0.25 0-0.11785-0.11785 0.11785-0.38215 0-0.5-0.0589-0.0589-0.19107 0.0589-0.25 0-0.11785-0.11785 0.11785-0.38215 0-0.5-0.58629-0.58629 0 0.77022 0 0.25 0-1.2194-0.5 0.13603-0.5-0.75"/>
  <path fill="none" stroke="#000000" stroke-width="0.5" stroke-miterlimit="10" d="m205.94 256.41c-0.22941-0.55443-0.39344-1.1407-0.68824-1.6633-0.0257-0.0455-0.67944 0-0.75 0-0.11787 0-1.2387-0.0113-1.25 0-0.0589 0.0589 0.0589 0.19107 0 0.25-0.11785 0.11785-0.38215-0.11785-0.5 0-0.0589 0.0589 0.0589 0.19107 0 0.25-0.11785 0.11785-0.38215-0.11785-0.5 0-0.0589 0.0589 0.0589 0.19107 0 0.25-0.0589 0.0589-0.16667 0-0.25 0-0.0833 0-0.25 0.0833-0.25 0s0.25 0.0833 0.25 0c0-0.36972-1.8015-0.63788 0.75 0"/>
  <path fill="none" stroke="#000000" stroke-width="0.5" stroke-miterlimit="10" d="m223.04 250.48c-0.18013-0.15835-0.33482-0.35151-0.54038-0.47506-0.0816-0.049-0.85677 0-1 0h-0.25c-0.0833 0-0.25 0.0833-0.25 0s0.33333 0 0.25 0h-0.5-0.25c-0.0833 0-0.19107 0.0589-0.25 0-0.0589-0.0589 0.0589-0.19107 0-0.25-0.0589-0.0589-0.19107 0.0589-0.25 0-0.0589-0.0589 0.0589-0.19107 0-0.25-0.0589-0.0589-0.16667 0-0.25 0-0.45677 0-0.25 0.06-0.25 0.5"/>
  <path fill="none" stroke="#000000" stroke-width="0.5" stroke-miterlimit="10" d="m223.04 250.48c-0.0968-0.74169-0.11386-1.4982-0.29038-2.2251-0.0197-0.081-0.16667 0-0.25 0h-0.25-1.25c-0.0918 0-0.98994 0.0101-1 0-0.0589-0.0589-0.0833-0.25 0-0.25 0.11785 0 0.36785 0.25 0.25 0.25-0.18634 0-0.4266-0.42127-0.5-0.25-0.26466 0.61753-0.16667 1.3333-0.25 2"/>
  <path fill="none" stroke="#000000" stroke-width="0.5" stroke-miterlimit="10" d="m223.04 250.48c0.40321-0.90835 0.80641-1.8167 1.2096-2.7251 0-0.0833 0.0589-0.19107 0-0.25-0.11785-0.11785-0.38215 0.11785-0.5 0s0.11785-0.38215 0-0.5c-0.0589-0.0589-0.19107 0.0589-0.25 0-0.0589-0.0589 0.0589-0.19107 0-0.25-0.0602-0.0602-0.93984 0.0602-1 0-0.0589-0.0589 0.0589-0.19107 0-0.25-0.0589-0.0589-0.19107 0.0589-0.25 0-0.0589-0.0589 0.0589-0.19107 0-0.25-0.11785-0.11785-0.38215 0.11785-0.5 0-0.0589-0.0589 0.0589-0.19107 0-0.25-0.0589-0.0589-0.19107-0.0589-0.25 0-0.0589 0.0589 0 0.16667 0 0.25"/>
  <path fill="none" stroke="#000000" stroke-width="0.5" stroke-miterlimit="10" d="m247.98 240.5c-1.6949-1.3739-1.3099-1.2488-2.731-1.2488h-0.25c-0.0833 0-0.19107 0.0589-0.25 0-0.0589-0.0589 0.0589-0.19107 0-0.25-0.11785-0.11785-0.38215 0.11785-0.5 0-0.0589-0.0589 0.0589-0.19107 0-0.25-0.0113-0.0113-1.1321 0-1.25 0-0.0833 0-0.19107-0.0589-0.25 0-0.0589 0.0589 0.0589 0.19107 0 0.25-0.11785 0.11785-0.38215-0.11785-0.5 0-0.33333 0.33333 0.41667 0.25-0.25 0.25"/>
  <path fill="none" stroke="#000000" stroke-width="0.5" stroke-miterlimit="10" d="m246.56 237.89c-1.246-0.7306-1.2121-0.63599-2.3058-0.63599h-0.25c-0.0833 0-0.17546 0.0373-0.25 0-0.10541-0.0527-0.14459-0.1973-0.25-0.25-0.14907-0.0745-0.38215 0.11785-0.5 0-0.0589-0.0589-0.0833-0.25 0-0.25s0 0.33333 0 0.25v-0.5"/>
  <path fill="none" stroke="#000000" stroke-width="0.5" stroke-miterlimit="10" d="m246.32 235.27c-0.52276-8e-3 -1.0455-0.0154-1.5683-0.0232 0-0.0833 0.0589-0.19107 0-0.25-0.11785-0.11785-0.38215 0.11785-0.5 0-0.0589-0.0589 0.0589-0.19107 0-0.25-0.0589-0.0589-0.19107 0.0589-0.25 0-0.0589-0.0589 0.0589-0.19107 0-0.25-0.0589-0.0589-0.19107 0.0589-0.25 0-0.11785-0.11785 0.11785-0.38215 0-0.5-0.0589-0.0589-0.19107 0.0589-0.25 0-0.0589-0.0589 0.0589-0.19107 0-0.25-0.33333-0.33333-0.25 0.41667-0.25-0.25"/>
  <path fill="none" stroke="#000000" stroke-width="0.5" stroke-miterlimit="10" d="m263.75 222.25c0 0.66667-0.0833-0.0833 0.25 0.25 0.0589 0.0589-0.0373 0.1755 0 0.25 0.0527 0.10541 0.25 0.13215 0.25 0.25 0 0.0833-0.25-0.0833-0.25 0s0.1911-0.0589 0.25 0-0.0589 0.1911 0 0.25 0.1911-0.0589 0.25 0-0.0373 0.1755 0 0.25c0.5202 1.0404-0.0173-0.26726 0.5 0.25 0.0589 0.0589 0 0.1667 0 0.25 0 0.86531-0.0252 0.17057 0.55819 2.0095 0.32172-1.7216-1.1866 0.61212-1.5582 0.2405-0.0589-0.0589 0.0589-0.19107 0-0.25-0.125-0.125-0.625 0.125-0.75 0-0.0589-0.0589 0.0589-0.19107 0-0.25-0.0589-0.0589-0.19107 0.0589-0.25 0-0.0589-0.0589 0.0589-0.19107 0-0.25-0.11785-0.11785-0.38215 0.11785-0.5 0-0.33333-0.33333 0.41667-0.25-0.25-0.25"/>
  <path fill="none" stroke="#000000" stroke-width="0.5" stroke-miterlimit="10" d="m265.56 227.2c-0.18606 0.18428-0.34205 0.40499-0.55819 0.55285-0.0688 0.0471-0.16667 0-0.25 0h-0.25-1.25-0.5c-0.0833 0-0.19107-0.0589-0.25 0-0.0589 0.0589 0.0589 0.19107 0 0.25-0.11785 0.11785-0.38215-0.11785-0.5 0-0.125 0.125 0.125 0.625 0 0.75-0.33333 0.33333-0.25-0.41667-0.25 0.25"/>
  <path fill="none" stroke="#000000" stroke-width="0.5" stroke-miterlimit="10" d="m279.81 217.22c-0.02 0.59303 0.0579 1.1976-0.06 1.7791-0.0234 0.1155-0.14459-0.1973-0.25-0.25-0.66667 0 0.0833 0.0833-0.25-0.25-0.0589-0.0589-0.17546 0.0373-0.25 0-0.10541-0.0527-0.14459-0.1973-0.25-0.25-0.0745-0.0373-0.17546 0.0373-0.25 0-0.10541-0.0527-0.14459-0.1973-0.25-0.25-0.14907-0.0745-0.5 0.16667-0.5 0 0-0.0833 0.17206 0.0295 0.25 0 0.61437-0.23236 1.2066-0.5194 1.81-0.7791"/>
  <path fill="none" stroke="#000000" stroke-width="0.5" stroke-miterlimit="10" d="m280.52 216.27c-0.42419-0.34026-0.82089-0.71796-1.2726-1.0208-0.13843-0.0928-0.38215 0.11785-0.5 0-0.0589-0.0589 0.0589-0.19107 0-0.25-0.0589-0.0589-0.19107 0.0589-0.25 0-0.51726-0.51726 0.79044 0.0202-0.25-0.5-0.0745-0.0373-0.19107 0.0589-0.25 0-0.11785-0.11785 0.11785-0.38215 0-0.5-0.0589-0.0589-0.16667 0-0.25 0h-0.25"/>
  <path fill="none" stroke="#000000" stroke-width="0.5" stroke-miterlimit="10" d="m293.5 209.25c0.0606 0 0.742-8e-3 0.75 0 0.0589 0.0589-0.0589 0.1911 0 0.25s0.1667 0 0.25 0h0.25 1.25c0.16667 0 0.34497 0.0612 0.5 0 0.22955-0.0906 0.43309-0.23674 0.64964-0.35511-0.38321-0.5483-0.76643-1.0966-1.1496-1.6449 0-0.0833 0.0589-0.19107 0-0.25-0.0589-0.0589-0.16667 0-0.25 0-0.0833 0-0.19107 0.0589-0.25 0-0.125-0.125 0.125-0.625 0-0.75-0.0589-0.0589-0.19107 0.0589-0.25 0-0.11785-0.11785 0.11785-0.38215 0-0.5-0.0589-0.0589-0.33086-0.0201-0.25 0 0.7911 0.19695 1.5914 0.35471 2.3872 0.53207-0.29572-0.42736-0.62674-0.83233-0.88717-1.2821-0.0418-0.0721 0-1.3171 0-1.5 0-0.0833 0.0589-0.19107 0-0.25-0.0589-0.0589-0.19107 0.0589-0.25 0-0.11785-0.11785 0.11785-0.38215 0-0.5-0.0589-0.0589-0.19107 0.0589-0.25 0-0.0589-0.0589-0.0833-0.25 0-0.25s0 0.16667 0 0.25"/>
  <path fill="none" stroke="#000000" stroke-width="0.5" stroke-miterlimit="10" d="m311 198.25h1.25-0.5 0.25c0.66667 0-0.0833-0.0833 0.25 0.25 0.0602 0.0602 0.9398-0.0602 1 0 0.0589 0.0589-0.0589 0.1911 0 0.25s0.2114 0.0738 0.25 0c0.16133-0.3083 0.18452-0.67102 0.27672-1.0065-3.8444 0.86507-0.32684-1.2936-0.77672-1.7435-0.0589-0.0589-0.19107 0.0589-0.25 0-0.0589-0.0589 0.0589-0.19107 0-0.25-0.11785-0.11785-0.38215 0.11785-0.5 0-0.0589-0.0589 0.0589-0.19107 0-0.25-0.0589-0.0589-0.19107 0.0589-0.25 0-0.0589-0.0589 0-0.16667 0-0.25v-0.25c0-0.66667 0.0833 0.0833-0.25-0.25-0.125-0.125 0.125-0.625 0-0.75-0.0589-0.0589-0.25 0.0833-0.25 0s0.25-0.0833 0.25 0c0 0.11785-0.16667 0.16667-0.25 0.25"/>
  <path fill="none" stroke="#000000" stroke-width="0.5" stroke-miterlimit="10" d="m316.63 195.61c-1.5557 0.95381-1.2276-0.78094-1.8771-1.1057-0.0745-0.0373-0.19107 0.0589-0.25 0-0.11785-0.11785 0.11785-0.38215 0-0.5-0.0589-0.0589-0.19107 0.0589-0.25 0-0.0589-0.0589 0.0589-0.19107 0-0.25-0.0589-0.0589-0.19107 0.0589-0.25 0-0.0589-0.0589 0.0589-0.19107 0-0.25-0.11785-0.11785-0.38215 0.11785-0.5 0s0.11785-0.38215 0-0.5c-0.0589-0.0589-0.19107 0.0589-0.25 0-0.0256-0.0256 0.10897-0.55769-0.25-0.25-0.53688 0.46018-1 1-1.5 1.5"/>
 </g>
 <g id="male_catkins">
  <path fill="none" stroke="#000000" stroke-width="0.5" stroke-miterlimit="10" d="m347 367.75-7-5.25-2-1.5-2.5-2.5-2.75-0.75-3-0.75-4-0.75h-7l-0.5-1-4.25-0.25-0.25-1.25v-1.75l1.5-0.25 2.75 2 1.75-0.75 1-1.75v-2l1-1.75 2.75-0.25h3.5l8.25 0.5 3.5 1 2 1 3.5 1.75 1.25 1.5 1.5 2.25 2.25 2 2.5 3.75v3l-0.25 2.5-2.25 1.25z"/>
  <path fill="none" stroke="#000000" stroke-width="0.5" stroke-miterlimit="10" d="m318.75 356.25 1.25 2.75 0.25 2.25 0.25 1.5-0.5 1.75-0.25 2-0.75 2-1.75-0.5h-2l-0.75-1.75-1.5-1-0.5-1-1.25-1.5v-2.5l0.25-2.25 2.5-3z"/>
  <path fill="none" stroke="#000000" stroke-width="0.5" stroke-miterlimit="10" d="m308.75 360.25-1 1.5-0.5 1.5-0.75 1.5-0.5 2-0.75 1.75v3.5l0.75 1 1.25 0.25h0.25l1.75-1 1.5-1.75 2-2.25 1.75-2-3.25-3.5z"/>
  <path fill="none" stroke="#000000" stroke-width="0.5" stroke-miterlimit="10" d="m313.75 352-1.5-3v-2.5l2-2.5 1.75-2.75 2-1.25h3.25l1 1.75 0.25 1.5 0.5 2-1.25 2.25-1 1.75v2l-1 1.75z"/>
  <path fill="none" stroke="#000000" stroke-width="0.5" stroke-miterlimit="10" d="m305.25 372-3.25 1.25-0.5 0.5-1.25 0.5h-0.75l-1.75-0.5-0.75-1-0.75-0.5-1-0.75-0.5-1.25v-1l1-3.25 0.75-1.5v-2l1.5-1 2-0.25 1.75-0.25 2.25-0.25 3.75 1-2.5 6.75z"/>
  <path fill="none" stroke="#000000" stroke-width="0.5" stroke-miterlimit="10" d="m304 360.75-2.25-1.5v-7l0.75-1.5 1.75-1.5 2.25-1.5h1.75l4 1.25 1.75 6-2.5 3-2.75 2.25-1 1.5z"/>
  <path fill="none" stroke="#000000" stroke-width="0.5" stroke-miterlimit="10" d="m306.5 338.5z"/>
  <path fill="none" stroke="#000000" stroke-width="0.5" stroke-miterlimit="10" d="m308.75 340.25 1.75 2.25 0.5 1 1.25 3v2.5l-5.75-1.25-4.75-0.75-0.25-1-1.75-2.25 2-2 1-1.5 1.25-0.75 2.5-1z"/>
  <path fill="none" stroke="#000000" stroke-width="0.5" stroke-miterlimit="10" d="m294.75 370.25 0.5 1.25-3 1-0.75 0.5-2.75 0.5-0.5-0.5-1-1-0.25-1-0.5-1.75v-2.25l0.75-2.25 1.75-2 2-0.75 2.75-0.25 2.75 0.75v2z"/>
  <path fill="none" stroke="#000000" stroke-width="0.5" stroke-miterlimit="10" d="m293.75 361.75-2.75 0.25l0.5-3.25-0.5-2.5 0.75-1.5 1.75-0.75 2.5-1.25 2-0.75 3.75 0.25v7l-3.75 2.25z"/>
  <path fill="none" stroke="#000000" stroke-width="0.5" stroke-miterlimit="10" d="m296 352.75-4.25 2-2-2.25-2.25-1v-1.75l-0.25-1.5 1.25-2 2.25-2 1-0.5 3-1.5h2.75l2.25 1.5 2 3.25-3.75 5z"/>
  <path fill="none" stroke="#000000" stroke-width="0.5" stroke-miterlimit="10" d="m286.5 367-2-3.25-2.5-2-1-2.25-1-2.5 0.25-1.75 1.5-1h2.75l5.25-1.75 1.25 3.75 0.5 2.5-0.5 3.25-3.75 2.75z"/>
  <path fill="none" stroke="#000000" stroke-width="0.5" stroke-miterlimit="10" d="m280 357-2.75-0.25-0.5-0.75-0.5-1.5v-2l2-0.75 2.5-2 2.25-1.25 4.25-0.25 0.25 1.5 2.25 2.75-5.25 1.75h-2.75z"/>
  <path fill="none" stroke="#000000" stroke-width="0.5" stroke-miterlimit="10" d="m286.5 369.25 0.75 2.75-3.5 3.25-1.75 0.75-3.25 0.75-2.5-0.5-0.75-3-0.25-3.75 0.5-2.5 1.25-1.75 0.75-0.75 2-0.25h2.25l2.5-0.5z"/>
  <path fill="none" stroke="#000000" stroke-width="0.5" stroke-miterlimit="10" d="m277 365.25-2-2.25-2-2-1.5-0.75-1-1.5 0.25-0.75 1.25-1.5 1.25-1.25 3-0.75 1 2.25 2.75 0.25 2 4.75v2.5z"/>
  <path fill="none" stroke="#000000" stroke-width="0.5" stroke-miterlimit="10" d="m276.25 376.25 0.5 2.75-1 1.5-1.75 1.75-1.75 0.75h-2.25l-2.5-1v-1.25l-0.5-2v-2.75l0.75-2 1-0.5 1.25-0.25h5.5z"/>
  <path fill="none" stroke="#000000" stroke-width="0.5" stroke-miterlimit="10" d="m275.25 369.5-2.25 2-3 1.75l-1.75-2.75-0.5-1.75v-5.5l2-1 1.75-2 1.5 0.75 4 4.25z"/>
  <path fill="none" stroke="#000000" stroke-width="0.5" stroke-miterlimit="10" d="m267.75 363.25-3 0.25-1.25 1h-1.75l-3-1.5v-1.5l0.25-1.75 1.75-1.25 2.25-0.5 4.5-2.75 3.25 2.75 0.75 2.25z"/>
  <path fill="none" stroke="#000000" stroke-width="0.5" stroke-miterlimit="10" d="m259 359.75-3.5 0.75-1.25 1.5v3l0.5 2 1.5 2h1.75l0.75-1.5 0.25-1.75 2.75-1.25-3-1.5z"/>
  <path fill="none" stroke="#000000" stroke-width="0.5" stroke-miterlimit="10" d="m258 369 1.25 2.5 2.25 2.5 1.5 1 4 1l1.75-2.5 1.25-0.25-1.75-2.75-0.5-7.25-8.75 2.5z"/>
  <path fill="none" stroke="#000000" stroke-width="0.5" stroke-miterlimit="10" d="m263 375-0.25 3-0.5 2.5-0.75 1.5-1 1.25-0.75 1.5 1 2.75 2.5 2.5 3-2.5 1.25-5.5-0.5-3.25v-2.75z"/>
  <path fill="none" stroke="#000000" stroke-width="0.5" stroke-miterlimit="10" d="m263.25 390-2.5-2.5-2.25 2-0.75 1.75-1.5 0.25-2.75 1.75-1.75 0.25-0.5-0.25-1.5-1-0.25-1v-4l2.25-0.5 2.5-0.5 1.5 0.5 1.75-0.75 2.25-1.25z"/>
  <path fill="none" stroke="#000000" stroke-width="0.5" stroke-miterlimit="10" d="m254.25 386.25l-1.5-3v-0.75l0.25-1.5 0.25-1.5 1-1.75 1.25-0.75 1.75-0.75 2.25-0.5 2-1.75 1.25 4-0.5 2.5-6.5 6.25"/>
  <path fill="none" stroke="#000000" stroke-width="0.5" stroke-miterlimit="10" d="m254.25 377.75-3-2.25-0.75-1-1-1.5-0.75-1.25v-2l0.25-1.5 0.5-1 4.75-2.25 2 4 5.25 5-2 1.75-2.25 0.5z"/>
  <path fill="none" stroke="#000000" stroke-width="0.5" stroke-miterlimit="10" d="m249.5 367.25-2.25-1.5h-2l-2 0.5-1 1-1.5 2.25-0.5 1.5-0.25 2 0.5 0.75 0.75 1.5 1.25 1 2.5-0.25h1.75l0.75-0.75 1-1 0.25-2.5z"/>
  <path fill="none" stroke="#000000" stroke-width="0.5" stroke-miterlimit="10" d="m246.75 376h-1.75l0.75 3.75 0.25 2.5v2l0.75 1.5 2.75 1.5 4.75-1-1.5-3v-0.75l0.5-3-2-4-2.75-1.25z"/>
  <path fill="none" stroke="#000000" stroke-width="0.5" stroke-miterlimit="10" d="m240.75 369.5h-4l-1 0.5-1 1.75-2.25 3-0.75 1 0.5 3 4 1.25 1.75 0.75 1.25-1.5 3.25-3-2-2.5z"/>
  <path fill="none" stroke="#000000" stroke-width="0.5" stroke-miterlimit="10" d="m246 384.25-2.5 2.25-3.75 2-2.25-1.25-1.75-2.25-1-1.25 1.5-3.75l6.25-3.75 2.5-0.25z"/>
  <path fill="none" stroke="#000000" stroke-width="0.5" stroke-miterlimit="10" d="m239.75 392 2.5 2.5 1.5 1.25 1 1.25h2.5l2-2 2-1.75-1.75-2v-4l-2.75-1.5-7 2.75z"/>
  <path fill="none" stroke="#000000" stroke-width="0.5" stroke-miterlimit="10" d="m231.75 375.75-4.25 3-1.75 1-1.75 1.5 0.75 1.75 1.25 2.5 1 1.75 1.25 1.5 1.5-1.5 2-1h1.25l4.5 1-2.75-3.5 1.5-3.75-4-1.25z"/>
  <path fill="none" stroke="#000000" stroke-width="0.5" stroke-miterlimit="10" d="m229.75 387.25c0.25 7.25 0.25 7.5 0.25 7.5l1.25 2.25 1.25-2.25 2-1.5 2-0.25 3.25-1v-3.5l-6.75-2.25z"/>
  <path fill="none" stroke="#000000" stroke-width="0.5" stroke-miterlimit="10" d="m244.75 397l-3.5 1.75-0.75 1.25-1 1.5-1.5 0.75h-2.25l-2-1.75-2.5-3.5 1.25-2.25 2-1.5 5.25-1.25z"/>
  <path fill="none" stroke="#000000" stroke-width="0.5" stroke-miterlimit="10" d="m224 381.25c-3.25 1.5-3.25 1.25-3.25 1.25l-3.25 0.5-2.5 2.75-0.75 1.25 1.5 2.25 1.25 1.25 2.25 2h2.75l2-2 3-3.25z"/>
  <path fill="none" stroke="#000000" stroke-width="0.5" stroke-miterlimit="10" d="m222 392.5-0.5 2.5v1.75l2 1.25 2.75-0.75 3.75-2.5-0.25-7.5h-2.75z"/>
  <path fill="none" stroke="#000000" stroke-width="0.5" stroke-miterlimit="10" d="m223.5 398v4l0.75 2.5 1.25 1 1.75 1 2.5-2.5 4-3.5-2.5-3.5-1.25-2.25z"/>
  <path fill="none" stroke="#000000" stroke-width="0.5" stroke-miterlimit="10" d="m214.25 387-5.5 0.75-2 0.25-0.5 1-0.25 2v1.25l0.5 0.75 1.25 2.5 2.5-1.25 2.25-2 1.5-0.25 5.25 0.5z"/>
  <path fill="none" stroke="#000000" stroke-width="0.5" stroke-miterlimit="10" d="m221.5 396.75l-2 1.5-1.75 0.75-0.75 1.25-1.25 1.25-1.75-1-1.5-1.75-0.75-2.25-1.5-2.25 3.75-2.25 8 0.5z"/>
  <path fill="none" stroke="#000000" stroke-width="0.5" stroke-miterlimit="10" d="m225.5 405.5-1.25 2.25-1.25 1.75-1 0.25-2 0.25-1.25-1-0.75-1.25-1-1.25-0.5-1-0.75-1.5v-2.5l3.75-3.25 2-1.5 2 1.25 0.75 6.5z"/>
  <path fill="none" stroke="#000000" stroke-width="0.5" stroke-miterlimit="10" d="m206 391-3.75-1-1 0.25-2 2.25-1.75 1.25v3l0.5 1.5 1 2.25 1.5 0.5h0.75l2.5-0.75 1.25-0.75 1.25-1 1.5-3z"/>
  <path fill="none" stroke="#000000" stroke-width="0.5" stroke-miterlimit="10" d="m201.25 401l1 4v3l1 0.75 2-0.5 3.25-1 3.75-1.75 3.5-1.5-1.75-3.5-1.5-1.75-2.75-0.5-3.5 0.25z"/>
  <path fill="none" stroke="#000000" stroke-width="0.5" stroke-miterlimit="10" d="m206 409.5-0.75 2.75 0.5 2 0.25 1.25 1 0.5 1.5-0.5 7-3 0.75-1.25 1.75-3.5l-2.25-3.75z"/>
  <path fill="none" stroke="#000000" stroke-width="0.5" stroke-miterlimit="10" d="m197.5 393.75h-4l-2 1.25-1 1.25-1.25 2 0.75 2 1 2.5 1 0.75 1 0.5 1.5 0.75 2.25-1.75 2.25-2.5z"/>
  <path fill="none" stroke="#000000" stroke-width="0.5" stroke-miterlimit="10" d="m194.5 404.75-2.5-1.25-0.5 3 0.5 1 1.5 2.25v2.5l1.5 2 2.5-2.75 4.75-3.5-1-7-2.25-0.5z"/>
  <path fill="none" stroke="#000000" stroke-width="0.5" stroke-miterlimit="10" d="m203.25 417.25-3.75 2-1.25 1.5-2.25-0.5-0.75-0.75-0.25-1.25-0.25-0.75-1.25-1 1.5-2.25 7.25-6.25 3.75 1.5-0.75 2.75 0.75 3.25z"/>
  <path fill="none" stroke="#000000" stroke-width="0.5" stroke-miterlimit="10" d="m191.5 406.5-2.5-1.75-1.5 0.5h-1.5l-1.75 0.75-1 0.75-1 1h-1.75v-1.5l-0.5-1 0.25-2 2.75-2 2.25-0.75 4-2.25 2.75 5.25z"/>
  <path fill="none" stroke="#000000" stroke-width="0.5" stroke-miterlimit="10" d="m187 416.25-1.75-0.25-1.25-0.75-1.25-0.75v-4l-0.5-2.75 1-1 4.25-1.5 1.5-0.5 3 2.75 1.5 2.25v2.5z"/>
  <path fill="none" stroke="#000000" stroke-width="0.5" stroke-miterlimit="10" d="m185.25 416c1.75 0.25 1.75 0.25 1.75 0.25l-1 3.5 0.5 0.75 1 1.5 0.25 0.75h1.75l1.25-0.5 1.5-0.25 3-2.5-0.25-1.25-1.5-1.75 1.5-2.25-1.5-2z"/>
  <path fill="none" stroke="#000000" stroke-width="0.5" stroke-miterlimit="10" d="m180 405.25-2.25-1.5-1.75-0.25-1.75 1.25-1.75 1.75-0.25 1.5v2l0.5 0.25 1.75-1 2.5 0.75 1.25 1.75 1.5 1.75 3 1-0.5-6.75h-1.75z"/>
  <path fill="none" stroke="#000000" stroke-width="0.5" stroke-miterlimit="10" d="m189.5 422.75-2.25 3-1 0.75-2 1h-4.25l-1-1.5-0.25-1.5v-1.5l1.75-1.5 2-2 1-0.75 2.5 1z"/>
  <path fill="none" stroke="#000000" stroke-width="0.5" stroke-miterlimit="10" d="m183.5 418.75-3 2.75-1.75 1.5-2.25-3-0.75-1.5-0.25-1.75 1.25-1.5 3-1.75z"/>
  <path fill="none" stroke="#000000" stroke-width="0.5" stroke-miterlimit="10" d="m175.75 418.5-3 1.25-1.25-0.5-1.75-1-1.5-2 1-2 2-1.5 1.5-2.5 4.25-0.25 2.75 3.5l-3 1.75z"/>
  <path fill="none" stroke="#000000" stroke-width="0.5" stroke-miterlimit="10" d="m169.75 418.25-2.5 1-2.25 0.25-1.75-0.5-1-0.75-1-1v-2.75l2-2.25 3.5-1.5 1-0.5 2-0.75 2.5 0.5 0.5 0.25-1.5 2.5-2 1.5z"/>
  <path fill="none" stroke="#000000" stroke-width="0.5" stroke-miterlimit="10" d="m180 427.5l0.25 4-4.75 6-1.25 0.75h-1l-1.75-0.75-2-2.75 1-2.25 2-1z"/>
  <path fill="none" stroke="#000000" stroke-width="0.5" stroke-miterlimit="10" d="m162.25 418.25-1.25 3v1.75l0.75 1.5 2.5 2.5 2.25-0.75 1.75-1 0.75-0.5 1.25-3.25-0.5-3.25-4.75 1.25z"/>
  <path fill="none" stroke="#000000" stroke-width="0.5" stroke-miterlimit="10" d="m169 424.75 1.25 2.5 1.25 1.25 1.5 1h3.5l3.5-2-1-1.5-0.25-1.5v-1.5l-2.25-3-0.75-1.5-3 1.25-2.5 1.75z"/>
  <path fill="none" stroke="#000000" stroke-width="0.5" stroke-miterlimit="10" d="m161 423-4.5 0.25-1 1-1 0.75-1.75 1.25-1.25-1.25v-0.75l0.25-2.75 1.75-0.75 3-2.75 1-0.25 3.75-0.5 1 1-1.25 3z"/>
  <path fill="none" stroke="#000000" stroke-width="0.5" stroke-miterlimit="10" d="m169.5 434.75-2.5-0.75l-2.75 0.5-1.75-1-1-1.5v-2.25l2.75-2.75 2.25-0.75s6-1.75 5 2.25 0 1.75-2 6.25z"/>
  <path fill="none" stroke="#000000" stroke-width="0.5" stroke-miterlimit="10" d="m152.75 426.25 0.75 3 1.25 1 1.5 1h1.5l3.75 0.75v-2.25l0.25-5.25-5.25-1.25-1 1z"/>
  <path fill="none" stroke="#000000" stroke-width="0.5" stroke-miterlimit="10" d="m166.75 442.5-2 0.25h-2l-1-1-1.25-1.5-0.5-1.5 0.75-1.25 1-1 2.5-2 5.25 0.25 2 2.75-1.25 4.25z"/>
  <path fill="none" stroke="#000000" stroke-width="0.5" stroke-miterlimit="10" d="m151.5 424.25l-4.5 0.75-1.25 1.5-0.25 1.75 0.5 1 2 1.75h1.25l1-0.5 3.25-1.25-0.75-3z"/>
  <path fill="none" stroke="#000000" stroke-width="0.5" stroke-miterlimit="10" d="m162.5 433.5l-4.75-2.25h-1.5l-1.25 2.25-2.25 0.25-0.25 2.75 0.5 2.25 1.25 1.5 1.5 1 1.5-0.5 3.25-0.5 0.25-2.75z"/>
  <path fill="none" stroke="#000000" stroke-width="0.5" stroke-miterlimit="10" d="m162.75 442.75-2.75 1.5-1 2.25-1.75 2.25-1.25 1-0.75 0.5h-1.25l-2.5-0.75-0.5-1v-1.5l0.5-1.75 2.25-2.25 2-1.75 1.5-0.5 3.25-0.5z"/>
  <path fill="none" stroke="#000000" stroke-width="0.5" stroke-miterlimit="10" d="m153 438.75h-6.75l-1.25 0.5-0.25 2 0.25 2 1.75 2.25 0.75 0.75 3.5 0.75 0.5-1.75 4.25-4z"/>
  <path fill="none" stroke="#000000" stroke-width="0.5" stroke-miterlimit="10" d="m146 429.25-0.75 3l-0.25 1.75v1.25l1.25 3.5h6.75l-0.5-2.25 0.25-2.75-2.5-3.25z"/>
  <path fill="none" stroke="#000000" stroke-width="0.5" stroke-miterlimit="10" d="m151.5 449.5-2.5 3.5-0.25 1-1 0.5-2.5 0.75-1.5-0.75-0.5-1.25-1-1.75 2.25-2.5 3-2.75l3.5 0.75z"/>
  <path fill="none" stroke="#000000" stroke-width="0.5" stroke-miterlimit="10" d="m142.25 451.5-2.25-1.5l-1-1.25-1-0.75-0.75-1.75 0.25-2.25 1.25-1.25 2-0.5h1.5l2.75 1 1.75 2.25z"/>
  <path fill="none" stroke="#000000" stroke-width="0.5" stroke-miterlimit="10" d="m140 437.25-2.5-0.5v-3l1.25-1 2.5-2.5 1.75-0.5 2.25 2.5-0.25 1.75v1.25z"/>
  <path fill="none" stroke="#000000" stroke-width="0.5" stroke-miterlimit="10" d="m144.75 441.25-2.5 1h-1.5l-2 0.5-1.25-2.5v-3.5l2.5 0.5 5 2z"/>
  <path fill="none" stroke="#000000" stroke-width="0.5" stroke-miterlimit="10" d="m138.75 458.75-2-0.5-0.75-1.25-0.25-1.75v-1.75l0.5-1.5 0.5-0.75 3.25-1.25 2.25 1.5 1 1.75 0.5 1.25-1.5 3z"/>
  <path fill="none" stroke="#000000" stroke-width="0.5" stroke-miterlimit="10" d="m136.25 452-0.5 1.5-3.75-1.75s-1.5 1.75-1.25-2l0.25-3.75 2.25-0.5 4.25-1.5-0.25 2.25 1.75 2.5 1 1.25z"/>
  <path fill="none" stroke="#000000" stroke-width="0.5" stroke-miterlimit="10" d="m129 440.25-0.5 1.5 0.25 2 2.25 2.25l2.25-0.5 1.75-2.5 2.5 1v-7.25z"/>
  <path fill="none" stroke="#000000" stroke-width="0.5" stroke-miterlimit="10" d="m133.75 459.75-2.75 1.5-1-0.5-1.25-0.25-0.5-1.25-0.25-1.25-0.75-1 0.25-0.75 0.5-1 4-3.5l3.75 1.75z"/>
  <path fill="none" stroke="#000000" stroke-width="0.5" stroke-miterlimit="10" d="m124.5 453.25-0.25-2v-0.75l0.25-1 0.25-0.75 0.75-1 1.5-0.75h1l3-1 1 5.75-4 3.5z"/>
  <path fill="none" stroke="#000000" stroke-width="0.5" stroke-miterlimit="10" d="m118.5 455.25 0.25 1.5 0.75 1.5 1.75 0.25 3-0.75 3.25-1.5-3-3-0.25-2l-4.75 1.5z"/>
  <path fill="none" stroke="#000000" stroke-width="0.5" stroke-miterlimit="10" d="m124.25 457.75-0.5 3.5 0.75 1.25 0.75 1h1l2.5-3-0.5-1.25-1-2.25z"/>
  <path fill="none" stroke="#000000" stroke-width="0.5" stroke-miterlimit="10" d="m116 455.5z"/>
  <path fill="none" stroke="#000000" stroke-width="0.5" stroke-miterlimit="10" d="m114.25 457.75v2.5l1 1.25 1.75 0.75 2-0.5 0.25-1 0.25-2.5-1-3-2.5 0.25-2.5 0.25z"/>
  <path fill="none" stroke="#000000" stroke-width="0.5" stroke-miterlimit="10" d="m115.25 461.5z"/>
  <path fill="none" stroke="#000000" stroke-width="0.5" stroke-miterlimit="10" d="m113.25 464.25v2l0.5 1h1l1.5-1 0.75-1 0.75-0.5 2 1.5 0.75 1 1-1.75 2.25-4.25-2.5-2.75-1.75-0.25-0.25 2.5-2.25 1.5-1.75-0.75z"/>
 </g>
 <g id="Dark-grown_seedling_etiolated">
  <path fill="none" stroke="#000000" stroke-width="0.5" stroke-miterlimit="10" d="m52.75 568-1 2-0.5 1.75 0.25 2.25 2 1.5 1.5 0.75 2.5-0.5 1-1 2-1.5 1.25-2 0.5-2.75 1-2.25 0.75-1.5 1-1.75 1.25-0.25 0.5 3-0.75 8.75-0.25 6.5v8.25l0.25 10 1 14.25v9l1.25 7 3.25 14 0.25 5.25 1 4 3 10.5 1.5 5.25v4.75l0.25 2.5v3.25l-1.25 2.5-1 2.25-0.25 3.25v4l0.25 3.25 0.75 3.5v2.5l1 7.25-0.5 3.25-0.75 4-0.75 3.25-2.5 5.25-1.75 2-4.25 3.25-1.75 0.25-3-0.5-2.25-2.25-2.75-3.5-2-1.5-2-0.25-0.25 1 0.5 1 1.75 3.75 1.25 2 1.75 2.25 2.5 1 3.25 1.5 2.75-0.5 3.25-0.75 1.25-0.25 2.5-2 3-3.75 1.5-1.75 2-4.25 1-4.5 1-5.25-0.5-4.5-0.75-4.75-1-4 0.25-6.75-0.75-4-1-2.25v-1l0.25-1.5 1-1.5 0.5-1.25 0.75-0.75 0.5-0.25 1.25-1.5 1.25-1 1.25-1.25v-3l0.25-6.25-0.5-5-0.5-2.25-4-19.5-1.75-3.5-0.75-1.5-3.25-30.75v-10.75l-0.5-12.5v-3.25l0.25-2.5 0.25-5.25-0.25-2.5-0.25-2.5-0.5-2.25-0.5-2.5-1.5-2.5-1.75-0.75-2.75-0.25-2.5 0.5-2.75 1-1.75 2-2.5 3.25-2 2.75z"/>
  <path fill="none" stroke="#000000" stroke-width="0.5" stroke-miterlimit="10" d="m79 686.25 0.75 4 3-2.25 1.25-1.25 1.5-2.75 1-1.75 1.25-1.5 0.25-2.5v-1.75l-1-1.25-2.25-1.25-1.25 1.25-1.25 1-1.25 1.5-1.75 2.25-1 1.5z"/>
 </g>
 <g id="Dark-grown_seedling_etiolated_exposed_to_light_for_3hr">
  <path fill="none" stroke="#000000" stroke-width="0.5" stroke-miterlimit="10" d="m 122.33621,556.31896 -6.05815,5.92907 -4.94185,6.25197 2.57758,5.10345 2.82759,-0.35345 3.22414,-2.7931 L 121.5,568.5 v -1.25 l 0.5,-1.25 0.5,-1.5 1.5,-1.75 h 1.25 l 0.25,5.75 -0.5,15 0.25,23 0.75,14 1.75,12 2,8.5 3.75,14.25 2.75,12 0.5,6.75 -3.5,8.25 -0.75,4.75 2.25,10.75 0.5,6.75 -1,10 -2,5 -4.25,5.25 -1.75,2.75 -3.25,0.75 -2.5,-1 -2.25,-1.75 -1.5,-2.5 -1.75,-1.5 -1.5,-1 -1.25,-0.25 -2,0.25 0.5,2 1.5,1.75 1.75,1.5 1.75,1.5 1.5,1.5 1.75,1 2.5,1.75 2.5,0.5 3.75,-1 2,-1.75 4.25,-3 2.75,-3.25 2.75,-4 v -6.75 l 1,-6 -1.25,-7.25 v -1 l -0.5,-3.25 -0.5,-3 V 689 685.5 l -0.75,-1.75 V 682 l 0.25,-0.5 0.75,-2.25 1.5,-1.5 1,-1.5 1.5,-1.25 1,-1.5 -2.87395,-21.62943 -4.63467,-21.77575 c -1.30064,-4.01624 -1.31101,-13.91221 -2.24523,-17.62638 -0.80056,-3.18279 -0.84168,-15.52464 -1.45352,-18.49572 -2.75484,-13.37651 0.59939,-23.4632 0.36947,-29.51198 -0.16098,-4.23527 1.37316,-5.14529 -3.3736,-7.07946 -1.40372,-0.57198 -4.53679,0.14317 -6.95229,-1.06232 z"/>
  <path fill="none" stroke="#000000" stroke-width="0.5" stroke-miterlimit="10" d="m138.25 685.5 2.5 1.25 1.25-1 2.5-2.25 1-1.75 1-0.75 1-2.25 0.25-2.5-1-1.25-3.25-1.5-1 1.5-2.5 2.75-1.5 1.5-1 2.75z"/>
 </g>
 <g id="Continuous_light-_grown_seedling">
  <path fill="none" stroke="#000000" stroke-width="0.5" stroke-miterlimit="10" d="m222.5 583.5-2.5-2-3.25-1-2.75-1.25-4.25-0.5-5.25-0.5-3-0.25h-5l-2 0.5-3.75 1.5-3.25 0.75h-0.75l-1.25 0.25-1.75 1.75-1.75 2.5-1 1.75-0.5 1.25-0.25 1.5 0.75 2.75 1.75 2.25 1.5 1 2.5 1 4 1.25 3.5-0.25 4-2.25 5-2.5 3.25-1.25 4.5-2.25 3-1.5h4.25l5.25 0.25 0.75 1.25-1.25 38.25-1.5 4-1.25 2.75-13 16.5-2.5 3-3 3.75-1.5 3.5-0.75 3.5v5l0.75 3.25 2.25-7.5 0.75-3.5 3.25-4 3.5-4.75 3.5-3.25 5-4.5 5-5.25 3.5-4.75 2-6-0.25-3-0.25-38 0.25-0.75 1.75-1 2.5-0.25 3 0.5 2.25 2 2.25 1 2.5 1.75 4.25 3 2 0.75 2.5 1.75 4 1.25h2.5l3.5 0.5 2.25 0.25 3.25-1 2.75-1.5 2.25-1.5 0.25-3.25-0.25-3-2-2.5-3.5-3.75-3-2-4.75-1.25-4-0.75-3.5-0.5-9.25 1-5 1.25-2 1-6.5 1.5z"/>
 </g>
 <g id="layer7">
  <path fill="none" stroke="#000000" stroke-width="0.5" stroke-miterlimit="10" d="m190 588.25c0.58253-0.0124 0.52274-1.0114 1-1.25 0.0745-0.0373 0.19107 0.0589 0.25 0 0.0589-0.0589-0.0589-0.19107 0-0.25 0.11785-0.11785 0.38215 0.11785 0.5 0s-0.11785-0.38215 0-0.5c0.0589-0.0589 0.19107 0.0589 0.25 0 0.0589-0.0589-0.0589-0.19107 0-0.25 0.0589-0.0589 0.17546 0.0373 0.25 0 0.10541-0.0527 0.14459-0.1973 0.25-0.25 0.0745-0.0373 0.19107 0.0589 0.25 0 0.11785-0.11785-0.0745-0.35093 0-0.5 0.52022-1.0404-0.0173 0.26726 0.5-0.25 0.0589-0.0589-0.0589-0.19107 0-0.25 0.11785-0.11785 0.38215 0.11785 0.5 0 0.0589-0.0589-0.0589-0.19107 0-0.25 0.0589-0.0589 0.17546 0.0373 0.25 0 0.10541-0.0527 0.14459-0.1973 0.25-0.25 0.0745-0.0373 0.19107 0.0589 0.25 0 0.11785-0.11785-0.11785-0.38215 0-0.5 8e-3 -8e-3 0.68937 0 0.75 0h0.25c0.0833 0 0.25-0.0833 0.25 0s-0.33333 0-0.25 0h0.5c0.0833 0 0.25-0.0833 0.25 0s-0.33333 0-0.25 0"/>
  <path fill="none" stroke="#000000" stroke-width="0.5" stroke-miterlimit="10" d="m247.75 584.75c-0.12776 1.509 0.94954-0.0505 1.25 0.25 0.0589 0.0589-0.0589 0.19107 0 0.25 0.11785 0.11785 0.35093-0.0745 0.5 0 1.0404 0.52022-0.26726-0.0173 0.25 0.5 0.0602 0.0602 0.93984-0.0602 1 0 0.0589 0.0589-0.0589 0.19107 0 0.25 0.0774 0.0774 1.1726-0.0774 1.25 0 0.0589 0.0589-0.0589 0.19107 0 0.25 0.125 0.125 0.625-0.125 0.75 0 0.11785 0.11785-0.11785 0.38215 0 0.5s0.38215-0.11785 0.5 0c0.0589 0.0589-0.0589 0.19107 0 0.25 0.0774 0.0774 1.1726-0.0774 1.25 0 0.0589 0.0589-0.0589 0.19107 0 0.25 0.0589 0.0589 0.16667 0 0.25 0h1.25c0.0833 0 0.19107-0.0589 0.25 0 0.0589 0.0589-0.0589 0.19107 0 0.25 0.0589 0.0589 0.19107-0.0589 0.25 0 0.0589 0.0589-0.0589 0.19107 0 0.25 0.0589 0.0589 0.16667 0 0.25 0h0.25 0.25c0.0833 0 0.19107-0.0589 0.25 0 0.0589 0.0589-0.0589 0.19107 0 0.25 0.11785 0.11785 0.38215-0.11785 0.5 0 0.0589 0.0589-0.0589 0.19107 0 0.25"/>
  <path fill="none" stroke="#000000" stroke-width="0.5" stroke-miterlimit="10" d="m205.25 653c-0.33333 0.25-0.66667 0.5-1 0.75 0 0.0833 0.0589 0.19107 0 0.25-0.0589 0.0589-0.17546-0.0373-0.25 0-0.10541 0.0527-0.14459 0.1973-0.25 0.25-0.14907 0.0745-0.35093-0.0745-0.5 0-0.10541 0.0527-0.1382 0.21273-0.25 0.25-0.15811 0.0527-0.35093-0.0745-0.5 0-0.0745 0.0373 0.0589 0.19107 0 0.25-0.0766 0.0766-1.1727-0.0773-1.25 0-0.0589 0.0589 0.0745 0.21273 0 0.25-0.2 0.1-0.55-0.1-0.75 0-0.10541 0.0527-0.14459 0.1973-0.25 0.25-0.17268 0.0863-1.1622-0.0878-1.25 0-0.0589 0.0589 0.0589 0.19107 0 0.25-0.0589 0.0589-0.19107-0.0589-0.25 0-0.125 0.125 0.125 0.625 0 0.75-0.0589 0.0589-0.19107-0.0589-0.25 0-0.11785 0.11785 0.11785 0.38215 0 0.5-0.0589 0.0589-0.17546-0.0373-0.25 0-1.0404 0.52022 0.26726-0.0173-0.25 0.5-0.0589 0.0589-0.16667 0-0.25 0-0.0833 0-0.25 0.0833-0.25 0s0.25-0.0833 0.25 0c0 0.35501-0.57225 0.25-0.75 0.25h-0.25c0.16667 0 0.5-0.16667 0.5 0"/>
  <path fill="none" stroke="#000000" stroke-width="0.5" stroke-miterlimit="10" d="m210 653.25c0.66667-0.0833 1.3282-0.25 2-0.25 0.0833 0 0 0.16667 0 0.25v0.5 2.5 0.25c0 0.0833-0.0589 0.19107 0 0.25 0.0589 0.0589 0.19107-0.0589 0.25 0 0.0602 0.0602-0.0602 0.93984 0 1 0.11785 0.11785 0.38215-0.11785 0.5 0 0.0602 0.0602-0.0602 0.93984 0 1 0.0589 0.0589 0.19107-0.0589 0.25 0 0.11785 0.11785-0.0745 0.35093 0 0.5 0.0527 0.10541 0.1973 0.14459 0.25 0.25 0.0373 0.0745 0 0.16667 0 0.25v0.25 1.5"/>
  <path fill="none" stroke="#000000" stroke-width="0.5" stroke-miterlimit="10" d="m206.5 658.5c0.74536 0.24071-0.18634 0.87732 0 1.25 0.0527 0.10541 0.1973 0.14459 0.25 0.25 0.0786 0.15713-0.0786 0.84287 0 1 0.0527 0.10541 0.1973 0.14459 0.25 0.25 0.0774 0.15485-0.074 0.92603 0 1 0.0589 0.0589 0.21273-0.0745 0.25 0 0.1 0.2-0.1 0.55 0 0.75 0.0527 0.10541 0.1973 0.14459 0.25 0.25 0.0863 0.17268-0.0877 1.1622 0 1.25 0.0589 0.0589 0.19107-0.0589 0.25 0 0.0113 0.0113 0 1.1321 0 1.25 0 0.0833-0.0589 0.19107 0 0.25 0.0589 0.0589 0.19107-0.0589 0.25 0 0.0589 0.0589 0 0.16667 0 0.25v0.25 2.25 0.5c0 0.0833 0.0833 0.25 0 0.25s0-0.16667 0-0.25"/>
  <path fill="none" stroke="#000000" stroke-width="0.5" stroke-miterlimit="10" d="m199.5 664.75c-0.5 0.25-1.0349 0.43991-1.5 0.75-0.0693 0.0462 0.0373 0.17546 0 0.25-0.52022 1.0404 0.0173-0.26726-0.5 0.25-0.11785 0.11785 0.0745 0.35093 0 0.5-0.0527 0.10541-0.1973 0.14459-0.25 0.25-0.0373 0.0745 0.0589 0.19107 0 0.25-0.58629 0.58629 0-0.77022 0-0.25 0 0.60362-0.30969 0.36937-0.5 0.75-0.0373 0.0745 0.0589 0.19107 0 0.25-0.0589 0.0589-0.19107-0.0589-0.25 0-0.0589 0.0589 0.0373 0.17546 0 0.25-0.10541 0.21082-0.39459 0.28918-0.5 0.5-0.0373 0.0745 0.0373 0.17546 0 0.25-0.10541 0.21082-0.39459 0.28918-0.5 0.5-0.0373 0.0745 0.0373 0.17546 0 0.25-0.0527 0.10541-0.1973 0.14459-0.25 0.25-0.0373 0.0745 0.0373 0.17546 0 0.25-0.0527 0.10541-0.21273 0.1382-0.25 0.25-0.0527 0.15811 0.0745 0.35093 0 0.5-0.0373 0.0745-0.19107-0.0589-0.25 0-0.0589 0.0589 0.0589 0.19107 0 0.25-0.0589 0.0589-0.19107-0.0589-0.25 0-0.0602 0.0602 0.0602 0.93984 0 1-0.0589 0.0589-0.19107-0.0589-0.25 0"/>
  <path fill="none" stroke="#000000" stroke-width="0.5" stroke-miterlimit="10" d="m199.5 669.75c0.83333 0.66667 1.7068 1.2861 2.5 2 0.0619 0.0557 0 0.16667 0 0.25v0.25 0.25c0 0.0833-0.0589 0.19107 0 0.25 0.0589 0.0589 0.19107-0.0589 0.25 0 0.125 0.125-0.125 0.625 0 0.75 0.11785 0.11785 0.38215-0.11785 0.5 0s-0.0745 0.35093 0 0.5c0.30893 0.61785 0.25-0.0863 0.25 0.5v0.25-0.5c0 2.3333-0.25 0.25 0.25 0.75 0.0589 0.0589 0 0.16667 0 0.25v0.25 0.5c0 0.0833 0.0833 0.25 0 0.25s0-0.33333 0-0.25v0.5c0 0.0833-0.0589 0.19107 0 0.25 0.0589 0.0589 0.19107-0.0589 0.25 0 8e-3 8e-3 0 0.68937 0 0.75v0.25-0.5c0 0.25-0.0791 0.51283 0 0.75 0.0264 0.0791 0.19107-0.0589 0.25 0 0.0589 0.0589 0 0.16667 0 0.25 0 0.0833 0.0833 0.25 0 0.25s0-0.16667 0-0.25"/>
  <path fill="none" stroke="#000000" stroke-width="0.5" stroke-miterlimit="10" d="m200.25 673c-0.0833-0.0833-0.33333-0.16667-0.25-0.25 0.0833-0.0833 0.26667 0.13333 0.25 0.25-0.0745 0.52175-0.35521 0.99323-0.5 1.5-0.0268 0.0939 0.0342 0.7158 0 0.75-0.0589 0.0589-0.19107-0.0589-0.25 0-0.0589 0.0589 0 0.16667 0 0.25v0.25c0 0.5 0.0833 0.0833-0.25 0.25-0.10541 0.0527-0.14459 0.1973-0.25 0.25-0.0745 0.0373-0.19107-0.0589-0.25 0-0.0589 0.0589 0.0373 0.17546 0 0.25-0.0527 0.10541-0.1973 0.14459-0.25 0.25-0.0373 0.0745 0.0589 0.19107 0 0.25-0.11785 0.11785-0.38215-0.11785-0.5 0-0.0589 0.0589 0.0589 0.19107 0 0.25-0.0589 0.0589-0.19107-0.0589-0.25 0-0.0589 0.0589 0.0589 0.19107 0 0.25-0.0589 0.0589-0.19107-0.0589-0.25 0-0.0589 0.0589 0.0589 0.19107 0 0.25-0.0589 0.0589-0.19107-0.0589-0.25 0-0.0589 0.0589 0.0589 0.19107 0 0.25-0.11785 0.11785-0.38215-0.11785-0.5 0-0.0589 0.0589 0.0589 0.19107 0 0.25-0.0589 0.0589-0.19107-0.0589-0.25 0-0.0589 0.0589 0.0589 0.19107 0 0.25"/>
  <path fill="none" stroke="#000000" stroke-width="0.5" stroke-miterlimit="10" d="m201.75 692.25c-0.16667-0.41667-0.29931-0.84861-0.5-1.25-0.0527-0.10541-0.1973-0.14459-0.25-0.25-0.0863-0.17268 0.0877-1.1622 0-1.25-0.0589-0.0589-0.19107 0.0589-0.25 0-0.0877-0.0878 0.0863-1.0773 0-1.25-0.0527-0.10541-0.1973-0.14459-0.25-0.25-0.0373-0.0745 0-0.16667 0-0.25v-0.25-1.5-0.25c0-0.0833 0.0373-0.17546 0-0.25-0.0527-0.10541-0.1973-0.14459-0.25-0.25-0.0786-0.15713 0.0786-0.84287 0-1-0.0527-0.10541-0.21273-0.1382-0.25-0.25-0.0208-0.0623 0.0257-1.2242 0-1.25-0.0589-0.0589-0.19107 0.0589-0.25 0-0.11785-0.11785 0.0527-0.34189 0-0.5-0.0589-0.17678-0.19107-0.32322-0.25-0.5-0.0485-0.14557 0-1.328 0-1.5 0-0.0833 0.0373-0.17546 0-0.25-0.0527-0.10541-0.1973-0.14459-0.25-0.25-0.0496-0.0991 0.0511-0.69889 0-0.75-0.0589-0.0589-0.19107 0.0589-0.25 0-0.11785-0.11785 0.11785-0.38215 0-0.5"/>
  <path fill="none" stroke="#000000" stroke-width="0.5" stroke-miterlimit="10" d="m194.5 703.5c-0.0833-0.41667-0.16667-0.83333-0.25-1.25-0.0833 0-0.19107 0.0589-0.25 0-0.0589-0.0589 0-0.16667 0-0.25v-1.25c0-0.0833 0.0589-0.19107 0-0.25-0.0589-0.0589-0.19107 0.0589-0.25 0-0.0589-0.0589 0-0.16667 0-0.25v-0.25-2.75-2c0-0.16667-0.0404-0.33831 0-0.5 0.0452-0.18078 0.1808-0.32699 0.25-0.5 0.0979-0.24468 0.18609-0.49435 0.25-0.75 0.0646-0.25822-0.0791-0.76279 0-1 0.0589-0.17678 0.21346-0.31728 0.25-0.5 0.0723-0.36172-0.0905-1.1379 0-1.5 0.0452-0.18078 0.19107-0.32322 0.25-0.5 0.0671-0.20122-0.0799-0.84024 0-1 0.0527-0.10541 0.21273-0.1382 0.25-0.25 0.0791-0.23717-0.0791-0.51283 0-0.75 0.0589-0.17678 0.21346-0.31728 0.25-0.5 0.0662-0.33127 0-0.87456 0-1.25 0-0.0833-0.0373-0.17546 0-0.25 0.0527-0.10541 0.1973-0.14459 0.25-0.25 0.0456-0.0911 0-1.106 0-1.25"/>
  <path fill="none" stroke="#000000" stroke-width="0.5" stroke-miterlimit="10" d="m191 694.75v-1.5c0-0.66667-0.0833 0.0833 0.25-0.25 0.0684-0.0684-0.0678-0.86438 0-1 0.0527-0.10541 0.1973-0.14459 0.25-0.25 0.0745-0.14907-0.11785-0.38215 0-0.5 0.0589-0.0589 0.19107 0.0589 0.25 0 0.11785-0.11785-0.11785-0.38215 0-0.5 0.0589-0.0589 0.19107 0.0589 0.25 0 0.0589-0.0589-0.0589-0.19107 0-0.25 0.0589-0.0589 0.19107 0.0589 0.25 0 0.0602-0.0602-0.0602-0.93984 0-1 0.0589-0.0589 0.19107 0.0589 0.25 0 0.11785-0.11785-0.11785-0.38215 0-0.5 0.0589-0.0589 0.25-0.0833 0.25 0 0 0.11785-0.25 0.36785-0.25 0.25 0-0.44444 0.41667-0.63889 0.75-0.75 0.0791-0.0263 0.19107 0.0589 0.25 0 0.11785-0.11785-0.16667-0.5 0-0.5 0.0833 0-0.0833 0.25 0 0.25 0.0776 0 0.62029-0.68515 0.75-0.75 0.14907-0.0745 0.38215 0.11785 0.5 0 0.0589-0.0589 0-0.16667 0-0.25v-0.25"/>
 </g>
 <g id="Young_Leaf">
  <path fill="none" stroke="#000000" stroke-width="0.5" stroke-miterlimit="10" d="m367.5 516.5-2.5 5.5-2.5 6.5-1.5 4-4.5 3.5-3 5.5-3 5.5-1.5 1h-2l-0.5-1-2.5 4.5-2.5 3.5-3 4-4 4.5-2 5-2 3-3 5-1.5 6-3 8.5-2.5 6-0.5 6.5v7l-1.5 11v17.5l1.5 8.5 4.5 10 4 11 2.5 8.5 6 6.5 7.5 5 2.5 4.5 2 5.5-0.5 6-0.5 6.5 1.5 3 4-3.5 2-2 3.5-1.5 4-2.5 4.5-3 4.5-3.5 3-3 5.5-4 6-5.5 6-5 2-3.5 3.5-3.5 4.5-4.5 0.5-2.5 1-2.5 3.5-8 2-8.5 0.5-6 4-13-1-5 1.5-9-0.5-7.5-1.5-7-2-7-1.5-6-3.5-8.5-1.5-4-2-5-4-4.5-4-8.5-2.5-5-5-6.5-4-6-3-5-5.5-5.5-2.5-4z"/>
 </g>
 <g id="Young_Leaf">
  <path fill="none" stroke="#000000" stroke-width="0.5" stroke-miterlimit="10" d="m348 711-5.5 4-4 5-3 5-4 5.5-1.5 5.5v2.5l-14 23.5 3.5 5.5 7-10.5 6.5-14 1.5-3 1-2.5-0.5-3.5 0.5-2 2-2 1-2.5 3-1.5 1.5-4.5z"/>
  <path fill="none" stroke="#000000" stroke-width="0.5" stroke-miterlimit="10" d="m341.5 726 36.5-24.5 6-4.5 10-3 6.5-1.5 6.5-0.5 5.5 0.5-18.5 7.5-6 2-7 3.5-6 2-6 5-12 9.5z"/>
  <path fill="none" stroke="#000000" stroke-width="0.5" stroke-miterlimit="10" d="m381 705.5 34.5-5-5.5 6-6.5 0.5-16 4-9 1-8 2-6.5 2.5z"/>
  <path fill="none" stroke="#000000" stroke-width="0.5" stroke-miterlimit="10" d="m335.5 737.5l7.5-4.5 5.5-1 9 1s7-7 4.5 3.5 0.5 9.5 0.5 9.5l-3 4-4.5 3.5-2 4.5-1.5 10.5-4.5 12-1 4-14 36.5-2 4v4.5l-0.5 7.5v2l4.5 0.5 10-4.5 14.5-4 11.5-9 12.5-18 2.5-5.5v-22l-3-17.5-5-12-6.5-4.5-3.5-5.5-8.5-6.5-6.5-3-5 0.5-5.5-2-3 1.5z"/>
  <path fill="none" stroke="#000000" stroke-width="0.5" stroke-miterlimit="10" d="m367 737c-1.6667 1.1667-3.4114 2.2291-5 3.5-0.13014 0.10412 0 0.33333 0 0.5 0 0.23575-0.0227 2.4773 0 2.5 0.66667 0.66667 0.5-0.83333 0.5 0.5v1-1 1.5c0 0.16667-0.11785 0.38215 0 0.5s0.38215-0.11785 0.5 0c0.0201 0.0201 0 1.8164 0 2v2.5 1c0 0.16667 0.16667 0.5 0 0.5s0-0.66667 0-0.5v1c0 0.34777 0.0904 2.3192 0 2.5-0.21082 0.42164-0.78918 0.57836-1 1-0.14907 0.29814 0.2357 0.7643 0 1-0.11785 0.11785-0.38215-0.11785-0.5 0-0.2357 0.2357 0.14907 0.70186 0 1-1.0404 2.0809 0.0345-0.53452-1 0.5-0.11785 0.11785 0.0745 0.35093 0 0.5-0.10541 0.21082-0.39459 0.28918-0.5 0.5-0.0745 0.14907 0.11785 0.38215 0 0.5s-0.38215-0.11785-0.5 0 0.11785 0.38215 0 0.5c-0.2357 0.2357-0.70186-0.14907-1 0-0.21082 0.10541-0.28918 0.39459-0.5 0.5"/>
  <path fill="none" stroke="#000000" stroke-width="0.5" stroke-miterlimit="10" d="m376.5 776c0-1.3333 0.16667 0.16667-0.5-0.5-0.11785-0.11785 0-0.33333 0-0.5v-1.5c0-0.16667-0.16667 0.5 0 0.5s0.11785-0.38215 0-0.5-0.38215 0.11785-0.5 0 0.0527-0.34189 0-0.5c-0.11785-0.35355-0.5-0.62732-0.5-1 0-0.2357 0.2643 0.5 0.5 0.5 0.16667 0 0.11785-0.38215 0-0.5s-0.38215 0.11785-0.5 0 0.11785-0.38215 0-0.5-0.38215 0.11785-0.5 0 0.0745-0.35093 0-0.5c-0.10541-0.21082-0.39459-0.28918-0.5-0.5-0.0745-0.14907 0.11785-0.38215 0-0.5s-0.35093 0.0745-0.5 0c-0.21082-0.10541-0.28918-0.39459-0.5-0.5-0.14907-0.0745-0.38215 0.11785-0.5 0-0.2357-0.2357 0.2357-0.7643 0-1-0.11785-0.11785-0.38215 0.11785-0.5 0s0.11785-0.38215 0-0.5-0.38215 0.11785-0.5 0 0.11785-0.38215 0-0.5"/>
  <path fill="none" stroke="#000000" stroke-width="0.5" stroke-miterlimit="10" d="m360 773c0.5 0.66667 0.91074 1.4107 1.5 2 0.11785 0.11785 0.35093-0.0745 0.5 0 0.21082 0.10541 0.30388 0.36926 0.5 0.5 0.31009 0.20672 0.73648 0.23648 1 0.5 0.11785 0.11785-0.0745 0.35093 0 0.5 0.3 0.6 1.2 0.9 1.5 1.5 0.0745 0.14907-0.11785 0.38215 0 0.5s0.38215-0.11785 0.5 0 0 0.33333 0 0.5v0.5c0 1.3333-0.16667-0.16667 0.5 0.5 0.25 0.25-0.25 1.25 0 1.5 0.11785 0.11785 0.38215-0.11785 0.5 0s-0.11785 0.38215 0 0.5 0.38215-0.11785 0.5 0-0.11785 0.38215 0 0.5c1.0345 1.0345-0.0404-1.5809 1 0.5 0.0745 0.14907-0.11785 0.38215 0 0.5 1.0345 1.0345-0.0404-1.5809 1 0.5 0 1.3333-0.16667-0.16667 0.5 0.5 0.11785 0.11785-0.11785 0.38215 0 0.5s0.35093-0.0745 0.5 0c0.21082 0.10541 0.28918 0.39459 0.5 0.5 0.14907 0.0745 0.38215-0.11785 0.5 0 0.2357 0.2357-0.2357 0.7643 0 1 0.11785 0.11785 0.38215-0.11785 0.5 0"/>
  <path fill="none" stroke="#000000" stroke-width="0.5" stroke-miterlimit="10" d="m369 784c1 1.6667 2 3.3333 3 5 0.16667 0.16667 0.36926 0.30388 0.5 0.5 0.20672 0.31009 0.23648 0.73648 0.5 1 1.0345 1.0345-0.0404-1.5809 1 0.5 0.0745 0.14907-0.0745 0.35093 0 0.5 0.10541 0.21082 0.39459 0.28918 0.5 0.5 0.0745 0.14907-0.0745 0.35093 0 0.5 0.24601 0.49201 1.754 1.508 2 2 0.0745 0.14907-0.11785 0.38215 0 0.5s0.35093-0.0745 0.5 0c0.42164 0.21082 0.57836 0.78918 1 1 0.14907 0.0745 0.38215-0.11785 0.5 0s0 0.33333 0 0.5"/>
  <path fill="none" stroke="#000000" stroke-width="0.5" stroke-miterlimit="10" d="m360 773c0-0.16667-0.16667-0.5 0-0.5s0 0.33333 0 0.5v3c0 0.16667 0.11785 0.38215 0 0.5s-0.38215-0.11785-0.5 0 0.0745 0.35093 0 0.5c-0.10541 0.21082-0.39459 0.28918-0.5 0.5-0.0991 0.19825 0.10222 1.3978 0 1.5-0.11785 0.11785-0.35093-0.0745-0.5 0-0.21082 0.10541-0.30388 0.36926-0.5 0.5-0.31009 0.20672-0.73648 0.23648-1 0.5-0.11785 0.11785 0.11785 0.38215 0 0.5s-0.38215-0.11785-0.5 0 0.11785 0.38215 0 0.5c-1.0345 1.0345 0.0404-1.5809-1 0.5-0.0745 0.14907 0.11785 0.38215 0 0.5s-0.38215-0.11785-0.5 0c-0.2357 0.2357 0.2357 0.7643 0 1-0.11785 0.11785-0.38215-0.11785-0.5 0-0.12032 0.12032 0.12032 1.8797 0 2-0.11785 0.11785-0.38215-0.11785-0.5 0-0.05 0.05-0.05 1.45 0 1.5 0.11785 0.11785 0.38215-0.11785 0.5 0s-0.0745 0.35093 0 0.5c0.10541 0.21082 0.39459 0.28918 0.5 0.5 0.14907 0.29814-0.2357 0.7643 0 1"/>
  <path fill="none" stroke="#000000" stroke-width="0.5" stroke-miterlimit="10" d="m355 785.5c0.11791 2.8054 0.38885 2.1112-1 3.5-0.16667 0.16667-0.28918 0.39459-0.5 0.5-0.14907 0.0745-0.33333 0-0.5 0-0.33333 0.16667-0.68991 0.29328-1 0.5-0.45516 0.30344-1.0568 1.2784-1.5 1.5-0.14907 0.0745-0.38215-0.11785-0.5 0s0.11785 0.38215 0 0.5-0.35093-0.0745-0.5 0c-0.21082 0.10541-0.28918 0.39459-0.5 0.5-0.29814 0.14907-0.7643-0.2357-1 0-0.11785 0.11785 0.11785 0.38215 0 0.5s-0.38215-0.11785-0.5 0 0.11785 0.38215 0 0.5-0.5 0.16667-0.5 0c0-0.2357 0.7357-0.5 0.5-0.5-2.5259 0-0.38426 0.38426-1 1-0.11785 0.11785-0.33333 0-0.5 0h-0.5c1.9532 0 0.64907-0.14907 0 0.5-0.11785 0.11785 0 0.33333 0 0.5v0.5 2.5c0 0.16667 0.11785 0.38215 0 0.5s-0.38215-0.11785-0.5 0 0.11785 0.38215 0 0.5-0.38215-0.11785-0.5 0"/>
  <path fill="none" stroke="#000000" stroke-width="0.5" stroke-miterlimit="10" d="m329.5 837c0.83333-1.3333 1.7364-2.6255 2.5-4 0.0919-0.16546 0-2.6179 0-3 0-0.18362-0.0201-1.9799 0-2 0.11785-0.11785 0.38215 0.11785 0.5 0s-0.16667-0.5 0-0.5 0 0.66667 0 0.5c0-0.33333-0.14907-0.70186 0-1 0.0745-0.14907 0.5-0.16667 0.5 0s-0.5 0.16667-0.5 0c0-0.2357 0.39459-0.28918 0.5-0.5 0.0745-0.14907-0.11785-0.38215 0-0.5s0.38215 0.11785 0.5 0-0.11785-0.38215 0-0.5 0.35093 0.0745 0.5 0c0.21082-0.10541 0.28918-0.39459 0.5-0.5 0.14907-0.0745 0.42546 0.14907 0.5 0 0.14907-0.29814-0.1849-0.72265 0-1 0.20672-0.31009 0.73648-0.23648 1-0.5 0.11785-0.11785-0.11785-0.38215 0-0.5 1.0345-1.0345-0.0404 1.5809 1-0.5 0.0745-0.14907-0.0745-0.35093 0-0.5 0.10541-0.21082 0.39459-0.28918 0.5-0.5 0.0745-0.14907-0.11785-0.38215 0-0.5s0.38215 0.11785 0.5 0-0.0745-0.35093 0-0.5"/>
  <path fill="none" stroke="#000000" stroke-width="0.5" stroke-miterlimit="10" d="m353.5 710.5 1.5-11.5 2-3 14.5-6 11.5-9.5-23 11.5-1-2.5 2.5-6 0.5-4 7-2 6-4 8.5-4 5-6 4.5-5 6-8.5 6-10-7.5 13.5-6 7.5-13.5 8-7.5 4-5.5 2.5 2.5-12 6-5 3.5-8 6.5-7.5 9-11.5 7.5-7.5 6-5.5-27.5 27.5-3 8-5 4-0.5-6.5 1.5-9v-17.5l0.5-7.5 6-5.5 4-5.5 4.5-13 2-12-4.5 18.5-2 6.5-6.5 8.5-4 2-0.5-52 2.5-2 2-6.5v-6.5l-1.5-8.5-0.5 11v5.5l-2.5 3-1.5-15 0.5-7-0.5 21.5-4-3-1.5-3-2.5-6-2-3.5 1.5 8.5 2 6 2 3 2.5 3 1 47.5-3-2.5-2-4-1.5-2.5-3.5-13.5-2.5-11-7.5-11.5 4.5 11.5 3.5 12 3 13.5 5 8 3.5 12v7.5l-0.5 11v9l-9-12-4-5-3-7-4.5-13-5-9.5 0.5 8 5 10 2 9 7.5 12 9 11-2.5 9.5-2.5 12-2-5-8-15.5-13.5-17.5-2.5-3.5-5-15 4 16.5 10.5 16 10 17.5 5 11-2.5 8-3 6.5-9.5-8-8.5-20 16 24.5-3 5.5 2 5-3 7.5z"/>
 </g>
 <g id="Mature_Leaf">
  <path fill="none" stroke="#000000" stroke-width="0.5" stroke-miterlimit="10" d="m572 460.5-5 12.5v-1l-7 16-6.5 17-2.5 9.5-6.5 12-5.5 15-3.5 6-5.5 9-8.5 11.5-5.5 9.5-4 6.5-8 8-5 7.5-5 8.5-4 12-4.5 9.5-4 11.5-4 10-3 13.5-1 8.5-0.5 11.5 0.5 7 1.5 9.5 3 11.5 7 8 8 5 13.5 4.5 7.5 0.5 14.5-2 11-2.5 7-1 5 1.5 4.5-2.5 3 2.5 7 5 9 2 11 3.5 9 3 5-0.5 10-4 13.5-4 10-6 6.5-9.5 8-15.5 3-6.5-0.5-6-1-11.5-1.5-7v-16l-1-10.5-5-13-5.5-12-7.5-21-8-13.5-7-14-9.5-21-3.5-11-3.5-16-7-15-4.5-13-7.5-22.5z"/>
 </g>
 <g id="layer11">
  <path fill="none" stroke="#000000" stroke-width="0.5" stroke-miterlimit="10" d="m546.5 725 3 22.5 1 10v20l-2 13-2.5 14.5-3.5 15.5-2.5 5.5 2.5 4 2-5.5 3-11.5 2-8.5 4-19v-6.5l0.5-17.5-0.5-9.5-0.5-8.5-0.5-9-1-8z"/>
  <path fill="none" stroke="#000000" stroke-width="0.5" stroke-miterlimit="10" d="m514 730.5c2.1087-2.5976 3.3453-4.869 6.5-5.5 0.32686-0.0654 0.68377 0.10541 1 0 0.22361-0.0745 0.30388-0.36926 0.5-0.5 0.31009-0.20672 0.73648-0.23648 1-0.5 1.0345-1.0345-1.5809 0.0404 0.5-1 0.29814-0.14907 0.70186 0.14907 1 0 0.21082-0.10541 0.28918-0.39459 0.5-0.5 0.14907-0.0745 0.38215 0.11785 0.5 0 0.26352-0.26352 0.18991-0.79328 0.5-1 0.27735-0.1849 0.66667 0 1 0 0.16667 0 0.38215 0.11785 0.5 0s-0.11785-0.38215 0-0.5c0.2357-0.2357 0.70186 0.14907 1 0 0.21082-0.10541 0.28918-0.39459 0.5-0.5 0.14907-0.0745 0.33333 0 0.5 0h0.5 2.5 2.5c0.16667 0 0.38215 0.11785 0.5 0s-0.11785-0.38215 0-0.5c0.12032-0.12032 1.8797 0.12032 2 0 0.11785-0.11785-0.11785-0.38215 0-0.5s0.33333 0 0.5 0h0.5c0.34777 0 2.3192 0.0904 2.5 0 0.21082-0.10541 0.28918-0.39459 0.5-0.5"/>
  <path fill="none" stroke="#000000" stroke-width="0.5" stroke-miterlimit="10" d="m546.5 725c0.83333-0.83333 1.7455-1.5946 2.5-2.5 0.1067-0.12804 0-0.33333 0-0.5v-0.5-0.5-1-1.5c0-0.16667-0.16667-0.5 0-0.5s0.16667 0.5 0 0.5c-0.2357 0-0.28918-0.39459-0.5-0.5-0.14907-0.0745-0.38215 0.11785-0.5 0s0-0.33333 0-0.5-0.0745-0.35093 0-0.5c1.0404-2.0809-0.0345 0.53452 1-0.5 0.11785-0.11785-0.11785-0.38215 0-0.5s0.38215 0.11785 0.5 0-0.11785-0.38215 0-0.5 0.38215 0.11785 0.5 0-0.16667-0.5 0-0.5 0 0.66667 0 0.5v-2.5c0-0.16667-0.11785-0.38215 0-0.5 0.66667-0.66667 0.5 0.83333 0.5-0.5v-2c0-0.16667-0.16667-0.5 0-0.5s0.11785 0.61785 0 0.5c-0.26352-0.26352-0.38215-0.64645-0.5-1-0.0648-0.19456 0.0776-1.4224 0-1.5"/>
  <path fill="none" stroke="#000000" stroke-width="0.5" stroke-miterlimit="10" d="m556 724c-0.83333-0.5-1.6667-1-2.5-1.5 0-0.16667 0.11785-0.38215 0-0.5-0.66667-0.66667-0.5 0.83333-0.5-0.5v-0.5c0-0.16667 0.11785-0.38215 0-0.5s-0.38215 0.11785-0.5 0c-0.2357-0.2357 0.14907-0.70186 0-1-0.10541-0.21082-0.36926-0.30388-0.5-0.5-0.57454-0.8618-0.5-0.75579-0.5-1.5 0-0.16667-0.11785-0.38215 0-0.5s0.35093 0.0745 0.5 0c0.42164-0.21082 0.57836-0.78918 1-1 0.14907-0.0745 0.35093 0.0745 0.5 0 0.21082-0.10541 0.28918-0.39459 0.5-0.5 0.14907-0.0745 0.38215 0.11785 0.5 0s-0.11785-0.38215 0-0.5c0.2357-0.2357 0.7643 0.2357 1 0 0.11785-0.11785-0.0745-0.35093 0-0.5 1.0404-2.0809-0.0345 0.53452 1-0.5 0.11785-0.11785-0.11785-0.38215 0-0.5 0.2357-0.2357 0.7643 0.2357 1 0 0.11785-0.11785-0.11785-0.38215 0-0.5s0.38215 0.11785 0.5 0c1.0345-1.0345-1.5809 0.0404 0.5-1 0.14907-0.0745 0.38215 0.11785 0.5 0"/>
  <path fill="none" stroke="#000000" stroke-width="0.5" stroke-miterlimit="10" d="m592.5 706.5h5c0.16667 0 0.5-0.16667 0.5 0s-0.66667 0-0.5 0c0.33333 0 0.68377 0.10541 1 0 0.22361-0.0745 0.28918-0.39459 0.5-0.5 0.14907-0.0745 0.38215 0.11785 0.5 0s-0.14907-0.42546 0-0.5c0.29814-0.14907 0.66667 0 1 0 0.16667 0 0.38215 0.11785 0.5 0s-0.14907-0.42546 0-0.5c0.29814-0.14907 0.66667 0 1 0 0.16667 0 0.38215 0.11785 0.5 0s-0.11785-0.38215 0-0.5 0.35093 0.0745 0.5 0c0.21082-0.10541 0.28918-0.39459 0.5-0.5 0.27124-0.13562 1.8632 0.13681 2 0 0.66667-0.66667-0.83333-0.5 0.5-0.5 0.12126 0 1.4839 0.0161 1.5 0 0.11785-0.11785-0.11785-0.38215 0-0.5 0.12032-0.12032 1.8797 0.12032 2 0 0.11785-0.11785-0.11785-0.38215 0-0.5s0.38215 0.11785 0.5 0-0.11785-0.38215 0-0.5c0.2357-0.2357 0.68377 0.10541 1 0 0.35355-0.11785 0.68991-0.29328 1-0.5 0.19612-0.13074 0.27639-0.42546 0.5-0.5"/>
  <path fill="none" stroke="#000000" stroke-width="0.5" stroke-miterlimit="10" d="m553.5 713c0-0.66667 0.16169-1.3532 0-2-0.0404-0.16169-0.38215 0.11785-0.5 0-0.0201-0.0201 0-1.8164 0-2v-0.5c0-0.16667-0.16667-0.5 0-0.5s0 0.66667 0 0.5v-3-6-0.5c0-0.16667 0.11785-0.38215 0-0.5s-0.42546 0.14907-0.5 0c-0.22361-0.44721 0-1 0-1.5v-4-2-0.5c0-0.16667-0.16667-0.5 0-0.5s0 0.66667 0 0.5v-1.5-0.5 1-1.5-1c0-1.5286 0.34984 1.1997-0.5-0.5-0.0904-0.18082 0-2.1522 0-2.5 0-0.16667-0.11785-0.38215 0-0.5s0.38215 0.11785 0.5 0-0.0745-0.35093 0-0.5c0.10541-0.21082 0.33333-0.33333 0.5-0.5s0.28918-0.39459 0.5-0.5c0.14907-0.0745 0.38215 0.11785 0.5 0"/>
  <path fill="none" stroke="#000000" stroke-width="0.5" stroke-miterlimit="10" d="m585.5 666c2.9902 0 2.315 0.137 5.5-0.5 0.67384-0.13477 1.3222-0.38703 2-0.5 0.3288-0.0548 0.68377 0.10541 1 0 0.22361-0.0745 0.28918-0.39459 0.5-0.5 0.29814-0.14907 0.7643 0.2357 1 0 0.12032-0.12032-0.12032-1.8797 0-2 0.2357-0.2357 0.7643 0.2357 1 0 1.0345-1.0345-1.5809 0.0404 0.5-1 0.19825-0.0991 1.3978 0.10222 1.5 0 0.11785-0.11785-0.11785-0.38215 0-0.5s0.38215 0.11785 0.5 0-0.11785-0.38215 0-0.5c0.2357-0.2357 0.7643 0.2357 1 0s-0.2357-0.7643 0-1c0.11785-0.11785 0.34189 0.0527 0.5 0 3.6217-1.2072-0.7883 0.14415 1.5-1 0.14907-0.0745 0.38215 0.11785 0.5 0s-0.11785-0.38215 0-0.5 0.35093 0.0745 0.5 0c0.42164-0.21082 0.57836-0.78918 1-1 0.29814-0.14907 0.7643 0.2357 1 0 0.11785-0.11785-0.11785-0.38215 0-0.5s0.35093 0.0745 0.5 0c0.42164-0.21082 0.57836-0.78918 1-1 0.14907-0.0745 0.35093 0.0745 0.5 0"/>
  <path fill="none" stroke="#000000" stroke-width="0.5" stroke-miterlimit="10" d="m555 680.5c0-0.83333 0.137-1.678 0-2.5-0.0388-0.2325-0.39459-0.28918-0.5-0.5-0.0745-0.14907 0-0.33333 0-0.5v-0.5c0-0.12126 0.0161-1.4839 0-1.5-0.11785-0.11785-0.38215 0.11785-0.5 0s0-0.33333 0-0.5v-2.5-0.5c0-0.16667 0.0745-0.35093 0-0.5-0.10541-0.21082-0.42546-0.27639-0.5-0.5-0.0896-0.2688 0-1.5767 0-2v-0.5c0-0.16667-0.16667-0.5 0-0.5s0 0.66667 0 0.5v-1-3.5-0.5c0-0.16667 0.11785-0.38215 0-0.5s-0.38215 0.11785-0.5 0 0-0.33333 0-0.5v-3-0.5c0-0.16667-0.0745-0.35093 0-0.5 0.10541-0.21082 0.42546-0.27639 0.5-0.5 0.10541-0.31623-0.14907-0.70186 0-1 0.0745-0.14907 0.38215 0.11785 0.5 0s-0.11785-0.38215 0-0.5"/>
  <path fill="none" stroke="#000000" stroke-width="0.5" stroke-miterlimit="10" d="m545.5 681.5h4c0.16667 0 0.38215 0.11785 0.5 0s-0.11785-0.38215 0-0.5 0.5-0.16667 0.5 0-0.5 0.16667-0.5 0c0-0.2357 0.39459-0.28918 0.5-0.5 0.0745-0.14907-0.0745-0.35093 0-0.5 0.10541-0.21082 0.39459-0.28918 0.5-0.5 0.14907-0.29814-0.2357-0.7643 0-1 0.11785-0.11785 0.38215 0.11785 0.5 0s0-0.33333 0-0.5v-0.5-2.5-0.5c0-0.16667 0.0745-0.35093 0-0.5-0.10541-0.21082-0.39459-0.28918-0.5-0.5-0.14907-0.29814 0.2357-0.7643 0-1-0.11785-0.11785-0.38215 0.11785-0.5 0-0.2357-0.2357 0.2357-0.7643 0-1-0.11785-0.11785-0.38215 0.11785-0.5 0s0-0.33333 0-0.5v-0.5-5.5-8-2.5-0.5c0-0.16667 0.0745-0.35093 0-0.5"/>
  <path fill="none" stroke="#000000" stroke-width="0.5" stroke-miterlimit="10" d="m551 651.5v-3.5c0-0.16667-0.11785-0.38215 0-0.5s0.38215 0.11785 0.5 0c0.25-0.25-0.25-1.25 0-1.5 0.11785-0.11785 0.38215 0.11785 0.5 0 0.0201-0.0201 0-1.8164 0-2v-4c0-0.2881 0.0911-2.3178 0-2.5-0.10541-0.21082-0.42546-0.27639-0.5-0.5-0.11338-0.34015 0.13256-2.2349 0-2.5-0.10541-0.21082-0.39459-0.28918-0.5-0.5-0.0991-0.19825 0.10222-1.3978 0-1.5-0.11785-0.11785-0.38215 0.11785-0.5 0-0.13681-0.13681 0.13562-1.7288 0-2-0.10541-0.21082-0.39459-0.28918-0.5-0.5-0.0745-0.14907 0.11785-0.38215 0-0.5s-0.38215 0.11785-0.5 0c-0.2357-0.2357 0.14907-0.70186 0-1-0.21082-0.42164-0.78918-0.57836-1-1-0.14907-0.29814 0.2357-0.7643 0-1s-0.7643 0.2357-1 0 0.14907-0.70186 0-1c-0.10541-0.21082-0.39459-0.28918-0.5-0.5-0.0991-0.19825 0.10222-1.3978 0-1.5"/>
  <path fill="none" stroke="#000000" stroke-width="0.5" stroke-miterlimit="10" d="m557 652.5c-0.13104-1.4944 0.40536-4.142-0.5-5.5-0.0924-0.13868-0.38215 0.11785-0.5 0-0.0227-0.0227 0-2.2642 0-2.5 0-0.16667 0.11785-0.38215 0-0.5s-0.38215 0.11785-0.5 0c-0.15482-0.15482 0.15482-2.3452 0-2.5-0.11785-0.11785-0.38215 0.11785-0.5 0-0.17551-0.17551 0.17268-2.1546 0-2.5-0.10541-0.21082-0.39459-0.28918-0.5-0.5-0.0745-0.14907 0-0.33333 0-0.5v-0.5-3-7.5c0-0.12126 0.0161-1.4839 0-1.5-0.11785-0.11785-0.38215 0.11785-0.5 0-0.0161-0.0161 0-1.3787 0-1.5v-9-3-1c0-0.16667-0.0745-0.35093 0-0.5 0.10541-0.21082 0.42546-0.27639 0.5-0.5 0.21082-0.63246-0.29814-1.4037 0-2 0.0745-0.14907 0.38215 0.11785 0.5 0 0.2357-0.2357-0.2357-0.7643 0-1 0.11785-0.11785 0.38215 0.11785 0.5 0 0.2357-0.2357-0.14907-0.70186 0-1 0.10541-0.21082 0.39459-0.28918 0.5-0.5"/>
  <path fill="none" stroke="#000000" stroke-width="0.5" stroke-miterlimit="10" d="m553 608v-10.5c0-0.34777-0.0904-2.3192 0-2.5 0.10541-0.21082 0.42546-0.27639 0.5-0.5 0.15811-0.47434-0.15811-1.0257 0-1.5 0.11785-0.35355 0.38215-0.64645 0.5-1 0.0648-0.19456-0.0776-1.4224 0-1.5 0.11785-0.11785 0.38215 0.11785 0.5 0s0-0.33333 0-0.5v-2.5-3.5c0-0.33333-0.10541-0.68377 0-1 0.0745-0.22361 0.36926-0.30388 0.5-0.5 0.20672-0.31009 0.38215-0.64645 0.5-1 0.16369-0.49106-0.16963-2.6607 0-3 0.0745-0.14907 0.38215 0.11785 0.5 0 0.0161-0.0161 0-1.3787 0-1.5 0-0.33333-0.10541-0.68377 0-1 0.11785-0.35355 0.38215-0.64645 0.5-1 0.1049-0.3147 0-2.0493 0-2.5v-0.5c0-0.16667-0.11785-0.38215 0-0.5s0.38215 0.11785 0.5 0c0.25-0.25-0.25-1.25 0-1.5 0.11785-0.11785 0.38215 0.11785 0.5 0 0.2357-0.2357-0.2357-0.7643 0-1 0.11785-0.11785 0.38215 0.11785 0.5 0"/>
  <path fill="none" stroke="#000000" stroke-width="0.5" stroke-miterlimit="10" d="m558.5 570c-1.1706-1.8785 1.1927-1.578 1.5-2.5 0.10541-0.31623-0.14907-0.70186 0-1 0.0745-0.14907 0.35093 0.0745 0.5 0 1.1055-0.55276 0.15516-0.31032 0.5-1 0.10541-0.21082 0.39459-0.28918 0.5-0.5 0.2-0.4-0.2-1.1 0-1.5 0.10541-0.21082 0.39459-0.28918 0.5-0.5 0.0745-0.14907 0-0.33333 0-0.5v-0.5-2.5-1c0-0.16667-0.16667-0.5 0-0.5s-0.11785 0.61785 0 0.5c0.26352-0.26352 0.23648-0.73648 0.5-1 0.11785-0.11785 0.38215 0.11785 0.5 0s-0.11785-0.38215 0-0.5 0.42546 0.14907 0.5 0c0.14907-0.29814-0.2357-0.7643 0-1s0.70186 0.14907 1 0c0.14907-0.0745-0.11785-0.38215 0-0.5s0.38215 0.11785 0.5 0c1.0345-1.0345-1.5809 0.0404 0.5-1 0.14907-0.0745 0.38215 0.11785 0.5 0s-0.11785-0.38215 0-0.5 0.38215 0.11785 0.5 0"/>
  <path fill="none" stroke="#000000" stroke-width="0.5" stroke-miterlimit="10" d="m561.5 555.5v-4c0-0.16667-0.11785-0.38215 0-0.5s0.38215 0.11785 0.5 0c0.2357-0.2357-0.10541-0.68377 0-1 0.11785-0.35355 0.38215-0.64645 0.5-1 0.11719-0.35158-0.13705-2.363 0-2.5 0.11785-0.11785 0.42546 0.14907 0.5 0 0.0732-0.1463 0-2.5908 0-3 0-0.16667-0.0527-0.34189 0-0.5 0.11785-0.35355 0.40961-0.63845 0.5-1 0.0975-0.39009 0-2.4164 0-3v-3c0-0.16667 0.11785-0.38215 0-0.5-0.2357-0.2357-0.7643 0.2357-1 0-0.11785-0.11785 0.11785-0.38215 0-0.5-0.12032-0.12032-1.8797 0.12032-2 0-0.11785-0.11785 0.11785-0.38215 0-0.5-0.2357-0.2357-0.7643 0.2357-1 0-0.11785-0.11785 0.0745-0.35093 0-0.5-1.0404-2.0809 0.0345 0.53452-1-0.5-0.26352-0.26352-0.23648-0.73648-0.5-1-0.11785-0.11785-0.38215 0.11785-0.5 0s0.11785-0.38215 0-0.5-0.42546 0.14907-0.5 0c-0.14907-0.29814 0.10541-0.68377 0-1"/>
  <path fill="none" stroke="#000000" stroke-width="0.5" stroke-miterlimit="10" d="m564 537.5c0-0.66667-0.1096-1.3424 0-2 0.30181-1.8108 0.42849-0.35698 1-1.5 0.0745-0.14907-0.0745-0.35093 0-0.5 1.1381-1.1381 0.13215 0.10355 0.5-1 1.2072-3.6217-0.14415 0.7883 1-1.5 0.14907-0.29814-0.14907-0.70186 0-1 0.10541-0.21082 0.39459-0.28918 0.5-0.5 0.14907-0.29814-0.2357-0.7643 0-1 0.11785-0.11785 0.38215 0.11785 0.5 0 0.2357-0.2357-0.2357-0.7643 0-1 0.11785-0.11785 0.38215 0.11785 0.5 0s0-0.33333 0-0.5v-2-0.5c0-0.16667-0.16667-0.5 0-0.5s0 0.66667 0 0.5c0-0.5-0.24807-1.0659 0-1.5 1.1526-2.0171 2.0265-1.737 3.5-3 0.71583-0.61357 1.3333-1.3333 2-2 0.33333-0.33333 0.60777-0.73851 1-1 0.13868-0.0924 0.34189 0.0527 0.5 0 0.35355-0.11785 0.64645-0.38215 1-0.5 0.31623-0.10541 0.7643 0.2357 1 0s-0.2357-0.7643 0-1c0.11785-0.11785 0.38215 0.11785 0.5 0s-0.11785-0.38215 0-0.5"/>
  <path fill="none" stroke="#000000" stroke-width="0.5" stroke-miterlimit="10" d="m568 522.5v-11c0-0.4186 0.1085-3.1745 0-3.5-0.11785-0.35355-0.38215-0.64645-0.5-1-0.0527-0.15811 0.0745-0.35093 0-0.5-0.10541-0.21082-0.39459-0.28918-0.5-0.5-0.2-0.4 0.2-1.1 0-1.5-0.10541-0.21082-0.42546-0.27639-0.5-0.5-0.0762-0.22869 0.11124-1.7775 0-2-0.10541-0.21082-0.39459-0.28918-0.5-0.5-0.0745-0.14907 0.0745-0.35093 0-0.5-1.0404-2.0809 0.0345 0.53452-1-0.5-0.11785-0.11785 0.11785-0.38215 0-0.5s-0.38215 0.11785-0.5 0 0.11785-0.38215 0-0.5-0.38215 0.11785-0.5 0 0-0.33333 0-0.5c0-0.12126 0.0161-1.4839 0-1.5-0.11785-0.11785-0.33333 0-0.5 0"/>
  <path fill="none" stroke="#000000" stroke-width="0.5" stroke-miterlimit="10" d="m569.5 506c0-0.66667-0.16169-1.3532 0-2 0.0404-0.16169 0.38215 0.11785 0.5 0 0.2357-0.2357-0.2357-0.7643 0-1 0.11785-0.11785 0.38215 0.11785 0.5 0 1.0345-1.0345-1.5809 0.0404 0.5-1 0.14907-0.0745 0.38215 0.11785 0.5 0 0.0161-0.0161 0-1.3787 0-1.5 0-0.32855-0.094-1.2179 0-1.5 0.11785-0.35355 0.38215-0.64645 0.5-1 0.14791-0.44372-0.1637-2.1726 0-2.5 0.10541-0.21082 0.33333-0.33333 0.5-0.5s0.28918-0.39459 0.5-0.5c0.14907-0.0745 0.38215 0.11785 0.5 0s-0.11785-0.38215 0-0.5 0.38215 0.11785 0.5 0-0.11785-0.38215 0-0.5 0.38215 0.11785 0.5 0-0.11785-0.38215 0-0.5 0.38215 0.11785 0.5 0 0-0.33333 0-0.5c0-0.33333-0.14907-0.70186 0-1 0.0745-0.14907 0.38215 0.11785 0.5 0 0.2357-0.2357-0.2357-0.7643 0-1 0.11785-0.11785 0.38215 0.11785 0.5 0 0.2357-0.2357-0.2357-0.7643 0-1"/>
  <path fill="none" stroke="#000000" stroke-width="0.5" stroke-miterlimit="10" d="m571.5 495c0.16667-0.66667 0.36523-1.3262 0.5-2 0.10692-0.5346 0-1.8836 0-2.5v-4.5c0-0.18362 0.0201-1.9799 0-2-0.11785-0.11785-0.38215 0.11785-0.5 0s0.11785-0.38215 0-0.5-0.38215 0.11785-0.5 0c-0.25-0.25 0.25-1.25 0-1.5-0.11785-0.11785-0.38215 0.11785-0.5 0s0.11785-0.38215 0-0.5-0.38215 0.11785-0.5 0 0.0745-0.35093 0-0.5c-0.21082-0.42164-0.78918-0.57836-1-1-0.0745-0.14907 0.0745-0.35093 0-0.5-0.61785-1.2357-0.5 0.17259-0.5-1 0-0.16667 0.11785-0.38215 0-0.5s-0.5-0.16667-0.5 0c0 0.2357 0.5 0.7357 0.5 0.5 0-0.37268-0.40961-0.63845-0.5-1-0.0809-0.32338 0.10541-0.68377 0-1-0.0745-0.22361-0.39459-0.28918-0.5-0.5-0.0745-0.14907 0-0.33333 0-0.5v-1c0-0.16667-0.16667-0.5 0-0.5s0.0745 0.64907 0 0.5c-0.2357-0.4714-0.33333-1-0.5-1.5"/>
 </g>
 <g id="Root">
  <path fill="none" stroke="#000000" stroke-width="0.5" stroke-miterlimit="10" d="m 744.66667,393.33333 c 0.31263,12.00702 2.11101,24.38069 1.5036,36.16067 -4.21214,8.83612 -11.47734,15.75582 -17.07094,23.44202 -3.5398,15.26119 -10.06048,29.67574 -11.92993,45.3481 -2.99754,12.92022 -3.54499,26.07977 -4.17426,39.25719 -2.2137,17.38563 1.33942,35.11791 -1.99699,52.47106 -1.95412,11.71097 0.0406,23.72294 -3.29317,35.29875 -2.1295,7.89397 0.2312,16.74178 -5.31641,23.51047 -1.70919,2.37671 -7.45587,16.38995 -2.91449,8.63396 3.75978,-6.47632 1.03125,8.47676 1.85925,11.68346 -0.48596,12.314 -3.17954,24.57444 -0.66666,36.86099 -0.92972,7.36512 0.12721,15.40782 -5.47725,21.17854 -1.29656,2.81904 -7.58105,16.32712 -2.95868,9.00551 2.80616,-2.57897 8.03349,-14.15717 9.27729,-10.929 2.47983,16.039 -1.21128,32.11009 -0.1747,48.23573 1.86509,10.06616 -7.05239,17.57633 -8,27.17589 5.10064,-7.24182 7.19538,-7.07914 5.66627,2.01032 -0.52862,18.88854 -2.2244,38.15209 0.14576,56.82738 3.70827,8.85502 2.57874,-6.1155 3.78474,-9.58384 3.27293,-22.33734 2.76278,-44.98649 3.40809,-67.46184 1.3872,-15.17029 5.17561,-30.3158 2.26777,-45.5304 -1.46935,-18.4831 1.35147,-37.11391 -1.23815,-55.57979 -2.1542,-14.68932 4.41397,-28.83967 4.18684,-43.55894 0.68148,-11.72487 3.01188,-23.34306 2.44535,-35.12289 3.78533,-8.01995 5.6391,-8.89523 4.66667,0.6834 1.34528,8.97965 -6.22252,16.63215 -3.40801,25.6791 0.99414,13.24412 1.01267,26.60745 1.08837,39.84759 -0.6614,10.19826 1.36552,20.50833 -1.58375,30.54358 -2.31484,21.84838 1.22166,44.11983 -2.60254,65.90686 -2.78417,14.41393 -5.56173,29.28569 -1.59555,43.78133 3.28931,11.54928 0.9938,23.89745 5.93375,35.02141 2.61391,-2.5989 6.53268,-9.57895 3.43296,-14.7367 -4.91999,-17.13174 -3.51097,-35.0556 -3.9319,-52.67296 0.52176,-17.14125 4.76561,-34.07273 4.24675,-51.33046 -0.62397,-17.90867 3.19763,-35.56079 4.24522,-53.31154 -1.60471,-12.45952 -2.18415,-24.91557 -0.13617,-37.36274 2.32553,-6.26346 2.68038,-12.89 2.30948,-20.02131 0.82611,-8.4222 0.50202,-18.55295 0,-27.60622 2.83288,-3.68776 1.59829,-11.69504 3.87931,-16.81035 1.20603,-4.14612 2.60226,-8.81581 3.01724,-13.7931 1.02755,-3.44995 1.86203,-7.74167 2.15518,-12.06897 1.8861,-5.29781 0.37596,-13.99185 0.86206,-20.68965 0.90069,-7.32923 0.80864,-16.0996 1.29311,-23.68688 1.01602,-10.14525 3.21414,6.29443 3.44827,9.89377 3.15654,8.77176 1.18039,20.06705 1.72414,30.17242 -1.85682,2.84503 -1.03092,9.00244 -1.2931,13.36207 -1.81539,11.90031 -0.42336,25.05671 -0.86207,37.5 1.73767,4.50174 1.08271,12.07475 1.2931,18.06341 0.61505,6.50715 -0.90973,10.73138 -1.72413,15.98831 -1.37762,4.44712 -1.00414,9.04475 -2.15518,12.93104 -0.0904,16.59373 0.12913,34.14118 0,50 -8.6e-4,6.0206 -1.53459,10.01219 -2.15517,15.29171 0.25019,5.23545 -1.38693,8.99556 -1.72414,14.01863 -9.86012,6.74968 2.70124,-0.4802 0,8.62069 -0.38637,15.34858 1.0343,31.5988 -1.2931,45.79241 -0.30485,5.07141 -0.59163,10.15029 -0.43104,15.41449 2.70682,3.42704 0.33504,10.43874 3.01725,15.0862 0.47105,11.68757 -1.16143,24.7859 1.2931,34.9138 -0.18004,9.8688 2.2687,5.14084 3.01724,-1.72414 0.74621,-6.79417 3.76895,-9.27099 3.44828,-16.25654 -0.4748,-3.80606 1.02879,-10.07381 -0.86207,-12.19174 -1.12697,-12.32098 -0.79632,-26.12407 -1.33758,-39.3026 1.97076,-3.57631 3.42709,1.59851 1.58729,-6.27992 -1.20002,-5.24961 -1.25471,-11.25292 -2.40488,-15.62437 -3.10204,-9.07193 5.51683,-6.79446 0.48039,-13.54626 -2.89006,-4.87803 -1.41908,-10.76764 -2.20453,-16.19512 -0.88091,-5.90965 2.73801,-7.31946 2.15517,-12.93104 1.78596,-5.14637 2.42396,-9.5566 3.44828,-14.65517 0.48606,-4.17726 1.17343,-8.92203 2.15517,-13.03378 -0.28138,-7.28736 1.80984,-12.20213 1.2931,-19.72484 0.89511,-3.39667 0.59649,-8.61695 1.2931,-12.17172 0.24696,-7.21722 0.99019,-14.08666 1.29311,-20.99791 -0.25932,-9.51747 0.53479,-20.08838 -0.43104,-28.89934 -1.04726,-7.60856 -0.11373,-17.19791 -0.43103,-25.53643 -0.13318,-12.69288 2.21596,-23.53255 1.72414,-36.28698 -0.29087,-12.15225 0.60061,-26.26001 -0.47724,-37.12319 -5.29628,-4.22696 2.35415,0.83754 3.30315,2.01005 2.34239,2.94994 4.88649,4.80943 4.07064,9.74482 0.57881,8.25648 0.82475,17.2253 -0.43104,24.89724 0.0749,13.72843 -0.53469,27.74041 1.29311,40.74277 1.67902,8.05201 0.39769,18.37369 1.2931,27.15517 0.0366,24.59424 -0.21179,49.25577 0.43104,73.7069 -2.47404,7.40292 0.6736,17.13443 -1.72414,24.56896 -0.67605,5.84247 -0.21656,12.91412 -1.29311,18.96552 -1.39697,5.17087 -3.07195,11.5788 -3.01724,18.08343 3.89524,3.22845 -6.61627,17.74155 -1.04293,11.24703 6.93617,4.85873 -0.7932,20.73122 1.905,28.8592 1.45137,6.03973 -2.17508,10.51714 -5.55556,15.07024 6.40278,-10.28713 7.34615,-0.53159 7.71073,6.48148 0.7161,4.4888 1.36121,9.61395 1.72414,14.32689 0.35513,5.67778 1.8882,10.16066 1.29311,16.27656 1.03749,7.15217 0.12801,16.25129 0.43103,24.13793 0.74025,11.02505 1.16499,-1.32905 1.2931,-5.17241 3.44447,-5.55261 0.33371,-16.11271 2.58621,-23.27587 -1.88672,-18.73677 -3.03021,-37.48981 -1.79841,-56.3108 -0.23212,-16.62418 2.78925,-32.98839 1.71708,-49.67964 0.0738,-10.34409 0.50167,-20.38669 1.80542,-29.45713 0.73166,-8.41258 1.5861,-16.97139 2.58621,-25.32829 1.47346,-4.68205 2.0321,-11.03964 3.01724,-16.15378 0.71901,-10.4444 1.54008,-20.84652 1.2931,-31.69104 -1.69614,-3.5788 -2.7532,-8.8755 -3.01724,-13.36207 0.20519,-9.38446 -1.33023,-17.29398 -0.86207,-26.72414 -2.8608,-14.78249 -0.20995,-31.84799 -1.72414,-47.18826 -0.90579,-4.96951 0.24259,-11.3423 -1.2931,-15.31174 4.01111,5.15305 2.50982,10.57585 5.60345,15.08621 0.9204,7.15654 3.53749,12.57364 3.44827,20.46412 0.63796,4.79303 0.59814,10.68577 2.15518,14.8807 0.79146,6.47107 2.30311,11.50374 1.72413,18.96552 1.90373,8.24527 -0.32877,15.85654 0.43104,24.5089 -0.81149,9.44273 1.74082,17.49214 1.2931,26.7842 1.42873,5.79485 -0.18867,12.04614 -1.72414,16.81035 -0.32239,5.56842 -1.27636,10.50525 -0.86207,16.81034 -1.01871,4.50711 -1.29443,9.44359 -1.2931,14.65518 -0.6272,5.06904 -0.47051,11.27615 -1.72414,16.48206 -0.0734,7.85053 -1.80275,14.27173 -1.2931,22.31104 -1.0285,3.68366 -1.36799,10.76552 -0.43104,14.65517 2.44467,7.735 -0.59481,7.6236 1.57245,15.06321 0.15878,14.60912 -0.55834,28.51304 -0.27934,43.43736 -0.63588,6.13569 0.89389,10.10573 0.86207,15.63736 -2.44759,4.38829 -2.29443,10.80453 -2.86392,17.37552 -0.45982,9.75551 1.3167,17.26155 3.72599,23.57276 0.0499,4.95001 1.54078,9.93821 2.5862,13.7931 1.73563,-3.0739 0.49086,-11.03713 0.86207,-16.25654 -0.29198,-10.03371 0.57728,-22.45168 -0.4291,-31.0345 -1.90284,-9.90139 -0.36834,-22.04198 -0.864,-32.88137 -2.72783,-9.92601 8.24065,2.906 2.78015,-4.38226 -3.98903,-6.00169 -0.97683,-14.08211 -1.91808,-20.98872 -0.0857,-5.35555 0.12029,-9.78271 0.86207,-14.71523 7.14058,8.57422 -2.98388,-3.76983 0.86207,-7.43034 0.62844,-9.35333 -0.8429,-18.95403 0.0195,-29.03172 0.59795,-12.02691 -1.46378,-25.37128 -0.0195,-36.8138 1.10774,-4.49571 -0.24413,-11.45103 1.2931,-15.51724 -0.0729,-6.63867 3.1551,-10.373 3.01724,-16.68758 0.90063,-4.43622 1.66223,-8.50441 1.72414,-13.69034 -0.31355,-11.97428 0.61232,-25.18797 -0.43104,-36.43243 -1.71602,-7.26052 -0.22999,-17.7231 -1.2931,-25.63653 -0.25549,-6.06937 -2.43945,-10.53288 -2.58621,-16.17381 -1.75277,-4.96172 -2.67139,-10.92682 -3.44827,-16.37931 -1.1708,-3.93308 -0.77235,-10.14025 -2.58621,-13.36207 -0.51046,-4.13288 -2.7354,-7.48717 -3.87931,-11.2069 -0.6925,-3.91113 -3.00516,-6.48144 -4.31034,-9.48276 -2.50866,-4.93348 -0.0102,-11.62184 -0.86207,-18.39169 0.21656,-8.31013 -0.23266,-15.95449 -0.86207,-23.41865 -0.57932,-4.40055 -2.4835,-8.34145 -3.87931,-12.06897 -2.15984,-3.84414 -2.49465,-8.47772 -4.31035,-12.06896 -1.01814,-5.08937 -1.41809,-10.8203 -3.01724,-15.94828 -0.74636,-5.27351 -3.12166,-9.61468 -3.01724,-15.94827 -0.46409,-3.34542 -5.97278,-2.05229 -8.7227,-3.23744 z"/>
  <path fill="none" stroke="#000000" stroke-width="0.5" stroke-miterlimit="10" d="m725.2 471.2l-5.2 2.4-10.4 3.2-1.6 4.8v9.6l-4 6.8-3.2 8-1.6 11.2 0.4 11.6 6.4-16.8 1.6-9.6 5.6-16.8 2-5.2 7.6-3.2z"/>
  <path fill="none" stroke="#000000" stroke-width="0.5" stroke-miterlimit="10" d="m740.67 455.33-1.8667 10.667l-0.4 5.2-1.6 5.2-4 6.8-4.4 13.2-4.4 2.2667-1.3333 11.333 5.7333-5.2 4.8-6.4 5.6-15.6 2.4-7.6 3.2-8.4 1.6-6.8z"/>
 </g>
 <g id="xylem">
  <path fill="none" stroke="#000000" stroke-width="0.5" stroke-miterlimit="10" d="m518 215.2-8 0.4-4 0.8-6.4 1.2-4.4 2-3.6 4-2.4 4.4-1.2 3.2-0.4 3.6-0.8 4.4-1.2 3.6v26l0.4 3.6 1.2 4.4 2 6.8 3.2 4.4 2 5.6 4.8 6.8 3.6 4.8 3.6 6.4 4.8 7.6 11.6 13.6 8.4 10 8.8 6 10 7.2 17.6 12.4 13.2 9.2 15.2 7.2 13.6 4.4 11.6 3.2 13.6 2.8 10 1.2 3.2-0.8h4.4l33.6-37.6-1.6-4-1.6-2-3.6-0.8-8.4-1.2h-12.4l-10.8-2.4-11.2-3.6-4-2-11.2-5.2-3.6-2 23.2-18h3.2l6.4-0.8 2.8-2 2.8-3.2 2.4-5.2 1.2-3.6v-5.2l1.6-7.2-0.8-3.6-0.4-6-0.8-6.4-2-7.6-2.4-8.4-3.2-6.4-4.4-9.6-2.4-6-7.6-8-8-8.4-4.4-6.4-5.6-2.8-12-6-13.6-7.2-8.8-4-10.4-3.2h-2.4l-6-0.4h-2.8z"/>
 </g>
 <g id="xylem2">
  <path fill="#FFFFFF" stroke="#000000" stroke-width="0.5" stroke-miterlimit="10" d="m640.8 316.8 6.4-7.6 7.2-4.4 1.2-6.8-0.8-9.6v-18l-9.6-22-12.8-18.8-12.8-12-15.2-10.8-11.2-6-21.6-5.2-10-0.8-42 25.6-11.2 2-6.4 2-2.4 3.2-3.2 2.8-2.4 3.6-0.8 3.6-2.4 8v5.2l1.2 6.8 0.4 5.6v4l0.4 3.6 2.4 8.4 2 6.4 3.2 8.4 4.8 5.2 5.6 9.6 4.8 7.2 10.4 10.8 7.6 6.4 6.8 4.4 9.6 8.4 6.8 2.4 10 4.8 6.8 1.2 12-1.6 10-2 7.6-4.4z"/>
  <path fill="none" stroke="#000000" stroke-width="0.5" stroke-miterlimit="10" d="m567.6 157.6-68 46"/>
  <path fill="none" stroke="#000000" stroke-width="0.5" stroke-miterlimit="10" d="m667.6 312 69.6-55.6"/>
  <path fill="none" stroke="#000000" stroke-width="0.5" stroke-miterlimit="10" d="m520.4 202.8-0.8 17.6"/>
  <path fill="none" stroke="#000000" stroke-width="0.5" stroke-miterlimit="10" d="m519.6 220.4 10.4 1.6h6.4l10 3.6 4.8 0.4 16 7.6 5.2 3.2 6 5.6 4.8 4.8 6.8 7.2 3.6 7.6 4.8 7.6 4.8 11.6 1.2 4 3.2 13.2 2.8 10.4v10l-1.2 10.4-2.4 7.6-3.6 9.6"/>
  <path fill="none" stroke="#000000" stroke-width="0.5" stroke-miterlimit="10" d="m499.6 203.6 20.8-0.8 44-22.8 3.6-1.2 10 2.8 12.8 1.2 15.6 9.2 16.4 9.2 15.2 11.2 13.2 18.4 12 24 5.2 15.6 1.6 13.2v17.2l-2.4 11.2"/>
  <path fill="none" stroke="#000000" stroke-width="0.5" stroke-miterlimit="10" d="m520.4 209.2 43.2-24"/>
  <path fill="none" stroke="#000000" stroke-width="0.5" stroke-miterlimit="10" d="m563.6 185.2 17.4 2.1333 12 4.3333 11 4.6667 15.667 8.6667 8.6667 6l9.6667 10.333 6.3333 7.6667 5 6.6667 4.6667 8 5.3333 15.667 4.3333 13 1.3333 11.333v14l-1.3333 6.3333-2.3333 7-11.667 9.6667-8.3333 3.3333-6.3333 0.66667-4.3333-0.33334h1.3333"/>
  <path fill="none" stroke="#000000" stroke-width="0.5" stroke-miterlimit="10" d="m626.67 329.33 4.6667 0.66667h3.3333l5.6667-0.66667 7.6667-2.6667 5.6667-2 5.3333-4 2.6667-3.3333 5.9333-5.3333"/>
  <path fill="none" stroke="#000000" stroke-width="0.5" stroke-miterlimit="10" d="m499.6 203.6-2.2667 2.7333-10.667 7.6667-4.3333 6.6667-5 9.3333-2 8-1.3333 10.333-0.33333 12 2.6667 13.667 4 10 6.6667 16.333 11 18.333 10 14.667 14.667 17.667 16 16.667l19.333 18.333 18.333 16.667 14.667 10 4.3333 4.3333-1-10.333-14.333-10.667-20.667-17.333-17-15-12-13-13.667-16.333-13.667-18.667-9-15.333-6.6667-13-4.3333-11.333-2-9-0.33333-10.667 1-18.667 5.3333-13.333 6.3333-8.6667 10.333-4.6667 16.733-1.8"/>
  <path fill="none" stroke="#000000" stroke-width="0.5" stroke-miterlimit="10" d="m595.33 417 10.667-12l-2.6667-2-9 3.6667z"/>
  <path fill="none" stroke="#000000" stroke-width="0.5" stroke-miterlimit="10" d="m562.33 381.67 15.333 9.3333l13.667 6 12 6"/>
  <path fill="none" stroke="#000000" stroke-width="0.5" stroke-miterlimit="10" d="m606 405 4.6667 0.66667 3-1.3333 6-6l1.5333-5.9333-6.2 5.9333-3 2-1.3333 5"/>
  <path fill="none" stroke="#000000" stroke-width="0.5" stroke-miterlimit="10" d="m612 400.33-11-2l-6-3.3333-8.6667-5.6667-9.3333-6-10.333-5.3333-9.3333-6-6.6667-8-16.333-13.667-12.333-14.667-8.6667-9-0.66666-4"/>
  <path fill="none" stroke="#000000" stroke-width="0.5" stroke-miterlimit="10" d="m529 329.67 12.333 15.333l7.3333 4.3333 10.667 6.6667 9 7 12 6 13 7.3333 12.333 5 14 5.3333 14.333 2.3333 8.6667-0.33333h7l-1.6667 6.9333"/>
  <path fill="none" stroke="#000000" stroke-width="0.5" stroke-miterlimit="10" d="m649.67 388.67 33.133-36.667"/>
 </g>
 <g id="layer15">
  <text id="text282" x="134" y="238" style="line-height:125%" xml:space="preserve"><tspan id="tspan280" x="134" y="238" font-size="13.333px">Female Catkins</tspan></text>
  <text id="text286" x="124" y="384" style="line-height:125%" xml:space="preserve"><tspan id="tspan284" x="124" y="384" font-size="13.333px">Male Catkins</tspan></text>
  <text id="text290" x="471" y="352" style="line-height:125%" xml:space="preserve"><tspan id="tspan288" x="471" y="352" font-size="13.333px">Xylem</tspan></text>
  <text id="text294" x="678" y="455" style="line-height:125%" xml:space="preserve"><tspan id="tspan292" x="678" y="455" font-size="13.333px" style="line-height:100%">Roots</tspan></text>
  <text id="text298" x="481" y="473" style="line-height:125%" xml:space="preserve"><tspan id="tspan296" x="481" y="473" font-size="13.333px" style="line-height:100%">Mature Leaf</tspan></text>
  <text id="text302" x="385" y="523" style="line-height:125%" xml:space="preserve"><tspan id="tspan300" x="385" y="523" font-size="13.333px" style="line-height:100%">Young Leaf</tspan></text>
  <text id="text306" x="229" y="719" style="line-height:125%" xml:space="preserve"><tspan id="tspan304" x="229" y="719"/></text>
  <text id="text296" x="163" y="720" style="line-height:125%" xml:space="preserve"><tspan id="tspan294" x="163" y="720" font-size="13.333px" style="line-height:100%">Light-grown seedling</tspan></text>
  <text id="text300" x="42" y="752" style="line-height:125%" xml:space="preserve"><tspan id="tspan302" x="42" y="752" font-size="13.333px">Dark + 3 hr light</tspan></text>
  <text id="text330" x="35" y="767" style="line-height:125%" xml:space="preserve"><tspan id="tspan328" x="35" y="767" font-size="13.333px" style="line-height:100%">etiolated seedlings</tspan></text>
 </g>
</svg>
