<?xml version="1.0" encoding="UTF-8"?>
<svg id="svg1678" width="1159.5" height="1542.1" version="1.1" viewBox="0 0 1159.5 1542.1" xmlns="http://www.w3.org/2000/svg">
 <g id="M82-SeedlingRoot">
  <path id="path4602" d="m885.83 727.21c0.4189-6.4655 0.33231-15.764-0.19238-20.664-0.82838-7.7353-1.7537-9.9946-7.0273-17.158-6.9518-9.4433-12.151-18.496-14.672-25.303-0.10986-0.29671-15.152 4.007-15.252 3.719-0.16617-0.48054 14.62-5.545 14.483-6.0002-0.60015-1.9936-0.91758-3.7374-0.92232-5.1715-0.0173-5.244-0.29226-4.4428-3.6854-4.6108-1.2706-0.0629-18.457 4.5565-18.706 4.466-0.31754-0.1158 16.621-6.195 17.88-6.442 2.131-0.4178 3.0513-1.8719 3.6824-5.8184-0.3855-7.5013-0.56178-14.871-2.221-15.489-0.48817-0.13004-34.781 11.08-34.994 10.994-0.56993-0.22811 32.999-12.519 34.464-12.612 1.9239-0.122 2.2886-0.92928 1.7259-3.8213-0.39233-2.0167-1.7012-11.767-2.9085-21.667s-2.4533-18.269-2.7688-18.598c-0.31551-0.32912-3.3351 0.14016-6.7102 1.0428-3.3751 0.90271-35.141 10.887-35.453 10.575s31.219-10.844 34.929-11.795c5.6604-1.4507 6.7455-2.2245 6.7455-4.8101 0-1.6947-0.54854-3.0813-1.219-3.0813-0.67043 0-6.757 2.1134-13.526 4.6964-6.7688 2.583-50.038 13.715-50.321 13.432-0.28279-0.28279 44.05-13.789 51.461-16.569 12.021-4.5092 12.394-3.606 11.725-6.099-0.41263-1.537-0.75843-3.2559-0.76844-3.8199-0.0107-0.56397-1.6682-0.70017-3.6849-0.30266-3.1283 0.61661-52.253 15.539-49.852 14.47 1.548-0.68882 52.179-17.203 52.625-18.364 0.59994-1.5634 2.667-2.1116 7.9632-2.1116 3.9341 0 7.4751 0.32217 7.8689 0.71596 0.39378 0.39377-0.0364 2.9438-0.95598 5.6667-2.2186 6.5693-3.7555 26.44-2.627 33.965 0.78153 5.2117 1.4574 6.1974 5.1061 7.4478l48.705 11.441-48.903-9.3918c-4.243-0.71863-4.5997-1.9438-3.8099 1.0068 0.46356 1.7318 0.85104 5.0561 0.86105 7.3874 0.0175 4.0707 0.31467 4.3004 7.4932 5.7906 4.1113 0.85351 9.3613 2.429 11.667 3.501 3.2252 1.4998 25.173 9.0166 22.608 8.407-11.842-2.8143-39.079-11.053-39.657-10.475-0.36362 0.36362-0.14002 8.5187 0.49688 18.122 1.3491 20.343 2.4086 23.294 15.013 41.823 8.0186 11.787 8.7352 13.434 9.5704 22 0.97772 10.026-0.55484 20.905-3.8402 27.258-1.1379 2.2004-2.3145 4.0008-2.6147 4.0008-0.30022 0-0.20314-5.29 0.21574-11.755z" fill="#8787de" stroke="#000000" stroke-width=".667"/>
 </g>
 <g id="M82-SeedlingShoot">
  <path id="path282" d="m852.9 543.72c0-14.662-4.4294-52.568-7.4694-63.922-3.0097-11.241-10.614-28.696-14.162-32.508-1.6691-1.7931-8.1348-7.2276-14.368-12.077-10.994-8.5524-11.56-8.8143-18.913-8.7424-5.3658 0.0524-9.6264 1.087-14.587 3.5421-3.8542 1.9074-7.4933 3.1678-8.087 2.8009-0.5937-0.36692-1.0794-2.7604-1.0794-5.3188 0-4.941 4.3343-10.271 9.7502-11.99 2.378-0.75472 1.7212-1.4356-4.482-4.6464-10.202-5.2809-12.394-5.2121-51.268 1.6083-4.4 0.77199-12.149 3.2164-17.22 5.432-8.2264 3.5941-9.7555 3.8681-14.183 2.5417-4.3491-1.303-5.8458-1.0754-12.113 1.842-11.058 5.1479-23.093 3.8004-12.861-1.44 2.4073-1.2329 6.3478-3.9585 8.7567-6.0568 2.4088-2.0983 5.2279-3.8151 6.2645-3.8151 4.6531 0 23.522-7.0921 31.826-11.962 23.92-14.028 33.55-12.971 66.287 7.2794 13.353 8.2601 23.047 10.717 10.571 2.6794-3.9867-2.5685-8.3165-5.0089-9.6217-5.4232-1.3052-0.41428-2.3732-1.3316-2.3732-2.0386 0-4.6158 13.125-0.97803 20.807 5.767 2.4896 2.1859 4.5265 3.2727 4.5265 2.4152 0-2.1119-2.7344-7.1686-4.4943-8.3113-0.78565-0.51012-0.97214-1.3838-0.41442-1.9415 2.0782-2.0782 9.5747 3.6184 11.85 9.0048 1.5744 3.7276 3.5234 5.8561 6.3333 6.9168 2.2325 0.84266 4.0724 2.4506 4.0887 3.5731 0.0163 1.1226 1.186 3.541 2.5992 5.3744l2.5696 3.3333-0.0272-14c-0.0239-12.304-0.41944-14.707-3.2659-19.835-1.7813-3.209-3.2387-6.6779-3.2387-7.7085 0-1.0306-0.89656-2.2179-1.9923-2.6384-1.0958-0.42049-1.6713-1.284-1.2788-1.919 0.39242-0.63494-0.21103-2.9423-1.341-5.1274-4.3427-8.3979-1.7248-8.9811 6.4577-1.4387 3.1823 2.9333 6.1263 5.3333 6.5423 5.3333 0.41596 0 1.7126-3.2895 2.8814-7.31l2.1251-7.31 11.067-5.3567c10.892-5.2722 18.523-6.7465 20.271-3.9168 0.48946 0.79193-0.37514 2.326-1.9213 3.4089-1.8791 1.3162-2.8112 3.4063-2.8112 6.3034 0 3.6369-0.98905 5.0316-6.1465 8.6668-7.9187 5.5816-6.6703 6.8509 2.0631 2.0976 7.8974-4.2983 10.3-3.3862 4.7343 1.7969-4.1569 3.8708-5.3007 4.6438-13.713 9.2674-2.983 1.6395-5.8368 3.6494-6.3417 4.4664-0.67249 1.0881-0.18523 1.0932 1.8219 0.0191 1.507-0.80651 3.3794-1.4664 4.1609-1.4664 3.0163 0 1.1634 2.6016-5.0136 7.0393-3.539 2.5425-7.439 6.7395-8.6667 9.3266-3.5053 7.3867-2.453 26.301 1.4632 26.301 0.60203 0 5.8669-3.6866 11.7-8.1924 26.272-20.295 40.944-27.748 59.784-30.368 17.706-2.4626 26.181-1.8892 38.449 2.6014 6.0711 2.2223 16.796 4.8502 23.832 5.8397 7.0367 0.9895 14.941 2.818 17.566 4.0634 4.5808 2.1737 17.469 14.224 19.945 18.648 1.7461 3.1202 0.1084 6.8781-5.2765 12.108-7.3475 7.1358-10.247 6.4434-28.282-6.7534-6.6284-4.8501-9.9774-5.282-20.932-2.6996-10.707 2.5242-13.539 2.0873-25.762-3.9742-3.3288-1.6509-12.052-4.9154-19.386-7.2546-17.627-5.6227-26.874-5.319-40.133 1.318-10.188 5.0998-22.926 16.899-25.842 23.936-2.0119 4.8573-1.5667 7.1486 4.4599 22.95 1.8646 4.8889 4.3358 15.689 5.4915 24 1.1557 8.3111 2.985 20.211 4.065 26.444 1.0801 6.2333 1.9626 17.783 1.9611 25.667l-3e-3 14.333h-8zm-24.531-113.3c-2.4481-4.1774-4.1435-5.7696-5.5632-5.2249-1.1554 0.44336-3.4304-0.52072-5.2396-2.2204-2.1578-2.0272-3.9785-2.6895-5.5988-2.0367-2.2834 0.91992-2.2764 1.0427 0.14124 2.502 1.3983 0.84405 6.1983 4.2832 10.667 7.6426 4.4684 3.3594 8.3472 5.9365 8.6196 5.7269 0.27244-0.20959-1.0892-3.0849-3.0258-6.3895z" fill="#784421" stroke="#000000" stroke-width="1.3333"/>
 </g>
 <g id="g289">
  <path id="path3672" d="m408.52 667.37s-6.8644-138.81 1.5254-196.78c0 0 6.8644-26.695 27.458-3.8136l-6.1017 24.407s3.0508 32.797-3.8136 63.305c0 0-4.5763 63.305 0.76271 113.64" fill="#ffffff" stroke="#000000" stroke-width="1px"/>
 </g>
 <g id="M82-Leaves" fill="#5aa02c" stroke="#000000" stroke-width="1px">
  <path id="path3692" d="m242.71 477.04 10.247 18.876c-6.2022-5.1235-15.91 5.1235-15.91 5.1235-13.213 18.606 15.91 31.55 15.91 31.55 15.91 1.0786 28.854 9.4381 28.854 9.4381s-2.6966-5.6628 0.26966-14.292c4.3146-16.449-3.5056-34.786-3.5056-34.786s-13.483-7.2808-20.224 2.4269l-1.618-16.449"/>
  <path id="path3698" d="m211.43 467.06s-1.3483 10.786 4.3146 18.876c0 0 11.326 10.517 26.966 9.9774 0 0 7.2808-17.528 3.5056-29.393 0 0-5.1235-10.517-17.798-13.213 0 0-7.8201-1.8876-14.022 1.3483"/>
  <path id="path3686" d="m407.76 593.38s-67.881-59.492-138.05-103.73c0 0-57.966-34.322-87.712-17.542 0 0-11.441 0 1.5254-7.6271 0 0 65.593-8.3898 102.97 25.932 0 0 25.932 24.407 51.864 30.508 0 0 28.983 35.085 70.932 54.915"/>
  <path id="path3710" d="m311.74 510.2s14.022 0 12.674-4.5842c0 0-6.4718-7.0111-13.213 0.26966l-3.2359 2.4269"/>
  <path id="path3712" d="m321.72 516.68s22.921-8.0898 14.831 10.247l-8.3594 7.2808s-6.2022 11.865-19.685 21.842l-22.112 14.022s-3.7752-18.876-2.6966-35.056c0 0 3.7752-26.966 20.494-25.348 0 0 16.18-5.1235 17.528 7.0112z"/>
  <path id="path3688" d="m341.11 524.65s15.162-20.882 39.568-5.2464c0 0 12.203 4.5763 18.686 16.78 0 0 3.4322-23.263-47.288-29.746 0 0-5.7203-0.38136-3.8136 6.1017 0 0 2.3988 2.661-9.9152 8.3898"/>
  <path id="path3696" d="m268.6 477.31s-5.6628-9.1684 5.9325-5.1235c0 0-22.112-28.045-22.651-5.9325 0 0-3.7752-14.831-9.4381-3.7752l3.7752 4.0449s-14.292-8.8988-14.831 6.7415"/>
  <path id="path3708" d="m248.64 485.67-2.9662-11.865s-24.809-4.3146-38.561 24.809l3.5056 3.7752s-12.404 8.3594-7.0111 18.876c0 0-5.3932 2.9662 0.53932 26.696 0 0 0.26966 22.382 5.1235 25.887 0 0 6.4718-12.135 17.258-16.449 10.786-4.3146 16.449-15.91 16.449-15.91l7.0111-0.53932 5.9325-17.258s13.213-0.53932 10.517-13.483c0 0 8.3594-1.3483 7.0111-15.64 0 0 16.989-8.0898 0-17.258 0 0-2.9662-2.6966-8.8988 1.618-6.2022 5.3932-15.91 6.7415-15.91 6.7415z"/>
  <path id="path3706" d="m184.73 472.45s2.1573 10.517-4.5842 15.101c-6.7415 4.5842-5.6628 14.022-5.6628 14.022l-3.7752 2.1573s3.7752 11.056-1.618 18.067c0 0-4.3146 1.618-3.7752 7.2808 0 0 4.0449 0.53932-3.5056 9.9774 0 0-4.0449 2.6966-4.5842 7.8201 0 0-7.5505 5.3932-11.595-3.7752 0 0 7.0111 7.2808-11.595 19.955 0 0-18.067 19.955-18.067 26.696 0 0-23.73 0.26966-12.404-63.909 0 0 1.8876-3.7752 7.0111-2.6966 0 0 8.0898-24.269 21.573-30.472 0 0 7.0111-21.033 23.73-35.056 0 0 25.615-9.7337 27.639 6.8633"/>
  <g id="g327">
   <path id="path3704" d="m208.19 464.09-9.1684-6.2022s-9.7953 10.105-17.032 14.221c0 0-3.7314 8.9699-11.282 14.902 0 0-7.5505 5.1235-11.326 23.46 0 0-26.966-22.651-3.5056-52.853 0 0 23.191-14.831 56.628-16.18 0 0 4.5842 9.9774 15.101 8.6291 0 0-4.5842 7.2808-14.562 9.9774 0 0 4.3146 3.7752 7.8201 4.5842"/>
   <path id="path3714" d="m199.03 457.89s7.5505-13.213 13.483-16.449"/>
  </g>
  <g id="g333">
   <path id="path3690" d="m275.07 482.97s28.314-4.0449 26.966-8.0898c0 0 38.022 12.944 45.303 34.786 0 0 15.371 4.8539 14.022-1.618 0 0-0.53932-31.55-70.651-47.46 0 0-4.0449 1.8876 2.9663 9.7077 0 0-2.4269 6.7415-21.573 9.9774"/>
   <path id="path3716" d="m302.04 474.88s2.1573-7.0112-7.0112-12.944"/>
  </g>
 </g>
 <path id="path3761" d="m433.73 466.77s78.521 17.542 95.682 57.203c0 0 1.1441 4.5763-7.2458 1.1441 0 0-0.38136 6.1017-8.0085 1.1441 0 0 2.6695-20.212-31.653-33.178 0 0-3.4322 2.6695-5.339-2.2881 0 0-49.781-15.774-47.111-2.0456" fill="#ffffff" stroke="#000000" stroke-width="1px"/>
 <g id="g343" fill="#ffffff" stroke="#000000" stroke-width="1px">
  <path id="path3775" d="m482.5 493.09s-3.8394 13.883-0.33382 30.602c0 0-5.9325 9.7077-8.0898 0.80898 0 0-1.6509-19.128 3.0846-33.699"/>
  <g id="g349">
   <path id="path3777" d="m464.1 524.23s4.8539-1.618 3.5056-42.067c0 0 7.459 17.981 8.2217 28.087 0 0-0.19068 9.9152 3.8136 14.301 0 0-7.6283 8.3198-15.541-0.32101z"/>
   <path id="path3781" d="m450.28 534.08s-34.131 9.1526-40.042-13.347c0 0 0.95339 18.305 31.653 23.835"/>
  </g>
 </g>
 <g id="M82-MatureFruit" fill="#ff0000" stroke="#000000" stroke-width="1px">
  <path id="path3839" d="m491.61 524.23h-27.505s-24 5.1235-30.472 37.483c0 0-8.0898 38.292 22.112 52.314 0 0 37.213 21.033 52.314-1.8876 0 0 19.955-20.494 12.674-45.033 0 0 1.8876-20.764-12.944-33.438 0 0-6.7415-8.8988-16.18-9.4381z"/>
  <path id="path3841" d="m565.76 541.21s45.033-4.0449 60.943 32.629c0 0 9.7077 25.618-15.371 41.797 0 0-38.292 10.517-51.235-9.7077 0 0-15.91-15.371-12.674-32.629 0 0 13.213-29.123 18.337-32.089z"/>
  <path id="path3843" d="m523.43 609.71s-7.0111 7.2808-2.1573 22.921c0 0 3.7752 39.37 24.539 45.033 0 0 47.46 27.236 64.179-7.8201 0 0 24.809-17.258 1.3483-54.202 0 0-15.003-30.371-55.231-32.174 0 0-22.431 10.871-32.678 26.242z"/>
 </g>
 <g id="g371" fill="#ffffff" stroke="#000000" stroke-width="1px">
  <g id="g377">
   <path id="path3767" d="m529.41 523.98s9.1525 22.5 18.686 27.839c0 0 11.441 5.339 3.8136 11.822-11.059-1.9068-23.644-22.881-23.644-22.881 0.38136-8.0085-6.1017-15.636-6.1017-15.636"/>
   <path id="path3769" d="m548.1 551.81c1.5254-8.7712-17.542-36.229-17.542-36.229 12.203 13.729 25.932 31.271 25.932 31.271l3.8136-3.8136c2.2881-17.924-6.483-36.61-6.483-36.61l12.203 23.263-1.1441 19.449-6.1017 5.339s2.2881 9.9152-1.9068 13.347l-12.203 5.7203-27.458-18.305s25.932 10.678 34.703 8.3898"/>
  </g>
  <g id="g383">
   <path id="path3771" d="m514.15 526.26s2.6695 44.619 17.924 66.737l3.4322 4.9576 10.678-7.2458-9.5339-13.347s-12.203-4.5763-14.492-52.246"/>
   <path id="path3773" d="m539.71 600.25s17.924 7.2458 16.398-16.78c0 0 14.11-11.441 9.1525-25.932 0 0 1.9068 15.254-10.678 23.263 0 0-6.8644 4.1949-12.585-4.1949l-10.297-20.975 4.9576 21.737s3.7601 13.197 3.2207 16.164c0 0-3.5056 2.6966-7.0111 0l-9.9774 9.1684s-0.80898 3.2359-25.887-5.1235c0 0 10.517 9.7077 26.427 12.135 0 0 11.525-4.6318 16.279-9.4618z"/>
  </g>
 </g>
 <g id="g415" fill="#ffffff" stroke="#000000" stroke-width="1px">
  <g id="g421">
   <path id="path2455" d="m473.35 371.43s-15.064-17.733-28.602-0.38136c0 0-7.6271 12.394-8.1992 21.356 0 0-20.212-13.157 11.25-33.178l16.398-0.38136s5.911 0.38136 8.0085-2.6695c0 0-3.4322 3.2415-3.2415 5.911 0 0 0.57204 4.3856 4.1949 3.4322 0 0 0.95339-9.9152 11.822 1.5254 0 0 4.3856 3.8136-11.631 4.3856z"/>
   <path id="path2457" d="m478.88 370.67s-5.7203-1.3348-5.7203-5.1483c0 0 4.5763 2.6695 11.822 1.5254"/>
  </g>
  <path id="path2417" d="m431.74 401.26s48.539-23.191 61.752-22.651c0 0 8.3594-2.9662-0.26966-5.1235 0 0-50.157 13.213-62.831 20.494"/>
  <g id="g439">
   <path id="path2419" d="m506.64 372.14s-4.7884-15.101-13.418 1.3483c0 0 3.5056 1.3483 0.26966 5.1235 0 0 4.5842 4.8539 1.8876 8.6291 0 0-16.449 8.8988 0 30.741 0 0 5.1235-8.6291 9.7077-10.517 0 0 12.674 29.932 21.303 36.404 0 0 25.618-18.067 14.022-47.999l1.618-1.0786-5.6628-10.247s0.53932-1.8876 0.53932-4.0449l9.4381 3.5056s5.1235 20.764 5.1235 22.651c0 1.8876 5.1235 0.53932 5.1235 0.53932l-1.0786 5.3932 9.1684 7.0112s11.595 3.7752 12.674 11.056c0 0 15.64 17.528 28.045 21.303l-2.6966-6.7415s2.1573-7.2808-1.3483-13.753l3.7752-1.0786s-1.0786-7.2808-5.9325-10.786l4.0008-1.2588s-3.2415-4.9576-8.1992-4.0042c0 0-4.3856-10.487-8.3898-10.487 0 0-5.7203-23.263-36.801-26.314l-4.767 0.19068-3.8136-1.7161s-0.38135-8.1992-7.8178-8.1992c0 0-2.6695 1.5254-1.9068 7.6271 0 0-5.5297-4.5763-10.297-6.6737 0 0 1.5254-0.95339 7.0551-1.1441s3.8136-3.8136 3.8136-3.8136h-21.547s-3.3942 1.7924-3.8899 8.3326z"/>
   <g id="g453">
    <path id="path2423" d="m495.38 387.24 0.46798 7.0749 7.0551-1.3347s-0.19068 4.5763-3.2415 6.1017l5.4262 8.3826"/>
    <path id="path2425" d="m586.61 403.85s4.3856 9.5339-1.3348 13.538l-0.76271 5.911s1.1441-2.2881-6.6737-4.7669c-7.8178-2.4788-10.106-7.8178-10.106-7.8178l-19.258-28.411s-5.6565-2.9478-11.568-1.8037c0 0-1.7799-4.298-5.4028-5.0607"/>
    <path id="path2427" d="m545.04 377.73s-6.2924-0.57203-8.9619 0.95339"/>
    <path id="path2429" d="m506.64 372.14 7.1314 1.0106s4.9576-4.5763 7.4364-4.3856"/>
    <path id="path2431" d="m509.01 372.01s2.8602-5.1483 10.487-8.0085"/>
    <path id="path2433" d="m513.96 367.05s2.4788 2.2881 2.4788 3.4322"/>
   </g>
  </g>
  <path id="path2453" d="m477.54 388.78 8.1992-18.114s-8.5805 0.38135-14.301 1.5254c0 0-10.678-3.4322-17.542-2.6695 0 0-2.2881 2.2881 2.4788 5.1483l6.8644 0.76271z"/>
  <path id="path2459" d="m453.14 384.59-7.6271-6.2924s13.347-7.8178-15.636-7.4364c0 0-12.585 4.5763 0.95339 6.8644 0 0 8.5805-0.38136 11.25 1.5254 0 0 6.483 3.8136 7.0551 6.6737"/>
 </g>
 <g id="M82-Stem">
  <path id="path3674" d="m410.04 470.59s5.339-64.831-2.2881-117.46c0 0 8.3898-22.119 18.305-0.76271 0 0 9.9153 19.068 3.0508 101.44l8.3898 12.966" fill="#008080" stroke="#000000" stroke-width="1px"/>
 </g>
 <g id="g461">
  <path id="path3676" d="m407.76 353.13c-11.783-0.36506-8.9909-10.447-8.3898-19.068 0 0 9.9152-35.847-0.76272-75.508 0 0 5.339-19.831 11.441 1.5254 0 0 15.254 67.119 16.78 92.288" fill="#ffffff" stroke="#000000" stroke-width="1px"/>
 </g>
 <g id="g465">
  <path id="path2482" d="m399.37 334.06s-1.0623 5.4496-21.017 4.9103c0 0-39.91 1.618-70.92 11.595 0 0-12.944-1.3483-24 3.5056-11.056 4.8539-18.606 7.0111-18.606 7.0111s3.7752 1.8876 5.9325 8.3594c0 0 3.7752-11.056 19.415-10.786l4.7286 12.614s8.635 1.0919 8.3654-4.0316l-3.6559-6.6949 9.4381-5.1235 4.8539 9.4381s8.8988 5.6628 11.865 1.618l-5.9325-9.9774s16.449-8.6291 28.584 5.9325c0 0 8.6291 3.2359 10.247-2.4269l-6.7415-8.0898s12.404-2.9663 29.932 0.26965c17.528 3.2359 25.901 0.9442 25.901 0.9442" fill="#ffffff" stroke="#000000" stroke-width="1px"/>
 </g>
 <g id="M82-DevelopingFruit" fill="#7fff2a" stroke="#000000" stroke-width="1px">
  <path id="path2484" d="m264.82 361.08s-30.472-16.18-43.954 17.528c0 0 4.3146 21.033 24 18.876 0 0 33.977-4.0449 25.887-28.045"/>
  <path id="path2488" d="m292.01 370.29s-45.529-10.285-47.147 30.433c0 0 6.2022 44.494 52.314 23.73 0 0 34.16-29.317-5.1671-54.164z"/>
  <path id="path2492" d="m313.9 364.86s-49.534 3.1431-23.793 52.529c0 0 20.975 30.508 55.869 2.0975 0 0 23.453-29.746-8.1992-48.623 0 0-10.38-5.3328-23.877-6.0033z"/>
  <path id="path2498" d="m356.27 359.61s-53.199 17.733-7.4364 62.352c0 0 37.182 24.597 55.487-1.3348 0 0 28.03-27.267-10.106-53.581 0 0-11.631-12.013-37.945-7.4364z"/>
 </g>
 <g id="g489" fill="#ffffff" stroke="#000000" stroke-width="1px">
  <path id="path2500" d="m339.11 369.14s4.9576 23.263 19.258 31.462c0 0-13.805-22.962-9.9535-38.176z"/>
  <path id="path2502" d="m356.27 359.61s26.886 11.441 36.801 29.555c0 0 6.1017-15.636-21.356-31.081l-15.445 1.5254z"/>
  <path id="path2486" d="m257.27 358.12s-15.91 5.6628-19.955 20.764c0 0 12.944-8.8988 33.438-9.4381-2.573-9.4275-13.483-11.326-13.483-11.326z"/>
  <path id="path2490" d="m285.34 369.34s-30.127 4.9576-25.932 27.458c0 0 4.767 1.3347 8.0085-6.483 3.2415-7.8178 11.822-11.822 11.822-11.822l9.1525-2.4788c0.38135-1.5254 6.5075-4.7396 6.5075-4.7396-6.1622-2.5048-7.1978-1.8054-9.5584-1.9342z"/>
  <path id="path2494" d="m303.26 367.24s-6.1017 14.11-1.9068 34.703c0 0-12.394-1.5254-12.966-25.932 0 0 8.7712-7.6271 14.873-8.7712z"/>
  <path id="path2496" d="m305.36 366.86s18.305 20.975 18.877 28.602c0 0 4.8737-12.96-10.339-30.601-4.9996-0.28292-8.5386 1.999-8.5386 1.999z"/>
 </g>
 <g id="g507" fill="#ffffff" stroke="#000000" stroke-width="1px">
  <g id="g521">
   <path id="path3194" d="m398.6 258.55s-1.9068-10.678-6.483-30.508c0 0 3.0508-17.161-38.136-30.89 0 0-14.492-4.1949-34.703 7.2458 0 0 0.76271 12.203-2.2881 17.924-3.0508 5.7203 1.5254 8.7712 1.5254 8.7712s8.3898 10.678-5.339 26.695c0 0 1.1441 17.542-3.0508 20.593 0 0-7.6271 6.483-8.7712-13.347l-8.7712-35.466s2.4788-22.5 23.644-25.169l1.3348-2.8602-3.0508-2.8602s2.4788-2.2881 2.4788-8.1992c0 0-1.9068-6.1017 0.57204-10.106 2.4788-4.0042 4.767-2.6695 4.767-2.6695s-1.9068 8.0085 1.1441 20.212l9.5339-3.2415s-2.4788-12.585-10.869-20.784c0 0-2.4788-8.5805 3.8136-20.593 0 0 3.0508 10.487 8.7712 19.258 0 0 1.3348 3.2415-2.0974 7.0551 0 0 8.1992 14.682 16.97 13.347 0 0 8.7712 0.76271 0.38135-5.7203 0 0-4.3856-2.2881-1.5254-5.5297 0 0 2.2881-2.0975 0-8.1992l5.1483-2.8602s-1.5254 20.975 7.4364 25.169c0 0 16.398 0.57203 18.496 4.767 0 0 3.8136-12.013 8.7712-14.492 0 0 4.3856-0.19068 3.4322 5.339l1.7161-0.76272s-0.57203-7.4364 3.0508-8.5805c0 0-18.114-2.0975-19.64-7.6271l6.2924-2.8602 1.1441-14.492 7.0551-6.6737s2.6695 9.5339 2.6695 18.877c0 0 5.7203 0.76271 6.6737 7.4364 0 0 7.2458 4.0042 9.9153 10.678 0 0 4.3856-13.729 10.297-20.021l5.1483 5.5297s-11.059 22.5-16.208 22.881l-9.3432 10.297s-2.2881 30.699 5.1483 44.619"/>
   <g id="g531">
    <path id="path3200" d="m379.54 200.59s7.4364 1.9068 16.017 17.733"/>
    <path id="path3202" d="m397.08 215.27s-0.19068-17.352-3.6229-24.597c0 0-5.5297 6.8644-6.1017 7.4364 0 0-0.76271 3.4322 8.5805 5.7203"/>
    <path id="path3204" d="m396.51 182.09s7.0551 2.2881 8.3898 4.7669"/>
    <path id="path3206" d="m383.16 171.6s6.2924-4.0042 10.869-2.2881"/>
   </g>
  </g>
  <path id="path3222" d="m405.66 250.73s12.013-31.271 19.258-38.326c0 0 20.403-28.602 25.36-27.648 0 0 3.0508 5.339 1.3348 7.8178 0 0-9.5339 4.0042-12.203 11.822-2.6695 7.8178-11.822 17.352-11.822 17.352s-20.212 25.742-15.445 49.767"/>
 </g>
 <g id="M82-Flower" fill="#c87137" stroke="#000000" stroke-width="1px">
  <path id="path3234" d="m450.28 184.76s18.686-29.364 32.987-15.254c0 0 11.631-3.2415 32.034 32.797 0 0-4.3856 2.6695-4.767 4.9576l2.0975 2.4788s-39.28-20.021-31.081-34.703c0 0-4.3856-18.496-27.839 10.487l0.76271 2.8602 33.559 14.682s4.3856 1.5254 13.538 15.445c0 0 20.593 11.25 30.508 30.127 0 0-13.919-17.352-20.593-22.119 0 0 12.775 17.542 15.064 28.03l-4.5763 3.6229s-3.8136-7.8178-11.631-8.5805c0 0 2.4788 6.2924 10.487 10.678 0 0-23.072-8.1992-24.025-41.186l-9.7246-11.441s-9.9152-6.6737-21.165-10.106c0 0-2.2881 10.297 9.1525 40.233 0 0 6.2924 2.4788 12.203 18.305 0 0 5.1483 15.826 12.585 19.449 0 0 6.6737 8.3898-1.5254 5.5297l-4.1949-1.3348s-2.4788-2.4788-2.4788 0.19068c0 0-5.339-0.76271-2.8602 1.9068 0 0 3.2415 1.1441 2.2881 4.3856l-9.5339-4.767s-1.7161 1.5254-1.1441 4.9576c0 0-20.212-23.644-14.682-45.191l-2.6695-22.5s-12.203 8.1992-13.347 14.301l-0.38136 5.339s9.3432 4.9576-2.8602 25.36c0 0-8.1992-26.123-0.19067-29.364 0 0 6.1017-10.487 8.5805-12.394 0 0-2.2881-2.6695-4.7669-0.19068 0 0-0.19068 5.7203-13.157 2.4788 0 0-1.3348-5.5297 4.5763-5.911 0 0 5.1483-1.7161 7.4364 0.57203l5.1483 0.57204-1.9068-6.483 4.1949 4.5763s6.1017 0.38135 5.7203-11.25c0 0 1.3347-10.487-10.487-13.729"/>
  <g id="g565">
   <g id="g571">
    <path id="path3236" d="m500.62 237.77s2.2881-5.911 5.911-1.1441c0 0 13.347 13.538 18.305 19.831"/>
    <path id="path3238" d="m503.48 239.48s3.0508 6.1017 6.8644 10.106"/>
   </g>
   <path id="path3248" d="m510.53 207.26s-26.695-16.017-25.742-28.602c0 0 14.873 9.3432 30.508 23.644"/>
  </g>
 </g>
 <g id="M82-VegetativeMeristem" fill="#d35f8d" stroke="#000000">
  <path id="path4070" d="m804.06 240.8-5.161-5.0285-0.43224 3.8886c-0.49394 4.4436 1.3929 6.1184 6.9266 6.1479l3.8276 0.0204-5.161-5.0285zm-2.5273 39.631c-1.0818-2.0921-1.967-5.6336-1.967-7.87 0-3.2979 0.55307-4.0662 2.927-4.0662 1.6099 0 4.6036 1.6062 6.6528 3.5695 4.4339 4.2479 5.6376 3.5952 4.1262-2.2375-0.92224-3.559-2.2472-4.726-7.7427-6.8191-7.5434-2.8731-10.592-2.3934-9.572 1.5065 0.40381 1.5442-0.11574 3.1067-1.2427 3.7374-2.4039 1.3453-0.47169 7.4502 2.7492 8.6862 1.2676 0.48641 2.1021 2.3947 2.1021 4.8067 0 2.978 0.5026 3.8071 1.967 3.2452 1.7338-0.66532 1.7338-1.2058 0-4.5586zm-34.51 38.969c-2.5694-4.9687-2.8302-20.273-0.53986-31.677 0.87118-4.3379 5.0623-14.743 9.3183-23.134 6.9373-13.677 7.5302-15.476 5.75-17.443-4.0456-4.4704-1.8318-9.3167 4.2558-9.3167 1.1125 0 3.746-1.8448 5.8522-4.0996l3.8296-4.0996-3.5553-3.2949c-1.9554-1.8122-5.388-4.1692-7.628-5.2377-2.24-1.0685-5.855-3.37-8.0334-5.1145-3.3596-2.6904-3.6987-3.4876-2.234-5.2524 0.94971-1.1443 3.5955-2.2653 5.8796-2.491l4.1528-0.4104-7.5472-8.1369c-5.5068-5.9371-7.5577-9.1812-7.586-12-0.0214-2.1247-0.54134-11.363-1.1555-20.53l-1.1166-16.667-8.3166-17.769c-9.7867-20.911-10.76-24.982-7.0643-29.547 2.2512-2.7802 3.0977-3.0439 5.8072-1.8094 3.2718 1.4907 4.0265 2.695 9.4788 15.126 1.7691 4.0333 5.7075 10.209 8.752 13.724 4.526 5.2249 6.4108 9.237 10.335 22 5.4148 17.61 26.56 63.717 46.293 100.94 4.5942 8.6667 7.8637 16.963 9.3416 23.705 3.3428 15.248 3.0711 18.042-2.2266 22.895-3.8432 3.5203-4.639 5.3178-5.4509 12.313-0.80003 6.893-1.4074 8.2988-3.8331 8.8715-1.5853 0.37431-15.877 1.1035-31.759 1.6204l-28.877 0.9398z" stroke-width="1.3333"/>
  <g id="g599" stroke-width="1px">
   <path id="path7307" d="m798.9 235.77s-0.4676-5.1921-3.4108-6.1422c0 0-2.1342 7.679-2.1342 10.915"/>
   <path id="path7309" d="m798.75 244.86s-10.247-5.9325-10.786-7.2808"/>
   <path id="path7311" d="m802.79 283.69s17.528 4.3146 4.3146 24.809c0 0-12.404-17.258-7.8201-24.269"/>
   <path id="path7313" d="m796.32 275.87s-11.865-1.3483-14.292 29.932c0 0-4.0449 3.2359-4.8539-6.7415 0 0-3.2359-11.865-5.3932-2.1573 0 0-2.1573-4.8539 5.3932-7.0111 0 0 3.5056-4.0449 3.2359-7.0111 0 0-0.80898-4.3146-3.2359-4.5842 0 0 11.595-6.7415 12.135-9.7077 0 0-0.80898-10.247 2.9662-12.944"/>
   <path id="path7315" d="m800.37 261.58s-10.247-7.2808-18.337-13.213"/>
  </g>
 </g>
 <path id="path3678" d="m454.28 1350s0.76271-38.136-19.068-69.407c-0.54828-4.6832-2.7357-8.8747 3.5392-15.605 0 0 24.681-43.887 14.766-129.31-3.3978-2.6255-3.9828-5.8136-3.8136-9.1525 0 0 3.0508-16.017 13.729 0 0 0 4.5763 19.068 6.1017 45 2.9901 4.9497 1.1713 7.8386-0.76271 10.678 0 0 2.2881 43.474-8.3898 73.22-12.966 20.593 0.76271 49.576 0.76271 49.576s9.1525 42.712 8.3898 54.915" fill="#ffffff" stroke="#000000" stroke-width="1px"/>
 <g id="S_pennellii-Stem">
  <path id="path3682" d="m449.71 1126.5-12.203-78.559s9.9152-23.644 13.729 0l12.203 78.559" fill="#008080" stroke="#000000" stroke-width="1px"/>
 </g>
 <g id="g607">
  <path id="path6491" d="m438.75 1265s-11.595 7.2808-24-4.3145l-21.842-6.2022s-6.4718-9.9774-11.326-5.1235c0 0-50.696-16.989-59.325-24.539 0 0-2.9662-8.3595-8.0898-3.2359 0 0-42.337-7.5505-60.673 9.438l-7.0111 8.8988s-6.2022 5.6628-1.8876 5.9325c0 0 2.4269 5.1235 5.3932-0.2697l2.1573-2.6966s16.18-27.236 62.022-13.483l4.8539 1.3483 62.022 28.584 54.168 21.268" fill="#ffffff" stroke="#000000" stroke-width="1px"/>
 </g>
 <g id="g619" fill="#ffffff" stroke="#000000" stroke-width="1px">
  <path id="path6493" d="m392.91 1254.5s-5.9325-7.8201-1.618-12.135c4.3146-4.3145 3.5056-10.247 3.5056-10.247s-4.0449-1.618-3.2359-8.0898c0 0 0-2.6966-4.0449-1.618 0 0 1.618-3.2359-1.8876-5.3932 0 0 0.26966-2.1572 3.7752-3.7752 0 0 10.247-1.0786-1.0786-7.8201 0 0-26.427-0.2697-35.056 15.371 0 0-7.8201 14.831 2.1573 26.427 0 0 7.8201 11.865 20.494 4.8539 0 0 5.6628-6.2021 5.6628-2.6966"/>
  <path id="path6495" d="m322.26 1224.8s-7.0111-11.326 5.1235-13.213c0 0 17.798-6.4719 1.618-16.449 0 0-10.247-14.022-29.932 4.8539 0 0-12.944 11.326 2.1573 19.685 0 0 4.8539 4.0449 8.6291 1.3483 0 0 3.6404-3.7751 4.3146 0.5394"/>
  <g id="g625">
   <path id="path6497" d="m290.68 1226.4s4.5763 0.7628 1.1441-9.5339c0 0 3.8136-3.4322 3.0508-9.5339 0 0 6.483-2.6694 3.0508-16.017 0 0 0.60442-10.097-9.5078-3.0857 0 0-22.651-4.719-32.089 19.55 0 0-9.0336 20.629 27.236 18.067 0 0 5.3331 1.1058 7.1159 0.5529z"/>
   <path id="path6499" d="m283.56 1225.9s-12.135-9.7077-8.3594-10.382c0 0 1.8876-2.4269-0.67415-5.9325 0 0 1.618-2.4269 5.1235-1.4831 0 0-5.1235-11.056 3.6404-10.247 0 0-1.0786-5.528 5.9325-5.2583l-0.80898-4.3146"/>
  </g>
 </g>
 <g id="g637" fill="#ffffff" stroke="#000000" stroke-width="1px">
  <path id="path6505" d="m314.51 1229.3-7.2458 25.36-2.4788 4.3856s5.1483 1.5254 5.5297-2.2882l8.7045-26.017"/>
  <g id="g645">
   <path id="path6507" d="m317.95 1243.8c-7.2458 3.6229-7.2458 11.631-7.2458 11.631s8.7712 0 13.729 1.3347c0 0 0.76271-5.7203-1.9068-9.5339l-2.0975 0.9534s-0.38137-3.2416-2.4788-4.3856z"/>
   <path id="path6509" d="m317.95 1243.8s1.2394 8.9619-1.2394 11.441"/>
   <path id="path6511" d="m320.43 1248.2s1.0487 4.9577-0.0953 7.2458"/>
  </g>
 </g>
 <g id="g653" fill="#ffffff" stroke="#000000" stroke-width="1px">
  <path id="path6529" d="m249.99 1245.6s9.9894 9.8509 9.608 15.571c0 0 5.1483 1.7161 7.0551-2.2881 0 0-3.6229-7.6271-6.483-8.5805l-8.0228-7.3992"/>
  <path id="path6536" d="m268.94 1260 18.686-1.5255s1.3347 6.1017-10.869 6.4831"/>
  <path id="path6538" d="m257.88 1264.4s-8.9619-2.2882-12.585-0.7628c0 0 2.0975 7.2458 10.869 6.1017"/>
 </g>
 <g id="S_pennellii-MatureFruit" fill="#ff0000" stroke="#000000" stroke-width="1px">
  <path id="path6548" d="m335.68 1271.8s-3.4322 16.017-20.212 16.97c0 0-20.021 1.3348-24.979-13.347 0 0 0.66738-13.157 16.78-20.784 0 0 30.127-1.1441 28.411 17.161z"/>
  <path id="path6550" d="m266.65 1258.8s21.737 4.3856 6.483 20.021c0 0-16.208 5.1483-18.305-3.8136 0 0-3.0508-9.7246 4.767-13.92"/>
  <path id="path6552" d="m254.64 1271.6s33.369 2.6695 14.682 28.983c0 0-26.695 19.449-43.475-8.3899 0 0-2.4788-23.263 28.792-20.593z"/>
  <path id="path6554" d="m209.64 1255.8s32.415-2.2882 27.839 24.597c0 0-39.661 37.373-63.686-2.8602 0 0-7.4364-20.784 35.847-21.737z"/>
 </g>
 <g id="g667">
  <path id="path6518" d="m309.37 1246.8s-5.339-3.0509-6.1017 9.1525c0 0-13.347 3.8136-12.203-5.7203 0 0-9.7246 6.8644 4.5763 9.1525 0 0 5.8157 1.3348 7.7225-0.1906 0 0 5.2436-4.3856 6.0064-12.394z" fill="#ffffff" stroke="#000000" stroke-width="1px"/>
 </g>
 <g id="g673" fill="#ffffff" stroke="#000000" stroke-width="1px">
  <path id="path6540" d="m249.99 1245.6s-5.8369 17.097-3.7395 27.393c0 0 4.9576-0.1907 6.8644-11.822 0 0 9.7246 4.9577 1.5254 10.487 0 0-0.38136 4.767-8.5805 4.767 0 0-5.339 16.97-14.301 10.678 0 0 7.6271-3.2415 11.25-9.9152 0 0-2.1634-12.489 1.5878-31.318"/>
  <path id="path6542" d="m244.6 1245.8s-7.1175 4.4329-15.698 4.2422c0 0-5.339 3.0509-9.3432 5.7204 0 0-10.297 5.5296-17.542 0.9533 0 0 8.5805-29.364 16.017-4.3856l7.0551-4.3855-2.2881-3.6229s4.0042-0.3814 6.2924 2.6695c0 0 8.2856 0.2438 17.395-7.1239"/>
 </g>
 <g id="g677">
  <path id="path2534" d="m404.78 1120.7s4.1797-7.955 0.40449-15.506l-11.73 12.944s-0.67415-14.562-14.562-14.292l-2.1573 2.8315s5.3932 8.0897 6.2022 18.741c0 0-16.449 0.9438-24.269-1.0786 0 0-2.9662 10.517 19.685 8.8987l3.6404 3.3708-3.5056 7.8201s6.0673-0.1349 9.4381-5.1236" fill="#ffffff" stroke="#000000" stroke-width="1px"/>
 </g>
 <g id="g681">
  <path id="path2538" d="m389.41 1141.7-9.7077 14.966s2.1573 4.1797 5.2584 0.6741l8.2246-15.505s-0.94381-3.5055-3.7752-0.1348z" fill="#ffffff" stroke="#000000" stroke-width="1px"/>
 </g>
 <path id="path2528" d="m449.71 1126.5s-20.021-4.3856-26.695-9.5339c-10.106-6.2924-16.398-2.0975-16.398-2.0975s-7.0551 3.2416-0.19068 4.3856c0 0 9.1525-2.2881 22.309 5.911 0 0 15.826 7.4364 24.788 10.487" fill="#ffffff" stroke="#000000" stroke-width="1px"/>
 <g id="S_pennellii-DevelopingFruit" fill="#7fff2a" stroke="#000000" stroke-width="1px">
  <path id="path2532" d="m422.82 1129.6s2.4788 4.195-1.9068 6.8644c0 0-11.059 1.5255-9.5339-5.3389 0 0 4.767-7.2459 11.441-1.5255z"/>
  <path id="path2550" d="m366.35 1162.1s-7.146 6.6066 0.53932 15.101c0 0 6.6066 12.944 25.213 2.9662 0 0 11.595-8.4942 4.0449-16.988 0 0-13.887-9.0335-29.797-1.0786z"/>
  <path id="path2554" d="m351.65 1145.5s1.2135 9.3032 14.831 7.8201c0 0 9.7077-0.6741 9.9774-6.8763 0 0 4.3146-13.618-11.191-11.865 0 0-10.382 1.4831-13.618 10.921z"/>
  <path id="path2556" d="m406.42 1119.3s-21.735-11.638-29.825 11.823c0 0-1.0786 8.8988 12.809 10.652l3.7752 0.1348s14.966-1.6179 16.989-7.2808c0 0 7.8753-7.0616-3.7476-15.328z"/>
 </g>
 <g id="g695">
  <path id="path2536" d="m365.27 1134.6s-1.7528 4.0449-8.4943 6.0673c0 0 2.5618 3.7753-9.7077 6.2022 0 0-1.8876-0.809 0-3.3707 0 0-3.6404-0.809-5.1235 3.1011 0 0-5.9325-2.2922 10.112-7.4157 0 0 0.40449-7.8201 6.8763-5.1235l2.9663-2.8314c1.3483-3.3707 3.3707 3.3707 3.3707 3.3707z" fill="#ffffff" stroke="#000000" stroke-width="1px"/>
 </g>
 <g id="g701" fill="#ffffff" stroke="#000000" stroke-width="1px">
  <path id="path2540" d="m396.82 1164.5c1.2135-1.8876 5.7977-3.6404 5.7977-3.6404-1.8876-1.7528-3.6404-1.7528-3.6404-1.7528l5.3932-3.3707 0.40449-2.0225c-9.0336-1.4831-23.056 4.0449-23.056 4.0449-5.3932-4.1797-15.371-6.8763-15.371-6.8763l0.13483 2.4269 5.2584 4.9887-19.146-1.0786 13.753 4.8539s21.977-1.4832 27.64 0.2696c0 0-0.53931 3.1011 2.8314 2.1573z"/>
  <path id="path2542" d="m398.98 1159.1s-3.1011 0.1348-4.9887 3.2359"/>
 </g>
 <path id="path2530" d="m418.24 1119.8v6.1017s3.4322 0.7627 4.5763 3.6228l-5.5297 0.5721v2.8601l-2.4788-4.5762-3.4322 2.6695s1.1441-3.2416 3.8136-4.3856l-0.19068-7.2458" fill="#ffffff" stroke="#000000" stroke-width="1px"/>
 <path id="path6596" d="m468.77 1182.2s4.9576-4.195 8.0085-4.195c0 0 2.3786-5.6221-2.4336-6.0526l-4.8122-0.4304" fill="#ffffff" stroke="#000000" stroke-width="1px"/>
 <g id="S_pennellii-Leaves" fill="#008000" stroke="#000000" stroke-width="1px">
  <path id="path6600" d="m574.66 1124.8s0.80898-4.3145 3.2359-4.8538l6.2022 3.5055s-0.53932 2.4269-9.4381 1.3483zm-97.88 53.243s5.1169 3.3855 8.8921 2.0372l5.3932 2.4269s3.7752 11.056 7.5505 13.483l20.764 6.2022 25.078-8.3595 5.3932-8.0897 7.5505 5.9325h10.517s12.135 4.5842 20.224-0.809c0 0 1.0786-2.9663 6.7415 0 5.6628 2.9662 8.6291-2.9663 8.6291-2.9663l15.371-2.6966 14.022-15.64s-0.53932-3.7752 2.4269-5.1235c0 0 17.798 1.8876 24.269 7.2808 0 0 8.6291 1.0786 9.7077-4.8539 0 0 12.674 1.8876 16.719-0.5393 0 0 1.618-3.5056 0.53932-6.7415 0 0 11.326-5.1235 2.9662-21.303 0 0 6.7415-5.3932-7.0111-11.865 0 0 0.26966-10.247-8.8988-9.4381 0 0 1.3483-8.8987-11.865-9.7077 0 0-0.26965-6.4718-15.64-5.6629 0 0 3.7752-5.3931-12.135-6.2021 0 0-21.842-1.3483-32.089-8.0898 0 0-10.786 1.0786-15.91-2.9663 0 0-8.6291-4.5842-11.865 1.3483 0 0-30.472 1.0787-32.359 19.146 0 0-2.9663 6.7414 13.213 10.517 0 0 22.382 9.7077 1.0786 14.562l-22.921 12.404s-6.7415-1.618-9.9774-0.5393c0 0-8.3594-2.6966 13.213-6.4718 0 0 18.876-2.1573 9.7077-6.4719 0 0-12.944-9.1684-20.494-9.1684 0 0-14.022-16.18-28.314-4.5842 0 0-18.606 20.764 10.786 25.348 0 0 7.5505 0.5393 10.517 2.9662 0 0-2.1573 0.5394-1.618 3.236 0.53932 2.6965-2.6966 5.6628-2.6966 5.6628s-4.3146 2.1573-8.0898-2.1573c0 0-11.865-1.3483-21.842 11.595 0 0-11.056 2.6966-10.786 10.517-1.618 2.4269 3.2426 5.7829 3.2426 5.7829z"/>
  <g id="g725">
   <path id="path6603" d="m576.01 1129.6s5.9325-0.2697 8.0898-6.2022c0 0 7.2808-7.8201 38.292 0.2697 0 0 8.8988 3.5056 8.8988 7.0111 0 0 2.9662 1.8877 4.8539 1.8877 0 0 5.3932 5.3932 0.53931 13.213 0.26966 1.0786 4.0449 16.449-1.3483 18.606"/>
   <path id="path6605" d="m622.39 1123.7 13.753-7.2808s3.5056-1.8876 2.1573-4.0449 0.80898-5.6628 0.80898-5.6628l7.0111-5.1236"/>
   <path id="path6607" d="m565.22 1130.2s0.80898 2.6966-7.5505 3.5056-17.798 7.5505-17.798 7.5505-19.685 16.988-12.135 22.112c0 0 2.1573 2.427 0 4.3146 0 0-2.1573 1.6179 1.8876 3.2359 4.0449 1.618 4.0449 5.1235 4.0449 5.1235s1.3483 3.5056 5.6628 3.7753"/>
   <path id="path6609" d="m544.73 1181.9s5.6628-1.8875 5.1235 3.7753"/>
  </g>
 </g>
 <path id="path3326" d="m433.12 902.09 2.4788 2.2881s-2.6695-0.19067-4.1949 2.0975" fill="#ffffff" stroke="#000000" stroke-width="1px"/>
 <g id="g765" fill="#ffffff" stroke="#000000" stroke-width="1px">
  <path id="path3684" d="m437.5 1048-0.76271-54.915s7.6271-19.068 12.966 3.0508c0 0 0 18.305 0.76271 50.339"/>
  <g id="g799">
   <path id="path3318" d="m436.74 993.04 0.38135-24.597-15.826-16.97s-5.911 16.208-10.106-9.3432l-5.5297-4.0042s-4.5763 6.8644-8.9619 7.8178c0 0-6.1017-8.3898-3.2415-14.873 0 0-4.5763-3.6229-8.5805-1.9068-8.1992 3.0508-13.729-1.9068-13.729-1.9068s-4.9576-7.2458 0-13.729l14.301-0.95339 3.4322 2.0975 5.911-3.6229s10.487 5.911 9.3432 9.9152c0 0 4.9576 2.6695 5.339 6.1017 0 0 4.5763-1.5254 4.5763-4.1949 0 0 9.5339 0.57203 8.0085 9.1525 0 0 0.76272 3.8136-7.4364 3.8136 0 0-3.4322 1.7161 1.3348 5.5297 0 0 3.2415-7.4364 10.106-8.9619 0 0 4.3856 3.0508 1.9068 7.2458 0 0 6.1017-0.19068 2.0975 5.7203l-4.767 1.3348 0.57203 3.4322 0.95339 1.3348s0.38136-6.6737 5.5297-5.1483c0 0 5.339 8.5805-0.95339 9.1525l3.6229 4.0042s-1.7161-4.5763 2.4788-4.0042l2.2881 2.0975 0.76271-11.631s-2.6695 5.5297-5.7203-2.0974c0 0 0.76271-9.1526 5.5297-1.9068 0 0-0.38136-15.636 2.0975-22.5 0 0-4.5763-5.339-4.3856-12.203l-2.6695 1.9068s-3.8136 3.2415-4.0042-2.6695c0 0-7.0551 3.0508-7.4364-1.9068 0 0 2.2881-4.3856 9.1526-2.4788 0 0-12.775-4.9576-8.1992-12.775 0 0 5.1483-3.2415 7.6271 2.6695 0 0-3.6229-8.3898-2.6695-12.394 0 0 4.3856 1.1441 8.0085 3.6229 0 0-0.76272-4.0042-6.1017-5.7203 0 0 9.5339-2.2881 13.157 7.8178l2.0975-6.2924s-1.7161-3.4322 2.6695-5.5297c0 0 4.3856 3.4322 0.57203 6.6737l-1.3347 5.5297 4.767-6.2924s3.0508-4.3856 10.487-2.2881c0 0-3.0508 5.1483-8.5805 7.8178-5.5297 2.6695-6.6737 8.7712-6.6737 8.7712s13.157-12.013 20.975-4.0042c0 0-21.356 2.8602-20.784 12.966l6.483-4.9576s-0.38136 4.767-4.5763 7.4364c-4.1949 2.6695-5.339 8.1992-5.339 8.1992v10.487l2.2881-2.8602v-4.9576s4.767-2.6695 8.0085-11.822c0 0 5.1483 10.487-5.5297 15.445 0 0 2.6695 7.8178-4.9576 10.106l-0.19067 7.2458 5.7203-4.5763v-3.8136l3.2415 0.76271s1.5254-3.2415-0.76271-3.2415c0 0-5.911-4.5763 18.496-8.5805l-14.682 12.013s-5.5297 10.487-12.203 11.25c0 0 1.7161 8.7712-1.3348 11.441 0 0-1.7161 25.551 2.0975 34.703"/>
   <g id="g829">
    <g id="g849">
     <path id="path3335" d="m388.88 914.67s-9.1525-1.7161-11.059 5.5297c0 0-0.38136 5.339 8.1992 4.0042 8.5805-1.3348 10.297 8.3898 10.297 8.3898"/>
     <path id="path3337" d="m393.46 931.07s6.6737 3.0508 12.203 7.0551"/>
     <path id="path3339" d="m377.82 920.2s9.5339 2.4788 11.059-5.5297"/>
     <path id="path3341" d="m404.13 920.97s-7.4364 6.1017-4.1949 9.7246c0 0 2.4788 5.911 6.483 4.767 4.0042-1.1441 2.0975 4.9576 2.0975 4.9576"/>
     <path id="path3343" d="m409.47 927.07s1.5254 6.6737-4.0042 5.1483c0 0-0.76271-3.8136 0.95339-6.483 0 0 1.2394 0.19068-0.0953-3.2415"/>
     <path id="path3352" d="m415.96 941.37 6.3877 5.7203"/>
     <path id="path3354" d="m421.29 951.48-10.106-9.3432"/>
     <path id="path3356" d="m426.82 951.48 4.5763 4.0042"/>
     <path id="path3362" d="m439.79 957.58s4.1949 7.1504-0.95339 4.9576"/>
    </g>
    <g id="g857">
     <path id="path3320" d="m445.13 917.53s-3.0508-7.4364-0.57204-15.826c2.4788-8.3898-3.0508-15.636-3.0508-15.636s-0.57203-1.7161-3.6229-2.8602"/>
     <path id="path3322" d="m441.51 886.07s-9.5339-4.1949-8.9619 5.911c0 0 1.5254 11.25 5.5297 15.254"/>
     <path id="path3328" d="m434.26 886.26s7.2458 11.441 9.5339 21.547"/>
    </g>
   </g>
  </g>
  <path id="path3409" d="m449.71 1006.6s4.767-21.928 13.347-24.788c0 0 37.564-46.144 40.233-53.199 0 0 1.3347-7.2458-2.4788-4.0042 0 0-41.949 56.25-54.915 62.352"/>
 </g>
 <g id="S_pennellii-Flower" fill="#d3bc5f" stroke="#000000" stroke-width="1px">
  <path id="path3438" d="m503.29 928.59s2.3136 3.8519 1.1268 8.5484c-0.44335 1.7545-1.3752 3.627-3.0987 5.4605 0 0-4.0111-8.4675 1.9719-14.009zm-8.7134-3.7886s0.53932 9.8426-17.123 11.326c0 0-9.9774-4.719 0.13483-12.404 0 0 5.9325-2.8314 12.539-1.8876 6.6066 0.94381 12-2.2921 12-2.2921s1.4831-16.989-7.8201-17.663c0 0-9.9774 9.3032-16.449 6.0673 0 0-18.876 0-9.8426-8.6291 0 0 3.6404-2.5618 6.337-3.7752 0 0 4.5842-17.258 31.146 12.404 0 0 10.921-9.4381 15.371 3.1011 0 0-7.955-0.13483-10.247 2.5618 0 0 1.0786 2.4269 4.719 1.3483 0 0 8.4943-0.26966 12.135 2.2921 0 0 23.73-0.40449 30.472 7.6853 0 0 4.4494 3.3707 0.40449 7.0112 0 0 4.9887 11.326-2.9663 15.101 0 0-11.73 3.3707-14.022-12 0 0-5.9325 3.2359-3.2359-13.213 0 0-2.1573-1.7528-5.2584-1.0786 0 0 5.6628 4.1797 0.9438 12 0 0-5.7977 7.6853-15.371-1.8876 0 0 4.1797-9.7077-11.865-11.326 0 0-1.8876 7.4156 3.2359 16.719 5.1235 9.3032 4.8539 13.213 4.8539 13.213s-4.4494 8.8988-11.191 4.0449c0 0-4.3146 6.2022-7.2808 6.6067 0 0 0.53932-7.8201-4.1797-2.0224 0 0-9.8426 0.80898 4.0449-20.764l4.7514-12.755z"/>
  <g id="g893">
   <path id="path3441" d="m501.31 942.6s-1.7528 9.3032 2.1573 10.921"/>
   <path id="path3443" d="m474.35 895.55s9.4381-3.2359 10.921 0.53932c0 0 0.40449 3.9101-10.652 6.7415 0 0 11.056-2.2921 12.27-0.40449 0 0 0.94382 3.9101-9.0336 5.528"/>
   <path id="path3445" d="m505.49 907.95s1.8876 4.719 2.0224 6.7415"/>
   <path id="path3447" d="m531.65 930.33s1.618 0.53931 2.1573 2.4269"/>
   <path id="path3449" d="m558.35 931.95s-1.4831-7.5505-5.1235-7.4156l-1.618 4.1797s-7.8201-8.7639-12.135-1.4831c0 0-0.26965 4.3146 1.8876 7.8201"/>
   <path id="path3451" d="m550.12 932.09v7.6853s2.9662 2.8314 0.13483 7.2808"/>
   <path id="path3453" d="m527.47 917.25 5.3932 3.5056"/>
  </g>
 </g>
 <g id="g907" fill="#ffffff" stroke="#000000" stroke-width="1px">
  <path id="path2589" d="m440.1 1018.8s20.224-5.3932 19.685 1.0786c0 0 9.1684 1.8876 8.0898 5.1236 0 0 7.5505 0.8089 4.0449 8.3594s2.1573 8.6291 2.1573 8.6291 1.8876 4.8539-5.6628 5.1235c0 0-5.3932 36.674-34.786 12.135 0 0 0.80898 10.786-5.3932 8.3595 0 0-1.618 6.4718-10.247 5.6628 0 0-3.7752 6.7415-12.404 2.1573 0 0-8.6291-0.2697-8.0898-5.1235 0 0-2.9662-1.0787-2.6966-6.2022 0 0-2.9662-3.7752-2.4269-20.494 0 0-4.5842 5.6629-4.8539 12.404 0 0 2.9662 15.371-11.865 13.483 0 0-3.7752 12.404-19.415 9.9774 0 0 0 6.7415-14.562 6.2021l-21.842 9.9774s-8.0898 2.1573-9.1684-4.0449c0 0-6.2022-8.3594-3.7752-14.022 0 0-10.247-2.1573-4.5842-12.135 0 0-3.5056-7.8201 3.2359-9.9774 0 0-6.2022-2.1573 0.26966-6.7415l23.46-15.91s-7.0111-0.809-4.0449-2.6966c0 0-17.798-2.1573 4.3146-17.798 0 0 6.2022-12.404 31.55-13.753 0 0 8.3594-2.9662 13.753 0.53932 0 0 10.517-1.3483 12.944 1.0786 0 0 2.6966-1.0786 5.9325 2.9662l8.8988 2.9663s1.618 7.2808-4.3146 11.865c0 0 8.3594-3.5056 11.595-8.0898 0 0 6.7415-1.3483 8.6291-4.5842l14.831-1.3483s13.483 5.6629 2.1573 12.135c0 0-6.4718 4.8539-3.2359 8.0898l4.3146 2.4269zm-10.226 7.2488-2.2881 3.4322-8.5805-5.1483s7.6271-1.7161 10.869 1.7161zm-59.346 3.2679s16.18 1.8876 18.876-1.618c0 0 1e-5 -8.629-18.876 1.618z"/>
  <g id="g917">
   <path id="path2608" d="m370.53 1029.3s-12.159 2.2617-17.307 4.3592c0 0-12.817 2.4877-23.951-0.8536"/>
   <path id="path2610" d="m398.3 1018s-4.086 7.6764 6.2106 6.723l14.492-0.3813"/>
   <path id="path2612" d="m427.59 1029.5s8.0085 11.441 8.7712 23.644l-3.8136 1.1441 1.0851 4.9798"/>
   <path id="path2614" d="m392.88 1030-0.51175 13.556"/>
  </g>
 </g>
 <g id="S_pennellii-VegetativeMeristem" fill="#deaa87" stroke="#000000">
  <path id="path4868" d="m818.07 978.3c0.75905-0.9653 4.9473-2.8481 8.0824-3.2686 3.6798 0.30069 8.5362-0.12294 7.398-0.19822-1.7341-1.7341-17.845-7.8258-23.034-7.8446l-3.1448 0.46089c-6.8336 0.80441-12.638-1.5142-17.753-3.9025-5.27-2.7575-8.2182-5.7186-8.2182-8.2933 0-2.8892 19.672-8.7439 28.708-8.9622 3.4531-0.0833-2.329-1.6671-11.208-3.956-6.6-1.7013-13.607-3.7228-15.572-4.4922-5.471-0.66219-10.375-3.5926-15.359-6.204-3.1125-1.686-6.4472-5.2757-9.0678-9.7612-2.2797-3.902-6.2127-8.6875-8.7401-10.635-6.481-4.9927-7.8379-7.0207-7.8862-11.786-0.0397-3.9247-0.41104-4.2372-6.0361-5.0808-3.5454-0.53165-7.7344-2.3636-10.255-4.4847-3.884-3.2682-5.2728-3.5908-15.673-3.6406-13.969-0.0669-23.318-2.9916-29.304-9.1676-6.1787-6.3748-5.171-8.7937 5.2432-12.586 14.537-5.2933 21.582-6.8273 31.316-6.8185 21.311 0.0193 61.457 9.7557 68.688 16.659 1.845 1.7613 7.0947 5.0713 11.666 7.3555 5.988 2.9922 10.798 6.921 17.208 14.054 5.2552 5.8485 12.76 12.32 18.334 15.811 12.209 7.6448 20.83 16.63 33.339 34.748 12.091 17.511 14.765 25.039 13.715 38.6-1.1832 15.275-10.014 36.255-21.215 50.4-3.1628 3.9942-4.8084 4.9709-8.1805 4.8554-2.3217-0.079-21.921-3.0493-43.555-6.5995-21.633-3.5501-39.804-6.485-40.38-6.522s-0.37556-1.3217 0.44499-2.8549c2.1767-4.0672-0.35107-9.1058-7.6138-15.177-8.7297-7.2971-10.275-11.775-10.371-30.054-0.0771-14.711 0.10107-15.721 4.2658-24.19 4.3368-8.819 14.163-17.505 17.944-17.505 2.8741-1.9488 5.7481 0.0152 8.6222 3.6381 0.39746 2.4492 0.0333 6.5418-0.80912 9.0946-1.6416 3.8092-4.3399 5.4234 0.31598 12.049 1.9158 4.8604 1.9609 10.05 1.0728 11.709-1.097 2.0497 0.60068-0.59682 4.5834-0.6809 3.3032-0.0697 4.4888 2.6342 4.4916 1.0701 3e-3 -1.1935 1.0008-6.2552 2.1028-7.1697 4.8797-0.99208 9.427 0.17624 13.799 2.4818l5.7176 4.6179c4.4627 3.534 3.0602 3.9925 4.6189 5.2463l5.764 7.868c0 0.18816 1.5637 2.7281 2.6592 4.8286s1.5082 4.1187 1.5127 6.502c3e-3 1.8448-2.499 21.015-0.82017 16.605 0.49007-1.2873 0.29946-3.4909 2.2189-9.8971 0.19976-0.6668 4.7073-3.45 6.4695-5.8334 3.9315-5.3172 4.3212-9.4292 2.7542-10.398-1.3075-0.80808-13.038-2.4845-13.41-2.8863-2.1497-2.3247-5.1414-3.9477-5.4514-7.8054z" stroke-width="1.3333"/>
  <g id="g1057" stroke-width="1px">
   <path id="path7333" d="m833.55 974.83 5.8522 0.67655"/>
   <path id="path7335" d="m814.53 967.51s15-0.75 18.125 0.25"/>
   <path id="path7337" d="m790.03 974.76s13.5 15.75 5.875 26.875"/>
   <path id="path7339" d="m781.15 974.38s-6.125 1.5-6.75 5.75"/>
   <path id="path7341" d="m775.15 936.76s-9.75 9.5-7.375 23.25c5.25 14.5 1.875 17.875 1.875 17.875s-2.5 3.125-5.75 2.875"/>
   <path id="path7343" d="m761.03 983.01s9.25 0.75 9.25 5.5c0 0 0.875 4.75-3.875 4.25"/>
   <path id="path7345" d="m768.9 995.26s5.75 5.75 11 6.625"/>
  </g>
 </g>
 <g id="S_pennellii-SeedlingShoot" fill="#784421" stroke="#000000">
  <path id="path5320" d="m812.98 1312.7c-0.4109-1.0707-0.74708-12.608-0.74708-25.638v-23.692l-8.6667-4.3989c-4.7667-2.4195-8.6667-5.126-8.6667-6.0146 0-1.7173-0.61993-1.6848-15.333 0.805-16.402 2.7755-31.889 12.976-58.858 38.768-13.045 12.476-15.849 11.889-11.82-2.4709 3.7539-13.379 18.3-29.008 35.949-38.625 6.0046-3.2721 8.4158-3.7274 22.396-4.2288 15.286-0.5483 15.667-0.6364 15.667-3.622 0-5.2754 1.5713-7.5149 6.9681-9.9311 5.1196-2.2921 5.1575-2.3596 1.7975-3.2029-1.8877-0.4738-3.4323-1.7229-3.4323-2.7757 0-3.2122 11.297-4.294 20-1.915 1.6761 0.4582 2.061-1.8824 2.377-14.453 0.36105-14.365 0.26112-15-2.3619-15-1.5064 0-5.2379 1.65-8.2922 3.6667-4.9945 3.2977-6.5613 3.6313-15.572 3.315-11.215-0.3936-15.312-2.7909-16.867-9.87-1.0537-4.7973 1.4052-8.8512 8.4329-13.903l5.1489-3.7011-5.7666-5.5253c-4.7229-4.5253-5.7666-6.4001-5.7666-10.358 0-2.6578 0.68313-6.3318 1.5181-8.1643 1.6776-3.6819 8.4644-7.4603 13.4-7.4603 2.068 0 5.4983-2.3716 9.7985-6.7744 7.2141-7.3861 14.69-11.892 19.729-11.892 1.7704 0 5.8442-0.9586 9.0531-2.1303 10.283-3.7547 20.28-5.7734 28.834-5.8222 6.9098-0.039 8.8414 0.465 11.307 2.9525 1.6356 1.65 5.6856 3.6012 9 4.336 5.821 1.2905 6.0396 1.5181 6.4208 6.6861 0.27404 3.7149-0.61592 7.2507-2.9117 11.568l-3.3064 6.2184 3.2239 2.1124c3.6308 2.379 5.2835 7.1564 3.94 11.389-1.3832 4.358-10.857 10.466-21.024 13.554l-10.68 3.8481 4.9328 2.5197c5.6944 5.9436 3.7608 11.548-6.2761 18.19-4.4572 2.9497-7.1027 3.6892-13.197 3.6892-4.3212 0-8.5326-0.7559-9.725-1.7455-3.0859-2.561-3.5408-1.2685-2.5426 7.2242l0.89715 7.6332 4.2241-0.7924c3.3886-0.6357 4.8436-0.1331 7.356 2.5412 3.0499 3.2464 3.0678 3.4043 0.68539 6.0369-2.3801 2.63-2.368 2.7763 0.44737 5.3992 4.0794 3.8006 3.6047 7.4813-1.6418 12.728-2.4946 2.4946-4.1242 4.7898-3.6214 5.1006 0.95175 0.5882 13.951 1.6451 33.674 2.7377 16.176 0.8961 27.64 5.382 39.703 15.536 5.1961 4.3739 9.4475 8.4555 9.4475 9.0702 0 0.6148 3.3285 4.3358 7.3967 8.2688 7.441 7.1937 16.603 19.475 16.603 22.256 0 1.5912-2.4602 1.3163-17.048-1.9045-11.101-2.4511-17.197-5.536-26.415-13.367-9.1433-7.768-13.923-12.556-21.687-21.722-7.3706-8.7025-12.532-10.892-27.732-11.762-10.796-0.6184-12.654-0.3865-16 1.9976l-3.7856 2.6972v49.464l-4.9196 1.2509c-3.9127 0.9949-5.0725 0.8524-5.6667-0.696zm14.586-131.78c5.8096-1.8807 5.668-2.7131 2.269-2.7559-1.9604-0.012-5.9104 1.0314-8.1667 2.9299-4.3969 3.6997-6.2969 8.8308-2.394 6.3926 1.2833-0.8017 5.3583-4.7879 8.2917-6.5666zm-19.333 6.3888c-3e-5 -1.2833-2.113-4.0192-4.6954-6.0798l-10.529-5.1607 9.2352 8.3779c3.0301 2.7488 4.2444 7.2375 5.7668 6.5709 1.4417-0.6313 0.22248-2.425 0.22246-3.7083z" stroke-width="1.3333"/>
  <g id="g1113" stroke-width="1px">
   <g id="g1129">
    <path id="path7373" d="m807.03 1225.9s3-6 5.75-5"/>
    <path id="path7375" d="m819.96 1217.9-4.4327 1.8966"/>
    <path id="path7377" d="m827.78 1248.9v3.875"/>
    <path id="path7379" d="m828.03 1255.9-0.5 3.125"/>
    <path id="path7381" d="m781.03 1245.5s-1.125 6.375 2.375 7.375"/>
    <path id="path7383" d="m810.23 1263.4 3.419 1.1373"/>
    <path id="path7385" d="m821.57 1262.7-2.5393 2.076"/>
   </g>
   <g id="g1137">
    <path id="path7407" d="m835.72 1179.6s3.182-0.442 5.3917-0.1768"/>
    <path id="path7409" d="m815.48 1197.8 3.7123 4.4194"/>
   </g>
  </g>
 </g>
 <g id="S_pennellii-SeedlingRoot">
  <path id="path6762" d="m1048.2 1439.6c-2.2-0.9911-7.3-2.2032-11.333-2.6936-4.9221-0.5984-11.279-2.969-19.333-7.2095-6.6-3.4748-20.7-9.4309-31.333-13.236-10.633-3.8049-24.133-8.6696-30-10.81-5.8667-2.1409-12.167-4.282-14-4.758-1.8333-0.476-12.429-5.3595-23.546-10.852l-20.213-9.9867-6.2902 2.7825c-3.4596 1.5303-7.1169 2.7824-8.1273 2.7824s-4.9464 1.5-8.7467 3.3334c-7.9435 3.832-8.6162 3.9909-6.5968 1.5577 0.81051-0.9767 4.934-2.8629 9.1633-4.1917 4.2293-1.3289 10.471-3.6388 13.87-5.1331l6.18-2.7169-5.0326-5.4247c-2.768-2.9835-6.6186-7.3346-8.5569-9.669-1.9384-2.3344-5.7547-4.9729-8.4807-5.8633-7.3951-2.4156-18.574-9.0233-21.258-12.565-3.3022-4.3577-13.865-5.2945-14.961-1.3271-0.40532 1.4667-1.7201 4.1667-2.9217 6-1.2016 1.8334-2.9298 5.7334-3.8404 8.6667-2.2589 7.2765-2.9456 7.9498-13.094 12.84-4.8844 2.3537-10.577 5.6775-12.65 7.3862-2.7235 2.245-5.3124 3.0632-9.3333 2.9499l-5.5644-0.1568 6.4864-1.0879c3.5675-0.5983 7.7675-2.2676 9.3333-3.7095 1.5658-1.4419 7.0569-4.7513 12.202-7.3541 8.8289-4.466 9.461-5.0928 11.229-11.134 1.0307-3.5207 3.0231-7.9696 4.4277-9.8864 4.2502-5.8004 2.677-9.0297-7.3787-15.146-9.0656-5.5145-16.72-12.06-15.513-13.267 0.35531-0.3553 3.0235-1.021 5.9293-1.4794 5.0437-0.7956 5.4019-0.6109 7.8988 4.0732 3.5482 6.656 13.982 12.609 22.13 12.626 6.7142 0.014 8.6969 1.1892 13.275 7.87 2.2311 3.2561 6.278 5.9924 14.437 9.762 6.2354 2.8807 12.459 4.9441 13.831 4.5854 1.3718-0.3587 4.4181-0.079 6.7696 0.6224 10.049 2.9959 24.661 3.7791 31.67 1.6975 3.7366-1.1096 7.4894-1.7856 8.3395-1.5023 0.85016 0.2834-2.3423 1.561-7.0943 2.8392-7.4901 2.0146-10.06 2.1165-19.307 0.7655-20.414-2.9823-22-3.053-22-0.9802 0 2.4662 17.792 19.686 20.34 19.686 1.0628 0 8.7627 3.3522 17.111 7.4493 8.3482 4.0972 19.387 8.8618 24.531 10.588 9.1577 3.0732 30.109 10.462 47.352 16.699 4.7667 1.7241 11.667 4.9149 15.333 7.0908 12.689 7.5296 17.15 9.1985 25.311 9.47 4.8062 0.1598 10.627 1.4224 14.52 3.1497 5.5095 2.4443 6.2454 3.1875 4.8367 4.8849-1.993 2.4015-4.644 2.3971-10.002-0.016z" fill="#0044aa" stroke="#000000" stroke-width="1.3333"/>
 </g>
 <g id="labels" fill="#000000" font-family="Arial" font-size="16px" letter-spacing="0px" text-anchor="middle" word-spacing="0px">
  <g id="lb-M82">
   <text id="text3308" x="623.60358" y="151.00929" text-align="center" style="line-height:1.25" xml:space="preserve"><tspan id="tspan3306" x="623.60358" y="151.00929" font-size="18.667px"><tspan id="tspan3310" font-family="Arial" font-size="18.667px" font-style="italic">S. lycopersicum</tspan> M82</tspan></text>
   <g id="g370">
    <text id="text3274" x="620.55273" y="517.11102" text-align="center" style="line-height:1.25" xml:space="preserve"><tspan id="tspan3270" x="620.55273" y="517.11102">Mature</tspan><tspan id="tspan3272" x="620.55273" y="537.11102">Fruit</tspan></text>
    <text id="text3286" x="327.67133" y="326.43304" text-align="center" style="line-height:1.25" xml:space="preserve"><tspan id="tspan3284" x="327.67133" y="326.43304">Developing Fruit</tspan></text>
    <text id="text3292" x="286.48486" y="599.48389" text-align="center" style="line-height:1.25" xml:space="preserve"><tspan id="tspan3290" x="286.48486" y="599.48389">Leaves</tspan></text>
    <text id="text3304" x="458.85776" y="437.78885" text-align="center" style="line-height:1.25" xml:space="preserve"><tspan id="tspan3302" x="458.85776" y="437.78885">Stem</tspan></text>
    <text id="text3552" x="563.52051" y="231.56502" text-align="center" style="line-height:1.25" xml:space="preserve"><tspan id="tspan3550" x="563.52051" y="231.56502">Flower</tspan></text>
    <text id="text3556" x="879.87476" y="230.33131" text-align="center" style="line-height:1.25" xml:space="preserve"><tspan id="tspan3554" x="879.87476" y="230.33131">Vegetative</tspan><tspan id="tspan3558" x="879.87476" y="250.33131">Meristem</tspan></text>
    <text id="text3562" x="699.87469" y="372.19571" text-align="center" style="line-height:1.25" xml:space="preserve"><tspan id="tspan3560" x="699.87469" y="372.19571">Seedling</tspan><tspan id="tspan3564" x="699.87469" y="392.19571">Shoot</tspan></text>
    <text id="text3568" x="789.87469" y="625.41608" text-align="center" style="line-height:1.25" xml:space="preserve"><tspan id="tspan3566" x="789.87469" y="625.41608">Seedling</tspan><tspan id="tspan3570" x="789.87469" y="645.41608">Root</tspan></text>
   </g>
  </g>
  <g id="lb-S_pennellii">
   <text id="text3316" x="622.45953" y="847.36523" text-align="center" style="line-height:1.25" xml:space="preserve"><tspan id="tspan3314" x="622.45953" y="847.36523" font-size="18.667px"><tspan id="tspan3312" font-family="Arial" font-size="18.667px" font-style="italic">S. pennellii</tspan></tspan></text>
   <g id="g466">
    <text id="text3266" x="159.87471" y="1234.0602" text-align="center" style="line-height:1.25" xml:space="preserve"><tspan id="tspan3264" x="159.87471" y="1234.0602">Mature</tspan><tspan id="tspan3268" x="159.87471" y="1254.0602">Fruit</tspan></text>
    <text id="text3278" x="312.41708" y="1125.7551" text-align="center" style="line-height:1.25" xml:space="preserve"><tspan id="tspan3276" x="312.41708" y="1125.7551">Developing</tspan><tspan id="tspan3280" x="312.41708" y="1145.7551">Fruit</tspan></text>
    <text id="text3296" x="612.9256" y="1070.8397" text-align="center" style="line-height:1.25" xml:space="preserve"><tspan id="tspan3294" x="612.9256" y="1070.8397">Leaves</tspan></text>
    <text id="text3300" x="487.84082" y="1087.6194" text-align="center" style="line-height:1.25" xml:space="preserve"><tspan id="tspan3298" x="487.84082" y="1087.6194">Stem</tspan></text>
    <text id="text3548" x="566.57141" y="910.3786" text-align="center" style="line-height:1.25" xml:space="preserve"><tspan id="tspan3546" x="566.57141" y="910.3786">Flower</tspan></text>
    <text id="text3576" x="878.3493" y="887.789" text-align="center" style="line-height:1.25" xml:space="preserve"><tspan id="tspan3572" x="878.3493" y="887.789">Vegetative</tspan><tspan id="tspan3574" x="878.3493" y="907.789">Meristem</tspan></text>
    <text id="text3582" x="721.23059" y="1186.772" text-align="center" style="line-height:1.25" xml:space="preserve"><tspan id="tspan3578" x="721.23059" y="1186.772">Seedling</tspan><tspan id="tspan3580" x="721.23059" y="1206.772">Shoot</tspan></text>
    <text id="text3588" x="902.75604" y="1325.5856" text-align="center" style="line-height:1.25" xml:space="preserve"><tspan id="tspan3584" x="902.75604" y="1325.5856">Seedling</tspan><tspan id="tspan3586" x="902.75604" y="1345.5856">Root</tspan></text>
   </g>
  </g>
 </g>
</svg>
