<?xml version='1.0' encoding='utf-8'?>
<svg xmlns="http://www.w3.org/2000/svg" height="882" id="svg1125" version="1.1" viewBox="0 0 1201.8 882" width="1201.8">
    <g id="g1330" style="font-size:30px;font-family:sans-serif;fill:#000000">
        <text id="text3270" style="fill:#000000;font-family:Arial;font-size:16px;letter-spacing:0px;line-height:1.25;text-align:center;text-anchor:middle;word-spacing:0px" x="132.16049" y="255.24286" xml:space="preserve">
            <tspan id="tspan3268" style="font-size:24px" x="132.16049" y="255.24286">1</tspan>
        </text>
        <text id="text3276" style="fill:#000000;font-family:Arial;font-size:16px;letter-spacing:0px;line-height:1.25;text-align:center;text-anchor:middle;word-spacing:0px" x="641.48248" y="364.56488" xml:space="preserve">
            <tspan id="tspan3274" style="font-size:24px" x="661.48248" y="364.56488">2</tspan>
        </text>
        <text id="text3282" style="fill:#000000;font-family:Arial;font-size:16px;letter-spacing:0px;line-height:1.25;text-align:center;text-anchor:middle;word-spacing:0px" x="651.65198" y="583.20898" xml:space="preserve">
            <tspan id="tspan3280" style="font-size:24px" x="671.65198" y="583.20898">3</tspan>
        </text>
    </g>
    <g id="g1354" style="font-size:30px;font-family:sans-serif;fill:#000000">
        <text id="text3286" style="fill:#000000;font-family:Arial;font-size:16px;letter-spacing:0px;line-height:1.25;text-align:center;text-anchor:middle;word-spacing:0px" x="868.60107" y="304.39539" xml:space="preserve">
            <tspan id="tspan3284" x="888.60107" y="304.39539">Non-inoculated root</tspan>
        </text>
        <text id="text3326" style="fill:#000000;font-family:Arial;font-size:16px;letter-spacing:0px;line-height:1.25;text-align:center;text-anchor:middle;word-spacing:0px" x="970.29602" y="406.93777" xml:space="preserve">
            <tspan id="tspan3324" x="990.29602" y="406.93777">Nodule</tspan>
        </text>
    </g>
    <g id="g1462" style="font-size:30px;font-family:sans-serif;fill:#000000">
        <text id="text3330" style="fill:#000000;font-family:Arial;font-size:16px;letter-spacing:0px;line-height:1.25;text-align:center;text-anchor:middle;word-spacing:0px" x="887.24518" y="534.90393" xml:space="preserve">
            <tspan id="tspan3328" x="907.24518" y="534.90393">4d</tspan>
        </text>
        <text id="text3334" style="fill:#000000;font-family:Arial;font-size:16px;letter-spacing:0px;line-height:1.25;text-align:center;text-anchor:middle;word-spacing:0px" x="965.2113" y="534.90393" xml:space="preserve">
            <tspan id="tspan3332" x="985.2113" y="534.90393">10d</tspan>
        </text>
        <text id="text3338" style="fill:#000000;font-family:Arial;font-size:16px;letter-spacing:0px;line-height:1.25;text-align:center;text-anchor:middle;word-spacing:0px" x="1036.3978" y="534.90393" xml:space="preserve">
            <tspan id="tspan3336" x="1056.3978" y="534.90393">14d</tspan>
        </text>
    </g>
    <g id="g1390" style="font-size:30px;font-family:sans-serif;fill:#000000">
        <text id="text3240" style="fill:#000000;font-family:Arial;font-size:16px;letter-spacing:0px;line-height:1.25;text-align:center;text-anchor:middle;word-spacing:0px" x="482.16049" y="329.81912" xml:space="preserve">
            <tspan id="tspan3238" x="500.16049" y="329.81912">Flower</tspan>
        </text>
        <text id="text3244" style="fill:#000000;font-family:Arial;font-size:16px;letter-spacing:0px;line-height:1.25;text-align:center;text-anchor:middle;word-spacing:0px" x="541.48254" y="445.07336" xml:space="preserve">
            <tspan id="tspan3242" x="561.48254" y="445.07336">Vegetative Bud</tspan>
        </text>
        <text id="text3248" style="fill:#000000;font-family:Arial;font-size:16px;letter-spacing:0px;line-height:1.25;text-align:center;text-anchor:middle;word-spacing:0px" x="342.32999" y="145.92082" xml:space="preserve">
            <tspan id="tspan3246" x="362.32999" y="145.92082">Pod</tspan>
        </text>
        <text id="text3252" style="fill:#000000;font-family:Arial;font-size:16px;letter-spacing:0px;line-height:1.25;text-align:center;text-anchor:middle;word-spacing:0px" x="134.70287" y="668.80225" xml:space="preserve">
            <tspan id="tspan3250" x="154.70287" y="668.80225">Root</tspan>
        </text>
        <text id="text3256" style="fill:#000000;font-family:Arial;font-size:16px;letter-spacing:0px;line-height:1.25;text-align:center;text-anchor:middle;word-spacing:0px" x="233.85541" y="453.54794" xml:space="preserve">
            <tspan id="tspan3254" x="253.85541" y="453.54794">Stem</tspan>
        </text>
        <text id="text3260" style="fill:#000000;font-family:Arial;font-size:16px;letter-spacing:0px;line-height:1.25;text-align:center;text-anchor:middle;word-spacing:0px" x="292.32999" y="427.27673" xml:space="preserve">
            <tspan id="tspan3258" x="312.32999" y="427.27673">Petiole</tspan>
        </text>
        <text id="text3264" style="fill:#000000;font-family:Arial;font-size:16px;letter-spacing:0px;line-height:1.25;text-align:center;text-anchor:middle;word-spacing:0px" x="166.90625" y="378.12421" xml:space="preserve">
            <tspan id="tspan3262" x="186.90625" y="378.12421">Leaf with petiolules</tspan>
        </text>
        <text id="text3360" style="fill:#000000;font-family:Arial;font-size:16px;letter-spacing:0px;line-height:1.25;text-align:center;text-anchor:middle;word-spacing:0px" x="408.43167" y="758.63269" xml:space="preserve">
            <tspan id="tspan3362" x="438.43167" y="758.63269">Mature Nodule</tspan>
            <tspan id="tspan3366" x="428.43167" y="778.63269">(4 weeks)</tspan>
        </text>
    </g>
    <g id="g1422" style="font-size:30px;font-family:sans-serif;fill:#000000">
        <text id="text3394" style="fill:#000000;font-family:Arial;font-size:16px;letter-spacing:0px;line-height:1.25;text-align:center;text-anchor:middle;word-spacing:0px" x="694.87231" y="586.59882" xml:space="preserve">
            <tspan id="tspan3392" x="714.87231" y="586.59882">Seed</tspan>
        </text>
    </g>
    <g id="g1448" style="font-size:30px;font-family:sans-serif;fill:#000000">
        <text id="text3370" style="fill:#000000;font-family:Arial;font-size:16px;letter-spacing:0px;line-height:1.25;text-align:center;text-anchor:middle;word-spacing:0px" x="693.24298" y="662.52325" xml:space="preserve">
            <tspan id="tspan3368" x="714.24298" y="662.52325">10d</tspan>
        </text>
        <text id="text3374" style="fill:#000000;font-family:Arial;font-size:16px;letter-spacing:0px;line-height:1.25;text-align:center;text-anchor:middle;word-spacing:0px" x="768.66669" y="662.52325" xml:space="preserve">
            <tspan id="tspan3372" x="788.66669" y="662.52325">12d</tspan>
        </text>
        <text id="text3378" style="fill:#000000;font-family:Arial;font-size:16px;letter-spacing:0px;line-height:1.25;text-align:center;text-anchor:middle;word-spacing:0px" x="852.565" y="662.52325" xml:space="preserve">
            <tspan id="tspan3376" x="872.565" y="662.52325">16d</tspan>
        </text>
        <text id="text3382" style="fill:#000000;font-family:Arial;font-size:16px;letter-spacing:0px;line-height:1.25;text-align:center;text-anchor:middle;word-spacing:0px" x="927.98871" y="662.52325" xml:space="preserve">
            <tspan id="tspan3380" x="947.98871" y="662.52325">20d</tspan>
        </text>
        <text id="text3386" style="fill:#000000;font-family:Arial;font-size:16px;letter-spacing:0px;line-height:1.25;text-align:center;text-anchor:middle;word-spacing:0px" x="994.09045" y="662.52325" xml:space="preserve">
            <tspan id="tspan3384" x="1014.09045" y="662.52325">24d</tspan>
        </text>
        <text id="text3390" style="fill:#000000;font-family:Arial;font-size:16px;letter-spacing:0px;line-height:1.25;text-align:center;text-anchor:middle;word-spacing:0px" x="1069.5142" y="662.52325" xml:space="preserve">
            <tspan id="tspan3388" x="1089.5142" y="662.52325">36d</tspan>
        </text>
    </g>
    <g id="E2-Root">
        <path d="m780.39 516.33c-0.47136-6.0552-0.86062-18.7-0.86504-28.1l-8e-3 -17.09-5.338-10.368c-4.5182-8.7755-5.338-11.623-5.338-18.542 0-8.6604 2.2076-21.352 4.1323-23.756 0.90007-1.1244 3.7134-16.323 3.8482-20.789 0.0676-2.2382-5.6841 0.98134-8.9793 5.0262-2.0195 2.479-5.291 6.5081-7.2698 8.9535-2.1103 2.6078-5.775 5.0984-8.8634 6.0237-4.0749 1.2209-6.5803 3.3804-11.081 9.5521-3.547 4.8635-8.0287 9.1537-11.488 10.997-5.9231 3.1565-5.7786 2.8029-6.2334 15.252-0.058 1.5862-0.55577 3.3377-1.1062 3.8923-0.55048 0.55452-1.0101 2.2593-1.0213 3.7884-0.0163 2.2087-0.27242 2.3818-1.2464 0.84218-0.6743-1.0659-0.94763-2.3884-0.6074-2.939 0.34026-0.55052 0.94174-4.6327 1.3367-9.0715 0.7302-8.2065-0.2837-9.9031-3.5594-5.9562-2.3479 2.829-13.29 10.308-13.107 8.9593 0.0792-0.58571 3.3579-3.9851 7.2861-7.5541 5.0661-4.603 8.8878-6.8615 13.148-7.77 6.0595-1.2924 7.9738-2.9606 17.302-15.078 2.1177-2.7509 6.6216-6.2655 10.009-7.8103 5.4521-2.4866 5.7825-2.8662 2.8808-3.3102-1.8026-0.27567-5.5682 0.18473-8.368 1.0237-2.7997 0.8388-5.6178 1.1992-6.2624 0.80085-0.64456-0.39826-3.7849 0.4614-6.9786 1.9106-6.5216 2.9593-9.1429 3.3394-9.1429 1.3257 0-0.75231 1.8141-1.7307 4.0312-2.1741 2.2172-0.44342 4.3544-1.3292 4.7495-1.9684 0.39501-0.63917 2.8241-1.1621 5.3979-1.1621s5.8761-0.6403 7.3384-1.4229c1.4623-0.78259 5.4342-1.6491 8.8265-1.9255 4.8746-0.39742 6.7962-1.3056 9.1649-4.3322 1.6484-2.1063 5.5058-5.5681 8.5719-7.693l5.5748-3.8633-0.52569-8.0635c-0.2892-4.435-1.6042-10.165-2.9223-12.734-4.6082-8.9812-3.9054-31.432 1.142-36.479 2.9419-2.9419 4.6839-11.571 4.6918-23.239 6e-3 -7.9495-0.4562-10.995-1.6607-10.958-0.91746 0.0292-4.971 1.9949-9.0078 4.3696-5.8963 3.4686-7.9691 5.6642-10.54 11.165-2.9134 6.2324-4.0145 7.2174-12.267 10.974-11.54 5.2525-20.37 14.804-20.744 22.442-0.13618 2.7748-0.94088 8.6482-1.7882 13.052-0.84732 4.4038-1.4775 10.254-1.4004 12.999 0.16177 5.7611-1.8882 10.354-4.6213 10.354-1.918 0-1.8206-6.6631 0.27312-18.683 0.44748-2.5689 0.67714-5.726 0.51036-7.0159-0.16677-1.2898 0.63603-3.2844 1.784-4.4324 1.9704-1.9704 2.8112-4.5656 1.4793-4.5656-0.33441 0-2.6981 1.4184-5.2528 3.1521-2.5546 1.7336-7.0608 3.5383-10.014 4.0105-4.0746 0.65156-7.7141 2.9452-15.098 9.5152-9.2079 8.1928-13.066 10.361-13.066 7.343 0-0.73397 0.51142-1.3345 1.1365-1.3345s5.2135-3.5991 10.196-7.9979c6.2796-5.5435 11.255-8.6898 16.212-10.252 3.9336-1.24 7.1519-2.7453 7.1519-3.3452 0-0.59994 0.88682-1.0908 1.9707-1.0908s4.3571-3.1527 7.2738-7.006c10.305-13.614 12.139-15.364 19.404-18.509 12.676-5.4876 9.9751-6.0676-13.302-2.8566-4.4038 0.60752-9.5082 2.062-11.343 3.2323-4.8118 3.0688-12.01 4.2081-12.01 1.9008 0-1.0482 2.122-2.2136 5.0043-2.7485 2.7524-0.51078 5.9786-1.8023 7.1693-2.8701 1.1907-1.0678 5.4028-2.1211 9.3602-2.3406 3.9574-0.21934 8.5256-1.1112 10.152-1.9814 1.626-0.87024 4.3848-1.2238 6.1305-0.7856 4.1043 1.0301 12.259-2.3932 14.49-6.0831 2.1233-3.5114 21.896-18.67 24.354-18.67 1.8243 0 3.3597 3.9618 3.3915 8.7509 0.0115 1.6722 2.2356 4.3801 5.6898 6.9262 3.1194 2.2992 7.3668 5.4994 9.4387 7.1115 3.7409 2.9106 8.3798 3.68 26.259 4.3552 4.0368 0.15264 10.123 0.77105 13.526 1.3747 3.9907 0.708 7.1494 0.58209 8.9-0.35488 2.8883-1.5458 14.94-0.53101 14.94 1.258 0 0.97893-12.806 2.6368-20.017 2.5915-4.6637-0.0292-21.981-1.2616-30.36-2.1604-4.4454-0.47686-7.0061-0.24395-7.0061 0.6373 0 2.7378 6.1345 8.2098 13.345 11.904 5.7609 2.9514 8.6693 5.6894 13.521 12.729 7.2221 10.479 9.9271 12.761 19.841 16.742 7.038 2.8261 25.11 18.237 23.396 19.951-0.7463 0.74623-2.0996-0.31986-13.498-10.635-4.863-4.4007-8.3804-6.4083-12.426-7.0917-3.9767-0.67188-7.0955-2.4196-10.565-5.9206-7.3775-7.4443-10.928-11.687-10.928-13.058 0-0.67666-1.7264-2.8842-3.8363-4.9057l-3.8363-3.6754-0.83658 3.3331c-0.4601 1.8332-0.32937 4.726 0.29055 6.4284 1.2423 3.4115 0.96109 36.82-0.32071 38.102-1.6044 1.6044-2.5422-1.0689-2.3263-6.6317 0.37149-9.5724 0.32341-14.717-0.20913-22.37-0.28093-4.0368-0.60636-10.091-0.7232-13.453-0.18128-5.2162-0.75096-6.3912-3.8823-8.0069-4.9127-2.5349-7.9479-6.0874-11.024-12.902-1.7599-3.8995-4.5315-6.9214-8.8736-9.675-3.4728-2.2024-6.7972-4.0044-7.3875-4.0044-0.59028 0-1.0732 2.7828-1.0732 6.184 0 6.1327-2.1904 15.896-4.1616 18.55-1.2967 1.7456-3.8219 17.119-3.8352 23.348-0.0104 4.2015 0.79615 5.2841 7.4435 10.009 4.1474 2.9478 9.6361 8.5533 12.374 12.637 3.1887 4.7567 6.0075 7.4952 8.0096 7.7814 3.056 0.43692 13.05 9.513 18.206 16.533l2.6658 3.6299 7.2969-1.9618c8.4549-2.2732 14.722-2.5402 14.722-0.62733 0 0.73396-0.4504 1.4119-1.0009 1.5066-0.5504 0.0947-2.5021 0.38367-4.337 0.64193-15.591 2.1957-16.55 3.5084-5.725 7.8332 6.3679 2.544 25.28 18.043 22.017 18.043-0.8313 0-5.1248-3.2241-9.541-7.1647-5.7451-5.1263-9.508-7.4011-13.226-7.9956-5.5423-0.88627-11.458-5.867-16.864-14.198-3.7154-5.7257-9.7168-11.426-10.843-10.3-0.45721 0.4572-0.88302 9.5674-0.9463 20.245-0.11617 19.587-1.295 25.325-2.5493 12.408-0.6541-6.7362-0.24164-17.08 1.1307-28.358 0.60158-4.9435 0.30184-5.5592-4.0563-8.3323-2.5882-1.6468-5.8983-5.3317-7.3557-8.1884-2.6241-5.1437-12.37-14.117-13.79-12.697-0.40535 0.40535 0.18529 3.4438 1.3126 6.7521 2.7702 8.1302 1.7102 24.286-2.1474 32.729-3.5986 7.8763-5.959 25.721-4.9334 37.297 0.56068 6.3282 2.2159 11.858 5.7924 19.35 4.0108 8.4024 4.9478 11.818 4.7082 17.163-0.16456 3.6698-0.65974 15.23-1.1004 25.689-0.44062 10.459-1.2672 19.016-1.837 19.016-0.56972 0-1.4215-4.9543-1.8929-11.01z" fill="#d38d5f" id="path14409" stroke="#000000" stroke-miterlimit="10" stroke-width="1.3345" />
    </g>
    <g id="E3-Seed-10d">
        <path d="m695.83 637.13s5.1309-6.8412 8.5514-1.7103c0 0 27.365-3.4206 5.1309-22.804 0 0-23.089-15.678-29.36 8.8365 0 0 1.9953 16.248 15.678 15.678z" fill="#ff9955" id="path3945" stroke="#000000" stroke-miterlimit="10" stroke-width="1.3399" />
    </g>
    <g id="E3-Seed-12d">
        <path d="m769.99 635.48s5.4618-7.2824 9.1031-1.8206c0 0 29.13-3.6412 5.4618-24.275 0 0-24.578-16.689-31.254 9.4065 0 0 2.124 17.296 16.689 16.689z" fill="#ff9955" id="path14199" stroke="#000000" stroke-miterlimit="10" stroke-width="1.4264" />
    </g>
    <g id="E3-Seed-16d">
        <path d="m847.52 635.59s0.62403-7.1761-9.9841-4.056c0 0-30.888-9.3602-0.31197-30.888 0 0 32.136-4.6801 31.824 23.712 0 0 0.62402 16.848-21.528 11.232z" fill="#ff7f2a" id="path14259" stroke="#000000" stroke-miterlimit="10" stroke-width="1.4667" />
    </g>
    <g id="E3-Seed-20d">
        <path d="m916.7 634.77s2.8929-11.283 8.6789 0.28924c0 0 22.854 2.893 21.119-17.068 0 0-14.176-41.08-49.181-0.28924 0 0-2.8929 12.44 19.383 17.068z" fill="#ff6600" id="path14261" stroke="#000000" stroke-miterlimit="10" stroke-width="1.3599" />
    </g>
    <g id="E3-Seed-24d">
        <path d="m993.22 636.02s0.24781-8.5897 8.3721 1.4791c0 0 14.643 7.6656 22.266-11.048 0 0-0.865-20.975-24.606-23.138 0 0-30.781-1.1215-28.383 31.297 0 0-0.71255 14.094 22.35 1.4094z" fill="#d45500" id="path14255" stroke="#000000" stroke-miterlimit="10" stroke-width="1.3823" />
    </g>
    <g id="E3-Seed-36d">
        <path d="m1075.1 637.21s1.3799-9.3834-9.3835 0c0 0-17.387 5.5197-22.079-16.283 0 0 4.9677-22.631 31.186-20.423 0 0 33.67 4.6916 24.838 39.465 0 0-1.9319 15.455-24.562-2.7598z" fill="#803300" id="path17758" stroke="#000000" stroke-miterlimit="10" stroke-width="1.2973" />
    </g>
    <g id="E1-VegetativeBud">
        <path d="m458.33 643.75s13.183-28.164 38.352-50.336l133.03-102.47s-4.7939-2.397-7.1909-7.1909c0 0-43.745 37.153-83.894 65.917 0 0 38.951-42.546 20.974-79.699 0 0-14.382 10.187-26.367 27.565s-11.985 14.382-11.985 14.382l-8.9886 23.37s1.7977-29.363 9.5879-46.142c0 0 4.1947-19.775 4.1947-32.359l-9.5879-0.59924s-2.9962 45.542-11.386 74.905l-6.5917-6.5917v16.779s-7.7902 2.9962-1.7977 9.5879c0 0-7.7902 5.9924-7.1909-4.1947 0 0-5.9924 5.9924 0 12.584 0 0 2.397 7.7902-5.3932 6.5917 0 0 8.3894 4.1947-1.1985 9.5879 0 0-14.382 2.397-11.985-14.382 0 0-14.981 16.18 12.584 20.974 0 0-3.5955 19.176-43.146 53.932 0 0 8.3894 0 8.3894 4.794 0 0 8.3894-2.397 9.5879 2.9962z" fill="#00ff00" id="path2351" stroke="#000000" stroke-miterlimit="10" stroke-width="1px" />
        <path d="m538.63 549.66s-5.9924 6.5917-18.577 11.386" fill="#00ff00" id="path2353" stroke="#000000" stroke-miterlimit="10" stroke-width="1px" />
    </g>
    <g id="E1-Flower">
        <path d="m505.25 376.22 41.949-23.305s11.653 2.5424 17.161-6.5678c0 0 2.5424-1.6949 4.8729 2.5424 0 0 7.2034 28.814-5.9322 32.203 0 0-6.1441 5.9322-23.517 2.9661l-29.237 5.0847" fill="#ffdd55" id="path2363" stroke="#000000" stroke-miterlimit="10" stroke-width="1px" />
        <path d="m571.57 363.29s-3.8136 15.89-25.847 20.975" fill="#ffdd55" id="path2365" stroke="#000000" stroke-miterlimit="10" stroke-width="1px" />
        <path d="m505.04 367.53s33.686-11.441 35.805-59.534c0 0 3.178-32.839 23.517-0.42373 0 0 7.839 23.093-17.161 45.339 0 0-3.8136 4.8729-6.9915 11.653-3.178 6.7797-3.178 6.7797-3.178 6.7797l-32.627 16.314" fill="#ffdd55" id="path2361" stroke="#000000" stroke-miterlimit="10" stroke-width="1px" />
        <path d="m562.25 330.67s-1.9068 7.4152-11.864 11.229c0 0-5.0515 1.6495-8.6823 7.6092-1.5742 2.5839-2.8813 5.9781-3.394 10.399 0 0 1.6949 6.1441-1.2712 11.441" fill="#ffdd55" id="path2367" stroke="#000000" stroke-miterlimit="10" stroke-width="1px" />
    </g>
    <g id="g765">
        <path d="m465.21 409.9s5.5085 1.6949 8.8983-5.0848c0 0 20.339 0.84746 28.39-7.2034s24.153-6.7797 24.153-6.7797 10.593-3.8136 13.136-6.7797c0 0 3.178-2.5424 3.178-5.5085 0 0-12.5 8.2627-26.271 7.6271l20.339-14.831-28.39 8.8983 25.424-21.398s-18.008 10.169-29.025 8.6864c0 0-41.525 25-34.11 31.78 0 0-7.4152 7.2034-5.7203 10.593z" fill="#ffffff" id="path2359" stroke="#000000" stroke-miterlimit="10" stroke-width="1px" />
    </g>
    <g id="g807">
        <path d="m505.25 395.5s2.3305-1.4831 5.0848 0.84745" fill="none" id="path2400" stroke="#000000" stroke-miterlimit="10" stroke-width="1px" />
        <path d="m491.91 375.79-1.483-4.2373" fill="none" id="path2402" stroke="#000000" stroke-miterlimit="10" stroke-width="1px" />
        <path d="m496.78 401.85 4.4492 2.3305" fill="none" id="path2404" stroke="#000000" stroke-miterlimit="10" stroke-width="1px" />
        <path d="m479.41 385.12-0.21186-2.3305" fill="none" id="path2406" stroke="#000000" stroke-miterlimit="10" stroke-width="1px" />
        <path d="m485.55 380.24-0.42373-4.8729" fill="none" id="path2408" stroke="#000000" stroke-miterlimit="10" stroke-width="1px" />
        <path d="m482.37 383v-2.1186" fill="none" id="path2410" stroke="#000000" stroke-miterlimit="10" stroke-width="1px" />
        <path d="m494.02 374.73-0.42373-2.1186" fill="none" id="path2412" stroke="#000000" stroke-miterlimit="10" stroke-width="1px" />
        <path d="m496.99 372.19-1.2712-2.7542" fill="none" id="path2414" stroke="#000000" stroke-miterlimit="10" stroke-width="1px" />
        <path d="m488.94 378.12-0.63559-1.9068" fill="none" id="path2416" stroke="#000000" stroke-miterlimit="10" stroke-width="1px" />
        <path d="m509.49 393.17 3.3898 1.0593" fill="none" id="path2418" stroke="#000000" stroke-miterlimit="10" stroke-width="1px" />
        <path d="m512.46 391.68 2.1186 1.0593" fill="none" id="path2420" stroke="#000000" stroke-miterlimit="10" stroke-width="1px" />
        <path d="m501.65 398.46s3.8136 2.1186 5.7203 2.3305" fill="none" id="path2422" stroke="#000000" stroke-miterlimit="10" stroke-width="1px" />
        <path d="m493.39 402.91 2.3305 1.2712" fill="none" id="path2424" stroke="#000000" stroke-miterlimit="10" stroke-width="1px" />
        <path d="m487.46 403.97 2.9661 0.84746" fill="none" id="path2426" stroke="#000000" stroke-miterlimit="10" stroke-width="1px" />
        <path d="m498.9 399.73 2.1186 1.6949" fill="none" id="path2428" stroke="#000000" stroke-miterlimit="10" stroke-width="1px" />
        <path d="m496.99 372.19 1.2712 4.0254" fill="none" id="path2469" stroke="#000000" stroke-miterlimit="10" stroke-width="1px" />
        <path d="m494.02 374.73-0.6356 5.5085" fill="none" id="path2471" stroke="#000000" stroke-miterlimit="10" stroke-width="1px" />
        <path d="m482.37 383 1.6949 2.5424" fill="none" id="path2473" stroke="#000000" stroke-miterlimit="10" stroke-width="1px" />
    </g>
    <g id="E1-Stem">
        <path d="m269.87 473.46s1.6949-11.864-1.6949-27.966c-3.3898-16.102-3.8136-29.661-3.8136-29.661s-2.5424-62.288 0.42373-101.69c0 0 4.2373-14.407-6.3559-30.508 0 0-11.441 0-4.2373 14.407 0 0 8.0508 11.441 5.9322 27.542 0 0-5.0848 64.407 0 113.98 0 0 5.0848 18.644 3.8136 32.203 0 0 2.1186 7.2034 5.9322 1.6949z" fill="#55d400" id="path2535" stroke="#000000" stroke-miterlimit="10" stroke-width="1px" />
    </g>
    <g id="E1-Petiole">
        <path d="m262.91 418.81s30.561-33.258 71.909-37.153c5.1997-2.1844 17.046-2.4766 17.046-2.4766 2.0314-1.8497 0.77044-2.8762-1.6949-3.6017-8.4746-0.63559-12.954 2.4829-12.954 2.4829s-39.85 3.2958-61.123 21.573l-1.1985-5.6928s-5.6928 11.086-12.284 14.681" fill="#338000" id="path2537" stroke="#000000" stroke-miterlimit="10" stroke-width="1px" />
        <path d="m259.81 371.52c0.22047-0.17323-20.801-39.57-65.049-48.672-5.5054-2.3993-12.238-1.24-12.048-1.4974-1.5782-2.2488 0.93624-4.4127 3.5006-4.5819 5.5462 1.8234 9.0081 2.3929 9.3911 1.7474 0 0 40.114 10.575 56.879 33.059l1.8142-11.436c5e-3 0 1.0751 7.2681 5.1842 12.217" fill="#338000" id="path2608" stroke="#000000" stroke-miterlimit="10" stroke-width="1px" />
        <path d="m264.79 314.14s15.799-14.727 40.068-32.255c0 0 1.9475-1.9475 7.7902-6.1422l-0.44943-2.2472-8.8388 7.0411s-24.269 13.183-38.951 27.715" fill="#338000" id="path2657" stroke="#000000" stroke-miterlimit="10" stroke-width="1px" />
    </g>
    <g id="E1-LeafWithPetiolules">
        <path d="m334.82 381.66s-25.539 26.125-0.75051 41.379c0 0 17.797 19.492 23.093-3.3898 0 0 22.881-25.424-15.678-40.466" fill="#338000" id="path2545" stroke="#000000" stroke-miterlimit="10" stroke-width="1px" />
        <path d="m340.21 375.16s7.4152-29.237-16.949-34.534c0 0-20.551-7.839-20.339 11.017 0 0-3.3898 37.924 32.415 27.331" fill="#338000" id="path2547" stroke="#000000" stroke-miterlimit="10" stroke-width="1px" />
        <path d="m350.17 375.58s6.3559-4.661 13.983-14.619c0 0 6.9915-11.653 28.814-1.9068 0 0 27.331 7.4152 7.4153 20.763 0 0-13.347 24.576-36.017 8.8983l-12.5-9.5339" fill="#338000" id="path2549" stroke="#000000" stroke-miterlimit="10" stroke-width="1px" />
        <path d="m199.1 323.91c2.1114 0 17.266 32.163-15.561 33.945 1.8404-0.20665-13.132 7.9204-15.738-9.8276 0.41953 1.2586-7.819-24.824 26.96-25.176" fill="#338000" id="path2610" stroke="#000000" stroke-miterlimit="10" stroke-width=".88071px" />
        <path d="m197.22 318.39c-1.0001-0.21431 2.452-30.123 26.687-24.919 0.54674-1.2497 20.127-3.5971 11.501 15.17 0 0-10.347 29.578-33.585 9.4702" fill="#338000" id="path2612" stroke="#000000" stroke-miterlimit="10" stroke-width=".823px" />
        <path d="m186.21 316.77s-3.9628-5.716-9.5053-14.33c0 0-5.8109-9.5012-24.222-3.0266-2.641-1.5535-26.822 2.8566-7.4216 17.452 0 0 8.4729 19.096 27.97 7.8496l11.559-5.1269" fill="#338000" id="path2614" stroke="#000000" stroke-miterlimit="10" stroke-width=".81661px" />
        <path d="m304.86 281.89s-8.2396 24.269 13.633 25.318c0.29962 0.14981 10.936 2.5468 10.786-7.3407 0 0 9.5879-22.022-19.775-22.322" fill="#338000" id="path2659" stroke="#000000" stroke-miterlimit="10" stroke-width="1px" />
        <path d="m306.8 277.24s-1.9475-22.172-22.172-16.929c0 0-9.2883 0.44944-6.1422 11.535 0 0 4.7939 20.224 21.273 11.535" fill="#338000" id="path2663" stroke="#000000" stroke-miterlimit="10" stroke-width="1px" />
        <path d="m312.2 273.5c6.7415-26.966 22.322-22.771 22.322-22.771s14.981-3.2958 10.187 10.037c0 0-0.89886 17.977-20.974 16.329 0 0-7.94-3.146-11.086-1.3483" fill="#338000" id="path2669" stroke="#000000" stroke-miterlimit="10" stroke-width="1px" />
    </g>
    <g id="g1038">
        <path d="m326.44 378.97s1.2712-2.3305-2.5424-7.6271c0 0-3.8136-4.661-1.9068-9.322 0 0 2.9661-2.9661 6.9915-2.7542 0 0 3.3898 1.0593 3.8136-0.63559 0 0 0.6356 8.0508 4.2373 8.6864 0 0 2.5424-2.5424 2.7542-5.0848l1.2712-0.21186s1.6949 7.4152-0.84745 13.136-14.195 5.7203-14.195 5.7203z" fill="#000000" id="path2551" stroke="#000000" stroke-miterlimit="10" stroke-width="1px" />
        <path d="m334.82 381.66-1.598 3.0318s-0.63559 1.6949 1.6949 2.1186c0 0-4.4492 4.4492-0.84746 5.0848 0 0-3.6017 8.0508 1.2712 6.3559 0 0 0.42373 5.2966 4.661 5.0848 0 0 5.0848 2.3305 6.7797-0.21187 0 0 5.0848-0.42372 3.6017-4.8729 0 0 2.7542-2.3305-0.84746-2.7542 0 0-0.21186-2.9661 3.178-4.0254 0 0 3.8136-2.3305 2.9661-4.661 0 0-6.1441-4.4491-14.195-7.6271z" fill="#000000" id="path2561" stroke="#000000" stroke-miterlimit="10" stroke-width="1px" />
    </g>
    <g id="g1044">
        <path d="m352.29 376.22 17.373-2.5424 5.7203-7.6271-4.4492 1.2712s-0.42373-0.84746-3.178-0.42373c0 0-0.63559-2.3305-4.0254-0.84746h-3.178l-10.381 9.5339z" fill="#000000" id="path2553" stroke="#000000" stroke-miterlimit="10" stroke-width="1px" />
        <path d="m364.15 388.51s1.6949-3.8136 6.7797-3.3898c0 0 2.7542 0.84746 4.0254-2.5424 0 0 4.661 2.5424 4.2373-3.6017 0 0 3.178-0.84746 2.1186-4.4492 0 0-20.975 0.84746-29.449 4.661z" fill="#000000" id="path2555" stroke="#000000" stroke-miterlimit="10" stroke-width="1px" />
    </g>
    <g id="g1056">
        <path d="m208.49 321.13s-0.16087-2.1788 4.4976-4.853c0 0 1.8957 1.3977 2.0504-2.744 0 0 1.9307-5.1788-1.1586-6.388-0.19641 0.78563-7.2986 0.45432-6.8372-1.7724-0.72936 0-0.0633 5.8186-1.0345 5.0711 0 0-4.787 3.5224-4.0818 1.5447l-2.9782-3.7368s-1.693 4.9822-1.7313 10.134c3.8586 1.2548 9.8869 2.0782 8.9956 2.9694z" fill="#000000" id="path2618" stroke="#000000" stroke-miterlimit="10" stroke-width=".823px" />
        <path d="m201.2 326.45-0.44043 4.067s-0.1961 1.5821-2.1877 0.96118c0 0 1.6552 5.2885-1.4149 4.3139 0 0-0.4768 7.753-3.5872 4.4407 0 0-2.4934 3.9601-5.7134 2.0646 0 0-4.9194-0.25763-5.2039-2.9336 0 0-3.7948-2.4069-0.82083-5.2732 0 0-1.1976-2.9432 1.7859-1.8032 0 0 1.3764-2.2281-0.83622-4.4388 0 0-2.0243-1.578-0.41136-3.0506 0 0 6.6112-2.7608 14.191-1.9533z" fill="#000000" id="path2626" stroke="#000000" stroke-miterlimit="10" stroke-width=".88071px" />
    </g>
    <g id="g1062">
        <path d="m184.45 317.14-13.97-3.2293-6.4159-2.8591c-1.3241-2.0793 0.79768-1.5741 1.486-2.1439l0.78357-1.5864 3.5361 1.3317s0.40146-0.66142 2.6148-0.13263c0 0 0.67292-1.8543 3.3328-0.42091l2.5865 0.21222 7.8124 8.4526z" fill="#000000" id="path2620" stroke="#000000" stroke-miterlimit="10" stroke-width=".81661px" />
        <path d="m174.12 323.36s-1.2746-0.22072-5.4412-0.21542c0 0-2.2982 0.5058-3.1064-2.338 0 0-3.9632 1.7579-3.2081-3.2143 0 0-2.5299-0.90195-1.4272-3.7625 0 0 14.077 2.4991 20.719 6.1688-3.7156 2.9015-4.0735 1.6428-7.5364 3.3614z" fill="#000000" id="path2622" stroke="#000000" stroke-miterlimit="10" stroke-width=".81661px" />
    </g>
    <g id="g1070">
        <path d="m299.34 283.29s-0.31169-2.1454-4.4044-3.3091c0 0-1.1696 1.9187-2.1139-2.0201 0 0-2.5082-4.3993-0.38896-6.4978 0.30677 0.69659 5.6672-1.7714 4.8705-3.7746 0.55727-0.22071 1.2089 5.5802 1.8019 4.5669 0 0 4.3601 1.941 3.4268 0.2513l1.5302-4.4972s2.2873 4.2821 3.3441 9.228c-2.6979 2.3752-7.3736 4.4603-6.5148 5.0483z" fill="#000000" id="path2671" stroke="#000000" stroke-miterlimit="10" stroke-width=".73409px" />
        <path d="m306.92 280.14 0.24526 2.9322s0.10918 1.1407 1.2182 0.69298c0 0-0.92167 3.8129 0.78788 3.1102 0 0 0.26551 5.5897 1.9975 3.2016 0 0 1.3884 2.8551 3.1815 1.4885 0 0 2.7394-0.18575 2.8978-2.115 0 0 2.1131-1.7353 0.45708-3.8018 0 0 0.6669-2.122-0.99448-1.3 0 0-0.76647-1.6064 0.46564-3.2003 0 0 1.1272-1.1377 0.22907-2.1994 0 0-3.6814-1.9904-7.9023-1.4083z" fill="#000000" id="path2673" stroke="#000000" stroke-miterlimit="10" stroke-width=".55803px" />
        <path d="m312.2 273.5s2.0616-6.6014 3.6506-9.5675l1.1652 0.52966s6.1441-3.4958 5.5085-0.95339c0 0 5.0847-4.767 5.9322-0.74153 0 0 5.2966 2.0127 2.5424 3.7076 0 0 1.589 2.6483-0.95339 4.0254 0 0-0.42372 2.4364-3.8136 3.178 0 0-0.96757 3.3387-2.4965 3.4172 0 0-7.94-3.146-11.086-1.3483" fill="#000000" id="path2681" stroke="#000000" stroke-miterlimit="10" stroke-width="1px" />
    </g>
    <g id="E1-Root">
        <path d="m267.15 765.83c-0.61966-7.9604-1.1314-24.584-1.1372-36.941l-0.0111-22.467-7.0174-13.63c-5.9397-11.536-7.0174-15.28-7.0174-24.375 0-11.385 2.9022-28.069 5.4324-31.23 1.1832-1.4782 4.8818-21.459 5.0589-27.33 0.0888-2.9424-7.4725 1.2901-11.804 6.6076-2.6549 3.259-6.9556 8.5557-9.5571 11.77-2.7743 3.4283-7.5919 6.7025-11.652 7.9189-5.357 1.605-8.6506 4.444-14.568 12.557-4.663 6.3936-10.555 12.034-15.102 14.457-7.7867 4.1496-7.5967 3.6847-8.1946 20.051-0.0761 2.0853-0.73062 4.3878-1.4543 5.1169-0.72367 0.72899-1.3278 2.9702-1.3426 4.9803-0.0214 2.9036-0.35817 3.1312-1.6386 1.1071-0.88644-1.4013-1.2458-3.1399-0.79848-3.8636 0.4473-0.72372 1.238-6.0902 1.7573-11.926 0.95992-10.788-0.37295-13.019-4.6792-7.8302-3.0866 3.7191-17.471 13.551-17.231 11.778 0.10405-0.76997 4.4144-5.2388 9.5784-9.9308 6.66-6.0511 11.684-9.0202 17.284-10.215 7.9659-1.699 10.483-3.8921 22.746-19.822 2.784-3.6164 8.7048-8.2368 13.158-10.268 7.1675-3.269 7.6018-3.768 3.7871-4.3517-2.3698-0.36237-7.3202 0.24287-11.001 1.3458-3.6806 1.1027-7.3852 1.5765-8.2326 1.0528-0.84735-0.52357-4.9758 0.60656-9.1742 2.5117-8.5734 3.8904-12.019 4.39-12.019 1.7428 0-0.98901 2.3848-2.2752 5.2996-2.8581 2.9147-0.58294 5.7244-1.7474 6.2437-2.5876 0.51929-0.84029 3.7126-1.5278 7.0962-1.5278 3.3836 0 7.7249-0.84175 9.6472-1.8706 1.9224-1.0288 7.144-2.1679 11.604-2.5313 6.4083-0.52246 8.9344-1.7163 12.048-5.6952 2.167-2.769 7.238-7.3199 11.269-10.113l7.3287-5.0788-0.69107-10.6c-0.38022-5.8303-2.1089-13.364-3.8417-16.741-6.0581-11.807-5.1342-41.321 1.5012-47.956 3.8675-3.8675 6.1576-15.211 6.168-30.551 7e-3 -10.451-0.59972-14.454-2.1832-14.405-1.2061 0.0384-6.5349 2.6226-11.842 5.7444-7.7514 4.5599-10.476 7.4463-13.857 14.677-3.83 8.1932-5.2776 9.4881-16.127 14.426-15.171 6.905-26.778 19.462-27.271 29.502-0.17906 3.6478-1.2369 11.369-2.3508 17.158-1.1139 5.7893-1.9423 13.479-1.841 17.089 0.21267 7.5736-2.4823 13.612-6.0752 13.612-2.5215 0-2.3935-8.7595 0.35903-24.561 0.58826-3.3771 0.89019-7.5276 0.67094-9.2232-0.21923-1.6956 0.83613-4.3177 2.3453-5.8269 2.5903-2.5903 3.6957-6.0021 1.9447-6.0021-0.43963 0-3.547 1.8646-6.9054 4.1438-3.3584 2.279-9.2822 4.6516-13.164 5.2723-5.3566 0.85656-10.141 3.8719-19.848 12.509-12.105 10.77-17.176 13.621-17.176 9.6533 0-0.96489 0.67234-1.7544 1.4941-1.7544s6.8538-4.7314 13.404-10.514c8.2553-7.2877 14.796-11.424 21.312-13.478 5.1711-1.63 9.4021-3.609 9.4021-4.3977 0-0.78868 1.1658-1.4339 2.5907-1.4339s5.7279-4.1446 9.5622-9.2103c13.547-17.898 15.958-20.198 25.509-24.332 16.664-7.2142 13.114-7.9766-17.487-3.7554-5.7893 0.79866-12.5 2.7108-14.912 4.2493-6.3256 4.0343-15.789 5.5321-15.789 2.4989 0-1.3779 2.7896-2.9101 6.5788-3.6132 3.6183-0.67145 7.8595-2.3693 9.4249-3.7731 1.5654-1.4037 7.1026-2.7884 12.305-3.077 5.2024-0.28838 11.208-1.4608 13.346-2.6048 2.1376-1.1441 5.7643-1.6088 8.0593-1.0328 5.3956 1.3542 16.115-3.1462 19.049-7.997 2.7913-4.6162 28.786-24.544 32.016-24.544 2.3982 0 4.4168 5.2083 4.4586 11.504 0.0148 2.1984 2.9389 5.7582 7.4799 9.1052 4.1008 3.0226 9.6845 7.2297 12.408 9.3489 4.9178 3.8264 11.016 4.8378 34.52 5.7254 5.3069 0.20064 13.308 1.0136 17.781 1.8073 5.2462 0.93071 9.3987 0.76522 11.7-0.46656 3.797-2.0321 19.64-0.69806 19.64 1.6538 0 1.2869-16.834 3.4664-26.315 3.4069-6.131-0.0384-28.897-1.6585-39.911-2.8401-5.844-0.6269-9.2103-0.32072-9.2103 0.8378 0 3.5991 8.0645 10.793 17.543 15.649 7.5734 3.88 11.397 7.4794 17.775 16.733 9.4944 13.775 13.05 16.776 26.084 22.009 9.2524 3.7152 33.01 23.974 30.757 26.227-0.98103 0.98101-2.7602-0.4205-17.745-13.981-6.393-5.7853-11.017-8.4244-16.335-9.3229-5.2279-0.88325-9.3279-3.1808-13.889-7.7834-9.6986-9.7864-14.366-15.364-14.366-17.166 0-0.88958-2.2695-3.7917-5.0433-6.4492l-5.0433-4.8318-1.0998 4.3818c-0.60486 2.41-0.433 6.2129 0.38196 8.4508 1.6331 4.4848 1.2635 48.405-0.4216 50.09-2.1092 2.1092-3.342-1.4052-3.0582-8.7181 0.48835-12.584 0.42515-19.348-0.27493-29.408-0.3693-5.3069-0.79713-13.265-0.95072-17.686-0.23833-6.8574-0.98723-8.402-5.1037-10.526-6.4583-3.3324-10.449-8.0027-14.492-16.962-2.3136-5.1263-5.9571-9.099-11.665-12.719-4.5654-2.8953-8.9358-5.2642-9.7117-5.2642-0.776 0-1.4109 3.6583-1.4109 8.1296 0 8.0622-2.8796 20.898-5.4709 24.386-1.7046 2.2947-5.0244 22.504-5.0419 30.694-0.013 5.5234 1.0466 6.9466 9.7854 13.158 5.4523 3.8752 12.668 11.244 16.267 16.613 4.192 6.2532 7.8976 9.8533 10.53 10.23 4.0174 0.57437 17.156 12.506 23.934 21.735l3.5046 4.7719 9.5926-2.579c11.115-2.9884 19.354-3.3394 19.354-0.8247 0 0.96486-0.59209 1.8561-1.3158 1.9805-0.72367 0.12436-3.2894 0.50437-5.7016 0.8439-20.496 2.8865-21.758 4.6122-7.5262 10.298 8.3714 3.3444 33.234 23.719 28.944 23.719-1.0928 0-6.7371-4.2385-12.543-9.4189-7.5526-6.7391-12.499-9.7296-17.387-10.511-7.2859-1.1651-15.063-7.7128-22.17-18.666-4.8843-7.5271-12.774-15.021-14.255-13.541-0.60104 0.60103-1.1609 12.578-1.244 26.614-0.15271 25.75-1.7024 33.293-3.3514 16.311-0.8599-8.8555-0.31764-22.454 1.4865-37.28 0.79086-6.4988 0.39682-7.3083-5.3325-10.954-3.4025-2.165-7.754-7.0091-9.67-10.765-3.4497-6.762-16.262-18.558-18.129-16.691-0.53289 0.5329 0.24358 4.5273 1.7255 8.8765 3.6418 10.688 2.2483 31.926-2.823 43.026-4.7308 10.354-7.8338 33.813-6.4854 49.031 0.73706 8.3192 2.913 15.588 7.6148 25.438 5.2727 11.046 6.5045 15.536 6.1894 22.562-0.21631 4.8244-0.86729 20.021-1.4465 33.771s-1.666 24.999-2.4149 24.999c-0.74894 0-1.8687-6.513-2.4884-14.473z" fill="#d38d5f" id="path3394" stroke="#000000" stroke-miterlimit="10" stroke-width="1.7543" />
    </g>
    <g id="E2-Nodule-4d">
        <path d="m894.57 514.64 0.60169-64.983 6.9195 0.30084s-0.90255 16.847 1.2034 33.695c2.1059 16.847 0 30.686 0 30.686z" fill="#ffdd55" id="path3420" stroke="#000000" stroke-miterlimit="10" stroke-width="0.5" />
        <path d="m899.43 502.08c1.7031-2.9498 9.9942-7.8076 15.534-4.6091 5.5399 3.1985 4.1248 5.4199 2.4217 8.3698-1.7031 2.9498-7.5747 7.2609-13.115 4.0625-1.4223-0.82118-2.5456-1.5419-3.401-2.2096" fill="#ffdd55" fill-rule="evenodd" id="path3426" stroke="#000000" stroke-miterlimit="10" stroke-width="0.5" />
        <path d="m900.77 473.02c1.9108-3.3096 10.098-1.1626 14.414 1.3297 4.3168 2.4923 8.9325 7.0177 7.0218 10.327-1.9108 3.3096-9.6244 1.4424-13.941-1.0499-2.086-1.2044-4.3873-2.8964-5.9931-4.697" fill="#ffdd55" fill-rule="evenodd" id="path3428" stroke="#000000" stroke-miterlimit="10" stroke-width="0.5" />
        <path d="m896.88 464.5c-2.9188 0.70231-4.5974-0.40941-8.7175-0.38196-4.1537 0.0266-6.5297-0.70793-6.5297-3.7818-1e-5 -3.242 2.4487-7.0064 5.9619-3.1801 4.4222 1.955 8.6783 2.4665 9.8918 4.1563" fill="#ffdd55" fill-rule="evenodd" id="path3430" stroke="#000000" stroke-miterlimit="10" stroke-width="0.5" />
        <path d="m896.37 474.42c-0.81315 1.3618-2.3292 1.801-5.8588 0.85525-4.7077-1.2614-9.3543-2.4053-8.523-5.5081 0.83138-3.1028 2.3143-3.3834 7.021-2.118 4.6921 1.2614 7.7576 0.63107 8.1998 3.7338" fill="#ffdd55" fill-rule="evenodd" id="path3432" stroke="#000000" stroke-miterlimit="10" stroke-width="0.5" />
    </g>
    <g id="g1128">
        <path d="m961.22 436.76-0.71095 76.782" fill="none" id="path3288" stroke="#000000" stroke-miterlimit="10" stroke-width="1.1816" />
        <path d="m969.4 437.11s-1.0664 19.906 1.4219 39.813c2.4883 19.906 0 36.258 0 36.258" fill="none" id="path3290" stroke="#000000" stroke-miterlimit="10" stroke-width="1.1816" />
    </g>
    <g id="E2-Nodule-10d">
        <path d="m966.25 498.7c2.0123-3.4854 11.809-9.2251 18.354-5.446 6.5458 3.7792 4.8738 6.404 2.8614 9.8894-2.0123 3.4854-8.95 8.5793-15.496 4.8001-1.6805-0.97027-3.0078-1.8219-4.0185-2.6108" fill="#ffe680" fill-rule="evenodd" id="path3294" stroke="#000000" stroke-miterlimit="10" stroke-width="1.1816" />
        <path d="m967.83 464.37c2.2577-3.9105 11.931-1.3737 17.031 1.5711 5.1006 2.9448 10.554 8.2918 8.2967 12.202-2.2577 3.9105-11.372 1.7043-16.473-1.2405-2.4648-1.423-5.1839-3.4223-7.0812-5.5498" fill="#ffe680" fill-rule="evenodd" id="path3296" stroke="#000000" stroke-miterlimit="10" stroke-width="1.1816" />
        <path d="m963.24 454.3c-3.4488 0.82982-5.4322-0.48374-10.3-0.4513-4.9079 0.0315-7.7152-0.83647-7.7152-4.4684-1e-5 -3.8306 2.8933-8.2786 7.0444-3.7575 5.2251 2.31 10.254 2.9143 11.688 4.9109" fill="#ffe680" fill-rule="evenodd" id="path3298" stroke="#000000" stroke-miterlimit="10" stroke-width="1.1816" />
        <path d="m962.63 466.03c-0.96079 1.609-2.7521 2.128-6.9225 1.0105-5.5625-1.4905-11.053-2.842-10.07-6.5082 0.98234-3.6662 2.7345-3.9977 8.2957-2.5025 5.544 1.4905 9.1662 0.74565 9.6886 4.4118" fill="#ffe680" fill-rule="evenodd" id="path3300" stroke="#000000" stroke-miterlimit="10" stroke-width="1.1816" />
    </g>
    <g id="g1162">
        <path d="m1027.1 416.42-0.9542 103.05" fill="none" id="path3306" stroke="#000000" stroke-miterlimit="10" stroke-width="1.5858" />
        <path d="m1038 416.9s-1.4312 26.716 1.9083 53.433c3.3396 26.716 0 48.662 0 48.662" fill="none" id="path3308" stroke="#000000" stroke-miterlimit="10" stroke-width="1.5858" />
    </g>
    <g id="E2-Nodule-14d">
        <path d="m1033.8 499.55c2.7007-4.6778 15.848-12.381 24.634-7.3091 8.7851 5.0721 6.5412 8.5949 3.8404 13.273-2.7007 4.6777-12.012 11.514-20.797 6.4422-2.2554-1.3022-4.0368-2.4452-5.3932-3.5039" fill="#ffe680" fill-rule="evenodd" id="path3312" stroke="#000000" stroke-miterlimit="10" stroke-width="1.5858" />
        <path d="m1035.9 453.47c3.03-5.2483 16.012-1.8437 22.858 2.1086 6.8455 3.9523 14.165 11.129 11.135 16.377s-15.262 2.2873-22.108-1.6649c-3.3081-1.9099-6.9574-4.593-9.5038-7.4484" fill="#ffe680" fill-rule="evenodd" id="path3314" stroke="#000000" stroke-miterlimit="10" stroke-width="1.5858" />
        <path d="m1029.8 439.96c-4.6287 1.1137-7.2906-0.64923-13.824-0.60569-6.5869 0.0422-10.355-1.1226-10.355-5.9971 0-5.1411 3.8831-11.111 9.4542-5.0429 7.0127 3.1003 13.762 3.9113 15.686 6.5909" fill="#ffe680" fill-rule="evenodd" id="path3316" stroke="#000000" stroke-miterlimit="10" stroke-width="1.5858" />
        <path d="m1029 455.7c-1.2895 2.1594-3.6936 2.856-9.2908 1.3562-7.4654-2.0004-14.834-3.8143-13.516-8.7346 1.3184-4.9204 3.67-5.3653 11.134-3.3587 7.4407 2.0004 12.302 1.0007 13.003 5.9211" fill="#ffe680" fill-rule="evenodd" id="path3318" stroke="#000000" stroke-miterlimit="10" stroke-width="1.5858" />
    </g>
    <g id="g864">
        <path d="m410.1 645.3-0.89868 97.058" fill="none" id="path3340" stroke="#000000" stroke-miterlimit="10" stroke-width="1.4936" />
        <path d="m420.44 645.75s-1.348 25.163 1.7974 50.326c3.1454 25.163 0 45.833 0 45.833" fill="none" id="path3342" stroke="#000000" stroke-miterlimit="10" stroke-width="1.4936" />
    </g>
    <g id="E1-NoduleMature">
        <path d="m416.46 723.6c2.5437-4.4058 14.927-11.661 23.201-6.8841 8.2743 4.7772 6.1608 8.0951 3.6171 12.501-2.5437 4.4058-11.313 10.845-19.588 6.0676-2.1243-1.2265-3.8021-2.303-5.0796-3.3002" fill="#ffe680" fill-rule="evenodd" id="path3346" stroke="#000000" stroke-miterlimit="10" stroke-width="1.4936" />
        <path d="m418.45 680.2c2.8539-4.9431 15.081-1.7365 21.529 1.986s13.341 10.481 10.488 15.425c-2.8539 4.9431-14.375 2.1543-20.822-1.5681-3.1157-1.7988-6.5528-4.326-8.9512-7.0153" fill="#ffe680" fill-rule="evenodd" id="path3348" stroke="#000000" stroke-miterlimit="10" stroke-width="1.4936" />
        <path d="m412.65 667.47c-4.3595 1.049-6.8667-0.61148-13.02-0.57048-6.204 0.0398-9.7526-1.0574-9.7526-5.6484-1e-5 -4.8422 3.6573-10.465 8.9046-4.7497 6.6049 2.92 12.962 3.6839 14.774 6.2077" fill="#ffe680" fill-rule="evenodd" id="path3350" stroke="#000000" stroke-miterlimit="10" stroke-width="1.4936" />
        <path d="m411.88 682.3c-1.2145 2.0339-3.4788 2.69-8.7505 1.2774-7.0314-1.8841-13.971-3.5925-12.73-8.2268 1.2417-4.6343 3.4566-5.0533 10.486-3.1634 7.008 1.8841 11.587 0.94256 12.247 5.5768" fill="#ffe680" fill-rule="evenodd" id="path3352" stroke="#000000" stroke-miterlimit="10" stroke-width="1.4936" />
    </g>
    <g id="E1-Pod">
        <path d="m537.11 160.61c7.0942 4.5347 15.283 14.772 15.283 14.772-10.124-6.6156-18.826-7.7347-18.826-7.7347 0.33277 2.8731-1.818 4.3478-1.818 4.3478 7.2039 7.7774 5.1759 18.654 5.1759 18.654-0.99859-3.0229-5.1864-9.282-5.1864-9.282l4.2573 13.41-7.2373-6.3858c-4.4411-0.16002-7.867 2.0071-7.867 2.0071-1.0422 2.144-3.0263 2.257-3.0263 2.257l1.3681 3.246-3.1493-1.5482-3.6489 2.5366c-0.70936 5.017 2.6992 14.738 2.6992 14.738l-6.0188-8.0702c0.23947 4.531 2.8089 17.981 2.8089 17.981-5.5624-12.585-12.014-19.353-12.014-19.353l-11.842-0.84624c-2.1075 1.9042-6.9857 21.093-6.9857 21.093s0.0571-10.201-1.9469-13.73c-2.004-3.529-2.6828-9.8379-2.6828-9.8379-2.1974 2.3037-5.0776 10.75-5.0776 10.75 2.1411-8.8921-1.3574-18.214-1.3574-18.214-6.1256-1.3786-6.0066 14.878-6.0066 14.878l-3.9802-28.318c-4.1884 4.9336-8.8627 8.9184-8.8627 8.9184 4.0453-6.7846 2.6342-16.056 2.6342-16.056l-2.6336 4.8638 2.0447-11.572-6.4281-9.9812c3.0594 1.9477 7.101 2.0178 7.101 2.0178l-7.5398-14.988 8.4923 7.6476 2.6868-2.6133c-12.503-19.044 14.484-34.516 14.484-34.516l-2.7029-7.8836 6.0255 5.5534s3.4957-0.61237 9.2684-0.15265c5.7728 0.45973 10.168-4.1476 10.168-4.1476l-0.37263-4.561c11.299 4.5016 18.782 18.498 18.782 18.498l1.0619 1.4982s3.2862-5.2766 2.8468-7.0544c0 0 10.822 16.567 8.6249 18.87 0 0 0.60899 4.7541 2.4532 7.1279 1.8442 2.3738 3.6418 5.5766 3.6418 5.5766l8.3566-7.913-3.5163 13.759s4.8672 1.3752 6.7216-0.0263c0 0-7.9105 7.174-6.2594 9.7841z" fill="#ff9955" id="path2168" stroke="#000000" stroke-miterlimit="10" stroke-width=".64426px" />
        <path d="m476.45 198.87s2.6936-5.1301 4.345-8.1163" fill="#ff9955" id="path2170" stroke="#000000" stroke-miterlimit="10" stroke-width=".64426px" />
        <path d="m470.02 191.4s2.1742-4.6874-0.26236-12.511" fill="#ff9955" id="path2172" stroke="#000000" stroke-miterlimit="10" stroke-width=".64426px" />
        <path d="m453.8 170.82s1.1221-4.3645 5.4069-6.6181" fill="#ff9955" id="path2174" stroke="#000000" stroke-miterlimit="10" stroke-width=".64426px" />
        <path d="m477.58 176.46s7.0841 8.31 8.9481 14.326c0 0 0.97601-10.553 4.2888-14.705" fill="#ff9955" id="path2176" stroke="#000000" stroke-miterlimit="10" stroke-width=".64426px" />
        <path d="m486.88 173.65s3.8019 1.1355 6.2353 4.6212c0 0 0.55953-4.3512 3.7024-5.8825" fill="#ff9955" id="path2178" stroke="#000000" stroke-miterlimit="10" stroke-width=".64426px" />
        <path d="m506.04 196.71s-2.7863-4.4046-0.81168-11.935c0 0-3.5655-0.94229-5.3334 1.3181" fill="#ff9955" id="path2180" stroke="#000000" stroke-miterlimit="10" stroke-width=".64426px" />
        <path d="m503.99 177.22s5.7756 10.394 12.094 17.133" fill="#ff9955" id="path2182" stroke="#000000" stroke-miterlimit="10" stroke-width=".64426px" />
        <path d="m517.86 192.66s-4.8468-8.9258-4.1372-19.539c0 0 0.95223-1.7444 3.6156-1.145" fill="#ff9955" id="path2184" stroke="#000000" stroke-miterlimit="10" stroke-width=".64426px" />
        <path d="m526.5 184.11s1.3981 3.1128 2.2536 4.2848" fill="#ff9955" id="path2186" stroke="#000000" stroke-miterlimit="10" stroke-width=".64426px" />
        <path d="m531.74 181.37s-0.37602-3.3026-1.348-5.2002" fill="#ff9955" id="path2188" stroke="#000000" stroke-miterlimit="10" stroke-width=".64426px" />
        <path d="m520.76 176.66s5.3433 0.50299 10.441-6.6045c0 0-0.82645 15.484-8.4036 14.338 0 0-0.83577 2.4702-2.9398 3.116" fill="#ff9955" id="path2190" stroke="#000000" stroke-miterlimit="10" stroke-width=".64426px" />
        <path d="m527.63 172.89 4.4049-8.3826s-0.35593-5.2568 1.8816-11.469c0 0-8.3233 6.5214-9.6818 10.693l-4.358 1.9573" fill="#ff9955" id="path2192" stroke="#000000" stroke-miterlimit="10" stroke-width=".64426px" />
        <path d="m519.88 165.69s-7.4341 0.70539-6.7275-14.246c0 0-5.7366 8.0829-9.9315 9.9371" fill="#ff9955" id="path2194" stroke="#000000" stroke-miterlimit="10" stroke-width=".64426px" />
        <path d="m457.52 146.2s5.1298 8.2899 21.653 8.2309" fill="#ff9955" id="path2196" stroke="#000000" stroke-miterlimit="10" stroke-width=".64426px" />
        <path d="m469.29 153.6s0.75544 5.3467 3.8615 6.4654" fill="#ff9955" id="path2198" stroke="#000000" stroke-miterlimit="10" stroke-width=".64426px" />
        <path d="m517.92 154.48s-0.46254-4.1615 4.0484-2.4467l6.8545 5.6" fill="#ff9955" id="path2200" stroke="#000000" stroke-miterlimit="10" stroke-width=".64426px" />
        <path d="m514.24 120.49-0.41307 4.9438" fill="#ff9955" id="path2202" stroke="#000000" stroke-miterlimit="10" stroke-width=".64426px" />
        <path d="m478.2 122.73c4.138 2.7501 8.3162 1.5918 8.3162 1.5918 1.5281-1.1951 0.56942-2.5301 0.56942-2.5301-10.936-1.7617-14.509 5.4091-14.509 5.4091-3.546 8.2961 6.7343 11.729 6.7343 11.729l5.9498-10.274c-0.87931 7.6371 2.3031 13.39 2.3031 13.39 11.169 3.2132 21.027-7.0201 21.027-7.0201 1.4716-2.1872 2.9238-13.613 2.9238-13.613l4.9667 8.3931s5.0501 4.9141 6.1185 9.4918" fill="#ff9955" id="path2204" stroke="#000000" stroke-miterlimit="10" stroke-width=".64426px" />
        <path d="m525.71 132.3s-4.7748 13.756-10.827 18.27" fill="#ff9955" id="path2206" stroke="#000000" stroke-miterlimit="10" stroke-width=".64426px" />
        <path d="m426.25 131.57c2.583-7.134 9.963-16.359 9.963-16.359-3.813 10.209-3.075 18.081-3.075 18.081 2.46-0.861 4.182 0.73801 4.182 0.73801 5.412-7.872 15.375-8.241 15.375-8.241-2.46 1.476-7.134 6.396-7.134 6.396l10.947-6.396-4.182 7.626c0.73801 3.936 3.321 6.519 3.321 6.519 2.091 0.49201 2.583 2.214 2.583 2.214l2.583-1.845-0.73799 3.075 2.952 2.706c4.551-0.36901 12.423-5.289 12.423-5.289l-5.904 6.888c3.936-1.107 15.252-6.027 15.252-6.027-9.963 7.38-14.637 14.391-14.637 14.391l1.599 10.578c2.091 1.476 19.926 1.968 19.926 1.968s-8.979 1.968-11.685 4.428c-2.706 2.46-8.118 4.305-8.118 4.305 2.46 1.476 10.455 2.337 10.455 2.337-8.241-0.12295-15.744 4.797-15.744 4.797 0 5.658 14.268 2.337 14.268 2.337l-24.108 9.102c5.166 2.706 9.594 6.027 9.594 6.027-6.765-2.214-14.637 0.86101-14.637 0.86101l4.797 1.353-10.578 0.49199-7.503 7.626c1.107-3.075 0.36898-6.642 0.36898-6.642l-11.685 9.594 5.043-8.979-2.829-1.845c-14.268 14.76-33.21-5.904-33.21-5.904l-6.396 3.936 3.69-6.396s-1.23-2.952-1.968-8.118c-0.738-5.166-5.658-8.118-5.658-8.118l-3.936 1.23c1.722-10.824 12.546-20.172 12.546-20.172l1.107-1.23s-5.289-1.845-6.765-1.107c0 0 12.423-12.792 14.883-11.316 0 0 4.059-1.476 5.781-3.567 1.722-2.091 4.182-4.305 4.182-4.305l-8.61-5.781 12.792 0.36901s0.246-4.551-1.353-5.904c0 0 7.872 5.535 9.84 3.567z" fill="#ff9955" id="path2128" stroke="#000000" stroke-miterlimit="10" stroke-width=".58056px" />
        <path d="m471.88 177.32s-5.043-1.353-7.995-2.214" fill="#ff9955" id="path2130" stroke="#000000" stroke-miterlimit="10" stroke-width=".58056px" />
        <path d="m466.59 184.46s-4.551-0.98399-10.947 2.706" fill="#ff9955" id="path2132" stroke="#000000" stroke-miterlimit="10" stroke-width=".58056px" />
        <path d="m451.71 202.79s-4.059-0.12295-6.888-3.444" fill="#ff9955" id="path2134" stroke="#000000" stroke-miterlimit="10" stroke-width=".58056px" />
        <path d="m451.96 180.77s5.904-7.872 10.824-10.701c0 0-9.471 1.23-13.776-0.86099" fill="#ff9955" id="path2136" stroke="#000000" stroke-miterlimit="10" stroke-width=".58056px" />
        <path d="m447.65 173.14s0.24601-3.567 2.829-6.396c0 0-3.936 0.36901-5.904-2.091" fill="#ff9955" id="path2138" stroke="#000000" stroke-miterlimit="10" stroke-width=".58056px" />
        <path d="m464.13 151.74s-3.321 3.321-10.332 3.075c0 0-0.12295 3.321 2.214 4.428" fill="#ff9955" id="path2140" stroke="#000000" stroke-miterlimit="10" stroke-width=".58056px" />
        <path d="m447.41 157.4s7.995-7.134 12.669-14.022" fill="#ff9955" id="path2142" stroke="#000000" stroke-miterlimit="10" stroke-width=".58056px" />
        <path d="m458.23 142.15s-6.888 6.027-16.359 7.503c0 0-1.722-0.49199-1.722-2.952" fill="#ff9955" id="path2144" stroke="#000000" stroke-miterlimit="10" stroke-width=".58056px" />
        <path d="m449 136.24s2.46-1.845 3.321-2.829" fill="#ff9955" id="path2146" stroke="#000000" stroke-miterlimit="10" stroke-width=".58056px" />
        <path d="m445.56 132.18s-2.829 0.984-4.305 2.214" fill="#ff9955" id="path2148" stroke="#000000" stroke-miterlimit="10" stroke-width=".58056px" />
        <path d="m443.59 142.76s-0.615-4.797-7.872-7.872c0 0 13.776-2.337 14.268 4.551 0 0 2.337 0.24601 3.321 1.968" fill="#ff9955" id="path2150" stroke="#000000" stroke-miterlimit="10" stroke-width=".58056px" />
        <path d="m438.92 137.47-8.241-2.214s-4.551 1.353-10.455 0.61501c0 0 7.38 6.027 11.316 6.396l2.583 3.444" fill="#ff9955" id="path2152" stroke="#000000" stroke-miterlimit="10" stroke-width=".58056px" />
        <path d="m434.12 145.71s2.091 6.396-11.193 8.733c0 0 8.241 3.444 10.701 6.765" fill="#ff9955" id="path2154" stroke="#000000" stroke-miterlimit="10" stroke-width=".58056px" />
        <path d="m429.32 204.38s6.273-6.15 2.952-20.664" fill="#ff9955" id="path2156" stroke="#000000" stroke-miterlimit="10" stroke-width=".58056px" />
        <path d="m433.51 192.58s4.551-1.722 4.92-4.674" fill="#ff9955" id="path2158" stroke="#000000" stroke-miterlimit="10" stroke-width=".58056px" />
        <path d="m424.65 149.65s-3.567 1.23-2.952-3.075l3.567-7.134" fill="#ff9955" id="path2160" stroke="#000000" stroke-miterlimit="10" stroke-width=".58056px" />
        <path d="m395.5 159.61 4.428-0.615" fill="#ff9955" id="path2162" stroke="#000000" stroke-miterlimit="10" stroke-width=".58056px" />
        <path d="m404.6 190.85c1.599-4.182-0.24601-7.626-0.24601-7.626-1.353-1.107-2.337 0-2.337 0 0.61499 9.963 7.626 11.685 7.626 11.685 7.995 1.476 8.979-8.241 8.979-8.241l-10.209-3.198c6.888-0.738 11.316-4.674 11.316-4.674 0.615-10.455-10.332-17.097-10.332-17.097-2.214-0.861-12.546 0.12294-12.546 0.12294l6.396-6.027s3.321-5.412 7.134-7.257" fill="#ff9955" id="path2164" stroke="#000000" stroke-miterlimit="10" stroke-width=".58056px" />
        <path d="m403.62 147.19s13.038 1.476 18.204 5.904" fill="#ff9955" id="path2166" stroke="#000000" stroke-miterlimit="10" stroke-width=".58056px" />
        <path d="m471.37 165.23c-1.9874-5.4891-7.6658-12.587-7.6658-12.587 2.9338 7.855 2.366 13.912 2.366 13.912-1.8928-0.66248-3.2177 0.56783-3.2177 0.56783-4.1641-6.0569-11.83-6.3408-11.83-6.3408 1.8928 1.1357 5.4891 4.9212 5.4891 4.9212l-8.4229-4.9212 3.2177 5.8676c-0.56784 3.0284-2.5553 5.0159-2.5553 5.0159-1.6089 0.37856-1.9874 1.7035-1.9874 1.7035l-1.9874-1.4196 0.56783 2.366-2.2713 2.0821c-3.5016-0.28392-9.5585-4.0695-9.5585-4.0695l4.5427 5.2998c-3.0284-0.85176-11.735-4.6373-11.735-4.6373 7.6658 5.6784 11.262 11.073 11.262 11.073l-1.2303 8.139c-1.6089 1.1357-15.332 1.5142-15.332 1.5142s6.9086 1.5142 8.9907 3.407c2.0821 1.8928 6.2462 3.3124 6.2462 3.3124-1.8928 1.1357-8.0443 1.7981-8.0443 1.7981 6.3408-0.0946 12.114 3.6909 12.114 3.6909 0 4.3534-10.978 1.7981-10.978 1.7981l18.549 7.0033c-3.9748 2.0821-7.3818 4.6373-7.3818 4.6373 5.2052-1.7035 11.262 0.66248 11.262 0.66248l-3.6909 1.041 8.139 0.37855 5.773 5.8676c-0.85175-2.366-0.28391-5.1105-0.28391-5.1105l8.9907 7.3818-3.8802-6.9087 2.1767-1.4196c10.978 11.357 25.553-4.5427 25.553-4.5427l4.9212 3.0285-2.8392-4.9212s0.94638-2.2713 1.5142-6.2462 4.3534-6.2462 4.3534-6.2462l3.0284 0.9464c-1.325-8.3282-9.6532-15.521-9.6532-15.521l-0.85175-0.9464s4.0695-1.4196 5.2052-0.85175c0 0-9.5585-9.8425-11.451-8.7068 0 0-3.1231-1.1357-4.448-2.7445-1.3249-1.6089-3.2177-3.3124-3.2177-3.3124l6.6247-4.448-9.8425 0.28392s-0.18928-3.5016 1.041-4.5427c0 0-6.0569 4.2588-7.5711 2.7445z" fill="#ff9955" id="path2002" stroke="#000000" stroke-miterlimit="10" stroke-width=".4467px" />
        <path d="m436.26 200.43s3.8802-1.041 6.1515-1.7035" fill="#ff9955" id="path2004" stroke="#000000" stroke-miterlimit="10" stroke-width=".4467px" />
        <path d="m440.33 205.92s3.5016-0.75711 8.4229 2.0821" fill="#ff9955" id="path2006" stroke="#000000" stroke-miterlimit="10" stroke-width=".4467px" />
        <path d="m451.78 220.02s3.1231-0.0946 5.2998-2.6499" fill="#ff9955" id="path2008" stroke="#000000" stroke-miterlimit="10" stroke-width=".4467px" />
        <path d="m451.59 203.08s-4.5427-6.0569-8.3282-8.2336c0 0 7.2872 0.94639 10.6-0.66247" fill="#ff9955" id="path2010" stroke="#000000" stroke-miterlimit="10" stroke-width=".4467px" />
        <path d="m454.91 197.21s-0.18928-2.7445-2.1767-4.9212c0 0 3.0285 0.28392 4.5427-1.6089" fill="#ff9955" id="path2012" stroke="#000000" stroke-miterlimit="10" stroke-width=".4467px" />
        <path d="m442.22 180.75s2.5553 2.5553 7.9497 2.366c0 0 0.0946 2.5552-1.7035 3.407" fill="#ff9955" id="path2014" stroke="#000000" stroke-miterlimit="10" stroke-width=".4467px" />
        <path d="m455.09 185.1s-6.1516-5.4891-9.7478-10.789" fill="#ff9955" id="path2016" stroke="#000000" stroke-miterlimit="10" stroke-width=".4467px" />
        <path d="m446.77 173.36s5.2998 4.6373 12.587 5.773c0 0 1.325-0.37855 1.325-2.2713" fill="#ff9955" id="path2018" stroke="#000000" stroke-miterlimit="10" stroke-width=".4467px" />
        <path d="m453.86 168.82s-1.8928-1.4196-2.5552-2.1767" fill="#ff9955" id="path2020" stroke="#000000" stroke-miterlimit="10" stroke-width=".4467px" />
        <path d="m456.51 165.7s2.1767 0.75712 3.3124 1.7035" fill="#ff9955" id="path2022" stroke="#000000" stroke-miterlimit="10" stroke-width=".4467px" />
        <path d="m458.03 173.84s0.4732-3.6909 6.0569-6.0569c0 0-10.6-1.7981-10.978 3.5016 0 0-1.7981 0.18929-2.5553 1.5142" fill="#ff9955" id="path2024" stroke="#000000" stroke-miterlimit="10" stroke-width=".4467px" />
        <path d="m461.63 169.77 6.3408-1.7035s3.5016 1.041 8.0443 0.4732c0 0-5.6783 4.6373-8.7068 4.9212l-1.9874 2.6499" fill="#ff9955" id="path2028" stroke="#000000" stroke-miterlimit="10" stroke-width=".4467px" />
        <path d="m465.32 176.11s-1.6089 4.9212 8.6122 6.7194c0 0-6.3408 2.6499-8.2336 5.2052" fill="#ff9955" id="path2030" stroke="#000000" stroke-miterlimit="10" stroke-width=".4467px" />
        <path d="m469.01 221.25s-4.8266-4.732-2.2713-15.899" fill="#ff9955" id="path2032" stroke="#000000" stroke-miterlimit="10" stroke-width=".4467px" />
        <path d="m465.79 212.17s-3.5016-1.3249-3.7856-3.5963" fill="#ff9955" id="path2034" stroke="#000000" stroke-miterlimit="10" stroke-width=".4467px" />
        <path d="m472.6 179.14s2.7445 0.94639 2.2713-2.366l-2.7445-5.4891" fill="#ff9955" id="path2036" stroke="#000000" stroke-miterlimit="10" stroke-width=".4467px" />
        <path d="m495.03 186.8-3.407-0.47319" fill="#ff9955" id="path2038" stroke="#000000" stroke-miterlimit="10" stroke-width=".4467px" />
        <path d="m488.03 210.84c-1.2303-3.2177 0.18928-5.8676 0.18928-5.8676 1.041-0.85175 1.7981 0 1.7981 0-0.47319 7.6658-5.8676 8.9907-5.8676 8.9907-6.1515 1.1357-6.9086-6.3408-6.9086-6.3408l7.855-2.4606c-5.2998-0.56783-8.7068-3.5963-8.7068-3.5963-0.4732-8.0443 7.9497-13.155 7.9497-13.155 1.7035-0.66247 9.6532 0.0946 9.6532 0.0946l-4.9212-4.6373s-2.5553-4.1641-5.4891-5.5837" fill="#ff9955" id="path2040" stroke="#000000" stroke-miterlimit="10" stroke-width=".4467px" />
        <path d="m488.79 177.24s-10.032 1.1357-14.007 4.5427" fill="#ff9955" id="path2042" stroke="#000000" stroke-miterlimit="10" stroke-width=".4467px" />
    </g>
</svg>
