<?xml version="1.0" encoding="utf-8"?>
<!-- Generator: Adobe Illustrator 21.1.0, SVG Export Plug-In . SVG Version: 6.00 Build 0)  -->
<svg version="1.1" id="Background_x5F_map_xA0_Image_1_"
		xmlns="http://www.w3.org/2000/svg" xmlns:xlink="http://www.w3.org/1999/xlink" x="0px" y="0px" viewBox="0 0 703.9 1339.2"
		style="enable-background:new 0 0 703.9 1339.2;" xml:space="preserve">
		<style type="text/css">
				.st0{fill:#FFFFFF;stroke:#000000;stroke-width:0.25;stroke-miterlimit:10;}
				.st1{stroke:#000000;stroke-width:0.25;stroke-miterlimit:10;}
				.st2{fill:none;stroke:#000000;stroke-miterlimit:10;}
				.st3{font-family:'MyriadPro-Regular';}
				.st4{font-size:17px;}
				.st5{font-size:12px;}
				.st6{fill:#7BC143;}
				.st7{font-size:20px;}
		</style>
		<image style="overflow:visible;enable-background:new    ;" width="2933" height="5583" id="Background_x5F_map_xA0_Image" xlink:href="data/worldLeaf/A10A129A.png"  transform="matrix(0.24 0 0 0.2399 -0.46 -8.085471e-02)">
		</image>
		<g id="CSYJ283">
				<circle fill="none" stroke="#000000" stroke-width="0.5" stroke-miterlimit="10" cx="339.3" cy="905.9" r="7.5"/>
		</g>
		<g id="CSYJ281">
				<circle fill="none" stroke="#000000" stroke-width="0.5" stroke-miterlimit="10" cx="331.8" cy="911.3" r="7.5"/>
		</g>
		<g id="LNZK282">
				<circle fill="none" stroke="#000000" stroke-width="0.5" stroke-miterlimit="10" cx="329.3" cy="888.3" r="7.5"/>
		</g>
		<g id="LNZK283">
				<circle fill="none" stroke="#000000" stroke-width="0.5" stroke-miterlimit="10" cx="319.8" cy="893.6" r="7.5"/>
		</g>
		<g id="FNYI281">
				<circle fill="none" stroke="#000000" stroke-width="0.5" stroke-miterlimit="10" cx="295.3" cy="854.8" r="7.5"/>
		</g>
		<g id="FNYI284">
				<circle fill="none" stroke="#000000" stroke-width="0.5" stroke-miterlimit="10" cx="291.1" cy="862.3" r="7.5"/>
		</g>
		<g id="CNYH281">
				<circle fill="none" stroke="#000000" stroke-width="0.5" stroke-miterlimit="10" cx="287.8" cy="839.2" r="7.5"/>
		</g>
		<g id="CNYH285">
				<circle fill="none" stroke="#000000" stroke-width="0.5" stroke-miterlimit="10" cx="278.3" cy="845.6" r="7.5"/>
		</g>
		<g id="BLCG281">
				<circle fill="none" stroke="#000000" stroke-width="0.5" stroke-miterlimit="10" cx="264.3" cy="833" r="7.5"/>
		</g>
		<g id="CMBF283">
				<ellipse id="CMBF283" transform="matrix(0.4849 -0.8746 0.8746 0.4849 -567.9708 648.2447)" fill="none" stroke="#000000" stroke-width="0.5" stroke-miterlimit="10" cx="266.3" cy="806.3" rx="7.5" ry="7.5"/>
		</g>
		<g id="CMBF282">
				<ellipse id="CMBF282" transform="matrix(0.4849 -0.8746 0.8746 0.4849 -561.0341 652.6577)" fill="none" stroke="#000000" stroke-width="0.5" stroke-miterlimit="10" cx="273.5" cy="802.6" rx="7.5" ry="7.5"/>
		</g>
		<g id="CMBF281">
				<ellipse id="CMBF281" transform="matrix(0.4849 -0.8746 0.8746 0.4849 -577.9106 651.2011)" fill="none" stroke="#000000" stroke-width="0.5" stroke-miterlimit="10" cx="263.9" cy="816.2" rx="7.5" ry="7.5"/>
		</g>
		<g id="SLMC283">
				<circle fill="none" stroke="#000000" stroke-width="0.5" stroke-miterlimit="10" cx="222.3" cy="780.9" r="7.5"/>
		</g>
		<g id="SLMC282">
				<circle fill="none" stroke="#000000" stroke-width="0.5" stroke-miterlimit="10" cx="212.1" cy="778.5" r="7.5"/>
		</g>
		<g id="SLMD283">
				<circle fill="none" stroke="#000000" stroke-width="0.5" stroke-miterlimit="10" cx="227.6" cy="764.2" r="7.5"/>
		</g>
		<g id="SLMD281">
				<circle fill="none" stroke="#000000" stroke-width="0.5" stroke-miterlimit="10" cx="235.1" cy="768.6" r="7.5"/>
		</g>
		<g id="SLMB281">
				<circle fill="none" stroke="#000000" stroke-width="0.5" stroke-miterlimit="10" cx="223.2" cy="811.3" r="7.5"/>
		</g>
		<g id="SLMB283">
				<circle fill="none" stroke="#000000" stroke-width="0.5" stroke-miterlimit="10" cx="229.8" cy="802.6" r="7.5"/>
		</g>
		<g id="WHTE284">
				<circle fill="none" stroke="#000000" stroke-width="0.5" stroke-miterlimit="10" cx="200.2" cy="803.8" r="7.5"/>
		</g>
		<g id="WHTE282">
				<circle fill="none" stroke="#000000" stroke-width="0.5" stroke-miterlimit="10" cx="207.7" cy="797.8" r="7.5"/>
		</g>
		<g id="WHTE281">
				<circle fill="none" stroke="#000000" stroke-width="0.5" stroke-miterlimit="10" cx="200.2" cy="792.8" r="7.5"/>
		</g>
		<g id="MEMA285">
				<circle fill="none" stroke="#000000" stroke-width="0.5" stroke-miterlimit="10" cx="242.9" cy="815.1" r="7.5"/>
		</g>
		<g id="MEMA283">
				<circle fill="none" stroke="#000000" stroke-width="0.5" stroke-miterlimit="10" cx="247.7" cy="807.6" r="7.5"/>
		</g>
		<g id="LONG295">
				<circle fill="none" stroke="#000000" stroke-width="0.5" stroke-miterlimit="10" cx="272.3" cy="1121.7" r="7.5"/>
		</g>
		<g id="LONG292">
				<circle fill="none" stroke="#000000" stroke-width="0.5" stroke-miterlimit="10" cx="281.5" cy="1114.2" r="7.5"/>
		</g>
		<g id="LONG291">
				<circle fill="none" stroke="#000000" stroke-width="0.5" stroke-miterlimit="10" cx="281.5" cy="1124.6" r="7.5"/>
		</g>
		<g id="PITS291">
				<circle fill="none" stroke="#000000" stroke-width="0.5" stroke-miterlimit="10" cx="306.9" cy="1147.8" r="7.5"/>
		</g>
		<g id="CARS292">
				<circle fill="none" stroke="#000000" stroke-width="0.5" stroke-miterlimit="10" cx="324.3" cy="1168.5" r="7.5"/>
		</g>
		<g id="NBON291">
				<circle fill="none" stroke="#000000" stroke-width="0.5" stroke-miterlimit="10" cx="355.1" cy="1178.2" r="7.5"/>
		</g>
		<g id="LAFY302">
				<circle fill="none" stroke="#000000" stroke-width="0.5" stroke-miterlimit="10" cx="274.5" cy="1188.8" r="7.5"/>
		</g>
		<g id="JEFF302">
				<circle fill="none" stroke="#000000" stroke-width="0.5" stroke-miterlimit="10" cx="292.2" cy="1220.8" r="7.5"/>
		</g>
		<g id="HALS302">
				<circle fill="none" stroke="#000000" stroke-width="0.5" stroke-miterlimit="10" cx="259" cy="1251" r="7.5"/>
		</g>
		<g id="JASP305">
				<circle fill="none" stroke="#000000" stroke-width="0.5" stroke-miterlimit="10" cx="278.6" cy="1290.3" r="7.5"/>
		</g>
		<g id="CARS294">
				<circle fill="none" stroke="#000000" stroke-width="0.5" stroke-miterlimit="10" cx="324.7" cy="1159.6" r="7.5"/>
		</g>
		<g id="NBON292">
				<circle fill="none" stroke="#000000" stroke-width="0.5" stroke-miterlimit="10" cx="350.7" cy="1170.7" r="7.5"/>
		</g>
		<g id="NBON294">
				<circle fill="none" stroke="#000000" stroke-width="0.5" stroke-miterlimit="10" cx="343.2" cy="1181.3" r="7.5"/>
		</g>
		<g id="LAFY301">
				<circle fill="none" stroke="#000000" stroke-width="0.5" stroke-miterlimit="10" cx="284.7" cy="1191.9" r="7.5"/>
		</g>
		<g id="JEFF303">
				<circle fill="none" stroke="#000000" stroke-width="0.5" stroke-miterlimit="10" cx="299.7" cy="1228.3" r="7.5"/>
		</g>
		<g id="HALS304">
				<circle fill="none" stroke="#000000" stroke-width="0.5" stroke-miterlimit="10" cx="266.5" cy="1251" r="7.5"/>
		</g>
		<g id="JASP304">
				<circle fill="none" stroke="#000000" stroke-width="0.5" stroke-miterlimit="10" cx="283.4" cy="1297.8" r="7.5"/>
		</g>
		<g id="JASP303">
				<circle fill="none" stroke="#000000" stroke-width="0.5" stroke-miterlimit="10" cx="278.6" cy="1307.3" r="7.5"/>
		</g>
		<g id="JASP301">
				<circle fill="none" stroke="#000000" stroke-width="0.5" stroke-miterlimit="10" cx="271.1" cy="1297.8" r="7.5"/>
		</g>
		<g id="MCMN273">
				<circle fill="none" stroke="#000000" stroke-width="0.5" stroke-miterlimit="10" cx="406.3" cy="914.5" r="7.5"/>
		</g>
		<g id="MTSM271">
				<circle fill="none" stroke="#000000" stroke-width="0.5" stroke-miterlimit="10" cx="420.8" cy="926.3" r="7.5"/>
		</g>
		<g id="VNDL273">
				<circle fill="none" stroke="#000000" stroke-width="0.5" stroke-miterlimit="10" cx="433.4" cy="938.3" r="7.5"/>
		</g>
		<g id="VNDL275">
				<circle fill="none" stroke="#000000" stroke-width="0.5" stroke-miterlimit="10" cx="433.4" cy="948.1" r="7.5"/>
		</g>
		<g id="CHWK273">
				<circle fill="none" stroke="#000000" stroke-width="0.5" stroke-miterlimit="10" cx="451.6" cy="949.2" r="7.5"/>
		</g>
		<g id="CHWK274">
				<ellipse id="CHWK274" transform="matrix(0.7071 -0.7071 0.7071 0.7071 -545.7521 600.1774)" fill="none" stroke="#000000" stroke-width="0.5" stroke-miterlimit="10" cx="451.6" cy="958.9" rx="7.5" ry="7.5"/>
		</g>
		<g id="CHWI274">
				<circle fill="none" stroke="#000000" stroke-width="0.5" stroke-miterlimit="10" cx="467.2" cy="944.3" r="7.5"/>
		</g>
		<g id="HRSP274">
				<circle fill="none" stroke="#000000" stroke-width="0.5" stroke-miterlimit="10" cx="494.9" cy="929.5" r="7.5"/>
		</g>
		<g id="HRSP273">
				<circle fill="none" stroke="#000000" stroke-width="0.5" stroke-miterlimit="10" cx="485.6" cy="925.3" r="7.5"/>
		</g>
		<g id="HRSP271">
				<circle fill="none" stroke="#000000" stroke-width="0.5" stroke-miterlimit="10" cx="474.9" cy="925.3" r="7.5"/>
		</g>
		<g id="HRSO271">
				<circle fill="none" stroke="#000000" stroke-width="0.5" stroke-miterlimit="10" cx="432.6" cy="906.3" r="7.5"/>
		</g>
		<g id="HRSO274">
				<circle fill="none" stroke="#000000" stroke-width="0.5" stroke-miterlimit="10" cx="442.7" cy="910.5" r="7.5"/>
		</g>
		<g id="HRSO272">
				<circle fill="none" stroke="#000000" stroke-width="0.5" stroke-miterlimit="10" cx="442.7" cy="899.6" r="7.5"/>
		</g>
		<g id="HOPG272">
				<circle fill="none" stroke="#000000" stroke-width="0.5" stroke-miterlimit="10" cx="464.4" cy="912" r="7.5"/>
		</g>
		<g id="HOPF275">
				<circle fill="none" stroke="#000000" stroke-width="0.5" stroke-miterlimit="10" cx="500.6" cy="909.6" r="7.5"/>
		</g>
		<g id="HOPF271">
				<circle fill="none" stroke="#000000" stroke-width="0.5" stroke-miterlimit="10" cx="490.6" cy="909.6" r="7.5"/>
		</g>
		<g id="YALD274">
				<circle fill="none" stroke="#000000" stroke-width="0.5" stroke-miterlimit="10" cx="468.2" cy="881.6" r="7.5"/>
		</g>
		<g id="YALE271">
				<circle fill="none" stroke="#000000" stroke-width="0.5" stroke-miterlimit="10" cx="495.8" cy="890.7" r="7.5"/>
		</g>
		<g id="YALD275">
				<circle fill="none" stroke="#000000" stroke-width="0.5" stroke-miterlimit="10" cx="461.6" cy="879.5" r="7.5"/>
		</g>
		<g id="YALD273">
				<circle fill="none" stroke="#000000" stroke-width="0.5" stroke-miterlimit="10" cx="462.9" cy="887" r="7.5"/>
		</g>
		<g id="WELC274">
				<circle fill="none" stroke="#000000" stroke-width="0.5" stroke-miterlimit="10" cx="486.3" cy="873.3" r="7.5"/>
		</g>
		<g id="WELC273">
				<circle fill="none" stroke="#000000" stroke-width="0.5" stroke-miterlimit="10" cx="485.4" cy="863.9" r="7.5"/>
		</g>
		<g id="WELC272">
				<circle fill="none" stroke="#000000" stroke-width="0.5" stroke-miterlimit="10" cx="496.4" cy="870" r="7.5"/>
		</g>
		<g id="TNZA41">
				<circle fill="none" stroke="#000000" stroke-width="0.5" stroke-miterlimit="10" cx="228.9" cy="20" r="7.5"/>
		</g>
		<g id="SKNN102">
				<circle fill="none" stroke="#000000" stroke-width="0.5" stroke-miterlimit="10" cx="259.4" cy="318.4" r="7.5"/>
		</g>
		<g id="KTMC123">
				<ellipse id="KTMC123" transform="matrix(0.4856 -0.8742 0.8742 0.4856 -151.1368 449.5872)" fill="none" stroke="#000000" stroke-width="0.5" stroke-miterlimit="10" cx="306.4" cy="353.2" rx="7.5" ry="7.5"/>
		</g>
		<g id="SKNP109">
				<circle fill="none" stroke="#000000" stroke-width="0.5" stroke-miterlimit="10" cx="331.2" cy="292.1" r="7.5"/>
		</g>
		<g id="SKNP108">
				<circle fill="none" stroke="#000000" stroke-width="0.5" stroke-miterlimit="10" cx="338.7" cy="296" r="7.5"/>
		</g>
		<g id="SKNC102">
				<circle fill="none" stroke="#000000" stroke-width="0.5" stroke-miterlimit="10" cx="359" cy="261.5" r="7.5"/>
		</g>
		<g id="HAZH102">
				<circle fill="none" stroke="#000000" stroke-width="0.5" stroke-miterlimit="10" cx="412.4" cy="208" r="7.5"/>
		</g>
		<g id="KTMC125">
				<ellipse id="KTMC125" transform="matrix(0.4856 -0.8742 0.8742 0.4856 -158.6228 454.156)" fill="none" stroke="#000000" stroke-width="0.5" stroke-miterlimit="10" cx="306.6" cy="361.9" rx="7.5" ry="7.5"/>
		</g>
		<g id="HIRD122">
				<circle fill="none" stroke="#000000" stroke-width="0.5" stroke-miterlimit="10" cx="331.2" cy="357.5" r="7.5"/>
		</g>
		<g id="KTMA121">
				<circle fill="none" stroke="#000000" stroke-width="0.5" stroke-miterlimit="10" cx="323.7" cy="329.6" r="7.5"/>
		</g>
		<g id="KTMA124">
				<circle fill="none" stroke="#000000" stroke-width="0.5" stroke-miterlimit="10" cx="331.2" cy="333.4" r="7.5"/>
		</g>
		<g id="ZYMJ105">
				<circle fill="none" stroke="#000000" stroke-width="0.5" stroke-miterlimit="10" cx="378.2" cy="309" r="7.5"/>
		</g>
		<g id="TLKH115">
				<circle fill="none" stroke="#000000" stroke-width="0.5" stroke-miterlimit="10" cx="447.6" cy="288.5" r="7.5"/>
		</g>
		<g id="KLNG203">
				<circle fill="none" stroke="#000000" stroke-width="0.5" stroke-miterlimit="10" cx="618.3" cy="316.5" r="7.5"/>
		</g>
		<g id="KLNG206">
				<circle fill="none" stroke="#000000" stroke-width="0.5" stroke-miterlimit="10" cx="610.8" cy="325.9" r="7.5"/>
		</g>
		<g id="KLNG202">
				<circle fill="none" stroke="#000000" stroke-width="0.5" stroke-miterlimit="10" cx="615.7" cy="307.1" r="7.5"/>
		</g>
		<g id="KLNG204">
				<circle fill="none" stroke="#000000" stroke-width="0.5" stroke-miterlimit="10" cx="608.2" cy="314.6" r="7.5"/>
		</g>
		<g id="PHLA222">
				<circle fill="none" stroke="#000000" stroke-width="0.5" stroke-miterlimit="10" cx="292.4" cy="775.8" r="7.5"/>
		</g>
		<g id="PHLA225">
				<ellipse id="PHLA225" transform="matrix(9.346890e-02 -0.9956 0.9956 9.346890e-02 -494.9197 1000.0192)" fill="none" stroke="#000000" stroke-width="0.5" stroke-miterlimit="10" cx="301.7" cy="771.8" rx="7.5" ry="7.5"/>
		</g>
		<g id="PHLC222">
				<ellipse id="PHLC222" transform="matrix(0.7058 -0.7084 0.7084 0.7058 -453.8182 412.0731)" fill="none" stroke="#000000" stroke-width="0.5" stroke-miterlimit="10" cx="269.2" cy="752.4" rx="7.5" ry="7.5"/>
		</g>
		<g id="PHLC223">
				<ellipse id="PHLC223" transform="matrix(0.7058 -0.7084 0.7084 0.7058 -455.538 420.0565)" fill="none" stroke="#000000" stroke-width="0.5" stroke-miterlimit="10" cx="278" cy="758.5" rx="7.5" ry="7.5"/>
		</g>
		<g id="PHLC224">
				<ellipse id="PHLC224" transform="matrix(0.7058 -0.7084 0.7084 0.7058 -462.67 414.4863)" fill="none" stroke="#000000" stroke-width="0.5" stroke-miterlimit="10" cx="267.7" cy="764.3" rx="7.5" ry="7.5"/>
		</g>
		<g id="PHLC225">
				<ellipse id="PHLC225" transform="matrix(0.7058 -0.7084 0.7084 0.7058 -444.9426 409.5363)" fill="none" stroke="#000000" stroke-width="0.5" stroke-miterlimit="10" cx="270.6" cy="740.5" rx="7.5" ry="7.5"/>
		</g>
		<g id="PHLC221">
				<ellipse id="PHLC221" transform="matrix(0.7058 -0.7084 0.7084 0.7058 -446.7331 417.4906)" fill="none" stroke="#000000" stroke-width="0.5" stroke-miterlimit="10" cx="279.3" cy="746.6" rx="7.5" ry="7.5"/>
		</g>
		<g id="ALAA204">
				<circle fill="none" stroke="#000000" stroke-width="0.5" stroke-miterlimit="10" cx="256.9" cy="722.5" r="7.5"/>
		</g>
		<g id="ALAA203">
				<circle fill="none" stroke="#000000" stroke-width="0.5" stroke-miterlimit="10" cx="263.1" cy="715.5" r="7.5"/>
		</g>
		<g id="HOMC211">
				<ellipse id="HOMC211" transform="matrix(0.9913 -0.1316 0.1316 0.9913 -89.3457 51.6635)" fill="none" stroke="#000000" stroke-width="0.5" stroke-miterlimit="10" cx="346.2" cy="701.8" rx="7.5" ry="7.5"/>
		</g>
		<g id="HOMC213">
				<ellipse id="HOMC213" transform="matrix(0.9913 -0.1316 0.1316 0.9913 -88.7165 50.9873)" fill="none" stroke="#000000" stroke-width="0.5" stroke-miterlimit="10" cx="341.4" cy="696.7" rx="7.5" ry="7.5"/>
		</g>
		<g id="HOMA211">
				<circle fill="none" stroke="#000000" stroke-width="0.5" stroke-miterlimit="10" cx="346.4" cy="719.4" r="7.5"/>
		</g>
		<g id="HOMA214">
				<circle fill="none" stroke="#000000" stroke-width="0.5" stroke-miterlimit="10" cx="338.9" cy="726.9" r="7.5"/>
		</g>
		<g id="HOMA212">
				<circle fill="none" stroke="#000000" stroke-width="0.5" stroke-miterlimit="10" cx="349.7" cy="729" r="7.5"/>
		</g>
		<g id="HOMB211">
				<ellipse id="HOMB211" transform="matrix(0.9858 -0.1679 0.1679 0.9858 -117.5541 62.6476)" fill="none" stroke="#000000" stroke-width="0.5" stroke-miterlimit="10" cx="311.7" cy="726.5" rx="7.5" ry="7.5"/>
		</g>
		<g id="HOMB213">
				<ellipse id="HOMB213" transform="matrix(0.9858 -0.1679 0.1679 0.9858 -118.8047 61.8573)" fill="none" stroke="#000000" stroke-width="0.5" stroke-miterlimit="10" cx="306.4" cy="733.5" rx="7.5" ry="7.5"/>
		</g>
		<g id="HOMD215">
				<circle fill="none" stroke="#000000" stroke-width="0.5" stroke-miterlimit="10" cx="308.4" cy="696.5" r="7.5"/>
		</g>
		<g id="HOMD212">
				<circle fill="none" stroke="#000000" stroke-width="0.5" stroke-miterlimit="10" cx="320.3" cy="700.2" r="7.5"/>
		</g>
		<g id="HOMD213">
				<circle fill="none" stroke="#000000" stroke-width="0.5" stroke-miterlimit="10" cx="318.4" cy="689" r="7.5"/>
		</g>
		<g id="HOMD214">
				<circle fill="none" stroke="#000000" stroke-width="0.5" stroke-miterlimit="10" cx="310.9" cy="705.8" r="7.5"/>
		</g>
		<g id="STHA215">
				<circle fill="none" stroke="#000000" stroke-width="0.5" stroke-miterlimit="10" cx="330.9" cy="765.4" r="7.5"/>
		</g>
		<g id="STHA212">
				<circle fill="none" stroke="#000000" stroke-width="0.5" stroke-miterlimit="10" cx="326.8" cy="757.9" r="7.5"/>
		</g>
		<g id="STHB214">
				<ellipse id="STHB214" transform="matrix(0.7313 -0.682 0.682 0.7313 -415.1583 436.05)" fill="none" stroke="#000000" stroke-width="0.5" stroke-miterlimit="10" cx="345.9" cy="745" rx="7.5" ry="7.5"/>
		</g>
		<g id="STHB212">
				<ellipse id="STHB212" transform="matrix(0.7313 -0.682 0.682 0.7313 -417.5182 442.3238)" fill="none" stroke="#000000" stroke-width="0.5" stroke-miterlimit="10" cx="352.7" cy="751.1" rx="7.5" ry="7.5"/>
		</g>
		<g id="SHEL151">
				<circle fill="none" stroke="#000000" stroke-width="0.5" stroke-miterlimit="10" cx="477.2" cy="507.1" r="7.5"/>
		</g>
		<g id="SHEL154">
				<circle fill="none" stroke="#000000" stroke-width="0.5" stroke-miterlimit="10" cx="488.1" cy="507.1" r="7.5"/>
		</g>
		<g id="SHEL155">
				<circle fill="none" stroke="#000000" stroke-width="0.5" stroke-miterlimit="10" cx="480.6" cy="516.5" r="7.5"/>
		</g>
		<g id="WLOW153">
				<circle fill="none" stroke="#000000" stroke-width="0.5" stroke-miterlimit="10" cx="524.3" cy="531.5" r="7.5"/>
		</g>
		<g id="HIXN161">
				<circle fill="none" stroke="#000000" stroke-width="0.5" stroke-miterlimit="10" cx="496" cy="566.7" r="7.5"/>
		</g>
		<g id="QFRS161">
				<circle fill="none" stroke="#000000" stroke-width="0.5" stroke-miterlimit="10" cx="504.5" cy="583.7" r="7.5"/>
		</g>
		<g id="QFRS165">
				<circle fill="none" stroke="#000000" stroke-width="0.5" stroke-miterlimit="10" cx="513.4" cy="581.6" r="7.5"/>
		</g>
		<g id="QFRS162">
				<circle fill="none" stroke="#000000" stroke-width="0.5" stroke-miterlimit="10" cx="524.3" cy="579.6" r="7.5"/>
		</g>
		<g id="QLKE163">
				<ellipse id="QLKE163" transform="matrix(0.9722 -0.2341 0.2341 0.9722 -132.3555 139.753)" fill="none" stroke="#000000" stroke-width="0.5" stroke-miterlimit="10" cx="522.5" cy="627.4" rx="7.5" ry="7.5"/>
		</g>
		<g id="QLKE161">
				<ellipse id="QLKE161" transform="matrix(0.9722 -0.2341 0.2341 0.9722 -131.3215 137.4694)" fill="none" stroke="#000000" stroke-width="0.5" stroke-miterlimit="10" cx="513.4" cy="621.9" rx="7.5" ry="7.5"/>
		</g>
		<g id="QLKE164">
				<ellipse id="QLKE164" transform="matrix(0.9722 -0.2341 0.2341 0.9722 -133.7245 137.4225)" fill="none" stroke="#000000" stroke-width="0.5" stroke-miterlimit="10" cx="512" cy="632" rx="7.5" ry="7.5"/>
		</g>
		<g id="QCTN164">
				<circle fill="none" stroke="#000000" stroke-width="0.5" stroke-miterlimit="10" cx="513" cy="600.8" r="7.5"/>
		</g>
		<g id="QCTN161">
				<circle fill="none" stroke="#000000" stroke-width="0.5" stroke-miterlimit="10" cx="520.5" cy="606.2" r="7.5"/>
		</g>
		<g id="QBKR162">
				<circle fill="none" stroke="#000000" stroke-width="0.5" stroke-miterlimit="10" cx="469.7" cy="603.8" r="7.5"/>
		</g>
		<g id="QBKR164">
				<circle fill="none" stroke="#000000" stroke-width="0.5" stroke-miterlimit="10" cx="471.7" cy="596.3" r="7.5"/>
		</g>
		<g id="QBKR163">
				<circle fill="none" stroke="#000000" stroke-width="0.5" stroke-miterlimit="10" cx="479.2" cy="603.8" r="7.5"/>
		</g>
		<g id="QAUS163">
				<circle fill="none" stroke="#000000" stroke-width="0.5" stroke-miterlimit="10" cx="491.9" cy="623.8" r="7.5"/>
		</g>
		<g id="KIMB163">
				<circle fill="none" stroke="#000000" stroke-width="0.5" stroke-miterlimit="10" cx="562.9" cy="614.4" r="7.5"/>
		</g>
		<g id="KIMB162">
				<circle fill="none" stroke="#000000" stroke-width="0.5" stroke-miterlimit="10" cx="560.7" cy="623.8" r="7.5"/>
		</g>
		<g id="KLNA205">
				<circle fill="none" stroke="#000000" stroke-width="0.5" stroke-miterlimit="10" cx="289.8" cy="712" r="7.5"/>
		</g>
		<g id="KLNA203">
				<circle fill="none" stroke="#000000" stroke-width="0.5" stroke-miterlimit="10" cx="292.4" cy="721.5" r="7.5"/>
		</g>
		<g id="MCFA206">
				<circle fill="none" stroke="#000000" stroke-width="0.5" stroke-miterlimit="10" cx="261.8" cy="683.8" r="7.5"/>
		</g>
		<g id="MCFA203">
				<circle fill="none" stroke="#000000" stroke-width="0.5" stroke-miterlimit="10" cx="270.3" cy="688" r="7.5"/>
		</g>
		<g id="MCFA202">
				<circle fill="none" stroke="#000000" stroke-width="0.5" stroke-miterlimit="10" cx="260.6" cy="694.3" r="7.5"/>
		</g>
		<g id="MCHB193">
				<ellipse id="MCHB193" transform="matrix(0.9472 -0.3207 0.3207 0.9472 -190.1343 114.9822)" fill="none" stroke="#000000" stroke-width="0.5" stroke-miterlimit="10" cx="254" cy="634.7" rx="7.5" ry="7.5"/>
		</g>
		<g id="MCHB191">
				<ellipse id="MCHB191" transform="matrix(0.9472 -0.3207 0.3207 0.9472 -193.0207 116.8437)" fill="none" stroke="#000000" stroke-width="0.5" stroke-miterlimit="10" cx="258.2" cy="644.4" rx="7.5" ry="7.5"/>
		</g>
		<g id="MCHB192">
				<ellipse id="MCHB192" transform="matrix(0.9472 -0.3207 0.3207 0.9472 -190.1137 119.2955)" fill="none" stroke="#000000" stroke-width="0.5" stroke-miterlimit="10" cx="267.1" cy="636.8" rx="7.5" ry="7.5"/>
		</g>
		<g id="MCHA195">
				<circle fill="none" stroke="#000000" stroke-width="0.5" stroke-miterlimit="10" cx="282.4" cy="659.7" r="7.5"/>
		</g>
		<g id="MCHA194">
				<circle fill="none" stroke="#000000" stroke-width="0.5" stroke-miterlimit="10" cx="273.2" cy="655.3" r="7.5"/>
		</g>
		<g id="MCHA192">
				<circle fill="none" stroke="#000000" stroke-width="0.5" stroke-miterlimit="10" cx="280.7" cy="647.8" r="7.5"/>
		</g>
		<g id="CHKC191">
				<circle fill="none" stroke="#000000" stroke-width="0.5" stroke-miterlimit="10" cx="226.1" cy="640.3" r="7.5"/>
		</g>
		<g id="CHKD194">
				<circle fill="none" stroke="#000000" stroke-width="0.5" stroke-miterlimit="10" cx="240.7" cy="623" r="7.5"/>
		</g>
		<g id="CHKD192">
				<circle fill="none" stroke="#000000" stroke-width="0.5" stroke-miterlimit="10" cx="231.4" cy="624.1" r="7.5"/>
		</g>
		<g id="KLNE204">
				<circle fill="none" stroke="#000000" stroke-width="0.5" stroke-miterlimit="10" cx="305.3" cy="661.3" r="7.5"/>
		</g>
		<g id="KLNE205">
				<circle fill="none" stroke="#000000" stroke-width="0.5" stroke-miterlimit="10" cx="304.2" cy="650.6" r="7.5"/>
		</g>
		<g id="KLNE203">
				<circle fill="none" stroke="#000000" stroke-width="0.5" stroke-miterlimit="10" cx="314.3" cy="652.8" r="7.5"/>
		</g>
		<g id="KLND202">
				<circle fill="none" stroke="#000000" stroke-width="0.5" stroke-miterlimit="10" cx="292.4" cy="683.8" r="7.5"/>
		</g>
		<g id="KLND201">
				<circle fill="none" stroke="#000000" stroke-width="0.5" stroke-miterlimit="10" cx="303.4" cy="678.4" r="7.5"/>
		</g>
		<g id="KLND203">
				<circle fill="none" stroke="#000000" stroke-width="0.5" stroke-miterlimit="10" cx="292.4" cy="673.1" r="7.5"/>
		</g>
		<g id="BELA183">
				<circle fill="none" stroke="#000000" stroke-width="0.5" stroke-miterlimit="10" cx="305.3" cy="598.6" r="7.5"/>
		</g>
		<g id="BELA184">
				<circle fill="none" stroke="#000000" stroke-width="0.5" stroke-miterlimit="10" cx="301.4" cy="609.2" r="7.5"/>
		</g>
		<g id="BELC184">
				<circle fill="none" stroke="#000000" stroke-width="0.5" stroke-miterlimit="10" cx="273.9" cy="595.3" r="7.5"/>
		</g>
		<g id="BELC181">
				<circle fill="none" stroke="#000000" stroke-width="0.5" stroke-miterlimit="10" cx="284.9" cy="595.3" r="7.5"/>
		</g>
		<g id="BELC182">
				<circle fill="none" stroke="#000000" stroke-width="0.5" stroke-miterlimit="10" cx="278.7" cy="604.8" r="7.5"/>
		</g>
		<g id="DENA172">
				<circle fill="none" stroke="#000000" stroke-width="0.5" stroke-miterlimit="10" cx="288.9" cy="568.6" r="7.5"/>
		</g>
		<g id="DENB172">
				<circle fill="none" stroke="#000000" stroke-width="0.5" stroke-miterlimit="10" cx="292.4" cy="547" r="7.5"/>
		</g>
		<g id="DEND175">
				<ellipse id="DEND175" transform="matrix(0.9126 -0.4088 0.4088 0.9126 -207.2682 158.6521)" fill="none" stroke="#000000" stroke-width="0.5" stroke-miterlimit="10" cx="267.5" cy="564.2" rx="7.5" ry="7.5"/>
		</g>
		<g id="DEND173">
				<ellipse id="DEND173" transform="matrix(0.9126 -0.4088 0.4088 0.9126 -211.1742 156.5786)" fill="none" stroke="#000000" stroke-width="0.5" stroke-miterlimit="10" cx="260.7" cy="572.3" rx="7.5" ry="7.5"/>
		</g>
		<g id="DENC175">
				<circle fill="none" stroke="#000000" stroke-width="0.5" stroke-miterlimit="10" cx="263" cy="545.8" r="7.5"/>
		</g>
		<g id="DENC174">
				<circle fill="none" stroke="#000000" stroke-width="0.5" stroke-miterlimit="10" cx="271.9" cy="543.8" r="7.5"/>
		</g>
		<g id="DENC172">
				<circle fill="none" stroke="#000000" stroke-width="0.5" stroke-miterlimit="10" cx="279.4" cy="536.3" r="7.5"/>
		</g>
		<g id="TOBA233">
				<ellipse id="TOBA233" transform="matrix(9.346890e-02 -0.9956 0.9956 9.346890e-02 -464.6318 1049.9436)" fill="none" stroke="#000000" stroke-width="0.5" stroke-miterlimit="10" cx="344.2" cy="780.1" rx="7.5" ry="7.5"/>
		</g>
		<g id="TOBB233">
				<ellipse id="TOBB233" transform="matrix(9.346890e-02 -0.9956 0.9956 9.346890e-02 -435.3668 1067.1775)" fill="none" stroke="#000000" stroke-width="0.5" stroke-miterlimit="10" cx="368.3" cy="772.7" rx="7.5" ry="7.5"/>
		</g>
		<g id="TOBB232">
				<ellipse id="TOBB232" transform="matrix(9.346890e-02 -0.9956 0.9956 9.346890e-02 -447.6486 1066.4045)" fill="none" stroke="#000000" stroke-width="0.5" stroke-miterlimit="10" cx="361.8" cy="779" rx="7.5" ry="7.5"/>
		</g>
		<g id="SKWA243">
				<circle fill="none" stroke="#000000" stroke-width="0.5" stroke-miterlimit="10" cx="336.8" cy="824.1" r="7.5"/>
		</g>
		<g id="SKWE245">
				<circle fill="none" stroke="#000000" stroke-width="0.5" stroke-miterlimit="10" cx="352.6" cy="828.8" r="7.5"/>
		</g>
		<g id="SKWE243">
				<circle fill="none" stroke="#000000" stroke-width="0.5" stroke-miterlimit="10" cx="349.3" cy="839.1" r="7.5"/>
		</g>
		<g id="SKWF244">
				<circle fill="none" stroke="#000000" stroke-width="0.5" stroke-miterlimit="10" cx="370.5" cy="797.8" r="7.5"/>
		</g>
		<g id="SKWC241">
				<circle fill="none" stroke="#000000" stroke-width="0.5" stroke-miterlimit="10" cx="354.3" cy="794" r="7.5"/>
		</g>
		<g id="SKWD244">
				<ellipse id="SKWD244" transform="matrix(0.1658 -0.9862 0.9862 0.1658 -519.4124 1000.6473)" fill="none" stroke="#000000" stroke-width="0.5" stroke-miterlimit="10" cx="331.8" cy="807.3" rx="7.5" ry="7.5"/>
		</g>
		<g id="SKWD243">
				<ellipse id="SKWD243" transform="matrix(0.1658 -0.9862 0.9862 0.1658 -508.2003 995.6167)" fill="none" stroke="#000000" stroke-width="0.5" stroke-miterlimit="10" cx="334.4" cy="798.2" rx="7.5" ry="7.5"/>
		</g>
		<g id="ELAD254">
				<circle fill="none" stroke="#000000" stroke-width="0.5" stroke-miterlimit="10" cx="372.1" cy="816.5" r="7.5"/>
		</g>
		<g id="ELAD252">
				<circle fill="none" stroke="#000000" stroke-width="0.5" stroke-miterlimit="10" cx="379.6" cy="810.5" r="7.3"/>
		</g>
		<g id="SQMC255">
				<circle fill="none" stroke="#000000" stroke-width="0.5" stroke-miterlimit="10" cx="392.6" cy="827.4" r="7.5"/>
		</g>
		<g id="SQMC252">
				<circle fill="none" stroke="#000000" stroke-width="0.5" stroke-miterlimit="10" cx="383.6" cy="828.8" r="7.5"/>
		</g>
		<g id="SQMB253">
				<circle fill="none" stroke="#000000" stroke-width="0.5" stroke-miterlimit="10" cx="370.5" cy="841.8" r="7.5"/>
		</g>
		<g id="SQMA251">
				<circle fill="none" stroke="#000000" stroke-width="0.5" stroke-miterlimit="10" cx="386.5" cy="853.6" r="7.5"/>
		</g>
		<g id="SQMA255">
				<circle fill="none" stroke="#000000" stroke-width="0.5" stroke-miterlimit="10" cx="380.6" cy="859.3" r="7.5"/>
		</g>
		<g id="SQMA253">
				<circle fill="none" stroke="#000000" stroke-width="0.5" stroke-miterlimit="10" cx="390.1" cy="861.1" r="7.5"/>
		</g>
		<g id="HARB265">
				<circle fill="none" stroke="#000000" stroke-width="0.5" stroke-miterlimit="10" cx="450.2" cy="837.5" r="7.5"/>
		</g>
		<g id="HARB264">
				<circle fill="none" stroke="#000000" stroke-width="0.5" stroke-miterlimit="10" cx="440.9" cy="838.6" r="7.5"/>
		</g>
		<g id="HARB263">
				<circle fill="none" stroke="#000000" stroke-width="0.5" stroke-miterlimit="10" cx="440.9" cy="827.4" r="7.5"/>
		</g>
		<g id="HARB261">
				<circle fill="none" stroke="#000000" stroke-width="0.5" stroke-miterlimit="10" cx="431.6" cy="831.6" r="7.5"/>
		</g>
		<g id="GLCB261">
				<circle fill="none" stroke="#000000" stroke-width="0.5" stroke-miterlimit="10" cx="420.8" cy="861.1" r="7.5"/>
		</g>
		<g id="GLCB264">
				<circle fill="none" stroke="#000000" stroke-width="0.5" stroke-miterlimit="10" cx="430.9" cy="856.4" r="7.5"/>
		</g>
		<g id="HARC262">
				<circle fill="none" stroke="#000000" stroke-width="0.5" stroke-miterlimit="10" cx="430.1" cy="875.1" r="7.5"/>
		</g>
		<g id="HARC261">
				<circle fill="none" stroke="#000000" stroke-width="0.5" stroke-miterlimit="10" cx="438.4" cy="872" r="7.5"/>
		</g>
		<g id="NHTB271">
				<circle fill="none" stroke="#000000" stroke-width="0.5" stroke-miterlimit="10" cx="464.4" cy="858.5" r="7.5"/>
		</g>
		<g id="LILB262">
				<ellipse id="LILB262" transform="matrix(0.9704 -0.2414 0.2414 0.9704 -181.3399 127.2086)" fill="none" stroke="#000000" stroke-width="0.5" stroke-miterlimit="10" cx="428.5" cy="803.7" rx="7.5" ry="7.5"/>
		</g>
		<g id="LILB261">
				<ellipse id="LILB261" transform="matrix(0.9704 -0.2414 0.2414 0.9704 -178.6715 126.5871)" fill="none" stroke="#000000" stroke-width="0.5" stroke-miterlimit="10" cx="427.3" cy="792.5" rx="7.5" ry="7.5"/>
		</g>
		<g id="LILB265">
				<ellipse id="LILB265" transform="matrix(0.9704 -0.2414 0.2414 0.9704 -179.7304 128.9468)" fill="none" stroke="#000000" stroke-width="0.5" stroke-miterlimit="10" cx="436.4" cy="798" rx="7.5" ry="7.5"/>
		</g>
		<g id="LILC265">
				<ellipse id="LILC265" transform="matrix(0.5826 -0.8128 0.8128 0.5826 -453.5392 651.8292)" fill="none" stroke="#000000" stroke-width="0.5" stroke-miterlimit="10" cx="407.8" cy="767.5" rx="7.5" ry="7.5"/>
		</g>
		<g id="LILC262">
				<ellipse id="LILC262" transform="matrix(0.5826 -0.8128 0.8128 0.5826 -463.6677 650.256)" fill="none" stroke="#000000" stroke-width="0.5" stroke-miterlimit="10" cx="401.2" cy="776.5" rx="7.5" ry="7.5"/>
		</g>
		<g id="LILC261">
				<ellipse id="LILC261" transform="matrix(0.5826 -0.8128 0.8128 0.5826 -461.6379 659.2018)" fill="none" stroke="#000000" stroke-width="0.5" stroke-miterlimit="10" cx="411" cy="779" rx="7.5" ry="7.5"/>
		</g>
		<g id="LILD263">
				<circle fill="none" stroke="#000000" stroke-width="0.5" stroke-miterlimit="10" cx="419.9" cy="819" r="7.5"/>
		</g>
		<circle class="st1" cx="280.9" cy="827.4" r="2.5"/>
		<circle class="st1" cx="280.9" cy="816.5" r="2.5"/>
		<line class="st2" x1="280.9" y1="816.5" x2="271.8" y2="811.4"/>
		<line class="st2" x1="280.9" y1="827.4" x2="271.1" y2="829.9"/>
		<circle class="st1" cx="259.8" cy="790.3" r="2.5"/>
		<circle class="st1" cx="256.3" cy="785.9" r="2.5"/>
		<circle class="st1" cx="255.1" cy="790.9" r="2.5"/>
		<circle class="st1" cx="242.9" cy="788.4" r="2.5"/>
		<circle class="st1" cx="253.1" cy="782.5" r="2.5"/>
		<line class="st2" x1="259.8" y1="790.3" x2="252.3" y2="801.5"/>
		<line class="st2" x1="253.1" y1="782.5" x2="241.1" y2="773.4"/>
		<line class="st2" x1="256.3" y1="785.9" x2="229.8" y2="780.9"/>
		<line class="st2" x1="242.9" y1="788.4" x2="215.2" y2="795.1"/>
		<line class="st2" x1="255.1" y1="790.9" x2="235.4" y2="798.8"/>
		<circle class="st1" cx="433.4" cy="923.3" r="2.5"/>
		<line class="st2" x1="433.4" y1="923.3" x2="433.4" y2="930.8"/>
		<circle class="st1" cx="451.6" cy="933.8" r="2.5"/>
		<circle class="st1" cx="458.5" cy="933.8" r="2.5"/>
		<circle class="st1" cx="448.2" cy="920.8" r="2.5"/>
		<circle class="st1" cx="474.9" cy="907.1" r="2.5"/>
		<circle class="st1" cx="474.9" cy="897.1" r="2.5"/>
		<circle class="st1" cx="480.6" cy="898" r="2.5"/>
		<circle class="st1" cx="479.9" cy="889.5" r="2.5"/>
		<line class="st2" x1="451.6" y1="941.7" x2="451.6" y2="933.8"/>
		<line class="st2" x1="458.5" y1="933.8" x2="462.7" y2="938.3"/>
		<line class="st2" x1="448.2" y1="920.8" x2="467.4" y2="924.3"/>
		<line class="st2" x1="483.1" y1="908.3" x2="474.9" y2="907.1"/>
		<line class="st2" x1="474.9" y1="897.1" x2="471.1" y2="888.2"/>
		<line class="st2" x1="479.9" y1="889.5" x2="482.4" y2="879.7"/>
		<circle class="st1" cx="426.4" cy="845" r="2.5"/>
		<line class="st2" x1="433.4" y1="838.6" x2="426.4" y2="845"/>
		<circle class="st1" cx="384.5" cy="842.5" r="2.5"/>
		<line class="st2" x1="384.5" y1="842.5" x2="378" y2="842.5"/>
		<circle class="st1" cx="401.3" cy="794.7" r="2.5"/>
		<circle class="st1" cx="411.3" cy="801.5" r="2.5"/>
		<line class="st2" x1="401.3" y1="794.7" x2="404.7" y2="783.2"/>
		<line class="st2" x1="411.3" y1="801.5" x2="423" y2="798.6"/>
		<circle class="st1" cx="351.2" cy="813" r="2.5"/>
		<ellipse transform="matrix(0.7364 -0.6765 0.6765 0.7364 -456.5813 455.429)" class="st1" cx="356.2" cy="813.7" rx="2.5" ry="2.5"/>
		<circle class="st1" cx="348.7" cy="807.8" r="2.5"/>
		<circle class="st1" cx="354.3" cy="805.3" r="2.5"/>
		<circle class="st1" cx="359.3" cy="807.8" r="2.5"/>
		<line class="st2" x1="348.7" y1="807.8" x2="338.4" y2="804"/>
		<line class="st2" x1="354.3" y1="804.7" x2="354.3" y2="801.5"/>
		<line class="st2" x1="359.3" y1="807.8" x2="364.6" y2="802.8"/>
		<line class="st2" x1="356.2" y1="813.7" x2="353.7" y2="821.3"/>
		<line class="st2" x1="351.2" y1="813" x2="341.8" y2="817.8"/>
		<circle class="st1" cx="297.4" cy="756.3" r="2.5"/>
		<circle class="st1" cx="291.7" cy="761.7" r="2.5"/>
		<line class="st2" x1="297.4" y1="756.3" x2="282.2" y2="753.5"/>
		<line class="st2" x1="291.7" y1="761.7" x2="294.9" y2="768.7"/>
		<circle class="st1" cx="339.8" cy="756.1" r="2.5"/>
		<line class="st2" x1="339.8" y1="756.1" x2="334.3" y2="759.2"/>
		<circle class="st1" cx="323.4" cy="740.7" r="2.5"/>
		<ellipse transform="matrix(0.7757 -0.6311 0.6311 0.7757 -393.6624 368.2052)" class="st1" cx="321.2" cy="737.9" rx="2.5" ry="2.5"/>
		<line class="st2" x1="321.2" y1="738" x2="314.4" y2="733.5"/>
		<line class="st2" x1="323.4" y1="740.7" x2="332.3" y2="730.5"/>
		<circle class="st1" cx="324.3" cy="714.4" r="2.5"/>
		<circle class="st1" cx="332.8" cy="711.9" r="2.5"/>
		<line class="st2" x1="324.3" y1="714.4" x2="318.4" y2="707.7"/>
		<line class="st2" x1="332.8" y1="711.9" x2="339" y2="704.2"/>
		<circle class="st1" cx="262.2" cy="660.6" r="2.5"/>
		<circle class="st1" cx="256.9" cy="656.3" r="2.5"/>
		<line class="st2" x1="256.9" y1="656.3" x2="256.9" y2="652.2"/>
		<line class="st2" x1="262.2" y1="660.6" x2="266.5" y2="658.8"/>
		<circle class="st1" cx="236.4" cy="638.5" r="2.5"/>
		<line class="st2" x1="236.4" y1="638.5" x2="236.8" y2="629.3"/>
		<circle class="st1" cx="278.7" cy="561.1" r="2.5"/>
		<circle class="st1" cx="286.2" cy="557.8" r="2.5"/>
		<line class="st2" x1="278.7" y1="560.3" x2="275.6" y2="550.3"/>
		<line class="st2" x1="286.2" y1="557.8" x2="288.9" y2="553.6"/>
		<circle class="st1" cx="503.5" cy="608.3" r="2.5"/>
		<circle class="st1" cx="494.4" cy="594.9" r="2.5"/>
		<line class="st2" x1="494.4" y1="594.9" x2="499" y2="588.8"/>
		<line class="st2" x1="503.5" y1="608.3" x2="508.5" y2="616.3"/>
		<text transform="matrix(1 0 0 1 242 60)" class="st3 st4">Populus trichocarpa - Natural Variation - Leaf expression</text>
		<text transform="matrix(1 0 0 1 242 94.8)" class="st3 st5">Clones from 194 wild trees (accession founders) were grown in a common garden</text>
		<text transform="matrix(1 0 0 1 242 109.2)" class="st3 st5">(location denoted by </text>
		<text transform="matrix(1 0 0 1 348.9 109.2)" class="st6 st3 st5">X</text>
		<text transform="matrix(1 0 0 1 355.8 109.2)" class="st3 st5">) and developing leaves (first fully unfurled leaf below the </text>
		<text transform="matrix(1 0 0 1 242 123.6)" class="st3 st5">shoot apex) were used in duplicates for RNAseq analysis. Gene expression is</text>
		<text transform="matrix(1 0 0 1 242 138)" class="st3 st5">mapped to the location of the accession founders.</text>
		<text transform="matrix(1 0 0 1 370.7004 902.1003)" class="st6 st3 st7">X</text>
</svg>
