<?xml version='1.0' encoding='utf-8'?>
<svg xmlns="http://www.w3.org/2000/svg" height="824.01" id="svg17137" version="1.1" viewBox="0 0 1247.4 824.01" width="1247.4">
    <g id="g3737" style="font-size:30px;font-family:sans-serif;fill:#000000">
        <text id="text18012" style="fill:#000000;font-family:Arial;font-size:16px;letter-spacing:0px;line-height:1.25;text-align:center;text-anchor:middle;word-spacing:0px" x="121.66702" y="134.0083" xml:space="preserve">
            <tspan id="tspan18010" x="121.66702" y="134.0083">20°C</tspan>
        </text>
        <text id="text18016" style="fill:#000000;font-family:Arial;font-size:16px;letter-spacing:0px;line-height:1.25;text-align:center;text-anchor:middle;word-spacing:0px" x="121.66702" y="276.85187" xml:space="preserve">
            <tspan id="tspan18014" x="121.66702" y="276.85187">14°C</tspan>
        </text>
        <text id="text18020" style="fill:#000000;font-family:Arial;font-size:16px;letter-spacing:0px;line-height:1.25;text-align:center;text-anchor:middle;word-spacing:0px" x="121.66702" y="396.87793" xml:space="preserve">
            <tspan id="tspan18018" x="121.66702" y="396.87793">26°C</tspan>
        </text>
        <text id="text18024" style="fill:#000000;font-family:Arial;font-size:16px;letter-spacing:0px;line-height:1.25;text-align:center;text-anchor:middle;word-spacing:0px" x="121.66702" y="538.94354" xml:space="preserve">
            <tspan id="tspan18022" x="121.66702" y="538.94354">Green</tspan>
            <tspan id="tspan18026" x="121.66702" y="558.94354">house</tspan>
        </text>
        <text id="text18032" style="fill:#000000;font-family:Arial;font-size:16px;letter-spacing:0px;line-height:1.25;text-align:center;text-anchor:middle;word-spacing:0px" x="128.57031" y="678.8443" xml:space="preserve">
            <tspan id="tspan18030" x="128.57031" y="678.8443">Osmotic</tspan>
            <tspan id="tspan18036" x="128.57031" y="698.8443">stress</tspan>
        </text>
    </g>
    <g id="g3651" style="font-size:30px;font-family:sans-serif;fill:#000000">
        <text id="text951" style="fill:#000000;font-family:Arial;font-size:16px;letter-spacing:0px;line-height:1.25;text-align:center;text-anchor:middle;word-spacing:0px" x="1036.045" y="311.92096" xml:space="preserve">
            <tspan id="tspan949" x="1036.045" y="311.92096">Abs</tspan>
        </text>
        <text id="text955" style="fill:#000000;font-family:Arial;font-size:16px;letter-spacing:0px;line-height:1.25;text-align:center;text-anchor:middle;word-spacing:0px" x="1122.7289" y="311.92096" xml:space="preserve">
            <tspan id="tspan953" x="1122.7289" y="311.92096">DS</tspan>
        </text>
        <text id="text987" style="fill:#000000;font-family:Arial;font-size:16px;letter-spacing:0px;line-height:1.25;text-align:center;text-anchor:middle;word-spacing:0px" x="176.20322" y="311.92096" xml:space="preserve">
            <tspan id="tspan985" x="176.20322" y="311.92096">DAP</tspan>
        </text>
        <text id="text991" style="fill:#000000;font-family:Arial;font-size:16px;letter-spacing:0px;line-height:1.25;text-align:center;text-anchor:middle;word-spacing:0px" x="233.73056" y="311.92096" xml:space="preserve">
            <tspan id="tspan989" x="233.73056" y="311.92096">22</tspan>
        </text>
        <text id="text995" style="fill:#000000;font-family:Arial;font-size:16px;letter-spacing:0px;line-height:1.25;text-align:center;text-anchor:middle;word-spacing:0px" x="305.83148" y="311.92096" xml:space="preserve">
            <tspan id="tspan993" x="305.83148" y="311.92096">28</tspan>
        </text>
        <text id="text999" style="fill:#000000;font-family:Arial;font-size:16px;letter-spacing:0px;line-height:1.25;text-align:center;text-anchor:middle;word-spacing:0px" x="391.73898" y="311.92096" xml:space="preserve">
            <tspan id="tspan997" x="391.73898" y="311.92096">34</tspan>
        </text>
        <text id="text1003" style="fill:#000000;font-family:Arial;font-size:16px;letter-spacing:0px;line-height:1.25;text-align:center;text-anchor:middle;word-spacing:0px" x="480.71457" y="311.92096" xml:space="preserve">
            <tspan id="tspan1001" x="480.71457" y="311.92096">40</tspan>
        </text>
        <text id="text1007" style="fill:#000000;font-family:Arial;font-size:16px;letter-spacing:0px;line-height:1.25;text-align:center;text-anchor:middle;word-spacing:0px" x="558.18469" y="311.92096" xml:space="preserve">
            <tspan id="tspan1005" x="558.18469" y="311.92096">46</tspan>
        </text>
        <text id="text1011" style="fill:#000000;font-family:Arial;font-size:16px;letter-spacing:0px;line-height:1.25;text-align:center;text-anchor:middle;word-spacing:0px" x="637.18896" y="311.92096" xml:space="preserve">
            <tspan id="tspan1009" x="637.18896" y="311.92096">52</tspan>
        </text>
        <text id="text1015" style="fill:#000000;font-family:Arial;font-size:16px;letter-spacing:0px;line-height:1.25;text-align:center;text-anchor:middle;word-spacing:0px" x="724.63049" y="311.92096" xml:space="preserve">
            <tspan id="tspan1013" x="724.63049" y="311.92096">58</tspan>
        </text>
        <text id="text1019" style="fill:#000000;font-family:Arial;font-size:16px;letter-spacing:0px;line-height:1.25;text-align:center;text-anchor:middle;word-spacing:0px" x="833.54883" y="311.92096" xml:space="preserve">
            <tspan id="tspan1017" x="833.54883" y="311.92096">65</tspan>
        </text>
    </g>
    <g id="g272" style="font-size:30px;font-family:sans-serif;fill:#000000">
        <text id="text959" style="fill:#000000;font-family:Arial;font-size:16px;letter-spacing:0px;line-height:1.25;text-align:center;text-anchor:middle;word-spacing:0px" x="1036.045" y="432.91843" xml:space="preserve">
            <tspan id="tspan957" x="1036.045" y="432.91843">Abs</tspan>
        </text>
        <text id="text963" style="fill:#000000;font-family:Arial;font-size:16px;letter-spacing:0px;line-height:1.25;text-align:center;text-anchor:middle;word-spacing:0px" x="1122.7289" y="432.91843" xml:space="preserve">
            <tspan id="tspan961" x="1122.7289" y="432.91843">DS</tspan>
        </text>
        <text id="text1031" style="fill:#000000;font-family:Arial;font-size:16px;letter-spacing:0px;line-height:1.25;text-align:center;text-anchor:middle;word-spacing:0px" x="176.20322" y="432.91843" xml:space="preserve">
            <tspan id="tspan1029" x="176.20322" y="432.91843">DAP</tspan>
        </text>
        <text id="text1035" style="fill:#000000;font-family:Arial;font-size:16px;letter-spacing:0px;line-height:1.25;text-align:center;text-anchor:middle;word-spacing:0px" x="229.89539" y="429.85031" xml:space="preserve">
            <tspan id="tspan1033" x="229.89539" y="429.85031">7</tspan>
        </text>
        <text id="text1039" style="fill:#000000;font-family:Arial;font-size:16px;letter-spacing:0px;line-height:1.25;text-align:center;text-anchor:middle;word-spacing:0px" x="287.42273" y="429.85031" xml:space="preserve">
            <tspan id="tspan1037" x="287.42273" y="429.85031">9</tspan>
        </text>
        <text id="text1043" style="fill:#000000;font-family:Arial;font-size:16px;letter-spacing:0px;line-height:1.25;text-align:center;text-anchor:middle;word-spacing:0px" x="368.728" y="429.85031" xml:space="preserve">
            <tspan id="tspan1041" x="368.728" y="429.85031">11</tspan>
        </text>
        <text id="text1047" style="fill:#000000;font-family:Arial;font-size:16px;letter-spacing:0px;line-height:1.25;text-align:center;text-anchor:middle;word-spacing:0px" x="463.83987" y="429.85031" xml:space="preserve">
            <tspan id="tspan1045" x="463.83987" y="429.85031">14</tspan>
        </text>
        <text id="text1051" style="fill:#000000;font-family:Arial;font-size:16px;letter-spacing:0px;line-height:1.25;text-align:center;text-anchor:middle;word-spacing:0px" x="557.4176" y="429.85031" xml:space="preserve">
            <tspan id="tspan1049" x="557.4176" y="429.85031">17</tspan>
        </text>
        <text id="text1055" style="fill:#000000;font-family:Arial;font-size:16px;letter-spacing:0px;line-height:1.25;text-align:center;text-anchor:middle;word-spacing:0px" x="633.35376" y="429.85031" xml:space="preserve">
            <tspan id="tspan1053" x="633.35376" y="429.85031">20</tspan>
        </text>
    </g>
    <g id="g3627" style="font-size:30px;font-family:sans-serif;fill:#000000">
        <text id="text891" style="fill:#000000;font-family:Arial;font-size:16px;letter-spacing:0px;line-height:1.25;text-align:center;text-anchor:middle;word-spacing:0px" x="179.1944" y="160.08736" xml:space="preserve">
            <tspan id="tspan889" x="179.1944" y="160.08736">8</tspan>
        </text>
        <text id="text895" style="fill:#000000;font-family:Arial;font-size:16px;letter-spacing:0px;line-height:1.25;text-align:center;text-anchor:middle;word-spacing:0px" x="234.42062" y="160.08736" xml:space="preserve">
            <tspan id="tspan893" x="234.42062" y="160.08736">11</tspan>
        </text>
        <text id="text899" style="fill:#000000;font-family:Arial;font-size:16px;letter-spacing:0px;line-height:1.25;text-align:center;text-anchor:middle;word-spacing:0px" x="288.11282" y="162.38844" xml:space="preserve">
            <tspan id="tspan897" x="288.11282" y="162.38844">14</tspan>
        </text>
        <text id="text903" style="fill:#000000;font-family:Arial;font-size:16px;letter-spacing:0px;line-height:1.25;text-align:center;text-anchor:middle;word-spacing:0px" x="343.33905" y="162.38844" xml:space="preserve">
            <tspan id="tspan901" x="343.33905" y="162.38844">17</tspan>
        </text>
        <text id="text907" style="fill:#000000;font-family:Arial;font-size:16px;letter-spacing:0px;line-height:1.25;text-align:center;text-anchor:middle;word-spacing:0px" x="412.95712" y="160.08736" xml:space="preserve">
            <tspan id="tspan905" x="412.95712" y="160.08736">20</tspan>
        </text>
        <text id="text911" style="fill:#000000;font-family:Arial;font-size:16px;letter-spacing:0px;line-height:1.25;text-align:center;text-anchor:middle;word-spacing:0px" x="483.91214" y="160.08736" xml:space="preserve">
            <tspan id="tspan909" x="483.91214" y="160.08736">23</tspan>
        </text>
        <text id="text915" style="fill:#000000;font-family:Arial;font-size:16px;letter-spacing:0px;line-height:1.25;text-align:center;text-anchor:middle;word-spacing:0px" x="548.99414" y="162.38844" xml:space="preserve">
            <tspan id="tspan913" x="548.99414" y="162.38844">26</tspan>
        </text>
        <text id="text919" style="fill:#000000;font-family:Arial;font-size:16px;letter-spacing:0px;line-height:1.25;text-align:center;text-anchor:middle;word-spacing:0px" x="623.74585" y="162.38844" xml:space="preserve">
            <tspan id="tspan917" x="623.74585" y="162.38844">29</tspan>
        </text>
        <text id="text923" style="fill:#000000;font-family:Arial;font-size:16px;letter-spacing:0px;line-height:1.25;text-align:center;text-anchor:middle;word-spacing:0px" x="691.09863" y="163.88397" xml:space="preserve">
            <tspan id="tspan921" x="691.09863" y="163.88397">32</tspan>
        </text>
        <text id="text927" style="fill:#000000;font-family:Arial;font-size:16px;letter-spacing:0px;line-height:1.25;text-align:center;text-anchor:middle;word-spacing:0px" x="760.51965" y="166.18506" xml:space="preserve">
            <tspan id="tspan925" x="760.51965" y="166.18506">35</tspan>
        </text>
        <text id="text931" style="fill:#000000;font-family:Arial;font-size:16px;letter-spacing:0px;line-height:1.25;text-align:center;text-anchor:middle;word-spacing:0px" x="824.96619" y="166.18506" xml:space="preserve">
            <tspan id="tspan929" x="824.96619" y="166.18506">38</tspan>
        </text>
        <text id="text935" style="fill:#000000;font-family:Arial;font-size:16px;letter-spacing:0px;line-height:1.25;text-align:center;text-anchor:middle;word-spacing:0px" x="892.95703" y="163.88397" xml:space="preserve">
            <tspan id="tspan933" x="892.95703" y="163.88397">41</tspan>
        </text>
        <text id="text939" style="fill:#000000;font-family:Arial;font-size:16px;letter-spacing:0px;line-height:1.25;text-align:center;text-anchor:middle;word-spacing:0px" x="962.82739" y="163.88397" xml:space="preserve">
            <tspan id="tspan937" x="962.82739" y="163.88397">44</tspan>
        </text>
        <text id="text943" style="fill:#000000;font-family:Arial;font-size:16px;letter-spacing:0px;line-height:1.25;text-align:center;text-anchor:middle;word-spacing:0px" x="1036.045" y="166.18506" xml:space="preserve">
            <tspan id="tspan941" x="1036.045" y="166.18506">Abs</tspan>
        </text>
        <text id="text947" style="fill:#000000;font-family:Arial;font-size:16px;letter-spacing:0px;line-height:1.25;text-align:center;text-anchor:middle;word-spacing:0px" x="1122.7289" y="166.18506" xml:space="preserve">
            <tspan id="tspan945" x="1122.7289" y="166.18506">DS</tspan>
        </text>
        <text id="text1059" style="fill:#000000;font-family:Arial;font-size:16px;letter-spacing:0px;line-height:1.25;text-align:center;text-anchor:middle;word-spacing:0px" x="143.91098" y="160.08736" xml:space="preserve">
            <tspan id="tspan1057" x="143.91098" y="160.08736">DAP</tspan>
        </text>
    </g>
    <g id="g314" style="font-size:30px;font-family:sans-serif;fill:#000000">
        <text id="text967" style="fill:#000000;font-family:Arial;font-size:16px;letter-spacing:0px;line-height:1.25;text-align:center;text-anchor:middle;word-spacing:0px" x="1036.045" y="567.84778" xml:space="preserve">
            <tspan id="tspan965" x="1036.045" y="567.84778">Abs</tspan>
        </text>
        <text id="text971" style="fill:#000000;font-family:Arial;font-size:16px;letter-spacing:0px;line-height:1.25;text-align:center;text-anchor:middle;word-spacing:0px" x="1122.7289" y="567.84778" xml:space="preserve">
            <tspan id="tspan969" x="1122.7289" y="567.84778">DS</tspan>
        </text>
        <text id="text1067" style="fill:#000000;font-family:Arial;font-size:16px;letter-spacing:0px;line-height:1.25;text-align:center;text-anchor:middle;word-spacing:0px" x="177.20322" y="567.08075" xml:space="preserve">
            <tspan id="tspan1065" x="177.20322" y="567.08075">DAP</tspan>
        </text>
        <text id="text1071" style="fill:#000000;font-family:Arial;font-size:16px;letter-spacing:0px;line-height:1.25;text-align:center;text-anchor:middle;word-spacing:0px" x="255.80289" y="567.08075" xml:space="preserve">
            <tspan id="tspan1069" x="255.80289" y="567.08075">16</tspan>
        </text>
        <text id="text1075" style="fill:#000000;font-family:Arial;font-size:16px;letter-spacing:0px;line-height:1.25;text-align:center;text-anchor:middle;word-spacing:0px" x="345.94333" y="567.08075" xml:space="preserve">
            <tspan id="tspan1073" x="345.94333" y="567.08075">20</tspan>
        </text>
        <text id="text1079" style="fill:#000000;font-family:Arial;font-size:16px;letter-spacing:0px;line-height:1.25;text-align:center;text-anchor:middle;word-spacing:0px" x="492.98709" y="567.08075" xml:space="preserve">
            <tspan id="tspan1077" x="492.98709" y="567.08075">24</tspan>
        </text>
        <text id="text1083" style="fill:#000000;font-family:Arial;font-size:16px;letter-spacing:0px;line-height:1.25;text-align:center;text-anchor:middle;word-spacing:0px" x="603.43958" y="567.08075" xml:space="preserve">
            <tspan id="tspan1081" x="603.43958" y="567.08075">28</tspan>
        </text>
        <text id="text1087" style="fill:#000000;font-family:Arial;font-size:16px;letter-spacing:0px;line-height:1.25;text-align:center;text-anchor:middle;word-spacing:0px" x="680.90967" y="567.08075" xml:space="preserve">
            <tspan id="tspan1085" x="680.90967" y="567.08075">32</tspan>
        </text>
        <text id="text1091" style="fill:#000000;font-family:Arial;font-size:16px;letter-spacing:0px;line-height:1.25;text-align:center;text-anchor:middle;word-spacing:0px" x="802.10059" y="567.08075" xml:space="preserve">
            <tspan id="tspan1089" x="802.10059" y="567.08075">36</tspan>
        </text>
        <text id="text1095" style="fill:#000000;font-family:Arial;font-size:16px;letter-spacing:0px;line-height:1.25;text-align:center;text-anchor:middle;word-spacing:0px" x="911.78601" y="567.08075" xml:space="preserve">
            <tspan id="tspan1093" x="911.78601" y="567.08075">40</tspan>
        </text>
    </g>
    <g id="g348" style="font-size:30px;font-family:sans-serif;fill:#000000">
        <text id="text975" style="fill:#000000;font-family:Arial;font-size:16px;letter-spacing:0px;line-height:1.25;text-align:center;text-anchor:middle;word-spacing:0px" x="1036.045" y="711.81665" xml:space="preserve">
            <tspan id="tspan973" x="1036.045" y="711.81665">Abs</tspan>
        </text>
        <text id="text979" style="fill:#000000;font-family:Arial;font-size:16px;letter-spacing:0px;line-height:1.25;text-align:center;text-anchor:middle;word-spacing:0px" x="1122.7289" y="711.81665" xml:space="preserve">
            <tspan id="tspan977" x="1122.7289" y="711.81665">DS</tspan>
        </text>
        <text id="text1103" style="fill:#000000;font-family:Arial;font-size:16px;letter-spacing:0px;line-height:1.25;text-align:center;text-anchor:middle;word-spacing:0px" x="176.20322" y="711.04962" xml:space="preserve">
            <tspan id="tspan1101" x="176.20322" y="711.04962">DAP</tspan>
        </text>
        <text id="text1107" style="fill:#000000;font-family:Arial;font-size:16px;letter-spacing:0px;line-height:1.25;text-align:center;text-anchor:middle;word-spacing:0px" x="239.86679" y="711.04962" xml:space="preserve">
            <tspan id="tspan1105" x="239.86679" y="711.04962">12</tspan>
        </text>
        <text id="text1111" style="fill:#000000;font-family:Arial;font-size:16px;letter-spacing:0px;line-height:1.25;text-align:center;text-anchor:middle;word-spacing:0px" x="348.78522" y="711.04962" xml:space="preserve">
            <tspan id="tspan1109" x="348.78522" y="711.04962">15</tspan>
        </text>
        <text id="text1115" style="fill:#000000;font-family:Arial;font-size:16px;letter-spacing:0px;line-height:1.25;text-align:center;text-anchor:middle;word-spacing:0px" x="443.13004" y="711.04962" xml:space="preserve">
            <tspan id="tspan1113" x="443.13004" y="711.04962">20</tspan>
        </text>
        <text id="text1119" style="fill:#000000;font-family:Arial;font-size:16px;letter-spacing:0px;line-height:1.25;text-align:center;text-anchor:middle;word-spacing:0px" x="594.23511" y="711.04962" xml:space="preserve">
            <tspan id="tspan1117" x="594.23511" y="711.04962">25</tspan>
        </text>
        <text id="text1123" style="fill:#000000;font-family:Arial;font-size:16px;letter-spacing:0px;line-height:1.25;text-align:center;text-anchor:middle;word-spacing:0px" x="787.52698" y="711.04962" xml:space="preserve">
            <tspan id="tspan1121" x="787.52698" y="711.04962">30</tspan>
        </text>
    </g>
    <g id="outlines">
        <path d="m1003.1 150.01v20" fill="none" id="path3807" stroke="#000000" stroke-miterlimit="10" stroke-width="1.4142" />
        <path d="m1003.1 297.09v20" fill="none" id="path3809" stroke="#000000" stroke-miterlimit="10" stroke-width="1.4142" />
        <path d="m1003.1 419.42v20" fill="none" id="path3811" stroke="#000000" stroke-miterlimit="10" stroke-width="1.4142" />
        <path d="m1003.1 552.36v20" fill="none" id="path3813" stroke="#000000" stroke-miterlimit="10" stroke-width="1.4142" />
        <path d="m1003.1 697.31v20" fill="none" id="path3815" stroke="#000000" stroke-miterlimit="10" stroke-width="1.4142" />
    </g>
    <g id="20C-14DAP">
        <path d="m261.99 140.41s4.2483-5.6644 7.0804-1.4161c0 0 22.657-2.8322 4.2483-18.881 0 0-19.117-12.981-24.31 7.3164 0 0 1.6521 13.453 12.981 12.981" fill="#ff9955" id="path14199" stroke="#000000" stroke-miterlimit="10" stroke-width="1.569" />
    </g>
    <g id="20C-DS">
        <path d="m1101.6 135.34s1.2805-8.7071-8.707 0c0 0-16.134 5.1218-20.487-15.109 0 0 4.6096-20.999 28.938-18.951 0 0 31.243 4.3535 23.048 36.621 0 0-1.7927 14.341-22.792-2.5609" fill="#803300" id="path14205" stroke="#000000" stroke-miterlimit="10" stroke-width="1.7025" />
    </g>
    <g id="20C-32DAP">
        <path d="m670.84 132.67s0.21581-7.4808 7.2913 1.2882c0 0 12.753 6.6759 19.391-9.6216 0 0-0.75333-18.267-21.429-20.151 0 0-26.807-0.97668-24.718 27.257 0 0-0.62056 12.274 19.465 1.2274" fill="#d45500" id="path14255" stroke="#000000" stroke-miterlimit="10" stroke-width="1.7025" />
    </g>
    <g id="20C-17DAP">
        <path d="m321.61 140.56s0.5122-5.8901-8.1948-3.3292c0 0-25.353-7.6827-0.25606-25.353 0 0 26.377-3.8414 26.121 19.463 0 0 0.51219 13.829-17.67 9.2192" fill="#ff7f2a" id="path14259" stroke="#000000" stroke-miterlimit="10" stroke-width="1.7025" />
    </g>
    <g id="20C-20DAP">
        <path d="m386.42 138.67s2.5609-9.9875 7.6827 0.25604c0 0 20.231 2.5609 18.695-15.109 0 0-12.548-36.365-43.535-0.25604 0 0-2.5608 11.012 17.158 15.109" fill="#ff6600" id="path14261" stroke="#000000" stroke-miterlimit="10" stroke-width="1.7025" />
    </g>
    <g id="20C-Abs">
        <path d="m1020.3 135.34s1.2805-8.7071-8.7071 0c0 0-16.134 5.1218-20.487-15.109 0 0 4.6096-20.999 28.938-18.951 0 0 31.243 4.3535 23.048 36.621 0 0-1.7927 14.341-22.792-2.5609" fill="#803300" id="path17742" stroke="#000000" stroke-miterlimit="10" stroke-width="1.7025" />
    </g>
    <g id="20C-44DAP">
        <path d="m946.49 135.34s1.2805-8.7071-8.7071 0c0 0-16.134 5.1218-20.487-15.109 0 0 4.6096-20.999 28.938-18.951 0 0 31.243 4.3535 23.048 36.621 0 0-1.7927 14.341-22.792-2.5609" fill="#803300" id="path17746" stroke="#000000" stroke-miterlimit="10" stroke-width="1.7025" />
    </g>
    <g id="20C-41DAP">
        <path d="m873.27 134.8s1.2805-8.7071-8.707 0c0 0-16.134 5.1218-20.487-15.109 0 0 4.6097-20.999 28.938-18.951 0 0 31.243 4.3535 23.048 36.621 0 0-1.7926 14.341-22.792-2.5609" fill="#803300" id="path17750" stroke="#000000" stroke-miterlimit="10" stroke-width="1.7025" />
    </g>
    <g id="20C-38DAP">
        <path d="m809.81 137.51s1.2805-8.7071-8.707 0c0 0-16.134 5.1218-20.487-15.109 0 0 4.6096-20.999 28.938-18.951 0 0 31.243 4.3535 23.048 36.621 0 0-1.7927 14.341-22.792-2.5609" fill="#803300" id="path17754" stroke="#000000" stroke-miterlimit="10" stroke-width="1.7025" />
    </g>
    <g id="20C-35DAP">
        <path d="m743.1 136.97s1.2805-8.7071-8.707 0c0 0-16.134 5.1218-20.487-15.109 0 0 4.6096-20.999 28.938-18.951 0 0 31.243 4.3535 23.048 36.621 0 0-1.7927 14.341-22.792-2.5609" fill="#803300" id="path17758" stroke="#000000" stroke-miterlimit="10" stroke-width="1.7025" />
    </g>
    <g id="20C-29DAP">
        <path d="m603.34 132.67s0.21581-7.4808 7.2913 1.2882c0 0 12.753 6.6759 19.391-9.6216 0 0-0.75332-18.267-21.429-20.151 0 0-26.807-0.97668-24.718 27.257 0 0-0.62055 12.274 19.465 1.2274" fill="#d45500" id="path17852" stroke="#000000" stroke-miterlimit="10" stroke-width="1.7025" />
    </g>
    <g id="20C-26DAP">
        <path d="m526.64 134.21s0.21581-7.4808 7.2913 1.2882c0 0 12.753 6.6759 19.391-9.6216 0 0-0.75332-18.267-21.429-20.151 0 0-26.807-0.97668-24.718 27.257 0 0-0.62056 12.274 19.465 1.2274" fill="#d45500" id="path17856" stroke="#000000" stroke-miterlimit="10" stroke-width="1.7025" />
    </g>
    <g id="20C-23DAP">
        <path d="m459.91 135.74s0.21581-7.4808 7.2913 1.2882c0 0 12.753 6.6759 19.391-9.6216 0 0-0.75332-18.267-21.429-20.151 0 0-26.807-0.97668-24.718 27.257 0 0-0.62056 12.274 19.465 1.2274" fill="#d45500" id="path17860" stroke="#000000" stroke-miterlimit="10" stroke-width="1.7025" />
    </g>
    <g id="20C-11DAP">
        <path d="m208.38 138.5s4.1071-5.4761 6.8451-1.369c0 0 21.904-2.738 4.1071-18.254 0 0-18.482-12.549-23.501 7.0733 0 0 1.5972 13.006 12.549 12.549" fill="#ff9955" id="path17936" stroke="#000000" stroke-miterlimit="10" stroke-width="1.5168" />
    </g>
    <g id="20C-8DAP">
        <path d="m157.49 136.46s3.1134-4.1512 5.189-1.0378c0 0 16.605-2.0756 3.1134-13.837 0 0-14.01-9.5131-17.815 5.3619 0 0 1.2108 9.8591 9.5131 9.5131" fill="#ff9955" id="path17940" stroke="#000000" stroke-miterlimit="10" stroke-width="1.1499" />
    </g>
    <g id="14C-DS">
        <path d="m1101.6 277.45s1.2805-8.7071-8.707 0c0 0-16.134 5.1218-20.487-15.109 0 0 4.6096-20.999 28.938-18.951 0 0 31.243 4.3535 23.048 36.621 0 0-1.7927 14.341-22.792-2.5609" fill="#803300" id="path17770" stroke="#000000" stroke-miterlimit="10" stroke-width="1.7025" />
    </g>
    <g id="14C-Abs">
        <path d="m1020.3 277.45s1.2805-8.7071-8.7071 0c0 0-16.134 5.1218-20.487-15.109 0 0 4.6096-20.999 28.938-18.951 0 0 31.243 4.3535 23.048 36.621 0 0-1.7927 14.341-22.792-2.5609" fill="#803300" id="path17774" stroke="#000000" stroke-miterlimit="10" stroke-width="1.7025" />
    </g>
    <g id="14C-65DAP">
        <path d="m819.58 277.45s1.2805-8.7071-8.707 0c0 0-16.134 5.1218-20.487-15.109 0 0 4.6096-20.999 28.938-18.951 0 0 31.243 4.3535 23.048 36.621 0 0-1.7927 14.341-22.792-2.5609" fill="#803300" id="path17836" stroke="#000000" stroke-miterlimit="10" stroke-width="1.7025" />
    </g>
    <g id="14C-58DAP">
        <path d="m701.52 278.41s0.2158-7.4808 7.2913 1.2882c0 0 12.753 6.6759 19.391-9.6216 0 0-0.75332-18.267-21.429-20.151 0 0-26.807-0.97668-24.718 27.257 0 0-0.62055 12.274 19.465 1.2274" fill="#d45500" id="path17864" stroke="#000000" stroke-miterlimit="10" stroke-width="1.7025" />
    </g>
    <g id="14C-52DAP">
        <path d="m614.08 278.41s0.21581-7.4808 7.2913 1.2882c0 0 12.753 6.6759 19.391-9.6216 0 0-0.75333-18.267-21.429-20.151 0 0-26.807-0.97668-24.718 27.257 0 0-0.62056 12.274 19.465 1.2274" fill="#d45500" id="path17868" stroke="#000000" stroke-miterlimit="10" stroke-width="1.7025" />
    </g>
    <g id="14C-46DAP">
        <path d="m535.84 278.41s0.21581-7.4808 7.2913 1.2882c0 0 12.753 6.6759 19.391-9.6216 0 0-0.75332-18.267-21.429-20.151 0 0-26.807-0.97668-24.718 27.257 0 0-0.62056 12.274 19.465 1.2274" fill="#d45500" id="path17872" stroke="#000000" stroke-miterlimit="10" stroke-width="1.7025" />
    </g>
    <g id="14C-40DAP">
        <path d="m460.67 278.41s0.21581-7.4808 7.2913 1.2882c0 0 12.753 6.6759 19.391-9.6216 0 0-0.75332-18.267-21.429-20.151 0 0-26.807-0.97668-24.718 27.257 0 0-0.62056 12.274 19.465 1.2274" fill="#d45500" id="path17876" stroke="#000000" stroke-miterlimit="10" stroke-width="1.7025" />
    </g>
    <g id="14C-34DAP">
        <path d="m369.55 279.8s2.5609-9.9875 7.6827 0.25604c0 0 20.231 2.5609 18.695-15.109 0 0-12.548-36.365-43.535-0.25604 0 0-2.5608 11.012 17.158 15.109" fill="#ff6600" id="path17908" stroke="#000000" stroke-miterlimit="10" stroke-width="1.7025" />
    </g>
    <g id="14C-28DAP">
        <path d="m288.52 277.78s0.5122-5.8901-8.1948-3.3292c0 0-25.353-7.6827-0.25606-25.353 0 0 26.377-3.8414 26.121 19.463 0 0 0.51219 13.829-17.67 9.2192" fill="#ff7f2a" id="path17920" stroke="#000000" stroke-miterlimit="10" stroke-width="1.7025" />
    </g>
    <g id="14C-22DAP">
        <path d="m211.64 280.6s4.1071-5.4761 6.8451-1.369c0 0 21.904-2.738 4.1071-18.254 0 0-18.482-12.549-23.501 7.0733 0 0 1.5972 13.006 12.549 12.549" fill="#ff9955" id="path17932" stroke="#000000" stroke-miterlimit="10" stroke-width="1.5168" />
    </g>
    <g id="26C-DS">
        <path d="m1100.5 403.28s1.2805-8.7071-8.7071 0c0 0-16.134 5.1218-20.487-15.109 0 0 4.6096-20.999 28.938-18.951 0 0 31.243 4.3535 23.048 36.621 0 0-1.7927 14.341-22.792-2.5609" fill="#803300" id="path17778" stroke="#000000" stroke-miterlimit="10" stroke-width="1.7025" />
    </g>
    <g id="26C-Abs">
        <path d="m1019.2 403.28s1.2805-8.7071-8.707 0c0 0-16.134 5.1218-20.487-15.109 0 0 4.6097-20.999 28.938-18.951 0 0 31.243 4.3535 23.048 36.621 0 0-1.7926 14.341-22.792-2.5609" fill="#803300" id="path17782" stroke="#000000" stroke-miterlimit="10" stroke-width="1.7025" />
    </g>
    <g id="26C-20DAP">
        <path d="m610.25 401.9s0.21581-7.4808 7.2913 1.2882c0 0 12.753 6.6759 19.391-9.6216 0 0-0.75332-18.267-21.429-20.151 0 0-26.807-0.97668-24.718 27.257 0 0-0.62055 12.274 19.465 1.2274" fill="#d45500" id="path17880" stroke="#000000" stroke-miterlimit="10" stroke-width="1.7025" />
    </g>
    <g id="26C-17DAP">
        <path d="m533.54 401.9s0.21581-7.4808 7.2913 1.2882c0 0 12.753 6.6759 19.391-9.6216 0 0-0.75332-18.267-21.429-20.151 0 0-26.807-0.97668-24.718 27.257 0 0-0.62056 12.274 19.465 1.2274" fill="#d45500" id="path17884" stroke="#000000" stroke-miterlimit="10" stroke-width="1.7025" />
    </g>
    <g id="26C-14DAP">
        <path d="m442.27 401.9s0.21581-7.4808 7.2913 1.2882c0 0 12.753 6.6759 19.391-9.6216 0 0-0.75332-18.267-21.429-20.151 0 0-26.807-0.97668-24.718 27.257 0 0-0.62056 12.274 19.465 1.2274" fill="#d45500" id="path17888" stroke="#000000" stroke-miterlimit="10" stroke-width="1.7025" />
    </g>
    <g id="26C-11DAP">
        <path d="m345 401.76s2.5609-9.9875 7.6827 0.25604c0 0 20.231 2.5609 18.695-15.109 0 0-12.548-36.365-43.535-0.25604 0 0-2.5608 11.012 17.158 15.109" fill="#ff6600" id="path17912" stroke="#000000" stroke-miterlimit="10" stroke-width="1.7025" />
    </g>
    <g id="26C-9DAP">
        <path d="m265.33 401.02s4.1071-5.4761 6.8451-1.369c0 0 21.904-2.738 4.1071-18.254 0 0-18.482-12.549-23.501 7.0733 0 0 1.5972 13.006 12.549 12.549" fill="#ff9955" id="path17945" stroke="#000000" stroke-miterlimit="10" stroke-width="1.5168" />
    </g>
    <g id="26C-7DAP">
        <path d="m208.51 401.16s3.6078-4.8104 6.013-1.2026c0 0 19.242-2.4052 3.6078-16.035 0 0-16.235-11.024-20.645 6.2134 0 0 1.403 11.425 11.024 11.024" fill="#ff9955" id="path17949" stroke="#000000" stroke-miterlimit="10" stroke-width="1.3325" />
    </g>
    <g id="Greenhouse-DS">
        <path d="m1100.5 535.61s1.2805-8.7071-8.7071 0c0 0-16.134 5.1218-20.487-15.109 0 0 4.6096-20.999 28.938-18.951 0 0 31.243 4.3535 23.048 36.621 0 0-1.7927 14.341-22.792-2.5609" fill="#803300" id="path17786" stroke="#000000" stroke-miterlimit="10" stroke-width="1.7025" />
    </g>
    <g id="Greenhouse-Abs">
        <path d="m1019.2 535.61s1.2805-8.7071-8.707 0c0 0-16.134 5.1218-20.487-15.109 0 0 4.6097-20.999 28.938-18.951 0 0 31.243 4.3535 23.048 36.621 0 0-1.7926 14.341-22.792-2.5609" fill="#803300" id="path17790" stroke="#000000" stroke-miterlimit="10" stroke-width="1.7025" />
    </g>
    <g id="Greenhouse-40DAP">
        <path d="m896.59 535.61s1.2805-8.7071-8.7071 0c0 0-16.134 5.1218-20.487-15.109 0 0 4.6096-20.999 28.938-18.951 0 0 31.243 4.3535 23.048 36.621 0 0-1.7927 14.341-22.792-2.5609" fill="#803300" id="path17840" stroke="#000000" stroke-miterlimit="10" stroke-width="1.7025" />
    </g>
    <g id="Greenhouse-36DAP">
        <path d="m782.7 535.61s1.2805-8.7071-8.707 0c0 0-16.134 5.1218-20.487-15.109 0 0 4.6096-20.999 28.938-18.951 0 0 31.243 4.3535 23.048 36.621 0 0-1.7927 14.341-22.792-2.5609" fill="#803300" id="path17844" stroke="#000000" stroke-miterlimit="10" stroke-width="1.7025" />
    </g>
    <g id="Greenhouse-32DAP">
        <path d="m659.34 539.2s0.2158-7.4808 7.2913 1.2882c0 0 12.753 6.6759 19.391-9.6216 0 0-0.75332-18.267-21.429-20.151 0 0-26.807-0.97668-24.718 27.257 0 0-0.62055 12.274 19.465 1.2275" fill="#d45500" id="path17892" stroke="#000000" stroke-miterlimit="10" stroke-width="1.7025" />
    </g>
    <g id="Greenhouse-28DAP">
        <path d="m582.63 539.2s0.21581-7.4808 7.2913 1.2882c0 0 12.753 6.6759 19.391-9.6216 0 0-0.75333-18.267-21.429-20.151 0 0-26.807-0.97668-24.718 27.257 0 0-0.62056 12.274 19.465 1.2275" fill="#d45500" id="path17896" stroke="#000000" stroke-miterlimit="10" stroke-width="1.7025" />
    </g>
    <g id="Greenhouse-24DAP">
        <path d="m472.95 539.2s0.21581-7.4808 7.2913 1.2882c0 0 12.753 6.6759 19.391-9.6216 0 0-0.75332-18.267-21.429-20.151 0 0-26.807-0.97668-24.718 27.257 0 0-0.62056 12.274 19.465 1.2275" fill="#d45500" id="path17900" stroke="#000000" stroke-miterlimit="10" stroke-width="1.7025" />
    </g>
    <g id="Greenhouse-20DAP">
        <path d="m327.24 544.08s0.5122-5.8901-8.1948-3.3292c0 0-25.353-7.6827-0.25606-25.353 0 0 26.377-3.8414 26.121 19.463 0 0 0.51219 13.829-17.67 9.2192" fill="#ff7f2a" id="path17924" stroke="#000000" stroke-miterlimit="10" stroke-width="1.7025" />
    </g>
    <g id="Greenhouse-16DAP">
        <path d="m230.59 546.9s3.6078-4.8104 6.013-1.2026c0 0 19.242-2.4052 3.6078-16.035 0 0-16.235-11.024-20.645 6.2134 0 0 1.403 11.425 11.024 11.024" fill="#ff9955" id="path17953" stroke="#000000" stroke-miterlimit="10" stroke-width="1.3325" />
    </g>
    <g id="OsmoticStress-DS">
        <path d="m1102.7 684.23s1.2805-8.7071-8.707 0c0 0-16.134 5.1218-20.487-15.109 0 0 4.6096-20.999 28.938-18.951 0 0 31.243 4.3535 23.048 36.621 0 0-1.7927 14.341-22.792-2.5609" fill="#803300" id="path17794" stroke="#000000" stroke-miterlimit="10" stroke-width="1.7025" />
    </g>
    <g id="OsmoticStress-Abs">
        <path d="m1021.3 684.23s1.2805-8.7071-8.707 0c0 0-16.134 5.1218-20.487-15.109 0 0 4.6096-20.999 28.938-18.951 0 0 31.243 4.3535 23.048 36.621 0 0-1.7926 14.341-22.792-2.5609" fill="#803300" id="path17798" stroke="#000000" stroke-miterlimit="10" stroke-width="1.7025" />
    </g>
    <g id="OsmoticStress-30DAP">
        <path d="m770.76 684.23s1.2805-8.7071-8.707 0c0 0-16.134 5.1218-20.487-15.109 0 0 4.6096-20.999 28.938-18.951 0 0 31.243 4.3535 23.048 36.621 0 0-1.7927 14.341-22.792-2.5609" fill="#803300" id="path17848" stroke="#000000" stroke-miterlimit="10" stroke-width="1.7025" />
    </g>
    <g id="OsmoticStress-25DAP">
        <path d="m574.96 681.1s0.21581-7.4808 7.2913 1.2882c0 0 12.753 6.6759 19.391-9.6216 0 0-0.75332-18.267-21.429-20.151 0 0-26.807-0.97668-24.718 27.257 0 0-0.62055 12.274 19.465 1.2274" fill="#d45500" id="path17904" stroke="#000000" stroke-miterlimit="10" stroke-width="1.7025" />
    </g>
    <g id="OsmoticStress-20DAP">
        <path d="m418.64 687.09s2.5609-9.9875 7.6827 0.25604c0 0 20.231 2.5609 18.695-15.109 0 0-12.548-36.365-43.535-0.25604 0 0-2.5608 11.012 17.158 15.109" fill="#ff6600" id="path17916" stroke="#000000" stroke-miterlimit="10" stroke-width="1.7025" />
    </g>
    <g id="OsmoticStress-15DAP">
        <path d="m332.46 687.27s0.5122-5.8901-8.1948-3.3292c0 0-25.353-7.6827-0.25606-25.353 0 0 26.377-3.8414 26.121 19.463 0 0 0.51219 13.829-17.67 9.2192" fill="#ff7f2a" id="path17928" stroke="#000000" stroke-miterlimit="10" stroke-width="1.7025" />
    </g>
    <g id="OsmoticStress-12DAP">
        <path d="m214.71 688.66s4.1071-5.4761 6.8451-1.369c0 0 21.904-2.738 4.1071-18.254 0 0-18.482-12.549-23.501 7.0733 0 0 1.5972 13.006 12.549 12.549" fill="#ff9955" id="path17957" stroke="#000000" stroke-miterlimit="10" stroke-width="1.5168" />
    </g>
</svg>
